<svg version="1.1" xmlns="http://www.w3.org/2000/svg" viewBox="0 0 10020 755.703125" width="10020" height="755.703125">
  <!-- svg-source:excalidraw -->
  
  <defs>
    <style>
      @font-face {
        font-family: "Virgil";
        src: url("https://excalidraw.com/Virgil.woff2");
      }
      @font-face {
        font-family: "Cascadia";
        src: url("https://excalidraw.com/Cascadia.woff2");
      }
    </style>
  </defs>
  <rect x="0" y="0" width="10020" height="755.703125" fill="#fff0"></rect><g stroke-linecap="round" transform="translate(10 10) rotate(0 5000 0.5)"><path d="M-0.52 -0.26 C3022.65 -30.2, 6044.59 -29.2, 9999.32 0.22 M0.38 -0.31 C3948.03 -0.44, 7895.41 0.2, 9999.95 0.08 M10000.08 -0.06 C10000.09 0.27, 10000.05 0.48, 10000.09 0.92 M9999.97 0.01 C9999.95 0.33, 9999.98 0.72, 10000 0.99 M10000.22 1.51 C7095.77 35.76, 4193.15 34.95, -0.25 0.75 M10000.01 1.13 C7827.97 2.74, 5656.23 3.35, -0.33 0.84 M-0.04 1.01 C0 0.63, -0.06 0.15, 0.05 -0.03 M-0.04 0.95 C-0.04 0.73, -0.03 0.59, -0.05 -0.02" stroke="transparent" stroke-width="1" fill="none"></path></g><g stroke-linecap="round"><g transform="translate(577 745.703125) rotate(0 0 -69.5)"><path d="M0.25 -0.44 C0.06 -23.77, -0.11 -115.9, -0.1 -139.07 M-1.08 -1.72 C-1.53 -24.93, -1.23 -114.79, -1.11 -137.56" stroke="#000" stroke-width="1" fill="none"></path></g><g transform="translate(577 745.703125) rotate(0 0 -69.5)"><path d="M8.31 -109.5 C4.8 -119.75, 0.24 -132.22, -0.17 -136.03 M8.83 -108.57 C6.94 -116.24, 2.66 -124.73, -1.25 -137.35" stroke="#000" stroke-width="1" fill="none"></path></g><g transform="translate(577 745.703125) rotate(0 0 -69.5)"><path d="M-12.21 -109.58 C-7.8 -119.84, -4.43 -132.28, -0.17 -136.03 M-11.7 -108.65 C-7.92 -116.47, -6.55 -124.94, -1.25 -137.35" stroke="#000" stroke-width="1" fill="none"></path></g></g><g stroke-linecap="round"><g transform="translate(560 728.703125) rotate(0 65.5 0)"><path d="M0.49 0.03 C22.28 -0.07, 108.39 -0.67, 130.06 -0.87 M-0.7 -1 C21.5 -0.95, 110.58 0.12, 132.28 0.21" stroke="#000" stroke-width="1" fill="none"></path></g><g transform="translate(560 728.703125) rotate(0 65.5 0)"><path d="M104.05 8.67 C109.55 6.84, 116.04 3.94, 130.3 -1.61 M104.44 10.98 C112.64 7.05, 120.7 3.96, 132.94 -0.07" stroke="#000" stroke-width="1" fill="none"></path></g><g transform="translate(560 728.703125) rotate(0 65.5 0)"><path d="M104.23 -11.85 C109.64 -8.61, 116.09 -6.46, 130.3 -1.61 M104.62 -9.54 C112.67 -7.21, 120.67 -4.04, 132.94 -0.07" stroke="#000" stroke-width="1" fill="none"></path></g></g><g stroke-linecap="round"><g transform="translate(576 726.703125) rotate(0 50 -39.5)"><path d="M0.07 1.13 C16.51 -11.95, 82.99 -65.24, 99.72 -78.49 M-1.35 0.67 C14.81 -12.76, 81.74 -66.84, 98.63 -80.35" stroke="#1864ab" stroke-width="1" fill="none"></path></g><g transform="translate(576 726.703125) rotate(0 50 -39.5)"><path d="M84.98 -55.14 C90.03 -63.95, 96.29 -73.37, 100.32 -78.8 M82.69 -54.02 C87.24 -63.69, 92.15 -71.39, 99.56 -79.41" stroke="#1864ab" stroke-width="1" fill="none"></path></g><g transform="translate(576 726.703125) rotate(0 50 -39.5)"><path d="M72.11 -71.13 C82.18 -73.69, 93.47 -76.86, 100.32 -78.8 M69.82 -70.01 C78.4 -74.75, 87.37 -77.42, 99.56 -79.41" stroke="#1864ab" stroke-width="1" fill="none"></path></g></g><g stroke-linecap="round"><g transform="translate(677 646.703125) rotate(0 27.5 -27.5)"><path d="M-0.29 -0.83 C8.79 -9.92, 45.17 -45.26, 54.47 -54.48 M1.76 1.36 C10.64 -8.1, 44.36 -46.86, 53.25 -56.33" stroke="#d9480f" stroke-width="1" fill="none"></path></g><g transform="translate(677 646.703125) rotate(0 27.5 -27.5)"><path d="M40.64 -29.39 C46.2 -35.83, 46.73 -44.63, 51.99 -56.81 M41.34 -29.15 C45.84 -35.67, 47.43 -40.54, 52.91 -56.31" stroke="#d9480f" stroke-width="1" fill="none"></path></g><g transform="translate(677 646.703125) rotate(0 27.5 -27.5)"><path d="M25.39 -43.12 C35.48 -45.44, 40.54 -50.17, 51.99 -56.81 M26.09 -42.88 C33.92 -46.28, 38.99 -48.02, 52.91 -56.31" stroke="#d9480f" stroke-width="1" fill="none"></path></g></g><g stroke-linecap="round"><g transform="translate(618 728.703125) rotate(0 -3 -14.5)"><path d="M-0.73 0.79 C-0.94 -1.71, 0.47 -11.35, -0.43 -16.13 C-1.33 -20.91, -5.03 -25.79, -6.13 -27.91 M1.08 0.16 C0.61 -2.57, -0.25 -12.82, -1.6 -17.8 C-2.94 -22.77, -6.02 -28.03, -6.97 -29.68" stroke="#1864ab" stroke-width="1" fill="none"></path></g></g><g transform="translate(630 696.703125) rotate(0 6 12.5)"><text x="0" y="18" font-family="Virgil, Segoe UI Emoji" font-size="20px" fill="#1864ab" text-anchor="start" style="white-space: pre;" direction="ltr">θ</text></g><g transform="translate(604 667.703125) rotate(0 5 12.5)"><text x="0" y="18" font-family="Virgil, Segoe UI Emoji" font-size="20px" fill="#1864ab" text-anchor="start" style="white-space: pre;" direction="ltr">r</text></g><g stroke-linecap="round"><g transform="translate(680 644.703125) rotate(0 -12.028668941979532 -10)"><path d="M-0.67 0.62 C-4.96 -2.59, -20.8 -16.73, -24.59 -20.32 M1.18 -0.1 C-3.42 -3.04, -21.65 -15.62, -25.82 -18.96" stroke="#d9480f" stroke-width="1" fill="none"></path></g><g transform="translate(680 644.703125) rotate(0 -12.028668941979532 -10)"><path d="M-10 -15.27 C-17.15 -15.56, -23.94 -17.16, -25.42 -18.94 M-11.11 -14.56 C-16.37 -16.87, -22.69 -17.26, -26.47 -19.07" stroke="#d9480f" stroke-width="1" fill="none"></path></g><g transform="translate(680 644.703125) rotate(0 -12.028668941979532 -10)"><path d="M-16.33 -6.64 C-20.89 -10.32, -25.16 -15.35, -25.42 -18.94 M-17.44 -5.94 C-20.42 -11.4, -24.39 -14.99, -26.47 -19.07" stroke="#d9480f" stroke-width="1" fill="none"></path></g></g><g stroke-linecap="round"><g transform="translate(682 640.703125) rotate(0 7.5 -40)"><path d="M1.15 -1.06 C3.77 -14.34, 12.97 -66.59, 15.41 -79.77 M0.3 0.99 C2.83 -12.66, 12.15 -68.45, 14.68 -81.77" stroke="#1864ab" stroke-width="1" fill="none"></path></g><g transform="translate(682 640.703125) rotate(0 7.5 -40)"><path d="M18.1 -51.54 C18.87 -58.91, 16.78 -69.2, 16.48 -80.96 M20.57 -52.37 C18.18 -59.86, 16.01 -68.06, 13.95 -82.06" stroke="#1864ab" stroke-width="1" fill="none"></path></g><g transform="translate(682 640.703125) rotate(0 7.5 -40)"><path d="M-2.1 -55.11 C4.17 -61.7, 7.6 -71.01, 16.48 -80.96 M0.37 -55.94 C3.62 -62.29, 7.09 -69.49, 13.95 -82.06" stroke="#1864ab" stroke-width="1" fill="none"></path></g></g><g transform="translate(709 532.703125) rotate(0 5.5 12.5)"><text x="0" y="18" font-family="Virgil, Segoe UI Emoji" font-size="20px" fill="#1864ab" text-anchor="start" style="white-space: pre;" direction="ltr">v</text></g><g transform="translate(742 560.703125) rotate(0 23.5 12.5)"><text x="0" y="18" font-family="Virgil, Segoe UI Emoji" font-size="20px" fill="#d9480f" text-anchor="start" style="white-space: pre;" direction="ltr">re^iθ</text></g><g transform="translate(555 584.703125) rotate(0 69.5 12.5)"><text x="0" y="18" font-family="Virgil, Segoe UI Emoji" font-size="20px" fill="#d9480f" text-anchor="start" style="white-space: pre;" direction="ltr">rθe^(i(θ+pi/2))</text></g><g stroke-linecap="round"><g transform="translate(823.5 733.203125) rotate(0 0 -69.5)"><path d="M-0.21 -0.43 C0.07 -23.92, 0.56 -117.01, 0.78 -139.99 M-1.78 -1.71 C-1.51 -25.15, -0.2 -115.87, 0.24 -138.97" stroke="#000" stroke-width="1" fill="none"></path></g><g transform="translate(823.5 733.203125) rotate(0 0 -69.5)"><path d="M9.31 -109.31 C5.95 -115.26, 6.51 -122.69, 0.76 -137.86 M10.64 -109.66 C6.75 -117.61, 5.9 -125.23, -0.42 -138.77" stroke="#000" stroke-width="1" fill="none"></path></g><g transform="translate(823.5 733.203125) rotate(0 0 -69.5)"><path d="M-11.2 -109.65 C-9.91 -115.49, -4.69 -122.84, 0.76 -137.86 M-9.88 -110 C-8.55 -117.69, -4.18 -125.23, -0.42 -138.77" stroke="#000" stroke-width="1" fill="none"></path></g></g><g stroke-linecap="round"><g transform="translate(806.5 716.203125) rotate(0 65.5 0)"><path d="M-0.43 0.78 C21.08 0.99, 107.99 1.13, 130.01 1.08 M1.54 0.14 C23.34 0.06, 110.59 -0.19, 132.21 -0.48" stroke="#000" stroke-width="1" fill="none"></path></g><g transform="translate(806.5 716.203125) rotate(0 65.5 0)"><path d="M105.39 8.35 C116.51 7.29, 126.12 2.72, 133.31 -1.39 M105.04 9.25 C113.48 7.37, 122.08 2.45, 132.4 -0.1" stroke="#000" stroke-width="1" fill="none"></path></g><g transform="translate(806.5 716.203125) rotate(0 65.5 0)"><path d="M105.24 -12.17 C116.38 -5.5, 126.05 -2.33, 133.31 -1.39 M104.89 -11.27 C113.21 -6.57, 121.85 -4.92, 132.4 -0.1" stroke="#000" stroke-width="1" fill="none"></path></g></g><g stroke-linecap="round"><g transform="translate(822.5 714.203125) rotate(0 50 -39.5)"><path d="M0.78 -0.99 C17.66 -13.97, 84.46 -65.36, 101.08 -78.32 M-0.27 1.11 C16.56 -12.18, 83.99 -67.03, 100.7 -80.08" stroke="#1864ab" stroke-width="1" fill="none"></path></g><g transform="translate(822.5 714.203125) rotate(0 50 -39.5)"><path d="M83.44 -52.66 C90.73 -61, 94.52 -67.94, 99.78 -79.67 M84.35 -54.17 C89.23 -60.3, 91.06 -65.56, 101.07 -80.94" stroke="#1864ab" stroke-width="1" fill="none"></path></g><g transform="translate(822.5 714.203125) rotate(0 50 -39.5)"><path d="M70.63 -68.69 C81.48 -72.58, 88.9 -74.99, 99.78 -79.67 M71.53 -70.19 C79.3 -72.96, 83.92 -74.74, 101.07 -80.94" stroke="#1864ab" stroke-width="1" fill="none"></path></g></g><g stroke-linecap="round"><g transform="translate(864.5 716.203125) rotate(0 -3 -14.5)"><path d="M1.08 0.68 C1.03 -1.93, 1.55 -11.65, 0.49 -16.69 C-0.58 -21.73, -4.3 -27.33, -5.34 -29.55 M0.19 0 C-0.04 -2.91, 0.78 -13.9, -0.21 -18.65 C-1.2 -23.4, -4.89 -26.73, -5.76 -28.52" stroke="#1864ab" stroke-width="1" fill="none"></path></g></g><g transform="translate(876.5 684.203125) rotate(0 6 12.5)"><text x="0" y="18" font-family="Virgil, Segoe UI Emoji" font-size="20px" fill="#1864ab" text-anchor="start" style="white-space: pre;" direction="ltr">θ</text></g><g transform="translate(850.5 655.203125) rotate(0 5 12.5)"><text x="0" y="18" font-family="Virgil, Segoe UI Emoji" font-size="20px" fill="#1864ab" text-anchor="start" style="white-space: pre;" direction="ltr">r</text></g><g stroke-linecap="round"><g transform="translate(928.5 628.203125) rotate(0 7.5 -40)"><path d="M0.66 -0.55 C3.12 -14.1, 12.74 -67.94, 15.24 -80.99 M-0.45 1.78 C1.83 -11.68, 11.79 -66.24, 14.42 -79.97" stroke="#1864ab" stroke-width="1" fill="none"></path></g><g transform="translate(928.5 628.203125) rotate(0 7.5 -40)"><path d="M18.44 -49.97 C15.95 -59.23, 17.82 -71.98, 15.02 -78.16 M19.73 -51.24 C17.87 -58.26, 16.68 -67.2, 14.75 -80.36" stroke="#1864ab" stroke-width="1" fill="none"></path></g><g transform="translate(928.5 628.203125) rotate(0 7.5 -40)"><path d="M-1.74 -53.73 C2.65 -61.82, 11.39 -73.29, 15.02 -78.16 M-0.45 -55 C3.48 -60.97, 8.1 -68.83, 14.75 -80.36" stroke="#1864ab" stroke-width="1" fill="none"></path></g></g><g transform="translate(955.5 520.203125) rotate(0 5.5 12.5)"><text x="0" y="18" font-family="Virgil, Segoe UI Emoji" font-size="20px" fill="#1864ab" text-anchor="start" style="white-space: pre;" direction="ltr">v</text></g><g stroke-linecap="round"><g transform="translate(926 634.703125) rotate(0 11.5 0)"><path d="M-0.3 1.18 C3.67 0.93, 19.2 -0.4, 23.13 -0.52 M1.74 0.75 C5.63 0.57, 18.76 1.15, 22.25 0.74" stroke="#d9480f" stroke-width="1" fill="none"></path></g><g transform="translate(926 634.703125) rotate(0 11.5 0)"><path d="M12.68 5.1 C13.59 4.27, 17.06 2.31, 21.16 1.12 M11.25 4.9 C14.2 3.51, 18.1 2.6, 21.73 0.81" stroke="#d9480f" stroke-width="1" fill="none"></path></g><g transform="translate(926 634.703125) rotate(0 11.5 0)"><path d="M12.46 -2.76 C13.48 -1.7, 17.01 -1.78, 21.16 1.12 M11.03 -2.96 C14.04 -2.1, 18 -0.76, 21.73 0.81" stroke="#d9480f" stroke-width="1" fill="none"></path></g></g><g stroke-linecap="round"><g transform="translate(926 634.703125) rotate(0 0 -41)"><path d="M0.46 -1 C0.52 -14.64, -0.59 -69.21, -0.48 -82.71 M-0.75 1.09 C-0.82 -12.34, -1.96 -67.92, -1.68 -81.55" stroke="#d9480f" stroke-width="1" fill="none"></path></g><g transform="translate(926 634.703125) rotate(0 0 -41)"><path d="M7 -54.19 C5.31 -57.93, 4.12 -67.39, -3.28 -81.99 M8.16 -53.83 C4.85 -62.8, 1.33 -72.84, -1.13 -80.63" stroke="#d9480f" stroke-width="1" fill="none"></path></g><g transform="translate(926 634.703125) rotate(0 0 -41)"><path d="M-13.53 -54.12 C-10.5 -57.97, -7 -67.44, -3.28 -81.99 M-12.36 -53.77 C-8.51 -62.84, -4.87 -72.91, -1.13 -80.63" stroke="#d9480f" stroke-width="1" fill="none"></path></g></g><g transform="translate(959 638.703125) rotate(0 6 12.5)"><text x="0" y="18" font-family="Virgil, Segoe UI Emoji" font-size="20px" fill="#d9480f" text-anchor="start" style="white-space: pre;" direction="ltr">x</text></g><g transform="translate(898 533.703125) rotate(0 5 12.5)"><text x="0" y="18" font-family="Virgil, Segoe UI Emoji" font-size="20px" fill="#d9480f" text-anchor="start" style="white-space: pre;" direction="ltr">y</text></g><g transform="translate(746 563.703125) rotate(0 0.00005000000000165983 0.00005000000000165983)" stroke="none"><path fill="#d9480f" d="M 1.57,-1.57 Q 1.57,-1.57 1.77,-1.27 1.98,-0.98 2.09,-0.64 2.20,-0.29 2.19,0.05 2.18,0.41 2.05,0.75 1.93,1.09 1.70,1.37 1.48,1.65 1.18,1.84 0.87,2.04 0.52,2.12 0.18,2.21 -0.17,2.18 -0.53,2.15 -0.86,2.01 -1.19,1.87 -1.46,1.63 -1.73,1.39 -1.90,1.07 -2.08,0.76 -2.15,0.41 -2.21,0.05 -2.17,-0.29 -2.12,-0.65 -1.96,-0.97 -1.80,-1.29 -1.54,-1.54 -1.29,-1.80 -0.97,-1.96 -0.65,-2.12 -0.29,-2.17 0.06,-2.21 0.41,-2.15 0.76,-2.08 1.07,-1.90 1.39,-1.73 1.63,-1.46 1.87,-1.19 2.01,-0.86 2.15,-0.53 2.18,-0.17 2.21,0.18 2.12,0.52 2.03,0.87 1.84,1.18 1.65,1.48 1.37,1.70 1.09,1.93 0.75,2.05 0.41,2.18 0.05,2.19 -0.30,2.20 -0.64,2.09 -0.98,1.98 -1.27,1.77 -1.57,1.56 -1.57,1.57 -1.57,1.57 -1.73,1.35 -1.90,1.14 -2.01,0.90 -2.12,0.66 -2.16,0.39 -2.21,0.13 -2.20,-0.13 -2.18,-0.40 -2.10,-0.65 -2.02,-0.91 -1.88,-1.14 -1.74,-1.36 -1.55,-1.55 -1.36,-1.74 -1.14,-1.88 -0.91,-2.02 -0.65,-2.10 -0.40,-2.18 -0.13,-2.20 0.13,-2.21 0.39,-2.16 0.66,-2.12 0.90,-2.01 1.14,-1.90 1.35,-1.73 1.57,-1.57 1.57,-1.57 L 1.57,-1.57 Z"></path></g><g transform="translate(569 577.703125) rotate(0 0.00005000000000165983 0.00005000000000165983)" stroke="none"><path fill="#d9480f" d="M 1.57,-1.57 Q 1.57,-1.57 1.77,-1.27 1.98,-0.98 2.09,-0.64 2.20,-0.29 2.19,0.05 2.18,0.41 2.05,0.75 1.93,1.09 1.70,1.37 1.48,1.65 1.18,1.84 0.87,2.04 0.52,2.12 0.18,2.21 -0.17,2.18 -0.53,2.15 -0.86,2.01 -1.19,1.87 -1.46,1.63 -1.73,1.39 -1.90,1.07 -2.08,0.76 -2.15,0.41 -2.21,0.05 -2.17,-0.29 -2.12,-0.65 -1.96,-0.97 -1.80,-1.29 -1.54,-1.54 -1.29,-1.80 -0.97,-1.96 -0.65,-2.12 -0.29,-2.17 0.06,-2.21 0.41,-2.15 0.76,-2.08 1.07,-1.90 1.39,-1.73 1.63,-1.46 1.87,-1.19 2.01,-0.86 2.15,-0.53 2.18,-0.17 2.21,0.18 2.12,0.52 2.03,0.87 1.84,1.18 1.65,1.48 1.37,1.70 1.09,1.93 0.75,2.05 0.41,2.18 0.05,2.19 -0.30,2.20 -0.64,2.09 -0.98,1.98 -1.27,1.77 -1.57,1.56 -1.57,1.57 -1.57,1.57 -1.73,1.35 -1.90,1.14 -2.01,0.90 -2.12,0.66 -2.16,0.39 -2.21,0.13 -2.20,-0.13 -2.18,-0.40 -2.10,-0.65 -2.02,-0.91 -1.88,-1.14 -1.74,-1.36 -1.55,-1.55 -1.36,-1.74 -1.14,-1.88 -0.91,-2.02 -0.65,-2.10 -0.40,-2.18 -0.13,-2.20 0.13,-2.21 0.39,-2.16 0.66,-2.12 0.90,-2.01 1.14,-1.90 1.35,-1.73 1.57,-1.57 1.57,-1.57 L 1.57,-1.57 Z"></path></g><g transform="translate(965 641.703125) rotate(0 0.00004999999998744897 0.00005000000000165983)" stroke="none"><path fill="#d9480f" d="M 1.57,-1.57 Q 1.57,-1.57 1.77,-1.27 1.98,-0.98 2.09,-0.64 2.20,-0.29 2.19,0.05 2.18,0.41 2.05,0.75 1.93,1.09 1.70,1.37 1.48,1.65 1.18,1.84 0.87,2.04 0.52,2.12 0.18,2.21 -0.17,2.18 -0.53,2.15 -0.86,2.01 -1.19,1.87 -1.46,1.63 -1.73,1.39 -1.90,1.07 -2.08,0.76 -2.15,0.41 -2.21,0.05 -2.17,-0.29 -2.12,-0.65 -1.96,-0.97 -1.80,-1.29 -1.54,-1.54 -1.29,-1.80 -0.97,-1.96 -0.65,-2.12 -0.29,-2.17 0.06,-2.21 0.41,-2.15 0.76,-2.08 1.07,-1.90 1.39,-1.73 1.63,-1.46 1.87,-1.19 2.01,-0.86 2.15,-0.53 2.18,-0.17 2.21,0.18 2.12,0.52 2.03,0.87 1.84,1.18 1.65,1.48 1.37,1.70 1.09,1.93 0.75,2.05 0.41,2.18 0.05,2.19 -0.30,2.20 -0.64,2.09 -0.98,1.98 -1.27,1.77 -1.57,1.56 -1.57,1.57 -1.57,1.57 -1.73,1.35 -1.90,1.14 -2.01,0.90 -2.12,0.66 -2.16,0.39 -2.21,0.13 -2.20,-0.13 -2.18,-0.40 -2.10,-0.65 -2.02,-0.91 -1.88,-1.14 -1.74,-1.36 -1.55,-1.55 -1.36,-1.74 -1.14,-1.88 -0.91,-2.02 -0.65,-2.10 -0.40,-2.18 -0.13,-2.20 0.13,-2.21 0.39,-2.16 0.66,-2.12 0.90,-2.01 1.14,-1.90 1.35,-1.73 1.57,-1.57 1.57,-1.57 L 1.57,-1.57 Z"></path></g><g transform="translate(903 535.703125) rotate(0 0.00004999999998744897 0.00004999999999988347)" stroke="none"><path fill="#d9480f" d="M 1.57,-1.57 Q 1.57,-1.57 1.77,-1.27 1.98,-0.98 2.09,-0.64 2.20,-0.29 2.19,0.05 2.18,0.41 2.05,0.75 1.93,1.09 1.70,1.37 1.48,1.65 1.18,1.84 0.87,2.04 0.52,2.12 0.18,2.21 -0.17,2.18 -0.53,2.15 -0.86,2.01 -1.19,1.87 -1.46,1.63 -1.73,1.39 -1.90,1.07 -2.08,0.76 -2.15,0.41 -2.21,0.05 -2.17,-0.29 -2.12,-0.65 -1.96,-0.97 -1.80,-1.29 -1.54,-1.54 -1.29,-1.80 -0.97,-1.96 -0.65,-2.12 -0.29,-2.17 0.06,-2.21 0.41,-2.15 0.76,-2.08 1.07,-1.90 1.39,-1.73 1.63,-1.46 1.87,-1.19 2.01,-0.86 2.15,-0.53 2.18,-0.17 2.21,0.18 2.12,0.52 2.03,0.87 1.84,1.18 1.65,1.48 1.37,1.70 1.09,1.93 0.75,2.05 0.41,2.18 0.05,2.19 -0.30,2.20 -0.64,2.09 -0.98,1.98 -1.27,1.77 -1.57,1.56 -1.57,1.57 -1.57,1.57 -1.73,1.35 -1.90,1.14 -2.01,0.90 -2.12,0.66 -2.16,0.39 -2.21,0.13 -2.20,-0.13 -2.18,-0.40 -2.10,-0.65 -2.02,-0.91 -1.88,-1.14 -1.74,-1.36 -1.55,-1.55 -1.36,-1.74 -1.14,-1.88 -0.91,-2.02 -0.65,-2.10 -0.40,-2.18 -0.13,-2.20 0.13,-2.21 0.39,-2.16 0.66,-2.12 0.90,-2.01 1.14,-1.90 1.35,-1.73 1.57,-1.57 1.57,-1.57 L 1.57,-1.57 Z"></path></g><g stroke-linecap="round"><g transform="translate(1006 731.203125) rotate(0 0 -69.5)"><path d="M-0.14 -0.36 C-0.17 -23.58, 0.43 -115.38, 0.27 -138.48 M-1.67 -1.6 C-1.87 -25.25, -1.02 -117.66, -0.54 -140.33" stroke="#000" stroke-width="1" fill="none"></path></g><g transform="translate(1006 731.203125) rotate(0 0 -69.5)"><path d="M8.73 -111.55 C6.69 -123.37, 2.62 -131.45, -0.59 -139.78 M8.88 -111.95 C5.81 -119.62, 3.24 -125.23, -0.07 -140.78" stroke="#000" stroke-width="1" fill="none"></path></g><g transform="translate(1006 731.203125) rotate(0 0 -69.5)"><path d="M-11.79 -111.83 C-6.94 -123.53, -4.13 -131.52, -0.59 -139.78 M-11.64 -112.24 C-9.67 -119.88, -7.2 -125.42, -0.07 -140.78" stroke="#000" stroke-width="1" fill="none"></path></g></g><g stroke-linecap="round"><g transform="translate(1005 712.203125) rotate(0 50 -39.5)"><path d="M-0.36 0.27 C16.25 -13.06, 83.78 -66.86, 100.52 -80.11 M1.65 -0.64 C18.08 -13.85, 83.57 -66.25, 99.85 -79.16" stroke="#1864ab" stroke-width="1" fill="none"></path></g><g transform="translate(1005 712.203125) rotate(0 50 -39.5)"><path d="M84.65 -52.7 C88.16 -62.87, 95.36 -72.5, 100.39 -80.25 M84.24 -54.4 C89.62 -64.56, 97.13 -73.19, 99.4 -79.32" stroke="#1864ab" stroke-width="1" fill="none"></path></g><g transform="translate(1005 712.203125) rotate(0 50 -39.5)"><path d="M71.86 -68.74 C80.08 -72.95, 92.01 -76.64, 100.39 -80.25 M71.45 -70.45 C81.9 -74.22, 94.45 -76.54, 99.4 -79.32" stroke="#1864ab" stroke-width="1" fill="none"></path></g></g><g transform="translate(1055 680.203125) rotate(0 20.5 12.5)"><text x="0" y="18" font-family="Virgil, Segoe UI Emoji" font-size="20px" fill="#1864ab" text-anchor="start" style="white-space: pre;" direction="ltr">P(t)</text></g><g stroke-linecap="round"><g transform="translate(994.5 713.703125) rotate(0 65.5 0)"><path d="M-0.19 0.37 C21.68 0.32, 108.71 1.05, 130.45 0.83 M-1.76 -0.48 C19.98 -0.35, 106.79 -0.91, 129.22 -0.85" stroke="#000" stroke-width="1" fill="none"></path></g><g transform="translate(994.5 713.703125) rotate(0 65.5 0)"><path d="M101.66 8.56 C108.99 5.88, 112.66 6.29, 129.03 -1.56 M100.37 10.25 C109.57 7.09, 120.61 3.67, 128.97 -0.96" stroke="#000" stroke-width="1" fill="none"></path></g><g transform="translate(994.5 713.703125) rotate(0 65.5 0)"><path d="M101.62 -11.96 C109.14 -9.8, 112.83 -4.55, 129.03 -1.56 M100.32 -10.27 C109.33 -6.59, 120.39 -3.16, 128.97 -0.96" stroke="#000" stroke-width="1" fill="none"></path></g></g><g stroke-linecap="round"><g transform="translate(1053 588.703125) rotate(0 44 48)"><path d="M-0.44 0.06 C5.25 4.25, 22.03 15.73, 33.55 26.04 C45.06 36.35, 59.59 50.07, 68.64 61.9 C77.69 73.72, 84.59 91.5, 87.85 96.99 M1.53 -0.96 C7.08 2.84, 21.25 13.77, 32.36 24.46 C43.47 35.15, 58.94 51.41, 68.21 63.16 C77.49 74.91, 84.92 89.71, 88.02 94.96" stroke="#000" stroke-width="1" fill="none"></path></g></g><g transform="translate(1138 638.703125) rotate(0 6 12.5)"><text x="0" y="18" font-family="Virgil, Segoe UI Emoji" font-size="20px" fill="#000" text-anchor="start" style="white-space: pre;" direction="ltr">s</text></g><g stroke-linecap="round"><g transform="translate(1005 710.703125) rotate(0 25.5 -58.5)"><path d="M0.91 0.92 C9.16 -18.55, 41.99 -96.22, 50.32 -115.92 M-0.07 0.36 C8.49 -19.51, 44.31 -98.07, 52.67 -117.47" stroke="#1864ab" stroke-width="1" fill="none"></path></g><g transform="translate(1005 710.703125) rotate(0 25.5 -58.5)"><path d="M52.12 -88.69 C52.92 -98.81, 51.49 -109.61, 53.2 -117.62 M51.42 -88.49 C50.44 -94.75, 50.78 -100.81, 53.27 -117.82" stroke="#1864ab" stroke-width="1" fill="none"></path></g><g transform="translate(1005 710.703125) rotate(0 25.5 -58.5)"><path d="M33.37 -97.03 C41.19 -104.21, 46.69 -111.92, 53.2 -117.62 M32.67 -96.83 C35.86 -101.35, 40.33 -105.57, 53.27 -117.82" stroke="#1864ab" stroke-width="1" fill="none"></path></g></g><g transform="translate(1033 564.703125) rotate(0 34 12.5)"><text x="0" y="18" font-family="Virgil, Segoe UI Emoji" font-size="20px" fill="#1864ab" text-anchor="start" style="white-space: pre;" direction="ltr">P(t+τ)</text></g><g transform="translate(1079 570.703125) rotate(0 5.5 12.5)"><text x="0" y="18" font-family="Virgil, Segoe UI Emoji" font-size="20px" fill="#1864ab" text-anchor="start" style="white-space: pre;" direction="ltr"></text></g><g stroke-linecap="round"><g transform="translate(1105 631.703125) rotate(0 -24 -19.5)"><path d="M1.09 -0.16 C-6.87 -6.84, -39.41 -33.73, -47.74 -40.06 M0.2 -1.28 C-7.9 -7.86, -40.77 -32.62, -48.55 -39.08" stroke="#d9480f" stroke-width="1" fill="none"></path></g><g transform="translate(1105 631.703125) rotate(0 -24 -19.5)"><path d="M-20.3 -29.29 C-30.45 -33.81, -35.92 -36.38, -49.02 -37.69 M-20.74 -28.97 C-30.65 -32.52, -41.18 -36.93, -48.59 -38.95" stroke="#d9480f" stroke-width="1" fill="none"></path></g><g transform="translate(1105 631.703125) rotate(0 -24 -19.5)"><path d="M-32.99 -13.16 C-39.3 -22.68, -40.93 -30.14, -49.02 -37.69 M-33.42 -12.84 C-38.7 -22.26, -44.67 -32.47, -48.59 -38.95" stroke="#d9480f" stroke-width="1" fill="none"></path></g></g><g transform="translate(1104 596.703125) rotate(0 13 12.5)"><text x="0" y="18" font-family="Virgil, Segoe UI Emoji" font-size="20px" fill="#d9480f" text-anchor="start" style="white-space: pre;" direction="ltr">dP</text></g></svg>