<svg version="1.1" xmlns="http://www.w3.org/2000/svg" viewBox="0 0 10020 777.453125" width="10020" height="777.453125">
  <!-- svg-source:excalidraw -->
  
  <defs>
    <style>
      @font-face {
        font-family: "Virgil";
        src: url("https://excalidraw.com/Virgil.woff2");
      }
      @font-face {
        font-family: "Cascadia";
        src: url("https://excalidraw.com/Cascadia.woff2");
      }
    </style>
  </defs>
  <rect x="0" y="0" width="10020" height="777.453125" fill="#fff0"></rect><g stroke-linecap="round" transform="translate(10 10) rotate(0 5000 0.5)"><path d="M-0.52 -0.26 C3022.65 -30.2, 6044.59 -29.2, 9999.32 0.22 M0.38 -0.31 C3948.03 -0.44, 7895.41 0.2, 9999.95 0.08 M10000.08 -0.06 C10000.09 0.27, 10000.05 0.48, 10000.09 0.92 M9999.97 0.01 C9999.95 0.33, 9999.98 0.72, 10000 0.99 M10000.22 1.51 C7095.77 35.76, 4193.15 34.95, -0.25 0.75 M10000.01 1.13 C7827.97 2.74, 5656.23 3.35, -0.33 0.84 M-0.04 1.01 C0 0.63, -0.06 0.15, 0.05 -0.03 M-0.04 0.95 C-0.04 0.73, -0.03 0.59, -0.05 -0.02" stroke="transparent" stroke-width="1" fill="none"></path></g><g stroke-linecap="round"><g transform="translate(652 735.453125) rotate(0 -1.5 -108)"><path d="M-0.05 -0.68 C-0.57 -36.72, -1.65 -179.69, -2.1 -215.57 M-1.53 1.57 C-2.23 -34.89, -2.26 -181.44, -2.57 -217.46" stroke="#000" stroke-width="1" fill="none"></path></g><g transform="translate(652 735.453125) rotate(0 -1.5 -108)"><path d="M6.66 -187.81 C4.33 -199.87, -0.31 -210.28, -4.07 -217.43 M8.2 -189.81 C3.02 -199.74, 1.06 -208.86, -3.18 -217.8" stroke="#000" stroke-width="1" fill="none"></path></g><g transform="translate(652 735.453125) rotate(0 -1.5 -108)"><path d="M-13.86 -187.73 C-8.2 -199.81, -4.85 -210.26, -4.07 -217.43 M-12.32 -189.73 C-10.19 -199.8, -4.83 -208.94, -3.18 -217.8" stroke="#000" stroke-width="1" fill="none"></path></g></g><g stroke-linecap="round"><g transform="translate(616 719.453125) rotate(0 192.5 -1)"><path d="M0.12 -0.63 C64.06 -0.79, 320.25 -1.93, 384.38 -1.99 M-1.28 1.65 C62.99 1.79, 322.54 0.29, 386.76 -0.44" stroke="#000" stroke-width="1" fill="none"></path></g><g transform="translate(616 719.453125) rotate(0 192.5 -1)"><path d="M357.6 9.01 C368.93 6.06, 380.79 2.93, 386.22 1.45 M357.75 9.79 C368.89 6.49, 381.31 1.03, 387.2 -0.99" stroke="#000" stroke-width="1" fill="none"></path></g><g transform="translate(616 719.453125) rotate(0 192.5 -1)"><path d="M357.44 -11.51 C368.65 -7.04, 380.56 -2.75, 386.22 1.45 M357.58 -10.73 C368.8 -5.86, 381.29 -3.15, 387.2 -0.99" stroke="#000" stroke-width="1" fill="none"></path></g></g><g stroke-linecap="round"><g transform="translate(672 671.453125) rotate(0 98.5 -52)"><path d="M-0.49 -0.72 C3.34 -10.64, 3.19 -50.27, 22.3 -58.83 C41.42 -67.38, 88.05 -44.68, 114.2 -52.03 C140.35 -59.37, 165.58 -94.42, 179.19 -102.89 C192.81 -111.36, 192.98 -102.83, 195.88 -102.83 M1.45 1.51 C5.21 -8.34, 2.83 -48.93, 21.52 -57.72 C40.2 -66.52, 87.2 -43.39, 113.54 -51.25 C139.88 -59.11, 165.55 -95.82, 179.54 -104.86 C193.53 -113.9, 194.44 -105.74, 197.49 -105.49" stroke="#d9480f" stroke-width="1" fill="none"></path></g></g><g stroke-linecap="round"><g transform="translate(604.5228433019947 710.3282951854169) rotate(0 157.23857834900264 -86.43758509270846)"><path d="M-0.01 0.88 C52.35 -27.8, 262.6 -142.83, 315.02 -171.96 M-1.48 0.29 C50.7 -28.72, 261.82 -144.7, 314.35 -173.6" stroke="#1864ab" stroke-width="1" fill="none"></path></g></g><g transform="translate(673 512.453125) rotate(0 5 12.5)"><text x="0" y="18" font-family="Virgil, Segoe UI Emoji" font-size="20px" fill="#000000" text-anchor="start" style="white-space: pre;" direction="ltr">y</text></g><g transform="translate(1020 706.453125) rotate(0 6 12.5)"><text x="0" y="18" font-family="Virgil, Segoe UI Emoji" font-size="20px" fill="#000000" text-anchor="start" style="white-space: pre;" direction="ltr">x</text></g><g stroke-linecap="round"><g transform="translate(674 670.453125) rotate(0 0.5 33.5)"><path d="M-1.05 1.04 C-1.12 12.21, 0.27 56.56, 0.54 67.59 M0.6 0.54 C0.25 11.31, -0.48 54.43, -0.65 65.78" stroke="#000000" stroke-width="1" fill="none"></path></g></g><g stroke-linecap="round"><g transform="translate(865 568.453125) rotate(0 1 76)"><path d="M0.95 0.76 C1.32 25.92, 1.65 125.43, 1.74 150.81 M-0.01 0.12 C0.22 25.39, 0.57 126.53, 0.66 151.72" stroke="#000000" stroke-width="1" fill="none"></path></g></g><g transform="translate(660 742.453125) rotate(0 7 12.5)"><text x="0" y="18" font-family="Virgil, Segoe UI Emoji" font-size="20px" fill="#000000" text-anchor="start" style="white-space: pre;" direction="ltr">a</text></g><g transform="translate(866 738.453125) rotate(0 5.5 12.5)"><text x="0" y="18" font-family="Virgil, Segoe UI Emoji" font-size="20px" fill="#000000" text-anchor="start" style="white-space: pre;" direction="ltr">b</text></g><g stroke-linecap="round"><g transform="translate(584.7614216509974 673.8907100927084) rotate(0 157.23857834900264 -86.43758509270846)"><path d="M0.25 0.64 C52.66 -27.95, 262.38 -143.03, 314.77 -171.92 M-1.08 -0.06 C51.17 -28.95, 261.49 -145.01, 313.98 -173.55" stroke="#1864ab" stroke-width="1" fill="none"></path></g></g><g stroke-linecap="round"><g transform="translate(697 609.453125) rotate(0 0 63.5)"><path d="M0.83 -0.76 C1.14 20.58, 0.86 105.76, 0.69 126.91 M-0.19 1.45 C0.12 23.09, 0.25 107.47, 0.11 128.41" stroke="#000000" stroke-width="1" fill="none"></path></g></g><g transform="translate(705 730.453125) rotate(0 5.5 12.5)"><text x="0" y="18" font-family="Virgil, Segoe UI Emoji" font-size="20px" fill="#000000" text-anchor="start" style="white-space: pre;" direction="ltr">c</text></g></svg>