<svg version="1.1" xmlns="http://www.w3.org/2000/svg" viewBox="0 0 10020 810.4375" width="10020" height="810.4375">
  <!-- svg-source:excalidraw -->
  
  <defs>
    <style>
      @font-face {
        font-family: "Virgil";
        src: url("https://excalidraw.com/Virgil.woff2");
      }
      @font-face {
        font-family: "Cascadia";
        src: url("https://excalidraw.com/Cascadia.woff2");
      }
    </style>
  </defs>
  <rect x="0" y="0" width="10020" height="810.4375" fill="#fff0"></rect><g stroke-linecap="round" transform="translate(10 10) rotate(0 5000 0.5)"><path d="M-0.52 -0.26 C3022.65 -30.2, 6044.59 -29.2, 9999.32 0.22 M0.38 -0.31 C3948.03 -0.44, 7895.41 0.2, 9999.95 0.08 M10000.08 -0.06 C10000.09 0.27, 10000.05 0.48, 10000.09 0.92 M9999.97 0.01 C9999.95 0.33, 9999.98 0.72, 10000 0.99 M10000.22 1.51 C7095.77 35.76, 4193.15 34.95, -0.25 0.75 M10000.01 1.13 C7827.97 2.74, 5656.23 3.35, -0.33 0.84 M-0.04 1.01 C0 0.63, -0.06 0.15, 0.05 -0.03 M-0.04 0.95 C-0.04 0.73, -0.03 0.59, -0.05 -0.02" stroke="transparent" stroke-width="1" fill="none"></path></g><g stroke-linecap="round" transform="translate(732.84375 717.4375) rotate(0 79.5 39.5)"><path d="M0.28 -0.54 C35.87 -2.73, 73.97 0.07, 157.99 -0.94 M0.39 0.99 C35.49 -2.2, 71.17 -1.07, 159.39 0 M160.02 -0.37 C158.05 24.51, 158.57 49.39, 159.28 79.71 M158 0.26 C158.21 24.09, 158.6 49.49, 158.04 78.87 M158.1 78.04 C102.87 80.59, 48.47 80.77, 1.99 79.16 M158.95 78.38 C105.84 78.51, 51.01 77.37, -0.57 78.95 M1.45 80.4 C-0.94 49.64, 1.52 18.55, -1.89 -1.47 M0.3 78.73 C0.22 62.75, 1.07 46.87, -0.59 -0.19" stroke="#000" stroke-width="1" fill="none"></path></g><g stroke-linecap="round" transform="translate(949.84375 587.4375) rotate(0 76 36)"><path d="M0 0.35 C39.19 -1.46, 79.13 -0.96, 150.99 -0.56 M0.35 0.13 C41.17 -0.83, 82.88 0.04, 151.82 -0.66 M151.74 1.04 C150.88 23.29, 151.09 45.19, 151.84 73.42 M152.08 0.38 C153.54 26.11, 152.53 52.68, 152.62 72.36 M151.89 73.47 C111.11 69.16, 75.02 72.52, -1.6 72.14 M151.26 71.03 C99.63 69.75, 48.01 70.29, 0.04 71.8 M-0.38 71.54 C0.85 43.48, -0.18 15.32, -0.06 0.86 M-0.64 71.61 C-0.62 53.59, -0.33 36.94, 0.29 0.92" stroke="#000" stroke-width="1" fill="none"></path></g><g stroke-linecap="round" transform="translate(1152.84375 717.4375) rotate(0 75 41.5)"><path d="M-1.55 -1.15 C54.25 2.1, 107.04 -1.33, 151.45 1.4 M-0.73 -0.95 C32.26 -1.61, 65.78 -1.46, 150.3 -0.27 M149.93 -1.18 C149.45 24.76, 150.65 49.94, 149.79 82.35 M150.38 0.79 C149.72 24.27, 150.01 48.56, 149.94 83.23 M151.86 81.19 C100.07 81.7, 51.43 82.95, 1.26 81.86 M150.03 83.48 C110.66 81.05, 70.67 80.73, 0.75 83.72 M1.56 84.97 C0.88 59.25, -0.96 31.22, 1.13 1.46 M-0.11 82.56 C0.98 61.64, 0.7 40.61, 0.76 0.28" stroke="#000" stroke-width="1" fill="none"></path></g><g stroke-linecap="round" transform="translate(1001.84375 743.4375) rotate(0 18 13)"><path d="M25.57 1.04 C29.05 2.08, 33.18 4.84, 34.79 7.36 C36.41 9.88, 36.35 13.36, 35.24 16.16 C34.13 18.95, 31.41 22.45, 28.16 24.15 C24.91 25.84, 19.42 26.77, 15.72 26.32 C12.02 25.87, 8.62 23.58, 5.94 21.47 C3.27 19.36, 0.22 16.35, -0.34 13.67 C-0.9 10.99, 0.24 7.55, 2.58 5.39 C4.93 3.23, 9.4 1.24, 13.73 0.7 C18.06 0.16, 25.84 1.87, 28.57 2.12 C31.29 2.38, 30.46 2.19, 30.09 2.23 M17.43 -0.58 C21.26 -1.1, 27.53 -0.3, 30.59 1.74 C33.66 3.78, 35.38 8.8, 35.82 11.66 C36.26 14.52, 35.46 16.84, 33.24 18.9 C31.02 20.96, 25.91 22.81, 22.49 24.03 C19.07 25.25, 16.06 26.77, 12.71 26.22 C9.35 25.67, 4.63 23.16, 2.34 20.74 C0.05 18.32, -2 14.47, -1.04 11.71 C-0.07 8.95, 4.72 6.13, 8.13 4.16 C11.55 2.18, 17.91 0.38, 19.45 -0.13 C21 -0.64, 17.42 0.97, 17.41 1.11" stroke="#000" stroke-width="1" fill="none"></path></g><g stroke-linecap="round"><g transform="translate(618.84375 748.4375) rotate(0 56.5 -2)"><path d="M-0.36 -0.87 C18.29 -1.37, 94.02 -3.49, 113.04 -4.12 M1.64 1.29 C20.05 1.07, 93.49 -1.81, 112.11 -2.65" stroke="#000" stroke-width="1" fill="none"></path></g><g transform="translate(618.84375 748.4375) rotate(0 56.5 -2)"><path d="M82.92 8.83 C95.16 5.63, 105.13 -0.89, 113.18 -4.56 M83.85 7.83 C91.89 6.09, 101.86 1.93, 113.06 -3.56" stroke="#000" stroke-width="1" fill="none"></path></g><g transform="translate(618.84375 748.4375) rotate(0 56.5 -2)"><path d="M82.08 -11.68 C94.47 -6.82, 104.76 -5.28, 113.18 -4.56 M83 -12.67 C91.4 -8.19, 101.62 -6.14, 113.06 -3.56" stroke="#000" stroke-width="1" fill="none"></path></g></g><g stroke-linecap="round"><g transform="translate(1020.84375 671.4375) rotate(0 0 29.5)"><path d="M1 0.93 C0.82 10.45, -0.05 48.48, -0.11 58.3 M0.06 0.38 C-0.36 10.55, -1.14 49.87, -1.11 59.47" stroke="#000" stroke-width="1" fill="none"></path></g><g transform="translate(1020.84375 671.4375) rotate(0 0 29.5)"><path d="M-9.35 31.47 C-8.09 43.21, -1.76 51.8, -2.32 58.71 M-10.7 31.84 C-7.45 40.39, -5.09 47.28, -0.76 59.3" stroke="#000" stroke-width="1" fill="none"></path></g><g transform="translate(1020.84375 671.4375) rotate(0 0 29.5)"><path d="M10.83 31.68 C4.45 43.51, 3.16 52.02, -2.32 58.71 M9.48 32.05 C6.9 40.64, 3.43 47.47, -0.76 59.3" stroke="#000" stroke-width="1" fill="none"></path></g></g><g stroke-linecap="round"><g transform="translate(900.84375 749.4375) rotate(0 46.5 0)"><path d="M-0.47 0.42 C14.85 0.47, 77.39 0.52, 92.8 0.61 M1.49 -0.4 C16.55 -0.74, 76.27 -1.11, 91.74 -1.19" stroke="#000" stroke-width="1" fill="none"></path></g><g transform="translate(900.84375 749.4375) rotate(0 46.5 0)"><path d="M64.32 8.9 C75.18 3.68, 86.33 1.11, 90.36 -1.73 M63.05 9.29 C73.56 6.36, 84.84 2.38, 90.74 -0.87" stroke="#000" stroke-width="1" fill="none"></path></g><g transform="translate(900.84375 749.4375) rotate(0 46.5 0)"><path d="M64.19 -11.62 C75.15 -9.13, 86.35 -3.98, 90.36 -1.73 M62.92 -11.23 C73.54 -6.51, 84.87 -2.83, 90.74 -0.87" stroke="#000" stroke-width="1" fill="none"></path></g></g><g stroke-linecap="round"><g transform="translate(1047.84375 749.4375) rotate(0 40.5 0.5)"><path d="M-0.17 -0.74 C13.05 -0.75, 66.79 -0.24, 80.4 -0.13 M-1.72 1.49 C11.8 1.59, 69.02 0.94, 82.79 0.81" stroke="#000" stroke-width="1" fill="none"></path></g><g transform="translate(1047.84375 749.4375) rotate(0 40.5 0.5)"><path d="M53.47 10.36 C63.75 8.03, 74.81 4.66, 84.09 -0.08 M55.35 12.02 C64.52 9, 73.28 3.97, 83.04 1.11" stroke="#000" stroke-width="1" fill="none"></path></g><g transform="translate(1047.84375 749.4375) rotate(0 40.5 0.5)"><path d="M53.27 -10.17 C63.61 -4.51, 74.75 0.1, 84.09 -0.08 M55.14 -8.5 C64.47 -5.03, 73.29 -3.59, 83.04 1.11" stroke="#000" stroke-width="1" fill="none"></path></g></g><g stroke-linecap="round"><g transform="translate(1309.84375 759.4375) rotate(0 48.5 -0.5)"><path d="M-1.01 0.77 C15.25 0.71, 81.31 0.3, 97.79 0.18 M0.66 0.13 C16.82 -0.28, 81.1 -1.01, 97.26 -1.32" stroke="#000" stroke-width="1" fill="none"></path></g><g transform="translate(1309.84375 759.4375) rotate(0 48.5 -0.5)"><path d="M70.51 10.68 C80 7.7, 88.64 0.92, 97.75 -0.72 M69.69 9.22 C79.21 5.43, 89.51 1.84, 97.24 -0.48" stroke="#000" stroke-width="1" fill="none"></path></g><g transform="translate(1309.84375 759.4375) rotate(0 48.5 -0.5)"><path d="M70.2 -9.84 C79.89 -6.33, 88.62 -6.63, 97.75 -0.72 M69.39 -11.3 C79.2 -7.86, 89.6 -4.22, 97.24 -0.48" stroke="#000" stroke-width="1" fill="none"></path></g></g><g stroke-linecap="round"><g transform="translate(1026.84375 525.4375) rotate(0 -0.5 28)"><path d="M0.94 -0.49 C0.41 8.87, -1.8 46.64, -2.13 55.98 M-0.03 -1.79 C-0.29 7.79, 0.28 47.76, -0.01 57.5" stroke="#000" stroke-width="1" fill="none"></path></g><g transform="translate(1026.84375 525.4375) rotate(0 -0.5 28)"><path d="M-10.27 29.26 C-5.91 41.19, -2.97 49.56, 1.21 57.84 M-8.81 30.6 C-6.84 41.71, -1.54 51.32, -0.33 57.62" stroke="#000" stroke-width="1" fill="none"></path></g><g transform="translate(1026.84375 525.4375) rotate(0 -0.5 28)"><path d="M8.89 29.36 C5.89 41.39, 1.47 49.73, 1.21 57.84 M10.34 30.7 C4.83 41.77, 2.65 51.34, -0.33 57.62" stroke="#000" stroke-width="1" fill="none"></path></g></g><g transform="translate(584.84375 704.4375) rotate(0 33.5 12.5)"><text x="0" y="18" font-family="Virgil, Segoe UI Emoji" font-size="20px" fill="#000" text-anchor="start" style="white-space: pre;" direction="ltr">u (t-k)</text></g><g transform="translate(737.84375 744.4375) rotate(0 74.5 12.5)"><text x="74.5" y="18" font-family="Virgil, Segoe UI Emoji" font-size="20px" fill="#000" text-anchor="middle" style="white-space: pre;" direction="ltr">B(z)</text></g><g transform="translate(1054.84375 519.4375) rotate(0 31.5 12.5)"><text x="0" y="18" font-family="Virgil, Segoe UI Emoji" font-size="20px" fill="#000" text-anchor="start" style="white-space: pre;" direction="ltr">eta(t)</text></g><g transform="translate(954.84375 610.9375) rotate(0 71 12.5)"><text x="71" y="18" font-family="Virgil, Segoe UI Emoji" font-size="20px" fill="#000" text-anchor="middle" style="white-space: pre;" direction="ltr">C(z)</text></g><g transform="translate(948.84375 775.4375) rotate(0 7 12.5)"><text x="0" y="18" font-family="Virgil, Segoe UI Emoji" font-size="20px" fill="#000" text-anchor="start" style="white-space: pre;" direction="ltr">+</text></g><g transform="translate(1040.84375 695.4375) rotate(0 7 12.5)"><text x="0" y="18" font-family="Virgil, Segoe UI Emoji" font-size="20px" fill="#000" text-anchor="start" style="white-space: pre;" direction="ltr">+</text></g><g transform="translate(1157.84375 746.4375) rotate(0 70 12.5)"><text x="70" y="18" font-family="Virgil, Segoe UI Emoji" font-size="20px" fill="#000" text-anchor="middle" style="white-space: pre;" direction="ltr">1 / A(z)</text></g><g transform="translate(1366.84375 688.4375) rotate(0 23.5 12.5)"><text x="0" y="18" font-family="Virgil, Segoe UI Emoji" font-size="20px" fill="#000" text-anchor="start" style="white-space: pre;" direction="ltr">y (t)</text></g></svg>