<svg version="1.1" xmlns="http://www.w3.org/2000/svg" viewBox="0 0 10020 741.5625" width="10020" height="741.5625">
  <!-- svg-source:excalidraw -->
  
  <defs>
    <style>
      @font-face {
        font-family: "Virgil";
        src: url("https://excalidraw.com/Virgil.woff2");
      }
      @font-face {
        font-family: "Cascadia";
        src: url("https://excalidraw.com/Cascadia.woff2");
      }
    </style>
  </defs>
  <rect x="0" y="0" width="10020" height="741.5625" fill="#fff0"></rect><g stroke-linecap="round" transform="translate(10 10) rotate(0 5000 0.5)"><path d="M-0.52 -0.26 C3022.65 -30.2, 6044.59 -29.2, 9999.32 0.22 M0.38 -0.31 C3948.03 -0.44, 7895.41 0.2, 9999.95 0.08 M10000.08 -0.06 C10000.09 0.27, 10000.05 0.48, 10000.09 0.92 M9999.97 0.01 C9999.95 0.33, 9999.98 0.72, 10000 0.99 M10000.22 1.51 C7095.77 35.76, 4193.15 34.95, -0.25 0.75 M10000.01 1.13 C7827.97 2.74, 5656.23 3.35, -0.33 0.84 M-0.04 1.01 C0 0.63, -0.06 0.15, 0.05 -0.03 M-0.04 0.95 C-0.04 0.73, -0.03 0.59, -0.05 -0.02" stroke="transparent" stroke-width="1" fill="none"></path></g><g stroke-linecap="round"><g transform="translate(592.453125 629.5625) rotate(0 170 0.5)"><path d="M0.9 -0.04 C57.71 -0.03, 283.46 0.46, 339.85 0.6 M-0.09 -1.11 C56.65 -0.98, 281.86 1.41, 338.82 1.93" stroke="#000000" stroke-width="1" fill="none"></path></g></g><g stroke-linecap="round"><g transform="translate(625.453125 514.5625) rotate(0 133.5 56.5)"><path d="M-0.58 -0.31 C2.88 7.64, 10.08 32.34, 20.82 48.5 C31.57 64.66, 46.67 85.68, 63.9 96.65 C81.12 107.61, 103.66 112.71, 124.18 114.27 C144.69 115.83, 169.27 111.73, 186.99 106.02 C204.71 100.3, 218.77 91.28, 230.49 79.98 C242.2 68.69, 251.25 51.84, 257.29 38.25 C263.34 24.66, 265.05 4.9, 266.77 -1.55 M1.32 -1.52 C4.6 6.52, 8.97 33.23, 19.78 49.78 C30.6 66.33, 48.76 86.82, 66.21 97.78 C83.67 108.73, 104.55 114.07, 124.52 115.51 C144.49 116.95, 168.19 112.43, 186.04 106.42 C203.89 100.41, 219.71 90.5, 231.63 79.45 C243.55 68.41, 251.9 53.77, 257.57 40.16 C263.23 26.56, 264.17 4.78, 265.63 -2.19" stroke="#000000" stroke-width="1" fill="none"></path></g></g><g transform="translate(630.453125 559.5625) rotate(0 128.5 12.5)"><text x="128.5" y="18" font-family="Virgil, Segoe UI Emoji" font-size="20px" fill="#000000" text-anchor="middle" style="white-space: pre;" direction="ltr">CIR</text></g><g transform="translate(762.453125 629.5625) rotate(0 2 -2)" stroke="none"><path fill="#1864ab" d="M -1.86,1.86 Q -1.86,1.86 -2.74,1.00 -3.62,0.13 -4.25,-1.30 -4.88,-2.75 -4.55,-3.98 -4.23,-5.22 -3.31,-5.87 -2.40,-6.52 -1.01,-6.66 0.36,-6.80 2.20,-6.86 4.04,-6.91 5.22,-6.52 6.41,-6.13 7.49,-3.19 8.57,-0.25 7.67,0.72 6.77,1.69 5.41,1.92 4.05,2.16 3.27,2.16 2.49,2.17 2.05,2.46 1.60,2.74 1.08,2.87 0.56,3.00 0.03,2.95 -0.49,2.91 -0.98,2.69 -1.46,2.48 -1.86,2.12 -2.25,1.77 -2.51,1.30 -2.77,0.84 -2.87,0.32 -2.97,-0.20 -2.90,-0.72 -2.82,-1.25 -2.58,-1.73 -2.35,-2.20 -1.97,-2.58 -1.59,-2.95 -1.11,-3.19 -0.64,-3.42 -0.11,-3.49 0.41,-3.56 0.93,-3.46 1.45,-3.36 1.92,-3.09 2.38,-2.83 2.73,-2.43 3.09,-2.03 3.29,-1.54 3.50,-1.05 3.54,-0.52 3.58,0.00 3.45,0.51 3.32,1.03 3.04,1.48 2.75,1.92 2.33,2.25 1.91,2.59 1.41,2.77 0.91,2.95 0.38,2.96 -0.14,2.97 -0.65,2.82 -1.16,2.66 -1.59,2.35 -2.02,2.03 -2.33,1.60 -2.63,1.17 -2.79,0.66 -2.94,0.15 -2.93,-0.37 -2.91,-0.91 -2.72,-1.40 -2.54,-1.90 -2.20,-2.32 -1.87,-2.73 -1.87,-2.73 -1.87,-2.73 1.43,-3.74 4.75,-4.74 4.88,-2.64 5.02,-0.53 3.80,-0.80 2.57,-1.06 0.98,-1.09 -0.61,-1.12 -0.21,-2.35 0.17,-3.58 1.01,-2.72 1.86,-1.86 2.06,-1.61 2.25,-1.36 2.38,-1.07 2.51,-0.78 2.57,-0.47 2.63,-0.15 2.61,0.15 2.59,0.47 2.50,0.77 2.40,1.08 2.24,1.35 2.07,1.62 1.85,1.85 1.62,2.07 1.35,2.24 1.08,2.40 0.77,2.50 0.47,2.59 0.15,2.61 -0.15,2.63 -0.47,2.57 -0.78,2.51 -1.07,2.38 -1.36,2.25 -1.61,2.06 -1.86,1.86 -1.86,1.86 L -1.86,1.86 Z"></path></g><g stroke-linecap="round"><g transform="translate(769.453125 731.5625) rotate(0 -1.5 -44.5)"><path d="M-0.45 -0.67 C-0.91 -15.82, -3.48 -75, -3.87 -89.83 M1.52 1.6 C1.52 -12.9, -0.78 -73.68, -1.61 -88.72" stroke="#d9480f" stroke-width="1" fill="none"></path></g><g transform="translate(769.453125 731.5625) rotate(0 -1.5 -44.5)"><path d="M8.78 -62.46 C5.83 -66.58, 3.7 -73.22, 0.29 -90.49 M10.86 -60.87 C5.44 -71.13, 1.27 -82.19, -1.91 -87.84" stroke="#d9480f" stroke-width="1" fill="none"></path></g><g transform="translate(769.453125 731.5625) rotate(0 -1.5 -44.5)"><path d="M-11.72 -61.55 C-10.33 -65.79, -8.11 -72.61, 0.29 -90.49 M-9.64 -59.96 C-7.39 -70.49, -3.89 -81.89, -1.91 -87.84" stroke="#d9480f" stroke-width="1" fill="none"></path></g></g><g stroke-linecap="round"><g transform="translate(634.453125 628.5625) rotate(0 57 1)"><path d="M-0.26 -0.8 C18.45 -0.58, 93.85 0.94, 112.83 1.58 M1.8 1.39 C20.82 1.75, 96.45 2.92, 114.92 2.89" stroke="#d9480f" stroke-width="1" fill="none"></path></g><g transform="translate(634.453125 628.5625) rotate(0 57 1)"><path d="M85.31 10.96 C95.61 8.89, 107.71 5.75, 114.16 2.89 M86.65 12.57 C94.5 9.82, 102.32 7.41, 115.88 2.88" stroke="#d9480f" stroke-width="1" fill="none"></path></g><g transform="translate(634.453125 628.5625) rotate(0 57 1)"><path d="M85.48 -9.56 C95.77 -4.6, 107.81 -0.7, 114.16 2.89 M86.82 -7.95 C94.43 -5.05, 102.2 -1.81, 115.88 2.88" stroke="#d9480f" stroke-width="1" fill="none"></path></g></g><g transform="translate(803.453125 686.5625) rotate(0 7 12.5)"><text x="0" y="18" font-family="Virgil, Segoe UI Emoji" font-size="20px" fill="#d9480f" text-anchor="start" style="white-space: pre;" direction="ltr">N</text></g><g transform="translate(669.453125 641.5625) rotate(0 8.5 12.5)"><text x="0" y="18" font-family="Virgil, Segoe UI Emoji" font-size="20px" fill="#d9480f" text-anchor="start" style="white-space: pre;" direction="ltr">T</text></g></svg>