<svg version="1.1" xmlns="http://www.w3.org/2000/svg" viewBox="0 0 10020 722.25" width="10020" height="722.25">
  <!-- svg-source:excalidraw -->
  
  <defs>
    <style>
      @font-face {
        font-family: "Virgil";
        src: url("https://excalidraw.com/Virgil.woff2");
      }
      @font-face {
        font-family: "Cascadia";
        src: url("https://excalidraw.com/Cascadia.woff2");
      }
    </style>
  </defs>
  <rect x="0" y="0" width="10020" height="722.25" fill="#fff0"></rect><g stroke-linecap="round" transform="translate(10 10) rotate(0 5000 0.5)"><path d="M-0.52 -0.26 C3022.65 -30.2, 6044.59 -29.2, 9999.32 0.22 M0.38 -0.31 C3948.03 -0.44, 7895.41 0.2, 9999.95 0.08 M10000.08 -0.06 C10000.09 0.27, 10000.05 0.48, 10000.09 0.92 M9999.97 0.01 C9999.95 0.33, 9999.98 0.72, 10000 0.99 M10000.22 1.51 C7095.77 35.76, 4193.15 34.95, -0.25 0.75 M10000.01 1.13 C7827.97 2.74, 5656.23 3.35, -0.33 0.84 M-0.04 1.01 C0 0.63, -0.06 0.15, 0.05 -0.03 M-0.04 0.95 C-0.04 0.73, -0.03 0.59, -0.05 -0.02" stroke="transparent" stroke-width="1" fill="none"></path></g><g stroke-linecap="round" transform="translate(594 540.25) rotate(0 80 70)"><path d="M46.34 5.85 C56.1 0.84, 70.83 -1.07, 82.56 -0.68 C94.3 -0.29, 106.44 3.36, 116.75 8.19 C127.05 13.03, 137.39 20.41, 144.39 28.34 C151.39 36.27, 156.64 46.11, 158.75 55.78 C160.87 65.45, 159.82 76.37, 157.07 86.36 C154.32 96.35, 149.76 107.87, 142.24 115.72 C134.71 123.56, 122.45 129.22, 111.91 133.41 C101.36 137.59, 90.36 140.92, 78.98 140.83 C67.59 140.75, 53.94 137.52, 43.6 132.88 C33.26 128.25, 24.05 121.19, 16.93 113.03 C9.82 104.87, 3.36 93.85, 0.93 83.93 C-1.5 74, -0.72 63.36, 2.36 53.46 C5.44 43.57, 11.37 32.57, 19.41 24.56 C27.45 16.55, 44.71 8.64, 50.61 5.39 C56.52 2.15, 54.2 4.14, 54.86 5.09 M106.9 5.28 C117.24 7.97, 128.61 14.63, 136.63 21.99 C144.66 29.35, 151.39 40.09, 155.05 49.44 C158.7 58.78, 159.89 68.13, 158.57 78.07 C157.25 88, 153.63 100.36, 147.15 109.04 C140.66 117.72, 129.73 125.04, 119.66 130.14 C109.6 135.25, 97.84 138.54, 86.76 139.64 C75.67 140.75, 63.68 140.42, 53.15 136.79 C42.63 133.16, 31.99 125.21, 23.6 117.88 C15.22 110.55, 6.49 102.62, 2.85 92.81 C-0.79 83.01, -0.08 69.14, 1.76 59.06 C3.61 48.98, 7.91 40.34, 13.92 32.34 C19.93 24.34, 28.03 16.3, 37.83 11.06 C47.62 5.81, 60.87 2.13, 72.7 0.87 C84.53 -0.39, 102.78 2.78, 108.8 3.52 C114.82 4.25, 109.43 3.89, 108.81 5.26" stroke="#000" stroke-width="1" fill="none"></path></g><g stroke-linecap="round"><g transform="translate(560 683.25) rotate(0 125.5 1)"><path d="M-0.3 0.86 C41.63 0.87, 210.07 0.59, 251.78 0.88 M1.75 0.27 C43.56 0.3, 209.48 1.77, 251.25 1.83" stroke="#000" stroke-width="1" fill="none"></path></g></g><g stroke-linecap="round"><g transform="translate(673 685.25) rotate(0 -60 -85.5)"><path d="M0.42 0.61 C-19.91 -28.12, -100.55 -142.78, -120.78 -171.25 M-0.82 -0.11 C-20.86 -28.15, -98.85 -141.17, -118.48 -169.84" stroke="#1864ab" stroke-width="1" fill="none"></path></g></g><g stroke-linecap="round"><g transform="translate(667 681.25) rotate(0 0 -83)"><path d="M0.42 -0.54 C0.53 -28.19, 0.96 -137.25, 0.86 -164.81 M-0.82 1.79 C-0.81 -25.65, 0.4 -138.58, 0.36 -166.3" stroke="#000000" stroke-width="1" fill="none"></path></g></g><g stroke-linecap="round"><g transform="translate(665 540.25) rotate(0 -50 -2.5)"><path d="M1.16 -0.2 C-15.66 -1.03, -83.96 -3.55, -100.62 -4.18 M0.31 -1.36 C-16.13 -2.58, -81.69 -5.13, -98.23 -5.88" stroke="#d9480f" stroke-width="1" fill="none"></path></g><g transform="translate(665 540.25) rotate(0 -50 -2.5)"><path d="M-69.97 -15.97 C-77.49 -9.73, -86.51 -7.17, -96.83 -7.03 M-69.68 -14.03 C-80.76 -11.64, -90.32 -9.5, -98.86 -6.3" stroke="#d9480f" stroke-width="1" fill="none"></path></g><g transform="translate(665 540.25) rotate(0 -50 -2.5)"><path d="M-70.84 4.53 C-78.2 4.12, -86.94 0.02, -96.83 -7.03 M-70.54 6.47 C-81.26 1.55, -90.5 -3.62, -98.86 -6.3" stroke="#d9480f" stroke-width="1" fill="none"></path></g></g><g stroke-linecap="round"><g transform="translate(662.5585225656629 563.5996159003954) rotate(0 -36.77926128283143 -0.42480795019771733)"><path d="M0.56 -1.16 C-12.01 -1.34, -62.08 -0.35, -74.35 -0.46 M-0.61 0.85 C-12.88 0.23, -59.9 -2.06, -72.05 -2.37" stroke="#d9480f" stroke-width="1" fill="none"></path></g><g transform="translate(662.5585225656629 563.5996159003954) rotate(0 -36.77926128283143 -0.42480795019771733)"><path d="M-45.41 -12.85 C-53.83 -6.95, -67.15 -6.14, -74.02 -2.38 M-43.74 -12.36 C-54.25 -9.4, -64.36 -4.84, -72.63 -2.14" stroke="#d9480f" stroke-width="1" fill="none"></path></g><g transform="translate(662.5585225656629 563.5996159003954) rotate(0 -36.77926128283143 -0.42480795019771733)"><path d="M-46.21 7.66 C-54.43 5.62, -67.44 -1.51, -74.02 -2.38 M-44.54 8.15 C-54.86 3.68, -64.68 0.81, -72.63 -2.14" stroke="#d9480f" stroke-width="1" fill="none"></path></g></g><g stroke-linecap="round"><g transform="translate(662 595.75) rotate(0 -26 1)"><path d="M0.09 0.8 C-8.44 1.36, -42.38 2.47, -50.88 2.58 M-1.33 0.17 C-9.93 0.45, -42.94 0.37, -51.24 0.75" stroke="#d9480f" stroke-width="1" fill="none"></path></g><g transform="translate(662 595.75) rotate(0 -26 1)"><path d="M-25.63 -6.73 C-33.88 -3.78, -43.59 -2.32, -52.35 0.76 M-26.84 -9.12 C-33.78 -5.79, -39.9 -4.16, -50.61 1.06" stroke="#d9480f" stroke-width="1" fill="none"></path></g><g transform="translate(662 595.75) rotate(0 -26 1)"><path d="M-25.29 11.06 C-33.54 8.28, -43.35 4.02, -52.35 0.76 M-26.51 8.68 C-33.58 7.48, -39.78 4.58, -50.61 1.06" stroke="#d9480f" stroke-width="1" fill="none"></path></g></g><g stroke-linecap="round"><g transform="translate(665.7717298194766 634.320115955174) rotate(0 -15.885864909738302 -0.7850579775869875)"><path d="M-0.23 -0.43 C-5.6 -0.73, -26.87 -0.64, -32.3 -0.87 M-1.81 -1.7 C-7.38 -2.43, -28.74 -2.8, -33.53 -2.63" stroke="#d9480f" stroke-width="1" fill="none"></path></g><g transform="translate(665.7717298194766 634.320115955174) rotate(0 -15.885864909738302 -0.7850579775869875)"><path d="M-19.16 -8.8 C-22.05 -7.94, -27.78 -3.42, -32.22 -4.22 M-18.28 -8.77 C-22.36 -6.05, -27.74 -5.29, -34.07 -2.7" stroke="#d9480f" stroke-width="1" fill="none"></path></g><g transform="translate(665.7717298194766 634.320115955174) rotate(0 -15.885864909738302 -0.7850579775869875)"><path d="M-19.15 2.08 C-22.13 -0.28, -27.85 1.02, -32.22 -4.22 M-18.26 2.11 C-22.31 1.59, -27.7 -0.89, -34.07 -2.7" stroke="#d9480f" stroke-width="1" fill="none"></path></g></g><g transform="translate(599 597.75) rotate(0 75 12.5)"><text x="75" y="18" font-family="Virgil, Segoe UI Emoji" font-size="20px" fill="#d9480f" text-anchor="middle" style="white-space: pre;" direction="ltr">C</text></g><g transform="translate(674 687.25) rotate(0 7 12.5)"><text x="0" y="18" font-family="Virgil, Segoe UI Emoji" font-size="20px" fill="#d9480f" text-anchor="start" style="white-space: pre;" direction="ltr">A</text></g><g transform="translate(860 540.25) rotate(0 147 25)"><text x="0" y="18" font-family="Virgil, Segoe UI Emoji" font-size="20px" fill="#000000" text-anchor="start" style="white-space: pre;" direction="ltr">La velocità al centro sarà la</text><text x="0" y="43" font-family="Virgil, Segoe UI Emoji" font-size="20px" fill="#000000" text-anchor="start" style="white-space: pre;" direction="ltr">metà della velocità sull'apice</text></g></svg>