<svg version="1.1" xmlns="http://www.w3.org/2000/svg" viewBox="0 0 10020 1019.5" width="10020" height="1019.5">
  <!-- svg-source:excalidraw -->
  
  <defs>
    <style>
      @font-face {
        font-family: "Virgil";
        src: url("https://excalidraw.com/Virgil.woff2");
      }
      @font-face {
        font-family: "Cascadia";
        src: url("https://excalidraw.com/Cascadia.woff2");
      }
    </style>
  </defs>
  <rect x="0" y="0" width="10020" height="1019.5" fill="#fff0"></rect><g stroke-linecap="round" transform="translate(10 10) rotate(0 5000 0.5)"><path d="M-0.52 -0.26 C3022.65 -30.2, 6044.59 -29.2, 9999.32 0.22 M0.38 -0.31 C3948.03 -0.44, 7895.41 0.2, 9999.95 0.08 M10000.08 -0.06 C10000.09 0.27, 10000.05 0.48, 10000.09 0.92 M9999.97 0.01 C9999.95 0.33, 9999.98 0.72, 10000 0.99 M10000.22 1.51 C7095.77 35.76, 4193.15 34.95, -0.25 0.75 M10000.01 1.13 C7827.97 2.74, 5656.23 3.35, -0.33 0.84 M-0.04 1.01 C0 0.63, -0.06 0.15, 0.05 -0.03 M-0.04 0.95 C-0.04 0.73, -0.03 0.59, -0.05 -0.02" stroke="transparent" stroke-width="1" fill="none"></path></g><g stroke-linecap="round"><g transform="translate(792 798.5) rotate(0 -71.5 85.5)"><path d="M-0.29 0.68 C-24.01 29.38, -118.42 142.87, -142.06 171.09 M1.76 0 C-22.05 29, -118.48 144.2, -142.51 172.67" stroke="#000000" stroke-width="1" fill="none"></path></g><g transform="translate(792 798.5) rotate(0 -71.5 85.5)"><path d="M-131.1 146.05 C-135.66 154.97, -140.75 161.03, -141 170.95 M-131.4 143.67 C-135.94 152.64, -139.27 160.72, -142.62 172.7" stroke="#000000" stroke-width="1" fill="none"></path></g><g transform="translate(792 798.5) rotate(0 -71.5 85.5)"><path d="M-115.38 159.25 C-124.88 163.88, -135.03 165.7, -141 170.95 M-115.68 156.87 C-124.8 161.82, -132.77 166, -142.62 172.7" stroke="#000000" stroke-width="1" fill="none"></path></g></g><g stroke-linecap="round"><g transform="translate(789 801.5) rotate(0 179.50980173349376 1.8776284073945249)"><path d="M0.85 -1.14 C60.6 -0.73, 298.96 2.24, 358.53 2.99 M-0.16 0.87 C59.38 1.38, 297.18 3.52, 357.32 4.13" stroke="#000000" stroke-width="1" fill="none"></path></g><g transform="translate(789 801.5) rotate(0 179.50980173349376 1.8776284073945249)"><path d="M327.13 13.31 C336.26 9.61, 345.46 9.65, 356.67 4.72 M328.4 13.89 C335.54 11.19, 341.22 10.24, 356.5 3.88" stroke="#000000" stroke-width="1" fill="none"></path></g><g transform="translate(789 801.5) rotate(0 179.50980173349376 1.8776284073945249)"><path d="M327.33 -7.21 C336.48 -4.72, 345.62 1.51, 356.67 4.72 M328.6 -6.63 C335.68 -4.88, 341.31 -1.36, 356.5 3.88" stroke="#000000" stroke-width="1" fill="none"></path></g></g><g stroke-linecap="round"><g transform="translate(794 798.5) rotate(0 -5 -126.5)"><path d="M-0.08 -0.13 C-1.96 -42.37, -9.27 -210.89, -10.83 -253.11 M-1.59 -1.24 C-3.13 -43.33, -7.17 -209.78, -8.55 -251.63" stroke="#000000" stroke-width="1" fill="none"></path></g><g transform="translate(794 798.5) rotate(0 -5 -126.5)"><path d="M2.28 -225.12 C-1.49 -232.21, -5.79 -241.25, -9.5 -252.89 M2.45 -223.14 C-1.78 -233.47, -4.72 -241.86, -8.44 -251.49" stroke="#000000" stroke-width="1" fill="none"></path></g><g transform="translate(794 798.5) rotate(0 -5 -126.5)"><path d="M-18.23 -224.54 C-15.09 -231.81, -12.48 -241.04, -9.5 -252.89 M-18.07 -222.56 C-15.45 -233.08, -11.55 -241.66, -8.44 -251.49" stroke="#000000" stroke-width="1" fill="none"></path></g></g><g stroke-linecap="round"><g transform="translate(644 886.5) rotate(0 214 -49)"><path d="M0.85 -0.15 C7.23 1.47, 17.82 9.8, 38.79 10.8 C59.76 11.81, 107.83 0.15, 126.7 5.85 C145.56 11.55, 136.14 34.38, 151.97 45.01 C167.8 55.64, 192.65 64.51, 221.67 69.65 C250.69 74.79, 293.37 83.32, 326.1 75.87 C358.83 68.41, 400.41 42.26, 418.05 24.91 C435.69 7.55, 441.01 -16.29, 431.96 -28.26 C422.91 -40.22, 370.13 -38.52, 363.73 -46.91 C357.32 -55.3, 385.92 -63.72, 393.53 -78.59 C401.14 -93.47, 423.41 -120.53, 409.39 -136.13 C395.37 -151.73, 341.74 -180.12, 309.4 -172.18 C277.05 -164.24, 241.56 -97.65, 215.31 -88.49 C189.07 -79.34, 176.57 -114.02, 151.95 -117.26 C127.33 -120.5, 93.28 -115.64, 67.59 -107.94 C41.89 -100.24, 9.12 -89.14, -2.23 -71.05 C-13.58 -52.96, -1.05 -11.33, -0.5 0.61 M-0.16 -1.28 C6.08 1.04, 17.18 10.93, 38.26 12.24 C59.33 13.55, 107.31 0.92, 126.3 6.56 C145.29 12.21, 136.5 35.48, 152.21 46.12 C167.91 56.75, 191.41 65.52, 220.55 70.38 C249.69 75.24, 294.1 83.09, 327.04 75.28 C359.98 67.47, 400.8 40.85, 418.2 23.51 C435.59 6.18, 440.73 -17.29, 431.44 -28.73 C422.14 -40.17, 368.58 -36.67, 362.44 -45.11 C356.3 -53.54, 386.66 -64.25, 394.58 -79.36 C402.49 -94.46, 423.79 -120.27, 409.91 -135.74 C396.04 -151.21, 343.79 -179.96, 311.33 -172.18 C278.88 -164.4, 241.78 -98.24, 215.18 -89.05 C188.58 -79.87, 176.24 -113.91, 151.74 -117.06 C127.25 -120.21, 94.26 -115.72, 68.22 -107.94 C42.19 -100.15, 6.64 -88.62, -4.45 -70.35 C-15.55 -52.08, 0.85 -10.26, 1.64 1.68" stroke="#1832ab" stroke-width="1" fill="none"></path></g></g><g stroke-linecap="round"><g transform="translate(650 675.5) rotate(0 236.5 63)"><path d="M-0.38 -0.12 C-4.43 6.71, -27.71 22.3, -25.41 42.07 C-23.11 61.84, -12.98 102.12, 13.41 118.49 C39.81 134.86, 83.5 130.91, 132.94 140.3 C182.39 149.68, 249.15 173.28, 310.1 174.8 C371.05 176.32, 481.63 180.07, 498.66 149.44 C515.69 118.8, 454.14 18.4, 412.26 -9.02 C370.39 -36.43, 302.11 -8.22, 247.42 -15.05 C192.72 -21.88, 125.24 -52.43, 84.09 -50 C42.94 -47.57, 14.66 -8.86, 0.51 -0.49 M1.62 -1.23 C-2.53 6.24, -28.36 23.51, -26.57 43.12 C-24.79 62.72, -14.28 100, 12.34 116.4 C38.96 132.81, 83.68 131.78, 133.16 141.56 C182.64 151.34, 248.6 173.39, 309.2 175.09 C369.8 176.79, 479.45 182.67, 496.76 151.76 C514.06 120.85, 454.21 16.97, 413.04 -10.37 C371.88 -37.71, 304.32 -5.96, 249.75 -12.28 C195.17 -18.59, 126.97 -50.09, 85.6 -48.25 C44.24 -46.4, 15.97 -9.46, 1.55 -1.2" stroke="#1864ab" stroke-width="1" fill="none"></path></g></g><g stroke-linecap="round"><g transform="translate(637 863.5) rotate(0 -4.5 -57.5)"><path d="M0.34 1.19 C-0.77 -18.07, -6.5 -96.64, -7.86 -116.06 M-0.94 0.77 C-2 -18.34, -7.04 -95.92, -8.21 -115.08" stroke="#1864ab" stroke-width="1" fill="none"></path></g></g><g stroke-linecap="round"><g transform="translate(1029 935.5) rotate(0 -5.5 -41.5)"><path d="M1.18 0.78 C-0.46 -12.71, -8.67 -68.05, -10.5 -82.05 M0.34 0.14 C-1.36 -13.57, -9.47 -69.98, -11.19 -83.67" stroke="#1864ab" stroke-width="1" fill="none"></path></g></g><g stroke-linecap="round"><g transform="translate(1011 726.5) rotate(0 -2.5 -35.5)"><path d="M-1.19 0.23 C-2.01 -11.53, -4.14 -58.19, -4.73 -70.02 M0.39 -0.69 C-0.58 -12.83, -4.57 -60.19, -5.54 -71.63" stroke="#1864ab" stroke-width="1" fill="none"></path></g></g><g stroke-linecap="round"><g transform="translate(753 770.5) rotate(0 -5 -71)"><path d="M0.32 0.27 C-1.24 -23.65, -7.65 -119.19, -9.23 -143 M-0.96 -0.64 C-2.63 -24.48, -8.36 -118.5, -9.77 -141.99" stroke="#1864ab" stroke-width="1" fill="none"></path></g></g><g stroke-linecap="round"><g transform="translate(824 847.5) rotate(0 52.5 -2.5)"><path d="M0.62 -0.65 C1.16 2.17, -4.23 12.21, 4.12 17.44 C12.47 22.66, 33.76 29.82, 50.72 30.71 C67.68 31.6, 95.87 30.78, 105.88 22.79 C115.9 14.8, 115.95 -7.54, 110.81 -17.25 C105.67 -26.96, 88.57 -32.93, 75.05 -35.47 C61.52 -38, 43.06 -37.51, 29.66 -32.45 C16.27 -27.4, -0.42 -10.39, -5.33 -5.15 C-10.23 0.09, -0.59 -1.96, 0.23 -1.01 M-0.52 1.62 C-0.2 4.56, -5.15 14.16, 3.23 18.68 C11.62 23.2, 32.76 27.89, 49.81 28.74 C66.86 29.59, 95.64 31.32, 105.55 23.78 C115.45 16.25, 114.18 -6.38, 109.24 -16.47 C104.31 -26.56, 89.06 -34.43, 75.96 -36.75 C62.86 -39.07, 44.31 -35.66, 30.65 -30.38 C16.99 -25.09, -0.67 -10.22, -6 -5.04 C-11.33 0.15, -2.35 -0.17, -1.31 0.73" stroke="#d9480f" stroke-width="1" fill="none"></path></g></g><g stroke-linecap="round"><g transform="translate(665 591.5) rotate(0 -52 66)"><path d="M-0.67 -0.42 C-18.13 21.74, -87.48 110.09, -104.67 132.11 M1.18 -1.69 C-15.89 20.77, -84.7 111.28, -102.31 133.71" stroke="#000000" stroke-width="1" fill="none"></path></g></g><g stroke-linecap="round"><g transform="translate(563 723.5) rotate(0 338.5 2.5)"><path d="M-0.9 0.98 C111.93 1.82, 563.67 4.45, 676.51 4.99 M0.82 0.45 C113.5 1.49, 562.35 5.74, 675.31 6.52" stroke="#000000" stroke-width="1" fill="none"></path></g></g><g stroke-linecap="round"><g transform="translate(1235 732.5) rotate(0 30 -61.5)"><path d="M-0.81 -0.87 C9.1 -21.28, 49.27 -102.38, 59.51 -122.77 M0.97 1.29 C10.68 -19.49, 48.44 -104.23, 58.31 -124.77" stroke="#000000" stroke-width="1" fill="none"></path></g></g><g stroke-linecap="round"><g transform="translate(1293 607.5) rotate(0 -319 -4)"><path d="M-0.02 -0.38 C-106.27 -1.61, -532.27 -5.58, -638.51 -6.88 M-1.49 -1.63 C-107.85 -3.21, -533.64 -7.53, -639.72 -8.41" stroke="#000000" stroke-width="1" fill="none"></path></g></g><g stroke-linecap="round"><g transform="translate(836 649.5) rotate(0 41 23.5)"><path d="M0.97 -0.1 C-3.68 3.02, -30.71 11.69, -28.07 19.51 C-25.44 27.33, -3.26 42.91, 16.76 46.81 C36.79 50.7, 76.47 48.5, 92.08 42.88 C107.68 37.25, 113.51 17.88, 110.41 13.06 C107.3 8.24, 91.74 15.96, 73.43 13.96 C55.12 11.95, 12.98 3.49, 0.56 1.04 M0.01 -1.2 C-4.78 2.02, -31.7 12.58, -29.06 20.79 C-26.42 28.99, -4.28 44.26, 15.87 48.03 C36.02 51.79, 76.29 49.67, 91.84 43.39 C107.38 37.11, 112.03 14.91, 109.15 10.35 C106.27 5.79, 92.48 17.72, 74.54 16.03 C56.6 14.34, 13.75 3.16, 1.5 0.24" stroke="#d9480f" stroke-width="1" fill="none"></path></g></g><g stroke-linecap="round"><g transform="translate(934 860.5) rotate(0 -1 -84)"><path d="M1.05 -1.15 C0.8 -29.15, -0.63 -140.47, -1.31 -168.24 M0.15 0.86 C-0.23 -26.93, -1.76 -138.97, -1.89 -166.83" stroke="#d9480f" stroke-width="1" fill="none"></path></g></g><g stroke-linecap="round"><g transform="translate(820 847.5) rotate(0 -5 -84)"><path d="M-1.06 -0.63 C-2.49 -28.46, -7.46 -140.28, -9.08 -167.99 M0.58 1.65 C-0.88 -25.88, -8.06 -138.07, -9.54 -166.45" stroke="#d9480f" stroke-width="1" fill="none"></path></g></g><g transform="translate(1174 920.5) rotate(0 7 12.5)"><text x="0" y="18" font-family="Virgil, Segoe UI Emoji" font-size="20px" fill="#000000" text-anchor="start" style="white-space: pre;" direction="ltr">A</text></g><g transform="translate(645 984.5) rotate(0 13 12.5)"><text x="0" y="18" font-family="Virgil, Segoe UI Emoji" font-size="20px" fill="#000000" text-anchor="start" style="white-space: pre;" direction="ltr">x2</text></g><g transform="translate(1181 792.5) rotate(0 9 12.5)"><text x="0" y="18" font-family="Virgil, Segoe UI Emoji" font-size="20px" fill="#000000" text-anchor="start" style="white-space: pre;" direction="ltr">x1</text></g><g transform="translate(759 540.5) rotate(0 13 12.5)"><text x="0" y="18" font-family="Virgil, Segoe UI Emoji" font-size="20px" fill="#000000" text-anchor="start" style="white-space: pre;" direction="ltr">x3</text></g><g transform="translate(935 876.5) rotate(0 11 12.5)"><text x="0" y="18" font-family="Virgil, Segoe UI Emoji" font-size="20px" fill="#000000" text-anchor="start" style="white-space: pre;" direction="ltr">Ic</text></g></svg>