<svg version="1.1" xmlns="http://www.w3.org/2000/svg" viewBox="0 0 10020 779.71875" width="10020" height="779.71875">
  <!-- svg-source:excalidraw -->
  
  <defs>
    <style>
      @font-face {
        font-family: "Virgil";
        src: url("https://excalidraw.com/Virgil.woff2");
      }
      @font-face {
        font-family: "Cascadia";
        src: url("https://excalidraw.com/Cascadia.woff2");
      }
    </style>
  </defs>
  <rect x="0" y="0" width="10020" height="779.71875" fill="#fff0"></rect><g stroke-linecap="round" transform="translate(10 10) rotate(0 5000 0.5)"><path d="M-0.52 -0.26 C3022.65 -30.2, 6044.59 -29.2, 9999.32 0.22 M0.38 -0.31 C3948.03 -0.44, 7895.41 0.2, 9999.95 0.08 M10000.08 -0.06 C10000.09 0.27, 10000.05 0.48, 10000.09 0.92 M9999.97 0.01 C9999.95 0.33, 9999.98 0.72, 10000 0.99 M10000.22 1.51 C7095.77 35.76, 4193.15 34.95, -0.25 0.75 M10000.01 1.13 C7827.97 2.74, 5656.23 3.35, -0.33 0.84 M-0.04 1.01 C0 0.63, -0.06 0.15, 0.05 -0.03 M-0.04 0.95 C-0.04 0.73, -0.03 0.59, -0.05 -0.02" stroke="transparent" stroke-width="1" fill="none"></path></g><g stroke-linecap="round"><g transform="translate(627 756.71875) rotate(0 60.5 -110.5)"><path d="M0.08 -0.22 C-6.01 -9.45, -30.93 -36.12, -36.35 -54.83 C-41.77 -73.54, -44.69 -89.46, -32.45 -112.47 C-20.22 -135.47, 23.64 -173.1, 37.07 -192.86 C50.5 -212.62, 31.47 -224.33, 48.12 -231.02 C64.77 -237.71, 118.76 -237.79, 136.97 -232.99 C155.17 -228.19, 158 -216.73, 157.37 -202.21 C156.73 -187.68, 144.13 -151.59, 133.16 -145.84 C122.19 -140.09, 101.13 -170.07, 91.58 -167.72 C82.02 -165.37, 71.35 -149.03, 75.81 -131.73 C80.27 -114.44, 113.5 -87.18, 118.36 -63.94 C123.23 -40.71, 117.04 5.63, 105 7.66 C92.95 9.68, 56.12 -35.96, 46.07 -51.81 C36.03 -67.66, 48.24 -86.82, 44.72 -87.45 C41.2 -88.07, 27.64 -68.67, 24.97 -55.56 C22.3 -42.44, 27.7 -20.13, 28.71 -8.76 C29.72 2.6, 35.92 11.23, 31.04 12.63 C26.16 14.04, 4.59 1.98, -0.58 -0.32 M-1.34 -1.38 C-7.64 -10.44, -32.13 -34.35, -37.48 -53.21 C-42.84 -72.07, -45.93 -90.93, -33.46 -114.53 C-20.98 -138.13, 23.99 -175.47, 37.36 -194.82 C50.72 -214.17, 30.4 -224.19, 46.72 -230.64 C63.03 -237.08, 116.64 -238.08, 135.22 -233.5 C153.81 -228.92, 158.62 -217.62, 158.2 -203.14 C157.79 -188.66, 144.08 -152.31, 132.74 -146.62 C121.41 -140.92, 99.67 -171.3, 90.21 -168.95 C80.74 -166.61, 71.18 -150.24, 75.95 -132.57 C80.73 -114.9, 114.18 -86.2, 118.87 -62.93 C123.57 -39.66, 116.72 5.23, 104.1 7.05 C91.49 8.87, 53.24 -36.27, 43.2 -52.01 C33.16 -67.74, 46.77 -86.62, 43.87 -87.35 C40.97 -88.08, 28.71 -69.65, 25.8 -56.41 C22.9 -43.17, 25.79 -19.51, 26.46 -7.91 C27.12 3.69, 33.97 11.89, 29.81 13.19 C25.65 14.49, 6.69 2.33, 1.5 -0.11" stroke="#000000" stroke-width="1" fill="none"></path></g></g><g stroke-linecap="round"><g transform="translate(631.9605408266186 700.784991709888) rotate(0 40.01972958669066 -75.03312085494399)"><path d="M-1.04 1.07 C12.58 -24.09, 67.12 -124.6, 80.59 -149.9 M0.62 0.58 C14.22 -23.83, 66.88 -123.21, 79.94 -148.28" stroke="#1864ab" stroke-width="1" fill="none"></path></g></g><g stroke-linecap="round"><g transform="translate(764 642.71875) rotate(0 59.5 -0.5)"><path d="M0.04 -0.63 C20.09 -0.79, 99.45 -1.07, 119.16 -0.97 M-1.4 1.65 C18.61 1.71, 97.93 1.17, 118.3 0.58" stroke="#d9480f" stroke-width="1" fill="none"></path></g><g transform="translate(764 642.71875) rotate(0 59.5 -0.5)"><path d="M89.22 11.57 C96.1 7.89, 103.41 5.32, 119.44 -0.54 M89.82 11.24 C99.95 7.64, 110.97 3.34, 117.81 -0.12" stroke="#d9480f" stroke-width="1" fill="none"></path></g><g transform="translate(764 642.71875) rotate(0 59.5 -0.5)"><path d="M88.89 -8.95 C95.83 -8.41, 103.21 -6.76, 119.44 -0.54 M89.49 -9.27 C99.63 -5.52, 110.77 -2.47, 117.81 -0.12" stroke="#d9480f" stroke-width="1" fill="none"></path></g></g><g stroke-linecap="round"><g transform="translate(890.9802704133094 708.751870854944) rotate(0 40.01972958669066 -75.03312085494399)"><path d="M-0.28 -0.23 C13.14 -25.32, 66.86 -124.81, 80.15 -149.59 M1.77 -1.39 C15.08 -26.93, 66.49 -126.58, 79.26 -151.47" stroke="#1864ab" stroke-width="1" fill="none"></path></g></g><g transform="translate(624 699.71875) rotate(0 7 12.5)"><text x="0" y="18" font-family="Virgil, Segoe UI Emoji" font-size="20px" fill="#d9480f" text-anchor="start" style="white-space: pre;" direction="ltr">A</text></g><g transform="translate(729 529.71875) rotate(0 8 12.5)"><text x="0" y="18" font-family="Virgil, Segoe UI Emoji" font-size="20px" fill="#d9480f" text-anchor="start" style="white-space: pre;" direction="ltr">B</text></g><g transform="translate(880 716.71875) rotate(0 7 12.5)"><text x="0" y="18" font-family="Virgil, Segoe UI Emoji" font-size="20px" fill="#d9480f" text-anchor="start" style="white-space: pre;" direction="ltr">A</text></g><g transform="translate(978 529.71875) rotate(0 8 12.5)"><text x="0" y="18" font-family="Virgil, Segoe UI Emoji" font-size="20px" fill="#d9480f" text-anchor="start" style="white-space: pre;" direction="ltr">B</text></g><g stroke-linecap="round"><g transform="translate(871 708.71875) rotate(0 28.5 -0.5)"><path d="M-0.11 0.44 C9.42 0.16, 47.26 -1.88, 56.86 -2.13 M-1.62 -0.37 C7.76 -0.5, 46.07 -1.29, 55.84 -1.18" stroke="#d9480f" stroke-width="1" fill="none"></path></g></g><g stroke-linecap="round"><g transform="translate(920 704.71875) rotate(0 -6 -15.5)"><path d="M1.03 0.14 C0.88 -3.4, 1.26 -15.01, -0.97 -20.24 C-3.2 -25.46, -10.61 -29.57, -12.33 -31.23 M0.11 -0.84 C-0.09 -4.8, 0.86 -17.09, -1.37 -21.96 C-3.61 -26.82, -11.72 -28.3, -13.27 -30.03" stroke="#d9480f" stroke-width="1" fill="none"></path></g></g><g transform="translate(944 672.71875) rotate(0 5.5 12.5)"><text x="0" y="18" font-family="Virgil, Segoe UI Emoji" font-size="20px" fill="#d9480f" text-anchor="start" style="white-space: pre;" direction="ltr">b</text></g></svg>