<svg version="1.1" xmlns="http://www.w3.org/2000/svg" viewBox="0 0 10020 782.9375" width="10020" height="782.9375">
  <!-- svg-source:excalidraw -->
  
  <defs>
    <style>
      @font-face {
        font-family: "Virgil";
        src: url("https://excalidraw.com/Virgil.woff2");
      }
      @font-face {
        font-family: "Cascadia";
        src: url("https://excalidraw.com/Cascadia.woff2");
      }
    </style>
  </defs>
  <rect x="0" y="0" width="10020" height="782.9375" fill="#fff0"></rect><g stroke-linecap="round" transform="translate(10 10) rotate(0 5000 0.5)"><path d="M-0.52 -0.26 C3022.65 -30.2, 6044.59 -29.2, 9999.32 0.22 M0.38 -0.31 C3948.03 -0.44, 7895.41 0.2, 9999.95 0.08 M10000.08 -0.06 C10000.09 0.27, 10000.05 0.48, 10000.09 0.92 M9999.97 0.01 C9999.95 0.33, 9999.98 0.72, 10000 0.99 M10000.22 1.51 C7095.77 35.76, 4193.15 34.95, -0.25 0.75 M10000.01 1.13 C7827.97 2.74, 5656.23 3.35, -0.33 0.84 M-0.04 1.01 C0 0.63, -0.06 0.15, 0.05 -0.03 M-0.04 0.95 C-0.04 0.73, -0.03 0.59, -0.05 -0.02" stroke="transparent" stroke-width="1" fill="none"></path></g><g stroke-linecap="round"><g transform="translate(757.84375 711.9375) rotate(0 0.5 -70.5)"><path d="M0.5 0.8 C0.74 -22.56, 1.07 -116.89, 1.27 -140.6 M-0.7 0.18 C-0.57 -23.52, 0.13 -119.09, 0.47 -142.52" stroke="#000" stroke-width="1" fill="none"></path></g><g transform="translate(757.84375 711.9375) rotate(0 0.5 -70.5)"><path d="M11.77 -113.76 C8.38 -120.96, 4.14 -131.44, -0.16 -142.99 M10.84 -113.4 C6.01 -123.24, 2.67 -134.36, 0.94 -141.97" stroke="#000" stroke-width="1" fill="none"></path></g><g transform="translate(757.84375 711.9375) rotate(0 0.5 -70.5)"><path d="M-8.75 -113.97 C-6.33 -121.2, -4.77 -131.62, -0.16 -142.99 M-9.68 -113.61 C-7.57 -123.34, -3.97 -134.39, 0.94 -141.97" stroke="#000" stroke-width="1" fill="none"></path></g></g><g stroke-linecap="round"><g transform="translate(761.84375 710.9375) rotate(0 73.99999999999999 0.5)"><path d="M0.32 0.94 C25.31 1.33, 124.32 1.86, 148.77 1.94 M-0.97 0.39 C24.04 0.49, 123.16 0.49, 148.23 0.31" stroke="#000" stroke-width="1" fill="none"></path></g><g transform="translate(761.84375 710.9375) rotate(0 73.99999999999999 0.5)"><path d="M121.64 11.94 C127.34 6.9, 132.16 7.48, 147.78 0.85 M120.94 9.81 C128.25 7.17, 136.51 4.59, 148.32 -0.13" stroke="#000" stroke-width="1" fill="none"></path></g><g transform="translate(761.84375 710.9375) rotate(0 73.99999999999999 0.5)"><path d="M121.58 -8.58 C127.23 -9.48, 132.06 -4.76, 147.78 0.85 M120.88 -10.72 C128.12 -7.43, 136.4 -4.08, 148.32 -0.13" stroke="#000" stroke-width="1" fill="none"></path></g></g><g stroke-linecap="round"><g transform="translate(722.84375 687.9375) rotate(0 87.49999999999999 -46.5)"><path d="M-0.16 -0.98 C5.28 -10.71, 19.61 -43.6, 32.03 -58.21 C44.44 -72.82, 63 -82.66, 74.32 -88.64 C85.64 -94.62, 89.15 -97.4, 99.94 -94.09 C110.73 -90.78, 126.72 -84.3, 139.04 -68.77 C151.37 -53.24, 168.01 -11.97, 173.9 -0.9 M-1.71 1.12 C3.63 -8.96, 18.52 -44.6, 31.09 -59.92 C43.66 -75.24, 62.12 -85.19, 73.72 -90.79 C85.32 -96.4, 89.52 -97.31, 100.68 -93.56 C111.85 -89.8, 128.39 -83.63, 140.73 -68.26 C153.07 -52.9, 169.08 -12.71, 174.74 -1.37" stroke="#1864ab" stroke-width="1" fill="none"></path></g></g><g stroke-linecap="round"><g transform="translate(986.84375 634.9375) rotate(0 71 0)"><path d="M-0.47 0.97 C23.06 0.73, 117.51 -0.77, 141.36 -1 M1.49 0.43 C25.39 0.28, 120.29 -0.03, 143.74 0.01" stroke="#000000" stroke-width="1" fill="none"></path></g><g transform="translate(986.84375 634.9375) rotate(0 71 0)"><path d="M117.17 9.24 C122.85 8.19, 132.84 5.42, 143.58 0.02 M114.95 10.78 C127.33 5.74, 136.91 3.11, 144.41 0.86" stroke="#000000" stroke-width="1" fill="none"></path></g><g transform="translate(986.84375 634.9375) rotate(0 71 0)"><path d="M117.15 -11.28 C122.9 -5.79, 132.89 -2.01, 143.58 0.02 M114.93 -9.75 C127.16 -6.76, 136.75 -1.38, 144.41 0.86" stroke="#000000" stroke-width="1" fill="none"></path></g></g><g stroke-linecap="round"><g transform="translate(1169.84375 586.9375) rotate(0 -0.5 -27.5)"><path d="M0.31 -0.92 C0.4 -10.46, 0.21 -47.24, -0.04 -56.13 M-0.99 1.21 C-0.92 -7.71, -0.31 -45.62, -0.49 -55.19" stroke="#000000" stroke-width="1" fill="none"></path></g><g transform="translate(1169.84375 586.9375) rotate(0 -0.5 -27.5)"><path d="M7.36 -27.73 C4.4 -36.13, 5.19 -44.16, 0.17 -56.81 M9.23 -30.14 C4.97 -37.03, 2.52 -45.27, -0.44 -55.52" stroke="#000000" stroke-width="1" fill="none"></path></g><g transform="translate(1169.84375 586.9375) rotate(0 -0.5 -27.5)"><path d="M-11.46 -27.76 C-9.67 -36.2, -4.15 -44.22, 0.17 -56.81 M-9.59 -30.17 C-7.82 -37.14, -4.25 -45.37, -0.44 -55.52" stroke="#000000" stroke-width="1" fill="none"></path></g></g><g stroke-linecap="round"><g transform="translate(1164.84375 586.9375) rotate(0 75.5 2)"><path d="M-0.3 0.06 C24.76 0.87, 125.07 3.94, 150.42 4.42 M1.74 -0.95 C27.19 -0.48, 127.88 1.75, 152.83 2.51" stroke="#000000" stroke-width="1" fill="none"></path></g><g transform="translate(1164.84375 586.9375) rotate(0 75.5 2)"><path d="M124.49 11.08 C133.77 10.53, 139.92 6.62, 151.36 3.83 M124.75 12.31 C133.43 8.96, 140.58 7.47, 153.79 3.34" stroke="#000000" stroke-width="1" fill="none"></path></g><g transform="translate(1164.84375 586.9375) rotate(0 75.5 2)"><path d="M125.01 -9.44 C134.07 -3.74, 140.05 -1.4, 151.36 3.83 M125.28 -8.21 C133.69 -5.7, 140.7 -1.33, 153.79 3.34" stroke="#000000" stroke-width="1" fill="none"></path></g></g><g stroke-linecap="round"><g transform="translate(1175.34375 684.9375) rotate(0 -0.5 -27.5)"><path d="M-1.14 -0.42 C-1.4 -9.56, -1.58 -45.12, -1.4 -54.23 M0.46 -1.69 C-0.01 -11.21, -2.43 -47.26, -2.56 -55.95" stroke="#000000" stroke-width="1" fill="none"></path></g><g transform="translate(1175.34375 684.9375) rotate(0 -0.5 -27.5)"><path d="M7.3 -31.23 C5.84 -37.07, 1.05 -44.99, -0.66 -54.49 M7.64 -30.91 C4.02 -41.02, 0.13 -50.54, -3.05 -55.51" stroke="#000000" stroke-width="1" fill="none"></path></g><g transform="translate(1175.34375 684.9375) rotate(0 -0.5 -27.5)"><path d="M-11.5 -30.38 C-7.05 -36.31, -5.93 -44.49, -0.66 -54.49 M-11.16 -30.06 C-7.52 -40.47, -4.15 -50.31, -3.05 -55.51" stroke="#000000" stroke-width="1" fill="none"></path></g></g><g stroke-linecap="round"><g transform="translate(1170.34375 685.9375) rotate(0 75.5 2)"><path d="M-0.42 -0.4 C24.78 0.61, 126.55 4.05, 151.77 4.95 M1.56 -1.66 C26.62 -0.87, 126.47 2.52, 151.22 3.32" stroke="#000000" stroke-width="1" fill="none"></path></g><g transform="translate(1170.34375 685.9375) rotate(0 75.5 2)"><path d="M122.03 13.92 C134.28 9.32, 144.25 8.17, 152.68 5.04 M122.35 12.73 C130.64 10.23, 139.49 6.66, 151.67 3.79" stroke="#000000" stroke-width="1" fill="none"></path></g><g transform="translate(1170.34375 685.9375) rotate(0 75.5 2)"><path d="M122.72 -6.59 C134.53 -4.07, 144.26 1.91, 152.68 5.04 M123.04 -7.78 C131.08 -4.13, 139.73 -1.54, 151.67 3.79" stroke="#000000" stroke-width="1" fill="none"></path></g></g><g stroke-linecap="round"><g transform="translate(1172.34375 767.9375) rotate(0 -0.5 -27.5)"><path d="M0 -0.07 C-0.1 -9.09, -1.32 -45.19, -1.55 -54.51 M-1.47 -1.16 C-1.68 -10.51, -2.65 -47.37, -2.79 -56.38" stroke="#000000" stroke-width="1" fill="none"></path></g><g transform="translate(1172.34375 767.9375) rotate(0 -0.5 -27.5)"><path d="M7.06 -31.66 C5.9 -36.95, 1.23 -42.83, -3.41 -55.59 M7.14 -30.43 C5.74 -36.18, 2.66 -43.72, -3.04 -55.79" stroke="#000000" stroke-width="1" fill="none"></path></g><g transform="translate(1172.34375 767.9375) rotate(0 -0.5 -27.5)"><path d="M-11.75 -31.25 C-8.8 -36.63, -9.37 -42.6, -3.41 -55.59 M-11.67 -30.02 C-8.48 -35.74, -6.99 -43.38, -3.04 -55.79" stroke="#000000" stroke-width="1" fill="none"></path></g></g><g stroke-linecap="round"><g transform="translate(1167.34375 768.9375) rotate(0 75.5 2)"><path d="M-0.07 -0.55 C25.24 0.05, 126.48 2.96, 151.49 3.63 M-1.57 1.77 C23.66 2.55, 125.14 4.52, 150.8 4.97" stroke="#000000" stroke-width="1" fill="none"></path></g><g transform="translate(1167.34375 768.9375) rotate(0 75.5 2)"><path d="M121.5 15.52 C129.42 10.43, 136.75 8.87, 151.58 3.84 M122.73 15.61 C130.94 12.37, 137.22 9.27, 151.38 5.14" stroke="#000000" stroke-width="1" fill="none"></path></g><g transform="translate(1167.34375 768.9375) rotate(0 75.5 2)"><path d="M121.89 -5 C129.7 -4.58, 136.93 -0.63, 151.58 3.84 M123.12 -4.91 C131.08 -2.67, 137.27 -0.28, 151.38 5.14" stroke="#000000" stroke-width="1" fill="none"></path></g></g><g stroke-linecap="round"><g transform="translate(1159.84375 761.9375) rotate(0 66.5 -23)"><path d="M0.7 -0.48 C4.18 -3.75, 17.33 -18.21, 21.75 -20.44 C26.16 -22.67, 21.77 -9.53, 27.16 -13.83 C32.55 -18.13, 48.46 -44.98, 54.09 -46.25 C59.72 -47.51, 57.45 -26.76, 60.91 -21.41 C64.38 -16.06, 71.08 -12.77, 74.88 -14.15 C78.68 -15.54, 78.05 -29.75, 83.74 -29.71 C89.42 -29.67, 100.79 -17.32, 108.99 -13.9 C117.18 -10.48, 128.7 -9.89, 132.9 -9.21 M-0.4 -1.77 C2.83 -4.81, 15.66 -17.27, 20.66 -19.13 C25.67 -21, 24.52 -8.59, 29.61 -12.94 C34.71 -17.3, 46.2 -43.98, 51.25 -45.27 C56.3 -46.57, 55.76 -26.23, 59.92 -20.7 C64.09 -15.18, 72.17 -10.44, 76.23 -12.14 C80.28 -13.84, 78.87 -30.56, 84.24 -30.9 C89.62 -31.24, 100.66 -17.64, 108.48 -14.19 C116.3 -10.73, 127.27 -10.85, 131.18 -10.17" stroke="#1864ab" stroke-width="1" fill="none"></path></g></g><g stroke-linecap="round"><g transform="translate(1166.84375 672.9375) rotate(0 57 -16.5)"><path d="M-1.06 1.1 C5.38 -4.15, 27.91 -30.83, 37.78 -32.18 C47.64 -33.53, 54.56 -8.78, 58.15 -6.98 C61.75 -5.18, 56.25 -21.44, 59.36 -21.39 C62.48 -21.34, 72.58 -4.83, 76.84 -6.67 C81.09 -8.5, 82.85 -30.9, 84.9 -32.4 C86.95 -33.91, 84.12 -16.77, 89.14 -15.68 C94.15 -14.59, 110.79 -24.31, 114.97 -25.84 M0.59 0.63 C7.01 -4.38, 27.67 -29.6, 37.23 -30.74 C46.8 -31.87, 54.32 -7.89, 57.99 -6.18 C61.67 -4.47, 56.4 -20.42, 59.28 -20.49 C62.16 -20.57, 70.87 -4.52, 75.28 -6.63 C79.69 -8.74, 83.39 -31.43, 85.73 -33.13 C88.07 -34.83, 84.54 -18.03, 89.32 -16.86 C94.11 -15.69, 110.57 -24.64, 114.46 -26.1" stroke="#1864ab" stroke-width="1" fill="none"></path></g></g><g stroke-linecap="round"><g transform="translate(1158.84375 544.9375) rotate(0 58.5 12.5)"><path d="M1.05 -0.11 C5.88 3.86, 20.93 22.87, 28.63 24.23 C36.32 25.58, 41.69 8.8, 47.25 8.01 C52.82 7.23, 57.91 19.08, 62.02 19.53 C66.12 19.99, 62.53 10.16, 71.88 10.74 C81.23 11.31, 110.7 21.21, 118.09 22.99 M0.15 -1.21 C4.81 2.85, 19.21 23.69, 27.48 25.36 C35.75 27.03, 43.95 9.64, 49.75 8.81 C55.55 7.99, 58.32 19.94, 62.27 20.39 C66.23 20.84, 64.46 11.17, 73.48 11.51 C82.5 11.86, 109.25 20.48, 116.42 22.48" stroke="#1864ab" stroke-width="1" fill="none"></path></g></g></svg>