<svg version="1.1" xmlns="http://www.w3.org/2000/svg" viewBox="0 0 10020 703.296875" width="10020" height="703.296875">
  <!-- svg-source:excalidraw -->
  
  <defs>
    <style>
      @font-face {
        font-family: "Virgil";
        src: url("https://excalidraw.com/Virgil.woff2");
      }
      @font-face {
        font-family: "Cascadia";
        src: url("https://excalidraw.com/Cascadia.woff2");
      }
    </style>
  </defs>
  <rect x="0" y="0" width="10020" height="703.296875" fill="#fff0"></rect><g stroke-linecap="round" transform="translate(10 10) rotate(0 5000 0.5)"><path d="M-0.52 -0.26 C3022.65 -30.2, 6044.59 -29.2, 9999.32 0.22 M0.38 -0.31 C3948.03 -0.44, 7895.41 0.2, 9999.95 0.08 M10000.08 -0.06 C10000.09 0.27, 10000.05 0.48, 10000.09 0.92 M9999.97 0.01 C9999.95 0.33, 9999.98 0.72, 10000 0.99 M10000.22 1.51 C7095.77 35.76, 4193.15 34.95, -0.25 0.75 M10000.01 1.13 C7827.97 2.74, 5656.23 3.35, -0.33 0.84 M-0.04 1.01 C0 0.63, -0.06 0.15, 0.05 -0.03 M-0.04 0.95 C-0.04 0.73, -0.03 0.59, -0.05 -0.02" stroke="transparent" stroke-width="1" fill="none"></path></g><g stroke-linecap="round"><g transform="translate(706 693.296875) rotate(0 -4.5 -82.5)"><path d="M-1.18 -0.98 C-2.7 -28.71, -8.18 -138.56, -9.36 -166.04 M0.4 1.11 C-1.29 -26.52, -8.99 -137.36, -10.49 -165.04" stroke="#000000" stroke-width="1" fill="none"></path></g><g transform="translate(706 693.296875) rotate(0 -4.5 -82.5)"><path d="M-0.12 -138.14 C-3.66 -144.15, -6.75 -151.93, -12.07 -166.94 M0.9 -138.49 C-1.27 -144.36, -3.85 -150.78, -11.47 -164.46" stroke="#000000" stroke-width="1" fill="none"></path></g><g transform="translate(706 693.296875) rotate(0 -4.5 -82.5)"><path d="M-20.6 -136.85 C-18.37 -143.02, -15.69 -151.17, -12.07 -166.94 M-19.58 -137.2 C-16.92 -143.27, -14.67 -149.99, -11.47 -164.46" stroke="#000000" stroke-width="1" fill="none"></path></g></g><g stroke-linecap="round"><g transform="translate(697 682.296875) rotate(0 244 -0.5)"><path d="M-0.2 0.44 C80.98 0.25, 406.77 -0.43, 487.97 -0.68 M-1.77 -0.37 C79.18 -0.98, 405.15 -2.73, 487 -2.63" stroke="#000000" stroke-width="1" fill="none"></path></g><g transform="translate(697 682.296875) rotate(0 244 -0.5)"><path d="M459.57 7.65 C469.77 2.24, 479.61 -1.87, 485.41 -3.93 M459.71 8.18 C466.77 4.51, 476.54 2, 486.96 -2.33" stroke="#000000" stroke-width="1" fill="none"></path></g><g transform="translate(697 682.296875) rotate(0 244 -0.5)"><path d="M459.52 -12.87 C469.82 -10.68, 479.68 -7.19, 485.41 -3.93 M459.66 -12.35 C466.88 -9.87, 476.66 -6.24, 486.96 -2.33" stroke="#000000" stroke-width="1" fill="none"></path></g></g><g stroke-linecap="round"><g transform="translate(716 539.296875) rotate(0 171 70)"><path d="M1.19 -1.01 C6.74 12.75, 17.51 61.57, 33.98 82.26 C50.44 102.96, 48.62 113.62, 99.95 123.16 C151.29 132.71, 301.58 136.94, 341.98 139.55 M0.35 1.07 C5.77 14.48, 16.98 60.22, 33.54 80.28 C50.1 100.34, 48.24 111.41, 99.69 121.43 C151.13 131.46, 301.99 137.56, 342.21 140.42" stroke="#1864ab" stroke-width="1" fill="none"></path></g></g><g stroke-linecap="round"><g transform="translate(721 542.296875) rotate(0 129 50)"><path d="M-0.45 -0.95 C4.03 10.36, 15.33 48.21, 25.91 66.74 C36.49 85.26, 37.65 105.69, 63.01 110.22 C88.37 114.74, 145.75 114.23, 178.06 93.88 C210.38 73.54, 243.66 5.61, 256.9 -11.86 M1.52 1.17 C6 12.75, 15.32 49.81, 25.44 68.14 C35.56 86.46, 36.85 106.74, 62.25 111.12 C87.65 115.5, 145.11 114.91, 177.82 94.4 C210.53 73.9, 245.03 5.8, 258.51 -11.92" stroke="#d9480f" stroke-width="1" fill="none"></path></g></g></svg>