<svg version="1.1" xmlns="http://www.w3.org/2000/svg" viewBox="0 0 10020 704.765625" width="10020" height="704.765625">
  <!-- svg-source:excalidraw -->
  
  <defs>
    <style>
      @font-face {
        font-family: "Virgil";
        src: url("https://excalidraw.com/Virgil.woff2");
      }
      @font-face {
        font-family: "Cascadia";
        src: url("https://excalidraw.com/Cascadia.woff2");
      }
    </style>
  </defs>
  <rect x="0" y="0" width="10020" height="704.765625" fill="#fff0"></rect><g stroke-linecap="round" transform="translate(10 10) rotate(0 5000 0.5)"><path d="M-0.52 -0.26 C3022.65 -30.2, 6044.59 -29.2, 9999.32 0.22 M0.38 -0.31 C3948.03 -0.44, 7895.41 0.2, 9999.95 0.08 M10000.08 -0.06 C10000.09 0.27, 10000.05 0.48, 10000.09 0.92 M9999.97 0.01 C9999.95 0.33, 9999.98 0.72, 10000 0.99 M10000.22 1.51 C7095.77 35.76, 4193.15 34.95, -0.25 0.75 M10000.01 1.13 C7827.97 2.74, 5656.23 3.35, -0.33 0.84 M-0.04 1.01 C0 0.63, -0.06 0.15, 0.05 -0.03 M-0.04 0.95 C-0.04 0.73, -0.03 0.59, -0.05 -0.02" stroke="transparent" stroke-width="1" fill="none"></path></g><g stroke-linecap="round" transform="translate(743 584.765625) rotate(0 92.5 37)"><path d="M1.95 1.39 C42.05 -2.38, 85.76 -1.96, 184.07 -0.66 M0.78 -0.73 C52.26 -0.56, 102.75 -0.36, 184.99 -0.94 M184.6 -0.73 C186.29 17.7, 185.94 34.22, 186.68 75.72 M184.47 -0.34 C184.81 22.24, 183.93 43.69, 185.02 74.6 M184.16 74.25 C123.83 74.08, 61.02 73.53, -0.03 72.37 M184.98 74.22 C135.93 72.79, 88.82 73.65, 0.59 73.16 M0.8 72.8 C0.43 45.98, -0.65 20.26, -1.75 -0.01 M0.41 73.73 C-0.34 53.88, -0.07 31.69, -0.04 0.69" stroke="#000000" stroke-width="1" fill="none"></path></g><g stroke-linecap="round"><g transform="translate(926 619.765625) rotate(0 62.5 -0.5)"><path d="M0.57 0.41 C21.36 -0.15, 104.69 -2.04, 125.49 -2.18 M-0.59 -0.43 C20.02 -0.37, 103.91 -0.92, 124.8 -1.26" stroke="#1864ab" stroke-width="1" fill="none"></path></g><g transform="translate(926 619.765625) rotate(0 62.5 -0.5)"><path d="M97.4 10.12 C104.87 5.93, 118.02 0.29, 124.62 -1.9 M95.75 9.94 C104.24 7.01, 113.01 2.44, 125.24 -0.45" stroke="#1864ab" stroke-width="1" fill="none"></path></g><g transform="translate(926 619.765625) rotate(0 62.5 -0.5)"><path d="M97.18 -10.4 C104.93 -7.13, 118.15 -5.3, 124.62 -1.9 M95.54 -10.58 C103.91 -7.64, 112.74 -6.34, 125.24 -0.45" stroke="#1864ab" stroke-width="1" fill="none"></path></g></g><g stroke-linecap="round"><g transform="translate(741 619.765625) rotate(0 -50.5 -1.5)"><path d="M-0.86 -0.67 C-17.61 -0.91, -84.43 -1.36, -101.29 -1.93 M0.89 1.59 C-15.98 1.09, -85.64 -2.67, -102.39 -3.49" stroke="#1864ab" stroke-width="1" fill="none"></path></g><g transform="translate(741 619.765625) rotate(0 -50.5 -1.5)"><path d="M-74.82 -12.77 C-78.77 -12.04, -89.18 -7.51, -100.69 -3.42 M-73.95 -12.8 C-83.41 -9.94, -92.01 -6.06, -102.93 -3.01" stroke="#1864ab" stroke-width="1" fill="none"></path></g><g transform="translate(741 619.765625) rotate(0 -50.5 -1.5)"><path d="M-75.88 7.73 C-79.49 3.6, -89.64 3.26, -100.69 -3.42 M-75 7.69 C-84.08 3.8, -92.33 0.93, -102.93 -3.01" stroke="#1864ab" stroke-width="1" fill="none"></path></g></g><g transform="translate(748 609.265625) rotate(0 87.5 12.5)"><text x="87.5" y="18" font-family="Virgil, Segoe UI Emoji" font-size="20px" fill="#000000" text-anchor="middle" style="white-space: pre;" direction="ltr">+</text></g><g transform="translate(1005 613.765625) rotate(0 7 12.5)"><text x="0" y="18" font-family="Virgil, Segoe UI Emoji" font-size="20px" fill="#d9480f" text-anchor="start" style="white-space: pre;" direction="ltr">N</text></g><g transform="translate(654 626.765625) rotate(0 7 12.5)"><text x="0" y="18" font-family="Virgil, Segoe UI Emoji" font-size="20px" fill="#d9480f" text-anchor="start" style="white-space: pre;" direction="ltr">N</text></g><g stroke-linecap="round"><g transform="translate(954 571.765625) rotate(0 2 51)"><path d="M0.18 0.25 C0.68 17.44, 2.69 85.12, 3.45 101.97 M-1.18 -0.66 C-0.92 16.82, 1.3 86.33, 2.21 103.49" stroke="#1864ab" stroke-width="1" fill="none"></path></g><g transform="translate(954 571.765625) rotate(0 2 51)"><path d="M-8.76 74.83 C-5.66 86.24, -2.9 94.68, 2.27 101.76 M-9.85 76.58 C-6.14 81.19, -4.19 87.86, 3.08 103.24" stroke="#1864ab" stroke-width="1" fill="none"></path></g><g transform="translate(954 571.765625) rotate(0 2 51)"><path d="M11.74 73.99 C7.94 85.72, 3.82 94.44, 2.27 101.76 M10.66 75.75 C9.96 80.52, 7.51 87.36, 3.08 103.24" stroke="#1864ab" stroke-width="1" fill="none"></path></g></g><g stroke-linecap="round"><g transform="translate(705 694.765625) rotate(0 2.5 -67.5)"><path d="M-0.42 -0.44 C0.15 -22.88, 3.47 -113.48, 4.54 -135.79 M1.57 -1.72 C1.84 -23.92, 2.66 -112.24, 3.36 -134.66" stroke="#1864ab" stroke-width="1" fill="none"></path></g><g transform="translate(705 694.765625) rotate(0 2.5 -67.5)"><path d="M12.36 -107.04 C8.22 -115.8, 6.92 -128.59, 1.8 -134.86 M13.78 -106.68 C10.91 -114.4, 6.31 -123.94, 3.8 -133.8" stroke="#1864ab" stroke-width="1" fill="none"></path></g><g transform="translate(705 694.765625) rotate(0 2.5 -67.5)"><path d="M-8.16 -107.43 C-4.23 -115.96, 2.52 -128.6, 1.8 -134.86 M-6.74 -107.06 C-3.26 -114.84, -1.52 -124.27, 3.8 -133.8" stroke="#1864ab" stroke-width="1" fill="none"></path></g></g><g stroke-linecap="round"><g transform="translate(1010 688.765625) rotate(0 28.5 -67.5)"><path d="M-0.31 -0.5 C9.18 -12.2, 56.16 -47.96, 56.23 -70.18 C56.3 -92.41, 9.51 -123.05, 0.13 -133.87 M1.73 -1.81 C11.66 -13.33, 58.92 -46.44, 58.54 -68.74 C58.16 -91.04, 9.16 -124.74, -0.56 -135.61" stroke="#1864ab" stroke-width="1" fill="none"></path></g><g transform="translate(1010 688.765625) rotate(0 28.5 -67.5)"><path d="M26.51 -125.9 C20.26 -127.14, 15.68 -130.07, -0.66 -134.79 M27.23 -123.75 C18.29 -128.01, 6.47 -131.95, 0.31 -136.53" stroke="#1864ab" stroke-width="1" fill="none"></path></g><g transform="translate(1010 688.765625) rotate(0 28.5 -67.5)"><path d="M12.91 -110.53 C9.96 -115.47, 8.68 -122.13, -0.66 -134.79 M13.63 -108.38 C9.63 -118.27, 2.69 -127.72, 0.31 -136.53" stroke="#1864ab" stroke-width="1" fill="none"></path></g></g><g stroke-linecap="round"><g transform="translate(648 688.765625) rotate(0 9 -69.5)"><path d="M-0.8 -1.16 C-4.99 -12.01, -32.16 -40.97, -24.91 -63.97 C-17.66 -86.96, 31.44 -126.62, 42.7 -139.11 M0.98 0.85 C-3.37 -9.28, -32.61 -39.29, -25.81 -62.41 C-19.01 -85.53, 30.35 -125.29, 41.78 -137.85" stroke="#1864ab" stroke-width="1" fill="none"></path></g><g transform="translate(648 688.765625) rotate(0 9 -69.5)"><path d="M26.5 -110.83 C32.46 -119.91, 36.45 -128.51, 41.89 -139.83 M28.89 -110.54 C33.56 -121.17, 38.54 -129.8, 41.73 -137.22" stroke="#1864ab" stroke-width="1" fill="none"></path></g><g transform="translate(648 688.765625) rotate(0 9 -69.5)"><path d="M12.36 -125.69 C22.94 -129.97, 31.41 -133.85, 41.89 -139.83 M14.74 -125.4 C24.48 -130.66, 34.5 -133.99, 41.73 -137.22" stroke="#1864ab" stroke-width="1" fill="none"></path></g></g><g transform="translate(932 546.765625) rotate(0 8.5 12.5)"><text x="0" y="18" font-family="Virgil, Segoe UI Emoji" font-size="20px" fill="#d9480f" text-anchor="start" style="white-space: pre;" direction="ltr">T</text></g><g transform="translate(1086 585.765625) rotate(0 8 12.5)"><text x="0" y="18" font-family="Virgil, Segoe UI Emoji" font-size="20px" fill="#d9480f" text-anchor="start" style="white-space: pre;" direction="ltr">M</text></g><g transform="translate(724 545.765625) rotate(0 8.5 12.5)"><text x="0" y="18" font-family="Virgil, Segoe UI Emoji" font-size="20px" fill="#d9480f" text-anchor="start" style="white-space: pre;" direction="ltr">T</text></g><g transform="translate(608 567.765625) rotate(0 8 12.5)"><text x="0" y="18" font-family="Virgil, Segoe UI Emoji" font-size="20px" fill="#d9480f" text-anchor="start" style="white-space: pre;" direction="ltr">M</text></g></svg>