<svg version="1.1" xmlns="http://www.w3.org/2000/svg" viewBox="0 0 10020 803.234375" width="10020" height="803.234375">
  <!-- svg-source:excalidraw -->
  
  <defs>
    <style>
      @font-face {
        font-family: "Virgil";
        src: url("https://excalidraw.com/Virgil.woff2");
      }
      @font-face {
        font-family: "Cascadia";
        src: url("https://excalidraw.com/Cascadia.woff2");
      }
    </style>
  </defs>
  <rect x="0" y="0" width="10020" height="803.234375" fill="#fff0"></rect><g stroke-linecap="round" transform="translate(10 10) rotate(0 5000 0.5)"><path d="M-0.52 -0.26 C3022.65 -30.2, 6044.59 -29.2, 9999.32 0.22 M0.38 -0.31 C3948.03 -0.44, 7895.41 0.2, 9999.95 0.08 M10000.08 -0.06 C10000.09 0.27, 10000.05 0.48, 10000.09 0.92 M9999.97 0.01 C9999.95 0.33, 9999.98 0.72, 10000 0.99 M10000.22 1.51 C7095.77 35.76, 4193.15 34.95, -0.25 0.75 M10000.01 1.13 C7827.97 2.74, 5656.23 3.35, -0.33 0.84 M-0.04 1.01 C0 0.63, -0.06 0.15, 0.05 -0.03 M-0.04 0.95 C-0.04 0.73, -0.03 0.59, -0.05 -0.02" stroke="transparent" stroke-width="1" fill="none"></path></g><g stroke-linecap="round"><g transform="translate(547.5 793.234375) rotate(0 -1 -123.5)"><path d="M-0.06 0.65 C-0.51 -40.37, -1.63 -205.92, -1.96 -247.18 M-1.54 -0.05 C-2.22 -40.79, -2.68 -204.82, -2.89 -245.74" stroke="#000000" stroke-width="1" fill="none"></path></g><g transform="translate(547.5 793.234375) rotate(0 -1 -123.5)"><path d="M8.57 -217.53 C3.66 -227.88, 0.34 -238.38, -3.5 -245.54 M7.19 -216.69 C2.98 -228.27, -0.25 -238.37, -3.87 -245.49" stroke="#000000" stroke-width="1" fill="none"></path></g><g transform="translate(547.5 793.234375) rotate(0 -1 -123.5)"><path d="M-11.95 -217.44 C-9.4 -227.82, -5.26 -238.35, -3.5 -245.54 M-13.34 -216.61 C-10.03 -228.09, -5.76 -238.22, -3.87 -245.49" stroke="#000000" stroke-width="1" fill="none"></path></g></g><g stroke-linecap="round"><g transform="translate(526.5 768.234375) rotate(0 166.20609495074768 -1.0800238684528836)"><path d="M0.65 0.04 C56.2 -0.32, 276.92 -1.79, 332.23 -2.19 M-0.47 -0.99 C55 -1.14, 275.81 -0.65, 331.19 -0.67" stroke="#000000" stroke-width="1" fill="none"></path></g><g transform="translate(526.5 768.234375) rotate(0 166.20609495074768 -1.0800238684528836)"><path d="M303.05 9.26 C308.9 7.39, 314.6 4.47, 331.39 0.64 M303.88 8.89 C311.6 6.32, 320.68 2.23, 331.44 -0.09" stroke="#000000" stroke-width="1" fill="none"></path></g><g transform="translate(526.5 768.234375) rotate(0 166.20609495074768 -1.0800238684528836)"><path d="M303.07 -11.26 C308.91 -8.79, 314.6 -7.36, 331.39 0.64 M303.9 -11.63 C311.49 -7.74, 320.56 -5.38, 331.44 -0.09" stroke="#000000" stroke-width="1" fill="none"></path></g></g><g stroke-linecap="round"><g transform="translate(670.5 728.234375) rotate(0 37 -94)"><path d="M0.04 -0.18 C-11.13 -5.27, -56.83 -18.38, -67.03 -29.91 C-77.24 -41.44, -68.39 -55.15, -61.2 -69.36 C-54.01 -83.58, -27.77 -102.32, -23.88 -115.21 C-19.98 -128.1, -41.91 -138.6, -37.82 -146.72 C-33.74 -154.84, -10.36 -152.98, 0.64 -163.92 C11.65 -174.87, 14.49 -206.68, 28.2 -212.38 C41.9 -218.08, 79.94 -208.42, 82.88 -198.14 C85.82 -187.86, 43.53 -163.6, 45.83 -150.7 C48.13 -137.81, 84.34 -118.72, 96.7 -120.77 C109.05 -122.83, 112.69 -160.35, 119.95 -163.05 C127.21 -165.74, 141.62 -148.96, 140.28 -136.95 C138.95 -124.95, 126.17 -98.1, 111.95 -91.01 C97.73 -83.92, 63.21 -104.36, 54.95 -94.42 C46.68 -84.49, 56.32 -51.15, 62.35 -31.4 C68.38 -11.66, 101.54 18.82, 91.11 24.05 C80.68 29.27, 14.82 3.96, -0.22 -0.04 M-1.4 -1.32 C-12.72 -6.26, -57.89 -17.17, -68 -28.32 C-78.11 -39.48, -69.47 -53.4, -62.07 -68.24 C-54.66 -83.07, -27.38 -104.27, -23.57 -117.35 C-19.76 -130.43, -43.44 -138.86, -39.2 -146.71 C-34.96 -154.55, -9.4 -153.8, 1.87 -164.4 C13.14 -174.99, 15.1 -204.57, 28.42 -210.27 C41.74 -215.96, 78.66 -208.28, 81.79 -198.56 C84.92 -188.83, 44.53 -164.84, 47.21 -151.93 C49.88 -139.02, 85.74 -118.89, 97.83 -121.11 C109.91 -123.32, 112.33 -162.6, 119.72 -165.22 C127.11 -167.84, 143.33 -149.06, 142.15 -136.83 C140.98 -124.6, 127.25 -98.93, 112.68 -91.84 C98.11 -84.76, 63.13 -104.34, 54.74 -94.31 C46.35 -84.28, 56.62 -51.58, 62.34 -31.64 C68.06 -11.7, 99.72 19.93, 89.07 25.32 C78.41 30.71, 13.24 4.83, -1.58 0.69" stroke="#000000" stroke-width="1" fill="none"></path></g></g><g stroke-linecap="round"><g transform="translate(719.5 711.234375) rotate(0 33.5 -2.5)"><path d="M-0.18 -0.03 C10.89 -0.91, 55.95 -4.39, 67.09 -5.2 M-1.74 -1.1 C9.13 -1.79, 54.95 -3.36, 66.19 -3.76" stroke="#d9480f" stroke-width="1" fill="none"></path></g><g transform="translate(719.5 711.234375) rotate(0 33.5 -2.5)"><path d="M38.32 7.64 C47.9 2.94, 58.28 0.87, 66.48 -4.96 M38.06 7.39 C45.68 3.66, 53.56 2.17, 66.38 -4.64" stroke="#d9480f" stroke-width="1" fill="none"></path></g><g transform="translate(719.5 711.234375) rotate(0 33.5 -2.5)"><path d="M37.6 -12.87 C47.43 -10.3, 58.08 -5.1, 66.48 -4.96 M37.34 -13.12 C45.33 -11.3, 53.41 -7.25, 66.38 -4.64" stroke="#d9480f" stroke-width="1" fill="none"></path></g></g><g stroke-linecap="round"><g transform="translate(673.5 673.234375) rotate(0 -38 34.5)"><path d="M-0.03 0.09 C-12.74 11.56, -63.56 57.02, -76.2 68.64 M-1.51 -0.91 C-14.4 10.75, -64.74 58.52, -77.25 69.98" stroke="#d9480f" stroke-width="1" fill="none"></path></g><g transform="translate(673.5 673.234375) rotate(0 -38 34.5)"><path d="M-63.5 42.91 C-68.42 51.55, -70.62 59.74, -78.45 69.39 M-63.76 43.12 C-70.11 53.87, -73.85 64.23, -78.13 70.78" stroke="#d9480f" stroke-width="1" fill="none"></path></g><g transform="translate(673.5 673.234375) rotate(0 -38 34.5)"><path d="M-49.5 57.91 C-58.64 61.99, -65.08 65.64, -78.45 69.39 M-49.75 58.12 C-61.46 62.98, -70.66 67.49, -78.13 70.78" stroke="#d9480f" stroke-width="1" fill="none"></path></g></g><g stroke-linecap="round"><g transform="translate(774.5 651.234375) rotate(0 -49 -5.5)"><path d="M0.09 -0.2 C-16.27 -2.01, -82.15 -9.11, -98.36 -10.88 M-1.32 -1.35 C-17.86 -2.94, -83.46 -7.93, -99.5 -9.28" stroke="#d9480f" stroke-width="1" fill="none"></path></g><g transform="translate(774.5 651.234375) rotate(0 -49 -5.5)"><path d="M-70.92 -17.87 C-78.62 -13.65, -86.77 -13.89, -100.1 -7.48 M-70.7 -18.24 C-77.11 -14.85, -83.91 -14.44, -98.71 -9.87" stroke="#d9480f" stroke-width="1" fill="none"></path></g><g transform="translate(774.5 651.234375) rotate(0 -49 -5.5)"><path d="M-72.55 2.59 C-79.78 0.98, -87.47 -5.09, -100.1 -7.48 M-72.33 2.22 C-78.29 0.84, -84.72 -3.53, -98.71 -9.87" stroke="#d9480f" stroke-width="1" fill="none"></path></g></g><g stroke-linecap="round" transform="translate(696.5 595.234375) rotate(0 8 7)"><path d="M-0.48 0.16 C5.81 0.26, 8.55 -0.45, 17.44 -1.07 M-0.78 0.2 C4.76 0.17, 7.88 0.65, 15.52 0.7 M16.67 -0.76 C16.7 6.61, 16.05 10.37, 15.96 15.07 M15.32 -0.32 C16.63 3.78, 15.55 9.24, 16 14.23 M17.23 12.43 C11.89 13.99, 4.98 14.81, 1.47 13.92 M15.95 13.96 C12.88 13.83, 10.08 14.27, -0.15 14.11 M-1.01 14.59 C-1.36 10.44, -0.5 7.48, 0.17 -0.91 M-0.25 14.61 C0.12 9.84, 0.37 6.04, 0.1 -0.69" stroke="#1864ab" stroke-width="1" fill="none"></path></g><g stroke-linecap="round"><g transform="translate(709.5 603.234375) rotate(0 56 -30.5)"><path d="M-0.36 0.12 C18.42 -9.98, 94.18 -50.58, 112.79 -60.82 M1.65 -0.86 C20.33 -10.73, 93.56 -49.3, 112.26 -59.19" stroke="#1864ab" stroke-width="1" fill="none"></path></g><g transform="translate(709.5 603.234375) rotate(0 56 -30.5)"><path d="M92.32 -35.64 C98.64 -44.94, 103.94 -48.78, 110.92 -59.83 M92.37 -36.38 C98.17 -44.08, 104.61 -50.25, 113.13 -58.4" stroke="#1864ab" stroke-width="1" fill="none"></path></g><g transform="translate(709.5 603.234375) rotate(0 56 -30.5)"><path d="M82.74 -53.79 C91.98 -57.47, 100.23 -55.74, 110.92 -59.83 M82.79 -54.53 C91.34 -56.88, 100.56 -57.78, 113.13 -58.4" stroke="#1864ab" stroke-width="1" fill="none"></path></g></g><g transform="translate(846.5 518.234375) rotate(0 60 12.5)"><text x="0" y="18" font-family="Virgil, Segoe UI Emoji" font-size="20px" fill="#1864ab" text-anchor="start" style="white-space: pre;" direction="ltr">dm = dA*h*ρ</text></g><g transform="translate(909.5 570.234375) rotate(0 29.5 25)"><text x="0" y="18" font-family="Virgil, Segoe UI Emoji" font-size="20px" fill="#1864ab" text-anchor="start" style="white-space: pre;" direction="ltr">ω = 0</text><text x="0" y="43" font-family="Virgil, Segoe UI Emoji" font-size="20px" fill="#1864ab" text-anchor="start" style="white-space: pre;" direction="ltr"></text></g><g stroke-linecap="round"><g transform="translate(904.3069034697284 568.8671839765187) rotate(0 12.596548265135823 0.683595511740613)"><path d="M0.18 -0.72 C4.29 -0.44, 20.8 2.16, 24.84 2.44 M-1.19 1.52 C2.73 1.41, 19.02 0.79, 23.7 0.89" stroke="#1864ab" stroke-width="1" fill="none"></path></g><g transform="translate(904.3069034697284 568.8671839765187) rotate(0 12.596548265135823 0.683595511740613)"><path d="M11.14 4.96 C16.66 3.09, 18.79 2.43, 23.55 -0.34 M11.34 5.83 C15.33 4.42, 20.04 2.41, 24.2 1.19" stroke="#1864ab" stroke-width="1" fill="none"></path></g><g transform="translate(904.3069034697284 568.8671839765187) rotate(0 12.596548265135823 0.683595511740613)"><path d="M11.04 -3.67 C16.65 -2.86, 18.81 -0.85, 23.55 -0.34 M11.25 -2.8 C15.31 -1.41, 20.06 -0.61, 24.2 1.19" stroke="#1864ab" stroke-width="1" fill="none"></path></g></g><g transform="translate(911.5 560.234375) rotate(0 0.00004999999998744897 0.00005000000000165983)" stroke="none"><path fill="#1864ab" d="M 1.57,-1.57 Q 1.57,-1.57 1.77,-1.27 1.98,-0.98 2.09,-0.64 2.20,-0.29 2.19,0.05 2.18,0.41 2.05,0.75 1.93,1.09 1.70,1.37 1.48,1.65 1.18,1.84 0.87,2.04 0.52,2.12 0.18,2.21 -0.17,2.18 -0.53,2.15 -0.86,2.01 -1.19,1.87 -1.46,1.63 -1.73,1.39 -1.90,1.07 -2.08,0.76 -2.15,0.41 -2.21,0.05 -2.17,-0.29 -2.12,-0.65 -1.96,-0.97 -1.80,-1.29 -1.54,-1.54 -1.29,-1.80 -0.97,-1.96 -0.65,-2.12 -0.29,-2.17 0.06,-2.21 0.41,-2.15 0.76,-2.08 1.07,-1.90 1.39,-1.73 1.63,-1.46 1.87,-1.19 2.01,-0.86 2.15,-0.53 2.18,-0.17 2.21,0.18 2.12,0.52 2.03,0.87 1.84,1.18 1.65,1.48 1.37,1.70 1.09,1.93 0.75,2.05 0.41,2.18 0.05,2.19 -0.30,2.20 -0.64,2.09 -0.98,1.98 -1.27,1.77 -1.57,1.56 -1.57,1.57 -1.57,1.57 -1.73,1.35 -1.90,1.14 -2.01,0.90 -2.12,0.66 -2.16,0.39 -2.21,0.13 -2.20,-0.13 -2.18,-0.40 -2.10,-0.65 -2.02,-0.91 -1.88,-1.14 -1.74,-1.36 -1.55,-1.55 -1.36,-1.74 -1.14,-1.88 -0.91,-2.02 -0.65,-2.10 -0.40,-2.18 -0.13,-2.20 0.13,-2.21 0.39,-2.16 0.66,-2.12 0.90,-2.01 1.14,-1.90 1.35,-1.73 1.57,-1.57 1.57,-1.57 L 1.57,-1.57 Z"></path></g><g transform="translate(905.5 636.234375) rotate(0 7 12.5)"><text x="0" y="18" font-family="Virgil, Segoe UI Emoji" font-size="20px" fill="#1864ab" text-anchor="start" style="white-space: pre;" direction="ltr">a</text></g><g stroke-linecap="round"><g transform="translate(896.5 630.234375) rotate(0 16 -2)"><path d="M1.08 -0.8 C6.47 -1.43, 26.49 -3.39, 31.62 -4.12 M0.18 1.39 C5.44 0.99, 25.33 -1.67, 30.47 -2.65" stroke="#1864ab" stroke-width="1" fill="none"></path></g><g transform="translate(896.5 630.234375) rotate(0 16 -2)"><path d="M15.28 4.64 C19.61 2.96, 21.59 1.68, 31.4 -2.35 M17.06 5.79 C19.29 4.21, 22.68 1.48, 30.87 -1.9" stroke="#1864ab" stroke-width="1" fill="none"></path></g><g transform="translate(896.5 630.234375) rotate(0 16 -2)"><path d="M13.57 -6.26 C18.27 -5.33, 20.66 -4, 31.4 -2.35 M15.35 -5.11 C18.03 -4.36, 21.78 -4.77, 30.87 -1.9" stroke="#1864ab" stroke-width="1" fill="none"></path></g></g><g transform="translate(866.5 711.234375) rotate(0 67.5 25)"><text x="0" y="18" font-family="Virgil, Segoe UI Emoji" font-size="20px" fill="#1864ab" text-anchor="start" style="white-space: pre;" direction="ltr">Considero una</text><text x="0" y="43" font-family="Virgil, Segoe UI Emoji" font-size="20px" fill="#1864ab" text-anchor="start" style="white-space: pre;" direction="ltr">rotazione</text></g><g stroke-linecap="round"><g transform="translate(973.9720813026483 672.734375) rotate(0 50.513959348675826 35)"><path d="M-0.23 1.1 C10.08 1.52, 47.1 -1.67, 62.27 3.27 C77.45 8.2, 84.26 19.56, 90.8 30.7 C97.35 41.84, 99.68 63.52, 101.55 70.1 M-1.8 0.63 C8.38 0.61, 46.39 -3.92, 61.78 1.28 C77.18 6.49, 83.85 20.2, 90.56 31.87 C97.28 43.53, 100.32 64.79, 102.07 71.26" stroke="#1864ab" stroke-width="1" fill="none"></path></g><g transform="translate(973.9720813026483 672.734375) rotate(0 50.513959348675826 35)"><path d="M93.07 55.55 C95.43 61.56, 98.13 66.53, 102.24 72.94 M91.41 54.5 C93.64 59.21, 98.48 64.74, 102.89 71.25" stroke="#1864ab" stroke-width="1" fill="none"></path></g><g transform="translate(973.9720813026483 672.734375) rotate(0 50.513959348675826 35)"><path d="M106.64 52.6 C104.45 59.57, 102.6 65.54, 102.24 72.94 M104.97 51.56 C102.91 57.1, 103.46 63.56, 102.89 71.25" stroke="#1864ab" stroke-width="1" fill="none"></path></g></g><g stroke-linecap="round"><g transform="translate(699 564.734375) rotate(0 -40 -12.5)"><path d="M1.08 0.68 C-11.91 -3.54, -65.28 -20.09, -78.88 -24.22 M0.18 0 C-12.78 -4.05, -65.62 -21.61, -79.25 -25.93" stroke="#d9480f" stroke-width="1" fill="none"></path></g><g transform="translate(699 564.734375) rotate(0 -40 -12.5)"><path d="M-48.12 -25.1 C-54.57 -27.38, -60.97 -27.12, -78.68 -26.24 M-48.51 -26.69 C-59.13 -26.93, -69.16 -27.3, -79.09 -25.93" stroke="#d9480f" stroke-width="1" fill="none"></path></g><g transform="translate(699 564.734375) rotate(0 -40 -12.5)"><path d="M-54.48 -5.59 C-59.7 -12.23, -64.7 -16.27, -78.68 -26.24 M-54.86 -7.18 C-63.23 -14.18, -71.04 -21.35, -79.09 -25.93" stroke="#d9480f" stroke-width="1" fill="none"></path></g></g><g stroke-linecap="round"><g transform="translate(936 588.734375) rotate(0 2 -8)"><path d="M0.66 -1 C1.5 -3.29, 4.04 -12.49, 4.41 -14.91 M-0.45 1.09 C0.32 -1.41, 2.73 -13.34, 3.68 -16.47" stroke="#000000" stroke-width="1" fill="none"></path></g></g></svg>