<svg version="1.1" xmlns="http://www.w3.org/2000/svg" viewBox="0 0 10020 850.65625" width="10020" height="850.65625">
  <!-- svg-source:excalidraw -->
  
  <defs>
    <style>
      @font-face {
        font-family: "Virgil";
        src: url("https://excalidraw.com/Virgil.woff2");
      }
      @font-face {
        font-family: "Cascadia";
        src: url("https://excalidraw.com/Cascadia.woff2");
      }
    </style>
  </defs>
  <rect x="0" y="0" width="10020" height="850.65625" fill="#ffffff"></rect><g stroke-linecap="round" transform="translate(10 10) rotate(0 5000 0.5)"><path d="M-0.52 -0.26 C3022.65 -30.2, 6044.59 -29.2, 9999.32 0.22 M0.38 -0.31 C3948.03 -0.44, 7895.41 0.2, 9999.95 0.08 M10000.08 -0.06 C10000.09 0.27, 10000.05 0.48, 10000.09 0.92 M9999.97 0.01 C9999.95 0.33, 9999.98 0.72, 10000 0.99 M10000.22 1.51 C7095.77 35.76, 4193.15 34.95, -0.25 0.75 M10000.01 1.13 C7827.97 2.74, 5656.23 3.35, -0.33 0.84 M-0.04 1.01 C0 0.63, -0.06 0.15, 0.05 -0.03 M-0.04 0.95 C-0.04 0.73, -0.03 0.59, -0.05 -0.02" stroke="transparent" stroke-width="1" fill="none"></path></g><g stroke-linecap="round"><g transform="translate(745.84375 796.65625) rotate(0 1 -112)"><path d="M-1.18 0.99 C-0.97 -36.58, 1.15 -187.14, 1.5 -224.79 M0.4 0.47 C0.39 -37.02, -0.18 -186.24, 0.29 -223.66" stroke="#000000" stroke-width="1" fill="none"></path></g><g transform="translate(745.84375 796.65625) rotate(0 1 -112)"><path d="M12.11 -196.27 C5.76 -206.35, 2.33 -212.51, -0.49 -224.14 M9.97 -195.05 C7.34 -201.28, 5.94 -208.09, 0.87 -222.73" stroke="#000000" stroke-width="1" fill="none"></path></g><g transform="translate(745.84375 796.65625) rotate(0 1 -112)"><path d="M-8.41 -196.34 C-8.22 -206.2, -5.11 -212.34, -0.49 -224.14 M-10.55 -195.11 C-8.69 -201.38, -5.58 -208.18, 0.87 -222.73" stroke="#000000" stroke-width="1" fill="none"></path></g></g><g stroke-linecap="round"><g transform="translate(744.84375 792.65625) rotate(0 158 -0.5)"><path d="M-0.06 0.45 C52.72 0.41, 264.05 -0.56, 316.75 -0.94 M-1.55 -0.36 C51.13 -0.12, 263.37 0.73, 316.19 0.63" stroke="#000000" stroke-width="1" fill="none"></path></g><g transform="translate(744.84375 792.65625) rotate(0 158 -0.5)"><path d="M288.73 12.09 C296.79 7.87, 303.92 5.86, 314.71 0.96 M288.29 11.11 C295.46 9.13, 301.95 6.19, 315.92 0.2" stroke="#000000" stroke-width="1" fill="none"></path></g><g transform="translate(744.84375 792.65625) rotate(0 158 -0.5)"><path d="M288.76 -8.43 C296.69 -6.36, 303.8 -2.07, 314.71 0.96 M288.32 -9.42 C295.33 -6.7, 301.81 -4.96, 315.92 0.2" stroke="#000000" stroke-width="1" fill="none"></path></g></g><g transform="translate(683.84375 543.65625) rotate(0 5 12.5)"><text x="0" y="18" font-family="Virgil, Segoe UI Emoji" font-size="20px" fill="#000000" text-anchor="start" style="white-space: pre;" direction="ltr">y</text></g><g transform="translate(1093.84375 815.65625) rotate(0 6 12.5)"><text x="0" y="18" font-family="Virgil, Segoe UI Emoji" font-size="20px" fill="#000000" text-anchor="start" style="white-space: pre;" direction="ltr">x</text></g><g transform="translate(820.84375 713.65625) rotate(0 0.00004999999998744897 0.00005000000000165983)" stroke="none"><path fill="#1864ab" d="M 1.57,-1.57 Q 1.57,-1.57 1.77,-1.27 1.98,-0.98 2.09,-0.64 2.20,-0.29 2.19,0.05 2.18,0.41 2.05,0.75 1.93,1.09 1.70,1.37 1.48,1.65 1.18,1.84 0.87,2.04 0.52,2.12 0.18,2.21 -0.17,2.18 -0.53,2.15 -0.86,2.01 -1.19,1.87 -1.46,1.63 -1.73,1.39 -1.90,1.07 -2.08,0.76 -2.15,0.41 -2.21,0.05 -2.17,-0.29 -2.12,-0.65 -1.96,-0.97 -1.80,-1.29 -1.54,-1.54 -1.29,-1.80 -0.97,-1.96 -0.65,-2.12 -0.29,-2.17 0.06,-2.21 0.41,-2.15 0.76,-2.08 1.07,-1.90 1.39,-1.73 1.63,-1.46 1.87,-1.19 2.01,-0.86 2.15,-0.53 2.18,-0.17 2.21,0.18 2.12,0.52 2.03,0.87 1.84,1.18 1.65,1.48 1.37,1.70 1.09,1.93 0.75,2.05 0.41,2.18 0.05,2.19 -0.30,2.20 -0.64,2.09 -0.98,1.98 -1.27,1.77 -1.57,1.56 -1.57,1.57 -1.57,1.57 -1.73,1.35 -1.90,1.14 -2.01,0.90 -2.12,0.66 -2.16,0.39 -2.21,0.13 -2.20,-0.13 -2.18,-0.40 -2.10,-0.65 -2.02,-0.91 -1.88,-1.14 -1.74,-1.36 -1.55,-1.55 -1.36,-1.74 -1.14,-1.88 -0.91,-2.02 -0.65,-2.10 -0.40,-2.18 -0.13,-2.20 0.13,-2.21 0.39,-2.16 0.66,-2.12 0.90,-2.01 1.14,-1.90 1.35,-1.73 1.57,-1.57 1.57,-1.57 L 1.57,-1.57 Z"></path></g><g transform="translate(966.84375 622.65625) rotate(0 0.00004999999998744897 0.00005000000000165983)" stroke="none"><path fill="#1864ab" d="M 1.57,-1.57 Q 1.57,-1.57 1.77,-1.27 1.98,-0.98 2.09,-0.64 2.20,-0.29 2.19,0.05 2.18,0.41 2.05,0.75 1.93,1.09 1.70,1.37 1.48,1.65 1.18,1.84 0.87,2.04 0.52,2.12 0.18,2.21 -0.17,2.18 -0.53,2.15 -0.86,2.01 -1.19,1.87 -1.46,1.63 -1.73,1.39 -1.90,1.07 -2.08,0.76 -2.15,0.41 -2.21,0.05 -2.17,-0.29 -2.12,-0.65 -1.96,-0.97 -1.80,-1.29 -1.54,-1.54 -1.29,-1.80 -0.97,-1.96 -0.65,-2.12 -0.29,-2.17 0.06,-2.21 0.41,-2.15 0.76,-2.08 1.07,-1.90 1.39,-1.73 1.63,-1.46 1.87,-1.19 2.01,-0.86 2.15,-0.53 2.18,-0.17 2.21,0.18 2.12,0.52 2.03,0.87 1.84,1.18 1.65,1.48 1.37,1.70 1.09,1.93 0.75,2.05 0.41,2.18 0.05,2.19 -0.30,2.20 -0.64,2.09 -0.98,1.98 -1.27,1.77 -1.57,1.56 -1.57,1.57 -1.57,1.57 -1.73,1.35 -1.90,1.14 -2.01,0.90 -2.12,0.66 -2.16,0.39 -2.21,0.13 -2.20,-0.13 -2.18,-0.40 -2.10,-0.65 -2.02,-0.91 -1.88,-1.14 -1.74,-1.36 -1.55,-1.55 -1.36,-1.74 -1.14,-1.88 -0.91,-2.02 -0.65,-2.10 -0.40,-2.18 -0.13,-2.20 0.13,-2.21 0.39,-2.16 0.66,-2.12 0.90,-2.01 1.14,-1.90 1.35,-1.73 1.57,-1.57 1.57,-1.57 L 1.57,-1.57 Z"></path></g><g transform="translate(888.84375 671.65625) rotate(0 0.00004999999998744897 0.00005000000000165983)" stroke="none"><path fill="#d9480f" d="M 1.57,-1.57 Q 1.57,-1.57 1.77,-1.27 1.98,-0.98 2.09,-0.64 2.20,-0.29 2.19,0.05 2.18,0.41 2.05,0.75 1.93,1.09 1.70,1.37 1.48,1.65 1.18,1.84 0.87,2.04 0.52,2.12 0.18,2.21 -0.17,2.18 -0.53,2.15 -0.86,2.01 -1.19,1.87 -1.46,1.63 -1.73,1.39 -1.90,1.07 -2.08,0.76 -2.15,0.41 -2.21,0.05 -2.17,-0.29 -2.12,-0.65 -1.96,-0.97 -1.80,-1.29 -1.54,-1.54 -1.29,-1.80 -0.97,-1.96 -0.65,-2.12 -0.29,-2.17 0.06,-2.21 0.41,-2.15 0.76,-2.08 1.07,-1.90 1.39,-1.73 1.63,-1.46 1.87,-1.19 2.01,-0.86 2.15,-0.53 2.18,-0.17 2.21,0.18 2.12,0.52 2.03,0.87 1.84,1.18 1.65,1.48 1.37,1.70 1.09,1.93 0.75,2.05 0.41,2.18 0.05,2.19 -0.30,2.20 -0.64,2.09 -0.98,1.98 -1.27,1.77 -1.57,1.56 -1.57,1.57 -1.57,1.57 -1.73,1.35 -1.90,1.14 -2.01,0.90 -2.12,0.66 -2.16,0.39 -2.21,0.13 -2.20,-0.13 -2.18,-0.40 -2.10,-0.65 -2.02,-0.91 -1.88,-1.14 -1.74,-1.36 -1.55,-1.55 -1.36,-1.74 -1.14,-1.88 -0.91,-2.02 -0.65,-2.10 -0.40,-2.18 -0.13,-2.20 0.13,-2.21 0.39,-2.16 0.66,-2.12 0.90,-2.01 1.14,-1.90 1.35,-1.73 1.57,-1.57 1.57,-1.57 L 1.57,-1.57 Z"></path></g><g stroke-linecap="round"><g transform="translate(898.84375 664.65625) rotate(0 28 -17.5)"><path d="M0.05 -0.45 C9.69 -6.16, 47.7 -28.96, 56.85 -34.61 M-1.38 -1.73 C8.26 -7.79, 46.56 -30.75, 56.35 -36.52" stroke="#d9480f" stroke-width="1" fill="none"></path></g><g transform="translate(898.84375 664.65625) rotate(0 28 -17.5)"><path d="M36.64 -11.86 C42.22 -20.05, 46.77 -23, 58.18 -37.68 M38.25 -13.28 C41.44 -18.08, 46.35 -24.48, 57.22 -36.52" stroke="#d9480f" stroke-width="1" fill="none"></path></g><g transform="translate(898.84375 664.65625) rotate(0 28 -17.5)"><path d="M26.14 -29.49 C33.96 -33.85, 40.79 -32.96, 58.18 -37.68 M27.74 -30.91 C33.47 -31.68, 40.77 -34.08, 57.22 -36.52" stroke="#d9480f" stroke-width="1" fill="none"></path></g></g><g stroke-linecap="round"><g transform="translate(877.84375 678.65625) rotate(0 -23.5 14)"><path d="M0.22 1.19 C-7.64 5.97, -38.66 24.3, -46.57 28.67 M-1.12 0.77 C-9.15 5.21, -39.46 22.29, -47.29 26.9" stroke="#d9480f" stroke-width="1" fill="none"></path></g><g transform="translate(877.84375 678.65625) rotate(0 -23.5 14)"><path d="M-27.66 6.71 C-34.69 12.91, -42.92 20.11, -47.12 26.33 M-29.89 5.84 C-33.09 11.1, -37.34 13.88, -47.18 27.44" stroke="#d9480f" stroke-width="1" fill="none"></path></g><g transform="translate(877.84375 678.65625) rotate(0 -23.5 14)"><path d="M-18.35 22.93 C-28.61 23.51, -40.1 25.05, -47.12 26.33 M-20.57 22.07 C-25.61 23.83, -31.83 23.19, -47.18 27.44" stroke="#d9480f" stroke-width="1" fill="none"></path></g></g><g transform="translate(980.84375 592.65625) rotate(0 27.5 12.5)"><text x="0" y="18" font-family="Virgil, Segoe UI Emoji" font-size="20px" fill="#000000" text-anchor="start" style="white-space: pre;" direction="ltr">x2,y2</text></g><g transform="translate(801.84375 732.65625) rotate(0 19 12.5)"><text x="0" y="18" font-family="Virgil, Segoe UI Emoji" font-size="20px" fill="#000000" text-anchor="start" style="white-space: pre;" direction="ltr">x1,y1</text></g><g transform="translate(909.84375 675.65625) rotate(0 27 12.5)"><text x="0" y="18" font-family="Virgil, Segoe UI Emoji" font-size="20px" fill="#000000" text-anchor="start" style="white-space: pre;" direction="ltr">x0,y0</text></g></svg>