<svg version="1.1" xmlns="http://www.w3.org/2000/svg" viewBox="0 0 10020 688.71875" width="10020" height="688.71875">
  <!-- svg-source:excalidraw -->
  
  <defs>
    <style>
      @font-face {
        font-family: "Virgil";
        src: url("https://excalidraw.com/Virgil.woff2");
      }
      @font-face {
        font-family: "Cascadia";
        src: url("https://excalidraw.com/Cascadia.woff2");
      }
    </style>
  </defs>
  <rect x="0" y="0" width="10020" height="688.71875" fill="#fff0"></rect><g stroke-linecap="round" transform="translate(10 10) rotate(0 5000 0.5)"><path d="M-0.52 -0.26 C3022.65 -30.2, 6044.59 -29.2, 9999.32 0.22 M0.38 -0.31 C3948.03 -0.44, 7895.41 0.2, 9999.95 0.08 M10000.08 -0.06 C10000.09 0.27, 10000.05 0.48, 10000.09 0.92 M9999.97 0.01 C9999.95 0.33, 9999.98 0.72, 10000 0.99 M10000.22 1.51 C7095.77 35.76, 4193.15 34.95, -0.25 0.75 M10000.01 1.13 C7827.97 2.74, 5656.23 3.35, -0.33 0.84 M-0.04 1.01 C0 0.63, -0.06 0.15, 0.05 -0.03 M-0.04 0.95 C-0.04 0.73, -0.03 0.59, -0.05 -0.02" stroke="transparent" stroke-width="1" fill="none"></path></g><g stroke-linecap="round" transform="translate(790 542.71875) rotate(0 30.5 65.5)"><path d="M17.05 7.04 C20.94 1.23, 26.61 -1.52, 31.46 -0.91 C36.31 -0.3, 41.69 4.82, 46.14 10.69 C50.59 16.55, 55.79 24.81, 58.16 34.28 C60.53 43.74, 60.54 56.37, 60.34 67.49 C60.15 78.6, 59.54 91.74, 56.99 100.97 C54.44 110.2, 49.75 117.83, 45.04 122.85 C40.32 127.87, 33.95 131.36, 28.71 131.09 C23.47 130.82, 17.63 126.92, 13.6 121.24 C9.57 115.57, 6.9 106.62, 4.53 97.05 C2.16 87.48, -0.74 74.88, -0.62 63.82 C-0.51 52.76, 2.4 40.17, 5.24 30.7 C8.07 21.23, 14.16 10.93, 16.39 7 C18.63 3.07, 18.26 6.28, 18.66 7.12 M33.53 1.02 C38.03 1.16, 43.83 6.22, 47.91 12.42 C51.99 18.62, 55.91 28.21, 58 38.22 C60.1 48.23, 61.09 61.33, 60.47 72.48 C59.85 83.63, 57.03 96.24, 54.26 105.13 C51.49 114.03, 48.4 121.59, 43.86 125.86 C39.32 130.12, 32.33 131.84, 27 130.72 C21.66 129.6, 15.68 125.48, 11.84 119.11 C7.99 112.75, 6.03 102.7, 3.95 92.53 C1.87 82.36, -0.8 68.84, -0.63 58.08 C-0.47 47.33, 1.96 36.58, 4.95 28.01 C7.94 19.44, 12.75 11.06, 17.32 6.68 C21.88 2.3, 29.5 2.69, 32.35 1.73 C35.2 0.76, 34.05 -0.13, 34.41 0.91" stroke="#000" stroke-width="1" fill="none"></path></g><g stroke-linecap="round" transform="translate(1022 543.71875) rotate(0 28 67.5)"><path d="M40.65 7.24 C44.69 10.97, 48.07 19.82, 50.61 28.81 C53.16 37.79, 55.51 49.78, 55.92 61.14 C56.34 72.49, 55.13 86.76, 53.1 96.94 C51.07 107.11, 47.53 115.75, 43.73 122.19 C39.94 128.62, 35 134.38, 30.34 135.55 C25.67 136.71, 20.11 134.01, 15.76 129.19 C11.42 124.36, 6.81 115.95, 4.28 106.59 C1.75 97.23, 0.78 84.31, 0.58 73.01 C0.39 61.72, 1.25 48.99, 3.1 38.83 C4.96 28.67, 7.9 18.38, 11.7 12.06 C15.5 5.73, 21.14 1.65, 25.91 0.88 C30.69 0.11, 37.93 5.89, 40.36 7.43 C42.78 8.97, 40.59 9.13, 40.48 10.11 M41.68 7.64 C45.86 11.95, 48.76 22.89, 51.05 32.59 C53.35 42.29, 55.36 54.78, 55.46 65.83 C55.56 76.89, 53.83 88.82, 51.64 98.92 C49.46 109.03, 46.21 120.68, 42.35 126.47 C38.49 132.26, 32.9 133.37, 28.47 133.67 C24.04 133.96, 19.97 133.48, 15.76 128.24 C11.55 122.99, 5.59 111.84, 3.21 102.19 C0.84 92.55, 1.44 81.44, 1.49 70.38 C1.55 59.31, 1.68 45.64, 3.56 35.81 C5.44 25.97, 8.94 17.43, 12.79 11.37 C16.63 5.32, 21.8 -0.01, 26.61 -0.51 C31.43 -1.01, 39.04 6.53, 41.67 8.37 C44.3 10.22, 42.45 9.39, 42.4 10.54" stroke="#000" stroke-width="1" fill="none"></path></g><g transform="translate(848 520.71875) rotate(0 7 12.5)"><text x="0" y="18" font-family="Virgil, Segoe UI Emoji" font-size="20px" fill="#000" text-anchor="start" style="white-space: pre;" direction="ltr">A</text></g><g transform="translate(1081 530.71875) rotate(0 8 12.5)"><text x="0" y="18" font-family="Virgil, Segoe UI Emoji" font-size="20px" fill="#000" text-anchor="start" style="white-space: pre;" direction="ltr">B</text></g><g transform="translate(822 566.71875) rotate(0 0.00004999999998744897 0.00005000000000165983)" stroke="none"><path fill="#000" d="M 1.57,-1.57 Q 1.57,-1.57 1.77,-1.27 1.98,-0.98 2.09,-0.64 2.20,-0.29 2.19,0.05 2.18,0.41 2.05,0.75 1.93,1.09 1.70,1.37 1.48,1.65 1.18,1.84 0.87,2.04 0.52,2.12 0.18,2.21 -0.17,2.18 -0.53,2.15 -0.86,2.01 -1.19,1.87 -1.46,1.63 -1.73,1.39 -1.90,1.07 -2.08,0.76 -2.15,0.41 -2.21,0.05 -2.17,-0.29 -2.12,-0.65 -1.96,-0.97 -1.80,-1.29 -1.54,-1.54 -1.29,-1.80 -0.97,-1.96 -0.65,-2.12 -0.29,-2.17 0.06,-2.21 0.41,-2.15 0.76,-2.08 1.07,-1.90 1.39,-1.73 1.63,-1.46 1.87,-1.19 2.01,-0.86 2.15,-0.53 2.18,-0.17 2.21,0.18 2.12,0.52 2.03,0.87 1.84,1.18 1.65,1.48 1.37,1.70 1.09,1.93 0.75,2.05 0.41,2.18 0.05,2.19 -0.30,2.20 -0.64,2.09 -0.98,1.98 -1.27,1.77 -1.57,1.56 -1.57,1.57 -1.57,1.57 -1.73,1.35 -1.90,1.14 -2.01,0.90 -2.12,0.66 -2.16,0.39 -2.21,0.13 -2.20,-0.13 -2.18,-0.40 -2.10,-0.65 -2.02,-0.91 -1.88,-1.14 -1.74,-1.36 -1.55,-1.55 -1.36,-1.74 -1.14,-1.88 -0.91,-2.02 -0.65,-2.10 -0.40,-2.18 -0.13,-2.20 0.13,-2.21 0.39,-2.16 0.66,-2.12 0.90,-2.01 1.14,-1.90 1.35,-1.73 1.57,-1.57 1.57,-1.57 L 1.57,-1.57 Z"></path></g><g transform="translate(813 600.71875) rotate(0 0.00004999999998744897 0.00005000000000165983)" stroke="none"><path fill="#000" d="M 1.57,-1.57 Q 1.57,-1.57 1.77,-1.27 1.98,-0.98 2.09,-0.64 2.20,-0.29 2.19,0.05 2.18,0.41 2.05,0.75 1.93,1.09 1.70,1.37 1.48,1.65 1.18,1.84 0.87,2.04 0.52,2.12 0.18,2.21 -0.17,2.18 -0.53,2.15 -0.86,2.01 -1.19,1.87 -1.46,1.63 -1.73,1.39 -1.90,1.07 -2.08,0.76 -2.15,0.41 -2.21,0.05 -2.17,-0.29 -2.12,-0.65 -1.96,-0.97 -1.80,-1.29 -1.54,-1.54 -1.29,-1.80 -0.97,-1.96 -0.65,-2.12 -0.29,-2.17 0.06,-2.21 0.41,-2.15 0.76,-2.08 1.07,-1.90 1.39,-1.73 1.63,-1.46 1.87,-1.19 2.01,-0.86 2.15,-0.53 2.18,-0.17 2.21,0.18 2.12,0.52 2.03,0.87 1.84,1.18 1.65,1.48 1.37,1.70 1.09,1.93 0.75,2.05 0.41,2.18 0.05,2.19 -0.30,2.20 -0.64,2.09 -0.98,1.98 -1.27,1.77 -1.57,1.56 -1.57,1.57 -1.57,1.57 -1.73,1.35 -1.90,1.14 -2.01,0.90 -2.12,0.66 -2.16,0.39 -2.21,0.13 -2.20,-0.13 -2.18,-0.40 -2.10,-0.65 -2.02,-0.91 -1.88,-1.14 -1.74,-1.36 -1.55,-1.55 -1.36,-1.74 -1.14,-1.88 -0.91,-2.02 -0.65,-2.10 -0.40,-2.18 -0.13,-2.20 0.13,-2.21 0.39,-2.16 0.66,-2.12 0.90,-2.01 1.14,-1.90 1.35,-1.73 1.57,-1.57 1.57,-1.57 L 1.57,-1.57 Z"></path></g><g transform="translate(817 637.71875) rotate(0 0.00004999999998744897 0.00005000000000165983)" stroke="none"><path fill="#000" d="M 1.57,-1.57 Q 1.57,-1.57 1.77,-1.27 1.98,-0.98 2.09,-0.64 2.20,-0.29 2.19,0.05 2.18,0.41 2.05,0.75 1.93,1.09 1.70,1.37 1.48,1.65 1.18,1.84 0.87,2.04 0.52,2.12 0.18,2.21 -0.17,2.18 -0.53,2.15 -0.86,2.01 -1.19,1.87 -1.46,1.63 -1.73,1.39 -1.90,1.07 -2.08,0.76 -2.15,0.41 -2.21,0.05 -2.17,-0.29 -2.12,-0.65 -1.96,-0.97 -1.80,-1.29 -1.54,-1.54 -1.29,-1.80 -0.97,-1.96 -0.65,-2.12 -0.29,-2.17 0.06,-2.21 0.41,-2.15 0.76,-2.08 1.07,-1.90 1.39,-1.73 1.63,-1.46 1.87,-1.19 2.01,-0.86 2.15,-0.53 2.18,-0.17 2.21,0.18 2.12,0.52 2.03,0.87 1.84,1.18 1.65,1.48 1.37,1.70 1.09,1.93 0.75,2.05 0.41,2.18 0.05,2.19 -0.30,2.20 -0.64,2.09 -0.98,1.98 -1.27,1.77 -1.57,1.56 -1.57,1.57 -1.57,1.57 -1.73,1.35 -1.90,1.14 -2.01,0.90 -2.12,0.66 -2.16,0.39 -2.21,0.13 -2.20,-0.13 -2.18,-0.40 -2.10,-0.65 -2.02,-0.91 -1.88,-1.14 -1.74,-1.36 -1.55,-1.55 -1.36,-1.74 -1.14,-1.88 -0.91,-2.02 -0.65,-2.10 -0.40,-2.18 -0.13,-2.20 0.13,-2.21 0.39,-2.16 0.66,-2.12 0.90,-2.01 1.14,-1.90 1.35,-1.73 1.57,-1.57 1.57,-1.57 L 1.57,-1.57 Z"></path></g><g transform="translate(1052 574.71875) rotate(0 0.00004999999998744897 0.00005000000000165983)" stroke="none"><path fill="#000" d="M 1.57,-1.57 Q 1.57,-1.57 1.77,-1.27 1.98,-0.98 2.09,-0.64 2.20,-0.29 2.19,0.05 2.18,0.41 2.05,0.75 1.93,1.09 1.70,1.37 1.48,1.65 1.18,1.84 0.87,2.04 0.52,2.12 0.18,2.21 -0.17,2.18 -0.53,2.15 -0.86,2.01 -1.19,1.87 -1.46,1.63 -1.73,1.39 -1.90,1.07 -2.08,0.76 -2.15,0.41 -2.21,0.05 -2.17,-0.29 -2.12,-0.65 -1.96,-0.97 -1.80,-1.29 -1.54,-1.54 -1.29,-1.80 -0.97,-1.96 -0.65,-2.12 -0.29,-2.17 0.06,-2.21 0.41,-2.15 0.76,-2.08 1.07,-1.90 1.39,-1.73 1.63,-1.46 1.87,-1.19 2.01,-0.86 2.15,-0.53 2.18,-0.17 2.21,0.18 2.12,0.52 2.03,0.87 1.84,1.18 1.65,1.48 1.37,1.70 1.09,1.93 0.75,2.05 0.41,2.18 0.05,2.19 -0.30,2.20 -0.64,2.09 -0.98,1.98 -1.27,1.77 -1.57,1.56 -1.57,1.57 -1.57,1.57 -1.73,1.35 -1.90,1.14 -2.01,0.90 -2.12,0.66 -2.16,0.39 -2.21,0.13 -2.20,-0.13 -2.18,-0.40 -2.10,-0.65 -2.02,-0.91 -1.88,-1.14 -1.74,-1.36 -1.55,-1.55 -1.36,-1.74 -1.14,-1.88 -0.91,-2.02 -0.65,-2.10 -0.40,-2.18 -0.13,-2.20 0.13,-2.21 0.39,-2.16 0.66,-2.12 0.90,-2.01 1.14,-1.90 1.35,-1.73 1.57,-1.57 1.57,-1.57 L 1.57,-1.57 Z"></path></g><g transform="translate(1049 637.71875) rotate(0 0.00004999999998744897 0.00005000000000165983)" stroke="none"><path fill="#000" d="M 1.57,-1.57 Q 1.57,-1.57 1.77,-1.27 1.98,-0.98 2.09,-0.64 2.20,-0.29 2.19,0.05 2.18,0.41 2.05,0.75 1.93,1.09 1.70,1.37 1.48,1.65 1.18,1.84 0.87,2.04 0.52,2.12 0.18,2.21 -0.17,2.18 -0.53,2.15 -0.86,2.01 -1.19,1.87 -1.46,1.63 -1.73,1.39 -1.90,1.07 -2.08,0.76 -2.15,0.41 -2.21,0.05 -2.17,-0.29 -2.12,-0.65 -1.96,-0.97 -1.80,-1.29 -1.54,-1.54 -1.29,-1.80 -0.97,-1.96 -0.65,-2.12 -0.29,-2.17 0.06,-2.21 0.41,-2.15 0.76,-2.08 1.07,-1.90 1.39,-1.73 1.63,-1.46 1.87,-1.19 2.01,-0.86 2.15,-0.53 2.18,-0.17 2.21,0.18 2.12,0.52 2.03,0.87 1.84,1.18 1.65,1.48 1.37,1.70 1.09,1.93 0.75,2.05 0.41,2.18 0.05,2.19 -0.30,2.20 -0.64,2.09 -0.98,1.98 -1.27,1.77 -1.57,1.56 -1.57,1.57 -1.57,1.57 -1.73,1.35 -1.90,1.14 -2.01,0.90 -2.12,0.66 -2.16,0.39 -2.21,0.13 -2.20,-0.13 -2.18,-0.40 -2.10,-0.65 -2.02,-0.91 -1.88,-1.14 -1.74,-1.36 -1.55,-1.55 -1.36,-1.74 -1.14,-1.88 -0.91,-2.02 -0.65,-2.10 -0.40,-2.18 -0.13,-2.20 0.13,-2.21 0.39,-2.16 0.66,-2.12 0.90,-2.01 1.14,-1.90 1.35,-1.73 1.57,-1.57 1.57,-1.57 L 1.57,-1.57 Z"></path></g><g stroke-linecap="round"><g transform="translate(836 564.71875) rotate(0 101.5 4)"><path d="M0.01 0.52 C33.58 1.56, 168.3 5.84, 202.26 7.07 M-1.44 -0.25 C32.43 0.84, 170.45 6.54, 204.58 8.12" stroke="#d9480f" stroke-width="1" fill="none"></path></g><g transform="translate(836 564.71875) rotate(0 101.5 4)"><path d="M176.84 15.92 C185.09 15.01, 197.26 11.37, 204.97 9.75 M175.73 17.61 C182.12 14.85, 188.14 13.44, 205.56 7.91" stroke="#d9480f" stroke-width="1" fill="none"></path></g><g transform="translate(836 564.71875) rotate(0 101.5 4)"><path d="M177.73 -4.58 C185.79 2.2, 197.63 6.24, 204.97 9.75 M176.62 -2.89 C182.92 -1.13, 188.74 1.97, 205.56 7.91" stroke="#d9480f" stroke-width="1" fill="none"></path></g></g><g stroke-linecap="round"><g transform="translate(830 599.71875) rotate(0 107 -7.5)"><path d="M0.98 -0.37 C36.74 -2.64, 179.48 -11.79, 214.86 -14.24 M0.04 -1.61 C35.68 -4.17, 178.42 -13.93, 214.36 -15.96" stroke="#d9480f" stroke-width="1" fill="none"></path></g><g transform="translate(830 599.71875) rotate(0 107 -7.5)"><path d="M186.25 -2.51 C197.15 -9.4, 204.68 -11.87, 216.31 -17.65 M186.59 -4.5 C193.26 -6.14, 197.32 -9.7, 213.84 -16.04" stroke="#d9480f" stroke-width="1" fill="none"></path></g><g transform="translate(830 599.71875) rotate(0 107 -7.5)"><path d="M184.95 -22.99 C196.17 -23.22, 204.12 -19.02, 216.31 -17.65 M185.29 -24.98 C192.38 -22.32, 196.71 -21.59, 213.84 -16.04" stroke="#d9480f" stroke-width="1" fill="none"></path></g></g><g stroke-linecap="round"><g transform="translate(837 632.71875) rotate(0 101 1.5)"><path d="M0.13 0.19 C33.65 0.76, 167.01 3.63, 200.85 3.92 M-1.27 -0.76 C32.64 -0.55, 168.91 1.7, 202.95 2.28" stroke="#d9480f" stroke-width="1" fill="none"></path></g><g transform="translate(837 632.71875) rotate(0 101 1.5)"><path d="M174.91 10.15 C183.88 11.24, 188.39 6.91, 200.98 1.74 M175.27 11.87 C181.5 9.28, 186.03 8.07, 202.74 2.93" stroke="#d9480f" stroke-width="1" fill="none"></path></g><g transform="translate(837 632.71875) rotate(0 101 1.5)"><path d="M175.25 -10.37 C184.21 -3.64, 188.63 -2.34, 200.98 1.74 M175.62 -8.65 C181.91 -6.91, 186.37 -3.81, 202.74 2.93" stroke="#d9480f" stroke-width="1" fill="none"></path></g></g><g stroke-linecap="round"><g transform="translate(820 624.71875) rotate(0 115 -20.5)"><path d="M-0.07 -0.13 C38.13 -6.84, 190.89 -33.23, 229.14 -39.9 M-1.57 -1.24 C37.02 -8.3, 193.08 -34.64, 231.4 -41.45" stroke="#d9480f" stroke-width="1" fill="none"></path></g><g transform="translate(820 624.71875) rotate(0 115 -20.5)"><path d="M205.15 -27.98 C214.72 -31.84, 221.83 -34.34, 231.55 -39.48 M205.6 -27.17 C211.12 -30.91, 218.46 -33.26, 232.32 -42.06" stroke="#d9480f" stroke-width="1" fill="none"></path></g><g transform="translate(820 624.71875) rotate(0 115 -20.5)"><path d="M201.66 -48.2 C212.3 -46.17, 220.44 -42.8, 231.55 -39.48 M202.11 -47.4 C208.57 -45.9, 216.81 -43.03, 232.32 -42.06" stroke="#d9480f" stroke-width="1" fill="none"></path></g></g></svg>