<svg version="1.1" xmlns="http://www.w3.org/2000/svg" viewBox="0 0 10020 810" width="10020" height="810">
  <!-- svg-source:excalidraw -->
  
  <defs>
    <style>
      @font-face {
        font-family: "Virgil";
        src: url("https://excalidraw.com/Virgil.woff2");
      }
      @font-face {
        font-family: "Cascadia";
        src: url("https://excalidraw.com/Cascadia.woff2");
      }
    </style>
  </defs>
  <rect x="0" y="0" width="10020" height="810" fill="#fff0"></rect><g stroke-linecap="round" transform="translate(10 10) rotate(0 5000 0.5)"><path d="M-0.52 -0.26 C3022.65 -30.2, 6044.59 -29.2, 9999.32 0.22 M0.38 -0.31 C3948.03 -0.44, 7895.41 0.2, 9999.95 0.08 M10000.08 -0.06 C10000.09 0.27, 10000.05 0.48, 10000.09 0.92 M9999.97 0.01 C9999.95 0.33, 9999.98 0.72, 10000 0.99 M10000.22 1.51 C7095.77 35.76, 4193.15 34.95, -0.25 0.75 M10000.01 1.13 C7827.97 2.74, 5656.23 3.35, -0.33 0.84 M-0.04 1.01 C0 0.63, -0.06 0.15, 0.05 -0.03 M-0.04 0.95 C-0.04 0.73, -0.03 0.59, -0.05 -0.02" stroke="transparent" stroke-width="1" fill="none"></path></g><g stroke-linecap="round"><g transform="translate(571.1400675024837 730.1668328855187) rotate(0 -0.5700337512418621 -50.08341644275933)"><path d="M-1.14 -0.2 C-1.28 -17.06, -0.11 -83.78, -0.3 -100.33 M0.46 -1.35 C0.18 -18.1, -0.73 -82.19, -0.81 -98.88" stroke="#000000" stroke-width="1" fill="none"></path></g><g transform="translate(571.1400675024837 730.1668328855187) rotate(0 -0.5700337512418621 -50.08341644275933)"><path d="M9.41 -69.41 C5.6 -82.62, 3.29 -89.88, 0.91 -98.4 M9.8 -71.56 C5.28 -80.99, 1.68 -91.95, -1.57 -98.25" stroke="#000000" stroke-width="1" fill="none"></path></g><g transform="translate(571.1400675024837 730.1668328855187) rotate(0 -0.5700337512418621 -50.08341644275933)"><path d="M-11.11 -69.2 C-7.81 -82.29, -3 -89.62, 0.91 -98.4 M-10.72 -71.35 C-7.64 -80.73, -3.64 -91.77, -1.57 -98.25" stroke="#000000" stroke-width="1" fill="none"></path></g></g><g stroke-linecap="round"><g transform="translate(550.9321241072007 711.016975047937) rotate(0 59.533937946399675 -0.5084875239685118)"><path d="M0.35 -0.75 C20.15 -1.21, 99.45 -1.94, 119.15 -1.93 M-0.93 1.48 C18.7 1.06, 98.51 -0.76, 118.24 -0.87" stroke="#000000" stroke-width="1" fill="none"></path></g><g transform="translate(550.9321241072007 711.016975047937) rotate(0 59.533937946399675 -0.5084875239685118)"><path d="M88.97 9.95 C97.7 5.34, 108.86 2.49, 117.7 -2.39 M90.43 10.55 C101.34 6.56, 110.42 1.21, 118.46 -0.44" stroke="#000000" stroke-width="1" fill="none"></path></g><g transform="translate(550.9321241072007 711.016975047937) rotate(0 59.533937946399675 -0.5084875239685118)"><path d="M88.65 -10.56 C97.62 -8.53, 108.9 -4.73, 117.7 -2.39 M90.11 -9.97 C101.13 -6.5, 110.33 -4.39, 118.46 -0.44" stroke="#000000" stroke-width="1" fill="none"></path></g></g><g transform="translate(670 592) rotate(0 4 0)" stroke="none"><path fill="#000000" d="M -0.63,-2.55 Q -0.63,-2.55 0.49,-2.85 1.63,-3.15 3.61,-3.54 5.59,-3.93 6.88,-3.73 8.17,-3.52 7.98,-3.47 7.78,-3.41 8.14,-3.36 8.49,-3.30 8.83,-3.16 9.16,-3.02 9.44,-2.80 9.73,-2.59 9.96,-2.31 10.19,-2.03 10.34,-1.71 10.50,-1.38 10.57,-1.03 10.64,-0.68 10.63,-0.32 10.61,0.03 10.51,0.38 10.41,0.72 10.23,1.04 10.05,1.35 9.81,1.61 9.56,1.87 9.25,2.06 8.95,2.25 8.61,2.37 8.27,2.48 7.91,2.51 7.55,2.54 6.32,3.26 5.10,3.99 3.56,4.07 2.02,4.15 1.63,4.12 1.25,4.08 0.89,3.96 0.53,3.84 0.21,3.63 -0.10,3.42 -0.37,3.14 -0.63,2.87 -0.82,2.53 -1.01,2.20 -1.11,1.83 -1.22,1.47 -1.23,1.08 -1.24,0.70 -1.16,0.33 -1.08,-0.04 -0.92,-0.38 -0.75,-0.72 -0.51,-1.02 -0.26,-1.31 0.03,-1.54 0.34,-1.77 0.69,-1.92 1.05,-2.06 1.42,-2.12 1.80,-2.18 3.25,-1.83 4.69,-1.47 5.97,-0.68 7.25,0.11 7.41,0.47 7.57,0.83 7.65,1.21 7.72,1.60 7.70,1.99 7.68,2.39 7.56,2.76 7.45,3.14 7.24,3.48 7.04,3.82 6.77,4.10 6.49,4.38 6.15,4.58 5.82,4.79 5.44,4.91 5.06,5.03 4.67,5.05 4.28,5.08 3.89,5.01 3.50,4.94 3.14,4.78 2.78,4.62 2.47,4.38 2.16,4.14 1.92,3.83 1.67,3.52 3.50,4.24 5.33,4.96 2.62,4.29 -0.07,3.62 -0.47,3.30 -0.88,2.98 -1.16,2.54 -1.44,2.11 -1.57,1.60 -1.69,1.10 -1.65,0.59 -1.61,0.07 -1.41,-0.40 -1.21,-0.87 -0.86,-1.26 -0.52,-1.65 -0.07,-1.90 0.37,-2.16 0.88,-2.26 1.39,-2.36 1.90,-2.29 2.42,-2.22 2.88,-1.99 3.35,-1.77 3.71,-1.40 4.08,-1.04 4.31,-0.57 4.54,-0.11 4.62,0.39 4.69,0.91 4.59,1.42 4.50,1.92 4.24,2.38 3.99,2.83 3.60,3.18 3.22,3.52 2.74,3.73 2.27,3.94 1.75,3.98 1.24,4.02 0.73,3.90 0.23,3.78 -0.20,3.50 -0.63,3.22 -0.96,2.82 -1.29,2.42 -1.47,1.93 -1.65,1.44 -1.66,0.93 -1.68,0.41 -1.53,-0.08 -1.38,-0.57 -1.08,-0.99 -0.78,-1.42 -0.36,-1.72 0.05,-2.02 0.55,-2.18 1.04,-2.33 1.56,-2.32 2.08,-2.31 2.57,-2.13 3.05,-1.95 3.05,-1.95 3.05,-1.95 3.05,-1.53 3.06,-1.12 5.15,-0.50 7.25,0.11 7.41,0.47 7.57,0.83 7.65,1.21 7.72,1.60 7.70,1.99 7.68,2.39 7.56,2.76 7.45,3.14 7.24,3.48 7.04,3.82 6.77,4.10 6.49,4.38 6.15,4.58 5.82,4.79 5.44,4.91 5.07,5.03 4.67,5.05 4.28,5.08 3.89,5.01 3.50,4.94 3.14,4.78 2.78,4.62 2.47,4.38 2.16,4.14 1.92,3.83 1.67,3.52 1.84,3.83 2.02,4.15 1.63,4.12 1.25,4.08 0.89,3.96 0.53,3.84 0.21,3.63 -0.10,3.42 -0.37,3.14 -0.63,2.87 -0.82,2.54 -1.01,2.20 -1.11,1.83 -1.22,1.47 -1.23,1.08 -1.24,0.70 -1.16,0.33 -1.08,-0.04 -0.92,-0.38 -0.75,-0.72 -0.51,-1.02 -0.26,-1.31 0.03,-1.54 0.34,-1.77 0.69,-1.92 1.05,-2.06 1.42,-2.12 1.80,-2.18 2.42,-2.18 3.04,-2.17 4.35,-2.42 5.65,-2.67 6.72,-3.04 7.78,-3.41 8.14,-3.36 8.49,-3.30 8.83,-3.16 9.16,-3.02 9.44,-2.80 9.73,-2.59 9.96,-2.31 10.19,-2.03 10.34,-1.71 10.50,-1.38 10.57,-1.03 10.64,-0.68 10.63,-0.32 10.61,0.03 10.51,0.38 10.41,0.72 10.23,1.04 10.05,1.35 9.81,1.61 9.56,1.87 9.25,2.06 8.95,2.25 8.61,2.37 8.27,2.48 7.91,2.51 7.55,2.54 6.74,2.16 5.93,1.79 4.45,1.90 2.96,2.00 1.80,2.28 0.63,2.55 0.32,2.59 0.00,2.63 -0.30,2.59 -0.62,2.56 -0.92,2.45 -1.21,2.33 -1.47,2.15 -1.74,1.97 -1.95,1.74 -2.16,1.50 -2.31,1.22 -2.46,0.94 -2.53,0.63 -2.61,0.32 -2.61,0.00 -2.61,-0.30 -2.54,-0.61 -2.46,-0.92 -2.32,-1.20 -2.17,-1.49 -1.96,-1.72 -1.75,-1.96 -1.49,-2.14 -1.23,-2.33 -0.93,-2.44 -0.63,-2.55 -0.63,-2.55 L -0.63,-2.55 Z"></path></g><g transform="translate(530 750) rotate(0 106.5 25)"><text x="0" y="18" font-family="Virgil, Segoe UI Emoji" font-size="20px" fill="#d9480f" text-anchor="start" style="white-space: pre;" direction="ltr">Sistema di riferimento</text><text x="0" y="43" font-family="Virgil, Segoe UI Emoji" font-size="20px" fill="#d9480f" text-anchor="start" style="white-space: pre;" direction="ltr">ascissa/ordinata</text></g><g transform="translate(629 554.71875) rotate(0 28.5 12.5)"><text x="0" y="18" font-family="Virgil, Segoe UI Emoji" font-size="20px" fill="#d9480f" text-anchor="start" style="white-space: pre;" direction="ltr">Punto</text></g><g transform="translate(670 730) rotate(0 2.5 12.5)"><text x="0" y="18" font-family="Virgil, Segoe UI Emoji" font-size="20px" fill="#1864ab" text-anchor="start" style="white-space: pre;" direction="ltr">i</text></g><g transform="translate(530 610) rotate(0 4 12.5)"><text x="0" y="18" font-family="Virgil, Segoe UI Emoji" font-size="20px" fill="#1864ab" text-anchor="start" style="white-space: pre;" direction="ltr">j</text></g><g stroke-linecap="round"><g transform="translate(530 610) rotate(0 10 0)"><path d="M-1.11 0.26 C2.1 0.57, 16 1.11, 19.54 1.09 M0.51 -0.65 C3.5 -0.59, 15.19 -0.82, 18.35 -0.46" stroke="#1864ab" stroke-width="1" fill="none"></path></g><g transform="translate(530 610) rotate(0 10 0)"><path d="M9.05 2.2 C12.82 1.82, 15.09 0.59, 18.77 -0.48 M8.63 2.52 C12.16 2.02, 14.07 0.54, 17.86 -0.84" stroke="#1864ab" stroke-width="1" fill="none"></path></g><g transform="translate(530 610) rotate(0 10 0)"><path d="M9.32 -4.64 C12.96 -2.81, 15.14 -1.84, 18.77 -0.48 M8.9 -4.32 C12.31 -2.77, 14.13 -2.2, 17.86 -0.84" stroke="#1864ab" stroke-width="1" fill="none"></path></g></g><g stroke-linecap="round"><g transform="translate(670 730) rotate(0 10 0)"><path d="M-0.72 0.86 C2.45 1.08, 16.3 0.82, 19.73 0.66 M1.11 0.27 C4.03 0.19, 15.65 -1.26, 18.65 -1.11" stroke="#1864ab" stroke-width="1" fill="none"></path></g><g transform="translate(670 730) rotate(0 10 0)"><path d="M10.14 2.53 C13.31 1.34, 15.98 -0.35, 17.7 -1.95 M9.41 2.78 C11.68 1.91, 13.53 0.99, 18.93 -1.04" stroke="#1864ab" stroke-width="1" fill="none"></path></g><g transform="translate(670 730) rotate(0 10 0)"><path d="M9.82 -4.3 C13.06 -3.04, 15.85 -2.28, 17.7 -1.95 M9.08 -4.05 C11.38 -3.45, 13.29 -2.91, 18.93 -1.04" stroke="#1864ab" stroke-width="1" fill="none"></path></g></g><g stroke-linecap="round"><g transform="translate(570 710) rotate(0 52 -59.640625)"><path d="M-1.14 -1 C16.04 -20.95, 85.28 -100.43, 102.98 -120.15 M0.47 1.09 C18.02 -18.69, 87.75 -99.21, 105.15 -119.06" stroke="#1864ab" stroke-width="1" fill="none"></path></g><g transform="translate(570 710) rotate(0 52 -59.640625)"><path d="M92.71 -92.77 C96.18 -97.35, 100.71 -107.17, 106.15 -118.78 M94.51 -91.22 C98.74 -100.89, 101.73 -109.4, 105.71 -119.04" stroke="#1864ab" stroke-width="1" fill="none"></path></g><g transform="translate(570 710) rotate(0 52 -59.640625)"><path d="M77.23 -106.25 C85.16 -106.76, 94.2 -112.65, 106.15 -118.78 M79.04 -104.7 C88.25 -110.1, 96.24 -114.26, 105.71 -119.04" stroke="#1864ab" stroke-width="1" fill="none"></path></g></g><g transform="translate(658 641.71875) rotate(0 103.5 12.5)"><text x="0" y="18" font-family="Virgil, Segoe UI Emoji" font-size="20px" fill="#1864ab" text-anchor="start" style="white-space: pre;" direction="ltr">P = (p - o) = xi + yj</text></g><g transform="translate(547 719.71875) rotate(0 6 12.5)"><text x="0" y="18" font-family="Virgil, Segoe UI Emoji" font-size="20px" fill="#1864ab" text-anchor="start" style="white-space: pre;" direction="ltr">o</text></g><g stroke-linecap="round"><g transform="translate(655.3776814217156 637) rotate(0 9.840586443059152 0.2017365003935936)"><path d="M0.68 0.9 C3.79 1.02, 16.32 1.6, 19.52 1.59 M-0.42 0.32 C2.44 0.07, 15.21 0.36, 18.49 0.09" stroke="#1864ab" stroke-width="1" fill="none"></path></g><g transform="translate(655.3776814217156 637) rotate(0 9.840586443059152 0.2017365003935936)"><path d="M10.06 3.55 C13.69 2.46, 16.46 1.57, 18.9 0.67 M9.34 3.83 C12.82 2.89, 16.17 1.13, 18.1 -0.28" stroke="#1864ab" stroke-width="1" fill="none"></path></g><g transform="translate(655.3776814217156 637) rotate(0 9.840586443059152 0.2017365003935936)"><path d="M9.89 -3.18 C13.63 -1.76, 16.46 -0.14, 18.9 0.67 M9.17 -2.9 C12.66 -1.49, 16.07 -0.89, 18.1 -0.28" stroke="#1864ab" stroke-width="1" fill="none"></path></g></g><g stroke-linecap="round"><g transform="translate(802.5668061298318 641.7986931118182) rotate(0 10 0)"><path d="M0.59 -0.49 C3.76 -0.65, 15.83 -1.2, 19.18 -1.14 M-0.57 -1.8 C2.98 -1.83, 17.99 -0.68, 21.46 -0.21" stroke="#1864ab" stroke-width="1" fill="none"></path></g><g transform="translate(802.5668061298318 641.7986931118182) rotate(0 10 0)"><path d="M11.36 1.58 C13.83 2.03, 17.64 1.52, 21.44 -0.04 M11.95 1.95 C13.54 1.56, 15.9 0.62, 21.08 -0.42" stroke="#1864ab" stroke-width="1" fill="none"></path></g><g transform="translate(802.5668061298318 641.7986931118182) rotate(0 10 0)"><path d="M12.04 -5.22 C14.29 -2.67, 17.89 -1.06, 21.44 -0.04 M12.63 -4.86 C14.06 -3.67, 16.26 -3.03, 21.08 -0.42" stroke="#1864ab" stroke-width="1" fill="none"></path></g></g><g stroke-linecap="round"><g transform="translate(856 642.71875) rotate(0 8.5 0)"><path d="M-0.47 0.38 C2.43 0.16, 15.32 -1.08, 18.19 -0.95 M1.49 -0.47 C4.26 -0.6, 15.47 0.1, 17.86 0.09" stroke="#1864ab" stroke-width="1" fill="none"></path></g><g transform="translate(856 642.71875) rotate(0 8.5 0)"><path d="M10.04 3.56 C12.08 1.59, 16.57 0.24, 17.93 0.9 M9.87 2.34 C11.92 2.17, 13.18 1.1, 18 0.01" stroke="#1864ab" stroke-width="1" fill="none"></path></g><g transform="translate(856 642.71875) rotate(0 8.5 0)"><path d="M10.25 -2.25 C12.22 -2.08, 16.64 -1.29, 17.93 0.9 M10.08 -3.47 C12.11 -2.33, 13.32 -2.09, 18 0.01" stroke="#1864ab" stroke-width="1" fill="none"></path></g></g><g stroke-linecap="round"><g transform="translate(927.6400675024837 715.5262078855187) rotate(0 -0.5700337512418514 -50.08341644275933)"><path d="M-0.68 -1.16 C-0.97 -17.84, -1.08 -84.2, -1.29 -100.83 M1.16 0.85 C0.67 -15.62, -2.22 -82.83, -2.31 -99.64" stroke="#000000" stroke-width="1" fill="none"></path></g><g transform="translate(927.6400675024837 715.5262078855187) rotate(0 -0.5700337512418514 -50.08341644275933)"><path d="M6.77 -71.98 C4.08 -82.42, 0.25 -88.59, -4.25 -98.21 M9.04 -72.71 C4.93 -79.84, 1.92 -88.89, -1.36 -99.1" stroke="#000000" stroke-width="1" fill="none"></path></g><g transform="translate(927.6400675024837 715.5262078855187) rotate(0 -0.5700337512418514 -50.08341644275933)"><path d="M-13.74 -71.43 C-9.55 -81.94, -6.51 -88.29, -4.25 -98.21 M-11.47 -72.16 C-9.51 -79.45, -6.45 -88.66, -1.36 -99.1" stroke="#000000" stroke-width="1" fill="none"></path></g></g><g stroke-linecap="round"><g transform="translate(907.4321241072007 696.376350047937) rotate(0 59.533937946399675 -0.5084875239685118)"><path d="M-1.16 -0.15 C18.7 -0.33, 98.49 -1.83, 118.41 -1.78 M0.43 -1.27 C20.75 -1.26, 100.7 -0.59, 120.77 -0.64" stroke="#000000" stroke-width="1" fill="none"></path></g><g transform="translate(907.4321241072007 696.376350047937) rotate(0 59.533937946399675 -0.5084875239685118)"><path d="M92.3 8.42 C98.03 6.14, 107.92 3.03, 122.2 -0.72 M91.57 9.08 C101.87 5.94, 110.24 3.78, 121.31 -0.26" stroke="#000000" stroke-width="1" fill="none"></path></g><g transform="translate(907.4321241072007 696.376350047937) rotate(0 59.533937946399675 -0.5084875239685118)"><path d="M92.37 -12.11 C97.97 -9.51, 107.84 -7.75, 122.2 -0.72 M91.64 -11.44 C101.91 -7.93, 110.26 -3.42, 121.31 -0.26" stroke="#000000" stroke-width="1" fill="none"></path></g></g><g transform="translate(1026.5 577.359375) rotate(0 4 0)" stroke="none"><path fill="#000000" d="M -0.63,-2.55 Q -0.63,-2.55 0.49,-2.85 1.63,-3.15 3.61,-3.54 5.59,-3.93 6.88,-3.73 8.17,-3.52 7.98,-3.47 7.78,-3.41 8.14,-3.36 8.49,-3.30 8.83,-3.16 9.16,-3.02 9.44,-2.80 9.73,-2.59 9.96,-2.31 10.19,-2.03 10.34,-1.71 10.50,-1.38 10.57,-1.03 10.64,-0.68 10.63,-0.32 10.61,0.03 10.51,0.38 10.41,0.72 10.23,1.04 10.05,1.35 9.81,1.61 9.56,1.87 9.25,2.06 8.95,2.25 8.61,2.37 8.27,2.48 7.91,2.51 7.55,2.54 6.32,3.26 5.10,3.99 3.56,4.07 2.02,4.15 1.63,4.12 1.25,4.08 0.89,3.96 0.53,3.84 0.21,3.63 -0.10,3.42 -0.37,3.14 -0.63,2.87 -0.82,2.53 -1.01,2.20 -1.11,1.83 -1.22,1.47 -1.23,1.08 -1.24,0.70 -1.16,0.33 -1.08,-0.04 -0.92,-0.38 -0.75,-0.72 -0.51,-1.02 -0.26,-1.31 0.03,-1.54 0.34,-1.77 0.69,-1.92 1.05,-2.06 1.42,-2.12 1.80,-2.18 3.25,-1.83 4.69,-1.47 5.97,-0.68 7.25,0.11 7.41,0.47 7.57,0.83 7.65,1.21 7.72,1.60 7.70,1.99 7.68,2.39 7.56,2.76 7.45,3.14 7.24,3.48 7.04,3.82 6.77,4.10 6.49,4.38 6.15,4.58 5.82,4.79 5.44,4.91 5.06,5.03 4.67,5.05 4.28,5.08 3.89,5.01 3.50,4.94 3.14,4.78 2.78,4.62 2.47,4.38 2.16,4.14 1.92,3.83 1.67,3.52 3.50,4.24 5.33,4.96 2.62,4.29 -0.07,3.62 -0.47,3.30 -0.88,2.98 -1.16,2.54 -1.44,2.11 -1.57,1.60 -1.69,1.10 -1.65,0.59 -1.61,0.07 -1.41,-0.40 -1.21,-0.87 -0.86,-1.26 -0.52,-1.65 -0.07,-1.90 0.37,-2.16 0.88,-2.26 1.39,-2.36 1.90,-2.29 2.42,-2.22 2.88,-1.99 3.35,-1.77 3.71,-1.40 4.08,-1.04 4.31,-0.57 4.54,-0.11 4.62,0.39 4.69,0.91 4.59,1.42 4.50,1.92 4.24,2.38 3.99,2.83 3.60,3.18 3.22,3.52 2.74,3.73 2.27,3.94 1.75,3.98 1.24,4.02 0.73,3.90 0.23,3.78 -0.20,3.50 -0.63,3.22 -0.96,2.82 -1.29,2.42 -1.47,1.93 -1.65,1.44 -1.66,0.93 -1.68,0.41 -1.53,-0.08 -1.38,-0.57 -1.08,-0.99 -0.78,-1.42 -0.36,-1.72 0.05,-2.02 0.55,-2.18 1.04,-2.33 1.56,-2.32 2.08,-2.31 2.57,-2.13 3.05,-1.95 3.05,-1.95 3.05,-1.95 3.05,-1.53 3.06,-1.12 5.15,-0.50 7.25,0.11 7.41,0.47 7.57,0.83 7.65,1.21 7.72,1.60 7.70,1.99 7.68,2.39 7.56,2.76 7.45,3.14 7.24,3.48 7.04,3.82 6.77,4.10 6.49,4.38 6.15,4.58 5.82,4.79 5.44,4.91 5.07,5.03 4.67,5.05 4.28,5.08 3.89,5.01 3.50,4.94 3.14,4.78 2.78,4.62 2.47,4.38 2.16,4.14 1.92,3.83 1.67,3.52 1.84,3.83 2.02,4.15 1.63,4.12 1.25,4.08 0.89,3.96 0.53,3.84 0.21,3.63 -0.10,3.42 -0.37,3.14 -0.63,2.87 -0.82,2.54 -1.01,2.20 -1.11,1.83 -1.22,1.47 -1.23,1.08 -1.24,0.70 -1.16,0.33 -1.08,-0.04 -0.92,-0.38 -0.75,-0.72 -0.51,-1.02 -0.26,-1.31 0.03,-1.54 0.34,-1.77 0.69,-1.92 1.05,-2.06 1.42,-2.12 1.80,-2.18 2.42,-2.18 3.04,-2.17 4.35,-2.42 5.65,-2.67 6.72,-3.04 7.78,-3.41 8.14,-3.36 8.49,-3.30 8.83,-3.16 9.16,-3.02 9.44,-2.80 9.73,-2.59 9.96,-2.31 10.19,-2.03 10.34,-1.71 10.50,-1.38 10.57,-1.03 10.64,-0.68 10.63,-0.32 10.61,0.03 10.51,0.38 10.41,0.72 10.23,1.04 10.05,1.35 9.81,1.61 9.56,1.87 9.25,2.06 8.95,2.25 8.61,2.37 8.27,2.48 7.91,2.51 7.55,2.54 6.74,2.16 5.93,1.79 4.45,1.90 2.96,2.00 1.80,2.28 0.63,2.55 0.32,2.59 0.00,2.63 -0.30,2.59 -0.62,2.56 -0.92,2.45 -1.21,2.33 -1.47,2.15 -1.74,1.97 -1.95,1.74 -2.16,1.50 -2.31,1.22 -2.46,0.94 -2.53,0.63 -2.61,0.32 -2.61,0.00 -2.61,-0.30 -2.54,-0.61 -2.46,-0.92 -2.32,-1.20 -2.17,-1.49 -1.96,-1.72 -1.75,-1.96 -1.49,-2.14 -1.23,-2.33 -0.93,-2.44 -0.63,-2.55 -0.63,-2.55 L -0.63,-2.55 Z"></path></g><g transform="translate(886.5 735.359375) rotate(0 106.5 25)"><text x="0" y="18" font-family="Virgil, Segoe UI Emoji" font-size="20px" fill="#d9480f" text-anchor="start" style="white-space: pre;" direction="ltr">Sistema di riferimento</text><text x="0" y="43" font-family="Virgil, Segoe UI Emoji" font-size="20px" fill="#d9480f" text-anchor="start" style="white-space: pre;" direction="ltr">complesso</text></g><g transform="translate(1034.5 545.078125) rotate(0 28.5 12.5)"><text x="0" y="18" font-family="Virgil, Segoe UI Emoji" font-size="20px" fill="#d9480f" text-anchor="start" style="white-space: pre;" direction="ltr">Punto</text></g><g transform="translate(1026.5 715.359375) rotate(0 13 12.5)"><text x="0" y="18" font-family="Virgil, Segoe UI Emoji" font-size="20px" fill="#1864ab" text-anchor="start" style="white-space: pre;" direction="ltr">Re</text></g><g transform="translate(886.5 595.359375) rotate(0 12.5 12.5)"><text x="0" y="18" font-family="Virgil, Segoe UI Emoji" font-size="20px" fill="#1864ab" text-anchor="start" style="white-space: pre;" direction="ltr">Im</text></g><g stroke-linecap="round"><g transform="translate(924.1947922011008 698.3401291125215) rotate(0 54.00990325760091 -60.29769601015402)"><path d="M-0.05 0.29 C18.14 -19.88, 90.17 -99.95, 107.99 -120.18 M-1.53 -0.6 C16.6 -21.22, 88.58 -102.18, 107.02 -122.09" stroke="#1864ab" stroke-width="1" fill="none"></path></g><g transform="translate(924.1947922011008 698.3401291125215) rotate(0 54.00990325760091 -60.29769601015402)"><path d="M96.21 -94.36 C98.5 -101.89, 99.23 -105.27, 106.64 -123.35 M95.05 -94.65 C100.13 -105.29, 104.29 -117.18, 107.88 -121.66" stroke="#1864ab" stroke-width="1" fill="none"></path></g><g transform="translate(924.1947922011008 698.3401291125215) rotate(0 54.00990325760091 -60.29769601015402)"><path d="M80.99 -108.12 C86.47 -112.85, 90.3 -113.43, 106.64 -123.35 M79.83 -108.41 C90.99 -113.67, 101.16 -120.13, 107.88 -121.66" stroke="#1864ab" stroke-width="1" fill="none"></path></g></g><g transform="translate(1001.5 629.078125) rotate(0 91 12.5)"><text x="0" y="18" font-family="Virgil, Segoe UI Emoji" font-size="20px" fill="#1864ab" text-anchor="start" style="white-space: pre;" direction="ltr">P = x + yi = re^iθ</text></g><g transform="translate(903.5 705.078125) rotate(0 6 12.5)"><text x="0" y="18" font-family="Virgil, Segoe UI Emoji" font-size="20px" fill="#1864ab" text-anchor="start" style="white-space: pre;" direction="ltr">o</text></g><g stroke-linecap="round"><g transform="translate(960 692.71875) rotate(0 -5.5 -11.5)"><path d="M0.01 0.63 C-0.22 -1.65, 0.56 -9.98, -1.26 -13.84 C-3.08 -17.69, -9.22 -21.15, -10.91 -22.5 M-1.45 -0.08 C-1.86 -2.23, -0.65 -8.66, -2.34 -12.74 C-4.04 -16.83, -10.12 -22.72, -11.62 -24.58" stroke="#1864ab" stroke-width="1" fill="none"></path></g></g><g transform="translate(972 659.71875) rotate(0 6 12.5)"><text x="0" y="18" font-family="Virgil, Segoe UI Emoji" font-size="20px" fill="#1864ab" text-anchor="start" style="white-space: pre;" direction="ltr">θ</text></g><g transform="translate(973 599.71875) rotate(0 5 12.5)"><text x="0" y="18" font-family="Virgil, Segoe UI Emoji" font-size="20px" fill="#1864ab" text-anchor="start" style="white-space: pre;" direction="ltr">r</text></g></svg>