<svg version="1.1" xmlns="http://www.w3.org/2000/svg" viewBox="0 0 10020 763.34375" width="10020" height="763.34375">
  <!-- svg-source:excalidraw -->
  
  <defs>
    <style>
      @font-face {
        font-family: "Virgil";
        src: url("https://excalidraw.com/Virgil.woff2");
      }
      @font-face {
        font-family: "Cascadia";
        src: url("https://excalidraw.com/Cascadia.woff2");
      }
    </style>
  </defs>
  <rect x="0" y="0" width="10020" height="763.34375" fill="#fff0"></rect><g stroke-linecap="round" transform="translate(10 10) rotate(0 5000 0.5)"><path d="M-0.52 -0.26 C3022.65 -30.2, 6044.59 -29.2, 9999.32 0.22 M0.38 -0.31 C3948.03 -0.44, 7895.41 0.2, 9999.95 0.08 M10000.08 -0.06 C10000.09 0.27, 10000.05 0.48, 10000.09 0.92 M9999.97 0.01 C9999.95 0.33, 9999.98 0.72, 10000 0.99 M10000.22 1.51 C7095.77 35.76, 4193.15 34.95, -0.25 0.75 M10000.01 1.13 C7827.97 2.74, 5656.23 3.35, -0.33 0.84 M-0.04 1.01 C0 0.63, -0.06 0.15, 0.05 -0.03 M-0.04 0.95 C-0.04 0.73, -0.03 0.59, -0.05 -0.02" stroke="transparent" stroke-width="1" fill="none"></path></g><g stroke-linecap="round"><g transform="translate(791 545.34375) rotate(0 -2 104)"><path d="M-1.08 -0.98 C-1.8 33.64, -3.53 173.89, -4.11 208.71 M0.56 1.11 C-0.36 35.3, -4.09 172.27, -5.12 206.97" stroke="#000" stroke-width="1" fill="none"></path></g></g><g stroke-linecap="round"><g transform="translate(642 643.34375) rotate(0 144 -0.5)"><path d="M0.36 0.68 C48.3 0.22, 239.72 -1.69, 287.52 -2 M-0.91 0 C46.84 -0.41, 237.89 -1, 286.33 -0.99" stroke="#000" stroke-width="1" fill="none"></path></g></g><g transform="translate(730 565.34375) rotate(0 55.5 32)" stroke="none"><path fill="#d9480f" d="M 1.94,0.32 Q 1.94,0.32 1.65,2.04 1.36,3.77 1.22,5.55 1.08,7.34 1.00,9.25 0.91,11.16 0.82,13.41 0.73,15.66 0.66,18.34 0.60,21.03 0.59,23.03 0.58,25.03 0.63,26.75 0.68,28.46 0.73,30.05 0.79,31.64 0.87,32.89 0.95,34.15 1.01,35.54 1.06,36.93 1.12,38.09 1.19,39.25 1.85,40.49 2.52,41.72 3.57,43.97 4.63,46.21 5.48,47.34 6.33,48.47 7.30,49.58 8.26,50.69 9.25,51.73 10.24,52.77 12.16,54.21 14.09,55.64 15.11,56.33 16.12,57.02 17.33,57.87 18.54,58.71 19.45,59.38 20.36,60.05 21.51,60.87 22.65,61.69 23.67,62.27 24.69,62.85 25.60,63.49 26.51,64.12 27.17,64.96 27.84,65.81 29.38,66.71 30.92,67.61 32.56,68.14 34.19,68.68 36.20,68.87 38.21,69.05 40.73,69.89 43.25,70.72 45.84,71.39 48.44,72.07 50.35,72.37 52.25,72.67 53.64,72.72 55.03,72.77 56.55,72.69 58.07,72.61 59.84,72.52 61.61,72.43 63.86,72.39 66.11,72.35 67.56,72.27 69.00,72.20 70.15,71.30 71.29,70.39 72.28,69.77 73.26,69.15 75.43,67.91 77.59,66.68 78.65,66.11 79.70,65.55 81.75,64.56 83.80,63.56 85.43,62.45 87.06,61.34 87.91,60.37 88.76,59.40 89.85,58.49 90.95,57.57 92.26,55.98 93.56,54.40 94.78,53.07 96.01,51.75 97.21,50.30 98.41,48.85 99.37,47.60 100.32,46.35 101.34,44.98 102.37,43.62 103.01,42.35 103.65,41.08 104.28,38.87 104.92,36.67 105.03,35.23 105.13,33.79 105.52,31.80 105.91,29.81 105.96,27.89 106.01,25.96 106.79,24.38 107.57,22.80 107.69,21.66 107.81,20.52 107.81,19.27 107.82,18.02 108.23,16.80 108.65,15.58 108.68,13.93 108.72,12.28 108.82,9.78 108.93,7.29 108.96,6.06 108.98,4.82 108.98,3.72 108.99,2.62 108.96,0.97 108.93,-0.67 108.92,-2.61 108.92,-4.54 108.90,-7.55 108.88,-10.55 108.96,-11.05 109.04,-11.54 109.28,-11.99 109.51,-12.43 109.88,-12.78 110.25,-13.13 110.70,-13.34 111.16,-13.55 111.66,-13.61 112.16,-13.66 112.66,-13.55 113.15,-13.44 113.58,-13.18 114.01,-12.92 114.34,-12.54 114.67,-12.16 114.85,-11.69 115.04,-11.22 115.07,-10.71 115.09,-10.21 114.96,-9.72 114.82,-9.24 114.54,-8.82 114.26,-8.40 113.86,-8.10 113.45,-7.79 112.98,-7.63 112.50,-7.47 111.99,-7.47 111.49,-7.47 111.01,-7.63 110.53,-7.79 110.13,-8.10 109.73,-8.40 109.45,-8.82 109.17,-9.24 109.03,-9.73 108.90,-10.21 108.92,-10.72 108.95,-11.22 109.14,-11.69 109.32,-12.16 109.65,-12.54 109.98,-12.92 110.41,-13.18 110.84,-13.44 111.33,-13.55 111.83,-13.66 112.33,-13.61 112.83,-13.55 113.29,-13.34 113.75,-13.13 114.11,-12.78 114.48,-12.43 114.71,-11.99 114.95,-11.54 115.03,-11.05 115.11,-10.55 115.11,-10.55 115.11,-10.55 115.09,-7.55 115.07,-4.54 115.07,-2.61 115.06,-0.67 115.03,0.97 115.00,2.62 115.00,3.73 115.01,4.83 115.03,6.07 115.05,7.31 115.13,8.88 115.21,10.45 115.19,12.43 115.16,14.40 114.65,16.36 114.14,18.32 114.10,19.68 114.05,21.05 113.77,22.54 113.49,24.04 112.70,25.29 111.91,26.54 111.81,28.12 111.70,29.69 111.23,31.09 110.75,32.48 110.57,34.23 110.39,35.98 109.73,38.18 109.07,40.39 108.68,41.82 108.28,43.25 107.53,44.92 106.77,46.59 105.87,48.07 104.97,49.56 104.09,50.96 103.21,52.36 101.77,54.16 100.32,55.95 99.12,57.15 97.93,58.35 97.18,59.20 96.43,60.04 94.96,61.50 93.50,62.96 92.62,64.04 91.75,65.11 90.00,66.25 88.24,67.39 86.32,68.32 84.40,69.26 83.46,69.91 82.52,70.56 80.50,71.50 78.48,72.44 77.40,73.36 76.32,74.27 74.96,75.16 73.59,76.06 72.64,76.58 71.68,77.11 70.39,77.45 69.10,77.79 67.60,77.71 66.11,77.64 63.85,77.60 61.60,77.55 59.77,77.44 57.95,77.33 56.34,77.13 54.74,76.93 53.27,76.78 51.80,76.63 49.69,76.47 47.58,76.31 44.78,75.89 41.99,75.48 39.93,75.10 37.87,74.72 36.41,74.65 34.95,74.58 33.64,74.34 32.32,74.10 30.13,73.26 27.93,72.41 27.01,71.83 26.10,71.26 25.21,70.67 24.32,70.09 23.20,68.65 22.08,67.22 20.92,66.50 19.76,65.78 17.76,64.26 15.76,62.74 13.68,61.23 11.60,59.72 9.18,57.89 6.76,56.06 5.72,54.95 4.69,53.85 3.59,52.63 2.50,51.41 1.22,49.76 -0.06,48.11 -0.89,46.09 -1.73,44.07 -2.19,43.05 -2.64,42.02 -2.92,40.66 -3.19,39.29 -3.12,38.11 -3.06,36.93 -3.01,35.54 -2.95,34.14 -2.87,32.89 -2.79,31.64 -2.73,30.05 -2.67,28.46 -2.62,26.74 -2.57,25.03 -2.57,23.02 -2.57,21.02 -2.62,18.32 -2.66,15.63 -2.71,13.35 -2.76,11.06 -2.74,9.08 -2.72,7.09 -2.62,5.10 -2.51,3.12 -2.23,1.40 -1.94,-0.32 -1.87,-0.55 -1.81,-0.78 -1.69,-0.98 -1.57,-1.19 -1.40,-1.36 -1.24,-1.53 -1.03,-1.65 -0.83,-1.78 -0.61,-1.85 -0.38,-1.93 -0.14,-1.95 0.08,-1.97 0.32,-1.93 0.55,-1.89 0.77,-1.79 0.99,-1.70 1.18,-1.56 1.37,-1.41 1.52,-1.23 1.67,-1.04 1.77,-0.83 1.87,-0.61 1.91,-0.38 1.96,-0.15 1.95,0.08 1.94,0.32 1.94,0.32 L 1.94,0.32 Z"></path></g><g stroke-linecap="round"><g transform="translate(661 589.34375) rotate(0 140.5 -2)"><path d="M-0.9 -1.03 C46.11 -1.9, 235.27 -3.97, 282.08 -4.5 M0.82 1.04 C47.77 0.27, 234.78 -2.54, 281.7 -3.23" stroke="#1864ab" stroke-width="1" fill="none"></path></g></g><g stroke-linecap="round"><g transform="translate(664 680.34375) rotate(0 132 -0.5)"><path d="M-0.7 1.16 C43.63 0.82, 221.2 -0.79, 265.15 -1.18 M1.14 0.73 C45.47 0.49, 220.76 0.37, 264.8 0.26" stroke="#1864ab" stroke-width="1" fill="none"></path></g></g><g transform="translate(1000 558.34375) rotate(0 75.5 25)"><text x="0" y="18" font-family="Virgil, Segoe UI Emoji" font-size="20px" fill="#000000" text-anchor="start" style="white-space: pre;" direction="ltr">Più intersezioni,</text><text x="0" y="43" font-family="Virgil, Segoe UI Emoji" font-size="20px" fill="#000000" text-anchor="start" style="white-space: pre;" direction="ltr">no iniettiva</text></g><g transform="translate(990 668.34375) rotate(0 73 25)"><text x="0" y="18" font-family="Virgil, Segoe UI Emoji" font-size="20px" fill="#000000" text-anchor="start" style="white-space: pre;" direction="ltr">No intersezioni,</text><text x="0" y="43" font-family="Virgil, Segoe UI Emoji" font-size="20px" fill="#000000" text-anchor="start" style="white-space: pre;" direction="ltr">no suriettiva</text></g><g transform="translate(579 556.34375) rotate(0 53 12.5)"><text x="0" y="18" font-family="Virgil, Segoe UI Emoji" font-size="20px" fill="#000000" text-anchor="start" style="white-space: pre;" direction="ltr">f(x) = x^2</text></g></svg>