<svg version="1.1" xmlns="http://www.w3.org/2000/svg" viewBox="0 0 10020 818" width="10020" height="818">
  <!-- svg-source:excalidraw -->
  
  <defs>
    <style>
      @font-face {
        font-family: "Virgil";
        src: url("https://excalidraw.com/Virgil.woff2");
      }
      @font-face {
        font-family: "Cascadia";
        src: url("https://excalidraw.com/Cascadia.woff2");
      }
    </style>
  </defs>
  <rect x="0" y="0" width="10020" height="818" fill="#fff0"></rect><g stroke-linecap="round" transform="translate(10 10) rotate(0 5000 0.5)"><path d="M-0.52 -0.26 C3022.65 -30.2, 6044.59 -29.2, 9999.32 0.22 M0.38 -0.31 C3948.03 -0.44, 7895.41 0.2, 9999.95 0.08 M10000.08 -0.06 C10000.09 0.27, 10000.05 0.48, 10000.09 0.92 M9999.97 0.01 C9999.95 0.33, 9999.98 0.72, 10000 0.99 M10000.22 1.51 C7095.77 35.76, 4193.15 34.95, -0.25 0.75 M10000.01 1.13 C7827.97 2.74, 5656.23 3.35, -0.33 0.84 M-0.04 1.01 C0 0.63, -0.06 0.15, 0.05 -0.03 M-0.04 0.95 C-0.04 0.73, -0.03 0.59, -0.05 -0.02" stroke="transparent" stroke-width="1" fill="none"></path></g><g stroke-linecap="round"><g transform="translate(575.3853717758041 693.6731762520969) rotate(0 128.80731411209794 -1.83658812604844)"><path d="M-0.1 0.67 C42.54 0.07, 213.73 -2.95, 256.51 -3.53 M-1.61 -0.02 C41.33 -0.41, 215.22 -1.14, 258.64 -1.92" stroke="#000" stroke-width="1" fill="none"></path></g></g><g stroke-linecap="round"><g transform="translate(998 686) rotate(0 62.5 -0.5)"><path d="M0.1 0.28 C20.93 0.26, 104.86 -0.36, 125.58 -0.67 M-1.31 -0.62 C19.37 -0.97, 104.16 -2.63, 124.93 -2.62" stroke="#000" stroke-width="1" fill="none"></path></g></g><g stroke-linecap="round"><g transform="translate(647 635) rotate(0 -0.5 55)"><path d="M0.11 -1.09 C0.27 17.47, 0.14 91.52, 0.05 110.15 M-1.29 0.95 C-1.12 19.83, -0.41 93.8, -0.35 111.77" stroke="#d9480f" stroke-width="1" fill="none"></path></g></g><g stroke-linecap="round"><g transform="translate(1119 640) rotate(0 -0.4912470575421821 43.78897283046041)"><path d="M-1.05 -1.12 C-1.05 13.42, -0.14 72.76, 0.04 87.6 M0.6 0.91 C0.52 15.61, -0.24 75, -0.38 89.16" stroke="#d9480f" stroke-width="1" fill="none"></path></g></g><g transform="translate(560 657) rotate(0 7 12.5)"><text x="0" y="18" font-family="Virgil, Segoe UI Emoji" font-size="20px" fill="#000000" text-anchor="start" style="white-space: pre;" direction="ltr">A</text></g><g transform="translate(704 647) rotate(0 7 12.5)"><text x="0" y="18" font-family="Virgil, Segoe UI Emoji" font-size="20px" fill="#000000" text-anchor="start" style="white-space: pre;" direction="ltr">C</text></g><g transform="translate(837 654) rotate(0 8 12.5)"><text x="0" y="18" font-family="Virgil, Segoe UI Emoji" font-size="20px" fill="#000000" text-anchor="start" style="white-space: pre;" direction="ltr">B</text></g><g transform="translate(987 634) rotate(0 7 12.5)"><text x="0" y="18" font-family="Virgil, Segoe UI Emoji" font-size="20px" fill="#000000" text-anchor="start" style="white-space: pre;" direction="ltr">A</text></g><g stroke-linecap="round"><g transform="translate(941 685) rotate(0 26.5 0)"><path d="M-0.79 -0.46 C8.17 -0.47, 44.73 1.23, 53.76 1.13 M1 -1.75 C9.87 -1.56, 44.58 -0.64, 53.2 -0.4" stroke="#1864ab" stroke-width="1" fill="none"></path></g><g transform="translate(941 685) rotate(0 26.5 0)"><path d="M27.29 9.25 C37.45 6.21, 41.37 3.64, 53.54 -1 M27.6 7.2 C33.37 6.08, 40.88 4.62, 53.82 -0.59" stroke="#1864ab" stroke-width="1" fill="none"></path></g><g transform="translate(941 685) rotate(0 26.5 0)"><path d="M27.78 -8.87 C37.97 -6.45, 41.74 -3.55, 53.54 -1 M28.09 -10.93 C33.85 -7.74, 41.25 -4.89, 53.82 -0.59" stroke="#1864ab" stroke-width="1" fill="none"></path></g></g><g stroke-linecap="round"><g transform="translate(571 764) rotate(0 1 -34)"><path d="M1.2 0.86 C1.22 -10.68, 0.67 -57.66, 0.98 -68.96 M0.37 0.26 C0.67 -11.18, 2.75 -56.43, 3.15 -67.93" stroke="#1864ab" stroke-width="1" fill="none"></path></g><g transform="translate(571 764) rotate(0 1 -34)"><path d="M13.68 -41.05 C7.2 -48.19, 7.16 -62.07, 2.91 -66.87 M13.04 -39.05 C8.1 -50.63, 6.19 -59.74, 3.38 -68.36" stroke="#1864ab" stroke-width="1" fill="none"></path></g><g transform="translate(571 764) rotate(0 1 -34)"><path d="M-6.82 -41.89 C-5.68 -48.92, 1.91 -62.48, 2.91 -66.87 M-7.46 -39.89 C-4.95 -50.98, 0.59 -59.8, 3.38 -68.36" stroke="#1864ab" stroke-width="1" fill="none"></path></g></g><g stroke-linecap="round"><g transform="translate(522.5 696) rotate(0 26.5 0)"><path d="M0.48 1 C9 1.13, 43.09 0.94, 51.99 0.92 M-0.72 0.49 C8.08 0.28, 45.12 -0.47, 54.17 -0.73" stroke="#1864ab" stroke-width="1" fill="none"></path></g><g transform="translate(522.5 696) rotate(0 26.5 0)"><path d="M31.16 7.23 C40.24 6.65, 49.36 3.25, 55.28 0.36 M29.13 8.83 C38.93 5.61, 48.18 1.12, 53.7 -1.09" stroke="#1864ab" stroke-width="1" fill="none"></path></g><g transform="translate(522.5 696) rotate(0 26.5 0)"><path d="M30.73 -10.89 C39.99 -4.69, 49.27 -1.31, 55.28 0.36 M28.7 -9.29 C38.6 -5.35, 48.01 -2.68, 53.7 -1.09" stroke="#1864ab" stroke-width="1" fill="none"></path></g></g><g stroke-linecap="round"><g transform="translate(995 761) rotate(0 1 -34)"><path d="M0.88 0.75 C1.05 -10.83, 1.42 -57.6, 1.81 -68.93 M-0.12 0.09 C-0.18 -11.41, 0.23 -56.34, 0.76 -67.89" stroke="#1864ab" stroke-width="1" fill="none"></path></g><g transform="translate(995 761) rotate(0 1 -34)"><path d="M11.56 -39.78 C5.17 -47.68, 4.5 -58.8, 1.28 -67.93 M11.28 -40.41 C7.19 -48.23, 4.13 -56.28, 0.89 -67.83" stroke="#1864ab" stroke-width="1" fill="none"></path></g><g transform="translate(995 761) rotate(0 1 -34)"><path d="M-8.95 -40.28 C-7.92 -48.15, -1.16 -59.09, 1.28 -67.93 M-9.24 -40.91 C-7.15 -48.46, -4.05 -56.36, 0.89 -67.83" stroke="#1864ab" stroke-width="1" fill="none"></path></g></g><g stroke-linecap="round"><g transform="translate(819 624) rotate(0 56 -0.5)"><path d="M0.76 1.04 C19.49 0.93, 92.87 -0.83, 111.44 -1.06 M-0.31 0.53 C18.3 0.66, 91.56 0.93, 110.2 0.45" stroke="#d9480f" stroke-width="1" fill="none"></path></g><g transform="translate(819 624) rotate(0 56 -0.5)"><path d="M83.83 10.03 C88.23 8.8, 95.57 6.55, 108.55 1.36 M82.86 10.25 C91.85 6.27, 103.52 3.49, 110.23 1.11" stroke="#d9480f" stroke-width="1" fill="none"></path></g><g transform="translate(819 624) rotate(0 56 -0.5)"><path d="M83.65 -10.49 C88.01 -7.21, 95.39 -4.94, 108.55 1.36 M82.68 -10.27 C91.86 -6.57, 103.6 -1.67, 110.23 1.11" stroke="#d9480f" stroke-width="1" fill="none"></path></g></g><g transform="translate(573 783) rotate(0 12 12.5)"><text x="0" y="18" font-family="Virgil, Segoe UI Emoji" font-size="20px" fill="#1864ab" text-anchor="start" style="white-space: pre;" direction="ltr">VA</text></g><g transform="translate(517 660) rotate(0 12.5 12.5)"><text x="0" y="18" font-family="Virgil, Segoe UI Emoji" font-size="20px" fill="#1864ab" text-anchor="start" style="white-space: pre;" direction="ltr">HA</text></g><g transform="translate(912 656) rotate(0 12.5 12.5)"><text x="0" y="18" font-family="Virgil, Segoe UI Emoji" font-size="20px" fill="#1864ab" text-anchor="start" style="white-space: pre;" direction="ltr">HA</text></g><g transform="translate(1015 764) rotate(0 12 12.5)"><text x="0" y="18" font-family="Virgil, Segoe UI Emoji" font-size="20px" fill="#1864ab" text-anchor="start" style="white-space: pre;" direction="ltr">VA</text></g><g transform="translate(739 562) rotate(0 131 12.5)"><text x="0" y="18" font-family="Virgil, Segoe UI Emoji" font-size="20px" fill="#d9480f" text-anchor="start" style="white-space: pre;" direction="ltr">Equilibrio in entrambi i casi</text></g><g stroke-linecap="round"><g transform="translate(1130 608) rotate(0 1 32.5)"><path d="M-0.38 -0.32 C-0.03 10.86, 1.13 55.08, 1.5 66.12 M1.62 -1.54 C1.82 9.43, 0.39 53.65, 0.29 64.59" stroke="#1864ab" stroke-width="1" fill="none"></path></g><g transform="translate(1130 608) rotate(0 1 32.5)"><path d="M-9.89 35.34 C-5.29 43.1, -3.17 49.67, 0.85 64.16 M-8.65 35.99 C-6.7 47.54, -3.16 57.02, -0.61 65.17" stroke="#1864ab" stroke-width="1" fill="none"></path></g><g transform="translate(1130 608) rotate(0 1 32.5)"><path d="M10.62 35.79 C10.05 43.37, 7 49.82, 0.85 64.16 M11.86 36.44 C6.02 47.68, 1.76 56.99, -0.61 65.17" stroke="#1864ab" stroke-width="1" fill="none"></path></g></g><g stroke-linecap="round"><g transform="translate(1185 679) rotate(0 -28 0.5)"><path d="M0.87 -0.8 C-8.77 -0.6, -47.34 0.81, -56.99 1.21 M-0.14 1.39 C-9.48 1.21, -45.71 -0.49, -54.8 -0.81" stroke="#1864ab" stroke-width="1" fill="none"></path></g><g transform="translate(1185 679) rotate(0 -28 0.5)"><path d="M-29.45 -10.95 C-37.61 -7.68, -46.88 -4.44, -53.25 0.56 M-27.12 -8.53 C-36.12 -6.1, -44.31 -3.89, -55.18 -1.3" stroke="#1864ab" stroke-width="1" fill="none"></path></g><g transform="translate(1185 679) rotate(0 -28 0.5)"><path d="M-30.24 8.19 C-38.1 4.4, -47.08 0.58, -53.25 0.56 M-27.91 10.61 C-36.48 7.24, -44.43 3.64, -55.18 -1.3" stroke="#1864ab" stroke-width="1" fill="none"></path></g></g><g stroke-linecap="round"><g transform="translate(1162 729) rotate(0 -10 -56)"><path d="M0.37 0.94 C5.84 -7.3, 30.57 -31.11, 31.71 -48.83 C32.85 -66.55, 21.28 -94.68, 7.23 -105.37 C-6.82 -116.07, -42.79 -112.09, -52.58 -113 M-0.9 0.38 C4.49 -8.21, 28.84 -32.9, 30.61 -50.34 C32.37 -67.78, 23.59 -93.9, 9.71 -104.25 C-4.16 -114.6, -42.24 -110.88, -52.64 -112.42" stroke="#1864ab" stroke-width="1" fill="none"></path></g><g transform="translate(1162 729) rotate(0 -10 -56)"><path d="M-22.58 -122.27 C-28.01 -121.06, -36.46 -118.81, -54.31 -111.6 M-24.25 -121.22 C-36.01 -118.88, -46.29 -114.87, -52.9 -111.51" stroke="#1864ab" stroke-width="1" fill="none"></path></g><g transform="translate(1162 729) rotate(0 -10 -56)"><path d="M-23.23 -101.76 C-28.63 -104.78, -36.94 -106.75, -54.31 -111.6 M-24.9 -100.71 C-36.27 -106.5, -46.28 -110.64, -52.9 -111.51" stroke="#1864ab" stroke-width="1" fill="none"></path></g></g><g transform="translate(1100 638) rotate(0 5.5 12.5)"><text x="0" y="18" font-family="Virgil, Segoe UI Emoji" font-size="20px" fill="#1864ab" text-anchor="start" style="white-space: pre;" direction="ltr">V</text></g><g transform="translate(1146 696) rotate(0 6 12.5)"><text x="0" y="18" font-family="Virgil, Segoe UI Emoji" font-size="20px" fill="#1864ab" text-anchor="start" style="white-space: pre;" direction="ltr">H</text></g><g transform="translate(1176 594) rotate(0 8 12.5)"><text x="0" y="18" font-family="Virgil, Segoe UI Emoji" font-size="20px" fill="#1864ab" text-anchor="start" style="white-space: pre;" direction="ltr">M</text></g></svg>