<svg version="1.1" xmlns="http://www.w3.org/2000/svg" viewBox="0 0 10020 717.4375" width="10020" height="717.4375">
  <!-- svg-source:excalidraw -->
  
  <defs>
    <style>
      @font-face {
        font-family: "Virgil";
        src: url("https://excalidraw.com/Virgil.woff2");
      }
      @font-face {
        font-family: "Cascadia";
        src: url("https://excalidraw.com/Cascadia.woff2");
      }
    </style>
  </defs>
  <rect x="0" y="0" width="10020" height="717.4375" fill="#fff0"></rect><g stroke-linecap="round" transform="translate(10 10) rotate(0 5000 0.5)"><path d="M-0.52 -0.26 C3022.65 -30.2, 6044.59 -29.2, 9999.32 0.22 M0.38 -0.31 C3948.03 -0.44, 7895.41 0.2, 9999.95 0.08 M10000.08 -0.06 C10000.09 0.27, 10000.05 0.48, 10000.09 0.92 M9999.97 0.01 C9999.95 0.33, 9999.98 0.72, 10000 0.99 M10000.22 1.51 C7095.77 35.76, 4193.15 34.95, -0.25 0.75 M10000.01 1.13 C7827.97 2.74, 5656.23 3.35, -0.33 0.84 M-0.04 1.01 C0 0.63, -0.06 0.15, 0.05 -0.03 M-0.04 0.95 C-0.04 0.73, -0.03 0.59, -0.05 -0.02" stroke="transparent" stroke-width="1" fill="none"></path></g><g stroke-linecap="round" transform="translate(864.84375 553.4375) rotate(0 94.5 29.5)"><path d="M-1.51 -0.72 C46.66 -1.66, 93.98 -0.73, 189.12 0.56 M0.13 -0.22 C64.52 -0.53, 129.07 -1.95, 189.49 0.67 M188.26 -0.01 C190.06 18.7, 190.39 37.35, 187.47 60.73 M189.05 0.23 C188.84 22.71, 189.71 46.76, 188.69 59.31 M187 57.02 C151.68 57.98, 113.74 56.73, 1.52 59.4 M188.58 58.9 C145.5 57.79, 101.36 58.6, -0.25 59.24 M1.11 58.53 C-1.98 37.23, 0.7 17.64, 0.58 0.24 M0.3 59.1 C-0.93 44.83, -1.09 28.55, 0.66 0.62" stroke="#000" stroke-width="1" fill="none"></path></g><g stroke-linecap="round" transform="translate(867.84375 653.4375) rotate(0 91.5 27)"><path d="M0.45 0.1 C71.19 -0.76, 140.84 0.99, 184.43 -0.62 M-0.71 -1 C59.55 0.76, 121.25 1.05, 182.54 0.76 M182.2 -0.83 C182.44 18.69, 181.73 36.11, 183.72 53.49 M183.18 0.55 C183.03 16.72, 182.67 35.56, 182.9 54.29 M184.18 54.59 C126.07 53.55, 70.73 53.23, -0.23 55.33 M183.85 54.76 C117.31 54.07, 51.2 54.76, -0.12 54.46 M-1.92 52.22 C1.08 32.44, -0.84 12.69, 1.2 -1.77 M-0.28 53.6 C-0.17 38.08, -0.51 22.46, -0.67 -0.93" stroke="#000" stroke-width="1" fill="none"></path></g><g transform="translate(914.84375 568.4375) rotate(0 34 12.5)"><text x="0" y="18" font-family="Virgil, Segoe UI Emoji" font-size="20px" fill="#000" text-anchor="start" style="white-space: pre;" direction="ltr">System</text></g><g transform="translate(911.84375 669.4375) rotate(0 27.5 12.5)"><text x="0" y="18" font-family="Virgil, Segoe UI Emoji" font-size="20px" fill="#000" text-anchor="start" style="white-space: pre;" direction="ltr">Model</text></g><g stroke-linecap="round"><g transform="translate(724.84375 578.4375) rotate(0 66 -0.5)"><path d="M-0.85 -1.01 C21.35 -1.12, 110.22 -1.04, 132.23 -1.04 M0.9 1.07 C23.05 1.2, 109.28 0.61, 131.4 0.47" stroke="#1864ab" stroke-width="1" fill="none"></path></g><g transform="translate(724.84375 578.4375) rotate(0 66 -0.5)"><path d="M101.59 11.29 C109.4 7.42, 115.57 4.76, 133.24 1.99 M103.92 10.6 C111.95 7.85, 119.92 3.78, 131.07 0.41" stroke="#1864ab" stroke-width="1" fill="none"></path></g><g transform="translate(724.84375 578.4375) rotate(0 66 -0.5)"><path d="M101.46 -9.23 C109.23 -8.6, 115.43 -6.77, 133.24 1.99 M103.79 -9.92 C111.77 -6.68, 119.78 -4.75, 131.07 0.41" stroke="#1864ab" stroke-width="1" fill="none"></path></g></g><g stroke-linecap="round"><g transform="translate(775.84375 579.4375) rotate(0 0.5 51)"><path d="M-0.71 -1.13 C-0.26 15.85, 1.23 85.27, 1.61 102.37 M1.12 0.89 C1.57 17.45, 0.99 83.51, 0.98 100.45" stroke="#1864ab" stroke-width="1" fill="none"></path></g></g><g stroke-linecap="round"><g transform="translate(777.84375 680.4375) rotate(0 46.5 -1.5)"><path d="M1.16 -1.03 C16.55 -1.58, 78.32 -3.51, 93.52 -3.83 M0.3 1.05 C15.48 0.67, 77.68 -2.28, 92.85 -2.73" stroke="#1864ab" stroke-width="1" fill="none"></path></g><g transform="translate(777.84375 680.4375) rotate(0 46.5 -1.5)"><path d="M63.37 9.51 C74.81 2.81, 87.3 -1.12, 94.09 -2.46 M64.34 8.85 C70.81 5.84, 77.17 2.72, 92.12 -2.2" stroke="#1864ab" stroke-width="1" fill="none"></path></g><g transform="translate(777.84375 680.4375) rotate(0 46.5 -1.5)"><path d="M62.56 -11 C74.24 -9.52, 87.06 -5.28, 94.09 -2.46 M63.53 -11.65 C70.19 -9.99, 76.74 -8.43, 92.12 -2.2" stroke="#1864ab" stroke-width="1" fill="none"></path></g></g><g transform="translate(683.84375 565.4375) rotate(0 10.5 12.5)"><text x="0" y="18" font-family="Virgil, Segoe UI Emoji" font-size="20px" fill="#000" text-anchor="start" style="white-space: pre;" direction="ltr">In</text></g><g stroke-linecap="round"><g transform="translate(1059.84375 578.4375) rotate(0 60 1.5)"><path d="M-0.1 -0.69 C20.18 -0.47, 100.92 1.31, 120.79 2.11 M-1.61 1.56 C18.66 1.84, 99.74 3.04, 120.25 3.18" stroke="#d9480f" stroke-width="1" fill="none"></path></g><g transform="translate(1059.84375 578.4375) rotate(0 60 1.5)"><path d="M90.79 14.43 C96.73 9.38, 106.42 9.41, 119.91 1.52 M92.83 12.26 C99.81 11.89, 105.67 8.73, 120.4 3.85" stroke="#d9480f" stroke-width="1" fill="none"></path></g><g transform="translate(1059.84375 578.4375) rotate(0 60 1.5)"><path d="M91.02 -6.09 C97.04 -6.55, 106.67 -1.92, 119.91 1.52 M93.06 -8.26 C100.11 -3.56, 105.91 -1.66, 120.4 3.85" stroke="#d9480f" stroke-width="1" fill="none"></path></g></g><g stroke-linecap="round"><g transform="translate(1057.84375 681.4375) rotate(0 62.5 -2)"><path d="M1.16 -0.24 C22.22 -1.06, 104.54 -3.12, 125.31 -3.83 M0.31 -1.41 C21.33 -1.5, 103.67 -1.87, 124.53 -2.2" stroke="#d9480f" stroke-width="1" fill="none"></path></g><g transform="translate(1057.84375 681.4375) rotate(0 62.5 -2)"><path d="M96.04 8.84 C102.64 7.14, 107.61 2.27, 125.22 -1.03 M96.75 8.53 C106.64 5.07, 115.95 0.85, 123.74 -3.12" stroke="#d9480f" stroke-width="1" fill="none"></path></g><g transform="translate(1057.84375 681.4375) rotate(0 62.5 -2)"><path d="M95.85 -11.68 C102.68 -8.99, 107.69 -9.46, 125.22 -1.03 M96.56 -11.99 C106.35 -8.61, 115.72 -6, 123.74 -3.12" stroke="#d9480f" stroke-width="1" fill="none"></path></g></g><g transform="translate(1207.84375 567.4375) rotate(0 5.5 12.5)"><text x="0" y="18" font-family="Virgil, Segoe UI Emoji" font-size="20px" fill="#000" text-anchor="start" style="white-space: pre;" direction="ltr">Y</text></g><g transform="translate(1208.84375 669.4375) rotate(0 5.5 12.5)"><text x="0" y="18" font-family="Virgil, Segoe UI Emoji" font-size="20px" fill="#000" text-anchor="start" style="white-space: pre;" direction="ltr">Y</text></g><g transform="translate(1213.84375 665.4375) rotate(0 0.00004999999998744897 0.00005000000000165983)" stroke="none"><path fill="#000" d="M 1.57,-1.57 Q 1.57,-1.57 1.77,-1.27 1.98,-0.98 2.09,-0.64 2.20,-0.29 2.19,0.05 2.18,0.41 2.05,0.75 1.93,1.09 1.70,1.37 1.48,1.65 1.18,1.84 0.87,2.04 0.52,2.12 0.18,2.21 -0.17,2.18 -0.53,2.15 -0.86,2.01 -1.19,1.87 -1.46,1.63 -1.73,1.39 -1.90,1.07 -2.08,0.76 -2.15,0.41 -2.21,0.05 -2.17,-0.29 -2.12,-0.65 -1.96,-0.97 -1.80,-1.29 -1.54,-1.54 -1.29,-1.80 -0.97,-1.96 -0.65,-2.12 -0.29,-2.17 0.06,-2.21 0.41,-2.15 0.76,-2.08 1.07,-1.90 1.39,-1.73 1.63,-1.46 1.87,-1.19 2.01,-0.86 2.15,-0.53 2.18,-0.17 2.21,0.18 2.12,0.52 2.03,0.87 1.84,1.18 1.65,1.48 1.37,1.70 1.09,1.93 0.75,2.05 0.41,2.18 0.05,2.19 -0.30,2.20 -0.64,2.09 -0.98,1.98 -1.27,1.77 -1.57,1.56 -1.57,1.57 -1.57,1.57 -1.73,1.35 -1.90,1.14 -2.01,0.90 -2.12,0.66 -2.16,0.39 -2.21,0.13 -2.20,-0.13 -2.18,-0.40 -2.10,-0.65 -2.02,-0.91 -1.88,-1.14 -1.74,-1.36 -1.55,-1.55 -1.36,-1.74 -1.14,-1.88 -0.91,-2.02 -0.65,-2.10 -0.40,-2.18 -0.13,-2.20 0.13,-2.21 0.39,-2.16 0.66,-2.12 0.90,-2.01 1.14,-1.90 1.35,-1.73 1.57,-1.57 1.57,-1.57 L 1.57,-1.57 Z"></path></g><g transform="translate(1207.84375 601.9375) rotate(0 12.5 26.041666666666657)"><text x="0" y="36.08333333333332" font-family="Virgil, Segoe UI Emoji" font-size="41.66666666666667px" fill="#000000" text-anchor="start" style="white-space: pre;" direction="ltr">≈</text></g></svg>