<svg version="1.1" xmlns="http://www.w3.org/2000/svg" viewBox="0 0 10020 775.375" width="10020" height="775.375">
  <!-- svg-source:excalidraw -->
  
  <defs>
    <style>
      @font-face {
        font-family: "Virgil";
        src: url("https://excalidraw.com/Virgil.woff2");
      }
      @font-face {
        font-family: "Cascadia";
        src: url("https://excalidraw.com/Cascadia.woff2");
      }
    </style>
  </defs>
  <rect x="0" y="0" width="10020" height="775.375" fill="#fff0"></rect><g stroke-linecap="round" transform="translate(10 10) rotate(0 5000 0.5)"><path d="M-0.52 -0.26 C3022.65 -30.2, 6044.59 -29.2, 9999.32 0.22 M0.38 -0.31 C3948.03 -0.44, 7895.41 0.2, 9999.95 0.08 M10000.08 -0.06 C10000.09 0.27, 10000.05 0.48, 10000.09 0.92 M9999.97 0.01 C9999.95 0.33, 9999.98 0.72, 10000 0.99 M10000.22 1.51 C7095.77 35.76, 4193.15 34.95, -0.25 0.75 M10000.01 1.13 C7827.97 2.74, 5656.23 3.35, -0.33 0.84 M-0.04 1.01 C0 0.63, -0.06 0.15, 0.05 -0.03 M-0.04 0.95 C-0.04 0.73, -0.03 0.59, -0.05 -0.02" stroke="transparent" stroke-width="1" fill="none"></path></g><g stroke-linecap="round"><g transform="translate(576 729.375) rotate(0 -2.5 -85.5)"><path d="M0.87 -0.4 C0.02 -29.08, -3.07 -142.51, -3.98 -171.11 M-0.13 -1.65 C-1.15 -30.22, -3.56 -141.37, -4.39 -169.63" stroke="#000" stroke-width="1" fill="none"></path></g><g transform="translate(576 729.375) rotate(0 -2.5 -85.5)"><path d="M5.92 -140 C1.83 -151.96, -3.98 -162.6, -5.26 -170.44 M6.13 -141 C3.2 -147.6, 1.76 -153.23, -4.59 -169.74" stroke="#000" stroke-width="1" fill="none"></path></g><g transform="translate(576 729.375) rotate(0 -2.5 -85.5)"><path d="M-14.6 -139.48 C-10.57 -151.8, -8.26 -162.64, -5.26 -170.44 M-14.39 -140.48 C-12.97 -147.06, -10.06 -152.8, -4.59 -169.74" stroke="#000" stroke-width="1" fill="none"></path></g></g><g stroke-linecap="round"><g transform="translate(539 703.375) rotate(356.17724477945916 128 3.5)"><path d="M-0.4 1.02 C42.09 2.12, 213.32 6.33, 255.89 7.44 M1.6 0.52 C43.83 1.17, 212.25 4.68, 254.88 5.54" stroke="#000" stroke-width="1" fill="none"></path></g><g transform="translate(539 703.375) rotate(356.17724477945916 128 3.5)"><path d="M228.2 15.04 C237.98 9.97, 249.23 7.05, 254.08 3.78 M227.2 14.4 C237.59 11.69, 248.82 7.69, 254.77 5.32" stroke="#000" stroke-width="1" fill="none"></path></g><g transform="translate(539 703.375) rotate(356.17724477945916 128 3.5)"><path d="M228.62 -5.48 C238.39 -2.72, 249.48 2.19, 254.08 3.78 M227.62 -6.11 C237.72 -0.93, 248.78 2.98, 254.77 5.32" stroke="#000" stroke-width="1" fill="none"></path></g></g><g stroke-linecap="round"><g transform="translate(661 662.375) rotate(0 52.5 -54.5)"><path d="M1.02 -0.11 C-2.71 -7.54, -23.01 -26.76, -21.56 -44.99 C-20.12 -63.23, -5.83 -96.68, 9.69 -109.53 C25.2 -122.37, 51.79 -124.35, 71.52 -122.06 C91.24 -119.76, 120.03 -108.43, 128.02 -95.78 C136.01 -83.13, 133.62 -64.13, 119.45 -46.15 C105.29 -28.16, 62.91 4.35, 43.02 12.12 C23.12 19.89, 7.29 2.51, 0.08 0.47 M0.1 -1.22 C-3.83 -8.5, -23.81 -26.1, -22.28 -43.98 C-20.75 -61.85, -6.35 -95.56, 9.28 -108.49 C24.91 -121.41, 51.88 -123.62, 71.51 -121.51 C91.15 -119.39, 118.91 -108.26, 127.09 -95.8 C135.27 -83.33, 134.57 -64.51, 120.58 -46.74 C106.59 -28.97, 63.39 2.99, 43.15 10.84 C22.9 18.7, 6.02 2.45, -0.9 0.38" stroke="#000" stroke-width="1" fill="none"></path></g></g><g transform="translate(664 626.375) rotate(0 1 1.5)" stroke="none"><path fill="#000" d="M 1.99,-1.33 Q 1.99,-1.33 0.08,0.33 -1.83,1.99 -1.94,1.60 -2.05,1.21 -2.03,0.80 -2.01,0.40 -1.86,0.02 -1.72,-0.35 -1.45,-0.66 -1.19,-0.97 -0.84,-1.18 -0.50,-1.39 -0.10,-1.48 0.28,-1.57 0.69,-1.53 1.09,-1.48 1.46,-1.32 1.83,-1.15 2.13,-0.87 2.42,-0.59 2.62,-0.23 2.81,0.12 2.87,0.52 2.94,0.92 2.88,1.32 2.81,1.72 2.63,2.08 2.44,2.44 2.14,2.72 1.85,3.00 1.48,3.17 1.11,3.34 0.71,3.39 0.31,3.44 -0.08,3.35 -0.48,3.26 -0.83,3.06 -1.18,2.85 -1.44,2.54 -1.70,2.23 -1.86,1.85 -2.01,1.48 -2.03,1.07 -2.06,0.67 -1.95,0.27 -1.84,-0.11 -1.61,-0.44 -1.39,-0.78 -1.07,-1.03 -0.74,-1.28 -0.36,-1.41 0.02,-1.54 0.42,-1.54 0.83,-1.54 1.21,-1.41 1.60,-1.29 1.92,-1.04 2.25,-0.80 2.48,-0.46 2.71,-0.13 2.71,-0.13 2.71,-0.13 0.35,0.60 -1.99,1.33 -2.12,1.07 -2.25,0.81 -2.32,0.53 -2.38,0.25 -2.38,-0.03 -2.37,-0.32 -2.30,-0.60 -2.23,-0.88 -2.09,-1.14 -1.95,-1.39 -1.75,-1.60 -1.56,-1.82 -1.32,-1.98 -1.08,-2.14 -0.80,-2.24 -0.53,-2.34 -0.24,-2.37 0.03,-2.40 0.32,-2.36 0.61,-2.32 0.88,-2.21 1.15,-2.10 1.38,-1.94 1.62,-1.77 1.81,-1.55 1.99,-1.33 1.99,-1.33 L 1.99,-1.33 Z"></path></g><g transform="translate(759 580.375) rotate(0 -4 -0.5)" stroke="none"><path fill="#000" d="M 0,2.56 Q 0,2.56 -1.71,2.50 -3.42,2.44 -4.82,2.89 -6.22,3.34 -6.53,3.39 -6.84,3.44 -7.16,3.41 -7.47,3.38 -7.77,3.28 -8.07,3.18 -8.34,3.01 -8.60,2.84 -8.82,2.61 -9.04,2.38 -9.19,2.10 -9.35,1.83 -9.44,1.52 -9.52,1.22 -9.53,0.90 -9.54,0.58 -9.48,0.27 -9.41,-0.03 -9.27,-0.31 -9.14,-0.59 -8.93,-0.84 -8.73,-1.08 -8.48,-1.27 -8.22,-1.46 -7.93,-1.58 -7.64,-1.70 -8.53,-0.78 -9.43,0.14 -8.91,-0.98 -8.39,-2.12 -7.50,-2.71 -6.61,-3.29 -5.56,-3.92 -4.51,-4.54 -3.10,-4.60 -1.69,-4.67 -1.69,-4.53 -1.69,-4.39 -1.33,-4.37 -0.96,-4.36 -0.62,-4.26 -0.27,-4.15 0.04,-3.97 0.35,-3.79 0.61,-3.54 0.87,-3.28 1.07,-2.98 1.26,-2.67 1.38,-2.32 1.49,-1.98 1.52,-1.62 1.55,-1.25 1.49,-0.90 1.43,-0.54 1.29,-0.20 1.14,0.12 0.92,0.41 0.70,0.70 0.42,0.93 0.14,1.16 -0.18,1.31 -0.51,1.47 -0.86,1.54 -1.22,1.61 -1.64,-0.70 -2.06,-3.03 -1.59,-2.94 -1.12,-2.84 -0.71,-2.60 -0.29,-2.36 0.01,-2.00 0.33,-1.64 0.51,-1.20 0.70,-0.76 0.73,-0.28 0.76,0.18 0.64,0.65 0.52,1.11 0.26,1.51 0.00,1.91 -0.37,2.21 -0.74,2.50 -1.19,2.66 -1.64,2.82 -2.12,2.83 -2.60,2.84 -3.06,2.69 -3.51,2.55 -3.90,2.26 -4.28,1.98 -4.56,1.59 -4.83,1.20 -4.97,0.74 -5.10,0.28 -5.09,-0.19 -5.07,-0.67 -4.90,-1.11 -4.73,-1.56 -4.42,-1.93 -4.12,-2.30 -3.72,-2.55 -3.31,-2.81 -2.84,-2.92 -2.38,-3.03 -1.90,-2.98 -1.43,-2.94 -0.99,-2.74 -0.55,-2.55 -0.20,-2.23 0.14,-1.90 0.37,-1.49 0.61,-1.07 0.69,-0.60 0.78,-0.12 0.71,0.34 0.64,0.81 0.42,1.24 0.20,1.66 -0.13,2.00 -0.47,2.33 -0.90,2.54 -1.33,2.75 -1.81,2.81 -2.28,2.87 -2.28,2.87 -2.28,2.87 -3.70,-0.20 -5.11,-3.28 -3.40,-3.84 -1.69,-4.39 -1.33,-4.37 -0.96,-4.36 -0.62,-4.26 -0.27,-4.15 0.04,-3.97 0.35,-3.79 0.61,-3.54 0.87,-3.29 1.07,-2.98 1.26,-2.67 1.38,-2.32 1.49,-1.98 1.52,-1.62 1.55,-1.26 1.49,-0.90 1.43,-0.54 1.29,-0.20 1.14,0.12 0.92,0.41 0.70,0.70 0.42,0.93 0.14,1.16 -0.18,1.31 -0.51,1.47 -0.86,1.54 -1.22,1.61 -1.69,0.92 -2.16,0.22 -3.33,0.38 -4.51,0.55 -5.36,1.94 -6.22,3.34 -6.53,3.39 -6.84,3.44 -7.16,3.41 -7.47,3.38 -7.77,3.28 -8.07,3.18 -8.34,3.01 -8.60,2.84 -8.82,2.61 -9.04,2.38 -9.19,2.10 -9.35,1.83 -9.44,1.52 -9.52,1.22 -9.53,0.90 -9.54,0.58 -9.48,0.27 -9.41,-0.02 -9.27,-0.31 -9.14,-0.59 -8.93,-0.84 -8.73,-1.08 -8.48,-1.27 -8.22,-1.46 -7.93,-1.58 -7.64,-1.70 -6.91,-1.78 -6.17,-1.86 -4.82,-2.15 -3.47,-2.44 -1.73,-2.50 0,-2.56 0.30,-2.53 0.61,-2.49 0.90,-2.38 1.19,-2.27 1.44,-2.09 1.70,-1.92 1.90,-1.69 2.11,-1.45 2.25,-1.18 2.40,-0.91 2.47,-0.61 2.55,-0.30 2.55,0.00 2.55,0.30 2.47,0.61 2.40,0.91 2.25,1.18 2.11,1.45 1.90,1.69 1.70,1.92 1.44,2.09 1.19,2.27 0.90,2.38 0.61,2.49 0.30,2.53 -0.00,2.56 -0.00,2.56 L 0,2.56 Z"></path></g><g stroke-linecap="round"><g transform="translate(666 623.375) rotate(0 42 -21)"><path d="M-0.99 0.69 C12.94 -6.47, 69.48 -35.54, 83.47 -42.48 M0.69 0 C14.42 -7.03, 68.15 -34.07, 82.25 -41.2" stroke="#1864ab" stroke-width="1" fill="none"></path></g></g><g transform="translate(667 580.375) rotate(0 7 12.5)"><text x="0" y="18" font-family="Virgil, Segoe UI Emoji" font-size="20px" fill="#d9480f" text-anchor="start" style="white-space: pre;" direction="ltr">a</text></g><g transform="translate(733 555.375) rotate(0 5.5 12.5)"><text x="0" y="18" font-family="Virgil, Segoe UI Emoji" font-size="20px" fill="#d9480f" text-anchor="start" style="white-space: pre;" direction="ltr">b</text></g><g stroke-linecap="round"><g transform="translate(666 626.375) rotate(0 26.5 6.5)"><path d="M-0.48 -1.06 C8.41 1.07, 45.2 9.74, 54.02 12.22 M1.46 1 C10.23 3.31, 45.29 11.53, 53.61 13.35" stroke="#d9480f" stroke-width="1" fill="none"></path></g></g><g stroke-linecap="round"><g transform="translate(695 632.375) rotate(0 3 -11)"><path d="M-1.06 1.02 C-0.1 -1.32, 4.9 -10.55, 5.22 -14.55 C5.54 -18.55, 1.7 -21.75, 0.85 -22.98 M0.59 0.51 C1.98 -1.63, 7.54 -9.51, 7.53 -13.3 C7.52 -17.08, 1.72 -20.93, 0.53 -22.18" stroke="#d9480f" stroke-width="1" fill="none"></path></g></g><g transform="translate(671 631.875) rotate(0 37 12.5)"><text x="0" y="18" font-family="Virgil, Segoe UI Emoji" font-size="20px" fill="#d9480f" text-anchor="start" style="white-space: pre;" direction="ltr">B</text></g><g transform="translate(806 560.375) rotate(0 194 87.5)"><text x="0" y="18" font-family="Virgil, Segoe UI Emoji" font-size="20px" fill="#000" text-anchor="start" style="white-space: pre;" direction="ltr">Vb = Xa+iYa+abBe^i(B+pi/2) = Va +Vba</text><text x="0" y="43" font-family="Virgil, Segoe UI Emoji" font-size="20px" fill="#000" text-anchor="start" style="white-space: pre;" direction="ltr"></text><text x="0" y="68" font-family="Virgil, Segoe UI Emoji" font-size="20px" fill="#000" text-anchor="start" style="white-space: pre;" direction="ltr">G - B = cost</text><text x="0" y="93" font-family="Virgil, Segoe UI Emoji" font-size="20px" fill="#000" text-anchor="start" style="white-space: pre;" direction="ltr">G - B = 0 -&gt; G = B = ω</text><text x="0" y="118" font-family="Virgil, Segoe UI Emoji" font-size="20px" fill="#000" text-anchor="start" style="white-space: pre;" direction="ltr"></text><text x="0" y="143" font-family="Virgil, Segoe UI Emoji" font-size="20px" fill="#000" text-anchor="start" style="white-space: pre;" direction="ltr">Vba = ωk X (b - a)</text><text x="0" y="168" font-family="Virgil, Segoe UI Emoji" font-size="20px" fill="#000" text-anchor="start" style="white-space: pre;" direction="ltr">Vb = ω X (b - CIR)</text></g><g transform="translate(867 562.375) rotate(0 0.00004999999998744897 0.00005000000000165983)" stroke="none"><path fill="#000" d="M 1.57,-1.57 Q 1.57,-1.57 1.77,-1.27 1.98,-0.98 2.09,-0.64 2.20,-0.29 2.19,0.05 2.18,0.41 2.05,0.75 1.93,1.09 1.70,1.37 1.48,1.65 1.18,1.84 0.87,2.04 0.52,2.12 0.18,2.21 -0.17,2.18 -0.53,2.15 -0.86,2.01 -1.19,1.87 -1.46,1.63 -1.73,1.39 -1.90,1.07 -2.08,0.76 -2.15,0.41 -2.21,0.05 -2.17,-0.29 -2.12,-0.65 -1.96,-0.97 -1.80,-1.29 -1.54,-1.54 -1.29,-1.80 -0.97,-1.96 -0.65,-2.12 -0.29,-2.17 0.06,-2.21 0.41,-2.15 0.76,-2.08 1.07,-1.90 1.39,-1.73 1.63,-1.46 1.87,-1.19 2.01,-0.86 2.15,-0.53 2.18,-0.17 2.21,0.18 2.12,0.52 2.03,0.87 1.84,1.18 1.65,1.48 1.37,1.70 1.09,1.93 0.75,2.05 0.41,2.18 0.05,2.19 -0.30,2.20 -0.64,2.09 -0.98,1.98 -1.27,1.77 -1.57,1.56 -1.57,1.57 -1.57,1.57 -1.73,1.35 -1.90,1.14 -2.01,0.90 -2.12,0.66 -2.16,0.39 -2.21,0.13 -2.20,-0.13 -2.18,-0.40 -2.10,-0.65 -2.02,-0.91 -1.88,-1.14 -1.74,-1.36 -1.55,-1.55 -1.36,-1.74 -1.14,-1.88 -0.91,-2.02 -0.65,-2.10 -0.40,-2.18 -0.13,-2.20 0.13,-2.21 0.39,-2.16 0.66,-2.12 0.90,-2.01 1.14,-1.90 1.35,-1.73 1.57,-1.57 1.57,-1.57 L 1.57,-1.57 Z"></path></g><g transform="translate(908 558.375) rotate(0 0.00004999999998744897 0.00005000000000165983)" stroke="none"><path fill="#000" d="M 1.57,-1.57 Q 1.57,-1.57 1.77,-1.27 1.98,-0.98 2.09,-0.64 2.20,-0.29 2.19,0.05 2.18,0.41 2.05,0.75 1.93,1.09 1.70,1.37 1.48,1.65 1.18,1.84 0.87,2.04 0.52,2.12 0.18,2.21 -0.17,2.18 -0.53,2.15 -0.86,2.01 -1.19,1.87 -1.46,1.63 -1.73,1.39 -1.90,1.07 -2.08,0.76 -2.15,0.41 -2.21,0.05 -2.17,-0.29 -2.12,-0.65 -1.96,-0.97 -1.80,-1.29 -1.54,-1.54 -1.29,-1.80 -0.97,-1.96 -0.65,-2.12 -0.29,-2.17 0.06,-2.21 0.41,-2.15 0.76,-2.08 1.07,-1.90 1.39,-1.73 1.63,-1.46 1.87,-1.19 2.01,-0.86 2.15,-0.53 2.18,-0.17 2.21,0.18 2.12,0.52 2.03,0.87 1.84,1.18 1.65,1.48 1.37,1.70 1.09,1.93 0.75,2.05 0.41,2.18 0.05,2.19 -0.30,2.20 -0.64,2.09 -0.98,1.98 -1.27,1.77 -1.57,1.56 -1.57,1.57 -1.57,1.57 -1.73,1.35 -1.90,1.14 -2.01,0.90 -2.12,0.66 -2.16,0.39 -2.21,0.13 -2.20,-0.13 -2.18,-0.40 -2.10,-0.65 -2.02,-0.91 -1.88,-1.14 -1.74,-1.36 -1.55,-1.55 -1.36,-1.74 -1.14,-1.88 -0.91,-2.02 -0.65,-2.10 -0.40,-2.18 -0.13,-2.20 0.13,-2.21 0.39,-2.16 0.66,-2.12 0.90,-2.01 1.14,-1.90 1.35,-1.73 1.57,-1.57 1.57,-1.57 L 1.57,-1.57 Z"></path></g><g transform="translate(968 556.375) rotate(0 0 -0.5)" stroke="none"><path fill="#000" d="M -2.33,-0.57 Q -2.33,-0.57 -2.27,-0.94 -2.21,-1.32 -2.03,-1.65 -1.85,-1.98 -1.58,-2.24 -1.31,-2.50 -0.96,-2.66 -0.62,-2.82 -0.24,-2.86 0.12,-2.90 0.49,-2.82 0.86,-2.74 1.18,-2.54 1.51,-2.35 1.75,-2.06 2.00,-1.77 2.14,-1.42 2.28,-1.07 2.30,-0.69 2.32,-0.32 2.22,0.04 2.11,0.40 1.90,0.71 1.69,1.03 1.39,1.25 1.09,1.48 0.73,1.60 0.37,1.72 -0.00,1.72 -0.37,1.72 -0.73,1.60 -1.09,1.48 -1.39,1.25 -1.69,1.03 -1.90,0.71 -2.11,0.40 -2.22,0.04 -2.32,-0.32 -2.30,-0.70 -2.28,-1.07 -2.14,-1.42 -2.00,-1.77 -1.75,-2.06 -1.51,-2.35 -1.18,-2.54 -0.86,-2.74 -0.49,-2.82 -0.12,-2.90 0.24,-2.86 0.62,-2.82 0.96,-2.66 1.31,-2.50 1.58,-2.24 1.85,-1.98 2.03,-1.65 2.21,-1.31 2.27,-0.94 2.33,-0.57 2.33,-0.57 2.33,-0.57 2.37,-0.28 2.40,0.00 2.36,0.28 2.33,0.57 2.23,0.84 2.12,1.11 1.96,1.35 1.79,1.59 1.58,1.78 1.36,1.97 1.10,2.11 0.85,2.24 0.57,2.31 0.28,2.38 -0.00,2.38 -0.29,2.38 -0.57,2.31 -0.85,2.24 -1.11,2.11 -1.36,1.97 -1.58,1.78 -1.80,1.59 -1.96,1.35 -2.12,1.11 -2.23,0.84 -2.33,0.57 -2.33,-0.00 L -2.33,-0.57 Z"></path></g><g transform="translate(662 577.375) rotate(0 1 0)" stroke="none"><path fill="#000" d="M 2.12,-0.66 Q 2.12,-0.66 2.15,-0.13 2.18,0.40 1.96,0.88 1.74,1.36 1.32,1.69 0.91,2.02 0.38,2.12 -0.13,2.21 -0.64,2.05 -1.14,1.90 -1.52,1.52 -1.90,1.14 -2.05,0.64 -2.21,0.13 -2.12,-0.38 -2.02,-0.91 -1.69,-1.32 -1.36,-1.74 -0.88,-1.96 -0.39,-2.18 0.13,-2.15 0.66,-2.11 1.11,-1.84 1.57,-1.56 1.84,-1.11 L 2.12,-0.66 Z"></path></g><g stroke-linecap="round"><g transform="translate(662 623.375) rotate(0 1 -22.5)"><path d="M0.46 -0.83 C0.68 -8.4, 1.65 -37.32, 1.94 -44.67 M-0.76 1.35 C-0.76 -6.66, 0.58 -39.13, 0.96 -46.62" stroke="#1864ab" stroke-width="1" fill="none"></path></g></g><g stroke-linecap="round"><g transform="translate(682 627.375) rotate(0 -9.5 -11)"><path d="M-1.03 0.36 C-1.2 -1.99, 2.55 -9.33, -0.61 -13.25 C-3.77 -17.17, -16.78 -21.78, -19.99 -23.18 M0.62 -0.5 C0.83 -3.25, 4.82 -11.32, 1.78 -14.98 C-1.26 -18.64, -13.98 -21.58, -17.62 -22.48" stroke="#d9480f" stroke-width="1" fill="none"></path></g></g><g transform="translate(645 598.375) rotate(0 8.5 12.5)"><text x="0" y="18" font-family="Virgil, Segoe UI Emoji" font-size="20px" fill="#d9480f" text-anchor="start" style="white-space: pre;" direction="ltr">G</text></g><g transform="translate(857 634.375) rotate(0 0.00004999999998744897 0.00005000000000165983)" stroke="none"><path fill="#000" d="M 1.57,-1.57 Q 1.57,-1.57 1.77,-1.27 1.98,-0.98 2.09,-0.64 2.20,-0.29 2.19,0.05 2.18,0.41 2.05,0.75 1.93,1.09 1.70,1.37 1.48,1.65 1.18,1.84 0.87,2.04 0.52,2.12 0.18,2.21 -0.17,2.18 -0.53,2.15 -0.86,2.01 -1.19,1.87 -1.46,1.63 -1.73,1.39 -1.90,1.07 -2.08,0.76 -2.15,0.41 -2.21,0.05 -2.17,-0.29 -2.12,-0.65 -1.96,-0.97 -1.80,-1.29 -1.54,-1.54 -1.29,-1.80 -0.97,-1.96 -0.65,-2.12 -0.29,-2.17 0.06,-2.21 0.41,-2.15 0.76,-2.08 1.07,-1.90 1.39,-1.73 1.63,-1.46 1.87,-1.19 2.01,-0.86 2.15,-0.53 2.18,-0.17 2.21,0.18 2.12,0.52 2.03,0.87 1.84,1.18 1.65,1.48 1.37,1.70 1.09,1.93 0.75,2.05 0.41,2.18 0.05,2.19 -0.30,2.20 -0.64,2.09 -0.98,1.98 -1.27,1.77 -1.57,1.56 -1.57,1.57 -1.57,1.57 -1.73,1.35 -1.90,1.14 -2.01,0.90 -2.12,0.66 -2.16,0.39 -2.21,0.13 -2.20,-0.13 -2.18,-0.40 -2.10,-0.65 -2.02,-0.91 -1.88,-1.14 -1.74,-1.36 -1.55,-1.55 -1.36,-1.74 -1.14,-1.88 -0.91,-2.02 -0.65,-2.10 -0.40,-2.18 -0.13,-2.20 0.13,-2.21 0.39,-2.16 0.66,-2.12 0.90,-2.01 1.14,-1.90 1.35,-1.73 1.57,-1.57 1.57,-1.57 L 1.57,-1.57 Z"></path></g><g transform="translate(813 634.375) rotate(0 0.00004999999998744897 0.00005000000000165983)" stroke="none"><path fill="#000" d="M 1.57,-1.57 Q 1.57,-1.57 1.77,-1.27 1.98,-0.98 2.09,-0.64 2.20,-0.29 2.19,0.05 2.18,0.41 2.05,0.75 1.93,1.09 1.70,1.37 1.48,1.65 1.18,1.84 0.87,2.04 0.52,2.12 0.18,2.21 -0.17,2.18 -0.53,2.15 -0.86,2.01 -1.19,1.87 -1.46,1.63 -1.73,1.39 -1.90,1.07 -2.08,0.76 -2.15,0.41 -2.21,0.05 -2.17,-0.29 -2.12,-0.65 -1.96,-0.97 -1.80,-1.29 -1.54,-1.54 -1.29,-1.80 -0.97,-1.96 -0.65,-2.12 -0.29,-2.17 0.06,-2.21 0.41,-2.15 0.76,-2.08 1.07,-1.90 1.39,-1.73 1.63,-1.46 1.87,-1.19 2.01,-0.86 2.15,-0.53 2.18,-0.17 2.21,0.18 2.12,0.52 2.03,0.87 1.84,1.18 1.65,1.48 1.37,1.70 1.09,1.93 0.75,2.05 0.41,2.18 0.05,2.19 -0.30,2.20 -0.64,2.09 -0.98,1.98 -1.27,1.77 -1.57,1.56 -1.57,1.57 -1.57,1.57 -1.73,1.35 -1.90,1.14 -2.01,0.90 -2.12,0.66 -2.16,0.39 -2.21,0.13 -2.20,-0.13 -2.18,-0.40 -2.10,-0.65 -2.02,-0.91 -1.88,-1.14 -1.74,-1.36 -1.55,-1.55 -1.36,-1.74 -1.14,-1.88 -0.91,-2.02 -0.65,-2.10 -0.40,-2.18 -0.13,-2.20 0.13,-2.21 0.39,-2.16 0.66,-2.12 0.90,-2.01 1.14,-1.90 1.35,-1.73 1.57,-1.57 1.57,-1.57 L 1.57,-1.57 Z"></path></g><g stroke-linecap="round"><g transform="translate(912 525.375) rotate(0 24.5 18)"><path d="M0.14 0.34 C8.2 6.43, 40.77 31.33, 48.87 37.19 M-1.24 -0.53 C6.59 5.21, 39.67 29.51, 47.86 35.7" stroke="#d9480f" stroke-width="1" fill="none"></path></g><g transform="translate(912 525.375) rotate(0 24.5 18)"><path d="M19.68 26.9 C31.12 29.67, 38.33 33.71, 47.58 35.49 M19.69 27.44 C29.86 30.57, 40.25 33.29, 47.6 35.42" stroke="#d9480f" stroke-width="1" fill="none"></path></g><g transform="translate(912 525.375) rotate(0 24.5 18)"><path d="M31.92 10.43 C39.21 18.94, 42.16 28.68, 47.58 35.49 M31.93 10.97 C37.52 20.26, 43.27 29.22, 47.6 35.42" stroke="#d9480f" stroke-width="1" fill="none"></path></g></g><g transform="translate(896 510.375) rotate(0 7 12.5)"><text x="0" y="18" font-family="Virgil, Segoe UI Emoji" font-size="20px" fill="#d9480f" text-anchor="start" style="white-space: pre;" direction="ltr">ω</text></g><g stroke-linecap="round"><g transform="translate(1025 589.375) rotate(0 40.5 56)"><path d="M1.12 -1.04 C14.44 11.54, 72.55 57.59, 80.54 76.42 C88.52 95.24, 54.5 105.95, 49.05 111.93 M0.24 1.03 C13.32 13.16, 71.23 55.82, 79.34 74.51 C87.45 93.21, 54.12 106.71, 48.9 113.21" stroke="#d9480f" stroke-width="1" fill="none"></path></g><g transform="translate(1025 589.375) rotate(0 40.5 56)"><path d="M60.69 92.04 C58.57 102.01, 53.05 107.05, 49.33 111.97 M62.24 93.46 C57.04 100.53, 51.36 107.38, 48.14 112.87" stroke="#d9480f" stroke-width="1" fill="none"></path></g><g transform="translate(1025 589.375) rotate(0 40.5 56)"><path d="M70.64 105.5 C64.94 110.88, 55.95 111.23, 49.33 111.97 M72.18 106.92 C63.28 108.8, 53.84 110.57, 48.14 112.87" stroke="#d9480f" stroke-width="1" fill="none"></path></g></g><g transform="translate(1028 725.375) rotate(0 12 12.5)"><text x="0" y="18" font-family="Virgil, Segoe UI Emoji" font-size="20px" fill="#d9480f" text-anchor="start" style="white-space: pre;" direction="ltr">ωk</text></g><g stroke-linecap="round"><g transform="translate(1039 725.375) rotate(0 7 0)"><path d="M-0.73 -0.68 C1.69 -0.51, 12.54 1.05, 14.85 1.06 M1.08 1.58 C3.4 1.44, 11.93 -0.31, 14.35 -0.5" stroke="#d9480f" stroke-width="1" fill="none"></path></g></g><g transform="translate(1057 715.375) rotate(0 63 25)"><text x="0" y="18" font-family="Virgil, Segoe UI Emoji" font-size="20px" fill="#000000" text-anchor="start" style="white-space: pre;" direction="ltr">regola mano </text><text x="0" y="43" font-family="Virgil, Segoe UI Emoji" font-size="20px" fill="#000000" text-anchor="start" style="white-space: pre;" direction="ltr">destra</text></g><g stroke-linecap="round"><g transform="translate(806 681.375) rotate(0 6.5 0)"><path d="M0.85 0.62 C3.01 0.67, 10.48 0.88, 12.66 0.76 M-0.16 -0.1 C1.84 -0.43, 9.23 -1.18, 11.53 -0.97" stroke="#000" stroke-width="1" fill="none"></path></g></g><g stroke-linecap="round"><g transform="translate(881 682.375) rotate(0 6.5 0)"><path d="M1.18 1.1 C3.28 1.18, 11.07 0.3, 13.23 0.05 M0.34 0.63 C2.25 0.96, 10.13 1.6, 12.4 1.61" stroke="#000" stroke-width="1" fill="none"></path></g></g><g stroke-linecap="round"><g transform="translate(856 712.375) rotate(0 8.5 0)"><path d="M0.33 1.12 C3.09 1.12, 14.46 0.59, 17.39 0.57 M-0.96 0.66 C1.61 0.26, 13.54 -1, 16.65 -1.26" stroke="#000" stroke-width="1" fill="none"></path></g></g><g stroke-linecap="round"><g transform="translate(805 709.375) rotate(0 8 -0.5)"><path d="M0.07 -1.05 C2.7 -1.22, 13.53 -1.29, 16.08 -1.13 M-1.35 1.02 C1.09 1.04, 12.57 0.84, 15.18 0.33" stroke="#000" stroke-width="1" fill="none"></path></g></g><g stroke-linecap="round"><g transform="translate(758 579.375) rotate(0 -32.5 -25)"><path d="M0.95 0.19 C-9.65 -8.13, -52.99 -42.63, -63.93 -50.91 M-0.01 -0.75 C-10.64 -8.87, -53.43 -41.39, -64.32 -49.84" stroke="#d9480f" stroke-width="1" fill="none"></path></g><g transform="translate(758 579.375) rotate(0 -32.5 -25)"><path d="M-35.38 -39.04 C-44.92 -42.59, -50.27 -43.52, -66.13 -48.26 M-35.41 -40.47 C-44.96 -42.97, -54.41 -46.45, -65.22 -49.6" stroke="#d9480f" stroke-width="1" fill="none"></path></g><g transform="translate(758 579.375) rotate(0 -32.5 -25)"><path d="M-47.87 -22.76 C-53.89 -30.83, -55.85 -36.19, -66.13 -48.26 M-47.9 -24.19 C-53.45 -31.87, -58.86 -40.61, -65.22 -49.6" stroke="#d9480f" stroke-width="1" fill="none"></path></g></g><g transform="translate(724 512.375) rotate(0 17.5 12.5)"><text x="0" y="18" font-family="Virgil, Segoe UI Emoji" font-size="20px" fill="#d9480f" text-anchor="start" style="white-space: pre;" direction="ltr">Vba</text></g><g stroke-linecap="round"><g transform="translate(722 512.375) rotate(0 8.5 0.5)"><path d="M0.83 -1.03 C3.75 -1.25, 15.02 -0.44, 17.64 -0.11 M-0.2 1.04 C2.62 1.44, 14.4 0.64, 17.02 0.85" stroke="#d9480f" stroke-width="1" fill="none"></path></g></g></svg>