<svg version="1.1" xmlns="http://www.w3.org/2000/svg" viewBox="0 0 10020 727.796875" width="10020" height="727.796875">
  <!-- svg-source:excalidraw -->
  
  <defs>
    <style>
      @font-face {
        font-family: "Virgil";
        src: url("https://excalidraw.com/Virgil.woff2");
      }
      @font-face {
        font-family: "Cascadia";
        src: url("https://excalidraw.com/Cascadia.woff2");
      }
    </style>
  </defs>
  <rect x="0" y="0" width="10020" height="727.796875" fill="#fff0"></rect><g stroke-linecap="round" transform="translate(10 10) rotate(0 5000 0.5)"><path d="M-0.52 -0.26 C3022.65 -30.2, 6044.59 -29.2, 9999.32 0.22 M0.38 -0.31 C3948.03 -0.44, 7895.41 0.2, 9999.95 0.08 M10000.08 -0.06 C10000.09 0.27, 10000.05 0.48, 10000.09 0.92 M9999.97 0.01 C9999.95 0.33, 9999.98 0.72, 10000 0.99 M10000.22 1.51 C7095.77 35.76, 4193.15 34.95, -0.25 0.75 M10000.01 1.13 C7827.97 2.74, 5656.23 3.35, -0.33 0.84 M-0.04 1.01 C0 0.63, -0.06 0.15, 0.05 -0.03 M-0.04 0.95 C-0.04 0.73, -0.03 0.59, -0.05 -0.02" stroke="transparent" stroke-width="1" fill="none"></path></g><g stroke-linecap="round"><g transform="translate(638.453125 625.796875) rotate(0 113.5 -1)"><path d="M0.59 0.08 C38.41 -0.27, 190.16 -2.64, 227.78 -3 M-0.56 -0.92 C37.1 -1.07, 189.01 -2.01, 227.24 -1.99" stroke="#000" stroke-width="1" fill="none"></path></g></g><g stroke-linecap="round" transform="translate(684.453125 543.796875) rotate(0 64.5 45.5)"><path d="M58.51 0.16 C68.62 -1.24, 82.48 0.43, 92.18 3.66 C101.89 6.89, 110.51 13.23, 116.73 19.53 C122.95 25.83, 128.41 33.87, 129.49 41.46 C130.58 49.05, 127.97 58.09, 123.24 65.08 C118.5 72.07, 109.91 79.18, 101.07 83.4 C92.23 87.62, 80.96 89.94, 70.19 90.4 C59.42 90.85, 46.11 89.32, 36.44 86.13 C26.78 82.94, 18.26 77.17, 12.23 71.24 C6.19 65.3, 1.32 58.11, 0.24 50.52 C-0.84 42.94, 1.14 32.84, 5.76 25.73 C10.37 18.61, 18.8 12.26, 27.95 7.83 C37.1 3.4, 54.91 0.26, 60.65 -0.85 C66.39 -1.95, 62.31 0.3, 62.41 1.2 M62.73 1.47 C73.08 0.54, 85.43 1.94, 95.1 5.38 C104.78 8.81, 114.98 15.41, 120.79 22.09 C126.6 28.77, 129.68 37.94, 129.96 45.47 C130.23 52.99, 127.56 60.68, 122.45 67.25 C117.33 73.83, 108.36 80.88, 99.25 84.9 C90.15 88.93, 78.66 91.28, 67.81 91.41 C56.96 91.55, 43.88 89.23, 34.14 85.73 C24.41 82.24, 14.87 77.14, 9.4 70.45 C3.94 63.76, 1.85 53.55, 1.34 45.58 C0.84 37.61, 1.65 28.87, 6.37 22.61 C11.09 16.36, 20.47 12, 29.67 8.07 C38.87 4.14, 56.27 0.1, 61.59 -0.96 C66.91 -2.03, 61.35 0.96, 61.6 1.67" stroke="#000" stroke-width="1" fill="none"></path></g><g stroke-linecap="round"><g transform="translate(840.453125 583.796875) rotate(0 -5 15.5)"><path d="M-0.21 0.79 C-0.39 4.09, 0.85 15.08, -0.95 19.93 C-2.75 24.79, -9.42 27.89, -11.04 29.9 M-1.78 0.16 C-2.04 3.56, -0.2 15.83, -1.35 20.91 C-2.5 25.99, -7.11 29.13, -8.69 30.64" stroke="#000" stroke-width="1" fill="none"></path></g><g transform="translate(840.453125 583.796875) rotate(0 -5 15.5)"><path d="M-5.19 25.59 C-7.12 26.21, -8.09 28.13, -8.16 30.26 M-5.52 24.76 C-6.56 26.13, -6.94 27.71, -8.93 30.73" stroke="#000" stroke-width="1" fill="none"></path></g><g transform="translate(840.453125 583.796875) rotate(0 -5 15.5)"><path d="M-2.3 28.89 C-5.13 28.48, -7 29.38, -8.16 30.26 M-2.64 28.05 C-4.33 28.66, -5.39 29.48, -8.93 30.73" stroke="#000" stroke-width="1" fill="none"></path></g></g><g transform="translate(865.453125 577.796875) rotate(0 7 12.5)"><text x="0" y="18" font-family="Virgil, Segoe UI Emoji" font-size="20px" fill="#000" text-anchor="start" style="white-space: pre;" direction="ltr">ω</text></g><g stroke-linecap="round"><g transform="translate(774.7568932646234 683.3795016095042) rotate(0 -0.6518841323116931 -23.79131330475211)"><path d="M0.5 -0.42 C0.52 -8.3, -0.22 -40.42, -0.33 -48.13 M-0.7 -1.68 C-0.71 -9.33, -0.82 -39.06, -0.77 -46.88" stroke="#1864ab" stroke-width="1" fill="none"></path></g><g transform="translate(774.7568932646234 683.3795016095042) rotate(0 -0.6518841323116931 -23.79131330475211)"><path d="M6.66 -22.9 C4.47 -28.5, 4.72 -36.98, -1.43 -45.66 M7.04 -25.14 C5.97 -30.55, 3.55 -35.86, -0.51 -47.36" stroke="#1864ab" stroke-width="1" fill="none"></path></g><g transform="translate(774.7568932646234 683.3795016095042) rotate(0 -0.6518841323116931 -23.79131330475211)"><path d="M-9.62 -22.91 C-7.55 -28.58, -3.05 -37.05, -1.43 -45.66 M-9.24 -25.15 C-6.41 -30.45, -4.92 -35.76, -0.51 -47.36" stroke="#1864ab" stroke-width="1" fill="none"></path></g></g><g stroke-linecap="round"><g transform="translate(749.453125 678.796875) rotate(0 -1 -80)"><path d="M-0.87 -0.79 C-1.28 -27.28, -1.54 -133.31, -1.72 -159.91 M0.88 1.41 C0.27 -24.79, -1.93 -131.55, -2.52 -158.32" stroke="#000000" stroke-width="1" fill="none"></path></g></g><g stroke-linecap="round"><g transform="translate(745.453125 676.796875) rotate(0 15 0)"><path d="M-0.12 -0.08 C4.86 0.12, 26.13 0.57, 31.08 0.47 M-1.64 -1.16 C3.18 -1.26, 25.66 -1.64, 30.69 -1.4" stroke="#d9480f" stroke-width="1" fill="none"></path></g><g transform="translate(745.453125 676.796875) rotate(0 15 0)"><path d="M16.46 4.95 C22.83 1.07, 27.04 -0.26, 32.17 -0.79 M16.2 2.96 C21.58 1.3, 25.45 0.53, 30.29 -0.82" stroke="#d9480f" stroke-width="1" fill="none"></path></g><g transform="translate(745.453125 676.796875) rotate(0 15 0)"><path d="M16.55 -5.31 C22.82 -5.09, 27 -2.32, 32.17 -0.79 M16.29 -7.3 C21.73 -5.55, 25.57 -2.9, 30.29 -0.82" stroke="#d9480f" stroke-width="1" fill="none"></path></g></g><g transform="translate(737.453125 692.796875) rotate(0 45 12.5)"><text x="0" y="18" font-family="Virgil, Segoe UI Emoji" font-size="20px" fill="#d9480f" text-anchor="start" style="white-space: pre;" direction="ltr">u = Fv R</text></g><g transform="translate(792.453125 649.796875) rotate(0 7 12.5)"><text x="0" y="18" font-family="Virgil, Segoe UI Emoji" font-size="20px" fill="#1864ab" text-anchor="start" style="white-space: pre;" direction="ltr">N</text></g></svg>