<svg version="1.1" xmlns="http://www.w3.org/2000/svg" viewBox="0 0 10020 706.59375" width="10020" height="706.59375">
  <!-- svg-source:excalidraw -->
  
  <defs>
    <style>
      @font-face {
        font-family: "Virgil";
        src: url("https://excalidraw.com/Virgil.woff2");
      }
      @font-face {
        font-family: "Cascadia";
        src: url("https://excalidraw.com/Cascadia.woff2");
      }
    </style>
  </defs>
  <rect x="0" y="0" width="10020" height="706.59375" fill="#fff0"></rect><g stroke-linecap="round" transform="translate(10 10) rotate(0 5000 0.5)"><path d="M-0.52 -0.26 C3022.65 -30.2, 6044.59 -29.2, 9999.32 0.22 M0.38 -0.31 C3948.03 -0.44, 7895.41 0.2, 9999.95 0.08 M10000.08 -0.06 C10000.09 0.27, 10000.05 0.48, 10000.09 0.92 M9999.97 0.01 C9999.95 0.33, 9999.98 0.72, 10000 0.99 M10000.22 1.51 C7095.77 35.76, 4193.15 34.95, -0.25 0.75 M10000.01 1.13 C7827.97 2.74, 5656.23 3.35, -0.33 0.84 M-0.04 1.01 C0 0.63, -0.06 0.15, 0.05 -0.03 M-0.04 0.95 C-0.04 0.73, -0.03 0.59, -0.05 -0.02" stroke="transparent" stroke-width="1" fill="none"></path></g><g transform="translate(538 668.09375) rotate(0 2.5 1)" stroke="none"><path fill="#000000" d="M -1.84,-1.84 Q -1.84,-1.84 -0.98,-2.72 -0.12,-3.60 0.79,-4.22 1.72,-4.83 3.19,-5.00 4.66,-5.16 4.27,-5.11 3.88,-5.07 4.22,-5.12 4.56,-5.17 4.90,-5.14 5.25,-5.11 5.57,-4.99 5.89,-4.88 6.18,-4.69 6.47,-4.50 6.70,-4.25 6.94,-4.00 7.11,-3.70 7.27,-3.40 7.37,-3.07 7.46,-2.74 7.47,-2.40 7.48,-2.06 7.40,-1.72 7.33,-1.38 7.18,-1.08 7.03,-0.77 6.81,-0.50 6.59,-0.24 6.31,-0.04 6.03,0.15 5.71,0.28 5.40,0.41 4.00,1.70 2.60,2.98 1.03,3.63 -0.53,4.28 -1.95,4.42 -3.38,4.56 -3.11,4.47 -2.85,4.39 -3.23,4.43 -3.60,4.48 -3.98,4.43 -4.36,4.38 -4.71,4.25 -5.07,4.11 -5.38,3.89 -5.69,3.68 -5.94,3.39 -6.20,3.10 -6.37,2.77 -6.55,2.43 -6.64,2.06 -6.73,1.69 -6.72,1.31 -6.72,0.93 -6.63,0.56 -6.54,0.19 -6.36,-0.13 -6.18,-0.47 -5.93,-0.75 -5.67,-1.04 -5.36,-1.25 -5.05,-1.47 -4.69,-1.60 -4.33,-1.73 -3.24,-1.92 -2.15,-2.11 -1.23,-2.43 -0.31,-2.75 0.05,-2.87 0.42,-2.98 0.81,-3.01 1.20,-3.03 1.58,-2.96 1.96,-2.89 2.32,-2.74 2.67,-2.58 2.98,-2.34 3.29,-2.10 3.53,-1.79 3.77,-1.49 3.93,-1.13 4.09,-0.78 4.16,-0.40 4.23,-0.02 4.21,0.36 4.19,0.75 4.07,1.12 3.96,1.49 3.76,1.83 3.56,2.16 3.29,2.44 3.01,2.71 2.68,2.92 2.35,3.12 3.23,2.09 4.12,1.07 3.58,2.22 3.04,3.38 1.76,4.82 0.48,6.25 0.18,6.81 -0.12,7.37 -0.49,7.53 -0.87,7.68 -1.27,7.74 -1.67,7.80 -2.07,7.77 -2.48,7.73 -2.86,7.60 -3.24,7.47 -3.58,7.25 -3.92,7.03 -4.20,6.73 -4.48,6.43 -4.68,6.08 -4.88,5.73 -4.99,5.34 -5.09,4.95 -5.11,4.54 -5.12,4.14 -5.03,3.74 -4.95,3.34 -4.77,2.98 -4.59,2.61 -4.33,2.30 -4.07,1.99 -3.75,1.75 -3.42,1.51 -4.17,3.56 -4.92,5.61 -4.57,3.70 -4.23,1.80 -2.74,0.78 -1.25,-0.23 0.31,-0.79 1.87,-1.35 3.03,-1.41 4.19,-1.47 5.33,-1.45 6.48,-1.44 7.72,-0.96 8.97,-0.48 9.49,-0.36 10.01,-0.23 10.35,0.01 10.69,0.27 10.96,0.60 11.23,0.92 11.41,1.31 11.59,1.69 11.68,2.11 11.77,2.52 11.75,2.95 11.73,3.37 11.62,3.78 11.50,4.19 11.29,4.56 11.08,4.92 10.79,5.23 10.49,5.54 10.13,5.77 9.78,5.99 9.37,6.13 8.97,6.26 8.55,6.30 8.12,6.34 7.70,6.27 7.29,6.20 6.89,6.04 6.50,5.87 8.31,5.84 10.11,5.81 8.98,6.16 7.84,6.52 6.63,6.53 5.41,6.55 1.89,5.08 -1.61,3.61 -1.86,3.11 -2.10,2.62 -2.18,2.07 -2.25,1.52 -2.14,0.98 -2.04,0.43 -1.77,-0.04 -1.49,-0.52 -1.08,-0.89 -0.67,-1.25 -0.16,-1.47 0.34,-1.69 0.89,-1.73 1.44,-1.78 1.98,-1.64 2.52,-1.51 2.98,-1.21 3.45,-0.91 3.79,-0.48 4.14,-0.04 4.33,0.47 4.52,0.99 4.53,1.54 4.54,2.09 4.38,2.62 4.22,3.15 3.89,3.60 3.57,4.04 3.12,4.37 2.67,4.69 2.14,4.85 1.61,5.01 1.06,4.99 0.50,4.98 -0.00,4.79 -0.52,4.59 -0.95,4.25 -1.38,3.90 -1.68,3.43 -1.98,2.96 -2.11,2.43 -2.24,1.89 -2.19,1.34 -2.15,0.79 -1.93,0.28 -1.71,-0.22 -1.34,-0.63 -0.97,-1.04 -0.49,-1.31 -0.00,-1.58 0.53,-1.68 1.07,-1.79 1.62,-1.71 2.17,-1.63 2.66,-1.39 3.16,-1.14 3.55,-0.75 3.94,-0.36 3.94,-0.36 3.94,-0.36 2.98,0.05 2.03,0.46 4.06,0.24 6.10,0.03 8.05,-0.10 10.01,-0.23 10.35,0.01 10.69,0.27 10.96,0.59 11.23,0.92 11.41,1.31 11.59,1.69 11.68,2.11 11.77,2.52 11.75,2.95 11.74,3.37 11.62,3.78 11.50,4.19 11.29,4.55 11.08,4.92 10.79,5.23 10.49,5.54 10.13,5.77 9.78,5.99 9.37,6.13 8.97,6.26 8.55,6.30 8.12,6.34 7.70,6.27 7.29,6.20 6.89,6.04 6.50,5.87 5.90,5.69 5.29,5.50 3.97,5.51 2.66,5.52 1.49,5.36 0.32,5.21 0.71,3.98 1.11,2.76 0.49,5.07 -0.12,7.37 -0.49,7.53 -0.87,7.68 -1.27,7.74 -1.67,7.80 -2.07,7.77 -2.47,7.73 -2.86,7.60 -3.24,7.47 -3.58,7.25 -3.92,7.03 -4.20,6.73 -4.48,6.44 -4.68,6.08 -4.88,5.73 -4.99,5.34 -5.09,4.95 -5.11,4.54 -5.12,4.14 -5.03,3.74 -4.95,3.34 -4.77,2.98 -4.59,2.61 -4.33,2.30 -4.07,1.99 -3.75,1.75 -3.42,1.51 -2.76,0.87 -2.10,0.23 -1.21,-1.25 -0.31,-2.75 0.05,-2.87 0.42,-2.98 0.81,-3.01 1.20,-3.03 1.58,-2.96 1.96,-2.89 2.32,-2.74 2.67,-2.58 2.98,-2.34 3.29,-2.10 3.53,-1.79 3.77,-1.49 3.93,-1.13 4.09,-0.78 4.16,-0.40 4.23,-0.02 4.21,0.36 4.19,0.75 4.07,1.12 3.96,1.49 3.76,1.83 3.56,2.16 3.29,2.44 3.01,2.71 2.68,2.92 2.35,3.12 2.98,2.15 3.62,1.19 1.76,2.68 -0.09,4.18 -1.47,4.29 -2.85,4.39 -3.23,4.43 -3.60,4.48 -3.98,4.43 -4.36,4.38 -4.71,4.25 -5.07,4.11 -5.38,3.89 -5.69,3.68 -5.94,3.39 -6.20,3.10 -6.37,2.77 -6.55,2.43 -6.64,2.06 -6.73,1.69 -6.72,1.31 -6.72,0.93 -6.63,0.56 -6.54,0.19 -6.36,-0.13 -6.18,-0.47 -5.93,-0.75 -5.68,-1.04 -5.36,-1.25 -5.05,-1.47 -4.69,-1.60 -4.34,-1.73 -3.66,-1.55 -2.99,-1.36 -1.68,-1.81 -0.37,-2.26 0.79,-2.60 1.97,-2.94 2.92,-4.00 3.88,-5.07 4.22,-5.12 4.56,-5.17 4.90,-5.14 5.25,-5.11 5.57,-4.99 5.89,-4.88 6.18,-4.69 6.47,-4.50 6.70,-4.25 6.94,-4.00 7.11,-3.70 7.27,-3.40 7.37,-3.07 7.46,-2.74 7.47,-2.40 7.48,-2.06 7.40,-1.72 7.33,-1.38 7.18,-1.08 7.03,-0.77 6.81,-0.51 6.59,-0.24 6.31,-0.04 6.03,0.15 5.71,0.28 5.40,0.41 4.48,0.28 3.57,0.15 2.70,1.00 1.84,1.84 1.59,2.04 1.35,2.23 1.06,2.36 0.77,2.49 0.46,2.55 0.15,2.60 -0.15,2.58 -0.47,2.56 -0.77,2.47 -1.07,2.38 -1.34,2.21 -1.61,2.05 -1.83,1.83 -2.05,1.61 -2.21,1.34 -2.38,1.07 -2.47,0.77 -2.56,0.47 -2.58,0.15 -2.60,-0.15 -2.55,-0.46 -2.49,-0.77 -2.36,-1.06 -2.23,-1.35 -2.04,-1.59 -1.84,-1.84 -1.84,-1.84 L -1.84,-1.84 Z"></path></g><g transform="translate(678 570.09375) rotate(0 -3.5 0)" stroke="none"><path fill="#000000" d="M -1.47,2.21 Q -1.47,2.21 -2.57,1.29 -3.67,0.37 -4.15,-1.14 -4.63,-2.66 -4.23,-4.00 -3.84,-5.33 -1.51,-6.02 0.81,-6.71 2.01,-5.44 3.21,-4.17 4.11,-2.65 5.01,-1.12 4.82,0.60 4.64,2.33 3.28,4.03 1.93,5.73 -0.18,6.06 -2.29,6.39 -3.25,5.82 -4.22,5.25 -5.52,3.42 -6.83,1.60 -6.61,-0.19 -6.39,-1.98 -6.12,-2.17 -5.85,-2.35 -5.70,-2.73 -5.55,-3.12 -5.31,-3.45 -5.08,-3.79 -4.77,-4.06 -4.46,-4.33 -4.09,-4.52 -3.73,-4.70 -3.33,-4.80 -2.93,-4.89 -2.52,-4.89 -2.10,-4.89 -1.71,-4.79 -1.31,-4.68 -0.95,-4.49 -0.58,-4.30 -0.28,-4.02 0.02,-3.75 0.25,-3.41 0.48,-3.07 0.62,-2.68 0.76,-2.30 0.81,-1.89 0.85,-1.48 0.80,-1.07 0.75,-0.66 0.66,1.35 0.56,3.38 -0.15,4.47 -0.87,5.56 -2.42,6.70 -3.97,7.84 -6.12,8.00 -8.27,8.16 -9.83,6.33 -11.38,4.49 -11.18,3.18 -10.97,1.87 -9.99,1.00 -9.00,0.12 -8.07,-0.71 -7.14,-1.55 -4.94,-2.22 -2.74,-2.90 -2.21,-2.89 -1.68,-2.89 -1.18,-2.71 -0.67,-2.54 -0.26,-2.21 0.15,-1.88 0.45,-1.44 0.74,-1.00 0.88,-0.48 1.01,0.02 0.98,0.55 0.94,1.08 0.74,1.57 0.54,2.06 0.19,2.46 -0.15,2.86 -0.61,3.13 -1.07,3.40 -1.59,3.51 -2.11,3.62 -2.63,3.55 -3.16,3.49 -3.64,3.26 -4.12,3.03 -4.50,2.66 -4.88,2.29 -5.13,1.82 -5.37,1.35 -5.45,0.82 -5.53,0.30 -5.44,-0.21 -5.35,-0.74 -5.09,-1.20 -4.84,-1.67 -4.45,-2.03 -4.06,-2.39 -3.57,-2.61 -3.09,-2.83 -2.56,-2.88 -2.03,-2.93 -1.51,-2.81 -0.99,-2.69 -0.54,-2.41 -0.09,-2.13 0.24,-1.72 0.58,-1.31 0.77,-0.82 0.96,-0.32 0.98,0.20 1.00,0.73 0.86,1.24 0.71,1.75 0.40,2.19 0.10,2.62 -0.32,2.94 -0.74,3.26 -1.25,3.42 -1.75,3.58 -1.75,3.58 -1.75,3.58 -2.34,3.78 -2.93,3.98 -4.28,4.14 -5.62,4.30 -6.51,3.01 -7.40,1.72 -6.42,1.11 -5.44,0.50 -5.64,-0.92 -5.85,-2.35 -5.70,-2.73 -5.55,-3.12 -5.31,-3.45 -5.08,-3.79 -4.77,-4.06 -4.46,-4.33 -4.09,-4.52 -3.73,-4.70 -3.33,-4.80 -2.93,-4.89 -2.52,-4.89 -2.11,-4.89 -1.71,-4.79 -1.31,-4.68 -0.95,-4.49 -0.58,-4.30 -0.28,-4.02 0.02,-3.75 0.25,-3.41 0.48,-3.07 0.62,-2.68 0.76,-2.30 0.81,-1.89 0.85,-1.48 0.80,-1.07 0.75,-0.66 0.21,-0.30 -0.31,0.05 -1.15,-1.21 -1.98,-2.48 -0.88,-2.58 0.22,-2.67 0.84,-2.44 1.47,-2.21 1.71,-2.00 1.96,-1.79 2.14,-1.53 2.33,-1.27 2.45,-0.97 2.57,-0.67 2.61,-0.36 2.65,-0.04 2.62,0.27 2.59,0.59 2.48,0.89 2.37,1.19 2.19,1.46 2.01,1.73 1.78,1.94 1.54,2.16 1.26,2.31 0.98,2.47 0.67,2.55 0.36,2.63 0.04,2.64 -0.27,2.64 -0.59,2.57 -0.90,2.50 -1.18,2.35 -1.47,2.21 -1.47,2.21 L -1.47,2.21 Z"></path></g><g transform="translate(513 673.09375) rotate(0 6 -1.5)" stroke="none"><path fill="#1864ab" d="M -1.15,-2.31 Q -1.15,-2.31 -0.00,-2.90 1.14,-3.49 2.49,-3.86 3.83,-4.23 4.99,-4.38 6.16,-4.53 8.84,-5.17 11.53,-5.80 11.99,-5.75 12.44,-5.70 12.85,-5.50 13.27,-5.31 13.60,-4.99 13.93,-4.68 14.14,-4.27 14.35,-3.87 14.42,-3.42 14.50,-2.96 14.42,-2.51 14.34,-2.06 14.13,-1.66 13.91,-1.26 13.58,-0.94 13.24,-0.63 12.83,-0.44 12.41,-0.25 11.96,-0.20 11.50,-0.16 11.06,-0.26 10.61,-0.36 10.22,-0.60 9.83,-0.83 9.54,-1.18 9.24,-1.53 9.07,-1.96 8.91,-2.39 8.88,-2.84 8.86,-3.30 8.99,-3.74 9.11,-4.18 9.37,-4.56 9.63,-4.93 9.99,-5.21 10.36,-5.48 10.79,-5.63 11.23,-5.77 11.68,-5.77 12.14,-5.77 12.57,-5.62 13.01,-5.47 13.37,-5.19 13.73,-4.91 13.99,-4.53 14.24,-4.15 14.36,-3.71 14.48,-3.27 14.45,-2.81 14.43,-2.36 14.26,-1.93 14.08,-1.51 13.79,-1.16 13.49,-0.82 13.10,-0.58 12.70,-0.35 12.26,-0.25 11.81,-0.16 11.81,-0.16 11.81,-0.16 10.44,-0.06 9.07,0.02 7.94,0.43 6.80,0.84 5.12,1.01 3.45,1.19 2.30,1.75 1.15,2.31 0.86,2.42 0.57,2.52 0.25,2.56 -0.05,2.59 -0.36,2.54 -0.67,2.50 -0.96,2.38 -1.25,2.27 -1.50,2.08 -1.75,1.90 -1.96,1.66 -2.16,1.43 -2.30,1.15 -2.44,0.87 -2.51,0.56 -2.57,0.26 -2.57,-0.05 -2.56,-0.36 -2.48,-0.66 -2.40,-0.96 -2.25,-1.24 -2.10,-1.51 -1.89,-1.74 -1.68,-1.97 -1.42,-2.14 -1.15,-2.31 -1.15,-2.31 L -1.15,-2.31 Z"></path></g><g transform="translate(521 682.09375) rotate(0 1 -2.5)" stroke="none"><path fill="#1864ab" d="M -2.30,-0.76 Q -2.30,-0.76 -2.05,-1.65 -1.81,-2.53 0.67,-1.64 3.16,-0.75 2.94,-0.39 2.71,-0.03 2.38,0.23 2.05,0.50 1.65,0.65 1.26,0.80 0.83,0.82 0.41,0.83 0.00,0.71 -0.40,0.59 -0.75,0.35 -1.09,0.10 -1.35,-0.23 -1.60,-0.57 -1.73,-0.98 -1.86,-1.38 -1.85,-1.81 -1.84,-2.23 -1.70,-2.64 -1.56,-3.04 -1.29,-3.37 -1.03,-3.70 -0.67,-3.94 -0.32,-4.17 0.08,-4.28 0.50,-4.38 0.92,-4.35 1.35,-4.32 1.74,-4.16 2.13,-3.99 2.45,-3.71 2.77,-3.43 2.98,-3.06 3.19,-2.70 3.28,-2.28 3.36,-1.86 3.31,-1.44 3.26,-1.02 3.07,-0.63 2.89,-0.25 2.59,0.04 2.29,0.35 1.91,0.54 1.53,0.73 1.11,0.79 0.69,0.85 0.27,0.78 -0.14,0.70 -0.51,0.50 -0.88,0.29 -1.17,-0.01 -1.46,-0.33 -1.63,-0.72 -1.80,-1.11 -1.84,-1.53 -1.88,-1.95 -1.78,-2.37 -1.68,-2.78 -1.68,-2.78 -1.68,-2.78 0.63,-1.84 2.96,-0.91 2.63,-0.07 2.30,0.76 2.17,1.03 2.05,1.29 1.86,1.52 1.68,1.74 1.44,1.92 1.21,2.10 0.94,2.21 0.67,2.32 0.38,2.37 0.09,2.42 -0.19,2.40 -0.48,2.37 -0.76,2.28 -1.03,2.19 -1.28,2.03 -1.53,1.87 -1.73,1.66 -1.93,1.45 -2.08,1.20 -2.23,0.95 -2.31,0.67 -2.39,0.38 -2.40,0.09 -2.41,-0.19 -2.35,-0.48 -2.30,-0.76 -2.30,-0.76 L -2.30,-0.76 Z"></path></g><g transform="translate(527 688.09375) rotate(0 3.5 -1.5)" stroke="none"><path fill="#1864ab" d="M 2.22,-1.48 Q 2.22,-1.48 2.73,-0.71 3.24,0.06 3.54,-1.22 3.84,-2.50 3.84,-3.89 3.84,-5.28 3.93,-5.78 4.02,-6.28 4.26,-6.73 4.50,-7.18 4.87,-7.52 5.24,-7.87 5.70,-8.08 6.17,-8.29 6.67,-8.34 7.18,-8.40 7.68,-8.28 8.17,-8.17 8.61,-7.91 9.04,-7.64 9.37,-7.25 9.70,-6.86 9.88,-6.39 10.07,-5.91 10.09,-5.40 10.12,-4.90 9.98,-4.41 9.84,-3.92 9.55,-3.50 9.26,-3.08 8.85,-2.77 8.45,-2.47 7.96,-2.31 7.48,-2.15 6.97,-2.15 6.46,-2.15 5.98,-2.32 5.50,-2.49 5.10,-2.80 4.69,-3.11 4.41,-3.53 4.13,-3.95 3.99,-4.44 3.86,-4.94 3.89,-5.44 3.92,-5.95 4.11,-6.42 4.31,-6.89 4.64,-7.28 4.97,-7.67 5.41,-7.93 5.84,-8.19 6.34,-8.29 6.84,-8.40 7.35,-8.34 7.85,-8.28 8.31,-8.06 8.77,-7.85 9.14,-7.50 9.51,-7.14 9.74,-6.69 9.98,-6.24 10.06,-5.74 10.14,-5.24 10.14,-5.24 10.14,-5.24 10.08,-3.62 10.03,-2.01 9.73,-0.53 9.43,0.94 8.28,2.42 7.13,3.90 5.83,4.57 4.53,5.24 3.09,5.12 1.65,5.00 0.35,4.19 -0.94,3.38 -1.58,2.43 -2.22,1.48 -2.37,1.19 -2.51,0.90 -2.58,0.59 -2.66,0.27 -2.65,-0.04 -2.64,-0.36 -2.56,-0.67 -2.48,-0.98 -2.33,-1.27 -2.17,-1.55 -1.95,-1.79 -1.74,-2.03 -1.47,-2.20 -1.20,-2.38 -0.90,-2.49 -0.59,-2.60 -0.27,-2.64 0.04,-2.67 0.36,-2.63 0.68,-2.58 0.98,-2.46 1.28,-2.34 1.54,-2.16 1.80,-1.97 2.01,-1.72 2.22,-1.48 2.22,-1.48 L 2.22,-1.48 Z"></path></g><g transform="translate(549 687.09375) rotate(0 -2 -5)" stroke="none"><path fill="#1864ab" d="M -2.20,1.47 Q -2.20,1.47 -2.81,0.61 -3.41,-0.23 -4.03,-1.94 -4.65,-3.65 -5.72,-6.24 -6.79,-8.84 -6.85,-9.32 -6.90,-9.81 -6.80,-10.28 -6.71,-10.76 -6.46,-11.18 -6.22,-11.60 -5.85,-11.92 -5.48,-12.23 -5.03,-12.42 -4.58,-12.60 -4.10,-12.64 -3.62,-12.67 -3.15,-12.54 -2.68,-12.42 -2.27,-12.15 -1.87,-11.89 -1.57,-11.50 -1.27,-11.12 -1.11,-10.66 -0.95,-10.20 -0.94,-9.72 -0.93,-9.23 -1.08,-8.77 -1.23,-8.31 -1.52,-7.92 -1.81,-7.53 -2.21,-7.25 -2.61,-6.97 -3.08,-6.84 -3.54,-6.70 -4.03,-6.72 -4.51,-6.74 -4.97,-6.91 -5.42,-7.09 -5.79,-7.40 -6.17,-7.71 -6.42,-8.12 -6.68,-8.54 -6.79,-9.01 -6.90,-9.48 -6.85,-9.97 -6.81,-10.45 -6.61,-10.89 -6.41,-11.34 -6.08,-11.69 -5.75,-12.05 -5.32,-12.28 -4.90,-12.51 -4.42,-12.60 -3.94,-12.68 -3.46,-12.61 -2.98,-12.54 -2.55,-12.31 -2.12,-12.09 -1.78,-11.74 -1.44,-11.39 -1.23,-10.96 -1.02,-10.52 -1.02,-10.52 -1.02,-10.52 -0.50,-9.12 0.01,-7.73 0.47,-6.66 0.92,-5.59 1.01,-4.40 1.11,-3.21 1.66,-2.34 2.20,-1.47 2.35,-1.18 2.49,-0.90 2.56,-0.58 2.64,-0.27 2.63,0.04 2.62,0.36 2.54,0.67 2.46,0.98 2.31,1.26 2.16,1.54 1.94,1.77 1.72,2.01 1.46,2.19 1.19,2.37 0.89,2.47 0.59,2.58 0.27,2.62 -0.04,2.65 -0.36,2.61 -0.67,2.56 -0.97,2.44 -1.27,2.33 -1.53,2.14 -1.79,1.95 -2.00,1.71 -2.20,1.47 -2.20,1.47 L -2.20,1.47 Z"></path></g><g stroke-linecap="round"><g transform="translate(543 671.09375) rotate(0 63.29980500526726 -48.51259074397385)"><path d="M0.81 0.1 C22.23 -16.04, 106.46 -80.83, 127.4 -97.02 M-0.23 -0.89 C21.2 -16.81, 105.9 -79.68, 126.87 -95.48" stroke="#000000" stroke-width="1" fill="none"></path></g></g><g stroke-linecap="round"><g transform="translate(676 566.09375) rotate(0 20.106810186430806 38.90633915823419)"><path d="M0.1 0.8 C6.84 13.61, 33.53 64.97, 40.22 77.67 M-1.31 0.17 C5.29 13.11, 32.48 66.18, 39.27 79.13" stroke="#000000" stroke-width="1" fill="none"></path></g></g><g transform="translate(516 627.09375) rotate(0 8 12.5)"><text x="0" y="18" font-family="Virgil, Segoe UI Emoji" font-size="20px" fill="#d9480f" text-anchor="start" style="white-space: pre;" direction="ltr">O</text></g><g transform="translate(702 577.09375) rotate(0 7 12.5)"><text x="0" y="18" font-family="Virgil, Segoe UI Emoji" font-size="20px" fill="#d9480f" text-anchor="start" style="white-space: pre;" direction="ltr">A</text></g><g transform="translate(743 624.09375) rotate(0 8 12.5)"><text x="0" y="18" font-family="Virgil, Segoe UI Emoji" font-size="20px" fill="#000000" text-anchor="start" style="white-space: pre;" direction="ltr">B</text></g><g transform="translate(786 580.09375) rotate(0 117.5 50)"><text x="0" y="18" font-family="Virgil, Segoe UI Emoji" font-size="20px" fill="#000000" text-anchor="start" style="white-space: pre;" direction="ltr">Cerniera in O =&gt; 2 GDV</text><text x="0" y="43" font-family="Virgil, Segoe UI Emoji" font-size="20px" fill="#000000" text-anchor="start" style="white-space: pre;" direction="ltr">Cerniera in A =&gt; 2 GDV</text><text x="0" y="68" font-family="Virgil, Segoe UI Emoji" font-size="20px" fill="#000000" text-anchor="start" style="white-space: pre;" direction="ltr">Carrello in B =&gt; GDV</text><text x="0" y="93" font-family="Virgil, Segoe UI Emoji" font-size="20px" fill="#000000" text-anchor="start" style="white-space: pre;" direction="ltr">    =&gt; 1 GDLb </text></g><g transform="translate(787 537.09375) rotate(0 99 12.5)"><text x="0" y="18" font-family="Virgil, Segoe UI Emoji" font-size="20px" fill="#d9480f" text-anchor="start" style="white-space: pre;" direction="ltr">2x3 GDL -&gt; 6 GDL</text></g><g stroke-linecap="round"><g transform="translate(789 563.09375) rotate(0 97.5 0)"><path d="M-0.95 -0.23 C31.36 -0.22, 161.09 -0.58, 193.85 -0.71 M0.75 -1.4 C33.42 -1.17, 163.56 0.27, 195.95 0.46" stroke="#d9480f" stroke-width="1" fill="none"></path></g></g><g stroke-linecap="round"><g transform="translate(543 671.09375) rotate(0 27.5 0)"><path d="M-0.23 -1.15 C8.95 -0.9, 45.26 0.47, 54.29 0.59 M-1.82 0.86 C7.83 0.84, 46.94 -1.19, 56.63 -1.22" stroke="#d9480f" stroke-width="1" fill="none"></path></g></g><g stroke-linecap="round"><g transform="translate(679 572.09375) rotate(0 27.5 0)"><path d="M-1.15 -0.71 C8.27 -0.84, 46.3 -1.24, 55.59 -1.03 M0.44 1.53 C9.84 1.54, 46.09 0.48, 54.96 -0.03" stroke="#d9480f" stroke-width="1" fill="none"></path></g></g><g stroke-linecap="round"><g transform="translate(675 573.09375) rotate(0 17.5 -15.5)"><path d="M-0.71 0.59 C4.99 -4.45, 27.93 -25.96, 33.97 -31.39 M1.12 -0.14 C7.2 -4.91, 30.49 -24.89, 36.14 -30.06" stroke="#d9480f" stroke-width="1" fill="none"></path></g></g><g stroke-linecap="round"><g transform="translate(575 670.09375) rotate(0 -3 -11.5)"><path d="M0.59 -1.03 C0.72 -3.49, 0.87 -11.96, -0.39 -15.46 C-1.65 -18.96, -5.96 -20.63, -6.97 -22.04 M-0.55 1.04 C-0.52 -1.71, -0.87 -13.14, -1.54 -17.3 C-2.22 -21.45, -3.77 -22.88, -4.58 -23.88" stroke="#d9480f" stroke-width="1" fill="none"></path></g></g><g stroke-linecap="round"><g transform="translate(705 571.09375) rotate(0 -37.5 -0.5)"><path d="M-1.03 -0.39 C-2.65 -5.65, -3.62 -24.46, -10.46 -30.97 C-17.29 -37.48, -32.3 -40.3, -42.04 -39.46 C-51.79 -38.62, -63.42 -32.96, -68.93 -25.91 C-74.44 -18.85, -77.04 -6.72, -75.11 2.84 C-73.18 12.4, -64.98 25.46, -57.33 31.46 C-49.68 37.46, -36.77 38.92, -29.22 38.86 C-21.67 38.81, -15.07 32.34, -12.02 31.14 M0.63 -1.64 C-1.04 -6.83, -3.97 -23.82, -11.12 -29.94 C-18.28 -36.07, -32.63 -38.73, -42.3 -38.38 C-51.98 -38.04, -63.45 -34.81, -69.17 -27.89 C-74.89 -20.96, -78.82 -7.13, -76.64 3.15 C-74.46 13.43, -64.08 27.99, -56.09 33.8 C-48.1 39.6, -36.39 38.54, -28.69 37.97 C-21 37.39, -12.61 31.04, -9.92 30.34" stroke="#d9480f" stroke-width="1" fill="none"></path></g></g><g stroke-linecap="round"><g transform="translate(692 559.09375) rotate(0 -17 11)"><path d="M-0.39 0.54 C-4.15 -0.63, -16.62 -7.96, -21.97 -8.04 C-27.31 -8.12, -30.64 -4.92, -32.46 0.07 C-34.28 5.06, -36.12 16.79, -32.91 21.89 C-29.69 26.99, -18.05 29.35, -13.16 30.67 C-8.26 31.98, -5.38 30.06, -3.54 29.78 M1.61 -0.22 C-1.84 -1.62, -13.92 -9.85, -19.77 -9.66 C-25.61 -9.47, -30.8 -4.53, -33.47 0.9 C-36.13 6.33, -38.87 17.94, -35.74 22.94 C-32.62 27.93, -20.26 29.94, -14.71 30.89 C-9.15 31.84, -4.08 28.65, -2.41 28.62" stroke="#d9480f" stroke-width="1" fill="none"></path></g></g><g transform="translate(717 646.59375) rotate(0 -1.5 1)" stroke="none"><path fill="#000000" d="M 1.32,1.99 Q 1.32,1.99 0.51,2.58 -0.29,3.17 -1.53,1.09 -2.76,-0.97 -2.41,-1.19 -2.06,-1.42 -1.66,-1.52 -1.25,-1.62 -0.84,-1.59 -0.42,-1.55 -0.04,-1.39 0.33,-1.23 0.64,-0.95 0.95,-0.67 1.16,-0.31 1.37,0.04 1.45,0.45 1.52,0.86 1.47,1.27 1.41,1.69 1.23,2.06 1.04,2.43 0.75,2.73 0.46,3.03 0.08,3.21 -0.28,3.40 -0.69,3.45 -1.10,3.51 -1.51,3.43 -1.92,3.36 -2.29,3.15 -2.65,2.95 -2.93,2.64 -3.21,2.33 -3.37,1.94 -3.54,1.56 -3.57,1.15 -3.61,0.73 -3.51,0.33 -3.41,-0.07 -3.18,-0.42 -2.96,-0.77 -2.64,-1.03 -2.31,-1.29 -1.92,-1.44 -1.53,-1.58 -1.11,-1.59 -0.70,-1.61 -0.30,-1.49 0.09,-1.36 0.43,-1.12 0.77,-0.88 1.01,-0.54 1.26,-0.20 1.38,0.19 1.50,0.58 1.49,1.00 1.48,1.42 1.34,1.81 1.19,2.20 0.93,2.53 0.67,2.85 0.67,2.85 0.67,2.85 -1.23,0.99 -3.15,-0.87 -2.24,-1.43 -1.32,-1.99 -1.07,-2.12 -0.81,-2.25 -0.53,-2.31 -0.25,-2.38 0.03,-2.37 0.32,-2.37 0.60,-2.29 0.88,-2.22 1.13,-2.08 1.39,-1.94 1.60,-1.75 1.81,-1.55 1.97,-1.31 2.13,-1.07 2.23,-0.80 2.33,-0.53 2.36,-0.24 2.39,0.03 2.35,0.32 2.31,0.61 2.20,0.87 2.10,1.14 1.93,1.38 1.76,1.61 1.54,1.80 1.32,1.99 1.32,1.99 L 1.32,1.99 Z"></path></g><g transform="translate(696 679.59375) rotate(0 -0.5 0)" stroke="none"><path fill="#000000" d="M 2.12,-0.66 Q 2.12,-0.66 2.15,-0.13 2.18,0.40 1.96,0.88 1.74,1.36 1.32,1.69 0.91,2.02 0.38,2.12 -0.13,2.21 -0.64,2.05 -1.14,1.90 -1.52,1.52 -1.90,1.14 -2.05,0.64 -2.21,0.13 -2.12,-0.38 -2.02,-0.91 -1.69,-1.32 -1.36,-1.74 -0.88,-1.96 -0.39,-2.18 0.13,-2.15 0.66,-2.11 1.11,-1.84 1.57,-1.56 1.84,-1.11 L 2.12,-0.66 Z"></path></g><g transform="translate(745 677.59375) rotate(0 -2.5 0.5)" stroke="none"><path fill="#000000" d="M 0,2.38 Q 0,2.38 -1.12,2.41 -2.24,2.45 -2.12,0.09 -2.01,-2.25 -1.60,-2.25 -1.19,-2.24 -0.80,-2.11 -0.41,-1.97 -0.09,-1.72 0.22,-1.46 0.45,-1.12 0.67,-0.78 0.77,-0.38 0.88,0.00 0.85,0.41 0.82,0.82 0.66,1.20 0.51,1.58 0.24,1.88 -0.02,2.19 -0.38,2.40 -0.73,2.60 -1.13,2.69 -1.53,2.77 -1.94,2.72 -2.34,2.67 -2.71,2.49 -3.08,2.31 -3.38,2.03 -3.67,1.74 -3.86,1.38 -4.04,1.01 -4.10,0.61 -4.16,0.20 -4.09,-0.19 -4.02,-0.59 -3.82,-0.95 -3.63,-1.31 -3.32,-1.59 -3.02,-1.87 -2.65,-2.03 -2.27,-2.20 -1.87,-2.24 -1.46,-2.28 -1.06,-2.18 -0.66,-2.09 -0.31,-1.87 0.02,-1.66 0.28,-1.34 0.55,-1.02 0.69,-0.64 0.84,-0.26 0.85,0.14 0.87,0.55 0.75,0.94 0.64,1.34 0.40,1.67 0.17,2.01 -0.15,2.25 -0.48,2.49 -0.87,2.62 -1.26,2.74 -1.26,2.74 -1.26,2.74 -1.80,0.14 -2.35,-2.45 -1.17,-2.41 0,-2.38 0.28,-2.34 0.56,-2.31 0.83,-2.21 1.10,-2.10 1.34,-1.94 1.57,-1.78 1.76,-1.56 1.95,-1.35 2.09,-1.09 2.22,-0.84 2.29,-0.56 2.36,-0.28 2.36,0.00 2.36,0.28 2.29,0.56 2.22,0.84 2.09,1.09 1.95,1.35 1.76,1.56 1.57,1.78 1.34,1.94 1.10,2.10 0.83,2.21 0.56,2.31 0.28,2.34 -0.00,2.38 -0.00,2.38 L 0,2.38 Z"></path></g><g stroke-linecap="round"><g transform="translate(697 679.59375) rotate(0 23 -16.5)"><path d="M-0.02 -1.06 C7.42 -1.61, 41.66 2.7, 45 -2.8 C48.34 -8.29, 27.68 -34.34, 20.02 -34.02 C12.37 -33.71, 2.45 -6.68, -0.91 -0.91 M-1.48 1 C6.28 0.53, 43.21 4.03, 47.19 -1.68 C51.17 -7.39, 30.46 -33.48, 22.4 -33.25 C14.35 -33.01, 2.88 -6.05, -1.15 -0.28" stroke="#000000" stroke-width="1" fill="none"></path></g></g><g stroke-linecap="round"><g transform="translate(683 681.59375) rotate(0 43.5 -1)"><path d="M0.78 -0.12 C15.09 -0.46, 72.29 -1.98, 86.86 -2.41 M-0.27 -1.23 C13.78 -1.37, 71.12 -1, 85.83 -1.09" stroke="#000000" stroke-width="1" fill="none"></path></g></g><g transform="translate(683 691.59375) rotate(0 0.5 -0.5)" stroke="none"><path fill="#1864ab" d="M 2.12,-0.66 Q 2.12,-0.66 2.15,-0.13 2.18,0.40 1.96,0.88 1.74,1.36 1.32,1.69 0.91,2.02 0.38,2.12 -0.13,2.21 -0.64,2.05 -1.14,1.90 -1.52,1.52 -1.90,1.14 -2.05,0.64 -2.21,0.13 -2.12,-0.38 -2.02,-0.91 -1.69,-1.32 -1.36,-1.74 -0.88,-1.96 -0.39,-2.18 0.13,-2.15 0.66,-2.11 1.11,-1.84 1.57,-1.56 1.84,-1.11 L 2.12,-0.66 Z"></path></g><g transform="translate(692 694.59375) rotate(0 2.5 -3.5)" stroke="none"><path fill="#1864ab" d="M -1.38,-2.08 Q -1.38,-2.08 -0.54,-2.68 0.29,-3.29 1.16,-5.05 2.03,-6.82 2.22,-7.23 2.41,-7.65 2.72,-7.98 3.03,-8.31 3.44,-8.52 3.84,-8.74 4.29,-8.81 4.74,-8.89 5.19,-8.81 5.63,-8.74 6.04,-8.53 6.44,-8.31 6.75,-7.98 7.07,-7.65 7.26,-7.24 7.45,-6.83 7.50,-6.38 7.55,-5.92 7.45,-5.48 7.36,-5.03 7.12,-4.64 6.89,-4.25 6.54,-3.96 6.19,-3.66 5.77,-3.49 5.35,-3.32 4.89,-3.30 4.44,-3.27 4.00,-3.39 3.56,-3.52 3.18,-3.77 2.81,-4.03 2.53,-4.39 2.26,-4.75 2.11,-5.18 1.96,-5.61 1.96,-6.07 1.96,-6.52 2.11,-6.95 2.25,-7.39 2.53,-7.75 2.80,-8.11 3.18,-8.37 3.56,-8.62 3.99,-8.75 4.43,-8.87 4.89,-8.84 5.34,-8.82 5.76,-8.65 6.19,-8.48 6.54,-8.19 6.88,-7.90 7.12,-7.51 7.35,-7.12 7.45,-6.67 7.55,-6.23 7.50,-5.77 7.45,-5.32 7.45,-5.32 7.45,-5.32 6.72,-3.63 6.00,-1.93 4.57,-0.47 3.15,0.99 2.27,1.53 1.38,2.08 1.11,2.21 0.84,2.35 0.55,2.42 0.26,2.48 -0.04,2.48 -0.34,2.47 -0.63,2.40 -0.92,2.32 -1.18,2.17 -1.45,2.03 -1.67,1.83 -1.89,1.62 -2.06,1.37 -2.23,1.12 -2.33,0.84 -2.43,0.55 -2.46,0.25 -2.50,-0.04 -2.45,-0.33 -2.41,-0.63 -2.30,-0.91 -2.19,-1.19 -2.02,-1.44 -1.84,-1.68 -1.61,-1.88 -1.38,-2.08 -1.38,-2.08 L -1.38,-2.08 Z"></path></g><g transform="translate(707 689.59375) rotate(0 1.5 -3)" stroke="none"><path fill="#1864ab" d="M -1.97,-1.31 Q -1.97,-1.31 -1.43,-2.20 -0.90,-3.09 -0.26,-4.68 0.37,-6.27 0.56,-6.53 0.74,-6.79 0.99,-6.99 1.23,-7.19 1.52,-7.33 1.80,-7.47 2.11,-7.54 2.42,-7.60 2.74,-7.59 3.06,-7.58 3.36,-7.50 3.67,-7.41 3.95,-7.26 4.22,-7.10 4.45,-6.88 4.69,-6.66 4.86,-6.40 5.03,-6.13 5.13,-5.83 5.24,-5.53 5.27,-5.21 5.29,-4.90 5.25,-4.58 5.20,-4.27 5.08,-3.98 4.95,-3.68 4.13,-2.32 3.30,-0.95 3.06,-0.63 2.82,-0.32 2.49,-0.09 2.15,0.12 1.77,0.22 1.39,0.33 0.99,0.31 0.59,0.28 0.22,0.13 -0.14,-0.01 -0.44,-0.26 -0.75,-0.52 -0.95,-0.87 -1.16,-1.21 -1.24,-1.60 -1.32,-1.99 -1.28,-2.39 -1.24,-2.78 -1.07,-3.14 -0.90,-3.50 -0.62,-3.79 -0.35,-4.08 0.00,-4.27 0.35,-4.45 0.74,-4.52 1.14,-4.58 1.53,-4.51 1.92,-4.45 2.28,-4.26 2.63,-4.07 2.90,-3.78 3.17,-3.49 3.34,-3.13 3.51,-2.76 3.55,-2.37 3.59,-1.97 3.50,-1.58 3.41,-1.19 3.21,-0.85 3.00,-0.51 2.70,-0.25 2.39,-0.00 2.02,0.14 1.65,0.29 1.25,0.31 0.85,0.33 0.47,0.22 0.08,0.11 -0.24,-0.10 -0.56,-0.33 -0.80,-0.65 -1.04,-0.97 -1.17,-1.35 -1.30,-1.72 -1.30,-2.12 -1.29,-2.52 -1.16,-2.90 -1.04,-3.28 -1.04,-3.28 -1.04,-3.28 -0.33,-4.77 0.37,-6.27 0.56,-6.53 0.74,-6.79 0.99,-6.99 1.23,-7.19 1.52,-7.33 1.80,-7.47 2.11,-7.54 2.42,-7.60 2.74,-7.59 3.06,-7.58 3.36,-7.50 3.67,-7.41 3.95,-7.26 4.22,-7.10 4.45,-6.88 4.69,-6.66 4.86,-6.40 5.03,-6.13 5.13,-5.83 5.24,-5.53 5.27,-5.21 5.29,-4.90 5.25,-4.58 5.20,-4.27 5.08,-3.98 4.95,-3.68 4.69,-3.02 4.43,-2.36 3.81,-1.36 3.20,-0.35 2.58,0.47 1.97,1.31 1.78,1.53 1.59,1.74 1.36,1.91 1.13,2.07 0.86,2.18 0.60,2.29 0.32,2.32 0.03,2.36 -0.24,2.33 -0.52,2.30 -0.79,2.21 -1.06,2.11 -1.30,1.95 -1.54,1.79 -1.73,1.58 -1.92,1.37 -2.06,1.12 -2.20,0.87 -2.27,0.59 -2.34,0.32 -2.35,0.03 -2.35,-0.24 -2.29,-0.52 -2.22,-0.80 -2.09,-1.05 -1.97,-1.31 -1.97,-1.31 L -1.97,-1.31 Z"></path></g><g transform="translate(717 693.59375) rotate(0 1.5 -5)" stroke="none"><path fill="#1864ab" d="M -2.29,-1.14 Q -2.29,-1.14 -1.73,-2.30 -1.16,-3.45 -0.54,-4.99 0.08,-6.53 0.10,-8.13 0.11,-9.73 0.21,-10.19 0.31,-10.64 0.54,-11.04 0.78,-11.44 1.13,-11.74 1.48,-12.05 1.91,-12.22 2.34,-12.39 2.80,-12.42 3.27,-12.45 3.72,-12.33 4.16,-12.21 4.55,-11.95 4.93,-11.69 5.22,-11.33 5.50,-10.96 5.65,-10.52 5.80,-10.08 5.81,-9.62 5.81,-9.15 5.66,-8.71 5.52,-8.27 5.24,-7.90 4.96,-7.53 4.58,-7.27 4.20,-7.00 3.75,-6.88 3.30,-6.75 2.84,-6.77 2.38,-6.79 1.95,-6.96 1.51,-7.13 1.16,-7.43 0.80,-7.73 0.56,-8.12 0.32,-8.52 0.22,-8.97 0.11,-9.42 0.16,-9.89 0.21,-10.35 0.40,-10.77 0.59,-11.19 0.91,-11.53 1.23,-11.87 1.63,-12.09 2.04,-12.31 2.50,-12.39 2.96,-12.47 3.42,-12.39 3.87,-12.32 4.29,-12.11 4.70,-11.89 5.02,-11.56 5.34,-11.22 5.54,-10.80 5.73,-10.38 5.79,-9.92 5.84,-9.46 5.84,-9.46 5.84,-9.46 5.30,-6.55 4.75,-3.63 4.11,-2.39 3.46,-1.14 2.88,0.00 2.29,1.14 2.12,1.40 1.95,1.66 1.72,1.87 1.49,2.08 1.22,2.23 0.95,2.38 0.65,2.46 0.35,2.54 0.05,2.54 -0.25,2.55 -0.56,2.48 -0.86,2.41 -1.13,2.27 -1.41,2.14 -1.65,1.94 -1.88,1.73 -2.06,1.48 -2.24,1.23 -2.36,0.95 -2.48,0.66 -2.52,0.35 -2.56,0.05 -2.53,-0.25 -2.50,-0.56 -2.40,-0.85 -2.29,-1.14 -2.29,-1.14 L -2.29,-1.14 Z"></path></g><g transform="translate(731 694.59375) rotate(0 2 -4.5)" stroke="none"><path fill="#1864ab" d="M -2.09,-1.25 Q -2.09,-1.25 -1.19,-2.67 -0.30,-4.08 0.52,-6.34 1.34,-8.59 1.47,-8.99 1.60,-9.38 1.84,-9.72 2.09,-10.05 2.43,-10.29 2.77,-10.52 3.17,-10.64 3.57,-10.76 3.98,-10.74 4.40,-10.72 4.78,-10.57 5.17,-10.42 5.49,-10.16 5.81,-9.89 6.03,-9.54 6.25,-9.19 6.34,-8.79 6.43,-8.38 6.39,-7.97 6.36,-7.56 6.19,-7.18 6.02,-6.80 5.74,-6.49 5.45,-6.19 5.09,-5.99 4.73,-5.79 4.32,-5.72 3.91,-5.65 3.50,-5.71 3.09,-5.77 2.72,-5.96 2.35,-6.15 2.06,-6.45 1.77,-6.75 1.59,-7.12 1.42,-7.49 1.37,-7.91 1.32,-8.32 1.40,-8.72 1.48,-9.13 1.69,-9.49 1.90,-9.85 2.21,-10.12 2.53,-10.39 2.91,-10.55 3.29,-10.71 3.71,-10.73 4.12,-10.76 4.52,-10.66 4.92,-10.55 5.27,-10.32 5.62,-10.09 5.87,-9.77 6.13,-9.44 6.26,-9.05 6.40,-8.66 6.41,-8.24 6.41,-7.83 6.41,-7.83 6.41,-7.83 5.57,-5.78 4.73,-3.73 4.24,-2.69 3.75,-1.66 2.92,-0.20 2.09,1.25 1.91,1.48 1.73,1.71 1.50,1.90 1.26,2.08 1.00,2.20 0.73,2.32 0.44,2.38 0.15,2.43 -0.13,2.41 -0.43,2.40 -0.71,2.31 -0.99,2.22 -1.24,2.07 -1.49,1.92 -1.70,1.71 -1.91,1.51 -2.06,1.25 -2.22,1.00 -2.31,0.72 -2.39,0.44 -2.41,0.15 -2.43,-0.13 -2.38,-0.42 -2.33,-0.71 -2.21,-0.98 -2.09,-1.25 -2.09,-1.25 L -2.09,-1.25 Z"></path></g><g transform="translate(742 696.59375) rotate(0 3.5 -8)" stroke="none"><path fill="#1864ab" d="M -1.93,-1.44 Q -1.93,-1.44 -1.07,-2.59 -0.21,-3.74 0.32,-4.90 0.86,-6.05 1.40,-7.22 1.95,-8.38 2.83,-9.99 3.71,-11.60 4.10,-13.49 4.49,-15.38 4.59,-15.76 4.69,-16.14 4.91,-16.47 5.13,-16.79 5.45,-17.03 5.76,-17.27 6.13,-17.40 6.50,-17.52 6.90,-17.53 7.29,-17.53 7.66,-17.40 8.04,-17.28 8.35,-17.04 8.66,-16.80 8.88,-16.48 9.11,-16.15 9.21,-15.77 9.32,-15.39 9.30,-15.00 9.28,-14.61 9.13,-14.24 8.99,-13.88 8.73,-13.58 8.48,-13.28 8.14,-13.07 7.81,-12.87 7.42,-12.79 7.04,-12.70 6.65,-12.74 6.26,-12.78 5.90,-12.95 5.54,-13.11 5.26,-13.38 4.97,-13.65 4.79,-14.00 4.60,-14.35 4.54,-14.73 4.47,-15.12 4.53,-15.51 4.60,-15.90 4.78,-16.25 4.96,-16.59 5.25,-16.86 5.53,-17.14 5.89,-17.30 6.25,-17.47 6.64,-17.51 7.03,-17.55 7.41,-17.47 7.80,-17.39 8.14,-17.18 8.47,-16.98 8.73,-16.68 8.98,-16.38 9.13,-16.02 9.28,-15.65 9.30,-15.26 9.32,-14.87 9.32,-14.87 9.32,-14.87 8.59,-12.21 7.87,-9.54 7.12,-7.88 6.37,-6.21 5.78,-5.08 5.20,-3.95 4.43,-2.40 3.66,-0.85 2.79,0.29 1.93,1.44 1.72,1.65 1.52,1.86 1.28,2.02 1.03,2.18 0.76,2.27 0.48,2.36 0.19,2.38 -0.09,2.41 -0.38,2.36 -0.66,2.31 -0.93,2.20 -1.20,2.09 -1.43,1.91 -1.67,1.74 -1.85,1.51 -2.03,1.29 -2.16,1.02 -2.28,0.76 -2.34,0.48 -2.40,0.19 -2.39,-0.09 -2.38,-0.38 -2.30,-0.66 -2.22,-0.94 -2.07,-1.19 -1.93,-1.44 -1.93,-1.44 L -1.93,-1.44 Z"></path></g><g transform="translate(756 693.59375) rotate(0 1 -3)" stroke="none"><path fill="#1864ab" d="M -2.09,-1.04 Q -2.09,-1.04 -1.54,-2.20 -1.00,-3.35 0.98,-2.19 2.97,-1.03 2.78,-0.69 2.58,-0.35 2.29,-0.09 2.00,0.17 1.64,0.32 1.27,0.48 0.88,0.51 0.49,0.54 0.11,0.44 -0.27,0.35 -0.60,0.13 -0.93,-0.07 -1.17,-0.38 -1.42,-0.68 -1.56,-1.05 -1.69,-1.42 -1.70,-1.82 -1.71,-2.21 -1.59,-2.59 -1.48,-2.96 -1.25,-3.28 -1.02,-3.60 -0.69,-3.83 -0.37,-4.06 -0.00,-4.17 0.37,-4.29 0.76,-4.28 1.16,-4.27 1.53,-4.13 1.89,-3.99 2.20,-3.74 2.51,-3.50 2.72,-3.16 2.93,-2.83 3.02,-2.45 3.12,-2.07 3.08,-1.68 3.05,-1.28 2.90,-0.92 2.74,-0.56 2.47,-0.27 2.21,0.01 1.87,0.21 1.52,0.40 1.14,0.47 0.75,0.55 0.36,0.49 -0.02,0.44 -0.37,0.26 -0.72,0.09 -1.00,-0.18 -1.28,-0.46 -1.45,-0.82 -1.63,-1.17 -1.68,-1.56 -1.73,-1.95 -1.66,-2.34 -1.58,-2.72 -1.58,-2.72 -1.58,-2.72 0.85,-1.98 3.30,-1.24 2.69,-0.09 2.09,1.04 1.93,1.28 1.78,1.51 1.57,1.70 1.36,1.89 1.11,2.03 0.87,2.17 0.60,2.24 0.32,2.31 0.04,2.32 -0.23,2.32 -0.51,2.26 -0.78,2.20 -1.03,2.07 -1.29,1.95 -1.50,1.76 -1.72,1.58 -1.88,1.35 -2.04,1.12 -2.15,0.86 -2.26,0.60 -2.29,0.32 -2.33,0.04 -2.31,-0.23 -2.28,-0.51 -2.18,-0.78 -2.09,-1.04 -2.09,-1.04 L -2.09,-1.04 Z"></path></g></svg>