<svg version="1.1" xmlns="http://www.w3.org/2000/svg" viewBox="0 0 10020 754.890625" width="10020" height="754.890625">
  <!-- svg-source:excalidraw -->
  
  <defs>
    <style>
      @font-face {
        font-family: "Virgil";
        src: url("https://excalidraw.com/Virgil.woff2");
      }
      @font-face {
        font-family: "Cascadia";
        src: url("https://excalidraw.com/Cascadia.woff2");
      }
    </style>
  </defs>
  <rect x="0" y="0" width="10020" height="754.890625" fill="#fff0"></rect><g stroke-linecap="round" transform="translate(10 10) rotate(0 5000 0.5)"><path d="M-0.52 -0.26 C3022.65 -30.2, 6044.59 -29.2, 9999.32 0.22 M0.38 -0.31 C3948.03 -0.44, 7895.41 0.2, 9999.95 0.08 M10000.08 -0.06 C10000.09 0.27, 10000.05 0.48, 10000.09 0.92 M9999.97 0.01 C9999.95 0.33, 9999.98 0.72, 10000 0.99 M10000.22 1.51 C7095.77 35.76, 4193.15 34.95, -0.25 0.75 M10000.01 1.13 C7827.97 2.74, 5656.23 3.35, -0.33 0.84 M-0.04 1.01 C0 0.63, -0.06 0.15, 0.05 -0.03 M-0.04 0.95 C-0.04 0.73, -0.03 0.59, -0.05 -0.02" stroke="transparent" stroke-width="1" fill="none"></path></g><g stroke-linecap="round"><g transform="translate(561.9742772031954 744.890625) rotate(0 -2.5 -85.5)"><path d="M0.37 -0.7 C-0.58 -28.92, -4.91 -141.67, -5.74 -169.87 M-0.89 1.54 C-1.46 -26.93, -2.7 -142.53, -3.42 -171.39" stroke="#000" stroke-width="1" fill="none"></path></g><g transform="translate(561.9742772031954 744.890625) rotate(0 -2.5 -85.5)"><path d="M6.14 -144.61 C6.12 -151.12, 2.85 -160.14, -5.21 -172.06 M7.41 -142.99 C3.84 -150.25, 1.76 -157.76, -2.61 -171.7" stroke="#000" stroke-width="1" fill="none"></path></g><g transform="translate(561.9742772031954 744.890625) rotate(0 -2.5 -85.5)"><path d="M-14.37 -144.27 C-8.23 -150.94, -5.35 -160.07, -5.21 -172.06 M-13.11 -142.64 C-11.09 -150.19, -7.58 -157.8, -2.61 -171.7" stroke="#000" stroke-width="1" fill="none"></path></g></g><g stroke-linecap="round"><g transform="translate(524.9742772031954 718.890625) rotate(356.17724477945916 128 3.5)"><path d="M-0.7 -0.74 C42.25 0.43, 214.17 6.09, 257.13 7.38 M1.13 1.49 C44.07 2.25, 214.15 4.32, 256.78 5.46" stroke="#000" stroke-width="1" fill="none"></path></g><g transform="translate(524.9742772031954 718.890625) rotate(356.17724477945916 128 3.5)"><path d="M227.17 17.09 C236.14 14.76, 242.66 8.68, 256.11 4.91 M228.8 14.44 C235.39 13.05, 241.91 11.57, 256.48 6.34" stroke="#000" stroke-width="1" fill="none"></path></g><g transform="translate(524.9742772031954 718.890625) rotate(356.17724477945916 128 3.5)"><path d="M227.55 -3.43 C236.49 -0.61, 242.91 -1.53, 256.11 4.91 M229.18 -6.08 C235.88 -2.82, 242.31 0.33, 256.48 6.34" stroke="#000" stroke-width="1" fill="none"></path></g></g><g stroke-linecap="round"><g transform="translate(646.9742772031954 677.890625) rotate(0 52.500000000000014 -54.5)"><path d="M-0.74 1.13 C-4.4 -5.9, -23.24 -24.36, -21.62 -42.9 C-19.99 -61.43, -6.52 -97, 9.02 -110.07 C24.55 -123.15, 52.08 -124.04, 71.6 -121.33 C91.12 -118.63, 118.03 -106.34, 126.11 -93.87 C134.2 -81.4, 133.95 -64.3, 120.11 -46.53 C106.27 -28.75, 63.09 4.88, 43.08 12.79 C23.08 20.7, 7.12 3.11, 0.1 0.92 M1.07 0.68 C-2.75 -6.6, -23.56 -26.11, -22.36 -44.44 C-21.17 -62.77, -7.4 -96.66, 8.26 -109.32 C23.93 -121.98, 51.71 -122.54, 71.64 -120.41 C91.57 -118.28, 119.51 -108.73, 127.84 -96.54 C136.16 -84.36, 135.68 -65.38, 121.58 -47.32 C107.48 -29.25, 63.65 3.8, 43.25 11.86 C22.84 19.92, 6.36 2.75, -0.88 1.06" stroke="#000" stroke-width="1" fill="none"></path></g></g><g transform="translate(649.9742772031954 641.890625) rotate(0 1 1.5)" stroke="none"><path fill="#000" d="M 1.99,-1.33 Q 1.99,-1.33 0.08,0.33 -1.83,1.99 -1.94,1.60 -2.05,1.21 -2.03,0.80 -2.01,0.40 -1.86,0.02 -1.72,-0.35 -1.45,-0.66 -1.19,-0.97 -0.84,-1.18 -0.50,-1.39 -0.10,-1.48 0.28,-1.57 0.69,-1.53 1.09,-1.48 1.46,-1.32 1.83,-1.15 2.13,-0.87 2.42,-0.59 2.62,-0.23 2.81,0.12 2.87,0.52 2.94,0.92 2.88,1.32 2.81,1.72 2.63,2.08 2.44,2.44 2.14,2.72 1.85,3.00 1.48,3.17 1.11,3.34 0.71,3.39 0.31,3.44 -0.08,3.35 -0.48,3.26 -0.83,3.06 -1.18,2.85 -1.44,2.54 -1.70,2.23 -1.86,1.85 -2.01,1.48 -2.03,1.07 -2.06,0.67 -1.95,0.27 -1.84,-0.11 -1.61,-0.44 -1.39,-0.78 -1.07,-1.03 -0.74,-1.28 -0.36,-1.41 0.02,-1.54 0.42,-1.54 0.83,-1.54 1.21,-1.41 1.60,-1.29 1.92,-1.04 2.25,-0.80 2.48,-0.46 2.71,-0.13 2.71,-0.13 2.71,-0.13 0.35,0.60 -1.99,1.33 -2.12,1.07 -2.25,0.81 -2.32,0.53 -2.38,0.25 -2.38,-0.03 -2.37,-0.32 -2.30,-0.60 -2.23,-0.88 -2.09,-1.14 -1.95,-1.39 -1.75,-1.60 -1.56,-1.82 -1.32,-1.98 -1.08,-2.14 -0.80,-2.24 -0.53,-2.34 -0.24,-2.37 0.03,-2.40 0.32,-2.36 0.61,-2.32 0.88,-2.21 1.15,-2.10 1.38,-1.94 1.62,-1.77 1.81,-1.55 1.99,-1.33 1.99,-1.33 L 1.99,-1.33 Z"></path></g><g transform="translate(744.9742772031954 595.890625) rotate(0 -4 -0.5)" stroke="none"><path fill="#000" d="M 0,2.56 Q 0,2.56 -1.71,2.50 -3.42,2.44 -4.82,2.89 -6.22,3.34 -6.53,3.39 -6.84,3.44 -7.16,3.41 -7.47,3.38 -7.77,3.28 -8.07,3.18 -8.34,3.01 -8.60,2.84 -8.82,2.61 -9.04,2.38 -9.19,2.10 -9.35,1.83 -9.44,1.52 -9.52,1.22 -9.53,0.90 -9.54,0.58 -9.48,0.27 -9.41,-0.03 -9.27,-0.31 -9.14,-0.59 -8.93,-0.84 -8.73,-1.08 -8.48,-1.27 -8.22,-1.46 -7.93,-1.58 -7.64,-1.70 -8.53,-0.78 -9.43,0.14 -8.91,-0.98 -8.39,-2.12 -7.50,-2.71 -6.61,-3.29 -5.56,-3.92 -4.51,-4.54 -3.10,-4.60 -1.69,-4.67 -1.69,-4.53 -1.69,-4.39 -1.33,-4.37 -0.96,-4.36 -0.62,-4.26 -0.27,-4.15 0.04,-3.97 0.35,-3.79 0.61,-3.54 0.87,-3.28 1.07,-2.98 1.26,-2.67 1.38,-2.32 1.49,-1.98 1.52,-1.62 1.55,-1.25 1.49,-0.90 1.43,-0.54 1.29,-0.20 1.14,0.12 0.92,0.41 0.70,0.70 0.42,0.93 0.14,1.16 -0.18,1.31 -0.51,1.47 -0.86,1.54 -1.22,1.61 -1.64,-0.70 -2.06,-3.03 -1.59,-2.94 -1.12,-2.84 -0.71,-2.60 -0.29,-2.36 0.01,-2.00 0.33,-1.64 0.51,-1.20 0.70,-0.76 0.73,-0.28 0.76,0.18 0.64,0.65 0.52,1.11 0.26,1.51 0.00,1.91 -0.37,2.21 -0.74,2.50 -1.19,2.66 -1.64,2.82 -2.12,2.83 -2.60,2.84 -3.06,2.69 -3.51,2.55 -3.90,2.26 -4.28,1.98 -4.56,1.59 -4.83,1.20 -4.97,0.74 -5.10,0.28 -5.09,-0.19 -5.07,-0.67 -4.90,-1.11 -4.73,-1.56 -4.42,-1.93 -4.12,-2.30 -3.72,-2.55 -3.31,-2.81 -2.84,-2.92 -2.38,-3.03 -1.90,-2.98 -1.43,-2.94 -0.99,-2.74 -0.55,-2.55 -0.20,-2.23 0.14,-1.90 0.37,-1.49 0.61,-1.07 0.69,-0.60 0.78,-0.12 0.71,0.34 0.64,0.81 0.42,1.24 0.20,1.66 -0.13,2.00 -0.47,2.33 -0.90,2.54 -1.33,2.75 -1.81,2.81 -2.28,2.87 -2.28,2.87 -2.28,2.87 -3.70,-0.20 -5.11,-3.28 -3.40,-3.84 -1.69,-4.39 -1.33,-4.37 -0.96,-4.36 -0.62,-4.26 -0.27,-4.15 0.04,-3.97 0.35,-3.79 0.61,-3.54 0.87,-3.29 1.07,-2.98 1.26,-2.67 1.38,-2.32 1.49,-1.98 1.52,-1.62 1.55,-1.26 1.49,-0.90 1.43,-0.54 1.29,-0.20 1.14,0.12 0.92,0.41 0.70,0.70 0.42,0.93 0.14,1.16 -0.18,1.31 -0.51,1.47 -0.86,1.54 -1.22,1.61 -1.69,0.92 -2.16,0.22 -3.33,0.38 -4.51,0.55 -5.36,1.94 -6.22,3.34 -6.53,3.39 -6.84,3.44 -7.16,3.41 -7.47,3.38 -7.77,3.28 -8.07,3.18 -8.34,3.01 -8.60,2.84 -8.82,2.61 -9.04,2.38 -9.19,2.10 -9.35,1.83 -9.44,1.52 -9.52,1.22 -9.53,0.90 -9.54,0.58 -9.48,0.27 -9.41,-0.02 -9.27,-0.31 -9.14,-0.59 -8.93,-0.84 -8.73,-1.08 -8.48,-1.27 -8.22,-1.46 -7.93,-1.58 -7.64,-1.70 -6.91,-1.78 -6.17,-1.86 -4.82,-2.15 -3.47,-2.44 -1.73,-2.50 0,-2.56 0.30,-2.53 0.61,-2.49 0.90,-2.38 1.19,-2.27 1.44,-2.09 1.70,-1.92 1.90,-1.69 2.11,-1.45 2.25,-1.18 2.40,-0.91 2.47,-0.61 2.55,-0.30 2.55,0.00 2.55,0.30 2.47,0.61 2.40,0.91 2.25,1.18 2.11,1.45 1.90,1.69 1.70,1.92 1.44,2.09 1.19,2.27 0.90,2.38 0.61,2.49 0.30,2.53 -0.00,2.56 -0.00,2.56 L 0,2.56 Z"></path></g><g stroke-linecap="round"><g transform="translate(651.9742772031954 638.890625) rotate(0 42 -21)"><path d="M1.1 0.02 C14.73 -7.11, 69.17 -35.25, 82.93 -42.4 M0.22 -1.02 C14.11 -8.01, 71.32 -34.24, 85.07 -41.07" stroke="#1864ab" stroke-width="1" fill="none"></path></g></g><g transform="translate(652.9742772031954 595.890625) rotate(0 7 12.5)"><text x="0" y="18" font-family="Virgil, Segoe UI Emoji" font-size="20px" fill="#d9480f" text-anchor="start" style="white-space: pre;" direction="ltr">a</text></g><g transform="translate(718.9742772031952 570.890625) rotate(0 5.5 12.5)"><text x="0" y="18" font-family="Virgil, Segoe UI Emoji" font-size="20px" fill="#d9480f" text-anchor="start" style="white-space: pre;" direction="ltr">b</text></g><g stroke-linecap="round"><g transform="translate(651.9742772031954 641.890625) rotate(0 26.5 6.5)"><path d="M-0.4 -0.33 C8.28 2.2, 43.2 11.83, 52.11 14.13 M1.59 -1.56 C10.65 0.77, 45.89 10.45, 54.36 12.6" stroke="#d9480f" stroke-width="1" fill="none"></path></g></g><g stroke-linecap="round"><g transform="translate(680.9742772031952 647.890625) rotate(0 3 -11)"><path d="M-0.33 -0.89 C1.03 -3.13, 7 -10.22, 7.13 -13.89 C7.27 -17.56, 1.53 -21.58, 0.47 -22.92 M1.69 1.26 C3.09 -0.74, 7.07 -8.41, 6.78 -12.3 C6.49 -16.19, 0.85 -20.67, -0.04 -22.08" stroke="#d9480f" stroke-width="1" fill="none"></path></g></g><g transform="translate(656.9742772031954 647.390625) rotate(0 37 12.5)"><text x="0" y="18" font-family="Virgil, Segoe UI Emoji" font-size="20px" fill="#d9480f" text-anchor="start" style="white-space: pre;" direction="ltr">B</text></g><g transform="translate(647.9742772031954 592.890625) rotate(0 1 0)" stroke="none"><path fill="#000" d="M 2.12,-0.66 Q 2.12,-0.66 2.15,-0.13 2.18,0.40 1.96,0.88 1.74,1.36 1.32,1.69 0.91,2.02 0.38,2.12 -0.13,2.21 -0.64,2.05 -1.14,1.90 -1.52,1.52 -1.90,1.14 -2.05,0.64 -2.21,0.13 -2.12,-0.38 -2.02,-0.91 -1.69,-1.32 -1.36,-1.74 -0.88,-1.96 -0.39,-2.18 0.13,-2.15 0.66,-2.11 1.11,-1.84 1.57,-1.56 1.84,-1.11 L 2.12,-0.66 Z"></path></g><g stroke-linecap="round"><g transform="translate(647.9742772031954 638.890625) rotate(0 1 -22.5)"><path d="M0.11 0.47 C0.44 -7.08, 0.75 -36.78, 1.08 -44.21 M-1.29 -0.32 C-0.52 -7.71, 2.87 -38.31, 3.31 -45.92" stroke="#1864ab" stroke-width="1" fill="none"></path></g></g><g stroke-linecap="round"><g transform="translate(667.9742772031954 642.890625) rotate(0 -9.5 -11)"><path d="M0.47 -0.92 C0.42 -3.25, 3.88 -10.55, 0.79 -13.9 C-2.3 -17.26, -14.72 -19.86, -18.08 -21.04 M-0.74 1.22 C-0.98 -0.92, 3.19 -8.3, 0.26 -12.32 C-2.68 -16.33, -15.11 -21.1, -18.37 -22.88" stroke="#d9480f" stroke-width="1" fill="none"></path></g></g><g transform="translate(630.9742772031954 613.890625) rotate(0 8.5 12.5)"><text x="0" y="18" font-family="Virgil, Segoe UI Emoji" font-size="20px" fill="#d9480f" text-anchor="start" style="white-space: pre;" direction="ltr">G</text></g><g stroke-linecap="round"><g transform="translate(743.9742772031954 594.890625) rotate(0 -32.5 -25)"><path d="M0.96 -0.36 C-9.71 -8.87, -52.87 -42, -63.95 -50.12 M0.01 -1.6 C-10.74 -9.99, -53.26 -40.42, -64.35 -48.64" stroke="#d9480f" stroke-width="1" fill="none"></path></g><g transform="translate(743.9742772031954 594.890625) rotate(0 -32.5 -25)"><path d="M-36.12 -38.6 C-44.66 -43.53, -51.81 -44.31, -64.08 -48.83 M-34.59 -40.33 C-43.86 -43.53, -51.17 -45.42, -65.25 -49.26" stroke="#d9480f" stroke-width="1" fill="none"></path></g><g transform="translate(743.9742772031954 594.890625) rotate(0 -32.5 -25)"><path d="M-48.2 -22.01 C-53.14 -32.15, -56.58 -38.03, -64.08 -48.83 M-46.67 -23.73 C-52.48 -31.47, -56.4 -38.02, -65.25 -49.26" stroke="#d9480f" stroke-width="1" fill="none"></path></g></g><g transform="translate(652 521.890625) rotate(0 17.5 12.5)"><text x="0" y="18" font-family="Virgil, Segoe UI Emoji" font-size="20px" fill="#d9480f" text-anchor="start" style="white-space: pre;" direction="ltr">Vba</text></g><g stroke-linecap="round"><g transform="translate(643 519.890625) rotate(0 8.5 -0.5)"><path d="M0.2 0.06 C3.07 -0.14, 14.83 -1.49, 17.65 -1.77 M-1.16 -0.95 C1.57 -0.96, 14.11 -0.7, 17.04 -0.63" stroke="#d9480f" stroke-width="1" fill="none"></path></g></g><g transform="translate(788 541.890625) rotate(0 179.5 37.5)"><text x="0" y="18" font-family="Virgil, Segoe UI Emoji" font-size="20px" fill="#000000" text-anchor="start" style="white-space: pre;" direction="ltr">Ab = Aa + abBe^i(B+pi/2)</text><text x="0" y="43" font-family="Virgil, Segoe UI Emoji" font-size="20px" fill="#000000" text-anchor="start" style="white-space: pre;" direction="ltr"></text><text x="0" y="68" font-family="Virgil, Segoe UI Emoji" font-size="20px" fill="#000000" text-anchor="start" style="white-space: pre;" direction="ltr">Ab = Aa + ω X (b-a) - ω^2 X (b-a))</text></g><g stroke-linecap="round"><g transform="translate(792 588.890625) rotate(0 6 1)"><path d="M0.93 -1.01 C2.86 -0.55, 9.42 1.93, 11.18 2.31 M-0.04 1.08 C2.3 1.2, 11.72 0.17, 13.46 0.35" stroke="#000000" stroke-width="1" fill="none"></path></g></g><g stroke-linecap="round"><g transform="translate(902 590.890625) rotate(0 6.5 0.5)"><path d="M1.19 0.85 C3.16 1.09, 10.6 0.52, 12.72 0.37 M0.35 0.26 C2.06 0.74, 9.41 1.5, 11.63 1.58" stroke="#000000" stroke-width="1" fill="none"></path></g></g><g stroke-linecap="round"><g transform="translate(1027 591.890625) rotate(0 5 -1)"><path d="M0.69 -0.8 C2.37 -1.11, 9.64 -2.91, 11.06 -2.93 M-0.4 1.4 C1.13 1.3, 8.66 -1.19, 10.66 -1.88" stroke="#000000" stroke-width="1" fill="none"></path></g></g><g stroke-linecap="round"><g transform="translate(846 592.890625) rotate(0 7 0)"><path d="M0.96 -0.52 C3.45 -0.88, 12.33 -1.28, 14.64 -1.18 M0 1.82 C2.43 2.08, 11.61 -0.2, 14.03 -0.26" stroke="#000000" stroke-width="1" fill="none"></path></g></g><g transform="translate(909 595.359375) rotate(0 0.00004999999998744897 0.00005000000000165983)" stroke="none"><path fill="#000000" d="M 1.57,-1.57 Q 1.57,-1.57 1.77,-1.27 1.98,-0.98 2.09,-0.64 2.20,-0.29 2.19,0.05 2.18,0.41 2.05,0.75 1.93,1.09 1.70,1.37 1.48,1.65 1.18,1.84 0.87,2.04 0.52,2.12 0.18,2.21 -0.17,2.18 -0.53,2.15 -0.86,2.01 -1.19,1.87 -1.46,1.63 -1.73,1.39 -1.90,1.07 -2.08,0.76 -2.15,0.41 -2.21,0.05 -2.17,-0.29 -2.12,-0.65 -1.96,-0.97 -1.80,-1.29 -1.54,-1.54 -1.29,-1.80 -0.97,-1.96 -0.65,-2.12 -0.29,-2.17 0.06,-2.21 0.41,-2.15 0.76,-2.08 1.07,-1.90 1.39,-1.73 1.63,-1.46 1.87,-1.19 2.01,-0.86 2.15,-0.53 2.18,-0.17 2.21,0.18 2.12,0.52 2.03,0.87 1.84,1.18 1.65,1.48 1.37,1.70 1.09,1.93 0.75,2.05 0.41,2.18 0.05,2.19 -0.30,2.20 -0.64,2.09 -0.98,1.98 -1.27,1.77 -1.57,1.56 -1.57,1.57 -1.57,1.57 -1.73,1.35 -1.90,1.14 -2.01,0.90 -2.12,0.66 -2.16,0.39 -2.21,0.13 -2.20,-0.13 -2.18,-0.40 -2.10,-0.65 -2.02,-0.91 -1.88,-1.14 -1.74,-1.36 -1.55,-1.55 -1.36,-1.74 -1.14,-1.88 -0.91,-2.02 -0.65,-2.10 -0.40,-2.18 -0.13,-2.20 0.13,-2.21 0.39,-2.16 0.66,-2.12 0.90,-2.01 1.14,-1.90 1.35,-1.73 1.57,-1.57 1.57,-1.57 L 1.57,-1.57 Z"></path></g></svg>