<svg version="1.1" xmlns="http://www.w3.org/2000/svg" viewBox="0 0 10020 642.5625" width="10020" height="642.5625">
  <!-- svg-source:excalidraw -->
  
  <defs>
    <style>
      @font-face {
        font-family: "Virgil";
        src: url("https://excalidraw.com/Virgil.woff2");
      }
      @font-face {
        font-family: "Cascadia";
        src: url("https://excalidraw.com/Cascadia.woff2");
      }
    </style>
  </defs>
  <rect x="0" y="0" width="10020" height="642.5625" fill="#fff0"></rect><g stroke-linecap="round" transform="translate(10 10) rotate(0 5000 0.5)"><path d="M-0.52 -0.26 C3022.65 -30.2, 6044.59 -29.2, 9999.32 0.22 M0.38 -0.31 C3948.03 -0.44, 7895.41 0.2, 9999.95 0.08 M10000.08 -0.06 C10000.09 0.27, 10000.05 0.48, 10000.09 0.92 M9999.97 0.01 C9999.95 0.33, 9999.98 0.72, 10000 0.99 M10000.22 1.51 C7095.77 35.76, 4193.15 34.95, -0.25 0.75 M10000.01 1.13 C7827.97 2.74, 5656.23 3.35, -0.33 0.84 M-0.04 1.01 C0 0.63, -0.06 0.15, 0.05 -0.03 M-0.04 0.95 C-0.04 0.73, -0.03 0.59, -0.05 -0.02" stroke="transparent" stroke-width="1" fill="none"></path></g><g stroke-linecap="round"><g transform="translate(674 593.5625) rotate(0 164.5 0)"><path d="M1.16 0.23 C56.28 0.18, 275.62 0.66, 330.18 0.62 M0.31 -0.7 C55.42 -1.18, 275.32 -1.51, 329.85 -1.17" stroke="#000" stroke-width="1" fill="none"></path></g><g transform="translate(674 593.5625) rotate(0 164.5 0)"><path d="M302.02 11.01 C309.83 5.34, 316.04 3.18, 331.14 0.14 M301.24 9.87 C310.7 4.69, 319.2 3.11, 330.57 -1.41" stroke="#000" stroke-width="1" fill="none"></path></g><g transform="translate(674 593.5625) rotate(0 164.5 0)"><path d="M302.06 -9.51 C310.02 -9.92, 316.22 -6.83, 331.14 0.14 M301.27 -10.66 C310.72 -9.22, 319.21 -4.18, 330.57 -1.41" stroke="#000" stroke-width="1" fill="none"></path></g></g><g transform="translate(898 584.5625) rotate(0 0 7.5)" stroke="none"><path fill="#000" d="M 2.55,0.51 Q 2.55,0.51 2.24,1.94 1.94,3.37 1.82,4.70 1.70,6.03 1.71,7.53 1.72,9.03 2.73,11.65 3.73,14.28 3.72,14.73 3.71,15.19 3.55,15.61 3.40,16.04 3.12,16.40 2.83,16.75 2.45,17.00 2.07,17.24 1.63,17.35 1.18,17.46 0.73,17.43 0.28,17.39 -0.13,17.21 -0.55,17.04 -0.89,16.73 -1.23,16.43 -1.45,16.03 -1.68,15.64 -1.76,15.19 -1.85,14.75 -1.79,14.30 -1.73,13.84 -1.53,13.44 -1.33,13.03 -1.01,12.71 -0.69,12.38 -0.28,12.18 0.12,11.98 0.57,11.92 1.02,11.85 1.47,11.94 1.91,12.02 2.31,12.25 2.70,12.47 3.01,12.81 3.31,13.14 3.49,13.56 3.67,13.98 3.71,14.43 3.75,14.88 3.64,15.33 3.53,15.77 3.29,16.15 3.05,16.54 2.69,16.82 2.34,17.11 1.91,17.26 1.48,17.42 1.03,17.44 0.58,17.45 0.14,17.32 -0.28,17.18 -0.65,16.92 -1.02,16.66 -1.29,16.29 -1.56,15.92 -1.69,15.48 -1.83,15.05 -1.83,15.05 -1.83,15.05 -2.43,13.32 -3.03,11.59 -3.35,10.27 -3.66,8.96 -3.50,7.28 -3.34,5.61 -3.22,3.99 -3.09,2.37 -2.82,0.93 -2.55,-0.51 -2.45,-0.80 -2.35,-1.10 -2.18,-1.37 -2.02,-1.63 -1.79,-1.85 -1.57,-2.07 -1.30,-2.23 -1.02,-2.38 -0.72,-2.47 -0.42,-2.56 -0.11,-2.58 0.19,-2.59 0.50,-2.53 0.81,-2.47 1.09,-2.33 1.38,-2.20 1.62,-2.00 1.86,-1.80 2.05,-1.55 2.24,-1.30 2.37,-1.02 2.49,-0.73 2.54,-0.42 2.59,-0.11 2.57,0.19 2.55,0.51 2.55,0.51 L 2.55,0.51 Z"></path></g><g transform="translate(773 584.5625) rotate(0 -2 8.5)" stroke="none"><path fill="#000" d="M 2.35,0.94 Q 2.35,0.94 1.75,2.36 1.16,3.78 0.97,5.01 0.78,6.24 -0.01,8.02 -0.81,9.79 -1.03,11.34 -1.25,12.89 -1.30,14.80 -1.35,16.70 -1.43,17.12 -1.51,17.54 -1.71,17.92 -1.92,18.29 -2.23,18.58 -2.55,18.86 -2.94,19.04 -3.33,19.21 -3.75,19.25 -4.18,19.29 -4.59,19.19 -5.01,19.09 -5.37,18.86 -5.73,18.64 -6.00,18.31 -6.27,17.98 -6.42,17.58 -6.57,17.18 -6.59,16.75 -6.60,16.33 -6.48,15.92 -6.36,15.51 -6.11,15.16 -5.87,14.81 -5.53,14.56 -5.18,14.31 -4.78,14.18 -4.37,14.05 -3.94,14.06 -3.52,14.07 -3.12,14.21 -2.71,14.35 -2.38,14.62 -2.04,14.88 -1.81,15.24 -1.58,15.59 -1.47,16.01 -1.37,16.42 -1.40,16.85 -1.43,17.27 -1.59,17.66 -1.76,18.06 -2.04,18.38 -2.32,18.70 -2.69,18.91 -3.06,19.12 -3.48,19.21 -3.89,19.29 -4.32,19.24 -4.74,19.18 -5.12,19.00 -5.51,18.81 -5.81,18.51 -6.11,18.22 -6.31,17.83 -6.50,17.45 -6.56,17.03 -6.62,16.61 -6.62,16.61 -6.62,16.61 -6.50,14.43 -6.38,12.24 -6.17,11.07 -5.96,9.89 -5.57,8.85 -5.18,7.80 -4.62,6.60 -4.06,5.39 -3.76,3.67 -3.46,1.96 -2.90,0.51 -2.35,-0.94 -2.20,-1.20 -2.06,-1.47 -1.85,-1.70 -1.64,-1.92 -1.39,-2.09 -1.13,-2.26 -0.85,-2.36 -0.56,-2.47 -0.25,-2.50 0.04,-2.53 0.34,-2.49 0.65,-2.45 0.93,-2.33 1.21,-2.22 1.46,-2.04 1.71,-1.86 1.91,-1.63 2.11,-1.40 2.24,-1.12 2.38,-0.85 2.45,-0.55 2.52,-0.26 2.51,0.04 2.51,0.35 2.43,0.64 2.35,0.94 2.35,0.94 L 2.35,0.94 Z"></path></g><g transform="translate(753 606.5625) rotate(0 6 12.5)"><text x="0" y="18" font-family="Virgil, Segoe UI Emoji" font-size="20px" fill="#000" text-anchor="start" style="white-space: pre;" direction="ltr">x</text></g><g transform="translate(890 607.5625) rotate(0 5 12.5)"><text x="0" y="18" font-family="Virgil, Segoe UI Emoji" font-size="20px" fill="#000" text-anchor="start" style="white-space: pre;" direction="ltr">y</text></g><g transform="translate(829 573.5625) rotate(0 0 11.5)" stroke="none"><path fill="#d9480f" d="M 2.43,0 Q 2.43,0 2.44,1.43 2.44,2.87 2.47,4.06 2.50,5.24 2.51,6.61 2.51,7.97 2.46,9.71 2.40,11.44 2.42,12.75 2.44,14.06 2.40,15.76 2.36,17.47 2.40,19.92 2.45,22.36 2.38,22.75 2.32,23.15 2.13,23.50 1.95,23.85 1.66,24.12 1.37,24.39 1.01,24.56 0.65,24.73 0.26,24.77 -0.13,24.81 -0.52,24.73 -0.90,24.64 -1.24,24.44 -1.58,24.23 -1.84,23.93 -2.10,23.63 -2.24,23.26 -2.39,22.89 -2.41,22.49 -2.43,22.10 -2.33,21.72 -2.22,21.33 -2.00,21.00 -1.78,20.68 -1.46,20.44 -1.14,20.20 -0.77,20.07 -0.39,19.94 0.00,19.94 0.39,19.94 0.77,20.07 1.14,20.20 1.46,20.44 1.78,20.68 2.00,21.01 2.22,21.33 2.33,21.72 2.43,22.10 2.41,22.49 2.39,22.89 2.24,23.26 2.10,23.63 1.84,23.93 1.58,24.23 1.24,24.44 0.90,24.64 0.51,24.73 0.13,24.81 -0.26,24.77 -0.65,24.73 -1.01,24.56 -1.37,24.39 -1.66,24.12 -1.95,23.85 -2.13,23.50 -2.32,23.15 -2.38,22.75 -2.45,22.36 -2.45,22.36 -2.45,22.36 -2.40,19.92 -2.36,17.47 -2.40,15.76 -2.44,14.06 -2.42,12.75 -2.40,11.44 -2.46,9.71 -2.51,7.97 -2.51,6.61 -2.50,5.24 -2.47,4.06 -2.44,2.87 -2.44,1.43 -2.43,0 -2.40,-0.29 -2.36,-0.58 -2.26,-0.85 -2.15,-1.13 -1.99,-1.37 -1.82,-1.61 -1.60,-1.81 -1.38,-2.00 -1.12,-2.14 -0.86,-2.28 -0.57,-2.35 -0.29,-2.42 0.00,-2.42 0.29,-2.42 0.57,-2.35 0.86,-2.28 1.12,-2.14 1.38,-2.00 1.60,-1.81 1.82,-1.61 1.99,-1.37 2.15,-1.13 2.26,-0.85 2.36,-0.58 2.40,-0.29 2.43,0.00 2.43,0.00 L 2.43,0 Z"></path></g><g transform="translate(837 536.5625) rotate(0 6 12.5)"><text x="0" y="18" font-family="Virgil, Segoe UI Emoji" font-size="20px" fill="#d9480f" text-anchor="start" style="white-space: pre;" direction="ltr">z</text></g><g transform="translate(993 551.5625) rotate(0 7.5 12.5)"><text x="0" y="18" font-family="Virgil, Segoe UI Emoji" font-size="20px" fill="#000000" text-anchor="start" style="white-space: pre;" direction="ltr">Q</text></g></svg>