<svg version="1.1" xmlns="http://www.w3.org/2000/svg" viewBox="0 0 10020 711.28125" width="10020" height="711.28125">
  <!-- svg-source:excalidraw -->
  
  <defs>
    <style>
      @font-face {
        font-family: "Virgil";
        src: url("https://excalidraw.com/Virgil.woff2");
      }
      @font-face {
        font-family: "Cascadia";
        src: url("https://excalidraw.com/Cascadia.woff2");
      }
    </style>
  </defs>
  <rect x="0" y="0" width="10020" height="711.28125" fill="#fff0"></rect><g stroke-linecap="round" transform="translate(10 10) rotate(0 5000 0.5)"><path d="M-0.52 -0.26 C3022.65 -30.2, 6044.59 -29.2, 9999.32 0.22 M0.38 -0.31 C3948.03 -0.44, 7895.41 0.2, 9999.95 0.08 M10000.08 -0.06 C10000.09 0.27, 10000.05 0.48, 10000.09 0.92 M9999.97 0.01 C9999.95 0.33, 9999.98 0.72, 10000 0.99 M10000.22 1.51 C7095.77 35.76, 4193.15 34.95, -0.25 0.75 M10000.01 1.13 C7827.97 2.74, 5656.23 3.35, -0.33 0.84 M-0.04 1.01 C0 0.63, -0.06 0.15, 0.05 -0.03 M-0.04 0.95 C-0.04 0.73, -0.03 0.59, -0.05 -0.02" stroke="transparent" stroke-width="1" fill="none"></path></g><g stroke-linecap="round"><g transform="translate(583 547.28125) rotate(0 176.5 1.5)"><path d="M-0.22 1.07 C58.69 1.83, 294.84 4.01, 353.8 4.18 M-1.8 0.59 C57 1.07, 294.13 2.29, 353.27 2.68" stroke="#000" stroke-width="1" fill="none"></path></g></g><g stroke-linecap="round"><g transform="translate(570 698.28125) rotate(0 190.5 -9)"><path d="M0.17 -0.72 C63.64 -3.78, 317.87 -14.52, 381.26 -17.29 M-1.2 1.51 C62.1 -1.37, 317 -15.57, 380.45 -19.04" stroke="#000" stroke-width="1" fill="none"></path></g></g><g stroke-linecap="round"><g transform="translate(934 549.28125) rotate(0 2.5 67.5)"><path d="M-0.91 0.51 C-0.02 23.18, 3.84 112.47, 4.67 134.91 M0.81 -0.26 C1.58 22.69, 2.6 113.6, 3.55 136.4" stroke="#000" stroke-width="1" fill="none"></path></g></g><g stroke-linecap="round"><g transform="translate(591 548.28125) rotate(0 0.5 76.5)"><path d="M0.55 0.32 C0.62 25.98, 1.33 127.66, 1.6 152.94 M-0.62 -0.56 C-0.75 25.39, 0.53 128.88, 0.96 154.45" stroke="#000" stroke-width="1" fill="none"></path></g></g><g stroke-linecap="round" transform="translate(630 573.28125) rotate(0 64.5 45)"><path d="M62.72 -0.12 C72.6 -0.82, 84.53 2.42, 94.07 5.93 C103.61 9.44, 114.16 14.79, 119.96 20.92 C125.76 27.05, 128.71 35.24, 128.87 42.7 C129.04 50.15, 125.97 59.05, 120.94 65.66 C115.92 72.27, 107.78 78.44, 98.71 82.34 C89.64 86.24, 77.16 88.6, 66.53 89.06 C55.91 89.52, 44.32 88.4, 34.99 85.1 C25.65 81.8, 16.49 75.54, 10.54 69.25 C4.58 62.97, -0.17 55.04, -0.77 47.39 C-1.37 39.73, 1.69 30.02, 6.93 23.34 C12.16 16.66, 20.63 11.17, 30.62 7.32 C40.6 3.47, 60.45 1.4, 66.85 0.23 C73.25 -0.93, 69.21 -0.47, 69.03 0.33 M85.54 2.55 C95.71 4.17, 105.74 8.68, 112.66 14.41 C119.58 20.14, 125.02 29.4, 127.07 36.95 C129.12 44.5, 128.23 52.49, 124.97 59.71 C121.7 66.92, 115.38 75.56, 107.46 80.22 C99.54 84.89, 87.98 86.34, 77.43 87.69 C66.89 89.04, 54.54 90.25, 44.2 88.33 C33.85 86.42, 22.65 81.92, 15.36 76.19 C8.06 70.47, 2.51 61.82, 0.41 53.98 C-1.68 46.15, -0.77 36.09, 2.77 29.18 C6.32 22.27, 13.41 17.16, 21.67 12.52 C29.93 7.88, 41.89 3.07, 52.33 1.35 C62.76 -0.37, 78.95 1.92, 84.28 2.2 C89.62 2.48, 84.49 2.22, 84.32 3.02" stroke="#000" stroke-width="1" fill="none"></path></g><g stroke-linecap="round" transform="translate(716 574.28125) rotate(0 66 48)"><path d="M80.39 1.31 C90.09 1.9, 100.9 5.7, 108.72 10.69 C116.53 15.68, 123.4 24.12, 127.28 31.25 C131.16 38.38, 133.16 46.24, 131.99 53.47 C130.83 60.71, 126.07 68.55, 120.27 74.65 C114.47 80.75, 106.07 86.48, 97.19 90.08 C88.31 93.68, 77.23 96, 66.99 96.25 C56.76 96.49, 44.96 94.82, 35.79 91.57 C26.62 88.32, 17.84 82.93, 12 76.76 C6.15 70.58, 1.97 62.17, 0.71 54.5 C-0.55 46.82, 0.81 37.56, 4.45 30.7 C8.09 23.85, 15.07 18.25, 22.56 13.36 C30.04 8.47, 38.87 3.19, 49.36 1.35 C59.86 -0.49, 78.83 1.84, 85.54 2.3 C92.24 2.76, 89.97 3.54, 89.57 4.12 M49.89 0.6 C58.65 -1.94, 69.82 -1.61, 79.61 0.14 C89.41 1.89, 100.54 6.28, 108.64 11.11 C116.75 15.93, 124.43 21.91, 128.26 29.07 C132.1 36.23, 132.89 46.66, 131.63 54.07 C130.38 61.49, 126.4 67.47, 120.74 73.56 C115.08 79.66, 106.62 87.04, 97.66 90.64 C88.69 94.24, 76.98 95.01, 66.96 95.17 C56.94 95.32, 46.7 94.9, 37.53 91.57 C28.36 88.24, 18.22 81.13, 11.94 75.2 C5.66 69.27, 1.05 63.4, -0.17 55.99 C-1.38 48.59, 1.3 38.1, 4.68 30.78 C8.06 23.46, 12.88 16.72, 20.13 12.08 C27.39 7.45, 43.57 4.42, 48.22 2.98 C52.86 1.54, 47.68 2.83, 47.99 3.44" stroke="#000" stroke-width="1" fill="none"></path></g><g transform="translate(610 588.28125) rotate(0 11.5 -20)" stroke="none"><path fill="#000" d="M -1.88,0 Q -1.88,0 -1.89,-1.73 -1.90,-3.47 -0.92,-6.47 0.05,-9.46 1.36,-12.41 2.68,-15.36 3.80,-18.26 4.92,-21.17 6.01,-23.60 7.10,-26.03 7.83,-28.14 8.56,-30.24 9.46,-32.12 10.37,-34.00 10.60,-35.24 10.83,-36.48 11.23,-37.76 11.63,-39.04 12.55,-39.98 13.47,-40.92 15.04,-40.94 16.62,-40.96 17.80,-39.79 18.98,-38.62 19.83,-36.58 20.68,-34.53 21.02,-31.15 21.35,-27.76 21.43,-25.25 21.51,-22.73 21.84,-20.93 22.16,-19.12 22.57,-17.19 22.97,-15.26 23.68,-13.83 24.38,-12.41 24.45,-12.12 24.52,-11.84 24.49,-11.54 24.47,-11.25 24.35,-10.98 24.23,-10.70 24.03,-10.49 23.83,-10.27 23.57,-10.12 23.32,-9.98 23.03,-9.93 22.73,-9.87 22.44,-9.91 22.15,-9.96 21.89,-10.09 21.62,-10.22 21.41,-10.43 21.21,-10.64 21.08,-10.91 20.95,-11.17 20.91,-11.47 20.87,-11.76 20.93,-12.05 20.99,-12.34 21.13,-12.60 21.28,-12.85 21.50,-13.05 21.72,-13.25 22.00,-13.36 22.27,-13.48 22.56,-13.50 22.86,-13.52 23.14,-13.45 23.43,-13.37 23.68,-13.21 23.93,-13.05 24.11,-12.82 24.29,-12.59 24.39,-12.31 24.49,-12.03 24.50,-11.74 24.51,-11.44 24.42,-11.16 24.33,-10.88 24.16,-10.64 23.98,-10.40 23.74,-10.23 23.50,-10.06 23.22,-9.97 22.93,-9.89 22.64,-9.90 22.34,-9.91 22.06,-10.01 21.79,-10.11 21.56,-10.30 21.33,-10.49 21.17,-10.74 21.01,-10.99 21.01,-10.99 21.01,-10.99 20.37,-12.76 19.72,-14.53 19.26,-16.51 18.79,-18.50 18.41,-20.51 18.03,-22.52 17.81,-24.92 17.58,-27.32 17.21,-30.08 16.83,-32.83 15.93,-35.21 15.03,-37.58 14.54,-36.57 14.05,-35.57 13.52,-34.14 13.00,-32.71 12.14,-31.02 11.28,-29.32 10.55,-27.09 9.82,-24.85 8.82,-22.47 7.82,-20.09 6.75,-17.09 5.68,-14.08 4.53,-11.25 3.39,-8.41 2.65,-5.91 1.90,-3.42 1.89,-1.71 1.88,0 1.85,0.22 1.82,0.45 1.74,0.66 1.66,0.87 1.53,1.06 1.40,1.24 1.23,1.39 1.06,1.54 0.86,1.65 0.66,1.76 0.44,1.81 0.22,1.86 -0.00,1.86 -0.22,1.86 -0.44,1.81 -0.66,1.76 -0.86,1.65 -1.06,1.54 -1.23,1.39 -1.40,1.24 -1.53,1.06 -1.66,0.87 -1.74,0.66 -1.82,0.45 -1.85,0.22 -1.88,-0.00 -1.88,-0.00 L -1.88,0 Z"></path></g><g transform="translate(615 572.28125) rotate(0 4.5 -1)" stroke="none"><path fill="#000" d="M 0,-2.35 Q 0,-2.35 1.40,-2.35 2.81,-2.36 5.30,-3.29 7.78,-4.22 8.18,-4.26 8.58,-4.30 8.97,-4.21 9.35,-4.12 9.69,-3.91 10.03,-3.70 10.29,-3.40 10.54,-3.09 10.69,-2.72 10.83,-2.35 10.85,-1.95 10.87,-1.55 10.76,-1.17 10.65,-0.79 10.42,-0.46 10.19,-0.13 9.87,0.10 9.55,0.33 9.17,0.46 8.80,0.58 8.40,0.58 8.00,0.57 7.62,0.44 7.25,0.31 6.93,0.07 6.62,-0.17 6.40,-0.50 6.18,-0.83 6.07,-1.21 5.97,-1.60 6.00,-2.00 6.02,-2.39 6.17,-2.76 6.32,-3.13 6.58,-3.43 6.85,-3.73 7.19,-3.94 7.53,-4.14 7.92,-4.22 8.31,-4.30 8.71,-4.25 9.10,-4.21 9.46,-4.04 9.82,-3.87 10.11,-3.59 10.40,-3.31 10.58,-2.96 10.76,-2.60 10.82,-2.21 10.88,-1.82 10.81,-1.43 10.75,-1.03 10.56,-0.68 10.37,-0.33 10.07,-0.06 9.78,0.20 9.42,0.36 9.06,0.53 9.06,0.53 9.06,0.53 5.99,1.44 2.93,2.36 1.46,2.35 0,2.35 -0.28,2.31 -0.56,2.28 -0.82,2.18 -1.09,2.08 -1.32,1.92 -1.55,1.76 -1.74,1.54 -1.93,1.33 -2.06,1.08 -2.19,0.83 -2.26,0.55 -2.33,0.28 -2.33,-0.00 -2.33,-0.28 -2.26,-0.55 -2.19,-0.83 -2.06,-1.08 -1.93,-1.33 -1.74,-1.54 -1.55,-1.76 -1.32,-1.92 -1.09,-2.08 -0.82,-2.18 -0.56,-2.28 -0.28,-2.31 0.00,-2.35 0.00,-2.35 L 0,-2.35 Z"></path></g><g transform="translate(869 571.28125) rotate(0 8.5 15)" stroke="none"><path fill="#000" d="M 1.98,0.24 Q 1.98,0.24 1.60,2.53 1.22,4.82 0.74,7.54 0.26,10.25 0.05,13.05 -0.16,15.84 -0.27,18.47 -0.38,21.11 -0.44,23.38 -0.49,25.64 -0.39,26.90 -0.30,28.16 -0.26,28.40 -0.22,28.65 -0.24,28.86 -0.27,29.07 -0.35,29.27 -0.43,29.47 -0.55,29.64 -0.67,29.82 -0.83,29.96 -1.00,30.10 -1.19,30.20 -1.38,30.29 -1.58,30.34 -1.79,30.39 -2.01,30.39 -2.22,30.39 -2.43,30.33 -2.63,30.28 -2.82,30.18 -3.01,30.08 -3.17,29.93 -3.33,29.79 -3.44,29.61 -3.56,29.44 -3.64,29.24 -3.71,29.04 -3.73,28.82 -3.76,28.61 -3.49,27.10 -3.22,25.58 -3.18,24.26 -3.13,22.94 -2.71,20.83 -2.29,18.72 -2.22,17.32 -2.14,15.92 -1.43,13.94 -0.72,11.96 -0.18,10.76 0.36,9.57 0.91,7.72 1.46,5.86 3.04,4.80 4.63,3.74 6.90,4.10 9.17,4.46 10.08,5.62 11.00,6.78 11.40,8.33 11.79,9.88 11.65,11.54 11.50,13.20 10.88,14.15 10.26,15.11 8.57,16.39 6.87,17.67 5.58,18.17 4.28,18.67 3.91,18.79 3.55,18.91 3.16,18.94 2.77,18.97 2.39,18.91 2.01,18.85 1.65,18.70 1.30,18.54 0.99,18.31 0.68,18.08 0.44,17.78 0.19,17.48 0.03,17.13 -0.13,16.77 -0.21,16.40 -0.28,16.02 -0.27,15.63 -0.25,15.24 -0.14,14.87 -0.03,14.50 0.15,14.16 0.35,13.83 0.61,13.55 0.88,13.27 1.21,13.06 1.54,12.86 2.88,13.19 4.22,13.52 5.87,13.25 7.52,12.98 9.10,13.05 10.67,13.13 12.20,13.18 13.73,13.24 15.42,13.19 17.11,13.15 18.37,13.64 19.63,14.12 20.43,15.03 21.22,15.94 21.53,17.25 21.83,18.57 21.56,20.02 21.29,21.48 20.84,22.61 20.39,23.75 19.77,24.75 19.15,25.74 18.22,26.49 17.30,27.23 15.86,27.81 14.43,28.39 13.10,29.24 11.78,30.08 10.04,30.58 8.31,31.07 6.66,31.16 5.01,31.24 2.68,31.27 0.36,31.29 -0.16,31.20 -0.69,31.12 -1.16,30.87 -1.63,30.62 -2.00,30.24 -2.37,29.85 -2.59,29.37 -2.82,28.88 -2.87,28.35 -2.93,27.82 -2.82,27.30 -2.71,26.78 -2.43,26.32 -2.16,25.87 -1.75,25.52 -1.35,25.17 -0.85,24.98 -0.36,24.78 0.17,24.75 0.70,24.72 1.21,24.86 1.73,25.00 2.17,25.30 2.61,25.60 2.93,26.02 3.26,26.44 3.43,26.95 3.60,27.45 3.60,27.99 3.60,28.52 3.43,29.03 3.26,29.53 2.94,29.96 2.62,30.38 2.18,30.68 1.74,30.98 1.22,31.13 0.71,31.27 0.18,31.24 -0.34,31.21 -0.84,31.02 -1.34,30.82 -1.74,30.48 -2.15,30.13 -2.43,29.68 -2.70,29.22 -2.82,28.70 -2.93,28.18 -2.88,27.65 -2.82,27.12 -2.60,26.63 -2.37,26.15 -2.01,25.76 -1.64,25.37 -1.17,25.12 -0.70,24.87 -0.17,24.79 0.34,24.70 0.34,24.70 0.34,24.70 2.60,24.70 4.85,24.70 6.43,24.67 8.00,24.63 9.04,24.18 10.09,23.74 10.98,23.16 11.88,22.59 13.32,22.01 14.76,21.42 15.80,20.13 16.85,18.84 15.28,18.79 13.72,18.75 12.19,18.80 10.65,18.85 9.07,18.91 7.48,18.98 5.73,19.08 3.97,19.17 2.84,18.72 1.70,18.27 2.99,18.47 4.28,18.67 3.91,18.79 3.55,18.91 3.16,18.94 2.78,18.97 2.39,18.91 2.01,18.85 1.65,18.70 1.30,18.54 0.99,18.31 0.68,18.08 0.44,17.78 0.19,17.48 0.03,17.13 -0.13,16.78 -0.21,16.40 -0.28,16.02 -0.27,15.63 -0.25,15.24 -0.14,14.87 -0.03,14.50 0.15,14.16 0.35,13.83 0.61,13.55 0.88,13.27 1.21,13.06 1.54,12.86 2.17,12.71 2.80,12.57 4.40,11.97 6.00,11.38 5.39,10.20 4.78,9.02 3.81,11.13 2.84,13.25 2.27,14.79 1.71,16.34 1.50,17.83 1.29,19.32 1.03,21.29 0.78,23.27 0.58,24.81 0.38,26.35 0.08,27.50 -0.22,28.65 -0.24,28.86 -0.27,29.07 -0.35,29.27 -0.43,29.47 -0.55,29.64 -0.67,29.82 -0.83,29.96 -1.00,30.10 -1.19,30.20 -1.38,30.29 -1.58,30.34 -1.79,30.39 -2.01,30.39 -2.22,30.39 -2.43,30.33 -2.63,30.28 -2.82,30.18 -3.01,30.08 -3.17,29.93 -3.33,29.79 -3.44,29.61 -3.56,29.44 -3.64,29.24 -3.71,29.04 -3.73,28.82 -3.76,28.61 -3.71,28.37 -3.65,28.12 -3.53,26.86 -3.40,25.60 -3.40,23.31 -3.39,21.02 -3.35,18.34 -3.32,15.65 -3.18,12.70 -3.05,9.75 -2.71,7.06 -2.37,4.37 -2.18,2.06 -1.98,-0.24 -1.92,-0.48 -1.86,-0.71 -1.75,-0.92 -1.64,-1.14 -1.48,-1.32 -1.32,-1.50 -1.12,-1.63 -0.92,-1.77 -0.69,-1.85 -0.47,-1.94 -0.23,-1.97 0.00,-2.00 0.24,-1.97 0.48,-1.94 0.71,-1.85 0.93,-1.76 1.13,-1.63 1.33,-1.49 1.49,-1.31 1.65,-1.13 1.76,-0.91 1.87,-0.70 1.93,-0.46 1.98,-0.23 1.98,0.00 1.98,0.24 1.98,0.24 L 1.98,0.24 Z"></path></g><g transform="translate(641 608.28125) rotate(0 13 -8.5)" stroke="none"><path fill="#1864ab" d="M -1.58,-1.58 Q -1.58,-1.58 0.51,-3.51 2.61,-5.44 4.73,-7.14 6.85,-8.84 8.98,-10.16 11.12,-11.47 12.55,-12.38 13.98,-13.28 15.99,-14.45 18.00,-15.63 21.32,-17.31 24.64,-18.99 25.01,-19.06 25.38,-19.14 25.76,-19.09 26.13,-19.05 26.48,-18.88 26.82,-18.72 27.09,-18.45 27.36,-18.19 27.53,-17.85 27.71,-17.51 27.76,-17.14 27.82,-16.76 27.75,-16.39 27.69,-16.01 27.50,-15.68 27.32,-15.35 27.04,-15.09 26.76,-14.83 26.41,-14.68 26.07,-14.53 25.69,-14.49 25.31,-14.45 24.94,-14.54 24.57,-14.63 24.25,-14.83 23.93,-15.03 23.69,-15.32 23.44,-15.62 23.31,-15.97 23.17,-16.32 23.16,-16.70 23.14,-17.08 23.25,-17.45 23.36,-17.81 23.58,-18.12 23.79,-18.43 24.10,-18.66 24.40,-18.88 24.77,-19.00 25.13,-19.12 25.51,-19.11 25.89,-19.11 26.24,-18.98 26.60,-18.85 26.90,-18.62 27.20,-18.38 27.41,-18.07 27.62,-17.75 27.71,-17.38 27.81,-17.01 27.78,-16.64 27.76,-16.26 27.61,-15.91 27.47,-15.56 27.22,-15.27 26.97,-14.99 26.64,-14.79 26.31,-14.60 26.31,-14.60 26.31,-14.60 23.86,-13.46 21.41,-12.32 19.60,-11.87 17.79,-11.43 16.79,-10.83 15.79,-10.22 14.37,-9.44 12.95,-8.66 11.08,-7.37 9.21,-6.07 7.32,-4.34 5.43,-2.60 3.51,-0.51 1.58,1.58 1.37,1.75 1.16,1.92 0.91,2.03 0.66,2.14 0.40,2.19 0.13,2.24 -0.13,2.22 -0.40,2.21 -0.66,2.12 -0.92,2.04 -1.15,1.90 -1.38,1.76 -1.57,1.57 -1.76,1.38 -1.90,1.15 -2.04,0.92 -2.13,0.66 -2.21,0.40 -2.22,0.13 -2.24,-0.13 -2.19,-0.40 -2.14,-0.66 -2.03,-0.91 -1.92,-1.16 -1.75,-1.37 -1.58,-1.58 -1.58,-1.58 L -1.58,-1.58 Z"></path></g><g transform="translate(651 638.28125) rotate(0 26.5 -24.5)" stroke="none"><path fill="#1864ab" d="M -0.91,-1.65 Q -0.91,-1.65 1.70,-3.02 4.33,-4.39 7.20,-5.82 10.07,-7.26 13.24,-9.25 16.41,-11.24 18.88,-13.19 21.35,-15.14 22.90,-17.04 24.45,-18.93 25.00,-20.05 25.55,-21.17 26.05,-22.26 26.55,-23.36 28.78,-25.15 31.01,-26.95 32.07,-27.96 33.13,-28.96 34.51,-30.01 35.89,-31.07 36.95,-32.05 38.01,-33.03 38.91,-33.64 39.82,-34.25 40.96,-35.87 42.11,-37.48 43.12,-39.06 44.13,-40.65 45.16,-41.87 46.18,-43.09 47.06,-44.94 47.93,-46.80 48.99,-48.31 50.05,-49.83 50.31,-50.25 50.57,-50.66 50.94,-50.98 51.32,-51.29 51.78,-51.47 52.24,-51.65 52.73,-51.67 53.22,-51.69 53.69,-51.56 54.17,-51.42 54.57,-51.14 54.98,-50.86 55.27,-50.47 55.56,-50.07 55.72,-49.61 55.87,-49.14 55.86,-48.65 55.86,-48.15 55.70,-47.69 55.54,-47.23 55.24,-46.84 54.93,-46.45 54.52,-46.18 54.11,-45.90 53.64,-45.78 53.16,-45.65 52.67,-45.68 52.18,-45.71 51.73,-45.90 51.27,-46.08 50.90,-46.41 50.53,-46.73 50.28,-47.15 50.03,-47.58 49.93,-48.06 49.83,-48.54 49.88,-49.03 49.94,-49.52 50.15,-49.96 50.36,-50.40 50.71,-50.76 51.05,-51.11 51.48,-51.34 51.92,-51.56 52.41,-51.64 52.89,-51.71 53.38,-51.63 53.86,-51.55 54.29,-51.31 54.73,-51.08 55.06,-50.72 55.40,-50.36 55.60,-49.91 55.80,-49.46 55.85,-48.97 55.90,-48.48 55.79,-48.00 55.68,-47.52 55.68,-47.52 55.68,-47.52 54.21,-45.43 52.74,-43.34 52.03,-42.24 51.32,-41.13 50.29,-39.73 49.27,-38.33 48.28,-37.30 47.30,-36.27 46.58,-35.24 45.85,-34.20 44.69,-32.87 43.52,-31.55 42.06,-30.78 40.60,-30.02 39.37,-29.01 38.14,-28.01 36.83,-27.09 35.53,-26.17 34.34,-25.24 33.15,-24.31 31.43,-22.90 29.71,-21.50 29.04,-20.47 28.37,-19.44 27.52,-18.28 26.67,-17.12 24.94,-14.98 23.21,-12.85 20.64,-10.75 18.08,-8.65 14.82,-6.51 11.57,-4.38 8.79,-2.86 6.01,-1.35 3.46,0.14 0.91,1.65 0.70,1.74 0.49,1.82 0.27,1.85 0.04,1.89 -0.18,1.87 -0.40,1.84 -0.62,1.77 -0.83,1.69 -1.03,1.57 -1.22,1.44 -1.37,1.27 -1.53,1.11 -1.64,0.91 -1.75,0.71 -1.81,0.49 -1.87,0.27 -1.87,0.04 -1.88,-0.18 -1.83,-0.40 -1.78,-0.62 -1.68,-0.83 -1.58,-1.03 -1.43,-1.21 -1.28,-1.38 -1.10,-1.52 -0.91,-1.65 -0.91,-1.65 L -0.91,-1.65 Z"></path></g><g transform="translate(686 656.28125) rotate(0 9.5 -7.5)" stroke="none"><path fill="#1864ab" d="M -1.06,-1.67 Q -1.06,-1.67 2.14,-3.60 5.35,-5.54 7.53,-7.16 9.71,-8.77 11.50,-10.30 13.29,-11.82 15.11,-13.67 16.94,-15.51 17.18,-15.67 17.42,-15.83 17.69,-15.91 17.97,-15.98 18.26,-15.97 18.55,-15.95 18.82,-15.84 19.08,-15.73 19.30,-15.54 19.52,-15.35 19.67,-15.11 19.81,-14.86 19.87,-14.57 19.93,-14.29 19.90,-14.01 19.87,-13.72 19.74,-13.46 19.62,-13.20 19.42,-12.99 19.22,-12.78 18.97,-12.65 18.71,-12.51 18.43,-12.47 18.14,-12.43 17.86,-12.47 17.57,-12.52 17.32,-12.66 17.06,-12.80 16.87,-13.01 16.67,-13.22 16.55,-13.48 16.43,-13.74 16.40,-14.03 16.37,-14.32 16.44,-14.60 16.50,-14.88 16.65,-15.13 16.80,-15.37 17.02,-15.56 17.24,-15.74 17.51,-15.85 17.78,-15.95 18.07,-15.97 18.36,-15.98 18.64,-15.90 18.91,-15.82 19.15,-15.66 19.39,-15.49 19.56,-15.26 19.73,-15.03 19.82,-14.76 19.91,-14.48 19.91,-14.20 19.91,-13.91 19.82,-13.63 19.72,-13.36 19.55,-13.13 19.37,-12.90 19.37,-12.91 19.37,-12.91 17.37,-11.18 15.38,-9.46 13.57,-7.80 11.76,-6.14 9.52,-4.32 7.29,-2.50 4.17,-0.41 1.06,1.67 0.84,1.77 0.63,1.87 0.39,1.92 0.16,1.97 -0.07,1.96 -0.31,1.95 -0.54,1.89 -0.77,1.82 -0.97,1.70 -1.18,1.58 -1.35,1.42 -1.53,1.25 -1.66,1.05 -1.78,0.85 -1.86,0.62 -1.94,0.40 -1.96,0.16 -1.98,-0.07 -1.94,-0.31 -1.90,-0.54 -1.81,-0.76 -1.71,-0.98 -1.57,-1.17 -1.43,-1.36 -1.24,-1.52 -1.06,-1.67 -1.06,-1.67 L -1.06,-1.67 Z"></path></g><g transform="translate(668 639.28125) rotate(0 21 -12.5)" stroke="none"><path fill="#1864ab" d="M -1.48,-1.78 Q -1.48,-1.78 0.32,-3.11 2.13,-4.45 4.18,-5.63 6.22,-6.81 7.89,-7.85 9.57,-8.90 10.75,-9.91 11.93,-10.91 12.68,-11.68 13.43,-12.45 14.49,-13.65 15.55,-14.85 17.18,-16.33 18.81,-17.82 19.87,-18.46 20.92,-19.10 21.90,-19.55 22.88,-19.99 24.10,-20.42 25.33,-20.86 27.23,-22.13 29.12,-23.40 31.21,-24.00 33.29,-24.60 34.77,-25.57 36.25,-26.54 38.60,-27.22 40.95,-27.90 41.44,-27.93 41.94,-27.95 42.42,-27.82 42.89,-27.69 43.30,-27.41 43.71,-27.13 44.01,-26.73 44.31,-26.34 44.47,-25.87 44.63,-25.40 44.63,-24.90 44.63,-24.41 44.47,-23.94 44.31,-23.47 44.01,-23.07 43.71,-22.68 43.29,-22.40 42.88,-22.13 42.41,-21.99 41.93,-21.86 41.43,-21.89 40.94,-21.92 40.48,-22.10 40.02,-22.29 39.64,-22.61 39.26,-22.93 39.01,-23.36 38.75,-23.78 38.65,-24.27 38.54,-24.75 38.60,-25.24 38.65,-25.74 38.86,-26.18 39.07,-26.63 39.41,-26.99 39.75,-27.35 40.19,-27.58 40.63,-27.82 41.12,-27.89 41.61,-27.97 42.10,-27.89 42.59,-27.81 43.02,-27.58 43.46,-27.34 43.80,-26.98 44.14,-26.62 44.35,-26.17 44.56,-25.72 44.61,-25.23 44.66,-24.74 44.55,-24.25 44.45,-23.77 44.19,-23.34 43.93,-22.92 43.56,-22.60 43.18,-22.28 42.72,-22.10 42.25,-21.92 42.26,-21.92 42.26,-21.92 40.48,-21.40 38.71,-20.89 37.51,-20.42 36.31,-19.95 35.20,-19.51 34.09,-19.07 32.94,-18.93 31.80,-18.79 30.85,-18.25 29.89,-17.72 28.50,-16.81 27.11,-15.90 25.31,-15.33 23.51,-14.76 21.79,-14.04 20.07,-13.32 19.43,-12.43 18.79,-11.54 17.44,-10.46 16.10,-9.39 15.18,-8.71 14.27,-8.02 12.89,-6.96 11.51,-5.90 9.85,-4.79 8.20,-3.67 6.48,-2.48 4.76,-1.29 3.12,0.24 1.48,1.78 1.24,1.93 1.01,2.08 0.75,2.17 0.48,2.26 0.20,2.29 -0.07,2.31 -0.34,2.27 -0.62,2.23 -0.88,2.12 -1.13,2.01 -1.36,1.85 -1.58,1.68 -1.76,1.47 -1.94,1.25 -2.06,1.00 -2.19,0.75 -2.25,0.48 -2.30,0.20 -2.30,-0.06 -2.29,-0.34 -2.21,-0.61 -2.14,-0.88 -2.00,-1.13 -1.86,-1.37 -1.67,-1.57 -1.48,-1.78 -1.48,-1.78 L -1.48,-1.78 Z"></path></g><g transform="translate(647 620.28125) rotate(0 25.5 -22)" stroke="none"><path fill="#1864ab" d="M -0.82,-1.85 Q -0.82,-1.85 1.79,-2.92 4.42,-3.98 6.35,-4.95 8.28,-5.92 9.68,-6.71 11.07,-7.50 12.08,-8.36 13.10,-9.22 14.86,-10.21 16.62,-11.21 18.16,-12.16 19.70,-13.12 21.21,-14.10 22.73,-15.08 24.23,-16.08 25.74,-17.07 26.57,-17.81 27.39,-18.55 28.35,-19.84 29.30,-21.14 31.16,-22.56 33.02,-23.97 34.35,-25.45 35.69,-26.92 36.27,-28.55 36.86,-30.18 37.35,-31.33 37.85,-32.49 38.41,-33.44 38.98,-34.40 39.84,-35.94 40.70,-37.49 41.28,-38.46 41.87,-39.43 42.98,-40.81 44.09,-42.20 45.13,-42.96 46.18,-43.71 47.30,-44.75 48.42,-45.78 48.84,-46.04 49.26,-46.30 49.74,-46.41 50.21,-46.52 50.70,-46.48 51.19,-46.43 51.64,-46.23 52.09,-46.03 52.45,-45.70 52.81,-45.37 53.05,-44.94 53.29,-44.51 53.37,-44.02 53.46,-43.54 53.39,-43.05 53.31,-42.57 53.09,-42.13 52.87,-41.69 52.51,-41.35 52.16,-41.01 51.72,-40.80 51.28,-40.58 50.79,-40.52 50.30,-40.46 49.82,-40.56 49.34,-40.66 48.92,-40.91 48.49,-41.15 48.17,-41.52 47.85,-41.89 47.66,-42.35 47.47,-42.80 47.44,-43.29 47.40,-43.78 47.53,-44.25 47.65,-44.73 47.92,-45.14 48.19,-45.55 48.58,-45.85 48.96,-46.16 49.43,-46.32 49.89,-46.48 50.38,-46.49 50.87,-46.50 51.34,-46.35 51.81,-46.20 52.20,-45.91 52.60,-45.61 52.88,-45.21 53.16,-44.81 53.30,-44.34 53.44,-43.87 53.42,-43.38 53.40,-42.89 53.22,-42.43 53.05,-41.97 52.73,-41.59 52.42,-41.21 52.42,-41.21 52.42,-41.21 50.95,-39.97 49.48,-38.74 48.49,-37.99 47.51,-37.25 46.66,-36.22 45.82,-35.19 45.13,-33.77 44.45,-32.34 43.59,-31.33 42.73,-30.31 42.27,-29.31 41.80,-28.31 41.29,-27.00 40.79,-25.70 40.22,-24.73 39.66,-23.77 38.57,-22.45 37.48,-21.12 36.62,-20.50 35.75,-19.87 34.37,-19.14 32.99,-18.41 31.42,-16.88 29.85,-15.34 28.82,-14.66 27.78,-13.97 26.27,-12.97 24.75,-11.97 23.21,-10.97 21.67,-9.97 20.08,-8.97 18.50,-7.96 16.96,-7.05 15.42,-6.14 14.09,-5.22 12.76,-4.30 11.33,-3.61 9.90,-2.93 7.91,-1.77 5.92,-0.61 3.37,0.62 0.82,1.85 0.59,1.93 0.35,2.00 0.11,2.01 -0.13,2.03 -0.37,1.98 -0.61,1.93 -0.83,1.83 -1.06,1.73 -1.25,1.58 -1.44,1.43 -1.59,1.23 -1.74,1.04 -1.84,0.82 -1.94,0.59 -1.98,0.35 -2.03,0.11 -2.01,-0.13 -1.99,-0.37 -1.92,-0.61 -1.85,-0.84 -1.72,-1.05 -1.59,-1.26 -1.42,-1.43 -1.24,-1.60 -1.03,-1.73 -0.82,-1.85 -0.82,-1.85 L -0.82,-1.85 Z"></path></g><g transform="translate(711 653.28125) rotate(0 3 -4)" stroke="none"><path fill="#1864ab" d="M -1.86,-1.48 Q -1.86,-1.48 -0.66,-2.88 0.54,-4.28 1.30,-5.24 2.07,-6.20 2.85,-7.42 3.64,-8.64 3.85,-8.97 4.07,-9.29 4.38,-9.53 4.69,-9.76 5.06,-9.89 5.43,-10.02 5.82,-10.02 6.21,-10.02 6.58,-9.90 6.95,-9.77 7.27,-9.54 7.58,-9.30 7.80,-8.98 8.02,-8.66 8.12,-8.28 8.23,-7.90 8.21,-7.51 8.19,-7.12 8.05,-6.76 7.90,-6.40 7.65,-6.10 7.40,-5.80 7.06,-5.60 6.73,-5.40 6.35,-5.31 5.97,-5.23 5.58,-5.27 5.19,-5.31 4.84,-5.47 4.48,-5.63 4.20,-5.90 3.91,-6.17 3.73,-6.51 3.55,-6.86 3.48,-7.24 3.42,-7.63 3.48,-8.01 3.54,-8.40 3.72,-8.75 3.90,-9.09 4.19,-9.36 4.47,-9.63 4.82,-9.79 5.18,-9.96 5.57,-10.00 5.95,-10.05 6.34,-9.96 6.72,-9.88 7.05,-9.68 7.39,-9.48 7.64,-9.18 7.89,-8.89 8.04,-8.52 8.19,-8.16 8.21,-7.77 8.23,-7.38 8.13,-7.01 8.02,-6.63 8.02,-6.63 8.02,-6.63 6.82,-4.88 5.62,-3.13 4.84,-2.30 4.05,-1.46 2.96,0.01 1.86,1.48 1.65,1.69 1.45,1.89 1.20,2.03 0.95,2.18 0.68,2.26 0.40,2.34 0.11,2.36 -0.16,2.37 -0.45,2.32 -0.73,2.26 -0.99,2.14 -1.25,2.02 -1.47,1.84 -1.70,1.66 -1.87,1.44 -2.05,1.21 -2.16,0.94 -2.28,0.68 -2.33,0.40 -2.38,0.11 -2.36,-0.16 -2.34,-0.45 -2.25,-0.72 -2.16,-1.00 -2.01,-1.24 -1.86,-1.48 -1.86,-1.48 L -1.86,-1.48 Z"></path></g><g transform="translate(955 553.28125) rotate(0 11.5 11.5)" stroke="none"><path fill="#000000" d="M 1.78,0.89 Q 1.78,0.89 1.26,2.05 0.75,3.21 0.60,4.55 0.45,5.88 0.32,7.63 0.19,9.37 0.37,11.13 0.55,12.88 1.16,14.33 1.77,15.78 2.57,16.87 3.37,17.97 4.45,18.91 5.54,19.84 7.10,21.21 8.66,22.58 10.11,23.35 11.55,24.11 13.22,24.36 14.88,24.62 16.06,24.58 17.24,24.53 18.20,24.07 19.15,23.60 20.00,22.28 20.84,20.96 21.13,18.37 21.42,15.77 21.88,13.67 22.34,11.57 22.55,9.69 22.77,7.80 22.82,6.13 22.88,4.45 22.77,2.74 22.67,1.02 22.58,-1.23 22.49,-3.49 22.56,-3.89 22.63,-4.29 22.82,-4.65 23.01,-5.00 23.30,-5.28 23.59,-5.56 23.96,-5.73 24.33,-5.90 24.73,-5.94 25.13,-5.99 25.53,-5.90 25.92,-5.81 26.27,-5.60 26.62,-5.39 26.88,-5.08 27.14,-4.78 27.29,-4.40 27.44,-4.02 27.46,-3.62 27.48,-3.22 27.37,-2.83 27.26,-2.44 27.04,-2.10 26.81,-1.77 26.49,-1.52 26.16,-1.28 25.78,-1.15 25.40,-1.02 24.99,-1.02 24.59,-1.02 24.20,-1.15 23.82,-1.28 23.50,-1.53 23.18,-1.77 22.95,-2.11 22.72,-2.44 22.62,-2.83 22.51,-3.22 22.53,-3.63 22.55,-4.03 22.70,-4.41 22.85,-4.78 23.12,-5.09 23.38,-5.40 23.73,-5.61 24.07,-5.81 24.47,-5.90 24.86,-5.99 25.26,-5.94 25.67,-5.90 26.03,-5.73 26.40,-5.56 26.69,-5.28 26.99,-5.00 27.18,-4.64 27.36,-4.28 27.43,-3.89 27.49,-3.49 27.49,-3.49 27.49,-3.49 27.39,-1.19 27.29,1.09 27.11,2.84 26.93,4.59 26.87,6.34 26.81,8.09 26.73,10.19 26.66,12.29 26.45,14.17 26.24,16.04 26.24,18.21 26.23,20.38 25.79,22.07 25.35,23.76 24.59,24.86 23.82,25.97 22.71,27.02 21.61,28.08 19.31,28.72 17.01,29.37 15.61,29.14 14.21,28.91 13.04,28.63 11.87,28.35 10.83,27.85 9.79,27.35 8.09,26.40 6.38,25.44 4.60,24.13 2.82,22.82 1.44,21.51 0.07,20.21 -0.85,18.72 -1.77,17.23 -2.52,15.31 -3.27,13.39 -3.58,11.27 -3.88,9.16 -3.80,7.21 -3.73,5.26 -3.39,3.32 -3.05,1.38 -2.41,0.24 -1.78,-0.89 -1.65,-1.09 -1.51,-1.29 -1.34,-1.45 -1.16,-1.61 -0.95,-1.73 -0.74,-1.84 -0.51,-1.91 -0.27,-1.97 -0.03,-1.97 0.20,-1.98 0.43,-1.93 0.67,-1.87 0.88,-1.77 1.10,-1.66 1.28,-1.50 1.46,-1.35 1.60,-1.15 1.74,-0.96 1.83,-0.73 1.92,-0.51 1.95,-0.27 1.99,-0.03 1.96,0.20 1.94,0.43 1.86,0.66 1.78,0.89 1.78,0.89 L 1.78,0.89 Z"></path></g></svg>