<svg version="1.1" xmlns="http://www.w3.org/2000/svg" viewBox="0 0 10020 697.125" width="10020" height="697.125">
  <!-- svg-source:excalidraw -->
  
  <defs>
    <style>
      @font-face {
        font-family: "Virgil";
        src: url("https://excalidraw.com/Virgil.woff2");
      }
      @font-face {
        font-family: "Cascadia";
        src: url("https://excalidraw.com/Cascadia.woff2");
      }
    </style>
  </defs>
  <rect x="0" y="0" width="10020" height="697.125" fill="#fff0"></rect><g stroke-linecap="round" transform="translate(10 10) rotate(0 5000 0.5)"><path d="M-0.52 -0.26 C3022.65 -30.2, 6044.59 -29.2, 9999.32 0.22 M0.38 -0.31 C3948.03 -0.44, 7895.41 0.2, 9999.95 0.08 M10000.08 -0.06 C10000.09 0.27, 10000.05 0.48, 10000.09 0.92 M9999.97 0.01 C9999.95 0.33, 9999.98 0.72, 10000 0.99 M10000.22 1.51 C7095.77 35.76, 4193.15 34.95, -0.25 0.75 M10000.01 1.13 C7827.97 2.74, 5656.23 3.35, -0.33 0.84 M-0.04 1.01 C0 0.63, -0.06 0.15, 0.05 -0.03 M-0.04 0.95 C-0.04 0.73, -0.03 0.59, -0.05 -0.02" stroke="transparent" stroke-width="1" fill="none"></path></g><g stroke-linecap="round" transform="translate(574.453125 622.125) rotate(0 40.5 32.5)"><path d="M-0.75 0.02 C26.12 0.65, 53.22 1, 79.81 -1.41 M-0.63 0.44 C23.64 0.59, 48.91 -0.37, 80.73 -0.95 M82.67 1.76 C81.4 16.69, 80.98 38.3, 81.85 66.99 M81.73 -0.3 C79.53 14.45, 80.7 28.91, 80.08 64.57 M79.56 66.43 C47.65 65.02, 19.19 66.83, 1.5 66.07 M80.84 65.34 C52.71 65.66, 21.86 65.1, 0.59 64.9 M-1.51 64.85 C-1.78 49.63, 0.11 30.18, -0.35 -1.79 M0.57 65.31 C-0.95 51.07, 0.23 36.06, -0.74 -0.08" stroke="#000" stroke-width="1" fill="none"></path></g><g stroke-linecap="round" transform="translate(733.453125 622.125) rotate(0 45.5 31.5)"><path d="M-1.45 -1.94 C31.67 0.55, 65.21 -2.59, 90.35 0.66 M0.93 -0.01 C21.48 -0.33, 43.74 -0.37, 91.02 0.93 M92.22 -0.23 C91.57 24.43, 92.14 51.41, 92.25 61.71 M90.54 -0.33 C91.65 18.52, 91.3 37.54, 91.57 62.95 M89.49 64.46 C71.53 63.32, 53.35 61.23, 1.34 64.4 M91.32 63.13 C62.14 62.03, 31 63.84, 0.02 62.66 M1.98 63.3 C1.99 41.44, 1.14 16.08, -0.69 1.72 M-0.83 63.6 C0.89 49.6, 0.96 34.63, 0.55 0.08" stroke="#000" stroke-width="1" fill="none"></path></g><g stroke-linecap="round" transform="translate(894.953125 619.625) rotate(0 45.5 31.5)"><path d="M-0.16 0.64 C33.94 2.26, 65.56 -0.73, 92.83 0.04 M-0.09 0.99 C24.34 1.27, 48.88 0.85, 90.08 -0.34 M92.39 -1.66 C91.72 25.44, 91.77 49.9, 90.39 64.11 M91.77 -0.41 C89.94 18.67, 90.31 38.44, 91.11 62.73 M90.68 62.71 C57.58 63.39, 28.98 61.37, 1.98 62.7 M91.78 63.09 C61.29 64.45, 32.03 64.25, -0.01 63.71 M1.84 64.31 C-1.36 37.31, -1.43 12.48, 1.52 -0.55 M0.89 63.24 C-1.13 44.96, 0.74 28.27, -0.42 -0.5" stroke="#000" stroke-width="1" fill="none"></path></g><g stroke-linecap="round"><g transform="translate(656.453125 650.125) rotate(0 33.5 0.5)"><path d="M0.67 0.76 C12.13 0.74, 56.6 0.57, 67.76 0.63 M-0.43 0.11 C11.02 0.2, 55.94 1.58, 67.22 1.97" stroke="#000" stroke-width="1" fill="none"></path></g><g transform="translate(656.453125 650.125) rotate(0 33.5 0.5)"><path d="M39.97 12.6 C44.22 10.25, 51.17 6.2, 66.37 3.52 M38.31 10.97 C46.27 8.84, 53.99 7.36, 66.86 1.81" stroke="#000" stroke-width="1" fill="none"></path></g><g transform="translate(656.453125 650.125) rotate(0 33.5 0.5)"><path d="M40.63 -7.91 C44.86 -5.81, 51.67 -5.42, 66.37 3.52 M38.96 -9.54 C46.6 -6.37, 54.15 -2.54, 66.86 1.81" stroke="#000" stroke-width="1" fill="none"></path></g></g><g stroke-linecap="round"><g transform="translate(832.453125 649.125) rotate(0 27 0)"><path d="M0.91 -0.33 C10.01 -0.11, 44.76 0.04, 53.75 0.28 M-0.06 -1.55 C8.93 -1.61, 43.57 -1.84, 52.67 -1.7" stroke="#000" stroke-width="1" fill="none"></path></g><g transform="translate(832.453125 649.125) rotate(0 27 0)"><path d="M26.72 7.04 C33.67 6.59, 40.84 3.52, 50.71 -2.62 M26.77 8.32 C37.26 3.07, 47.79 1.42, 51.68 -2.01" stroke="#000" stroke-width="1" fill="none"></path></g><g transform="translate(832.453125 649.125) rotate(0 27 0)"><path d="M26.78 -11.43 C33.55 -7.62, 40.7 -6.43, 50.71 -2.62 M26.83 -10.15 C37.37 -8.22, 47.88 -2.69, 51.68 -2.01" stroke="#000" stroke-width="1" fill="none"></path></g></g><g stroke-linecap="round"><g transform="translate(777.453125 616.125) rotate(0 0 -27.5)"><path d="M-0.96 -0.67 C-1.07 -9.73, -0.36 -46.27, -0.11 -55.32 M0.74 1.59 C0.42 -7.21, -1 -44.75, -1.12 -53.94" stroke="#d9480f" stroke-width="1" fill="none"></path></g><g transform="translate(777.453125 616.125) rotate(0 0 -27.5)"><path d="M7.87 -28.55 C5.17 -36.4, 2.3 -46.14, 0.02 -52.06 M8.76 -28.64 C5.13 -35.42, 2.03 -42.83, -1.47 -54.08" stroke="#d9480f" stroke-width="1" fill="none"></path></g><g transform="translate(777.453125 616.125) rotate(0 0 -27.5)"><path d="M-10.93 -28.04 C-7.13 -35.92, -3.51 -45.83, 0.02 -52.06 M-10.05 -28.13 C-8.27 -34.88, -5.96 -42.43, -1.47 -54.08" stroke="#d9480f" stroke-width="1" fill="none"></path></g></g><g stroke-linecap="round"><g transform="translate(602.453125 563.125) rotate(0 0 27.5)"><path d="M0.9 -1.01 C0.84 8.23, -0.11 45.48, -0.2 55 M-0.09 1.08 C-0.34 10.56, -1.24 47.66, -1.25 56.54" stroke="#000000" stroke-width="1" fill="none"></path></g><g transform="translate(602.453125 563.125) rotate(0 0 27.5)"><path d="M-11.95 30.22 C-7.54 39.26, -2.89 48.15, 0.1 58.31 M-9.31 29.84 C-6.58 39.16, -4.4 47.54, -1.08 55.62" stroke="#000000" stroke-width="1" fill="none"></path></g><g transform="translate(602.453125 563.125) rotate(0 0 27.5)"><path d="M6.86 30.5 C5.37 39.6, 4.13 48.4, 0.1 58.31 M9.5 30.13 C6.27 39.46, 2.48 47.74, -1.08 55.62" stroke="#000000" stroke-width="1" fill="none"></path></g></g><g transform="translate(579.453125 642.125) rotate(0 35.5 12.5)"><text x="35.5" y="18" font-family="Virgil, Segoe UI Emoji" font-size="20px" fill="#000000" text-anchor="middle" style="white-space: pre;" direction="ltr">M</text></g><g transform="translate(738.453125 641.125) rotate(0 40.5 12.5)"><text x="40.5" y="18" font-family="Virgil, Segoe UI Emoji" font-size="20px" fill="#000000" text-anchor="middle" style="white-space: pre;" direction="ltr">T</text></g><g transform="translate(899.953125 638.625) rotate(0 40.5 12.5)"><text x="40.5" y="18" font-family="Virgil, Segoe UI Emoji" font-size="20px" fill="#000000" text-anchor="middle" style="white-space: pre;" direction="ltr">U</text></g><g transform="translate(805.453125 530.125) rotate(0 94.5 37.5)"><text x="0" y="18" font-family="Virgil, Segoe UI Emoji" font-size="20px" fill="#d9480f" text-anchor="start" style="white-space: pre;" direction="ltr">Potenza persa da </text><text x="0" y="43" font-family="Virgil, Segoe UI Emoji" font-size="20px" fill="#d9480f" text-anchor="start" style="white-space: pre;" direction="ltr">attriti nella </text><text x="0" y="68" font-family="Virgil, Segoe UI Emoji" font-size="20px" fill="#d9480f" text-anchor="start" style="white-space: pre;" direction="ltr">trasmissione</text></g></svg>