<svg version="1.1" xmlns="http://www.w3.org/2000/svg" viewBox="0 0 10020 760.5" width="10020" height="760.5">
  <!-- svg-source:excalidraw -->
  
  <defs>
    <style>
      @font-face {
        font-family: "Virgil";
        src: url("https://excalidraw.com/Virgil.woff2");
      }
      @font-face {
        font-family: "Cascadia";
        src: url("https://excalidraw.com/Cascadia.woff2");
      }
    </style>
  </defs>
  <rect x="0" y="0" width="10020" height="760.5" fill="#fff0"></rect><g stroke-linecap="round" transform="translate(10 10) rotate(0 5000 0.5)"><path d="M-0.52 -0.26 C3022.65 -30.2, 6044.59 -29.2, 9999.32 0.22 M0.38 -0.31 C3948.03 -0.44, 7895.41 0.2, 9999.95 0.08 M10000.08 -0.06 C10000.09 0.27, 10000.05 0.48, 10000.09 0.92 M9999.97 0.01 C9999.95 0.33, 9999.98 0.72, 10000 0.99 M10000.22 1.51 C7095.77 35.76, 4193.15 34.95, -0.25 0.75 M10000.01 1.13 C7827.97 2.74, 5656.23 3.35, -0.33 0.84 M-0.04 1.01 C0 0.63, -0.06 0.15, 0.05 -0.03 M-0.04 0.95 C-0.04 0.73, -0.03 0.59, -0.05 -0.02" stroke="transparent" stroke-width="1" fill="none"></path></g><g stroke-linecap="round" transform="translate(784.0104217529297 574.1666564941406) rotate(0 45.5 37.5)"><path d="M23.68 5.16 C30.53 1.72, 42.05 -0.58, 50.3 -0.12 C58.56 0.34, 66.86 3.88, 73.23 7.91 C79.6 11.94, 85.85 17.8, 88.52 24.08 C91.19 30.36, 91.23 38.83, 89.25 45.58 C87.27 52.32, 82.36 59.81, 76.65 64.55 C70.93 69.29, 62.77 72.67, 54.95 74.01 C47.13 75.36, 37.5 75.05, 29.72 72.61 C21.94 70.18, 13.1 65.08, 8.26 59.41 C3.42 53.73, 0.97 45.15, 0.66 38.55 C0.36 31.95, 0.85 26.15, 6.44 19.81 C12.03 13.47, 27.99 3.74, 34.2 0.53 C40.4 -2.69, 43.52 -0.1, 43.68 0.52 M45.98 -1.27 C53.77 -1.82, 63.36 1.54, 70.46 5.76 C77.56 9.97, 85.17 17.55, 88.57 24.04 C91.98 30.52, 92.37 37.95, 90.91 44.67 C89.44 51.39, 85.39 59.3, 79.79 64.36 C74.2 69.42, 65.38 73.63, 57.34 75.02 C49.29 76.41, 39.29 75.02, 31.54 72.69 C23.79 70.36, 16.13 66.43, 10.83 61.04 C5.53 55.65, 0.62 47.06, -0.27 40.33 C-1.15 33.6, 1.57 26.39, 5.54 20.66 C9.51 14.93, 16.76 9.33, 23.57 5.94 C30.39 2.56, 42.25 1.06, 46.43 0.36 C50.62 -0.34, 48.7 0.97, 48.68 1.76" stroke="#000" stroke-width="1" fill="none"></path></g><g transform="translate(789.0104217529297 599.1666564941406) rotate(0 40.5 12.5)"><text x="40.5" y="18" font-family="Virgil, Segoe UI Emoji" font-size="20px" fill="#000" text-anchor="middle" style="white-space: pre;" direction="ltr">i</text></g><g stroke-linecap="round"><g transform="translate(694.0104217529297 556.6666564941406) rotate(0 44.166656494140625 14.583328247070312)"><path d="M0.79 0.62 C15.74 5.67, 74.12 24.56, 88.86 29.48 M-0.26 -0.09 C14.66 4.65, 73.33 22.79, 88.19 27.53" stroke="#000000" stroke-width="1" fill="none"></path></g><g transform="translate(694.0104217529297 556.6666564941406) rotate(0 44.166656494140625 14.583328247070312)"><path d="M59.26 29.76 C65.53 29.83, 73.4 29.04, 89.73 28.25 M57.88 28.18 C66.93 28.52, 75.55 28.62, 87.63 27.75" stroke="#000000" stroke-width="1" fill="none"></path></g><g transform="translate(694.0104217529297 556.6666564941406) rotate(0 44.166656494140625 14.583328247070312)"><path d="M65.39 10.18 C70.15 14.72, 76.63 18.35, 89.73 28.25 M64.01 8.6 C71.48 14.35, 78.4 19.86, 87.63 27.75" stroke="#000000" stroke-width="1" fill="none"></path></g></g><g stroke-linecap="round"><g transform="translate(683.1770782470703 605) rotate(0 48.33332824707031 1.666656494140625)"><path d="M0.79 -0.62 C17.03 -0.35, 81.69 2.13, 97.71 2.79 M-0.26 1.66 C15.89 2.6, 81.22 3.54, 97.3 4.05" stroke="#000000" stroke-width="1" fill="none"></path></g><g transform="translate(683.1770782470703 605) rotate(0 48.33332824707031 1.666656494140625)"><path d="M67.85 15.41 C77.05 10.76, 87.18 7.01, 99.15 3.48 M67.91 14.22 C75.98 10.75, 81.33 9.97, 97.36 5.04" stroke="#000000" stroke-width="1" fill="none"></path></g><g transform="translate(683.1770782470703 605) rotate(0 48.33332824707031 1.666656494140625)"><path d="M68.31 -5.11 C77.56 -3.14, 87.54 -0.28, 99.15 3.48 M68.37 -6.3 C76.29 -5.3, 81.55 -1.61, 97.36 5.04" stroke="#000000" stroke-width="1" fill="none"></path></g></g><g stroke-linecap="round"><g transform="translate(693.1770782470703 675.8333129882812) rotate(0 48.33332824707031 -18.333328247070312)"><path d="M1.04 -0.51 C17.07 -6.45, 81.19 -30.28, 97.21 -36.38 M0.12 -1.82 C15.96 -8.08, 80.46 -32.65, 96.54 -38.35" stroke="#000000" stroke-width="1" fill="none"></path></g><g transform="translate(693.1770782470703 675.8333129882812) rotate(0 48.33332824707031 -18.333328247070312)"><path d="M72.81 -18.04 C83.01 -25.76, 90.56 -33.97, 98.07 -38.63 M73.08 -19.15 C80.96 -24.79, 86.52 -30.81, 97.28 -37.37" stroke="#000000" stroke-width="1" fill="none"></path></g><g transform="translate(693.1770782470703 675.8333129882812) rotate(0 48.33332824707031 -18.333328247070312)"><path d="M65.69 -37.29 C78.5 -37.71, 88.77 -38.57, 98.07 -38.63 M65.96 -38.4 C75.89 -38.41, 83.54 -38.77, 97.28 -37.37" stroke="#000000" stroke-width="1" fill="none"></path></g></g><g stroke-linecap="round"><g transform="translate(871.5104217529297 580.8333129882812) rotate(0 51.666656494140625 -15)"><path d="M0.17 -0.37 C17.23 -5.42, 85.6 -26.07, 102.75 -31 M-1.2 -1.61 C16.23 -6.49, 87.93 -25.49, 105.16 -29.99" stroke="#000000" stroke-width="1" fill="none"></path></g><g transform="translate(871.5104217529297 580.8333129882812) rotate(0 51.666656494140625 -15)"><path d="M79.9 -13.85 C87.12 -18.99, 97.05 -25.67, 103.37 -28.12 M80.7 -11.93 C88.75 -19.89, 98.88 -24.23, 105.09 -30.61" stroke="#000000" stroke-width="1" fill="none"></path></g><g transform="translate(871.5104217529297 580.8333129882812) rotate(0 51.666656494140625 -15)"><path d="M74.67 -33.69 C83.52 -32.26, 95.18 -32.35, 103.37 -28.12 M75.47 -31.77 C85.56 -32.63, 97.56 -29.87, 105.09 -30.61" stroke="#000000" stroke-width="1" fill="none"></path></g></g><g stroke-linecap="round"><g transform="translate(885.6770782470703 603.3333129882812) rotate(0 39.58332824707031 -2.0833282470703125)"><path d="M-0.08 -0.74 C12.94 -1.77, 65.85 -4.62, 79.19 -5.13 M-1.59 1.48 C11.19 1.09, 64.72 -3.46, 78.26 -4.1" stroke="#000000" stroke-width="1" fill="none"></path></g><g transform="translate(885.6770782470703 603.3333129882812) rotate(0 39.58332824707031 -2.0833282470703125)"><path d="M49.59 8.09 C59.76 4.69, 72.58 -2.85, 79.78 -4.77 M51.78 8.74 C61.43 3.11, 71.65 -2.1, 77.58 -4.06" stroke="#000000" stroke-width="1" fill="none"></path></g><g transform="translate(885.6770782470703 603.3333129882812) rotate(0 39.58332824707031 -2.0833282470703125)"><path d="M48.2 -12.39 C59.09 -7.83, 72.45 -7.42, 79.78 -4.77 M50.39 -11.73 C60.56 -9.5, 71.31 -6.86, 77.58 -4.06" stroke="#000000" stroke-width="1" fill="none"></path></g></g><g stroke-linecap="round"><g transform="translate(884.8437347412109 625.8333129882812) rotate(0 51.666656494140625 2.083343505859375)"><path d="M-0.62 -0.36 C16.75 0.34, 85.96 3.49, 103.42 4.25 M1.26 -1.6 C18.55 -0.69, 85.42 4.65, 102.51 5.82" stroke="#000000" stroke-width="1" fill="none"></path></g><g transform="translate(884.8437347412109 625.8333129882812) rotate(0 51.666656494140625 2.083343505859375)"><path d="M73.03 14.1 C80.48 13.57, 87.05 10.96, 102.4 5.98 M73.23 14.81 C81.66 11.38, 89.46 8.32, 102.95 6.48" stroke="#000000" stroke-width="1" fill="none"></path></g><g transform="translate(884.8437347412109 625.8333129882812) rotate(0 51.666656494140625 2.083343505859375)"><path d="M74.56 -6.37 C81.66 -2.14, 87.88 0.01, 102.4 5.98 M74.76 -5.65 C82.9 -3.21, 90.27 -0.4, 102.95 6.48" stroke="#000000" stroke-width="1" fill="none"></path></g></g><g stroke-linecap="round"><g transform="translate(873.1770782470703 645.8333129882812) rotate(0 64.16667175292969 12.916671752929688)"><path d="M0.09 0.4 C21.38 4.53, 107.07 21.04, 128.34 25.18 M-1.32 -0.44 C19.76 3.81, 106.07 21.92, 127.4 26.38" stroke="#000000" stroke-width="1" fill="none"></path></g><g transform="translate(873.1770782470703 645.8333129882812) rotate(0 64.16667175292969 12.916671752929688)"><path d="M98.37 30.66 C107.03 28.15, 117.59 27.11, 127.36 25.26 M96.97 31.4 C108.54 28.77, 118.77 28.2, 126.97 25.91" stroke="#000000" stroke-width="1" fill="none"></path></g><g transform="translate(873.1770782470703 645.8333129882812) rotate(0 64.16667175292969 12.916671752929688)"><path d="M102.57 10.58 C109.82 15.12, 118.91 21.12, 127.36 25.26 M101.18 11.32 C111.12 16.12, 119.79 22.98, 126.97 25.91" stroke="#000000" stroke-width="1" fill="none"></path></g></g><g stroke-linecap="round"><g transform="translate(741.5104217529297 535.8333129882812) rotate(0 0.8333282470703125 83.75)"><path d="M0.43 0.51 C0.71 28.39, 2.74 138.42, 2.83 166.44 M-0.8 -0.27 C-0.68 27.79, 1.78 139.56, 2.49 167.42" stroke="#1864ab" stroke-width="1" fill="none"></path></g><g transform="translate(741.5104217529297 535.8333129882812) rotate(0 0.8333282470703125 83.75)"><path d="M-7.57 141.41 C-6.04 149.37, 1.93 160.73, 3.87 167.64 M-9.12 139.41 C-5.04 146.07, -3.95 152.62, 2.54 166.52" stroke="#1864ab" stroke-width="1" fill="none"></path></g><g transform="translate(741.5104217529297 535.8333129882812) rotate(0 0.8333282470703125 83.75)"><path d="M12.95 140.94 C6.31 149.15, 6.11 160.71, 3.87 167.64 M11.4 138.93 C10.64 145.68, 6.9 152.34, 2.54 166.52" stroke="#1864ab" stroke-width="1" fill="none"></path></g></g><g transform="translate(733.0104217529297 722.5) rotate(0 23.5 12.5)"><text x="0" y="18" font-family="Virgil, Segoe UI Emoji" font-size="20px" fill="#1864ab" text-anchor="start" style="white-space: pre;" direction="ltr">BS(i)</text></g><g stroke-linecap="round"><g transform="translate(902.3437347412109 519.1666564941406) rotate(0 0 97.91667175292969)"><path d="M-0.01 -0.6 C0.08 32.15, -0.13 163.51, -0.22 196.14 M-1.47 1.71 C-1.49 34.1, -1.26 161.76, -1.29 194.17" stroke="#d9480f" stroke-width="1" fill="none"></path></g><g transform="translate(902.3437347412109 519.1666564941406) rotate(0 0 97.91667175292969)"><path d="M-12.56 165.61 C-8.73 171.63, -7.9 178.64, -1.81 193.38 M-12.52 165.77 C-7.86 176.97, -3.04 186.74, -2.22 193.34" stroke="#d9480f" stroke-width="1" fill="none"></path></g><g transform="translate(902.3437347412109 519.1666564941406) rotate(0 0 97.91667175292969)"><path d="M7.96 165.6 C6.98 171.62, 2.99 178.63, -1.81 193.38 M8 165.76 C5.13 176.89, 2.41 186.67, -2.22 193.34" stroke="#d9480f" stroke-width="1" fill="none"></path></g></g><g transform="translate(877.3437347412109 725.5) rotate(0 22 12.5)"><text x="0" y="18" font-family="Virgil, Segoe UI Emoji" font-size="20px" fill="#d9480f" text-anchor="start" style="white-space: pre;" direction="ltr">FS(i)</text></g></svg>