<svg version="1.1" xmlns="http://www.w3.org/2000/svg" viewBox="0 0 10020 647.453125" width="10020" height="647.453125">
  <!-- svg-source:excalidraw -->
  
  <defs>
    <style>
      @font-face {
        font-family: "Virgil";
        src: url("https://excalidraw.com/Virgil.woff2");
      }
      @font-face {
        font-family: "Cascadia";
        src: url("https://excalidraw.com/Cascadia.woff2");
      }
    </style>
  </defs>
  <rect x="0" y="0" width="10020" height="647.453125" fill="#fff0"></rect><g stroke-linecap="round" transform="translate(10 10) rotate(0 5000 0.5)"><path d="M-0.52 -0.26 C3022.65 -30.2, 6044.59 -29.2, 9999.32 0.22 M0.38 -0.31 C3948.03 -0.44, 7895.41 0.2, 9999.95 0.08 M10000.08 -0.06 C10000.09 0.27, 10000.05 0.48, 10000.09 0.92 M9999.97 0.01 C9999.95 0.33, 9999.98 0.72, 10000 0.99 M10000.22 1.51 C7095.77 35.76, 4193.15 34.95, -0.25 0.75 M10000.01 1.13 C7827.97 2.74, 5656.23 3.35, -0.33 0.84 M-0.04 1.01 C0 0.63, -0.06 0.15, 0.05 -0.03 M-0.04 0.95 C-0.04 0.73, -0.03 0.59, -0.05 -0.02" stroke="transparent" stroke-width="1" fill="none"></path></g><g stroke-linecap="round" transform="translate(896.34375 560.453125) rotate(0 89 38.5)"><path d="M1.93 1.69 C37.54 -0.73, 75.49 2.05, 176.03 1.88 M-0.25 0.07 C38.07 -1.37, 73.84 -1.68, 177.52 -0.52 M177.11 -1.03 C178.97 27.18, 180.66 54.35, 177.85 76.08 M177.35 0.28 C178.69 25.63, 179 50.73, 178.19 76.48 M178.25 75.98 C125.18 79.24, 73.89 78.72, 0.84 76.27 M177.05 76.19 C135.62 77.43, 94.42 78.86, 0.6 77.78 M-0.19 75.73 C-2.18 50.9, -1.85 22.6, -1.52 0.49 M0.86 76.03 C0.61 59.14, -0.24 40.73, -0.75 -0.87" stroke="#000" stroke-width="1" fill="none"></path></g><g stroke-linecap="round"><g transform="translate(759.34375 591.453125) rotate(0 66.5 0)"><path d="M0.35 1.01 C22.27 1.2, 110.44 0.23, 132.7 0.08 M-0.93 0.49 C20.71 0.99, 109.17 1.49, 131.59 1.66" stroke="#000" stroke-width="1" fill="none"></path></g><g transform="translate(759.34375 591.453125) rotate(0 66.5 0)"><path d="M105.01 11.23 C114.69 9.17, 125.92 2.11, 131.22 0.71 M103.33 11.29 C109.77 9.08, 116.84 7.43, 130.68 1.59" stroke="#000" stroke-width="1" fill="none"></path></g><g transform="translate(759.34375 591.453125) rotate(0 66.5 0)"><path d="M105.15 -9.29 C114.59 -3.27, 125.77 -2.25, 131.22 0.71 M103.47 -9.23 C110.01 -6.34, 117.05 -2.9, 130.68 1.59" stroke="#000" stroke-width="1" fill="none"></path></g></g><g stroke-linecap="round"><g transform="translate(1088.34375 594.453125) rotate(0 68.5 0)"><path d="M0.23 -0.62 C22.98 -0.42, 114.03 0.39, 136.95 0.52 M-1.11 1.66 C21.44 1.56, 112.9 -1.31, 135.97 -1.33" stroke="#000" stroke-width="1" fill="none"></path></g><g transform="translate(1088.34375 594.453125) rotate(0 68.5 0)"><path d="M106.93 9.34 C118.33 6.91, 127.14 1.11, 135.74 -0.12 M107.6 8.79 C117.74 6.17, 126.82 0.88, 135.49 -2.08" stroke="#000" stroke-width="1" fill="none"></path></g><g transform="translate(1088.34375 594.453125) rotate(0 68.5 0)"><path d="M106.56 -11.17 C117.97 -6.69, 126.91 -5.59, 135.74 -0.12 M107.23 -11.73 C117.58 -7.08, 126.78 -5.11, 135.49 -2.08" stroke="#000" stroke-width="1" fill="none"></path></g></g><g transform="translate(1209.34375 529.453125) rotate(0 18.5 12.5)"><text x="0" y="18" font-family="Virgil, Segoe UI Emoji" font-size="20px" fill="#000" text-anchor="start" style="white-space: pre;" direction="ltr">y(t)</text></g><g transform="translate(762.34375 533.453125) rotate(0 19.5 12.5)"><text x="0" y="18" font-family="Virgil, Segoe UI Emoji" font-size="20px" fill="#000" text-anchor="start" style="white-space: pre;" direction="ltr">u(t)</text></g><g transform="translate(901.34375 586.453125) rotate(0 84 12.5)"><text x="84" y="18" font-family="Virgil, Segoe UI Emoji" font-size="20px" fill="#000" text-anchor="middle" style="white-space: pre;" direction="ltr">W(z)</text></g></svg>