<svg version="1.1" xmlns="http://www.w3.org/2000/svg" viewBox="0 0 10020 631.390625" width="10020" height="631.390625">
  <!-- svg-source:excalidraw -->
  
  <defs>
    <style>
      @font-face {
        font-family: "Virgil";
        src: url("https://excalidraw.com/Virgil.woff2");
      }
      @font-face {
        font-family: "Cascadia";
        src: url("https://excalidraw.com/Cascadia.woff2");
      }
    </style>
  </defs>
  <rect x="0" y="0" width="10020" height="631.390625" fill="#fff0"></rect><g stroke-linecap="round" transform="translate(10 10) rotate(0 5000 0.5)"><path d="M-0.52 -0.26 C3022.65 -30.2, 6044.59 -29.2, 9999.32 0.22 M0.38 -0.31 C3948.03 -0.44, 7895.41 0.2, 9999.95 0.08 M10000.08 -0.06 C10000.09 0.27, 10000.05 0.48, 10000.09 0.92 M9999.97 0.01 C9999.95 0.33, 9999.98 0.72, 10000 0.99 M10000.22 1.51 C7095.77 35.76, 4193.15 34.95, -0.25 0.75 M10000.01 1.13 C7827.97 2.74, 5656.23 3.35, -0.33 0.84 M-0.04 1.01 C0 0.63, -0.06 0.15, 0.05 -0.03 M-0.04 0.95 C-0.04 0.73, -0.03 0.59, -0.05 -0.02" stroke="transparent" stroke-width="1" fill="none"></path></g><g stroke-linecap="round"><g transform="translate(565 566.390625) rotate(0 67.5 1)"><path d="M-0.96 0.85 C21.47 1.19, 112.12 3.18, 134.86 3.18 M0.74 0.25 C22.97 0.81, 111.47 1.45, 133.84 1.68" stroke="#d9480f" stroke-width="1" fill="none"></path></g></g><g stroke-linecap="round"><g transform="translate(731 567.390625) rotate(0 28.5 -0.5)"><path d="M-0.44 0.47 C9.24 0.54, 48.28 0.21, 57.73 0.11 M1.53 -0.32 C11.15 -0.53, 47.63 -1.14, 57.17 -1.43" stroke="#d9480f" stroke-width="1" fill="none"></path></g></g><g transform="translate(632 579.390625) rotate(0 5.5 12.5)"><text x="0" y="18" font-family="Virgil, Segoe UI Emoji" font-size="20px" fill="#d9480f" text-anchor="start" style="white-space: pre;" direction="ltr">V</text></g><g transform="translate(759 573.390625) rotate(0 5.5 12.5)"><text x="0" y="18" font-family="Virgil, Segoe UI Emoji" font-size="20px" fill="#d9480f" text-anchor="start" style="white-space: pre;" direction="ltr">V</text></g><g transform="translate(646 596.390625) rotate(0 15.5 12.5)"><text x="0" y="18" font-family="Virgil, Segoe UI Emoji" font-size="20px" fill="#d9480f" text-anchor="start" style="white-space: pre;" direction="ltr">TR</text></g><g transform="translate(777 591.390625) rotate(0 20 12.5)"><text x="0" y="18" font-family="Virgil, Segoe UI Emoji" font-size="20px" fill="#d9480f" text-anchor="start" style="white-space: pre;" direction="ltr">REL</text></g><g stroke-linecap="round"><g transform="translate(625 577.390625) rotate(0 11 -0.5)"><path d="M-0.1 0.32 C3.75 0.19, 19.14 -1.09, 22.64 -1.29 M-1.61 -0.56 C2.17 -0.47, 17.89 -0.08, 22.02 0.1" stroke="#d9480f" stroke-width="1" fill="none"></path></g><g transform="translate(625 577.390625) rotate(0 11 -0.5)"><path d="M11.85 4.11 C14.05 1.6, 17.15 1.24, 22.98 -0.54 M12.06 3.36 C15.13 2.31, 19.31 1.04, 21.6 0.13" stroke="#d9480f" stroke-width="1" fill="none"></path></g><g transform="translate(625 577.390625) rotate(0 11 -0.5)"><path d="M12.09 -3.42 C14.2 -3.96, 17.24 -2.34, 22.98 -0.54 M12.3 -4.17 C15.31 -2.62, 19.41 -1.29, 21.6 0.13" stroke="#d9480f" stroke-width="1" fill="none"></path></g></g><g stroke-linecap="round"><g transform="translate(753 576.390625) rotate(0 12 -1)"><path d="M1.16 -0.47 C5.02 -0.74, 19.15 -1.55, 23.08 -1.92 M0.31 -1.77 C4.54 -1.8, 21.3 -0.34, 25.31 -0.35" stroke="#d9480f" stroke-width="1" fill="none"></path></g><g transform="translate(753 576.390625) rotate(0 12 -1)"><path d="M13.34 2.3 C17.28 2.81, 19.84 1.58, 25.79 0.23 M14.21 3.55 C16.8 2.2, 20.5 0.99, 25.54 -0.76" stroke="#d9480f" stroke-width="1" fill="none"></path></g><g transform="translate(753 576.390625) rotate(0 12 -1)"><path d="M13.74 -5.93 C17.54 -2.99, 19.99 -1.8, 25.79 0.23 M14.61 -4.67 C17.05 -3.84, 20.64 -2.84, 25.54 -0.76" stroke="#d9480f" stroke-width="1" fill="none"></path></g></g></svg>