<svg version="1.1" xmlns="http://www.w3.org/2000/svg" viewBox="0 0 10020 720.546875" width="10020" height="720.546875">
  <!-- svg-source:excalidraw -->
  
  <defs>
    <style>
      @font-face {
        font-family: "Virgil";
        src: url("https://excalidraw.com/Virgil.woff2");
      }
      @font-face {
        font-family: "Cascadia";
        src: url("https://excalidraw.com/Cascadia.woff2");
      }
    </style>
  </defs>
  <rect x="0" y="0" width="10020" height="720.546875" fill="#fff0"></rect><g stroke-linecap="round" transform="translate(10 10) rotate(0 5000 0.5)"><path d="M-0.52 -0.26 C3022.65 -30.2, 6044.59 -29.2, 9999.32 0.22 M0.38 -0.31 C3948.03 -0.44, 7895.41 0.2, 9999.95 0.08 M10000.08 -0.06 C10000.09 0.27, 10000.05 0.48, 10000.09 0.92 M9999.97 0.01 C9999.95 0.33, 9999.98 0.72, 10000 0.99 M10000.22 1.51 C7095.77 35.76, 4193.15 34.95, -0.25 0.75 M10000.01 1.13 C7827.97 2.74, 5656.23 3.35, -0.33 0.84 M-0.04 1.01 C0 0.63, -0.06 0.15, 0.05 -0.03 M-0.04 0.95 C-0.04 0.73, -0.03 0.59, -0.05 -0.02" stroke="transparent" stroke-width="1" fill="none"></path></g><g stroke-linecap="round"><g transform="translate(647 604.546875) rotate(0 176.5 -0.5)"><path d="M-0.84 0.49 C58 0.1, 294.76 -0.91, 353.67 -1.18 M0.93 -0.3 C59.61 0.01, 294.62 0.2, 353.07 0.26" stroke="#000" stroke-width="1" fill="none"></path></g><g transform="translate(647 604.546875) rotate(0 176.5 -0.5)"><path d="M325.68 11.6 C334.44 6.37, 344.45 1.54, 352.53 -1.27 M324.59 11.18 C331.43 8.54, 338.07 4.53, 352.65 1.16" stroke="#000" stroke-width="1" fill="none"></path></g><g transform="translate(647 604.546875) rotate(0 176.5 -0.5)"><path d="M325.7 -8.92 C334.65 -6.89, 344.65 -4.46, 352.53 -1.27 M324.61 -9.34 C331.38 -6.94, 338.01 -5.91, 352.65 1.16" stroke="#000" stroke-width="1" fill="none"></path></g></g><g transform="translate(1013 547.546875) rotate(0 10 10)" stroke="none"><path fill="#000" d="M 2.40,0 Q 2.40,0 2.25,2.3 2.11,4.6 2.08,6.43 2.04,8.28 2.09,9.63 2.14,10.99 2.17,12.43 2.20,13.87 2.22,15.34 2.24,16.82 2.29,18.02 2.33,19.22 2.38,20.30 2.43,21.39 2.51,22.82 2.59,24.24 2.12,25.44 1.65,26.63 -0.50,27.15 -2.66,27.66 -3.70,25.64 -4.75,23.61 -4.73,21.98 -4.71,20.34 -4.62,18.52 -4.54,16.69 -4.44,14.76 -4.34,12.83 -4.01,10.96 -3.67,9.09 -3.26,6.89 -2.86,4.68 -2.80,3.25 -2.74,1.82 -1.60,-0.94 -0.46,-3.70 0.13,-4.72 0.73,-5.74 1.35,-6.63 1.97,-7.52 3.06,-8.83 4.15,-10.15 5.62,-11.27 7.09,-12.40 8.31,-12.62 9.52,-12.85 11.18,-12.56 12.84,-12.28 14.72,-11.41 16.60,-10.54 18.09,-9.51 19.59,-8.48 20.54,-7.76 21.50,-7.03 22.45,-5.52 23.41,-4.00 24.02,-1.83 24.63,0.33 24.33,2.24 24.04,4.15 23.58,5.78 23.12,7.41 22.99,9.09 22.85,10.78 22.48,12.09 22.12,13.41 21.55,14.46 20.98,15.51 20.08,16.28 19.17,17.04 17.90,17.39 16.62,17.73 14.51,17.85 12.41,17.96 10.37,17.23 8.34,16.50 7.08,16.28 5.82,16.05 4.39,15.61 2.96,15.17 2.15,14.74 1.34,14.32 1.04,14.18 0.73,14.04 0.47,13.83 0.21,13.62 0.00,13.36 -0.20,13.09 -0.33,12.78 -0.47,12.48 -0.53,12.15 -0.58,11.82 -0.56,11.48 -0.54,11.14 -0.44,10.82 -0.34,10.50 -0.16,10.22 0.01,9.93 0.24,9.70 0.48,9.46 0.77,9.29 1.06,9.12 1.38,9.02 1.70,8.92 2.04,8.90 2.37,8.88 2.70,8.95 3.03,9.01 4.14,9.48 5.25,9.96 7.02,11.37 8.79,12.78 9.68,14.34 10.57,15.89 11.26,16.78 11.95,17.67 13.82,19.20 15.69,20.73 17.29,21.62 18.90,22.51 19.74,23.38 20.58,24.25 21.77,25.91 22.97,27.57 23.19,28.01 23.40,28.44 23.46,28.93 23.52,29.41 23.42,29.89 23.32,30.37 23.08,30.79 22.83,31.21 22.47,31.53 22.10,31.86 21.65,32.04 21.20,32.23 20.71,32.26 20.23,32.30 19.75,32.18 19.28,32.05 18.87,31.78 18.47,31.52 18.16,31.13 17.86,30.75 17.70,30.29 17.54,29.83 17.53,29.34 17.52,28.86 17.67,28.39 17.82,27.93 18.11,27.53 18.40,27.14 18.80,26.86 19.20,26.58 19.67,26.44 20.13,26.30 20.62,26.32 21.11,26.34 21.56,26.52 22.02,26.69 22.40,27.00 22.77,27.31 23.03,27.72 23.29,28.14 23.40,28.61 23.51,29.09 23.47,29.57 23.42,30.06 23.22,30.50 23.03,30.95 22.70,31.31 22.37,31.67 21.94,31.90 21.51,32.14 21.03,32.22 20.55,32.31 20.07,32.24 19.59,32.17 19.15,31.95 18.72,31.72 18.38,31.38 18.04,31.03 18.04,31.03 18.04,31.03 16.89,29.21 15.75,27.40 14.76,26.81 13.78,26.23 12.25,25.14 10.73,24.05 9.83,23.42 8.93,22.79 8.23,21.96 7.54,21.13 6.54,19.87 5.54,18.60 4.48,17.15 3.41,15.69 2.38,15.01 1.34,14.32 1.04,14.18 0.73,14.04 0.47,13.83 0.21,13.62 0.00,13.36 -0.20,13.09 -0.33,12.78 -0.47,12.48 -0.53,12.15 -0.58,11.82 -0.56,11.48 -0.54,11.15 -0.44,10.83 -0.34,10.51 -0.16,10.22 0.01,9.93 0.24,9.70 0.48,9.46 0.77,9.29 1.06,9.12 1.38,9.02 1.70,8.92 2.04,8.90 2.37,8.88 2.70,8.95 3.03,9.01 3.84,9.49 4.64,9.98 5.66,10.31 6.68,10.65 8.47,10.91 10.26,11.16 12.20,11.54 14.15,11.93 15.21,12.16 16.26,12.39 16.81,11.36 17.35,10.34 17.68,8.22 18.02,6.10 18.34,4.70 18.66,3.31 18.84,2.15 19.02,0.99 18.85,-0.18 18.69,-1.36 17.65,-2.71 16.61,-4.07 15.55,-4.76 14.49,-5.46 13.05,-5.95 11.61,-6.45 10.44,-6.80 9.27,-7.15 8.30,-6.20 7.33,-5.26 6.32,-4.13 5.31,-3.00 3.96,-1.18 2.60,0.62 2.47,2.23 2.33,3.84 2.09,5.05 1.85,6.27 1.34,8.06 0.83,9.86 0.59,11.34 0.36,12.83 0.47,14.74 0.58,16.65 0.69,18.44 0.80,20.23 0.34,21.94 -0.12,23.64 -1.36,23.80 -2.59,23.96 -2.51,22.67 -2.43,21.39 -2.38,20.30 -2.33,19.22 -2.29,18.02 -2.24,16.82 -2.22,15.34 -2.20,13.87 -2.17,12.43 -2.14,10.99 -2.09,9.63 -2.04,8.28 -2.08,6.43 -2.11,4.6 -2.25,2.3 -2.40,0 -2.36,-0.28 -2.33,-0.57 -2.22,-0.84 -2.12,-1.11 -1.96,-1.35 -1.79,-1.59 -1.58,-1.78 -1.36,-1.97 -1.10,-2.11 -0.85,-2.24 -0.57,-2.31 -0.28,-2.38 0.00,-2.38 0.28,-2.38 0.57,-2.31 0.85,-2.24 1.10,-2.11 1.36,-1.97 1.58,-1.78 1.79,-1.59 1.96,-1.35 2.12,-1.11 2.22,-0.84 2.33,-0.57 2.36,-0.28 2.40,0.00 2.40,0.00 L 2.40,0 Z"></path></g><g transform="translate(633 625.546875) rotate(0 -1 13.5)" stroke="none"><path fill="#1864ab" d="M 2.23,0.49 Q 2.23,0.49 1.52,3.07 0.82,5.64 -1.05,8.70 -2.93,11.76 -3.95,13.30 -4.98,14.83 -6.00,16.14 -7.02,17.45 -7.97,18.77 -8.92,20.10 -9.24,21.63 -9.55,23.16 -8.00,23.10 -6.45,23.03 -5.15,23.51 -3.86,23.98 -2.76,24.10 -1.66,24.22 -0.59,24.26 0.47,24.31 1.67,24.05 2.87,23.79 4.37,23.50 5.87,23.22 6.96,22.88 8.05,22.54 7.26,23.09 6.47,23.65 6.32,23.18 6.18,22.72 6.19,22.24 6.20,21.75 6.36,21.29 6.52,20.84 6.82,20.46 7.12,20.08 7.53,19.81 7.94,19.55 8.41,19.43 8.88,19.30 9.36,19.34 9.85,19.38 10.29,19.56 10.74,19.75 11.10,20.07 11.47,20.39 11.71,20.81 11.95,21.23 12.05,21.71 12.14,22.19 12.08,22.67 12.02,23.15 11.81,23.59 11.59,24.02 11.25,24.37 10.91,24.71 10.48,24.93 10.05,25.15 9.57,25.22 9.09,25.29 8.61,25.20 8.13,25.11 7.71,24.88 7.28,24.64 6.96,24.29 6.63,23.93 6.44,23.48 6.24,23.04 6.20,22.55 6.15,22.07 6.27,21.60 6.38,21.13 6.64,20.72 6.90,20.31 7.27,20.00 7.65,19.69 8.10,19.52 8.56,19.35 9.04,19.33 9.53,19.32 9.99,19.46 10.46,19.59 10.85,19.87 11.25,20.15 11.54,20.55 11.82,20.94 11.82,20.94 11.82,20.94 10.31,24.56 8.81,28.18 6.62,28.59 4.44,29.01 2.27,29.22 0.10,29.44 -1.13,29.32 -2.37,29.20 -4.00,28.93 -5.63,28.66 -6.70,28.22 -7.77,27.78 -9.33,27.34 -10.89,26.91 -11.98,26.13 -13.07,25.35 -13.20,22.95 -13.34,20.56 -12.72,19.19 -12.11,17.83 -11.06,16.40 -10.01,14.97 -9.03,13.87 -8.05,12.76 -7.07,11.32 -6.09,9.88 -4.60,7.29 -3.12,4.70 -2.67,2.10 -2.23,-0.49 -2.14,-0.75 -2.04,-1.01 -1.89,-1.24 -1.74,-1.47 -1.54,-1.66 -1.34,-1.85 -1.10,-1.98 -0.86,-2.11 -0.59,-2.19 -0.32,-2.26 -0.05,-2.27 0.22,-2.27 0.49,-2.21 0.76,-2.15 1.00,-2.03 1.25,-1.91 1.46,-1.73 1.67,-1.55 1.83,-1.33 2.00,-1.10 2.10,-0.85 2.20,-0.59 2.24,-0.32 2.28,-0.05 2.26,0.22 2.23,0.49 2.23,0.49 L 2.23,0.49 Z"></path></g><g transform="translate(633 636.546875) rotate(0 4 0)" stroke="none"><path fill="#1864ab" d="M 0,-2.29 Q 0,-2.29 1.43,-2.31 2.87,-2.32 4.44,-2.43 6.01,-2.54 6.58,-2.59 7.15,-2.63 7.46,-2.59 7.78,-2.55 8.08,-2.44 8.37,-2.33 8.64,-2.15 8.90,-1.97 9.11,-1.73 9.32,-1.49 9.47,-1.21 9.61,-0.93 9.69,-0.62 9.77,-0.31 9.77,0.00 9.77,0.31 9.69,0.62 9.61,0.93 9.47,1.21 9.32,1.49 9.11,1.73 8.90,1.97 8.64,2.15 8.37,2.33 8.08,2.44 7.78,2.55 7.46,2.59 7.15,2.63 5.09,2.45 3.04,2.26 2.67,2.20 2.31,2.14 1.99,1.97 1.66,1.80 1.41,1.53 1.16,1.27 1.00,0.93 0.85,0.60 0.81,0.24 0.77,-0.12 0.85,-0.48 0.93,-0.83 1.12,-1.15 1.31,-1.46 1.59,-1.70 1.87,-1.94 2.21,-2.07 2.55,-2.21 2.91,-2.23 3.28,-2.25 3.63,-2.15 3.99,-2.05 4.29,-1.85 4.60,-1.64 4.82,-1.35 5.04,-1.06 5.16,-0.71 5.27,-0.36 5.27,0.00 5.27,0.36 5.16,0.71 5.04,1.06 4.82,1.35 4.60,1.64 4.29,1.85 3.99,2.05 3.63,2.15 3.28,2.25 2.91,2.23 2.55,2.21 2.21,2.07 1.87,1.94 1.59,1.70 1.31,1.46 1.12,1.15 0.93,0.83 0.85,0.48 0.77,0.12 0.81,-0.24 0.85,-0.60 1.00,-0.94 1.16,-1.27 1.41,-1.53 1.66,-1.80 1.99,-1.97 2.31,-2.14 2.67,-2.20 3.04,-2.26 3.04,-2.26 3.04,-2.26 5.09,-2.45 7.15,-2.63 7.46,-2.59 7.78,-2.55 8.08,-2.44 8.37,-2.33 8.64,-2.15 8.90,-1.97 9.11,-1.73 9.32,-1.49 9.47,-1.21 9.61,-0.93 9.69,-0.62 9.77,-0.31 9.77,-0.00 9.77,0.31 9.69,0.62 9.61,0.93 9.47,1.21 9.32,1.49 9.11,1.73 8.90,1.97 8.64,2.15 8.37,2.33 8.08,2.44 7.78,2.55 7.46,2.59 7.15,2.63 6.58,2.59 6.01,2.54 4.44,2.43 2.87,2.32 1.43,2.31 0,2.29 -0.27,2.26 -0.54,2.23 -0.80,2.13 -1.06,2.03 -1.29,1.87 -1.52,1.71 -1.70,1.51 -1.89,1.30 -2.01,1.05 -2.14,0.81 -2.21,0.54 -2.28,0.27 -2.28,-0.00 -2.28,-0.27 -2.21,-0.54 -2.14,-0.81 -2.01,-1.05 -1.89,-1.30 -1.70,-1.51 -1.52,-1.71 -1.29,-1.87 -1.06,-2.03 -0.80,-2.13 -0.54,-2.23 -0.27,-2.26 0.00,-2.29 0.00,-2.29 L 0,-2.29 Z"></path></g><g transform="translate(632 626.546875) rotate(0 5.5 0)" stroke="none"><path fill="#1864ab" d="M 0,-2.30 Q 0,-2.30 1.72,-2.27 3.44,-2.23 5.04,-2.23 6.64,-2.23 8.42,-2.29 10.21,-2.34 10.58,-2.28 10.96,-2.22 11.29,-2.04 11.63,-1.86 11.89,-1.59 12.15,-1.31 12.31,-0.97 12.47,-0.62 12.51,-0.25 12.55,0.12 12.47,0.49 12.39,0.86 12.19,1.19 12.00,1.52 11.71,1.76 11.42,2.01 11.07,2.15 10.71,2.29 10.33,2.31 9.95,2.33 9.59,2.23 9.22,2.13 8.91,1.91 8.59,1.70 8.36,1.40 8.13,1.09 8.01,0.73 7.89,0.37 7.89,-0.00 7.89,-0.38 8.01,-0.74 8.13,-1.10 8.36,-1.40 8.59,-1.70 8.91,-1.91 9.22,-2.13 9.59,-2.23 9.95,-2.33 10.33,-2.31 10.71,-2.29 11.07,-2.15 11.42,-2.01 11.71,-1.76 12.00,-1.52 12.19,-1.19 12.39,-0.86 12.47,-0.49 12.55,-0.12 12.51,0.25 12.47,0.62 12.31,0.97 12.15,1.31 11.89,1.59 11.63,1.87 11.29,2.04 10.96,2.22 10.58,2.28 10.21,2.34 10.21,2.34 10.21,2.34 8.42,2.29 6.64,2.23 5.04,2.23 3.44,2.23 1.72,2.27 0,2.30 -0.27,2.26 -0.55,2.23 -0.81,2.13 -1.07,2.03 -1.29,1.88 -1.52,1.72 -1.71,1.51 -1.89,1.30 -2.02,1.06 -2.15,0.81 -2.21,0.54 -2.28,0.27 -2.28,-0.00 -2.28,-0.27 -2.21,-0.54 -2.15,-0.81 -2.02,-1.06 -1.89,-1.30 -1.71,-1.51 -1.52,-1.72 -1.29,-1.88 -1.06,-2.03 -0.81,-2.13 -0.55,-2.23 -0.27,-2.26 0.00,-2.30 0.00,-2.30 L 0,-2.30 Z"></path></g><g transform="translate(646 607.546875) rotate(0 121 -8)" stroke="none"><path fill="#1864ab" d="M -0.51,-2.21 Q -0.51,-2.21 3.25,-2.95 7.02,-3.69 9.14,-4.23 11.26,-4.78 13.19,-5.78 15.12,-6.79 16.18,-7.59 17.23,-8.38 18.60,-9.83 19.96,-11.28 22.09,-11.78 24.22,-12.28 25.60,-12.33 26.97,-12.38 28.18,-12.66 29.38,-12.93 31.74,-12.80 34.09,-12.66 34.95,-11.85 35.81,-11.04 36.18,-9.79 36.56,-8.53 38.47,-8.72 40.38,-8.90 42.58,-8.12 44.79,-7.33 46.73,-7.12 48.67,-6.90 50.87,-7.26 53.07,-7.62 55.15,-7.35 57.24,-7.08 58.75,-7.26 60.27,-7.44 62.06,-8.35 63.85,-9.26 66.44,-8.76 69.03,-8.26 69.79,-6.69 70.55,-5.12 70.69,-3.94 70.83,-2.75 73.12,-3.65 75.41,-4.54 76.76,-5.08 78.10,-5.62 79.43,-5.70 80.76,-5.78 81.64,-6.38 82.52,-6.99 84.43,-7.63 86.35,-8.27 87.66,-8.85 88.97,-9.42 90.70,-10.15 92.44,-10.88 93.94,-11.33 95.44,-11.78 97.68,-11.77 99.91,-11.77 100.84,-11.22 101.77,-10.67 102.43,-9.80 103.09,-8.92 103.10,-6.61 103.11,-4.29 102.58,-2.79 102.06,-1.29 101.93,-0.74 101.81,-0.20 101.58,0.08 101.36,0.37 101.07,0.60 100.78,0.83 100.45,0.98 100.11,1.13 99.75,1.19 99.39,1.26 99.03,1.24 98.66,1.22 98.31,1.11 97.96,1.00 97.64,0.81 97.33,0.62 97.07,0.36 96.81,0.10 96.62,-0.20 96.43,-0.51 96.32,-0.86 96.21,-1.21 96.19,-1.58 96.17,-1.95 96.23,-2.31 96.30,-2.67 96.45,-3.00 96.60,-3.34 98.21,-4.12 99.83,-4.91 101.21,-5.33 102.58,-5.75 104.98,-6.65 107.38,-7.56 110.27,-8.50 113.15,-9.45 115.48,-10.35 117.81,-11.25 119.41,-11.53 121.01,-11.81 122.12,-11.50 123.24,-11.18 124.25,-8.96 125.25,-6.74 125.34,-5.67 125.44,-4.59 125.47,-3.27 125.50,-1.94 125.84,-3.14 126.17,-4.35 127.81,-5.34 129.44,-6.33 131.27,-6.91 133.09,-7.49 134.47,-8.17 135.85,-8.85 137.33,-9.02 138.81,-9.19 139.92,-8.61 141.04,-8.04 141.63,-6.78 142.21,-5.52 142.04,-3.88 141.86,-2.23 145.33,-2.83 148.80,-3.44 151.24,-4.08 153.68,-4.72 155.53,-5.50 157.37,-6.28 158.64,-6.78 159.90,-7.29 161.05,-7.11 162.20,-6.93 163.14,-5.33 164.08,-3.73 164.35,-5.15 164.61,-6.56 166.53,-8.46 168.46,-10.36 170.60,-12.12 172.73,-13.88 174.57,-15.19 176.41,-16.50 178.22,-16.86 180.03,-17.22 181.02,-16.62 182.00,-16.01 182.48,-14.84 182.95,-13.66 183.19,-11.67 183.42,-9.67 182.75,-7.65 182.08,-5.62 180.72,-5.76 179.37,-5.89 180.05,-6.75 180.74,-7.61 182.27,-9.13 183.80,-10.66 186.10,-11.84 188.39,-13.02 189.52,-12.52 190.66,-12.03 191.20,-10.72 191.75,-9.41 191.86,-8.23 191.96,-7.05 193.54,-7.72 195.12,-8.39 196.79,-8.42 198.46,-8.46 201.09,-8.61 203.73,-8.76 205.49,-8.87 207.26,-8.98 209.47,-8.61 211.68,-8.24 211.63,-6.41 211.59,-4.59 210.43,-5.14 209.28,-5.70 209.89,-6.92 210.50,-8.14 211.29,-9.52 212.08,-10.91 214.08,-11.44 216.07,-11.98 217.12,-11.01 218.17,-10.03 218.21,-8.39 218.25,-6.75 219.66,-7.06 221.08,-7.36 223.39,-7.35 225.71,-7.33 227.72,-7.37 229.73,-7.41 230.74,-6.31 231.74,-5.21 231.75,-4.03 231.76,-2.85 231.46,-2.38 231.15,-1.90 231.02,-1.59 230.88,-1.29 230.68,-1.03 230.47,-0.76 230.21,-0.56 229.95,-0.35 229.64,-0.21 229.34,-0.07 229.01,-0.01 228.68,0.04 228.35,0.02 228.02,0.00 227.70,-0.09 227.38,-0.19 227.09,-0.36 226.81,-0.53 226.57,-0.77 226.34,-1.00 226.16,-1.29 225.99,-1.57 225.89,-1.89 225.79,-2.21 225.77,-2.54 225.75,-2.88 225.81,-3.20 225.87,-3.53 227.57,-4.12 229.27,-4.71 230.50,-5.92 231.72,-7.14 232.66,-7.79 233.60,-8.44 235.54,-7.91 237.49,-7.37 238.04,-6.28 238.59,-5.19 237.68,-5.82 236.77,-6.46 238.02,-8.47 239.28,-10.49 239.64,-10.83 240.01,-11.17 240.46,-11.37 240.91,-11.58 241.40,-11.63 241.89,-11.68 242.37,-11.58 242.86,-11.47 243.28,-11.21 243.70,-10.95 244.02,-10.57 244.34,-10.20 244.52,-9.74 244.71,-9.27 244.73,-8.78 244.76,-8.29 244.62,-7.81 244.49,-7.33 244.21,-6.92 243.93,-6.51 243.53,-6.22 243.14,-5.92 242.67,-5.76 242.20,-5.61 241.70,-5.61 241.21,-5.61 240.74,-5.77 240.27,-5.93 239.88,-6.23 239.48,-6.53 239.21,-6.94 238.93,-7.35 238.80,-7.83 238.67,-8.31 238.70,-8.80 238.73,-9.30 238.91,-9.76 239.10,-10.22 239.42,-10.59 239.74,-10.97 240.17,-11.22 240.59,-11.48 241.08,-11.58 241.56,-11.68 242.05,-11.63 242.54,-11.57 242.99,-11.36 243.44,-11.15 243.80,-10.81 244.16,-10.47 244.39,-10.03 244.62,-9.59 244.70,-9.11 244.77,-8.62 244.69,-8.13 244.61,-7.64 244.38,-7.20 244.14,-6.77 244.14,-6.77 244.14,-6.77 243.04,-5.15 241.93,-3.54 240.49,-2.17 239.06,-0.81 237.51,-0.50 235.96,-0.19 234.82,-0.70 233.69,-1.21 233.60,-2.95 233.51,-4.69 234.14,-3.61 234.77,-2.54 233.58,-1.72 232.40,-0.91 230.93,-0.40 229.45,0.10 230.30,-0.90 231.15,-1.90 231.02,-1.59 230.88,-1.29 230.68,-1.03 230.47,-0.76 230.21,-0.56 229.95,-0.35 229.64,-0.21 229.34,-0.07 229.01,-0.01 228.68,0.04 228.35,0.02 228.02,0.00 227.70,-0.09 227.38,-0.19 227.10,-0.36 226.81,-0.53 226.57,-0.77 226.34,-1.00 226.16,-1.29 225.99,-1.57 225.89,-1.89 225.79,-2.21 225.77,-2.54 225.75,-2.88 225.81,-3.20 225.87,-3.53 226.90,-3.54 227.92,-3.55 227.00,-2.89 226.08,-2.23 224.21,-1.92 222.34,-1.61 220.69,-1.17 219.04,-0.73 217.40,-0.69 215.75,-0.66 214.45,-1.59 213.15,-2.51 212.61,-4.45 212.08,-6.39 212.65,-7.43 213.22,-8.48 214.60,-7.54 215.98,-6.60 215.42,-5.61 214.86,-4.63 213.73,-3.27 212.61,-1.91 211.10,-1.23 209.59,-0.55 207.83,-1.77 206.07,-2.99 206.68,-4.86 207.30,-6.73 207.47,-5.67 207.64,-4.60 205.95,-4.44 204.27,-4.27 201.49,-3.78 198.72,-3.29 197.13,-3.15 195.55,-3.02 192.37,-2.76 189.19,-2.49 188.13,-3.26 187.07,-4.02 186.51,-6.26 185.94,-8.49 186.76,-7.64 187.58,-6.79 185.91,-5.24 184.24,-3.69 182.16,-2.51 180.07,-1.33 178.52,-3.01 176.97,-4.69 177.27,-5.94 177.57,-7.18 178.02,-8.41 178.47,-9.64 178.51,-11.60 178.55,-13.57 176.99,-12.22 175.42,-10.88 173.62,-9.10 171.81,-7.32 169.86,-4.94 167.91,-2.57 166.37,-1.36 164.83,-0.15 163.46,0.10 162.09,0.35 161.10,-0.07 160.11,-0.49 159.50,-1.76 158.89,-3.03 156.87,-2.00 154.85,-0.96 152.23,-0.04 149.62,0.87 147.15,1.50 144.67,2.12 142.02,2.66 139.37,3.20 138.34,2.40 137.30,1.59 136.89,0.06 136.48,-1.46 137.07,-3.17 137.67,-4.88 136.02,-4.03 134.36,-3.18 133.12,-2.87 131.88,-2.55 130.36,-1.44 128.85,-0.33 125.62,0.85 122.39,2.04 121.41,0.08 120.43,-1.87 120.43,-3.13 120.43,-4.39 119.87,-6.05 119.31,-7.72 117.00,-6.58 114.68,-5.44 112.05,-4.28 109.42,-3.13 106.97,-1.79 104.51,-0.46 103.16,-0.33 101.81,-0.20 101.58,0.08 101.36,0.37 101.07,0.60 100.78,0.83 100.45,0.98 100.11,1.13 99.75,1.19 99.39,1.26 99.03,1.24 98.66,1.22 98.31,1.11 97.96,1.00 97.64,0.81 97.33,0.62 97.07,0.36 96.81,0.10 96.62,-0.20 96.43,-0.51 96.32,-0.86 96.21,-1.21 96.19,-1.58 96.17,-1.95 96.23,-2.31 96.30,-2.67 96.45,-3.00 96.60,-3.34 96.94,-3.90 97.28,-4.47 96.98,-5.82 96.69,-7.17 95.58,-6.91 94.47,-6.65 92.76,-5.72 91.06,-4.78 89.69,-4.15 88.32,-3.51 85.72,-2.26 83.11,-1.00 81.54,-0.84 79.97,-0.67 78.66,-0.07 77.35,0.53 75.35,1.41 73.34,2.30 71.40,2.59 69.46,2.88 68.06,2.39 66.66,1.90 65.89,0.77 65.13,-0.34 64.84,-1.95 64.55,-3.55 62.91,-2.70 61.27,-1.85 59.34,-1.54 57.40,-1.22 56.15,-1.66 54.90,-2.09 53.28,-1.99 51.66,-1.89 50.06,-1.60 48.46,-1.30 46.65,-1.31 44.84,-1.32 43.39,-1.79 41.94,-2.25 41.32,-3.47 40.70,-4.69 41.53,-3.92 42.36,-3.16 41.25,-3.19 40.15,-3.22 38.93,-3.27 37.70,-3.32 35.86,-3.51 34.02,-3.69 33.00,-4.54 31.99,-5.38 31.19,-6.78 30.39,-8.17 28.74,-7.84 27.09,-7.52 25.81,-7.51 24.52,-7.51 22.93,-7.41 21.34,-7.32 20.32,-6.32 19.30,-5.32 18.03,-4.57 16.75,-3.83 14.54,-2.55 12.33,-1.28 10.13,-0.51 7.92,0.24 4.22,1.22 0.51,2.21 0.23,2.24 -0.03,2.27 -0.30,2.23 -0.57,2.19 -0.83,2.09 -1.08,1.99 -1.30,1.83 -1.53,1.67 -1.71,1.47 -1.88,1.26 -2.01,1.01 -2.13,0.77 -2.19,0.50 -2.26,0.24 -2.25,-0.03 -2.25,-0.30 -2.18,-0.57 -2.11,-0.83 -1.98,-1.07 -1.85,-1.31 -1.66,-1.52 -1.48,-1.72 -1.25,-1.87 -1.02,-2.02 -0.76,-2.12 -0.51,-2.21 -0.51,-2.21 L -0.51,-2.21 Z"></path></g><g transform="translate(889 592.546875) rotate(0 -1 13)" stroke="none"><path fill="#1864ab" d="M 2.30,0 Q 2.30,0 2.17,2.3 2.04,4.6 1.95,6.72 1.85,8.85 1.79,10.90 1.74,12.96 1.81,14.41 1.88,15.85 1.96,17.04 2.03,18.24 2.17,19.65 2.31,21.07 2.42,22.15 2.52,23.22 1.68,25.08 0.83,26.94 -1.18,26.60 -3.20,26.26 -3.84,24.98 -4.47,23.70 -4.59,22.29 -4.71,20.88 -4.76,19.77 -4.80,18.65 -4.88,17.28 -4.95,15.91 -5.00,14.55 -5.05,13.19 -5.09,12.00 -5.13,10.82 -5.18,9.28 -5.23,7.74 -5.25,6.45 -5.27,5.16 -5.30,3.99 -5.32,2.81 -3.67,0.00 -2.02,-2.80 -1.49,-2.91 -0.96,-3.01 -0.43,-2.95 0.10,-2.88 0.59,-2.64 1.07,-2.40 1.46,-2.02 1.84,-1.65 2.09,-1.16 2.33,-0.68 2.41,-0.15 2.49,0.38 2.39,0.91 2.29,1.44 2.03,1.91 1.77,2.39 1.37,2.75 0.97,3.12 0.47,3.33 -0.01,3.55 -0.55,3.60 -1.09,3.65 -1.62,3.52 -2.14,3.39 -2.60,3.11 -3.06,2.82 -3.40,2.40 -3.74,1.98 -3.93,1.48 -4.12,0.97 -4.14,0.43 -4.16,-0.10 -4.00,-0.62 -3.85,-1.14 -3.54,-1.58 -3.23,-2.02 -2.79,-2.34 -2.35,-2.66 -1.84,-2.82 -1.32,-2.98 -0.78,-2.97 -0.24,-2.96 0.26,-2.78 0.77,-2.60 1.19,-2.26 1.61,-1.93 1.91,-1.47 2.20,-1.02 2.34,-0.50 2.47,0.02 2.43,0.56 2.39,1.10 2.18,1.59 1.97,2.09 1.62,2.50 1.26,2.90 0.79,3.17 0.32,3.44 0.32,3.44 0.32,3.44 0.81,3.68 1.29,3.92 1.28,5.33 1.26,6.74 1.22,8.25 1.17,9.77 1.13,10.85 1.09,11.92 1.05,13.35 1.02,14.78 0.97,15.91 0.93,17.04 0.93,18.78 0.93,20.52 0.20,21.45 -0.52,22.39 -1.52,22.81 -2.52,23.22 -2.42,22.15 -2.31,21.07 -2.17,19.65 -2.03,18.24 -1.96,17.04 -1.88,15.85 -1.81,14.41 -1.74,12.96 -1.79,10.90 -1.85,8.85 -1.95,6.72 -2.04,4.6 -2.17,2.3 -2.30,0 -2.27,-0.27 -2.24,-0.55 -2.14,-0.81 -2.04,-1.07 -1.88,-1.30 -1.72,-1.53 -1.51,-1.71 -1.31,-1.90 -1.06,-2.02 -0.81,-2.15 -0.54,-2.22 -0.27,-2.29 0.00,-2.29 0.27,-2.29 0.54,-2.22 0.81,-2.15 1.06,-2.02 1.31,-1.90 1.52,-1.71 1.72,-1.53 1.88,-1.30 2.04,-1.07 2.14,-0.81 2.24,-0.55 2.27,-0.27 2.30,0.00 2.30,0.00 L 2.30,0 Z"></path></g><g transform="translate(887 629.546875) rotate(0 3 12.5)"><text x="0" y="18" font-family="Virgil, Segoe UI Emoji" font-size="20px" fill="#1864ab" text-anchor="start" style="white-space: pre;" direction="ltr">l</text></g><g transform="translate(818 626.546875) rotate(0 24 12.5)"><text x="0" y="18" font-family="Virgil, Segoe UI Emoji" font-size="20px" fill="#d9480f" text-anchor="start" style="white-space: pre;" direction="ltr">l - E</text></g><g transform="translate(826 594.546875) rotate(0 0.5 12.5)" stroke="none"><path fill="#d9480f" d="M 2.47,-0.30 Q 2.47,-0.30 2.61,2.00 2.74,4.32 2.88,5.93 3.02,7.53 3.08,9.10 3.15,10.67 3.30,12.60 3.44,14.53 3.54,16.24 3.64,17.94 3.71,19.48 3.79,21.02 3.81,22.80 3.83,24.59 3.76,25.04 3.69,25.49 3.47,25.90 3.26,26.30 2.92,26.62 2.59,26.94 2.17,27.13 1.75,27.32 1.30,27.37 0.84,27.42 0.39,27.32 -0.05,27.22 -0.44,26.99 -0.83,26.75 -1.13,26.40 -1.43,26.05 -1.60,25.62 -1.77,25.20 -1.79,24.74 -1.82,24.28 -1.69,23.84 -1.57,23.39 -1.31,23.01 -1.06,22.63 -0.69,22.36 -0.32,22.08 0.10,21.93 0.54,21.78 1.00,21.78 1.45,21.78 1.89,21.93 2.32,22.08 2.69,22.36 3.06,22.63 3.31,23.01 3.57,23.39 3.69,23.84 3.82,24.28 3.79,24.74 3.77,25.20 3.60,25.62 3.43,26.05 3.13,26.40 2.83,26.75 2.44,26.99 2.05,27.22 1.60,27.32 1.15,27.42 0.69,27.37 0.24,27.32 -0.17,27.13 -0.59,26.94 -0.92,26.62 -1.26,26.30 -1.47,25.90 -1.69,25.49 -1.76,25.04 -1.83,24.59 -1.83,24.59 -1.83,24.59 -1.81,22.80 -1.79,21.02 -1.71,19.49 -1.64,17.96 -1.56,16.27 -1.47,14.58 -1.39,12.70 -1.30,10.82 -1.34,9.35 -1.38,7.87 -1.49,6.37 -1.59,4.87 -2.03,2.59 -2.47,0.30 -2.47,0.00 -2.47,-0.29 -2.40,-0.58 -2.33,-0.87 -2.19,-1.14 -2.05,-1.41 -1.86,-1.63 -1.66,-1.86 -1.41,-2.03 -1.16,-2.20 -0.88,-2.31 -0.60,-2.42 -0.30,-2.45 -0.00,-2.49 0.29,-2.46 0.58,-2.42 0.87,-2.31 1.15,-2.21 1.40,-2.04 1.64,-1.87 1.84,-1.64 2.04,-1.42 2.19,-1.15 2.33,-0.89 2.40,-0.60 2.47,-0.30 2.47,-0.30 L 2.47,-0.30 Z"></path></g><g stroke-linecap="round"><g transform="translate(900 539.546875) rotate(0 -21.5 22.5)"><path d="M-0.81 -0.94 C-8.02 6.32, -35.23 36.7, -42.35 44.46 M0.96 1.18 C-6.42 8.52, -35.37 38.64, -42.95 45.71" stroke="#d9480f" stroke-width="1" fill="none"></path></g><g transform="translate(900 539.546875) rotate(0 -21.5 22.5)"><path d="M-31.73 19.65 C-35.65 27.79, -38.53 36.78, -44.61 47.32 M-31.09 18.04 C-34.54 26.35, -38.16 33.98, -43.25 44.83" stroke="#d9480f" stroke-width="1" fill="none"></path></g><g transform="translate(900 539.546875) rotate(0 -21.5 22.5)"><path d="M-17.28 34.22 C-26.71 36.82, -34.99 40.36, -44.61 47.32 M-16.64 32.6 C-24.44 36.53, -32.33 39.85, -43.25 44.83" stroke="#d9480f" stroke-width="1" fill="none"></path></g></g><g transform="translate(917 523.546875) rotate(0 33.5 12.5)"><text x="0" y="18" font-family="Virgil, Segoe UI Emoji" font-size="20px" fill="#d9480f" text-anchor="start" style="white-space: pre;" direction="ltr">x e E </text></g><g stroke-linecap="round"><g transform="translate(961 702.546875) rotate(0 -25 -23.5)"><path d="M-1.05 -0.34 C-9.35 -8.04, -41.23 -39.18, -49.39 -46.78 M0.6 -1.57 C-7.84 -9.6, -41.46 -41.1, -50.01 -48.79" stroke="#1864ab" stroke-width="1" fill="none"></path></g><g transform="translate(961 702.546875) rotate(0 -25 -23.5)"><path d="M-22.89 -36.21 C-31.18 -41.29, -39.05 -45.22, -50.63 -49.53 M-22.91 -37.53 C-27.71 -39.26, -34.17 -42.18, -50.32 -48.84" stroke="#1864ab" stroke-width="1" fill="none"></path></g><g transform="translate(961 702.546875) rotate(0 -25 -23.5)"><path d="M-36.8 -21.12 C-40.35 -31.14, -43.57 -40.12, -50.63 -49.53 M-36.81 -22.44 C-38.26 -27.69, -41.52 -34.09, -50.32 -48.84" stroke="#1864ab" stroke-width="1" fill="none"></path></g></g><g transform="translate(987 685.546875) rotate(0 31 12.5)"><text x="0" y="18" font-family="Virgil, Segoe UI Emoji" font-size="20px" fill="#1864ab" text-anchor="start" style="white-space: pre;" direction="ltr">sup(E)</text></g></svg>