<svg version="1.1" xmlns="http://www.w3.org/2000/svg" viewBox="0 0 10020 822.2187499999998" width="10020" height="822.2187499999998">
  <!-- svg-source:excalidraw -->
  
  <defs>
    <style>
      @font-face {
        font-family: "Virgil";
        src: url("https://excalidraw.com/Virgil.woff2");
      }
      @font-face {
        font-family: "Cascadia";
        src: url("https://excalidraw.com/Cascadia.woff2");
      }
    </style>
  </defs>
  <rect x="0" y="0" width="10020" height="822.2187499999998" fill="#fff0"></rect><g stroke-linecap="round" transform="translate(10 10) rotate(0 5000 0.5)"><path d="M-0.52 -0.26 C3022.65 -30.2, 6044.59 -29.2, 9999.32 0.22 M0.38 -0.31 C3948.03 -0.44, 7895.41 0.2, 9999.95 0.08 M10000.08 -0.06 C10000.09 0.27, 10000.05 0.48, 10000.09 0.92 M9999.97 0.01 C9999.95 0.33, 9999.98 0.72, 10000 0.99 M10000.22 1.51 C7095.77 35.76, 4193.15 34.95, -0.25 0.75 M10000.01 1.13 C7827.97 2.74, 5656.23 3.35, -0.33 0.84 M-0.04 1.01 C0 0.63, -0.06 0.15, 0.05 -0.03 M-0.04 0.95 C-0.04 0.73, -0.03 0.59, -0.05 -0.02" stroke="transparent" stroke-width="1" fill="none"></path></g><g stroke-linecap="round" transform="translate(560.8582375478928 589.2244971264365) rotate(0 105.26436781609195 102.49425287356323)"><path d="M154.18 11.33 C165.47 15.55, 176.66 26.6, 185.08 35.93 C193.5 45.26, 200.35 55.63, 204.7 67.31 C209.05 78.99, 211.51 93.59, 211.18 106.01 C210.85 118.44, 207.83 130.58, 202.72 141.84 C197.62 153.1, 189.4 164.74, 180.55 173.58 C171.69 182.41, 161.18 189.48, 149.6 194.85 C138.02 200.21, 123.9 204.83, 111.07 205.78 C98.25 206.72, 84.71 204.39, 72.67 200.53 C60.63 196.68, 48.46 190.39, 38.82 182.62 C29.18 174.85, 21.11 164.77, 14.85 153.9 C8.58 143.04, 3.37 129.74, 1.22 117.43 C-0.93 105.11, -0.72 91.79, 1.96 80.01 C4.65 68.23, 10.21 56.84, 17.31 46.73 C24.42 36.62, 34.25 26.66, 44.59 19.35 C54.94 12.03, 67 6.06, 79.37 2.82 C91.75 -0.42, 103.57 -3.3, 118.84 -0.09 C134.11 3.11, 160.25 15.92, 171 22.06 C181.75 28.2, 184.65 35.25, 183.34 36.74 M55.81 12.25 C65.86 5.69, 81.36 2.5, 94 0.93 C106.64 -0.64, 119.6 -0.4, 131.67 2.81 C143.73 6.03, 155.76 12.87, 166.39 20.21 C177.02 27.55, 188.32 36.63, 195.44 46.83 C202.56 57.04, 207.03 69.14, 209.1 81.41 C211.17 93.69, 210.15 108.33, 207.85 120.5 C205.55 132.67, 201.46 143.8, 195.31 154.43 C189.16 165.07, 181.08 176.72, 170.95 184.31 C160.81 191.91, 146.95 196.4, 134.49 199.99 C122.04 203.58, 108.64 206.61, 96.2 205.87 C83.76 205.13, 70.92 201.32, 59.86 195.54 C48.8 189.75, 38.31 180.15, 29.83 171.16 C21.36 162.17, 13.99 152.57, 9.01 141.6 C4.03 130.64, 0.43 117.92, -0.03 105.36 C-0.49 92.8, 1.59 78.13, 6.26 66.25 C10.92 54.37, 19.42 43.41, 27.96 34.08 C36.5 24.76, 52.56 13.77, 57.49 10.3 C62.42 6.84, 56.95 11.49, 57.55 13.31" stroke="#000" stroke-width="1" fill="none"></path></g><g stroke-linecap="round" transform="translate(523 671.4045737547893) rotate(0 33.241379310344826 16.15900383141762)"><path d="M-1.9 -0.88 C22.99 -2.18, 49.75 -0.68, 66.95 -1.35 M0.97 -0.34 C17.16 -0.73, 32.7 0.22, 66.35 -0.54 M65.56 -1.06 C68.27 12.35, 67.57 25.96, 64.59 34.14 M66.26 -0.36 C67.44 11.09, 66.76 22.01, 66.17 32.39 M67.08 31.68 C49.75 32.98, 34.5 33.58, -1.32 31.21 M66.01 33.09 C50.98 32.62, 33.85 33.74, 0.29 32.92 M-0.02 31.77 C-1.61 22.64, -0.27 10.5, 0.67 -1.07 M0.3 32.79 C-0.41 24.61, 0.85 14.41, -0.63 0.31" stroke="#000" stroke-width="1" fill="none"></path></g><g stroke-linecap="round" transform="translate(738.1455938697318 675.5597461685825) rotate(0 33.241379310344826 16.15900383141762)"><path d="M-1.09 1.46 C16.06 -1.2, 28.84 -0.97, 68.08 0.29 M0.91 0.52 C22.9 1.6, 45.63 0.27, 67.45 -0.27 M66.62 -1.11 C67.17 9.29, 66.84 20.62, 66.01 33.43 M65.93 -0.56 C67.04 11.48, 66.29 21.94, 67.18 32.02 M67.69 33.42 C47.57 33.85, 29.72 31.96, -1.7 34.11 M65.95 31.94 C47.51 32.62, 29.27 33.01, -0.48 33.08 M0.62 31.71 C-0.7 20.83, 0.72 6.52, -0.71 1.89 M-0.97 33.14 C0.97 24.13, 0.18 16.49, 0.24 -0.65" stroke="#000" stroke-width="1" fill="none"></path></g><g stroke-linecap="round" transform="translate(635.6513409961689 571.21875) rotate(0 33.241379310344826 16.15900383141762)"><path d="M1.21 1.1 C17.83 1.15, 36.72 -0.74, 64.78 1.79 M-0.54 -0.38 C18.53 -0.14, 37.81 0.25, 66 0.77 M67.1 -0.61 C65.16 12.92, 66.57 23.01, 65.77 34.2 M65.51 0.82 C66.99 7.98, 66.19 16.52, 66.73 31.67 M64.91 33.95 C44.46 33.75, 18.46 33.44, -1.32 32.57 M66.59 33.15 C46.84 33.38, 26.74 32.55, 0.96 32.89 M-0.49 33.3 C1.5 21.61, 1.43 12.1, -1.24 -0.21 M0.94 31.42 C-0.65 23.62, 0.1 12.44, -0.6 -0.18" stroke="#000" stroke-width="1" fill="none"></path></g><g stroke-linecap="round" transform="translate(630.1111111111111 779.9007423371646) rotate(0 33.241379310344826 16.159003831417607)"><path d="M1.57 -1.9 C15.96 -1.66, 29.65 -0.3, 64.49 1.41 M0.6 0.46 C20.39 0.65, 41.83 0.08, 67.12 -0.1 M66.72 1.63 C68.31 7.67, 66.43 17.82, 68.3 33.78 M67.48 0.39 C65.7 12.12, 66.02 26.29, 66.61 32.32 M67.83 31.44 C44.36 31.05, 21.22 31.11, -0.66 32.37 M66.54 31.48 C43.14 32.16, 21.4 32.15, -0.32 32.96 M-1.4 33.83 C-1.58 24.61, -0.98 17.32, -0.22 -0.5 M0.54 31.81 C-0.17 22.01, -0.95 10.65, -0.87 -0.97" stroke="#000" stroke-width="1" fill="none"></path></g><g transform="translate(665.505747126437 691.8720067049808) rotate(0 -1.2298850574712645 -0.6149425287356252)" stroke="none"><path fill="#000" d="M -2.16,-2.01 Q -2.16,-2.01 -1.92,-2.30 -1.68,-2.59 -1.42,-2.79 -1.17,-2.99 -0.87,-3.12 -0.57,-3.26 -0.25,-3.32 0.06,-3.38 0.38,-3.36 0.71,-3.34 1.02,-3.24 1.33,-3.14 1.61,-2.97 1.89,-2.81 2.12,-2.58 2.35,-2.35 2.51,-2.07 2.68,-1.79 2.78,-1.48 2.88,-1.17 2.90,-0.84 2.92,-0.52 2.86,-0.20 2.80,0.11 2.67,0.41 2.53,0.71 2.33,0.97 2.13,1.22 0.85,1.64 -0.43,2.07 -0.54,2.11 -0.65,2.15 -0.88,2.42 -1.10,2.69 -1.38,2.89 -1.66,3.10 -1.98,3.23 -2.31,3.37 -2.65,3.42 -3.00,3.48 -3.34,3.45 -3.69,3.42 -4.02,3.30 -4.35,3.19 -4.65,3.00 -4.94,2.81 -5.18,2.56 -5.42,2.30 -5.59,2.00 -5.77,1.70 -5.86,1.36 -5.95,1.02 -5.97,0.68 -5.98,0.33 -5.91,-0.01 -5.83,-0.35 -5.68,-0.66 -5.53,-0.98 -4.66,-1.84 -3.79,-2.70 -2.86,-3.33 -1.92,-3.95 -0.44,-4.17 1.04,-4.40 0.65,-4.34 0.26,-4.28 0.62,-4.35 0.98,-4.42 1.35,-4.40 1.72,-4.38 2.08,-4.27 2.43,-4.16 2.75,-3.97 3.07,-3.78 3.33,-3.52 3.60,-3.26 3.79,-2.94 3.98,-2.63 4.09,-2.27 4.20,-1.92 4.23,-1.55 4.25,-1.18 4.19,-0.82 4.12,-0.45 3.97,-0.11 3.82,0.22 3.59,0.51 3.37,0.80 3.08,1.03 2.78,1.26 2.45,1.41 2.11,1.57 0.80,1.80 -0.51,2.04 -0.21,-0.70 0.08,-3.45 0.51,-3.16 0.94,-2.88 1.25,-2.48 1.57,-2.08 1.74,-1.59 1.92,-1.11 1.93,-0.60 1.93,-0.08 1.78,0.39 1.62,0.88 1.32,1.30 1.02,1.71 0.60,2.01 0.18,2.30 -0.30,2.45 -0.80,2.60 -1.31,2.58 -1.82,2.56 -2.30,2.38 -2.78,2.19 -3.18,1.87 -3.58,1.54 -3.85,1.11 -4.12,0.67 -4.24,0.17 -4.36,-0.31 -4.31,-0.83 -4.27,-1.34 -4.06,-1.81 -3.85,-2.28 -3.51,-2.65 -3.16,-3.03 -2.71,-3.28 -2.26,-3.53 -1.76,-3.62 -1.25,-3.71 -0.74,-3.64 -0.24,-3.57 0.21,-3.33 0.67,-3.10 1.03,-2.74 1.39,-2.37 1.61,-1.91 1.84,-1.44 1.90,-0.94 1.97,-0.43 1.86,0.07 1.76,0.57 1.51,1.01 1.25,1.46 0.86,1.80 0.48,2.14 0.00,2.34 -0.46,2.53 -0.97,2.57 -1.48,2.61 -1.98,2.48 -2.48,2.35 -2.48,2.35 -2.48,2.35 -1.10,-0.96 0.26,-4.28 0.62,-4.35 0.98,-4.42 1.35,-4.40 1.72,-4.38 2.08,-4.27 2.43,-4.16 2.75,-3.97 3.07,-3.78 3.33,-3.52 3.59,-3.26 3.79,-2.94 3.98,-2.63 4.09,-2.27 4.20,-1.92 4.23,-1.55 4.25,-1.18 4.19,-0.82 4.12,-0.45 3.97,-0.11 3.82,0.22 3.59,0.51 3.37,0.80 3.08,1.03 2.78,1.26 2.45,1.41 2.11,1.57 0.72,1.86 -0.65,2.15 -0.88,2.42 -1.10,2.68 -1.38,2.89 -1.66,3.10 -1.98,3.23 -2.31,3.37 -2.65,3.42 -3.00,3.48 -3.34,3.45 -3.69,3.42 -4.02,3.30 -4.35,3.19 -4.65,3.00 -4.94,2.81 -5.18,2.56 -5.42,2.30 -5.59,2.00 -5.77,1.70 -5.86,1.36 -5.95,1.02 -5.97,0.68 -5.98,0.33 -5.91,-0.00 -5.83,-0.35 -5.68,-0.66 -5.53,-0.98 -4.62,-1.27 -3.70,-1.57 -2.69,-2.08 -1.68,-2.59 -1.42,-2.79 -1.17,-2.99 -0.87,-3.12 -0.57,-3.26 -0.25,-3.32 0.06,-3.38 0.38,-3.36 0.71,-3.34 1.02,-3.24 1.33,-3.14 1.61,-2.97 1.89,-2.81 2.12,-2.58 2.35,-2.35 2.51,-2.07 2.68,-1.79 2.78,-1.48 2.88,-1.17 2.90,-0.84 2.92,-0.52 2.86,-0.20 2.80,0.11 2.67,0.41 2.53,0.71 2.33,0.96 2.13,1.22 1.84,1.46 1.55,1.70 1.30,1.90 1.05,2.10 0.76,2.23 0.47,2.36 0.16,2.41 -0.14,2.47 -0.46,2.45 -0.78,2.43 -1.08,2.34 -1.38,2.24 -1.65,2.08 -1.93,1.92 -2.15,1.69 -2.38,1.47 -2.54,1.19 -2.70,0.92 -2.80,0.62 -2.89,0.32 -2.91,0.00 -2.93,-0.31 -2.87,-0.62 -2.82,-0.93 -2.69,-1.22 -2.56,-1.51 -2.36,-1.76 -2.16,-2.01 -2.16,-2.01 L -2.16,-2.01 Z"></path></g><g stroke-linecap="round"><g transform="translate(664.2355417028807 718.8876700020676) rotate(0 -0.9233716475095832 -47.553639846743295)"><path d="M0.33 0.53 C0.18 -15.52, -0.82 -79.97, -1.2 -95.72 M-0.96 -0.24 C-1.18 -16.18, -1.51 -78.58, -1.81 -94.5" stroke="#d9480f" stroke-width="1" fill="none"></path></g><g transform="translate(664.2355417028807 718.8876700020676) rotate(0 -0.9233716475095832 -47.553639846743295)"><path d="M9.65 -65.34 C4.71 -74.27, 4.72 -83.55, -0.13 -96.23 M8.35 -66.69 C7.55 -72.77, 5.01 -78.21, -2.24 -94.07" stroke="#d9480f" stroke-width="1" fill="none"></path></g><g transform="translate(664.2355417028807 718.8876700020676) rotate(0 -0.9233716475095832 -47.553639846743295)"><path d="M-10.87 -65.11 C-10.17 -74.16, -4.52 -83.5, -0.13 -96.23 M-12.17 -66.46 C-8.81 -72.66, -7.19 -78.15, -2.24 -94.07" stroke="#d9480f" stroke-width="1" fill="none"></path></g></g><g stroke-linecap="round"><g transform="translate(632.36594134609 687.9667118439229) rotate(0 40.628352490421435 -0.4616858237547916)"><path d="M0.69 0.98 C13.88 0.73, 66.54 -1.12, 80.14 -1.63 M-0.41 0.45 C13.05 0.35, 68.52 -0.17, 82.27 -0.46" stroke="#d9480f" stroke-width="1" fill="none"></path></g><g transform="translate(632.36594134609 687.9667118439229) rotate(0 40.628352490421435 -0.4616858237547916)"><path d="M55.86 8.34 C63.76 7.72, 73.74 0.73, 82.88 -0.79 M54.99 9.6 C62.97 7.23, 72.13 3.17, 81.33 0.18" stroke="#d9480f" stroke-width="1" fill="none"></path></g><g transform="translate(632.36594134609 687.9667118439229) rotate(0 40.628352490421435 -0.4616858237547916)"><path d="M55.56 -12.18 C63.56 -4.97, 73.65 -4.13, 82.88 -0.79 M54.69 -10.92 C62.74 -6.94, 72 -4.63, 81.33 0.18" stroke="#d9480f" stroke-width="1" fill="none"></path></g></g><g stroke-linecap="round"><g transform="translate(823 689.71875) rotate(0 33.5 -0.5)"><path d="M0.97 0.75 C12.33 0.58, 57.08 -0.78, 68.14 -1.03 M0.01 0.09 C11.33 0.13, 56.67 0.4, 67.78 0.5" stroke="#1864ab" stroke-width="1" fill="none"></path></g><g transform="translate(823 689.71875) rotate(0 33.5 -0.5)"><path d="M40.76 12.45 C47.78 7.88, 56.54 2.87, 69.65 0.15 M39.9 10.57 C48.54 6.73, 58.94 3.03, 67.16 -0.36" stroke="#1864ab" stroke-width="1" fill="none"></path></g><g transform="translate(823 689.71875) rotate(0 33.5 -0.5)"><path d="M40.91 -8.07 C47.88 -6.61, 56.59 -5.59, 69.65 0.15 M40.05 -9.95 C48.72 -6.85, 59.06 -3.62, 67.16 -0.36" stroke="#1864ab" stroke-width="1" fill="none"></path></g></g><g stroke-linecap="round" transform="translate(970 632.71875) rotate(0 73.5 30.5)"><path d="M-1.7 -0.52 C49.99 1.37, 100.23 1.08, 146.82 -0.21 M-0.21 -0.49 C42.7 -2.12, 86.93 -1.42, 146.83 0.19 M145.18 0.41 C148.45 15.98, 147.55 32.61, 148.83 61.34 M146.99 -0.61 C148.43 12.68, 146.96 25.91, 147.73 61.06 M146 59.6 C99.15 62.83, 53.4 60.54, -1.05 59.96 M147.91 60.87 C111.19 62.7, 73.43 62.81, 0.5 61.91 M0.02 62.57 C0.08 42.69, 0.45 23.93, -0.83 1.3 M-0.79 60.69 C-0.23 48.31, -1.27 36.38, 0.25 0.62" stroke="#000000" stroke-width="1" fill="none"></path></g><g stroke-linecap="round"><g transform="translate(992 575.71875) rotate(0 41 84)"><path d="M-1 1.02 C5.03 6.82, 25.88 18.14, 37.26 34.98 C48.64 51.83, 59.91 80.04, 67.26 102.1 C74.61 124.15, 79 156.2, 81.36 167.33 M0.67 0.51 C6.99 6.49, 28.07 19.87, 39.58 36.51 C51.1 53.15, 62.82 78.4, 69.77 100.33 C76.72 122.26, 79.02 156.52, 81.27 168.08" stroke="#000000" stroke-width="1" fill="none"></path></g></g><g stroke-linecap="round"><g transform="translate(1055 655.71875) rotate(0 -2 -40.5)"><path d="M-0.38 0.23 C-1.01 -13.05, -3.13 -66.97, -3.9 -80.64 M1.63 -0.7 C0.85 -14.27, -4.08 -69.21, -4.8 -82.57" stroke="#d9480f" stroke-width="1" fill="none"></path></g><g transform="translate(1055 655.71875) rotate(0 -2 -40.5)"><path d="M7.9 -55.05 C4.74 -64.98, -0.72 -69.34, -4.63 -80.79 M6.66 -55.39 C2.99 -66.23, -2.49 -76.8, -5.69 -82.97" stroke="#d9480f" stroke-width="1" fill="none"></path></g><g transform="translate(1055 655.71875) rotate(0 -2 -40.5)"><path d="M-12.57 -53.53 C-9.73 -63.85, -9.19 -68.65, -4.63 -80.79 M-13.8 -53.87 C-9.67 -65.41, -7.32 -76.56, -5.69 -82.97" stroke="#d9480f" stroke-width="1" fill="none"></path></g></g><g stroke-linecap="round"><g transform="translate(1052 649.71875) rotate(0 45.5 -0.5)"><path d="M0.78 0.78 C16.18 0.78, 76.48 0.22, 91.48 -0.04 M-0.27 0.15 C15.1 -0.18, 75.75 -1.74, 90.78 -1.66" stroke="#d9480f" stroke-width="1" fill="none"></path></g><g transform="translate(1052 649.71875) rotate(0 45.5 -0.5)"><path d="M64.02 9.74 C70.54 6.03, 75.51 3.71, 90.52 -1.47 M63.07 9.39 C68.24 6.39, 75.94 4.19, 91.76 -1.23" stroke="#d9480f" stroke-width="1" fill="none"></path></g><g transform="translate(1052 649.71875) rotate(0 45.5 -0.5)"><path d="M63.76 -10.78 C70.34 -9.94, 75.37 -7.71, 90.52 -1.47 M62.81 -11.13 C68.07 -9.6, 75.82 -7.27, 91.76 -1.23" stroke="#d9480f" stroke-width="1" fill="none"></path></g></g><g stroke-linecap="round" transform="translate(880 736.71875) rotate(0 0.5 0.5)"><path d="M0.43 -0.91 C0.56 -0.91, 0.71 0.62, 0.77 0.76 C0.83 0.9, 0.64 -0.21, 0.79 -0.07 C0.93 0.06, 1.65 1.45, 1.63 1.58 C1.6 1.71, 0.88 0.72, 0.64 0.7 C0.41 0.67, 0.23 1.51, 0.22 1.44 C0.21 1.38, 0.51 0.35, 0.57 0.3 C0.64 0.26, 0.58 1.15, 0.58 1.17 C0.59 1.2, 0.47 0.63, 0.61 0.44 C0.75 0.25, 1.4 0.07, 1.44 0.03 C1.47 -0.01, 0.82 0.33, 0.83 0.21 M0.33 -1.27 C0.1 -1.15, -0.26 1.07, -0.09 1.35 C0.08 1.63, 0.95 0.31, 1.33 0.42 C1.71 0.52, 2.23 1.95, 2.2 2.01 C2.16 2.06, 1.59 0.71, 1.12 0.72 C0.64 0.73, -0.37 2.22, -0.65 2.07 C-0.94 1.92, -0.81 -0.05, -0.58 -0.19 C-0.34 -0.33, 0.46 0.97, 0.78 1.26 C1.11 1.54, 1.61 1.78, 1.38 1.53 C1.15 1.29, -0.48 0, -0.6 -0.19 C-0.72 -0.38, 0.49 0.46, 0.68 0.38" stroke="#1864ab" stroke-width="1" fill="none"></path></g><g transform="translate(880 736.71875) rotate(0 3 -3.5)" stroke="none"><path fill="#1864ab" d="M -1.85,1.85 Q -1.85,1.85 -2.81,0.80 -3.77,-0.24 -4.15,-1.94 -4.53,-3.64 -3.86,-5.27 -3.19,-6.89 -2.25,-8.08 -1.30,-9.27 -0.16,-10.21 0.97,-11.14 1.92,-11.64 2.87,-12.14 4.32,-12.35 5.78,-12.55 6.94,-12.15 8.11,-11.74 8.97,-10.69 9.83,-9.63 10.69,-7.96 11.56,-6.30 11.38,-4.96 11.19,-3.63 10.22,-2.15 9.24,-0.66 8.29,0.26 7.34,1.19 6.44,2.03 5.53,2.88 4.42,4.08 3.31,5.29 1.51,5.33 -0.28,5.37 -1.26,4.83 -2.24,4.29 -2.20,2.17 -2.16,0.05 -1.79,-1.18 -1.43,-2.42 -0.32,-3.51 0.77,-4.60 1.00,-5.33 1.22,-6.06 1.37,-6.44 1.51,-6.82 1.74,-7.15 1.98,-7.49 2.28,-7.75 2.59,-8.02 2.95,-8.21 3.31,-8.40 3.70,-8.49 4.09,-8.59 4.50,-8.59 4.91,-8.59 5.30,-8.49 5.69,-8.39 6.05,-8.20 6.41,-8.01 6.71,-7.74 7.02,-7.47 7.25,-7.13 7.48,-6.80 7.62,-6.42 7.76,-6.04 7.81,-5.64 7.86,-5.23 7.81,-4.83 7.75,-4.43 5.96,-2.36 4.16,-0.30 3.79,0.00 3.42,0.31 2.98,0.48 2.53,0.66 2.05,0.68 1.57,0.71 1.11,0.58 0.65,0.45 0.25,0.18 -0.13,-0.08 -0.42,-0.47 -0.71,-0.85 -0.86,-1.30 -1.01,-1.76 -1.01,-2.24 -1.01,-2.72 -0.85,-3.17 -0.70,-3.62 -0.41,-4.00 -0.11,-4.38 0.27,-4.65 0.67,-4.92 1.13,-5.05 1.60,-5.17 2.07,-5.14 2.55,-5.12 3.00,-4.94 3.44,-4.76 3.81,-4.45 4.17,-4.14 4.42,-3.72 4.66,-3.31 4.76,-2.84 4.86,-2.37 4.81,-1.90 4.76,-1.42 4.55,-0.99 4.35,-0.55 4.02,-0.21 3.69,0.13 3.26,0.35 2.84,0.57 2.37,0.65 1.89,0.73 1.42,0.65 0.95,0.57 0.53,0.34 0.10,0.11 -0.22,-0.22 -0.54,-0.57 -0.74,-1.01 -0.94,-1.45 -0.99,-1.92 -1.04,-2.40 -0.94,-2.87 -0.83,-3.33 -0.58,-3.74 -0.34,-4.15 -0.34,-4.15 -0.34,-4.15 0.44,-5.11 1.22,-6.06 1.37,-6.44 1.51,-6.82 1.74,-7.15 1.98,-7.49 2.28,-7.75 2.59,-8.02 2.95,-8.21 3.31,-8.40 3.70,-8.49 4.09,-8.59 4.50,-8.59 4.91,-8.59 5.30,-8.49 5.69,-8.39 6.05,-8.20 6.41,-8.01 6.71,-7.74 7.02,-7.47 7.25,-7.13 7.48,-6.80 7.62,-6.42 7.76,-6.04 7.81,-5.64 7.86,-5.23 7.81,-4.83 7.75,-4.43 7.11,-3.01 6.46,-1.59 5.24,-0.05 4.02,1.48 3.22,2.28 2.42,3.08 2.63,1.74 2.84,0.39 1.40,0.36 -0.04,0.32 0.53,-0.59 1.10,-1.50 1.99,-2.44 2.89,-3.37 4.41,-4.16 5.94,-4.96 5.53,-5.96 5.12,-6.96 4.02,-6.37 2.92,-5.79 1.62,-4.50 0.32,-3.20 1.09,-2.53 1.85,-1.85 2.04,-1.60 2.24,-1.35 2.37,-1.06 2.50,-0.78 2.56,-0.46 2.61,-0.15 2.59,0.15 2.58,0.47 2.48,0.77 2.39,1.07 2.22,1.34 2.06,1.61 1.84,1.84 1.61,2.06 1.34,2.22 1.07,2.39 0.77,2.48 0.47,2.58 0.15,2.59 -0.15,2.61 -0.46,2.56 -0.78,2.50 -1.06,2.37 -1.35,2.24 -1.60,2.04 -1.85,1.85 -1.85,1.85 L -1.85,1.85 Z"></path></g><g stroke-linecap="round"><g transform="translate(883 733.71875) rotate(0 86 -41.5)"><path d="M0.9 0.58 C29.38 -12.89, 142.83 -68.04, 171.52 -81.88 M-0.08 -0.17 C28.14 -13.85, 141.5 -69.35, 170.31 -83.41" stroke="#1864ab" stroke-width="1" fill="none"></path></g><g transform="translate(883 733.71875) rotate(0 86 -41.5)"><path d="M150.45 -62.62 C158.95 -67.91, 165.38 -76.18, 171.98 -83.8 M149.51 -61.36 C158.16 -69.47, 165.15 -78.85, 170.97 -83.66" stroke="#1864ab" stroke-width="1" fill="none"></path></g><g transform="translate(883 733.71875) rotate(0 86 -41.5)"><path d="M141.44 -81.06 C152.98 -79.86, 162.61 -81.58, 171.98 -83.8 M140.5 -79.8 C152.55 -80.75, 163.01 -83.03, 170.97 -83.66" stroke="#1864ab" stroke-width="1" fill="none"></path></g></g><g transform="translate(885 758.71875) rotate(0 8 12.5)"><text x="0" y="18" font-family="Virgil, Segoe UI Emoji" font-size="20px" fill="#1864ab" text-anchor="start" style="white-space: pre;" direction="ltr">O</text></g><g transform="translate(1078 667.71875) rotate(0 10.5 12.5)"><text x="0" y="18" font-family="Virgil, Segoe UI Emoji" font-size="20px" fill="#1864ab" text-anchor="start" style="white-space: pre;" direction="ltr">O1</text></g><g transform="translate(637 696.71875) rotate(0 8 12.5)"><text x="0" y="18" font-family="Virgil, Segoe UI Emoji" font-size="20px" fill="#1864ab" text-anchor="start" style="white-space: pre;" direction="ltr">O</text></g><g stroke-linecap="round"><g transform="translate(880 733.71875) rotate(0 124 1.5)"><path d="M0.17 -0.59 C41.36 -0.03, 206.25 1.8, 247.42 2.36 M-1.2 1.72 C40.36 2.51, 208.02 3.18, 249.82 3.56" stroke="#1864ab" stroke-width="1" fill="none"></path></g></g><g stroke-linecap="round"><g transform="translate(960 731.71875) rotate(0 -5.5 -14.5)"><path d="M0.64 0.84 C0.57 -1.52, 2.1 -8.7, 0.32 -13.87 C-1.45 -19.04, -8.08 -27.75, -10.01 -30.19 M-0.49 0.24 C-0.74 -2.02, 1.17 -7.83, -0.45 -12.79 C-2.08 -17.75, -8.48 -27.11, -10.25 -29.5" stroke="#1864ab" stroke-width="1" fill="none"></path></g></g><g transform="translate(977 704.71875) rotate(0 6 12.5)"><text x="0" y="18" font-family="Virgil, Segoe UI Emoji" font-size="20px" fill="#1864ab" text-anchor="start" style="white-space: pre;" direction="ltr">θ</text></g><g transform="translate(917 667.71875) rotate(0 7.5 12.5)"><text x="0" y="18" font-family="Virgil, Segoe UI Emoji" font-size="20px" fill="#1864ab" text-anchor="start" style="white-space: pre;" direction="ltr">R</text></g></svg>