<svg version="1.1" xmlns="http://www.w3.org/2000/svg" viewBox="0 0 10020 627.5625" width="10020" height="627.5625">
  <!-- svg-source:excalidraw -->
  
  <defs>
    <style>
      @font-face {
        font-family: "Virgil";
        src: url("https://excalidraw.com/Virgil.woff2");
      }
      @font-face {
        font-family: "Cascadia";
        src: url("https://excalidraw.com/Cascadia.woff2");
      }
    </style>
  </defs>
  <rect x="0" y="0" width="10020" height="627.5625" fill="#fff0"></rect><g stroke-linecap="round" transform="translate(10 10) rotate(0 5000 0.5)"><path d="M-0.52 -0.26 C3022.65 -30.2, 6044.59 -29.2, 9999.32 0.22 M0.38 -0.31 C3948.03 -0.44, 7895.41 0.2, 9999.95 0.08 M10000.08 -0.06 C10000.09 0.27, 10000.05 0.48, 10000.09 0.92 M9999.97 0.01 C9999.95 0.33, 9999.98 0.72, 10000 0.99 M10000.22 1.51 C7095.77 35.76, 4193.15 34.95, -0.25 0.75 M10000.01 1.13 C7827.97 2.74, 5656.23 3.35, -0.33 0.84 M-0.04 1.01 C0 0.63, -0.06 0.15, 0.05 -0.03 M-0.04 0.95 C-0.04 0.73, -0.03 0.59, -0.05 -0.02" stroke="transparent" stroke-width="1" fill="none"></path></g><g stroke-linecap="round"><g transform="translate(800 571.5625) rotate(0 7.5 -28)"><path d="M0.52 -0.54 C3.14 -9.95, 12.38 -46.87, 14.61 -56.16 M-0.66 1.78 C1.86 -7.46, 10.65 -45.22, 13.46 -54.7" stroke="#d9480f" stroke-width="1" fill="none"></path></g><g transform="translate(800 571.5625) rotate(0 7.5 -28)"><path d="M15.27 -26.48 C15.29 -33.62, 14.54 -39.71, 14.43 -54.71 M15.97 -26.67 C15.73 -37.56, 13.04 -46.88, 14.32 -55.64" stroke="#d9480f" stroke-width="1" fill="none"></path></g><g transform="translate(800 571.5625) rotate(0 7.5 -28)"><path d="M-3.91 -31.49 C0.09 -37.67, 3.32 -42.72, 14.43 -54.71 M-3.22 -31.67 C3.88 -40.68, 8.5 -48.09, 14.32 -55.64" stroke="#d9480f" stroke-width="1" fill="none"></path></g></g><g transform="translate(672 592.5625) rotate(0 148 12.5)"><text x="0" y="18" font-family="Virgil, Segoe UI Emoji" font-size="20px" fill="#d9480f" text-anchor="start" style="white-space: pre;" direction="ltr">Somma geometrica a regione q</text></g></svg>