<svg version="1.1" xmlns="http://www.w3.org/2000/svg" viewBox="0 0 10020 724.4375" width="10020" height="724.4375">
  <!-- svg-source:excalidraw -->
  
  <defs>
    <style>
      @font-face {
        font-family: "Virgil";
        src: url("https://excalidraw.com/Virgil.woff2");
      }
      @font-face {
        font-family: "Cascadia";
        src: url("https://excalidraw.com/Cascadia.woff2");
      }
    </style>
  </defs>
  <rect x="0" y="0" width="10020" height="724.4375" fill="#fff0"></rect><g stroke-linecap="round" transform="translate(10 10) rotate(0 5000 0.5)"><path d="M-0.52 -0.26 C3022.65 -30.2, 6044.59 -29.2, 9999.32 0.22 M0.38 -0.31 C3948.03 -0.44, 7895.41 0.2, 9999.95 0.08 M10000.08 -0.06 C10000.09 0.27, 10000.05 0.48, 10000.09 0.92 M9999.97 0.01 C9999.95 0.33, 9999.98 0.72, 10000 0.99 M10000.22 1.51 C7095.77 35.76, 4193.15 34.95, -0.25 0.75 M10000.01 1.13 C7827.97 2.74, 5656.23 3.35, -0.33 0.84 M-0.04 1.01 C0 0.63, -0.06 0.15, 0.05 -0.03 M-0.04 0.95 C-0.04 0.73, -0.03 0.59, -0.05 -0.02" stroke="transparent" stroke-width="1" fill="none"></path></g><g stroke-linecap="round" transform="translate(845.34375 543.4375) rotate(0 94.5 29.5)"><path d="M1.21 0.45 C59.81 -0.05, 115.74 1.42, 189.11 1.46 M0.42 -0.39 C62.15 -1.88, 122.91 -1.43, 188.34 -0.64 M190.7 0.9 C189.91 14.06, 188.43 28.4, 190.33 60.61 M189.6 0.72 C188.24 17.66, 189.82 36.88, 189.37 58.15 M187.78 57.36 C123.78 57.02, 60.93 57.9, 1.55 57.31 M188.75 58.75 C133.68 61.7, 78.08 59.89, -0.06 59.79 M-0.53 59.35 C2.13 35.61, 1.76 12.04, -1.2 0.64 M-0.62 58.01 C0.48 45.4, 0.11 31.5, -0.34 -0.29" stroke="#000" stroke-width="1" fill="none"></path></g><g stroke-linecap="round" transform="translate(848.34375 643.4375) rotate(0 91.5 27)"><path d="M0.45 0.96 C72.32 -3.07, 145.96 -0.99, 184.46 0.52 M-0.39 0.55 C69.52 -1.06, 140.32 -1.43, 182.36 -0.62 M183.9 0.8 C182.92 16.56, 183.19 35.81, 184.61 54.18 M183.72 -0.68 C182.8 16.38, 183.79 31.32, 182.15 54.44 M181.36 53.77 C121.66 54.8, 61.47 54.44, -1.69 53.9 M182.75 54.45 C125.61 54.17, 65.59 53.49, 0.79 54.96 M0.35 55.94 C-0.39 41.11, -0.59 23.88, 0.64 -1.37 M-0.99 54.46 C-0.34 38.07, -0.57 21.6, -0.29 0.62" stroke="#000" stroke-width="1" fill="none"></path></g><g transform="translate(895.34375 558.4375) rotate(0 34 12.5)"><text x="0" y="18" font-family="Virgil, Segoe UI Emoji" font-size="20px" fill="#000" text-anchor="start" style="white-space: pre;" direction="ltr">System</text></g><g transform="translate(892.34375 659.4375) rotate(0 27.5 12.5)"><text x="0" y="18" font-family="Virgil, Segoe UI Emoji" font-size="20px" fill="#000" text-anchor="start" style="white-space: pre;" direction="ltr">Model</text></g><g stroke-linecap="round"><g transform="translate(705.34375 568.4375) rotate(0 66 -0.5)"><path d="M0.09 -1.18 C22.2 -1.43, 110.84 -1.01, 132.97 -0.93 M-1.33 0.82 C20.69 0.73, 110.21 0.64, 132.53 0.64" stroke="#1864ab" stroke-width="1" fill="none"></path></g><g transform="translate(705.34375 568.4375) rotate(0 66 -0.5)"><path d="M102.38 12.53 C113.5 9.04, 123 5.95, 133.66 1.48 M104.05 10.56 C110.99 7.83, 118.39 5.97, 132.4 1.49" stroke="#1864ab" stroke-width="1" fill="none"></path></g><g transform="translate(705.34375 568.4375) rotate(0 66 -0.5)"><path d="M102.37 -7.99 C113.59 -4.86, 123.09 -1.33, 133.66 1.48 M104.04 -9.96 C111.09 -7.33, 118.5 -3.83, 132.4 1.49" stroke="#1864ab" stroke-width="1" fill="none"></path></g></g><g stroke-linecap="round"><g transform="translate(756.34375 569.4375) rotate(0 0.5 51)"><path d="M-1.18 0.97 C-1.1 18.1, 0.65 85.87, 1.07 102.87 M0.4 0.43 C0.28 17.22, 0.1 84.42, 0.15 101.21" stroke="#1864ab" stroke-width="1" fill="none"></path></g></g><g stroke-linecap="round"><g transform="translate(758.34375 670.4375) rotate(0 46.5 -1.5)"><path d="M0.97 0.07 C16.6 -0.19, 78.37 -2.29, 93.87 -2.69 M0.02 -0.94 C15.56 -1.47, 77.76 -4.09, 93.39 -4.65" stroke="#1864ab" stroke-width="1" fill="none"></path></g><g transform="translate(758.34375 670.4375) rotate(0 46.5 -1.5)"><path d="M65.73 8.17 C74.78 4.68, 83.92 0.34, 92.61 -3.56 M64.96 6.08 C71.1 4.53, 77.64 2.7, 93.84 -4.25" stroke="#1864ab" stroke-width="1" fill="none"></path></g><g transform="translate(758.34375 670.4375) rotate(0 46.5 -1.5)"><path d="M64.92 -12.34 C74.02 -9.53, 83.41 -7.57, 92.61 -3.56 M64.15 -14.43 C70.41 -11.5, 77.12 -8.85, 93.84 -4.25" stroke="#1864ab" stroke-width="1" fill="none"></path></g></g><g transform="translate(664.34375 555.4375) rotate(0 10.5 12.5)"><text x="0" y="18" font-family="Virgil, Segoe UI Emoji" font-size="20px" fill="#000" text-anchor="start" style="white-space: pre;" direction="ltr">In</text></g><g transform="translate(1137.34375 529.4375) rotate(0 5.5 12.5)"><text x="0" y="18" font-family="Virgil, Segoe UI Emoji" font-size="20px" fill="#000" text-anchor="start" style="white-space: pre;" direction="ltr">Y</text></g><g transform="translate(1149.34375 689.4375) rotate(0 5.5 12.5)"><text x="0" y="18" font-family="Virgil, Segoe UI Emoji" font-size="20px" fill="#000" text-anchor="start" style="white-space: pre;" direction="ltr">Y</text></g><g transform="translate(1154.34375 685.4375) rotate(0 0.00004999999998744897 0.00005000000000165983)" stroke="none"><path fill="#000" d="M 1.57,-1.57 Q 1.57,-1.57 1.77,-1.27 1.98,-0.98 2.09,-0.64 2.20,-0.29 2.19,0.05 2.18,0.41 2.05,0.75 1.93,1.09 1.70,1.37 1.48,1.65 1.18,1.84 0.87,2.04 0.52,2.12 0.18,2.21 -0.17,2.18 -0.53,2.15 -0.86,2.01 -1.19,1.87 -1.46,1.63 -1.73,1.39 -1.90,1.07 -2.08,0.76 -2.15,0.41 -2.21,0.05 -2.17,-0.29 -2.12,-0.65 -1.96,-0.97 -1.80,-1.29 -1.54,-1.54 -1.29,-1.80 -0.97,-1.96 -0.65,-2.12 -0.29,-2.17 0.06,-2.21 0.41,-2.15 0.76,-2.08 1.07,-1.90 1.39,-1.73 1.63,-1.46 1.87,-1.19 2.01,-0.86 2.15,-0.53 2.18,-0.17 2.21,0.18 2.12,0.52 2.03,0.87 1.84,1.18 1.65,1.48 1.37,1.70 1.09,1.93 0.75,2.05 0.41,2.18 0.05,2.19 -0.30,2.20 -0.64,2.09 -0.98,1.98 -1.27,1.77 -1.57,1.56 -1.57,1.57 -1.57,1.57 -1.73,1.35 -1.90,1.14 -2.01,0.90 -2.12,0.66 -2.16,0.39 -2.21,0.13 -2.20,-0.13 -2.18,-0.40 -2.10,-0.65 -2.02,-0.91 -1.88,-1.14 -1.74,-1.36 -1.55,-1.55 -1.36,-1.74 -1.14,-1.88 -0.91,-2.02 -0.65,-2.10 -0.40,-2.18 -0.13,-2.20 0.13,-2.21 0.39,-2.16 0.66,-2.12 0.90,-2.01 1.14,-1.90 1.35,-1.73 1.57,-1.57 1.57,-1.57 L 1.57,-1.57 Z"></path></g><g stroke-linecap="round" transform="translate(1162.84375 612.4375) rotate(0 13.5 10.5)"><path d="M14.69 0.85 C17.59 0.75, 20.42 0.51, 22.47 1.71 C24.51 2.92, 26.66 5.85, 26.96 8.08 C27.26 10.3, 25.83 13.11, 24.25 15.07 C22.67 17.02, 20.2 18.9, 17.48 19.83 C14.76 20.76, 10.7 21.37, 7.92 20.66 C5.14 19.95, 1.99 17.71, 0.79 15.55 C-0.41 13.38, -0.08 9.94, 0.72 7.69 C1.53 5.44, 3.13 3.41, 5.63 2.04 C8.14 0.66, 13.73 -0.27, 15.74 -0.57 C17.76 -0.87, 17.63 0.03, 17.72 0.23 M18.82 -0.38 C21.35 0.44, 25.57 5.03, 26.68 7.31 C27.79 9.59, 26.21 11.4, 25.5 13.29 C24.79 15.18, 24.43 17.62, 22.42 18.67 C20.42 19.71, 16.75 19.92, 13.48 19.57 C10.21 19.23, 5.04 17.97, 2.78 16.6 C0.52 15.22, -0.03 13.28, -0.09 11.31 C-0.15 9.35, 0.85 6.46, 2.42 4.79 C4 3.13, 6.74 2.11, 9.35 1.32 C11.96 0.52, 16.51 0.2, 18.08 0.02 C19.65 -0.17, 18.81 -0.12, 18.78 0.21" stroke="#d9480f" stroke-width="1" fill="none"></path></g><g stroke-linecap="round"><g transform="translate(1197.84375 620.4375) rotate(0 38.5 2)"><path d="M-0.52 1.04 C12.34 1.81, 63.26 4.43, 76.32 5.06 M1.4 0.54 C14.73 0.97, 65.99 3.1, 78.68 3.5" stroke="#d9480f" stroke-width="1" fill="none"></path></g><g transform="translate(1197.84375 620.4375) rotate(0 38.5 2)"><path d="M51.86 11.58 C58.43 12.17, 64.59 7.98, 76.82 4.71 M50.97 12.39 C61.85 8.3, 71.1 4.87, 78.6 3.48" stroke="#d9480f" stroke-width="1" fill="none"></path></g><g transform="translate(1197.84375 620.4375) rotate(0 38.5 2)"><path d="M52.62 -8.93 C59.09 -3.63, 65.07 -3.11, 76.82 4.71 M51.73 -8.12 C62.18 -4.44, 71.15 -0.09, 78.6 3.48" stroke="#d9480f" stroke-width="1" fill="none"></path></g></g><g transform="translate(1297.84375 612.4375) rotate(0 31 12.5)"><text x="0" y="18" font-family="Virgil, Segoe UI Emoji" font-size="20px" fill="#000000" text-anchor="start" style="white-space: pre;" direction="ltr">Eps(t)</text></g><g transform="translate(1270.84375 643.4375) rotate(0 66.5 25)"><text x="0" y="18" font-family="Virgil, Segoe UI Emoji" font-size="20px" fill="#000" text-anchor="start" style="white-space: pre;" direction="ltr">Error of the </text><text x="0" y="43" font-family="Virgil, Segoe UI Emoji" font-size="20px" fill="#000" text-anchor="start" style="white-space: pre;" direction="ltr">    system</text></g><g stroke-linecap="round"><g transform="translate(1035.84375 670.4375) rotate(0 75 -17)"><path d="M-0.92 0.38 C22.85 0.81, 116.51 7.45, 141.72 1.41 C166.93 -4.64, 148.88 -29.64, 150.36 -35.89 M0.8 -0.46 C24.56 0.22, 116.32 8.31, 141.15 2.63 C165.98 -3.04, 148.12 -28.23, 149.78 -34.51" stroke="#d9480f" stroke-width="1" fill="none"></path></g><g transform="translate(1035.84375 670.4375) rotate(0 75 -17)"><path d="M160.8 -16.81 C157.02 -21.21, 155.82 -24.57, 149.62 -34.57 M160 -17.23 C156.36 -25.09, 152.31 -31, 150.51 -34.56" stroke="#d9480f" stroke-width="1" fill="none"></path></g><g transform="translate(1035.84375 670.4375) rotate(0 75 -17)"><path d="M147.74 -14 C146.94 -18.93, 148.69 -22.93, 149.62 -34.57 M146.95 -14.42 C148.13 -23.26, 148.9 -30.2, 150.51 -34.56" stroke="#d9480f" stroke-width="1" fill="none"></path></g></g><g stroke-linecap="round"><g transform="translate(1038.84375 570.4375) rotate(0 71 18.5)"><path d="M-0.39 -1.09 C21.48 -0.97, 107.12 -6.71, 131.02 -0.41 C154.91 5.89, 141.01 30.62, 142.99 36.71 M1.6 0.96 C23.86 1.34, 109.69 -5.24, 133.21 0.91 C156.73 7.06, 141.01 31.9, 142.74 37.88" stroke="#d9480f" stroke-width="1" fill="none"></path></g><g transform="translate(1038.84375 570.4375) rotate(0 71 18.5)"><path d="M137.59 17.45 C139.46 25.89, 140.61 31.03, 141.36 38.21 M139.75 18.23 C140.75 25.24, 141.54 33, 142.08 38.5" stroke="#d9480f" stroke-width="1" fill="none"></path></g><g transform="translate(1038.84375 570.4375) rotate(0 71 18.5)"><path d="M150.51 19.67 C148.78 27.45, 146.32 31.96, 141.36 38.21 M152.67 20.45 C149.09 26.65, 145.31 33.63, 142.08 38.5" stroke="#d9480f" stroke-width="1" fill="none"></path></g></g></svg>