<svg version="1.1" xmlns="http://www.w3.org/2000/svg" viewBox="0 0 10020 705.140625" width="10020" height="705.140625">
  <!-- svg-source:excalidraw -->
  
  <defs>
    <style>
      @font-face {
        font-family: "Virgil";
        src: url("https://excalidraw.com/Virgil.woff2");
      }
      @font-face {
        font-family: "Cascadia";
        src: url("https://excalidraw.com/Cascadia.woff2");
      }
    </style>
  </defs>
  <rect x="0" y="0" width="10020" height="705.140625" fill="#fff0"></rect><g stroke-linecap="round" transform="translate(10 10) rotate(0 5000 0.5)"><path d="M-0.52 -0.26 C3022.65 -30.2, 6044.59 -29.2, 9999.32 0.22 M0.38 -0.31 C3948.03 -0.44, 7895.41 0.2, 9999.95 0.08 M10000.08 -0.06 C10000.09 0.27, 10000.05 0.48, 10000.09 0.92 M9999.97 0.01 C9999.95 0.33, 9999.98 0.72, 10000 0.99 M10000.22 1.51 C7095.77 35.76, 4193.15 34.95, -0.25 0.75 M10000.01 1.13 C7827.97 2.74, 5656.23 3.35, -0.33 0.84 M-0.04 1.01 C0 0.63, -0.06 0.15, 0.05 -0.03 M-0.04 0.95 C-0.04 0.73, -0.03 0.59, -0.05 -0.02" stroke="transparent" stroke-width="1" fill="none"></path></g><g stroke-linecap="round"><g transform="translate(907 695.140625) rotate(0 -0.5 -87)"><path d="M-0.67 0.82 C-0.89 -28.34, -1.6 -145.76, -1.67 -174.81 M1.18 0.21 C1.39 -28.84, 1.2 -144.4, 0.69 -173.7" stroke="#000" stroke-width="1" fill="none"></path></g><g transform="translate(907 695.140625) rotate(0 -0.5 -87)"><path d="M12.55 -146.71 C6.95 -153.44, 6.31 -160.39, 0.79 -173.04 M11.27 -145.02 C8.02 -155.65, 4.74 -164.55, 1.1 -172.99" stroke="#000" stroke-width="1" fill="none"></path></g><g transform="translate(907 695.140625) rotate(0 -0.5 -87)"><path d="M-7.97 -146.54 C-8.01 -153.2, -3.07 -160.2, 0.79 -173.04 M-9.25 -144.85 C-5.28 -155.35, -1.34 -164.32, 1.1 -172.99" stroke="#000" stroke-width="1" fill="none"></path></g></g><g stroke-linecap="round"><g transform="translate(675 612.140625) rotate(0 251 -0.5)"><path d="M0.49 0.88 C84 0.82, 417.24 0.42, 500.86 -0.01 M-0.71 0.3 C83.17 -0.11, 419.26 -1.44, 502.97 -1.61" stroke="#000" stroke-width="1" fill="none"></path></g><g transform="translate(675 612.140625) rotate(0 251 -0.5)"><path d="M476.29 6.84 C484.42 6.04, 489.6 4.71, 501.87 -0.04 M474.56 9.61 C485.19 5.73, 495.16 2.14, 502.06 -2.46" stroke="#000" stroke-width="1" fill="none"></path></g><g transform="translate(675 612.140625) rotate(0 251 -0.5)"><path d="M476.22 -13.68 C484.43 -8.66, 489.63 -4.18, 501.87 -0.04 M474.5 -10.91 C485.24 -7.69, 495.23 -4.17, 502.06 -2.46" stroke="#000" stroke-width="1" fill="none"></path></g></g><g stroke-linecap="round"><g transform="translate(659 686.140625) rotate(0 253 -74)"><path d="M-0.37 0.76 C16.23 0.53, 69.72 2.6, 100.39 -0.35 C131.05 -3.3, 163.72 -9.33, 183.62 -16.92 C203.53 -24.51, 204.22 -30.21, 219.8 -45.87 C235.39 -61.53, 258.8 -95.66, 277.12 -110.88 C295.44 -126.11, 291.69 -130.97, 329.74 -137.22 C367.79 -143.47, 476.19 -146.73, 505.45 -148.4 M1.63 0.11 C18.05 0.57, 69.38 3.61, 99.64 1 C129.9 -1.61, 163.05 -7.94, 183.18 -15.56 C203.32 -23.18, 204.96 -28.8, 220.47 -44.7 C235.98 -60.6, 258.34 -95.43, 276.24 -110.96 C294.14 -126.48, 289.62 -131.96, 327.88 -137.85 C366.14 -143.74, 475.85 -144.74, 505.8 -146.3" stroke="#d9480f" stroke-width="1" fill="none"></path></g></g></svg>