<svg version="1.1" xmlns="http://www.w3.org/2000/svg" viewBox="0 0 10020 700.015625" width="10020" height="700.015625">
  <!-- svg-source:excalidraw -->
  
  <defs>
    <style>
      @font-face {
        font-family: "Virgil";
        src: url("https://excalidraw.com/Virgil.woff2");
      }
      @font-face {
        font-family: "Cascadia";
        src: url("https://excalidraw.com/Cascadia.woff2");
      }
    </style>
  </defs>
  <rect x="0" y="0" width="10020" height="700.015625" fill="#fff0"></rect><g stroke-linecap="round" transform="translate(10 10) rotate(0 5000 0.5)"><path d="M-0.52 -0.26 C3022.65 -30.2, 6044.59 -29.2, 9999.32 0.22 M0.38 -0.31 C3948.03 -0.44, 7895.41 0.2, 9999.95 0.08 M10000.08 -0.06 C10000.09 0.27, 10000.05 0.48, 10000.09 0.92 M9999.97 0.01 C9999.95 0.33, 9999.98 0.72, 10000 0.99 M10000.22 1.51 C7095.77 35.76, 4193.15 34.95, -0.25 0.75 M10000.01 1.13 C7827.97 2.74, 5656.23 3.35, -0.33 0.84 M-0.04 1.01 C0 0.63, -0.06 0.15, 0.05 -0.03 M-0.04 0.95 C-0.04 0.73, -0.03 0.59, -0.05 -0.02" stroke="transparent" stroke-width="1" fill="none"></path></g><g stroke-linecap="round" transform="translate(643 532.015625) rotate(0 32 79)"><path d="M36.86 0.49 C41.66 0.98, 47.58 7.91, 51.56 15.12 C55.54 22.33, 58.58 32.65, 60.72 43.75 C62.85 54.86, 64.45 69.51, 64.36 81.75 C64.28 93.99, 62.63 106.52, 60.22 117.18 C57.82 127.84, 54.16 139, 49.95 145.7 C45.74 152.41, 39.96 156.49, 34.97 157.41 C29.98 158.33, 24.44 155.71, 20.01 151.21 C15.57 146.71, 11.5 139.72, 8.37 130.42 C5.24 121.13, 2.45 107.59, 1.22 95.43 C0 83.26, -0.31 69.06, 1.02 57.42 C2.34 45.78, 5.64 34.49, 9.17 25.59 C12.7 16.69, 17.08 7.8, 22.19 4.03 C27.3 0.26, 36.18 2.49, 39.83 2.96 C43.49 3.43, 44.14 5.6, 44.09 6.85 M32.7 -1.27 C37.38 -1.61, 43.35 4.74, 47.54 11.4 C51.73 18.05, 54.94 28.36, 57.84 38.67 C60.74 48.98, 64.53 61.26, 64.94 73.27 C65.36 85.28, 62.6 99.71, 60.32 110.71 C58.04 121.7, 54.96 131.54, 51.24 139.25 C47.53 146.97, 42.57 154.29, 38.02 156.99 C33.48 159.7, 28.63 159.04, 23.96 155.5 C19.3 151.96, 13.78 144.64, 10.01 135.75 C6.25 126.85, 3.17 113.99, 1.37 102.12 C-0.43 90.24, -1.84 76.41, -0.79 64.5 C0.26 52.58, 4.67 40.17, 7.66 30.65 C10.65 21.13, 12.9 12.69, 17.15 7.38 C21.39 2.06, 30.41 -0.31, 33.12 -1.25 C35.83 -2.2, 33.4 0.21, 33.39 1.71" stroke="#000" stroke-width="1" fill="none"></path></g><g stroke-linecap="round" transform="translate(911 535.015625) rotate(0 32.5 74)"><path d="M18.21 6.81 C22.16 0.86, 28.64 -0.93, 33.53 -0.48 C38.42 -0.04, 43.1 3.63, 47.53 9.48 C51.96 15.32, 57.11 24.89, 60.09 34.57 C63.07 44.25, 64.98 56.28, 65.41 67.55 C65.85 78.81, 64.86 91.77, 62.71 102.18 C60.56 112.59, 56.53 122.52, 52.5 130 C48.48 137.48, 43.4 144.67, 38.58 147.06 C33.76 149.45, 28.29 147.6, 23.57 144.35 C18.85 141.11, 14.05 135.3, 10.26 127.59 C6.48 119.87, 2.53 108.87, 0.88 98.05 C-0.76 87.23, -0.49 74.11, 0.39 62.65 C1.28 51.19, 2.77 38.87, 6.17 29.28 C9.57 19.69, 17.68 9.37, 20.82 5.1 C23.96 0.84, 24.7 2.66, 25.02 3.69 M39.57 1.04 C44.48 2.08, 50.66 9.38, 54.67 17.04 C58.68 24.71, 61.69 36.33, 63.63 47.02 C65.57 57.7, 67.18 69.81, 66.32 81.16 C65.46 92.52, 61.49 105.33, 58.45 115.14 C55.41 124.95, 52.36 134.69, 48.07 140.01 C43.78 145.33, 37.69 146.87, 32.71 147.07 C27.73 147.27, 22.43 146.14, 18.18 141.23 C13.92 136.31, 10.22 126.93, 7.19 117.58 C4.16 108.22, 1.01 96.27, -0.01 85.11 C-1.02 73.94, -0.8 61.45, 1.12 50.59 C3.03 39.74, 7.69 27.97, 11.49 19.97 C15.29 11.96, 19.17 5.78, 23.91 2.56 C28.65 -0.66, 37.27 0.51, 39.92 0.66 C42.57 0.81, 40.21 2.07, 39.81 3.48" stroke="#000" stroke-width="1" fill="none"></path></g><g transform="translate(718 523.015625) rotate(0 7 12.5)"><text x="0" y="18" font-family="Virgil, Segoe UI Emoji" font-size="20px" fill="#000" text-anchor="start" style="white-space: pre;" direction="ltr">A</text></g><g transform="translate(991 517.015625) rotate(0 8 12.5)"><text x="0" y="18" font-family="Virgil, Segoe UI Emoji" font-size="20px" fill="#000" text-anchor="start" style="white-space: pre;" direction="ltr">B</text></g><g transform="translate(675 575.015625) rotate(0 0.00005000000000165983 0.00005000000000165983)" stroke="none"><path fill="#000" d="M 1.57,-1.57 Q 1.57,-1.57 1.77,-1.27 1.98,-0.98 2.09,-0.64 2.20,-0.29 2.19,0.05 2.18,0.41 2.05,0.75 1.93,1.09 1.70,1.37 1.48,1.65 1.18,1.84 0.87,2.04 0.52,2.12 0.18,2.21 -0.17,2.18 -0.53,2.15 -0.86,2.01 -1.19,1.87 -1.46,1.63 -1.73,1.39 -1.90,1.07 -2.08,0.76 -2.15,0.41 -2.21,0.05 -2.17,-0.29 -2.12,-0.65 -1.96,-0.97 -1.80,-1.29 -1.54,-1.54 -1.29,-1.80 -0.97,-1.96 -0.65,-2.12 -0.29,-2.17 0.06,-2.21 0.41,-2.15 0.76,-2.08 1.07,-1.90 1.39,-1.73 1.63,-1.46 1.87,-1.19 2.01,-0.86 2.15,-0.53 2.18,-0.17 2.21,0.18 2.12,0.52 2.03,0.87 1.84,1.18 1.65,1.48 1.37,1.70 1.09,1.93 0.75,2.05 0.41,2.18 0.05,2.19 -0.30,2.20 -0.64,2.09 -0.98,1.98 -1.27,1.77 -1.57,1.56 -1.57,1.57 -1.57,1.57 -1.73,1.35 -1.90,1.14 -2.01,0.90 -2.12,0.66 -2.16,0.39 -2.21,0.13 -2.20,-0.13 -2.18,-0.40 -2.10,-0.65 -2.02,-0.91 -1.88,-1.14 -1.74,-1.36 -1.55,-1.55 -1.36,-1.74 -1.14,-1.88 -0.91,-2.02 -0.65,-2.10 -0.40,-2.18 -0.13,-2.20 0.13,-2.21 0.39,-2.16 0.66,-2.12 0.90,-2.01 1.14,-1.90 1.35,-1.73 1.57,-1.57 1.57,-1.57 L 1.57,-1.57 Z"></path></g><g transform="translate(670 607.015625) rotate(0 0.00005000000000165983 0.00005000000000165983)" stroke="none"><path fill="#000" d="M 1.57,-1.57 Q 1.57,-1.57 1.77,-1.27 1.98,-0.98 2.09,-0.64 2.20,-0.29 2.19,0.05 2.18,0.41 2.05,0.75 1.93,1.09 1.70,1.37 1.48,1.65 1.18,1.84 0.87,2.04 0.52,2.12 0.18,2.21 -0.17,2.18 -0.53,2.15 -0.86,2.01 -1.19,1.87 -1.46,1.63 -1.73,1.39 -1.90,1.07 -2.08,0.76 -2.15,0.41 -2.21,0.05 -2.17,-0.29 -2.12,-0.65 -1.96,-0.97 -1.80,-1.29 -1.54,-1.54 -1.29,-1.80 -0.97,-1.96 -0.65,-2.12 -0.29,-2.17 0.06,-2.21 0.41,-2.15 0.76,-2.08 1.07,-1.90 1.39,-1.73 1.63,-1.46 1.87,-1.19 2.01,-0.86 2.15,-0.53 2.18,-0.17 2.21,0.18 2.12,0.52 2.03,0.87 1.84,1.18 1.65,1.48 1.37,1.70 1.09,1.93 0.75,2.05 0.41,2.18 0.05,2.19 -0.30,2.20 -0.64,2.09 -0.98,1.98 -1.27,1.77 -1.57,1.56 -1.57,1.57 -1.57,1.57 -1.73,1.35 -1.90,1.14 -2.01,0.90 -2.12,0.66 -2.16,0.39 -2.21,0.13 -2.20,-0.13 -2.18,-0.40 -2.10,-0.65 -2.02,-0.91 -1.88,-1.14 -1.74,-1.36 -1.55,-1.55 -1.36,-1.74 -1.14,-1.88 -0.91,-2.02 -0.65,-2.10 -0.40,-2.18 -0.13,-2.20 0.13,-2.21 0.39,-2.16 0.66,-2.12 0.90,-2.01 1.14,-1.90 1.35,-1.73 1.57,-1.57 1.57,-1.57 L 1.57,-1.57 Z"></path></g><g transform="translate(670 653.015625) rotate(0 0.00005000000000165983 0.00005000000000165983)" stroke="none"><path fill="#000" d="M 1.57,-1.57 Q 1.57,-1.57 1.77,-1.27 1.98,-0.98 2.09,-0.64 2.20,-0.29 2.19,0.05 2.18,0.41 2.05,0.75 1.93,1.09 1.70,1.37 1.48,1.65 1.18,1.84 0.87,2.04 0.52,2.12 0.18,2.21 -0.17,2.18 -0.53,2.15 -0.86,2.01 -1.19,1.87 -1.46,1.63 -1.73,1.39 -1.90,1.07 -2.08,0.76 -2.15,0.41 -2.21,0.05 -2.17,-0.29 -2.12,-0.65 -1.96,-0.97 -1.80,-1.29 -1.54,-1.54 -1.29,-1.80 -0.97,-1.96 -0.65,-2.12 -0.29,-2.17 0.06,-2.21 0.41,-2.15 0.76,-2.08 1.07,-1.90 1.39,-1.73 1.63,-1.46 1.87,-1.19 2.01,-0.86 2.15,-0.53 2.18,-0.17 2.21,0.18 2.12,0.52 2.03,0.87 1.84,1.18 1.65,1.48 1.37,1.70 1.09,1.93 0.75,2.05 0.41,2.18 0.05,2.19 -0.30,2.20 -0.64,2.09 -0.98,1.98 -1.27,1.77 -1.57,1.56 -1.57,1.57 -1.57,1.57 -1.73,1.35 -1.90,1.14 -2.01,0.90 -2.12,0.66 -2.16,0.39 -2.21,0.13 -2.20,-0.13 -2.18,-0.40 -2.10,-0.65 -2.02,-0.91 -1.88,-1.14 -1.74,-1.36 -1.55,-1.55 -1.36,-1.74 -1.14,-1.88 -0.91,-2.02 -0.65,-2.10 -0.40,-2.18 -0.13,-2.20 0.13,-2.21 0.39,-2.16 0.66,-2.12 0.90,-2.01 1.14,-1.90 1.35,-1.73 1.57,-1.57 1.57,-1.57 L 1.57,-1.57 Z"></path></g><g transform="translate(943 557.015625) rotate(0 0.00004999999998744897 0.00005000000000165983)" stroke="none"><path fill="#000" d="M 1.57,-1.57 Q 1.57,-1.57 1.77,-1.27 1.98,-0.98 2.09,-0.64 2.20,-0.29 2.19,0.05 2.18,0.41 2.05,0.75 1.93,1.09 1.70,1.37 1.48,1.65 1.18,1.84 0.87,2.04 0.52,2.12 0.18,2.21 -0.17,2.18 -0.53,2.15 -0.86,2.01 -1.19,1.87 -1.46,1.63 -1.73,1.39 -1.90,1.07 -2.08,0.76 -2.15,0.41 -2.21,0.05 -2.17,-0.29 -2.12,-0.65 -1.96,-0.97 -1.80,-1.29 -1.54,-1.54 -1.29,-1.80 -0.97,-1.96 -0.65,-2.12 -0.29,-2.17 0.06,-2.21 0.41,-2.15 0.76,-2.08 1.07,-1.90 1.39,-1.73 1.63,-1.46 1.87,-1.19 2.01,-0.86 2.15,-0.53 2.18,-0.17 2.21,0.18 2.12,0.52 2.03,0.87 1.84,1.18 1.65,1.48 1.37,1.70 1.09,1.93 0.75,2.05 0.41,2.18 0.05,2.19 -0.30,2.20 -0.64,2.09 -0.98,1.98 -1.27,1.77 -1.57,1.56 -1.57,1.57 -1.57,1.57 -1.73,1.35 -1.90,1.14 -2.01,0.90 -2.12,0.66 -2.16,0.39 -2.21,0.13 -2.20,-0.13 -2.18,-0.40 -2.10,-0.65 -2.02,-0.91 -1.88,-1.14 -1.74,-1.36 -1.55,-1.55 -1.36,-1.74 -1.14,-1.88 -0.91,-2.02 -0.65,-2.10 -0.40,-2.18 -0.13,-2.20 0.13,-2.21 0.39,-2.16 0.66,-2.12 0.90,-2.01 1.14,-1.90 1.35,-1.73 1.57,-1.57 1.57,-1.57 L 1.57,-1.57 Z"></path></g><g transform="translate(938 649.015625) rotate(0 0.00004999999998744897 0.00005000000000165983)" stroke="none"><path fill="#000" d="M 1.57,-1.57 Q 1.57,-1.57 1.77,-1.27 1.98,-0.98 2.09,-0.64 2.20,-0.29 2.19,0.05 2.18,0.41 2.05,0.75 1.93,1.09 1.70,1.37 1.48,1.65 1.18,1.84 0.87,2.04 0.52,2.12 0.18,2.21 -0.17,2.18 -0.53,2.15 -0.86,2.01 -1.19,1.87 -1.46,1.63 -1.73,1.39 -1.90,1.07 -2.08,0.76 -2.15,0.41 -2.21,0.05 -2.17,-0.29 -2.12,-0.65 -1.96,-0.97 -1.80,-1.29 -1.54,-1.54 -1.29,-1.80 -0.97,-1.96 -0.65,-2.12 -0.29,-2.17 0.06,-2.21 0.41,-2.15 0.76,-2.08 1.07,-1.90 1.39,-1.73 1.63,-1.46 1.87,-1.19 2.01,-0.86 2.15,-0.53 2.18,-0.17 2.21,0.18 2.12,0.52 2.03,0.87 1.84,1.18 1.65,1.48 1.37,1.70 1.09,1.93 0.75,2.05 0.41,2.18 0.05,2.19 -0.30,2.20 -0.64,2.09 -0.98,1.98 -1.27,1.77 -1.57,1.56 -1.57,1.57 -1.57,1.57 -1.73,1.35 -1.90,1.14 -2.01,0.90 -2.12,0.66 -2.16,0.39 -2.21,0.13 -2.20,-0.13 -2.18,-0.40 -2.10,-0.65 -2.02,-0.91 -1.88,-1.14 -1.74,-1.36 -1.55,-1.55 -1.36,-1.74 -1.14,-1.88 -0.91,-2.02 -0.65,-2.10 -0.40,-2.18 -0.13,-2.20 0.13,-2.21 0.39,-2.16 0.66,-2.12 0.90,-2.01 1.14,-1.90 1.35,-1.73 1.57,-1.57 1.57,-1.57 L 1.57,-1.57 Z"></path></g><g stroke-linecap="round"><g transform="translate(677 576.015625) rotate(0 130 -8.5)"><path d="M-1.01 0.16 C42.12 -2.74, 215.73 -14.23, 259.16 -17.16 M0.66 -0.8 C44.13 -3.53, 218.45 -13.12, 261.43 -15.71" stroke="#d9480f" stroke-width="1" fill="none"></path></g><g transform="translate(677 576.015625) rotate(0 130 -8.5)"><path d="M234.14 -5.25 C242.77 -8.36, 251.54 -11.08, 259.91 -16.68 M234.12 -3.81 C241.8 -7.09, 250.65 -11, 261.49 -14.92" stroke="#d9480f" stroke-width="1" fill="none"></path></g><g transform="translate(677 576.015625) rotate(0 130 -8.5)"><path d="M232.97 -25.74 C242.03 -22, 251.19 -17.88, 259.91 -16.68 M232.94 -24.3 C241.17 -21.57, 250.36 -19.47, 261.49 -14.92" stroke="#d9480f" stroke-width="1" fill="none"></path></g></g><g stroke-linecap="round"><g transform="translate(674 606.015625) rotate(0 124.5 13.5)"><path d="M1.16 -0.38 C42.45 3.81, 206.87 21.47, 248.25 25.84 M0.32 -1.62 C41.94 2.61, 209.14 22.07, 250.57 26.77" stroke="#d9480f" stroke-width="1" fill="none"></path></g><g transform="translate(674 606.015625) rotate(0 124.5 13.5)"><path d="M220.77 32.5 C229.54 31.78, 239.68 29, 249.19 28.17 M221.14 34.14 C229.38 31.33, 235.21 30.92, 250.99 27.36" stroke="#d9480f" stroke-width="1" fill="none"></path></g><g transform="translate(674 606.015625) rotate(0 124.5 13.5)"><path d="M223.11 12.12 C231.19 18.49, 240.52 22.77, 249.19 28.17 M223.49 13.76 C231.03 16.01, 236.28 20.67, 250.99 27.36" stroke="#d9480f" stroke-width="1" fill="none"></path></g></g><g stroke-linecap="round"><g transform="translate(681 655.015625) rotate(0 122.5 -2)"><path d="M-0.56 0.44 C40.07 -0.4, 203.38 -3.37, 244.23 -4.08 M1.35 -0.37 C42.32 -1.1, 206.18 -2.25, 246.54 -2.59" stroke="#1864ab" stroke-width="1" fill="none"></path></g><g transform="translate(681 655.015625) rotate(0 122.5 -2)"><path d="M219.16 6.61 C227.68 3.71, 237.61 1.26, 245.39 -2.85 M217.66 7.52 C226.7 5.67, 233.55 1.93, 246.55 -3.47" stroke="#1864ab" stroke-width="1" fill="none"></path></g><g transform="translate(681 655.015625) rotate(0 122.5 -2)"><path d="M219 -13.91 C227.73 -9.9, 237.72 -5.44, 245.39 -2.85 M217.5 -13 C226.51 -9.04, 233.41 -6.96, 246.55 -3.47" stroke="#1864ab" stroke-width="1" fill="none"></path></g></g><g transform="translate(805 671.015625) rotate(0 8 -13)" stroke="none"><path fill="#1864ab" d="M -1.93,-1.20 Q -1.93,-1.20 -0.38,-3.44 1.15,-5.67 2.73,-7.78 4.31,-9.90 5.90,-11.68 7.50,-13.47 8.32,-14.76 9.15,-16.04 9.78,-18.18 10.42,-20.32 11.35,-21.41 12.28,-22.50 13.00,-24.73 13.72,-26.95 13.98,-27.25 14.24,-27.55 14.58,-27.75 14.92,-27.95 15.31,-28.03 15.69,-28.11 16.08,-28.06 16.47,-28.02 16.83,-27.85 17.19,-27.68 17.47,-27.40 17.75,-27.13 17.93,-26.78 18.12,-26.43 18.18,-26.04 18.24,-25.65 18.17,-25.26 18.10,-24.87 17.91,-24.53 17.72,-24.18 17.43,-23.91 17.15,-23.65 16.79,-23.48 16.43,-23.32 16.03,-23.28 15.64,-23.24 15.26,-23.33 14.87,-23.42 14.54,-23.63 14.20,-23.84 13.95,-24.14 13.70,-24.44 13.56,-24.81 13.41,-25.18 13.40,-25.57 13.38,-25.96 13.49,-26.34 13.60,-26.72 13.82,-27.05 14.05,-27.37 14.36,-27.61 14.68,-27.84 15.05,-27.96 15.43,-28.08 15.82,-28.08 16.22,-28.08 16.59,-27.95 16.96,-27.82 17.27,-27.58 17.58,-27.33 17.80,-27.00 18.02,-26.68 18.12,-26.30 18.22,-25.91 18.20,-25.52 18.17,-25.13 18.02,-24.76 17.87,-24.40 17.87,-24.40 17.87,-24.40 16.66,-21.85 15.44,-19.31 14.36,-17.99 13.28,-16.67 12.70,-15.35 12.12,-14.03 11.11,-12.66 10.09,-11.29 8.71,-9.55 7.32,-7.80 5.96,-5.66 4.59,-3.52 3.26,-1.15 1.93,1.20 1.75,1.42 1.58,1.63 1.36,1.80 1.14,1.96 0.89,2.07 0.64,2.18 0.37,2.23 0.10,2.27 -0.17,2.25 -0.44,2.23 -0.70,2.14 -0.96,2.06 -1.19,1.91 -1.43,1.77 -1.62,1.57 -1.81,1.37 -1.95,1.14 -2.09,0.90 -2.16,0.64 -2.24,0.37 -2.25,0.10 -2.27,-0.17 -2.21,-0.44 -2.16,-0.71 -2.04,-0.95 -1.93,-1.20 -1.93,-1.20 L -1.93,-1.20 Z"></path></g><g transform="translate(792 632.015625) rotate(0 16 24.5)" stroke="none"><path fill="#1864ab" d="M 1.83,-0.98 Q 1.83,-0.98 3.75,2.79 5.67,6.58 7.62,10.52 9.56,14.46 12.37,19.86 15.18,25.27 17.19,28.38 19.20,31.49 20.60,33.38 22.01,35.27 22.78,36.40 23.55,37.54 24.19,38.54 24.82,39.54 26.32,40.97 27.83,42.40 29.36,43.26 30.90,44.12 32.19,45.50 33.48,46.88 33.69,47.22 33.90,47.57 33.98,47.97 34.06,48.36 34.02,48.77 33.97,49.17 33.80,49.53 33.63,49.90 33.34,50.19 33.06,50.48 32.71,50.67 32.35,50.86 31.95,50.92 31.55,50.98 31.15,50.91 30.75,50.85 30.39,50.65 30.04,50.46 29.76,50.17 29.49,49.87 29.32,49.50 29.15,49.13 29.11,48.73 29.07,48.33 29.16,47.93 29.25,47.54 29.46,47.19 29.67,46.85 29.98,46.59 30.29,46.33 30.67,46.18 31.05,46.04 31.45,46.02 31.85,46.00 32.24,46.11 32.63,46.22 32.96,46.45 33.30,46.68 33.54,47.00 33.78,47.33 33.91,47.71 34.04,48.09 34.03,48.50 34.03,48.90 33.90,49.29 33.77,49.67 33.52,49.99 33.27,50.31 32.94,50.53 32.60,50.76 32.21,50.86 31.82,50.97 31.41,50.95 31.01,50.92 30.63,50.77 30.26,50.62 29.95,50.35 29.65,50.09 29.65,50.09 29.65,50.09 28.99,49.13 28.33,48.18 27.32,47.51 26.32,46.83 24.87,45.13 23.42,43.43 22.48,42.40 21.54,41.36 21.07,40.28 20.60,39.20 20.13,38.13 19.67,37.05 18.15,35.12 16.64,33.18 14.49,29.98 12.34,26.78 9.42,21.41 6.50,16.04 4.43,12.20 2.37,8.36 0.27,4.67 -1.83,0.98 -1.92,0.75 -2.01,0.51 -2.04,0.27 -2.08,0.02 -2.05,-0.22 -2.02,-0.47 -1.93,-0.71 -1.85,-0.94 -1.71,-1.15 -1.57,-1.36 -1.38,-1.53 -1.20,-1.69 -0.97,-1.81 -0.75,-1.93 -0.51,-2.00 -0.27,-2.06 -0.02,-2.06 0.22,-2.06 0.47,-2.01 0.71,-1.95 0.94,-1.83 1.16,-1.72 1.35,-1.56 1.54,-1.39 1.68,-1.19 1.83,-0.98 1.83,-0.98 L 1.83,-0.98 Z"></path></g></svg>