<svg version="1.1" xmlns="http://www.w3.org/2000/svg" viewBox="0 0 10020 677.53125" width="10020" height="677.53125">
  <!-- svg-source:excalidraw -->
  
  <defs>
    <style>
      @font-face {
        font-family: "Virgil";
        src: url("https://excalidraw.com/Virgil.woff2");
      }
      @font-face {
        font-family: "Cascadia";
        src: url("https://excalidraw.com/Cascadia.woff2");
      }
    </style>
  </defs>
  <rect x="0" y="0" width="10020" height="677.53125" fill="#fff0"></rect><g stroke-linecap="round" transform="translate(10 10) rotate(0 5000 0.5)"><path d="M-0.52 -0.26 C3022.65 -30.2, 6044.59 -29.2, 9999.32 0.22 M0.38 -0.31 C3948.03 -0.44, 7895.41 0.2, 9999.95 0.08 M10000.08 -0.06 C10000.09 0.27, 10000.05 0.48, 10000.09 0.92 M9999.97 0.01 C9999.95 0.33, 9999.98 0.72, 10000 0.99 M10000.22 1.51 C7095.77 35.76, 4193.15 34.95, -0.25 0.75 M10000.01 1.13 C7827.97 2.74, 5656.23 3.35, -0.33 0.84 M-0.04 1.01 C0 0.63, -0.06 0.15, 0.05 -0.03 M-0.04 0.95 C-0.04 0.73, -0.03 0.59, -0.05 -0.02" stroke="transparent" stroke-width="1" fill="none"></path></g><g stroke-linecap="round"><g transform="translate(681 635.53125) rotate(0 177.5 -36.5)"><path d="M-1.08 0.86 C31 -4.66, 133.71 -35.59, 192.89 -32.9 C252.07 -30.2, 378.62 6.06, 354.01 17.05 C329.4 28.05, 96.46 53.49, 45.24 33.05 C-5.97 12.62, 8.05 -85.49, 46.7 -105.55 C85.35 -125.61, 265.09 -109.51, 277.15 -87.29 C289.21 -65.08, 145.27 8.52, 119.06 27.73 M0.56 0.26 C32.43 -5.59, 132.58 -37.37, 191.88 -34.44 C251.19 -31.5, 380.85 6.96, 356.39 17.87 C331.92 28.79, 96.89 51.6, 45.09 31.05 C-6.7 10.5, 6.68 -85.61, 45.6 -105.45 C84.53 -125.29, 266.29 -110, 278.64 -87.96 C291 -65.93, 146.29 7.41, 119.74 26.77" stroke="#000" stroke-width="1" fill="none"></path></g><g transform="translate(681 635.53125) rotate(0 177.5 -36.5)"><path d="M140.02 3.25 C134.11 9.5, 124.32 17.77, 121.5 27.95 M138.64 4.04 C134.59 10.32, 129.56 16.02, 118.81 27.52" stroke="#000" stroke-width="1" fill="none"></path></g><g transform="translate(681 635.53125) rotate(0 177.5 -36.5)"><path d="M150.61 20.82 C141.09 21.04, 127.73 23.38, 121.5 27.95 M149.24 21.62 C142.47 23.49, 134.75 24.73, 118.81 27.52" stroke="#000" stroke-width="1" fill="none"></path></g></g></svg>