<svg version="1.1" xmlns="http://www.w3.org/2000/svg" viewBox="0 0 10020 991.25" width="10020" height="991.25">
  <!-- svg-source:excalidraw -->
  
  <defs>
    <style>
      @font-face {
        font-family: "Virgil";
        src: url("https://excalidraw.com/Virgil.woff2");
      }
      @font-face {
        font-family: "Cascadia";
        src: url("https://excalidraw.com/Cascadia.woff2");
      }
    </style>
  </defs>
  <rect x="0" y="0" width="10020" height="991.25" fill="#fff0"></rect><g stroke-linecap="round" transform="translate(10 10) rotate(0 5000 0.5)"><path d="M-0.52 -0.26 C3022.65 -30.2, 6044.59 -29.2, 9999.32 0.22 M0.38 -0.31 C3948.03 -0.44, 7895.41 0.2, 9999.95 0.08 M10000.08 -0.06 C10000.09 0.27, 10000.05 0.48, 10000.09 0.92 M9999.97 0.01 C9999.95 0.33, 9999.98 0.72, 10000 0.99 M10000.22 1.51 C7095.77 35.76, 4193.15 34.95, -0.25 0.75 M10000.01 1.13 C7827.97 2.74, 5656.23 3.35, -0.33 0.84 M-0.04 1.01 C0 0.63, -0.06 0.15, 0.05 -0.03 M-0.04 0.95 C-0.04 0.73, -0.03 0.59, -0.05 -0.02" stroke="transparent" stroke-width="1" fill="none"></path></g><g transform="translate(953.4591346153845 553.25) rotate(0 20.769230769230774 40.5)"><text x="0" y="57" font-family="Virgil, Segoe UI Emoji" font-size="63.79120879120882px" fill="#1864ab" text-anchor="start" style="white-space: pre;" direction="ltr">ψ</text></g><g transform="translate(901.84375 535.25) rotate(0 76 12.5)"><text x="0" y="18" font-family="Virgil, Segoe UI Emoji" font-size="20px" fill="#000000" text-anchor="start" style="white-space: pre;" direction="ltr">Quantum state</text></g><g transform="translate(584.84375 649.25) rotate(0 113.5 12.5)"><text x="0" y="18" font-family="Virgil, Segoe UI Emoji" font-size="20px" fill="#000000" text-anchor="start" style="white-space: pre;" direction="ltr">Position representation</text></g><g transform="translate(1178.84375 656.25) rotate(0 123 12.5)"><text x="0" y="18" font-family="Virgil, Segoe UI Emoji" font-size="20px" fill="#000000" text-anchor="start" style="white-space: pre;" direction="ltr">Momentum representation</text></g><g transform="translate(620.84375 697.25) rotate(0 39.5 25)"><text x="0" y="35" font-family="Virgil, Segoe UI Emoji" font-size="40px" fill="#1864ab" text-anchor="start" style="white-space: pre;" direction="ltr">ψ(x)</text></g><g transform="translate(1235.84375 702.25) rotate(0 55 25)"><text x="0" y="35" font-family="Virgil, Segoe UI Emoji" font-size="40px" fill="#1864ab" text-anchor="start" style="white-space: pre;" direction="ltr">ψ(p.x)</text></g><g stroke-linecap="round"><g transform="translate(916.84375 628.25) rotate(0 -71.5 36.5)"><path d="M1.06 0.91 C-23.03 12.81, -119.29 59.82, -143.35 71.96 M0.16 0.34 C-24.22 12.31, -120.41 61.03, -144.48 72.96" stroke="#d9480f" stroke-width="1" fill="none"></path></g><g transform="translate(916.84375 628.25) rotate(0 -71.5 36.5)"><path d="M-122.37 50.57 C-133.71 59.52, -138.86 70.04, -144.64 72.04 M-124.25 52.03 C-128.6 56.13, -133.02 60.68, -143.56 71.99" stroke="#d9480f" stroke-width="1" fill="none"></path></g><g transform="translate(916.84375 628.25) rotate(0 -71.5 36.5)"><path d="M-113.17 68.91 C-128.26 70.64, -137.07 73.86, -144.64 72.04 M-115.05 70.37 C-121.61 69.95, -128.25 70.06, -143.56 71.99" stroke="#d9480f" stroke-width="1" fill="none"></path></g></g><g stroke-linecap="round"><g transform="translate(1027.84375 629.25) rotate(0 81.5 42.5)"><path d="M-0.81 -1.18 C26.34 12.65, 136.19 69.68, 163.58 84.05 M0.97 0.82 C27.95 15.28, 135.93 70.83, 162.94 85.09" stroke="#d9480f" stroke-width="1" fill="none"></path></g><g transform="translate(1027.84375 629.25) rotate(0 81.5 42.5)"><path d="M131.23 82.14 C142.3 83.62, 154.6 84.82, 161.09 85.51 M132.65 81.12 C139.81 82.45, 147.11 82.83, 162.24 86.03" stroke="#d9480f" stroke-width="1" fill="none"></path></g><g transform="translate(1027.84375 629.25) rotate(0 81.5 42.5)"><path d="M140.7 63.94 C148.55 71.87, 157.45 79.59, 161.09 85.51 M142.13 62.91 C146.97 68.62, 151.96 73.44, 162.24 86.03" stroke="#d9480f" stroke-width="1" fill="none"></path></g></g><g stroke-linecap="round"><g transform="translate(1169.84375 733.25) rotate(0 -187 -4)"><path d="M1 0.12 C-61.61 -1.5, -312.39 -7.56, -374.85 -8.83 M0.07 -0.86 C-62.23 -2.43, -310.18 -6.28, -372.58 -7.73" stroke="#d9480f" stroke-width="1" fill="none"></path></g><g transform="translate(1169.84375 733.25) rotate(0 -187 -4)"><path d="M-343.99 -18.87 C-355.95 -13.2, -364.17 -8.11, -372.32 -7.44 M-344.93 -18.24 C-352.88 -14.81, -362.37 -11.49, -373.19 -8.72" stroke="#d9480f" stroke-width="1" fill="none"></path></g><g transform="translate(1169.84375 733.25) rotate(0 -187 -4)"><path d="M-344.38 1.65 C-356.35 -0.23, -364.43 -2.68, -372.32 -7.44 M-345.32 2.28 C-353.25 -1.14, -362.61 -4.69, -373.19 -8.72" stroke="#d9480f" stroke-width="1" fill="none"></path></g></g><g stroke-linecap="round"><g transform="translate(801.84375 758.25) rotate(0 179 1)"><path d="M1.15 -0.87 C60.51 -0.76, 297.58 1.16, 357.09 1.46 M0.3 1.28 C59.95 1.49, 299.78 2.65, 359.32 2.72" stroke="#d9480f" stroke-width="1" fill="none"></path></g><g transform="translate(801.84375 758.25) rotate(0 179 1)"><path d="M329.64 11.36 C340.78 9.13, 350.58 5.73, 358.29 0.76 M331.55 13.41 C342.8 9.47, 354.47 4.8, 358.66 2.62" stroke="#d9480f" stroke-width="1" fill="none"></path></g><g transform="translate(801.84375 758.25) rotate(0 179 1)"><path d="M329.71 -9.16 C340.96 -3.65, 350.73 0.69, 358.29 0.76 M331.62 -7.11 C342.68 -2.84, 354.31 0.69, 358.66 2.62" stroke="#d9480f" stroke-width="1" fill="none"></path></g></g><g transform="translate(936.84375 778.25) rotate(0 33.5 12.5)"><text x="0" y="18" font-family="Virgil, Segoe UI Emoji" font-size="20px" fill="#d9480f" text-anchor="start" style="white-space: pre;" direction="ltr">Fourier</text></g><g transform="translate(910.84375 687.25) rotate(0 58 12.5)"><text x="0" y="18" font-family="Virgil, Segoe UI Emoji" font-size="20px" fill="#d9480f" text-anchor="start" style="white-space: pre;" direction="ltr">Anti Fourier</text></g><g transform="translate(583.84375 956.25) rotate(0 81 12.5)"><text x="0" y="18" font-family="Virgil, Segoe UI Emoji" font-size="20px" fill="#000000" text-anchor="start" style="white-space: pre;" direction="ltr">ψ(x) = rect(x/w)</text></g><g stroke-linecap="round"><g transform="translate(532.84375 888.25) rotate(0 138.5 0.5)"><path d="M-0.51 -0.39 C45.96 -0.11, 231.71 1.82, 278 2.14 M1.43 -1.64 C47.9 -1.71, 231.72 0.43, 277.57 0.61" stroke="#000000" stroke-width="1" fill="none"></path></g></g><g stroke-linecap="round"><g transform="translate(650.84375 799.25) rotate(0 0 71)"><path d="M0.22 -0.34 C0.25 23.37, 0.2 117.62, 0 141.29 M-1.13 -1.56 C-1.23 22.37, -1.38 118.38, -0.96 142.46" stroke="#000000" stroke-width="1" fill="none"></path></g></g><g stroke-linecap="round"><g transform="translate(534.84375 885.25) rotate(0 120 -28.5)"><path d="M-0.72 -0.94 C12.61 -1.2, 64.17 8.33, 79.08 -0.81 C93.99 -9.96, 76.76 -46.31, 88.72 -55.81 C100.68 -65.32, 138.92 -66.36, 150.85 -57.85 C162.79 -49.33, 145.38 -14.31, 160.32 -4.74 C175.26 4.84, 227.41 -1.22, 240.52 -0.4 M1.1 1.18 C14.45 0.99, 64.25 10.09, 78.7 0.3 C93.15 -9.49, 75.76 -47.95, 87.81 -57.53 C99.87 -67.11, 138.63 -65.99, 151.02 -57.19 C163.41 -48.39, 147.56 -14.08, 162.15 -4.73 C176.74 4.61, 225.72 -1.83, 238.55 -1.13" stroke="#d9480f" stroke-width="1" fill="none"></path></g></g><g stroke-linecap="round"><g transform="translate(616.84375 879.25) rotate(0 36 -0.5)"><path d="M-0.01 1.01 C11.97 1.1, 59.57 0.7, 71.65 0.2 M-1.47 0.49 C10.34 0.31, 58.28 -1.01, 70.52 -1.3" stroke="#1864ab" stroke-width="1" fill="none"></path></g></g><g transform="translate(628.84375 904.25) rotate(0 6.5 12.5)"><text x="0" y="18" font-family="Virgil, Segoe UI Emoji" font-size="20px" fill="#1864ab" text-anchor="start" style="white-space: pre;" direction="ltr">w</text></g><g stroke-linecap="round"><g transform="translate(1169.84375 892.25) rotate(0 133.5 1.5)"><path d="M-0.13 0.08 C44.32 0.59, 221.84 2.93, 266.27 3.39 M-1.66 -0.92 C43.22 -0.82, 224.08 0.63, 268.6 1.48" stroke="#000000" stroke-width="1" fill="none"></path></g></g><g stroke-linecap="round"><g transform="translate(1312.7971234429629 941.7394652556627) rotate(0 -2.4766867214813715 -68.74473262783138)"><path d="M-0.05 0.49 C-0.94 -22.69, -5.07 -115.37, -5.98 -138.33 M-1.53 -0.3 C-2.01 -23.41, -2.97 -114.64, -3.8 -137.24" stroke="#000000" stroke-width="1" fill="none"></path></g></g><g stroke-linecap="round"><g transform="translate(1162.84375 883.25) rotate(0 138.5 -16.5)"><path d="M-0.84 -0.46 C1.82 -1.77, 7.93 -12.06, 14.92 -8.67 C21.9 -5.29, 30.74 21.99, 41.07 19.84 C51.39 17.69, 65.76 -23.51, 76.89 -21.56 C88.03 -19.61, 97.16 38.8, 107.89 31.54 C118.63 24.28, 129.67 -64.81, 141.31 -65.11 C152.94 -65.4, 166.8 21.68, 177.71 29.78 C188.61 37.88, 195.63 -15.93, 206.73 -16.52 C217.83 -17.1, 232.42 23.52, 244.28 26.3 C256.13 29.08, 272.24 4.33, 277.84 0.18 M0.92 -1.75 C3.51 -2.84, 6.84 -11.29, 13.93 -7.49 C21.02 -3.68, 32.85 23.29, 43.47 21.08 C54.08 18.86, 67.13 -22.52, 77.61 -20.76 C88.09 -18.99, 95.58 39.26, 106.37 31.69 C117.16 24.11, 130.39 -65.64, 142.36 -66.2 C154.33 -66.77, 167.57 20.06, 178.19 28.32 C188.81 36.59, 194.81 -16.58, 206.09 -16.6 C217.37 -16.62, 234.33 25.56, 245.88 28.21 C257.44 30.86, 269.93 3.57, 275.4 -0.7" stroke="#d9480f" stroke-width="1" fill="none"></path></g></g><g transform="translate(1185.84375 952.25) rotate(0 124.5 12.5)"><text x="0" y="18" font-family="Virgil, Segoe UI Emoji" font-size="20px" fill="#000000" text-anchor="start" style="white-space: pre;" direction="ltr">ψ(p.x) = C sinc(w p.x / h)</text></g><g transform="translate(1274.84375 950.25) rotate(0 0.00004999999998744897 0.00004999999998744897)" stroke="none"><path fill="#000000" d="M 1.57,-1.57 Q 1.57,-1.57 1.77,-1.27 1.98,-0.98 2.09,-0.64 2.20,-0.29 2.19,0.05 2.18,0.41 2.05,0.75 1.93,1.09 1.70,1.37 1.48,1.65 1.18,1.84 0.87,2.04 0.52,2.12 0.18,2.21 -0.17,2.18 -0.53,2.15 -0.86,2.01 -1.19,1.87 -1.46,1.63 -1.73,1.39 -1.90,1.07 -2.08,0.76 -2.15,0.41 -2.21,0.05 -2.17,-0.29 -2.12,-0.65 -1.96,-0.97 -1.80,-1.29 -1.54,-1.54 -1.29,-1.80 -0.97,-1.96 -0.65,-2.12 -0.29,-2.17 0.06,-2.21 0.41,-2.15 0.76,-2.08 1.07,-1.90 1.39,-1.73 1.63,-1.46 1.87,-1.19 2.01,-0.86 2.15,-0.53 2.18,-0.17 2.21,0.18 2.12,0.52 2.03,0.87 1.84,1.18 1.65,1.48 1.37,1.70 1.09,1.93 0.75,2.05 0.41,2.18 0.05,2.19 -0.30,2.20 -0.64,2.09 -0.98,1.98 -1.27,1.77 -1.57,1.56 -1.57,1.57 -1.57,1.57 -1.73,1.35 -1.90,1.14 -2.01,0.90 -2.12,0.66 -2.16,0.39 -2.21,0.13 -2.20,-0.13 -2.18,-0.40 -2.10,-0.65 -2.02,-0.91 -1.88,-1.14 -1.74,-1.36 -1.55,-1.55 -1.36,-1.74 -1.14,-1.88 -0.91,-2.02 -0.65,-2.10 -0.40,-2.18 -0.13,-2.20 0.13,-2.21 0.39,-2.16 0.66,-2.12 0.90,-2.01 1.14,-1.90 1.35,-1.73 1.57,-1.57 1.57,-1.57 L 1.57,-1.57 Z"></path></g><g transform="translate(1188.84375 949.25) rotate(0 0.00004999999998744897 0.00004999999998744897)" stroke="none"><path fill="#000000" d="M 1.57,-1.57 Q 1.57,-1.57 1.77,-1.27 1.98,-0.98 2.09,-0.64 2.20,-0.29 2.19,0.05 2.18,0.41 2.05,0.75 1.93,1.09 1.70,1.37 1.48,1.65 1.18,1.84 0.87,2.04 0.52,2.12 0.18,2.21 -0.17,2.18 -0.53,2.15 -0.86,2.01 -1.19,1.87 -1.46,1.63 -1.73,1.39 -1.90,1.07 -2.08,0.76 -2.15,0.41 -2.21,0.05 -2.17,-0.29 -2.12,-0.65 -1.96,-0.97 -1.80,-1.29 -1.54,-1.54 -1.29,-1.80 -0.97,-1.96 -0.65,-2.12 -0.29,-2.17 0.06,-2.21 0.41,-2.15 0.76,-2.08 1.07,-1.90 1.39,-1.73 1.63,-1.46 1.87,-1.19 2.01,-0.86 2.15,-0.53 2.18,-0.17 2.21,0.18 2.12,0.52 2.03,0.87 1.84,1.18 1.65,1.48 1.37,1.70 1.09,1.93 0.75,2.05 0.41,2.18 0.05,2.19 -0.30,2.20 -0.64,2.09 -0.98,1.98 -1.27,1.77 -1.57,1.56 -1.57,1.57 -1.57,1.57 -1.73,1.35 -1.90,1.14 -2.01,0.90 -2.12,0.66 -2.16,0.39 -2.21,0.13 -2.20,-0.13 -2.18,-0.40 -2.10,-0.65 -2.02,-0.91 -1.88,-1.14 -1.74,-1.36 -1.55,-1.55 -1.36,-1.74 -1.14,-1.88 -0.91,-2.02 -0.65,-2.10 -0.40,-2.18 -0.13,-2.20 0.13,-2.21 0.39,-2.16 0.66,-2.12 0.90,-2.01 1.14,-1.90 1.35,-1.73 1.57,-1.57 1.57,-1.57 L 1.57,-1.57 Z"></path></g><g transform="translate(1344.84375 792.25) rotate(0 35.5 12.5)"><text x="0" y="18" font-family="Virgil, Segoe UI Emoji" font-size="20px" fill="#1864ab" text-anchor="start" style="white-space: pre;" direction="ltr">f = 1/w</text></g></svg>