<svg version="1.1" xmlns="http://www.w3.org/2000/svg" viewBox="0 0 10020 762.546875" width="10020" height="762.546875">
  <!-- svg-source:excalidraw -->
  
  <defs>
    <style>
      @font-face {
        font-family: "Virgil";
        src: url("https://excalidraw.com/Virgil.woff2");
      }
      @font-face {
        font-family: "Cascadia";
        src: url("https://excalidraw.com/Cascadia.woff2");
      }
    </style>
  </defs>
  <rect x="0" y="0" width="10020" height="762.546875" fill="#fff0"></rect><g stroke-linecap="round" transform="translate(10 10) rotate(0 5000 0.5)"><path d="M-0.52 -0.26 C3022.65 -30.2, 6044.59 -29.2, 9999.32 0.22 M0.38 -0.31 C3948.03 -0.44, 7895.41 0.2, 9999.95 0.08 M10000.08 -0.06 C10000.09 0.27, 10000.05 0.48, 10000.09 0.92 M9999.97 0.01 C9999.95 0.33, 9999.98 0.72, 10000 0.99 M10000.22 1.51 C7095.77 35.76, 4193.15 34.95, -0.25 0.75 M10000.01 1.13 C7827.97 2.74, 5656.23 3.35, -0.33 0.84 M-0.04 1.01 C0 0.63, -0.06 0.15, 0.05 -0.03 M-0.04 0.95 C-0.04 0.73, -0.03 0.59, -0.05 -0.02" stroke="transparent" stroke-width="1" fill="none"></path></g><g stroke-linecap="round"><g transform="translate(706 693.296875) rotate(0 1.2549733619159156 -83.01774398870766)"><path d="M-1.18 -0.98 C-0.78 -28.88, 1.41 -139.42, 2.15 -167.07 M0.4 1.11 C0.63 -26.69, 0.6 -138.22, 1.02 -166.08" stroke="#000000" stroke-width="1" fill="none"></path></g><g transform="translate(706 693.296875) rotate(0 1.2549733619159156 -83.01774398870766)"><path d="M9.46 -138.41 C6.46 -144.61, 3.92 -152.61, -0.56 -167.97 M10.48 -138.76 C8.77 -144.8, 6.64 -151.4, 0.04 -165.5" stroke="#000000" stroke-width="1" fill="none"></path></g><g transform="translate(706 693.296875) rotate(0 1.2549733619159156 -83.01774398870766)"><path d="M-11.06 -138.54 C-8.28 -144.51, -5.04 -152.47, -0.56 -167.97 M-10.04 -138.89 C-6.91 -144.79, -4.19 -151.36, 0.04 -165.5" stroke="#000000" stroke-width="1" fill="none"></path></g></g><g stroke-linecap="round"><g transform="translate(697 682.296875) rotate(0 241.48299936242404 2.1861035693669635)"><path d="M-0.2 0.44 C80.14 1.14, 402.57 4.05, 482.93 4.7 M-1.77 -0.37 C78.34 -0.09, 400.95 1.74, 481.97 2.74" stroke="#000000" stroke-width="1" fill="none"></path></g><g transform="translate(697 682.296875) rotate(0 241.48299936242404 2.1861035693669635)"><path d="M454.42 12.71 C464.67 7.41, 474.55 3.42, 480.38 1.44 M454.56 13.24 C461.66 9.66, 471.46 7.25, 481.93 3.04" stroke="#000000" stroke-width="1" fill="none"></path></g><g transform="translate(697 682.296875) rotate(0 241.48299936242404 2.1861035693669635)"><path d="M454.6 -7.81 C464.86 -5.5, 474.68 -1.9, 480.38 1.44 M454.74 -7.28 C461.92 -4.71, 471.67 -0.99, 481.93 3.04" stroke="#000000" stroke-width="1" fill="none"></path></g></g><g stroke-linecap="round"><g transform="translate(716 539.296875) rotate(0 171 70)"><path d="M1.19 -1.01 C6.74 12.75, 17.51 61.57, 33.98 82.26 C50.44 102.96, 48.62 113.62, 99.95 123.16 C151.29 132.71, 301.58 136.94, 341.98 139.55 M0.35 1.07 C5.77 14.48, 16.98 60.22, 33.54 80.28 C50.1 100.34, 48.24 111.41, 99.69 121.43 C151.13 131.46, 301.99 137.56, 342.21 140.42" stroke="#1864ab" stroke-width="1" fill="none"></path></g></g><g stroke-linecap="round"><g transform="translate(721 542.296875) rotate(0 129 50)"><path d="M-0.45 -0.95 C4.03 10.36, 15.33 48.21, 25.91 66.74 C36.49 85.26, 37.65 105.69, 63.01 110.22 C88.37 114.74, 145.75 114.23, 178.06 93.88 C210.38 73.54, 243.66 5.61, 256.9 -11.86 M1.52 1.17 C6 12.75, 15.32 49.81, 25.44 68.14 C35.56 86.46, 36.85 106.74, 62.25 111.12 C87.65 115.5, 145.11 114.91, 177.82 94.4 C210.53 73.9, 245.03 5.8, 258.51 -11.92" stroke="#d9480f" stroke-width="1" fill="none"></path></g></g><g transform="translate(1180 692.546875) rotate(0 5 12.5)"><text x="0" y="18" font-family="Virgil, Segoe UI Emoji" font-size="20px" fill="#000000" text-anchor="start" style="white-space: pre;" direction="ltr">n</text></g><g transform="translate(782 702.546875) rotate(0 52 25)"><text x="0" y="18" font-family="Virgil, Segoe UI Emoji" font-size="20px" fill="#000000" text-anchor="start" style="white-space: pre;" direction="ltr">true model</text><text x="0" y="43" font-family="Virgil, Segoe UI Emoji" font-size="20px" fill="#000000" text-anchor="start" style="white-space: pre;" direction="ltr">order</text></g><g stroke-linecap="round"><g transform="translate(786 684.546875) rotate(0 0.2836693165963595 -75.64841857751365)"><path d="M0.3 0.22 C0.54 -24.87, 0.09 -124.96, 0.25 -150.1 M-1 -0.7 C-0.85 -26.13, -1.17 -126.27, -0.87 -151.59" stroke="#000000" stroke-width="1" fill="none"></path></g></g><g transform="translate(736 527.546875) rotate(0 11.5 12.5)"><text x="0" y="18" font-family="Virgil, Segoe UI Emoji" font-size="20px" fill="#1864ab" text-anchor="start" style="white-space: pre;" direction="ltr">Jn</text></g><g transform="translate(986 539.546875) rotate(0 12 12.5)"><text x="0" y="18" font-family="Virgil, Segoe UI Emoji" font-size="20px" fill="#d9480f" text-anchor="start" style="white-space: pre;" direction="ltr">Jv</text></g></svg>