<svg version="1.1" xmlns="http://www.w3.org/2000/svg" viewBox="0 0 10020 692.96875" width="10020" height="692.96875">
  <!-- svg-source:excalidraw -->
  
  <defs>
    <style>
      @font-face {
        font-family: "Virgil";
        src: url("https://excalidraw.com/Virgil.woff2");
      }
      @font-face {
        font-family: "Cascadia";
        src: url("https://excalidraw.com/Cascadia.woff2");
      }
    </style>
  </defs>
  <rect x="0" y="0" width="10020" height="692.96875" fill="#fff0"></rect><g stroke-linecap="round" transform="translate(10 10) rotate(0 5000 0.5)"><path d="M-0.52 -0.26 C3022.65 -30.2, 6044.59 -29.2, 9999.32 0.22 M0.38 -0.31 C3948.03 -0.44, 7895.41 0.2, 9999.95 0.08 M10000.08 -0.06 C10000.09 0.27, 10000.05 0.48, 10000.09 0.92 M9999.97 0.01 C9999.95 0.33, 9999.98 0.72, 10000 0.99 M10000.22 1.51 C7095.77 35.76, 4193.15 34.95, -0.25 0.75 M10000.01 1.13 C7827.97 2.74, 5656.23 3.35, -0.33 0.84 M-0.04 1.01 C0 0.63, -0.06 0.15, 0.05 -0.03 M-0.04 0.95 C-0.04 0.73, -0.03 0.59, -0.05 -0.02" stroke="transparent" stroke-width="1" fill="none"></path></g><g stroke-linecap="round"><g transform="translate(859.84375 631.96875) rotate(0 158.5 0)"><path d="M-0.41 -0.14 C52.38 -0.19, 263.97 -0.97, 316.74 -1.11 M1.57 -1.26 C54.19 -1.13, 262.8 -0.33, 315.66 -0.16" stroke="#000" stroke-width="1" fill="none"></path></g></g><g stroke-linecap="round"><g transform="translate(1015.84375 682.96875) rotate(0 -1 -80)"><path d="M-1.05 -0.12 C-1.47 -26.66, -3.12 -133.97, -3.08 -160.42 M0.6 -1.23 C0.58 -27.5, -0.67 -132.55, -0.94 -159.11" stroke="#000" stroke-width="1" fill="none"></path></g><g transform="translate(1015.84375 682.96875) rotate(0 -1 -80)"><path d="M9.43 -132.83 C6.49 -136.38, 6.45 -145.32, -2.22 -158.67 M10.19 -130.12 C4.73 -141.23, 2.48 -152.8, -1.94 -159.32" stroke="#000" stroke-width="1" fill="none"></path></g><g transform="translate(1015.84375 682.96875) rotate(0 -1 -80)"><path d="M-11.09 -132.61 C-8.77 -136.03, -3.55 -145.03, -2.22 -158.67 M-10.33 -129.9 C-7.67 -141.02, -1.82 -152.68, -1.94 -159.32" stroke="#000" stroke-width="1" fill="none"></path></g></g><g stroke-linecap="round"><g transform="translate(866.84375 571.96875) rotate(0 143.5 -1)"><path d="M1.14 -0.66 C49.15 -0.61, 239.82 -0.52, 287.54 -0.84 M0.28 1.61 C48.23 1.45, 239.09 -1.83, 286.87 -2.36" stroke="#d9480f" stroke-width="1" fill="none"></path></g></g><g transform="translate(898.84375 654.96875) rotate(0 11.5 12.5)"><text x="0" y="18" font-family="Virgil, Segoe UI Emoji" font-size="20px" fill="#1864ab" text-anchor="start" style="white-space: pre;" direction="ltr">-pi</text></g><g transform="translate(1084.84375 653.96875) rotate(0 7.5 12.5)"><text x="0" y="18" font-family="Virgil, Segoe UI Emoji" font-size="20px" fill="#1864ab" text-anchor="start" style="white-space: pre;" direction="ltr">pi</text></g><g transform="translate(1200.84375 541.96875) rotate(0 46 12.5)"><text x="0" y="18" font-family="Virgil, Segoe UI Emoji" font-size="20px" fill="#d9480f" text-anchor="start" style="white-space: pre;" direction="ltr">lambda^2</text></g><g stroke-linecap="round"><g transform="translate(913.84375 629.96875) rotate(0 0 -54)"><path d="M-0.28 0.01 C-0.42 -18.02, -0.71 -89.32, -0.85 -107.29 M1.78 -1.02 C2.02 -19.48, 1.51 -91.48, 1.42 -109.03" stroke="#1864ab" stroke-width="1" fill="none"></path></g></g><g stroke-linecap="round"><g transform="translate(1094.84375 629.96875) rotate(0 -1 -58)"><path d="M0.02 -1.12 C-0.67 -20.21, -2.49 -95.87, -2.99 -115.16 M-1.42 0.9 C-1.86 -18.45, -0.94 -97.35, -0.8 -116.84" stroke="#1864ab" stroke-width="1" fill="none"></path></g></g></svg>