<svg version="1.1" xmlns="http://www.w3.org/2000/svg" viewBox="0 0 10020 820.921875" width="10020" height="820.921875">
  <!-- svg-source:excalidraw -->
  
  <defs>
    <style>
      @font-face {
        font-family: "Virgil";
        src: url("https://excalidraw.com/Virgil.woff2");
      }
      @font-face {
        font-family: "Cascadia";
        src: url("https://excalidraw.com/Cascadia.woff2");
      }
    </style>
  </defs>
  <rect x="0" y="0" width="10020" height="820.921875" fill="#fff0"></rect><g stroke-linecap="round" transform="translate(10 10) rotate(0 5000 0.5)"><path d="M-0.52 -0.26 C3022.65 -30.2, 6044.59 -29.2, 9999.32 0.22 M0.38 -0.31 C3948.03 -0.44, 7895.41 0.2, 9999.95 0.08 M10000.08 -0.06 C10000.09 0.27, 10000.05 0.48, 10000.09 0.92 M9999.97 0.01 C9999.95 0.33, 9999.98 0.72, 10000 0.99 M10000.22 1.51 C7095.77 35.76, 4193.15 34.95, -0.25 0.75 M10000.01 1.13 C7827.97 2.74, 5656.23 3.35, -0.33 0.84 M-0.04 1.01 C0 0.63, -0.06 0.15, 0.05 -0.03 M-0.04 0.95 C-0.04 0.73, -0.03 0.59, -0.05 -0.02" stroke="transparent" stroke-width="1" fill="none"></path></g><g stroke-linecap="round" transform="translate(658 637.921875) rotate(0 48 39.5)"><path d="M0.56 0.7 C33.97 2.14, 70.57 -0.74, 94.51 0.36 M-0.27 -0.53 C34.22 -1.63, 70.19 -1.82, 95.56 -0.92 M97.66 1.95 C95.77 21.2, 96.39 42.52, 94.04 78.4 M95.42 0.99 C96.46 28.98, 95.35 58.08, 96.72 78.86 M96.54 77.67 C57.27 80.57, 20.44 77.8, -1.43 80.03 M96.93 79.84 C71.89 78.52, 49.5 78.25, -0.26 79.04 M0.95 78.72 C0.04 60.55, -0.07 36.99, -1.2 -1.83 M0.41 79.84 C0.36 60.94, 0.21 41.59, -0.22 0.87" stroke="#000" stroke-width="1" fill="none"></path></g><g transform="translate(548 659.921875) rotate(0 8 12.5)"><text x="0" y="18" font-family="Virgil, Segoe UI Emoji" font-size="20px" fill="#000" text-anchor="start" style="white-space: pre;" direction="ltr">M</text></g><g transform="translate(663 664.921875) rotate(0 43 12.5)"><text x="43" y="18" font-family="Virgil, Segoe UI Emoji" font-size="20px" fill="#000" text-anchor="middle" style="white-space: pre;" direction="ltr">T</text></g><g transform="translate(827 667.921875) rotate(0 7.5 12.5)"><text x="0" y="18" font-family="Virgil, Segoe UI Emoji" font-size="20px" fill="#000" text-anchor="start" style="white-space: pre;" direction="ltr">U</text></g><g stroke-linecap="round"><g transform="translate(695 636.921875) rotate(0 -2 -39)"><path d="M1.11 1.01 C0.16 -11.89, -4.04 -64.79, -4.83 -78.01 M0.24 0.5 C-0.41 -12.15, -1.82 -63.53, -2.55 -76.48" stroke="#1864ab" stroke-width="1" fill="none"></path></g><g transform="translate(695 636.921875) rotate(0 -2 -39)"><path d="M10.52 -50.11 C4.71 -58.28, -0.06 -69.81, -2.48 -77.4 M8.7 -49.05 C7.48 -55, 3.3 -61.17, -3.46 -77.18" stroke="#1864ab" stroke-width="1" fill="none"></path></g><g transform="translate(695 636.921875) rotate(0 -2 -39)"><path d="M-9.98 -49.28 C-8.16 -57.96, -5.3 -69.79, -2.48 -77.4 M-11.81 -48.22 C-8.62 -54.45, -8.4 -60.8, -3.46 -77.18" stroke="#1864ab" stroke-width="1" fill="none"></path></g></g><g transform="translate(726 557.921875) rotate(0 13 12.5)"><text x="0" y="18" font-family="Virgil, Segoe UI Emoji" font-size="20px" fill="#1864ab" text-anchor="start" style="white-space: pre;" direction="ltr">Wp</text></g><g stroke-linecap="round"><g transform="translate(758 683.921875) rotate(0 31 0)"><path d="M0.3 0.84 C10.47 0.6, 51.7 0.03, 62.04 -0.3 M-1 0.23 C8.92 0.69, 50.66 1.19, 61.11 1.08" stroke="#000000" stroke-width="1" fill="none"></path></g></g><g stroke-linecap="round"><g transform="translate(587 677.921875) rotate(0 31 0)"><path d="M0.44 -0.76 C10.85 -1.08, 52.06 -1.12, 62.13 -0.94 M-0.78 1.45 C9.51 1.78, 50.59 0.65, 61.25 0.11" stroke="#000000" stroke-width="1" fill="none"></path></g></g><g stroke-linecap="round" transform="translate(1068 640.421875) rotate(0 48 39.5)"><path d="M-1.31 0.97 C28.68 1.97, 56.09 1.32, 96.63 0.45 M0.59 0.28 C23.56 -1.47, 45.79 0.41, 95.13 0.13 M96.99 1.42 C97.1 19.22, 95.02 39.74, 96 80.59 M96.42 -0.87 C96.12 31.72, 95.42 63.14, 96.53 78.31 M96.48 77.04 C69.01 80.02, 37.89 80.55, 1.94 79.68 M96.17 78.24 C72.66 79.97, 50.65 80.42, -0.25 79 M-1.73 77.61 C0.56 57.59, 1.14 34.57, -0.39 -1.55 M-0.5 79.2 C-1.06 49.32, -1.58 19.92, -0.03 -0.18" stroke="#000" stroke-width="1" fill="none"></path></g><g transform="translate(958 662.421875) rotate(0 8 12.5)"><text x="0" y="18" font-family="Virgil, Segoe UI Emoji" font-size="20px" fill="#000" text-anchor="start" style="white-space: pre;" direction="ltr">M</text></g><g transform="translate(1073 667.421875) rotate(0 43 12.5)"><text x="43" y="18" font-family="Virgil, Segoe UI Emoji" font-size="20px" fill="#000" text-anchor="middle" style="white-space: pre;" direction="ltr">T</text></g><g transform="translate(1237 670.421875) rotate(0 7.5 12.5)"><text x="0" y="18" font-family="Virgil, Segoe UI Emoji" font-size="20px" fill="#000" text-anchor="start" style="white-space: pre;" direction="ltr">U</text></g><g stroke-linecap="round"><g transform="translate(1105 639.421875) rotate(0 -2 -39)"><path d="M0.79 0.32 C0.09 -12.71, -2.85 -64.45, -3.6 -77.62 M-0.26 -0.56 C-1.13 -14, -3.66 -66.68, -4.34 -79.55" stroke="#1864ab" stroke-width="1" fill="none"></path></g><g transform="translate(1105 639.421875) rotate(0 -2 -39)"><path d="M7.86 -51.25 C3.76 -61.01, -2.14 -70.57, -3.15 -78.36 M7.16 -50.93 C2.48 -60.95, -0.97 -70.09, -5.12 -79.06" stroke="#1864ab" stroke-width="1" fill="none"></path></g><g transform="translate(1105 639.421875) rotate(0 -2 -39)"><path d="M-12.63 -50.21 C-9.59 -60.48, -8.36 -70.39, -3.15 -78.36 M-13.33 -49.9 C-11.31 -60.07, -8.03 -69.55, -5.12 -79.06" stroke="#1864ab" stroke-width="1" fill="none"></path></g></g><g transform="translate(1136 560.421875) rotate(0 13 12.5)"><text x="0" y="18" font-family="Virgil, Segoe UI Emoji" font-size="20px" fill="#1864ab" text-anchor="start" style="white-space: pre;" direction="ltr">Wp</text></g><g stroke-linecap="round"><g transform="translate(1168 686.421875) rotate(0 31 0)"><path d="M0.4 0.38 C10.65 0.2, 51.95 -0.78, 62.27 -0.73 M-0.85 -0.47 C9.19 -0.53, 51.03 0.56, 61.46 0.43" stroke="#000000" stroke-width="1" fill="none"></path></g></g><g stroke-linecap="round"><g transform="translate(997 680.421875) rotate(0 31 0)"><path d="M0.38 0.27 C10.53 0.25, 50.88 0.24, 61.27 0.31 M-0.89 -0.64 C9.63 -1.06, 53.07 -1.54, 63.6 -1.65" stroke="#000000" stroke-width="1" fill="none"></path></g></g><g stroke-linecap="round"><g transform="translate(570 737.921875) rotate(0 132.5 0)"><path d="M-0.31 -0.66 C43.71 -0.87, 220.91 -1.12, 264.97 -0.85 M1.73 1.61 C45.51 1.49, 219.88 0.65, 264.01 0.24" stroke="#d9480f" stroke-width="1" fill="none"></path></g><g transform="translate(570 737.921875) rotate(0 132.5 0)"><path d="M234.78 10.64 C244.85 5.32, 258.32 2.1, 262.32 0.88 M234.99 11.63 C245.64 6.27, 256.93 3.78, 264.54 0.77" stroke="#d9480f" stroke-width="1" fill="none"></path></g><g transform="translate(570 737.921875) rotate(0 132.5 0)"><path d="M234.65 -9.88 C244.84 -7.6, 258.35 -3.22, 262.32 0.88 M234.86 -8.9 C245.39 -6.65, 256.73 -1.55, 264.54 0.77" stroke="#d9480f" stroke-width="1" fill="none"></path></g></g><g stroke-linecap="round"><g transform="translate(574 738.921875) rotate(0 67 -95.5)"><path d="M-1.01 0.51 C20.13 0.81, 104.54 33.59, 127.01 1.5 C149.48 -30.59, 132.62 -159.8, 133.81 -192.03 M0.66 -0.26 C21.71 0.23, 104.54 35.05, 126.59 2.78 C148.63 -29.49, 131.64 -161.09, 132.94 -193.87" stroke="#d9480f" stroke-width="1" fill="none"></path></g><g transform="translate(574 738.921875) rotate(0 67 -95.5)"><path d="M145.27 -164.48 C140.04 -175.31, 138.86 -183.55, 134.73 -194.28 M144.26 -166.45 C140.84 -176.08, 134.66 -187.65, 132.2 -193.53" stroke="#d9480f" stroke-width="1" fill="none"></path></g><g transform="translate(574 738.921875) rotate(0 67 -95.5)"><path d="M124.77 -163.58 C126.01 -174.53, 131.29 -183.05, 134.73 -194.28 M123.75 -165.55 C128.28 -175.73, 130.04 -187.65, 132.2 -193.53" stroke="#d9480f" stroke-width="1" fill="none"></path></g></g><g transform="translate(651 780.921875) rotate(0 64.5 12.5)"><text x="0" y="18" font-family="Virgil, Segoe UI Emoji" font-size="20px" fill="#d9480f" text-anchor="start" style="white-space: pre;" direction="ltr">Moto diretto</text></g><g stroke-linecap="round"><g transform="translate(1270 757.921875) rotate(0 -149.5 -1.5)"><path d="M0.32 -1.15 C-49.42 -2.02, -248.31 -3.63, -298.29 -4.1 M-0.97 0.86 C-50.82 0.61, -248.92 -2.47, -298.86 -3.14" stroke="#d9480f" stroke-width="1" fill="none"></path></g><g transform="translate(1270 757.921875) rotate(0 -149.5 -1.5)"><path d="M-272.45 -11.81 C-281.18 -10.79, -289.9 -5.41, -299.41 -3.43 M-269.67 -13.7 C-279.75 -9.61, -290.26 -5.62, -298.6 -2.9" stroke="#d9480f" stroke-width="1" fill="none"></path></g><g transform="translate(1270 757.921875) rotate(0 -149.5 -1.5)"><path d="M-272.74 8.71 C-281.58 3.28, -290.2 2.21, -299.41 -3.43 M-269.97 6.82 C-279.98 3.91, -290.39 0.9, -298.6 -2.9" stroke="#d9480f" stroke-width="1" fill="none"></path></g></g><g stroke-linecap="round"><g transform="translate(1267 756.921875) rotate(0 -89 -97.5)"><path d="M1.14 1.02 C-23.61 1.39, -119.46 34.51, -149.47 1.6 C-179.48 -31.31, -173.98 -163.44, -178.89 -196.45 M0.28 0.51 C-24.5 0.58, -120.68 32.44, -150.14 -0.21 C-179.6 -32.86, -171.63 -162.81, -176.47 -195.37" stroke="#d9480f" stroke-width="1" fill="none"></path></g><g transform="translate(1267 756.921875) rotate(0 -89 -97.5)"><path d="M-163.25 -166.78 C-166.39 -175.23, -170.71 -181.47, -177.2 -196.42 M-165.3 -168.44 C-168.02 -173.36, -169.35 -180.24, -176.89 -195.24" stroke="#d9480f" stroke-width="1" fill="none"></path></g><g transform="translate(1267 756.921875) rotate(0 -89 -97.5)"><path d="M-183.75 -165.86 C-182.31 -174.71, -182.05 -181.16, -177.2 -196.42 M-185.8 -167.52 C-184.11 -172.84, -181.06 -179.92, -176.89 -195.24" stroke="#d9480f" stroke-width="1" fill="none"></path></g></g><g transform="translate(1029 785.921875) rotate(0 82.5 12.5)"><text x="0" y="18" font-family="Virgil, Segoe UI Emoji" font-size="20px" fill="#d9480f" text-anchor="start" style="white-space: pre;" direction="ltr">Moto retrogrado</text></g><g transform="translate(590 633.921875) rotate(0 8 12.5)"><text x="0" y="18" font-family="Virgil, Segoe UI Emoji" font-size="20px" fill="#1864ab" text-anchor="start" style="white-space: pre;" direction="ltr">W</text></g><g transform="translate(599 645.921875) rotate(0 16 12.5)"><text x="0" y="18" font-family="Virgil, Segoe UI Emoji" font-size="20px" fill="#1864ab" text-anchor="start" style="white-space: pre;" direction="ltr">MT</text></g><g transform="translate(773 639.921875) rotate(0 8 12.5)"><text x="0" y="18" font-family="Virgil, Segoe UI Emoji" font-size="20px" fill="#1864ab" text-anchor="start" style="white-space: pre;" direction="ltr">W</text></g><g transform="translate(782 651.921875) rotate(0 15.5 12.5)"><text x="0" y="18" font-family="Virgil, Segoe UI Emoji" font-size="20px" fill="#1864ab" text-anchor="start" style="white-space: pre;" direction="ltr">TU</text></g></svg>