<svg version="1.1" xmlns="http://www.w3.org/2000/svg" viewBox="0 0 10020 740.9375" width="10020" height="740.9375">
  <!-- svg-source:excalidraw -->
  
  <defs>
    <style>
      @font-face {
        font-family: "Virgil";
        src: url("https://excalidraw.com/Virgil.woff2");
      }
      @font-face {
        font-family: "Cascadia";
        src: url("https://excalidraw.com/Cascadia.woff2");
      }
    </style>
  </defs>
  <rect x="0" y="0" width="10020" height="740.9375" fill="#fff0"></rect><g stroke-linecap="round" transform="translate(10 10) rotate(0 5000 0.5)"><path d="M-0.52 -0.26 C3022.65 -30.2, 6044.59 -29.2, 9999.32 0.22 M0.38 -0.31 C3948.03 -0.44, 7895.41 0.2, 9999.95 0.08 M10000.08 -0.06 C10000.09 0.27, 10000.05 0.48, 10000.09 0.92 M9999.97 0.01 C9999.95 0.33, 9999.98 0.72, 10000 0.99 M10000.22 1.51 C7095.77 35.76, 4193.15 34.95, -0.25 0.75 M10000.01 1.13 C7827.97 2.74, 5656.23 3.35, -0.33 0.84 M-0.04 1.01 C0 0.63, -0.06 0.15, 0.05 -0.03 M-0.04 0.95 C-0.04 0.73, -0.03 0.59, -0.05 -0.02" stroke="transparent" stroke-width="1" fill="none"></path></g><g stroke-linecap="round"><g transform="translate(935 730.9375) rotate(0 -2 -103.5)"><path d="M-0.77 -0.81 C-1.26 -35.28, -2.5 -172.08, -2.89 -206.53 M1.02 1.37 C0.46 -33.48, -2.52 -173.76, -3.25 -208.41" stroke="#000" stroke-width="1" fill="none"></path></g><g transform="translate(935 730.9375) rotate(0 -2 -103.5)"><path d="M6.24 -178.59 C5.02 -187.54, 0 -196.39, -4.6 -210.31 M8.47 -180.87 C2.6 -190.47, -0.37 -200.28, -2.42 -209.17" stroke="#000" stroke-width="1" fill="none"></path></g><g transform="translate(935 730.9375) rotate(0 -2 -103.5)"><path d="M-14.27 -178.16 C-9.25 -187.11, -8.01 -196.08, -4.6 -210.31 M-12.05 -180.43 C-10.3 -190.39, -5.63 -200.36, -2.42 -209.17" stroke="#000" stroke-width="1" fill="none"></path></g></g><g stroke-linecap="round"><g transform="translate(793 688.9375) rotate(0 162.5 -2)"><path d="M-1.09 0.9 C53.15 0.22, 270.37 -2.03, 324.74 -2.92 M0.54 0.32 C54.66 -0.15, 269.68 -3.86, 323.65 -4.48" stroke="#000" stroke-width="1" fill="none"></path></g><g transform="translate(793 688.9375) rotate(0 162.5 -2)"><path d="M297.11 5.76 C304.09 4.05, 308.32 1.63, 325.43 -5.12 M296.41 5.68 C303.09 3.64, 309.6 0.79, 323.87 -5.24" stroke="#000" stroke-width="1" fill="none"></path></g><g transform="translate(793 688.9375) rotate(0 162.5 -2)"><path d="M296.81 -14.76 C304.05 -11.51, 308.36 -8.98, 325.43 -5.12 M296.11 -14.84 C302.81 -11.92, 309.39 -9.82, 323.87 -5.24" stroke="#000" stroke-width="1" fill="none"></path></g></g><g stroke-linecap="round"><g transform="translate(811 553.9375) rotate(0 61.5 67)"><path d="M-0.03 0.12 C20.8 22.54, 103.64 111.49, 124.13 133.96 M-1.5 -0.87 C19.33 21.81, 103.18 113.16, 123.78 135.48" stroke="#d9480f" stroke-width="1" fill="none"></path></g></g><g stroke-linecap="round"><g transform="translate(933 682.9375) rotate(0 64.5 -72.5)"><path d="M-1.08 0.84 C20.73 -23.24, 108.2 -120.27, 129.87 -144.45 M0.55 0.24 C22.37 -24.2, 108.11 -121.88, 129.38 -146.29" stroke="#d9480f" stroke-width="1" fill="none"></path></g></g><g transform="translate(929 682.9375) rotate(0 7 -2)" stroke="none"><path fill="#1864ab" d="M -2.25,-0.56 Q -2.25,-0.56 -2.00,-1.66 -1.75,-2.77 -1.91,-5.21 -2.07,-7.65 -0.96,-8.45 0.14,-9.26 3.71,-9.25 7.28,-9.25 9.63,-8.86 11.98,-8.46 13.19,-8.41 14.41,-8.36 15.97,-7.43 17.53,-6.50 17.94,-5.00 18.35,-3.50 17.71,-1.71 17.08,0.07 16.51,1.09 15.93,2.12 15.23,3.00 14.53,3.88 12.89,4.54 11.24,5.20 9.71,5.35 8.18,5.49 5.99,5.60 3.79,5.71 2.44,5.33 1.10,4.95 0.18,4.17 -0.73,3.38 -1.14,2.19 -1.54,1.00 -0.81,-0.64 -0.07,-2.28 1.80,-2.94 3.68,-3.60 5.52,-3.62 7.37,-3.64 10.54,-2.43 13.72,-1.22 12.50,0.59 11.29,2.41 9.82,2.53 8.35,2.65 6.21,2.54 4.08,2.43 2.62,2.44 1.17,2.46 -0.05,2.49 -1.27,2.52 -2.57,2.15 -3.87,1.79 -4.77,0.98 -5.66,0.18 -6.09,-1.12 -6.52,-2.44 -6.03,-4.48 -5.53,-6.51 -4.12,-7.63 -2.71,-8.76 -1.56,-9.08 -0.42,-9.41 1.48,-8.88 3.39,-8.35 4.54,-7.81 5.69,-7.27 6.63,-6.40 7.56,-5.54 8.02,-3.87 8.48,-2.19 7.10,-0.59 5.71,0.99 4.32,0.98 2.94,0.96 1.86,-0.19 0.78,-1.35 0.79,-3.28 0.79,-5.21 1.48,-6.33 2.16,-7.45 3.69,-8.29 5.21,-9.12 6.56,-9.43 7.90,-9.74 11.09,-9.13 14.27,-8.52 15.77,-7.86 17.28,-7.20 18.26,-4.49 19.23,-1.79 18.12,-0.49 17.02,0.79 13.67,1.32 10.32,1.84 8.85,2.01 7.39,2.18 4.85,2.31 2.31,2.45 1.91,2.39 1.51,2.33 1.14,2.15 0.78,1.97 0.50,1.68 0.22,1.39 0.04,1.03 -0.13,0.67 -0.18,0.27 -0.23,-0.13 -0.15,-0.52 -0.07,-0.92 0.12,-1.27 0.32,-1.62 0.62,-1.89 0.93,-2.16 1.30,-2.31 1.67,-2.47 2.08,-2.50 2.48,-2.53 2.87,-2.43 3.26,-2.33 3.60,-2.11 3.94,-1.89 4.19,-1.57 4.44,-1.25 4.58,-0.87 4.72,-0.49 4.72,-0.09 4.73,0.31 4.61,0.69 4.49,1.08 4.25,1.41 4.01,1.73 3.68,1.97 3.35,2.20 2.96,2.31 2.58,2.43 2.17,2.42 1.77,2.40 1.39,2.26 1.01,2.12 0.70,1.86 0.38,1.61 0.17,1.26 -0.04,0.92 -0.13,0.53 -0.22,0.13 -0.19,-0.26 -0.15,-0.66 0.00,-1.03 0.16,-1.40 0.43,-1.70 0.71,-2.00 1.06,-2.20 1.41,-2.39 1.81,-2.46 2.21,-2.54 2.21,-2.54 2.21,-2.54 4.52,-2.60 6.83,-2.67 8.22,-2.82 9.62,-2.98 12.36,-3.77 15.11,-4.55 14.96,-3.44 14.82,-2.32 13.70,-2.69 12.57,-3.06 11.38,-3.42 10.20,-3.77 8.99,-3.62 7.78,-3.48 6.33,-3.73 4.89,-3.98 4.02,-3.08 3.15,-2.18 2.16,-2.63 1.18,-3.07 -0.01,-2.81 -1.20,-2.55 -0.05,-2.54 1.09,-2.52 2.52,-2.55 3.96,-2.58 5.92,-2.79 7.87,-3.00 9.26,-3.12 10.65,-3.24 9.41,-1.98 8.16,-0.72 7.91,0.58 7.66,1.90 6.14,2.05 4.63,2.21 4.22,1.21 3.81,0.22 5.76,0.19 7.71,0.15 9.34,0.18 10.97,0.21 11.75,-0.83 12.54,-1.88 13.25,-2.91 13.97,-3.93 12.74,-4.09 11.51,-4.25 9.46,-4.35 7.42,-4.45 5.05,-4.43 2.68,-4.41 2.79,-3.11 2.90,-1.82 2.58,-0.63 2.25,0.56 2.15,0.82 2.05,1.08 1.89,1.31 1.73,1.54 1.52,1.73 1.31,1.91 1.06,2.04 0.81,2.17 0.54,2.23 0.27,2.30 -0.00,2.30 -0.28,2.30 -0.55,2.23 -0.83,2.16 -1.07,2.03 -1.32,1.90 -1.53,1.72 -1.74,1.53 -1.90,1.30 -2.05,1.07 -2.15,0.81 -2.25,0.54 -2.28,0.27 -2.32,-0.00 -2.28,-0.28 -2.25,-0.56 -2.25,-0.56 L -2.25,-0.56 Z"></path></g></svg>