<svg version="1.1" xmlns="http://www.w3.org/2000/svg" viewBox="0 0 10020 682.5625" width="10020" height="682.5625">
  <!-- svg-source:excalidraw -->
  
  <defs>
    <style>
      @font-face {
        font-family: "Virgil";
        src: url("https://excalidraw.com/Virgil.woff2");
      }
      @font-face {
        font-family: "Cascadia";
        src: url("https://excalidraw.com/Cascadia.woff2");
      }
    </style>
  </defs>
  <rect x="0" y="0" width="10020" height="682.5625" fill="#fff0"></rect><g stroke-linecap="round" transform="translate(10 10) rotate(0 5000 0.5)"><path d="M-0.52 -0.26 C3022.65 -30.2, 6044.59 -29.2, 9999.32 0.22 M0.38 -0.31 C3948.03 -0.44, 7895.41 0.2, 9999.95 0.08 M10000.08 -0.06 C10000.09 0.27, 10000.05 0.48, 10000.09 0.92 M9999.97 0.01 C9999.95 0.33, 9999.98 0.72, 10000 0.99 M10000.22 1.51 C7095.77 35.76, 4193.15 34.95, -0.25 0.75 M10000.01 1.13 C7827.97 2.74, 5656.23 3.35, -0.33 0.84 M-0.04 1.01 C0 0.63, -0.06 0.15, 0.05 -0.03 M-0.04 0.95 C-0.04 0.73, -0.03 0.59, -0.05 -0.02" stroke="transparent" stroke-width="1" fill="none"></path></g><g stroke-linecap="round"><g transform="translate(640 541.5625) rotate(0 0.15717890858650208 47.28543460364919)"><path d="M-0.58 -0.94 C-0.49 14.71, -0.64 77.82, -0.37 93.94 M1.31 1.18 C1.88 16.97, 2.1 79.67, 1.98 95.14" stroke="#000" stroke-width="1" fill="none"></path></g></g><g stroke-linecap="round"><g transform="translate(554 609.5625) rotate(0 80.5 -1)"><path d="M-0.16 -0.06 C26.63 -0.37, 133.97 -1.08, 160.85 -1.51 M-1.71 -1.14 C24.9 -1.84, 132.8 -3.29, 159.83 -3.38" stroke="#000" stroke-width="1" fill="none"></path></g></g><g stroke-linecap="round"><g transform="translate(917 541.5625) rotate(0 1.3674303777070804 48.882367475288916)"><path d="M0.83 0.6 C1.32 16.79, 3.62 81.66, 3.92 97.91 M-0.2 -0.13 C0.16 16.2, 3.27 83.51, 3.59 99.53" stroke="#000" stroke-width="1" fill="none"></path></g></g><g stroke-linecap="round"><g transform="translate(837 605.5625) rotate(0 87 0.5)"><path d="M0.74 1.16 C29.84 1.5, 145.76 1.62, 174.57 1.63 M-0.33 0.72 C28.67 0.75, 145.09 -0.48, 173.92 -0.16" stroke="#000" stroke-width="1" fill="none"></path></g></g><g stroke-linecap="round"><g transform="translate(551 542.5625) rotate(0 40.5 41)"><path d="M-0.48 0.53 C4.53 4.5, 18.32 18.01, 30.08 23.86 C41.84 29.7, 61.79 25.93, 70.1 35.59 C78.41 45.24, 78.04 74.09, 79.92 81.78 M1.47 -0.23 C6.33 3.84, 17.85 18.64, 29.17 24.79 C40.49 30.95, 60.98 27.03, 69.39 36.69 C77.79 46.35, 77.81 75.21, 79.6 82.76" stroke="#d9480f" stroke-width="1" fill="none"></path></g></g><g stroke-linecap="round"><g transform="translate(733.4455126652076 543.9931125639899) rotate(359.6916423084425 -38.833881791860506 41)"><path d="M0.77 -0.16 C-3.93 4.26, -16.75 19.34, -28.1 25.42 C-39.45 31.51, -58.9 26.88, -67.33 36.36 C-75.77 45.84, -77.17 74.6, -78.71 82.33 M-0.29 -1.3 C-5.1 2.86, -17.37 17.61, -28.69 23.52 C-40.01 29.44, -59.83 24.19, -68.21 34.21 C-76.6 44.22, -77.47 75.38, -79.01 83.6" stroke="#d9480f" stroke-width="1" fill="none"></path></g></g><g stroke-linecap="round"><g transform="translate(850.009972930963 626.6090965636375) rotate(0 75.99501353451848 -21.52329828181879)"><path d="M-0.19 1.13 C6.09 0.64, 26.45 0.06, 37.63 -3.07 C48.81 -6.2, 59.15 -12.37, 66.87 -17.66 C74.6 -22.96, 77.98 -31.23, 83.96 -34.84 C89.93 -38.46, 91.56 -38.01, 102.72 -39.37 C113.88 -40.74, 142.81 -42.45, 150.9 -43.03 M-1.76 0.68 C4.43 -0.12, 25.73 -1.85, 36.99 -4.67 C48.25 -7.49, 57.91 -11.33, 65.81 -16.24 C73.71 -21.15, 78.4 -30.3, 84.4 -34.12 C90.4 -37.95, 90.59 -37.53, 101.81 -39.18 C113.04 -40.84, 143.45 -43.24, 151.74 -44.06" stroke="#d9480f" stroke-width="1" fill="none"></path></g></g><g transform="translate(589 641.5625) rotate(0 20.5 12.5)"><text x="0" y="18" font-family="Virgil, Segoe UI Emoji" font-size="20px" fill="#000000" text-anchor="start" style="white-space: pre;" direction="ltr">Pari</text></g><g transform="translate(954 647.5625) rotate(0 34 12.5)"><text x="0" y="18" font-family="Virgil, Segoe UI Emoji" font-size="20px" fill="#000000" text-anchor="start" style="white-space: pre;" direction="ltr">Dispari</text></g></svg>