<svg version="1.1" xmlns="http://www.w3.org/2000/svg" viewBox="0 0 10020 835.390625" width="10020" height="835.390625">
  <!-- svg-source:excalidraw -->
  
  <defs>
    <style>
      @font-face {
        font-family: "Virgil";
        src: url("https://excalidraw.com/Virgil.woff2");
      }
      @font-face {
        font-family: "Cascadia";
        src: url("https://excalidraw.com/Cascadia.woff2");
      }
    </style>
  </defs>
  <rect x="0" y="0" width="10020" height="835.390625" fill="#fff0"></rect><g stroke-linecap="round" transform="translate(10 10) rotate(0 5000 0.5)"><path d="M-0.52 -0.26 C3022.65 -30.2, 6044.59 -29.2, 9999.32 0.22 M0.38 -0.31 C3948.03 -0.44, 7895.41 0.2, 9999.95 0.08 M10000.08 -0.06 C10000.09 0.27, 10000.05 0.48, 10000.09 0.92 M9999.97 0.01 C9999.95 0.33, 9999.98 0.72, 10000 0.99 M10000.22 1.51 C7095.77 35.76, 4193.15 34.95, -0.25 0.75 M10000.01 1.13 C7827.97 2.74, 5656.23 3.35, -0.33 0.84 M-0.04 1.01 C0 0.63, -0.06 0.15, 0.05 -0.03 M-0.04 0.95 C-0.04 0.73, -0.03 0.59, -0.05 -0.02" stroke="transparent" stroke-width="1" fill="none"></path></g><g stroke-linecap="round"><g transform="translate(615 769.390625) rotate(0 2 -126)"><path d="M-1.03 1.04 C-0.29 -40.87, 2.73 -208.55, 3.43 -250.89 M0.63 0.54 C1.25 -41.72, 1.35 -210.3, 2.18 -252.43" stroke="#000" stroke-width="1" fill="none"></path></g><g transform="translate(615 769.390625) rotate(0 2 -126)"><path d="M13.92 -225.1 C11.76 -231.73, 6.08 -234.56, 1.89 -253.66 M12.04 -223.72 C8.46 -234.79, 4.04 -245.92, 2.27 -252.22" stroke="#000" stroke-width="1" fill="none"></path></g><g transform="translate(615 769.390625) rotate(0 2 -126)"><path d="M-6.6 -225.29 C-4.35 -231.69, -5.62 -234.49, 1.89 -253.66 M-8.48 -223.9 C-3.91 -234.92, -0.18 -245.98, 2.27 -252.22" stroke="#000" stroke-width="1" fill="none"></path></g></g><g stroke-linecap="round"><g transform="translate(579 740.390625) rotate(0 195 0)"><path d="M-0.71 -0.24 C64.35 -0.45, 325.43 -0.96, 390.5 -0.82 M1.11 -1.41 C66.05 -1.53, 325.2 0.29, 389.81 0.28" stroke="#000" stroke-width="1" fill="none"></path></g><g transform="translate(579 740.390625) rotate(0 195 0)"><path d="M361.19 11.27 C368.91 6.98, 379.98 5.22, 391.34 -0.11 M360.59 10.07 C372.23 6.84, 381.68 3.82, 388.87 0.92" stroke="#000" stroke-width="1" fill="none"></path></g><g transform="translate(579 740.390625) rotate(0 195 0)"><path d="M361.27 -9.25 C369.04 -7.19, 380.09 -2.61, 391.34 -0.11 M360.66 -10.45 C372.16 -6.35, 381.58 -2.05, 388.87 0.92" stroke="#000" stroke-width="1" fill="none"></path></g></g><g stroke-linecap="round"><g transform="translate(560 724.390625) rotate(0 241 -87.5)"><path d="M0.43 -0.4 C13.04 -11.89, 48.5 -59.98, 74.84 -69.49 C101.19 -79, 126.82 -48.52, 158.5 -57.46 C190.18 -66.4, 231.3 -112.68, 264.94 -123.13 C298.58 -133.58, 324.09 -111.48, 360.31 -120.16 C396.54 -128.84, 461.94 -166.03, 482.29 -175.21 M-0.8 -1.66 C11.71 -12.94, 47.44 -58.56, 73.81 -68.2 C100.19 -77.85, 125.49 -50.45, 157.47 -59.52 C189.45 -68.59, 232.09 -112.48, 265.68 -122.62 C299.27 -132.76, 323.25 -111.42, 359 -120.38 C394.76 -129.34, 459.48 -166.97, 480.19 -176.36" stroke="#d9480f" stroke-width="1" fill="none"></path></g></g><g transform="translate(1048 544.390625) rotate(0 5.5 12.5)"><text x="0" y="18" font-family="Virgil, Segoe UI Emoji" font-size="20px" fill="#d9480f" text-anchor="start" style="white-space: pre;" direction="ltr">f</text></g><g transform="translate(983 744.390625) rotate(0 6 12.5)"><text x="0" y="18" font-family="Virgil, Segoe UI Emoji" font-size="20px" fill="#000000" text-anchor="start" style="white-space: pre;" direction="ltr">x</text></g><g transform="translate(589 520.390625) rotate(0 5 12.5)"><text x="0" y="18" font-family="Virgil, Segoe UI Emoji" font-size="20px" fill="#000000" text-anchor="start" style="white-space: pre;" direction="ltr">y</text></g><g stroke-linecap="round"><g transform="translate(698 669.390625) rotate(0 -0.41849673874676796 34.07319665704388)"><path d="M-0.05 0.03 C-0.22 11.23, -1.53 55.97, -1.67 67.23 M-1.54 -0.99 C-1.27 10.33, 0.63 56.68, 0.6 68.29" stroke="#1864ab" stroke-width="1" fill="none"></path></g></g><g transform="translate(696 754.390625) rotate(0 7 12.5)"><text x="0" y="18" font-family="Virgil, Segoe UI Emoji" font-size="20px" fill="#1864ab" text-anchor="start" style="white-space: pre;" direction="ltr">a</text></g><g stroke-linecap="round"><g transform="translate(844 599.390625) rotate(0 1.5 69.5)"><path d="M-0.41 -1.03 C0.09 22.24, 2.12 116.33, 2.8 139.83 M1.58 1.05 C1.92 23.96, 1.46 115.29, 1.75 138.14" stroke="#1864ab" stroke-width="1" fill="none"></path></g></g><g transform="translate(844 761.390625) rotate(0 5.5 12.5)"><text x="0" y="18" font-family="Virgil, Segoe UI Emoji" font-size="20px" fill="#1864ab" text-anchor="start" style="white-space: pre;" direction="ltr">b</text></g><g stroke-linecap="round"><g transform="translate(864.5 748.390625) rotate(0 231 -89)"><path d="M0.4 -1.14 C16.86 -6.49, 74.77 -18.95, 98.4 -33.25 C122.03 -47.54, 108.06 -73.53, 142.17 -86.91 C176.29 -100.29, 262.95 -100.66, 303.07 -113.52 C343.2 -126.38, 356.32 -153.52, 382.93 -164.08 C409.54 -174.64, 449.57 -174.57, 462.74 -176.89 M-0.85 0.87 C16.04 -4.19, 76.98 -17.44, 100.79 -31.84 C124.61 -46.24, 108.78 -72.07, 142.02 -85.55 C175.26 -99.02, 260.23 -99.75, 300.22 -112.69 C340.21 -125.64, 355.17 -152.43, 381.95 -163.21 C408.73 -173.99, 447.45 -174.66, 460.88 -177.35" stroke="#e67700" stroke-width="1" fill="none"></path></g></g><g stroke-linecap="round"><g transform="translate(950.5 825.390625) rotate(0 -1 -145)"><path d="M-1.14 -0.6 C-1.32 -48.81, -2.12 -240.77, -2.25 -288.83 M0.46 1.7 C0.2 -46.85, -2.81 -241.6, -3.32 -290.33" stroke="#000000" stroke-width="1" fill="none"></path></g><g transform="translate(950.5 825.390625) rotate(0 -1 -145)"><path d="M6.3 -262.69 C7.02 -267.92, 4.7 -274.61, -1.77 -288.8 M7.28 -261.41 C3.68 -273.26, -1.07 -283.25, -2.44 -290.71" stroke="#000000" stroke-width="1" fill="none"></path></g><g transform="translate(950.5 825.390625) rotate(0 -1 -145)"><path d="M-14.22 -262.42 C-9.35 -267.5, -7.51 -274.26, -1.77 -288.8 M-13.24 -261.13 C-9.41 -273.08, -6.74 -283.16, -2.44 -290.71" stroke="#000000" stroke-width="1" fill="none"></path></g></g><g stroke-linecap="round"><g transform="translate(910.5 787.390625) rotate(0 180 -0.5)"><path d="M-0.6 -0.25 C59.53 -0.21, 300.89 -0.7, 361.17 -0.91 M1.28 -1.42 C61.32 -1.07, 300.91 0.52, 360.84 0.67" stroke="#000000" stroke-width="1" fill="none"></path></g><g transform="translate(910.5 787.390625) rotate(0 180 -0.5)"><path d="M332.19 12.75 C342.25 9.35, 350.64 5.74, 362.37 1.91 M333.48 11.27 C342.86 6.41, 354.09 3.75, 360.47 1.16" stroke="#000000" stroke-width="1" fill="none"></path></g><g transform="translate(910.5 787.390625) rotate(0 180 -0.5)"><path d="M332.29 -7.77 C342.12 -4.33, 350.48 -1.1, 362.37 1.91 M333.58 -9.25 C342.91 -6.07, 354.1 -0.67, 360.47 1.16" stroke="#000000" stroke-width="1" fill="none"></path></g></g><g stroke-linecap="round"><g transform="translate(971.5 708.390625) rotate(0 0.5 40)"><path d="M-0.25 1.17 C0.13 14.79, 0.97 67.78, 1.09 81.07 M1.83 0.74 C2.15 14.1, 0.58 66.46, 0.19 79.51" stroke="#1864ab" stroke-width="1" fill="none"></path></g></g><g transform="translate(964.5 789.390625) rotate(0 7 12.5)"><text x="0" y="18" font-family="Virgil, Segoe UI Emoji" font-size="20px" fill="#1864ab" text-anchor="start" style="white-space: pre;" direction="ltr">a</text></g><g transform="translate(1139.5 796.390625) rotate(0 5.5 12.5)"><text x="0" y="18" font-family="Virgil, Segoe UI Emoji" font-size="20px" fill="#1864ab" text-anchor="start" style="white-space: pre;" direction="ltr">b</text></g><g stroke-linecap="round"><g transform="translate(1146.5 643.390625) rotate(0 -1 70)"><path d="M1.07 -0.52 C0.7 22.95, -0.68 117.31, -1.07 140.92 M0.18 1.82 C-0.38 24.96, -1.23 116.36, -1.53 139.28" stroke="#1864ab" stroke-width="1" fill="none"></path></g></g><g transform="translate(1296.5 788.390625) rotate(0 6 12.5)"><text x="0" y="18" font-family="Virgil, Segoe UI Emoji" font-size="20px" fill="#000000" text-anchor="start" style="white-space: pre;" direction="ltr">x</text></g><g transform="translate(917.5 536.390625) rotate(0 5 12.5)"><text x="0" y="18" font-family="Virgil, Segoe UI Emoji" font-size="20px" fill="#000000" text-anchor="start" style="white-space: pre;" direction="ltr">y</text></g><g transform="translate(1342.5 563.390625) rotate(0 5.5 12.5)"><text x="0" y="18" font-family="Virgil, Segoe UI Emoji" font-size="20px" fill="#e67700" text-anchor="start" style="white-space: pre;" direction="ltr">f</text></g><g stroke-linecap="round"><g transform="translate(967.5 782.390625) rotate(0 90 -70)" fill-rule="evenodd"><path d="M6.5 -108.3 C6.5 -108.3, 6.5 -108.3, 6.5 -108.3 M6.5 -108.3 C6.5 -108.3, 6.5 -108.3, 6.5 -108.3 M4.77 -98.53 C7.49 -100.51, 10.65 -105.53, 14.51 -114.57 M3.65 -98.05 C8.7 -104.04, 14.31 -109.43, 16.56 -112.59 M1.25 -92.41 C11.01 -101.71, 16.6 -111.52, 24.9 -114.15 M2.87 -90.8 C6.62 -97.14, 11.39 -103.33, 22.48 -114.84 M3.74 -86.79 C11.5 -92.61, 17.24 -101.18, 31.04 -117.07 M2.16 -84.78 C13.22 -97.51, 24.11 -108.69, 31.51 -117.33 M3.34 -78.94 C12.3 -92.08, 26.17 -106.33, 39.25 -119.76 M0.83 -78.81 C16.76 -94.45, 30.03 -111.73, 38.18 -120.66 M-1.53 -67.89 C8.94 -83.65, 21.81 -95.49, 45.46 -124.8 M-0.4 -70.45 C17.41 -91.3, 35.04 -111.6, 45.3 -124.1 M-0.57 -61.58 C21.29 -85.57, 41.37 -111.46, 55.15 -126.75 M-0.73 -62.16 C11.08 -77.84, 24.46 -93.07, 54 -126.47 M0.49 -57.66 C13.93 -71.49, 27.57 -89.63, 57.38 -123.79 M-1.15 -57.26 C13.54 -72.79, 26.17 -88.96, 57.76 -124.89 M1.11 -51.43 C15.01 -71.52, 31.01 -87.75, 67.24 -127.68 M-1.15 -50.79 C17.68 -71.73, 35.59 -92.02, 64.98 -127.72 M1.2 -45.44 C17.65 -67.86, 36.29 -89.2, 72.71 -130.48 M-1.4 -46.31 C25.91 -75.19, 50.21 -105.51, 71.88 -128.46 M1.13 -38.87 C24.85 -66.35, 47.44 -94.85, 79.78 -133.03 M0.31 -40.27 C27.9 -72.18, 55.05 -103.35, 79.69 -131.19 M0.35 -32.4 C30.21 -69.99, 63.09 -103.89, 87.15 -133.3 M-0.22 -33.95 C22.24 -60.53, 46.03 -86.42, 85.4 -132.03 M-0.04 -29.09 C19.15 -49.85, 37.96 -70.54, 95.51 -133.76 M1.01 -27.44 C27.82 -56.75, 52.06 -86.12, 93.09 -135.55 M-1.25 -19.75 C22.78 -45.43, 45.62 -73.57, 104.1 -140.03 M0.3 -22 C33.78 -61.95, 69.08 -100.02, 102.62 -140.52 M-0.91 -15.6 C37.06 -58.81, 76.01 -101.5, 108.2 -143.18 M0.22 -15.84 C22.66 -43.79, 46.88 -70.09, 109.08 -141.21 M-1.72 -8.81 C33.46 -44.02, 63.59 -82.01, 114.81 -143.7 M-0.99 -9.73 C41.42 -57.3, 81.11 -105.14, 116.62 -142.52 M-1.57 -5.23 C47.53 -54.25, 92.5 -108.39, 124.12 -145.35 M0.55 -2.75 C34.03 -42.15, 67.96 -81.76, 123.93 -144.78 M3.17 1.56 C45.74 -49.31, 89.25 -102.17, 129.46 -144.97 M1.08 0.59 C28.44 -29.81, 55.19 -60.84, 128.31 -144.69 M6.85 2.34 C42.46 -39.72, 77 -77.38, 135.15 -145.71 M6.48 1.31 C49.28 -47.3, 91.8 -96.23, 133.49 -145.59 M12.65 1.65 C49.28 -43.67, 88.07 -87.22, 137.96 -146.8 M10.51 2.43 C38.93 -28.79, 67.2 -60.56, 139.24 -146.34 M15.74 3.17 C56.66 -42.49, 93.03 -88.17, 148.24 -148 M15.93 3.15 C41.73 -27.15, 68.01 -58.99, 146.52 -146.74 M22.58 4.54 C62.97 -49.72, 108.29 -100.47, 152.01 -148.69 M19.91 2.69 C62.14 -44.3, 104.34 -93.07, 151.65 -147.77 M27.59 3.28 C75.74 -57.99, 129.73 -117.49, 158.13 -146 M24.78 3.13 C60.25 -32.78, 93.97 -71.65, 155.52 -146.74 M32.41 3.17 C76.32 -44.16, 120.21 -94.58, 162.35 -144.21 M31.33 4.69 C81.47 -54.53, 129.43 -111.22, 161.73 -145.75 M33.4 5.12 C66.88 -32.6, 96.87 -66.37, 166.64 -148.23 M34.28 5.56 C65.76 -27.73, 95.34 -62.06, 167.82 -146.45 M39.99 5.47 C77.95 -37.8, 118.08 -81.43, 173.26 -147.82 M39.25 5.34 C75.72 -33.37, 109.8 -73.82, 172.23 -146.48 M45.17 5.98 C95.47 -49.05, 141.84 -108.31, 176.37 -142.66 M45.94 5.43 C95.47 -50.66, 144.82 -106.47, 176 -144.8 M50.9 8.2 C81.24 -30, 109.16 -64.36, 179.47 -142.79 M49.41 6.95 C89.05 -35.65, 126.29 -79.78, 180.79 -142.77 M52.4 8.23 C87.09 -31.7, 118.14 -67.79, 182.81 -140.95 M55.1 8.08 C102.06 -45.49, 146.85 -100.12, 182.59 -141 M61.13 7.2 C108.49 -47.61, 157.05 -103.08, 185.08 -137.04 M58.41 7.55 C91.43 -29.06, 122.86 -65.02, 186.05 -137.42 M65.57 9.08 C91.57 -23.96, 120.12 -53.8, 189.51 -133.99 M63.4 7.47 C108.7 -41.24, 152.23 -91.95, 186.66 -134.11 M70.37 7.14 C112.79 -44.52, 161.27 -96.82, 191.87 -131.6 M70.09 8.58 C117.41 -46.88, 164.5 -100.55, 190.73 -130.13 M72.42 9.96 C108.56 -33.1, 146.26 -71.72, 193.11 -125.17 M74.51 9.34 C107.45 -32.25, 141.93 -71, 192.13 -125.27 M76.73 11.67 C106.43 -19.9, 131.91 -49.76, 193.92 -122.37 M78.72 9.03 C123.8 -42.14, 169.35 -93.79, 192.89 -122 M83.76 10.24 C113.39 -23.27, 140.7 -56.24, 192.72 -118.88 M84.12 10.97 C113.96 -25.32, 143.01 -59.93, 195.29 -118.08 M90.03 9.38 C123.73 -29.61, 157.87 -69.99, 197.64 -112.78 M88.18 11.44 C132.26 -38.97, 175.52 -88.66, 195.83 -112.11 M95.44 12.95 C128.54 -29.7, 163.18 -70.49, 198.46 -109.87 M93.81 10.89 C129.05 -30.18, 165.4 -70.92, 197.34 -107.86 M98.52 11.78 C128.26 -25.73, 159.5 -62.19, 199.89 -103.61 M98.68 11.86 C120.73 -11.51, 140.58 -36.71, 198.2 -103.27 M103.72 14.09 C127.98 -13.32, 151.84 -41.81, 198.88 -97.93 M102.54 12.19 C131.36 -20.21, 158.64 -53.8, 197.84 -98.37 M106.12 11.33 C140.33 -27.67, 177.74 -68.14, 200.56 -93.68 M108.01 13.89 C133.07 -16.26, 158.89 -44.57, 200.6 -92.74 M114.59 12.58 C134.01 -10.06, 151.12 -30.45, 198.23 -85.92 M111.85 12.46 C136.67 -14.77, 161.74 -44.31, 199.94 -87.88 M114.55 16.17 C141.86 -15.18, 169.64 -46.53, 197.97 -79.12 M115.69 15.41 C139.64 -13.8, 165.83 -41.95, 198.95 -81.5 M122.44 16.28 C136.25 -2.42, 155.31 -20.92, 199.2 -73.75 M122.62 13.85 C139.12 -4.22, 154.71 -22.17, 201.13 -75.11 M128.5 15.62 C153 -16.11, 179.71 -42.66, 200.1 -69.15 M128.06 14.05 C144.56 -4.56, 161.58 -23.73, 199.75 -70.02 M132.01 15.25 C144.84 0.21, 158.25 -17.06, 200.16 -64.41 M132.99 14.27 C155.77 -11.96, 176.95 -38.77, 200.51 -63.25 M138.5 15.22 C153.78 -3.28, 170.15 -23.78, 197.44 -57.76 M139.27 14.27 C155.41 -6.63, 173.39 -26.79, 198.89 -55.96 M144.5 12.46 C162.73 -9.13, 180.09 -30.31, 195.95 -47.67 M144.43 14.18 C158.69 -1.86, 171.59 -19.38, 197.53 -47.67 M150.05 13.64 C162.68 -3.1, 175.43 -16.72, 197.47 -39.28 M150.28 12.26 C166.07 -4.88, 179.66 -21.46, 196.18 -39.7 M158.77 9.83 C167.06 -2.33, 175.17 -13.1, 193.03 -32.92 M157.01 10.54 C171.78 -6.4, 185.94 -22, 193.18 -30.8 M165.75 10.06 C174.54 -1.76, 185.42 -12.89, 192.01 -24.11 M165.14 9.29 C172.36 -0.8, 179.71 -9.43, 194.68 -24.14 M170.19 6.75 C174.31 5.35, 177.79 0.3, 185.75 -7.03 M170.23 9.4 C176.04 2.62, 180.37 -4.32, 184.25 -7.92" stroke="#4c6ef5" stroke-width="0.5" fill="none"></path><path d="M0.74 1.11 C0.58 -12.05, -3.78 -58.61, -0.06 -78.03 C3.65 -97.46, -6.79 -104.51, 23.05 -115.42 C52.9 -126.34, 153.82 -163.43, 179.01 -143.51 C204.21 -123.59, 204.12 -19.95, 174.21 4.07 C144.3 28.08, 28.76 1.1, -0.45 0.59 M-0.33 0.64 C-0.74 -12.4, -4.91 -56.83, -1.05 -76.52 C2.82 -96.2, -7.13 -106.44, 22.84 -117.46 C52.8 -128.49, 153.22 -162.48, 178.74 -142.67 C204.27 -122.87, 205.65 -22.4, 175.98 1.36 C146.31 25.11, 30.21 0.05, 0.73 -0.14" stroke="transparent" stroke-width="1" fill="none"></path></g></g><g stroke-linecap="round"><g transform="translate(972.5 783.390625) rotate(0 9.5 -36)"><path d="M1.11 -0.06 C0.61 -12.68, -5.45 -62.29, -2.03 -74.95 C1.38 -87.6, 17.82 -89.01, 21.58 -75.99 C25.33 -62.96, 20.41 -10.05, 20.49 3.21 M0.23 -1.14 C-0.51 -14.14, -6.48 -64.18, -3 -76.52 C0.48 -88.86, 17.2 -88.59, 21.11 -75.19 C25.02 -61.78, 20.46 -9.25, 20.47 3.89" stroke="#5c940d" stroke-width="1" fill="none"></path></g></g><g stroke-linecap="round"><g transform="translate(992.5 786.390625) rotate(0 11.5 -57.5)"><path d="M-0.06 -0.03 C-0.01 -19.79, -2.63 -97.85, 1.05 -117.42 C4.73 -137, 18.65 -137.76, 22.01 -117.51 C25.37 -97.26, 21.28 -16.12, 21.21 4.07 M-1.56 -1.1 C-1.64 -20.7, -3.67 -100.02, 0.66 -119.24 C4.98 -138.47, 20.99 -136.68, 24.39 -116.46 C27.79 -96.24, 21.18 -18.05, 21.04 2.07" stroke="#5c940d" stroke-width="1" fill="none"></path></g></g><g stroke-linecap="round"><g transform="translate(1013.5 785.390625) rotate(0 14 -65.5)"><path d="M-0.03 1.05 C0.38 -20.6, -1.01 -107.85, 3.58 -129.99 C8.16 -152.13, 23.74 -153.38, 27.49 -131.79 C31.24 -110.2, 26.38 -22.24, 26.07 -0.45 M-1.51 0.56 C-1.3 -20.97, -1.73 -107.06, 2.93 -128.97 C7.59 -150.88, 23.08 -152.46, 26.46 -130.89 C29.84 -109.33, 23.55 -21.2, 23.21 0.42" stroke="#5c940d" stroke-width="1" fill="none"></path></g></g><g stroke-linecap="round"><g transform="translate(1042.3475476214662 779.4245912511833) rotate(0 14 -65.5)"><path d="M1.05 0.58 C1.4 -21, -2.35 -107.76, 2.01 -129.51 C6.37 -151.26, 23.45 -151.62, 27.21 -129.93 C30.96 -108.25, 25.09 -21.23, 24.55 0.59 M0.14 -0.17 C0.86 -21.58, -0.72 -106.32, 4.21 -128.24 C9.13 -150.17, 26.29 -152.81, 29.68 -131.72 C33.08 -110.62, 25.24 -23.32, 24.56 -1.66" stroke="#5c940d" stroke-width="1" fill="none"></path></g></g><g stroke-linecap="round"><g transform="translate(1066.3475476214662 776.4245912511833) rotate(0 14 -65.5)"><path d="M0.58 -0.99 C1 -22.79, -2.26 -108.05, 2.49 -129.79 C7.24 -151.54, 25.22 -152.91, 29.07 -131.45 C32.92 -109.99, 26.1 -23.11, 25.59 -1.02 M-0.58 1.11 C-0.36 -20.04, -3.63 -106.76, 1.27 -128.67 C6.18 -150.58, 24.72 -151.74, 28.86 -130.37 C33 -109, 26.78 -21.92, 26.14 -0.45" stroke="#5c940d" stroke-width="1" fill="none"></path></g></g><g stroke-linecap="round"><g transform="translate(1093.3475476214662 775.4245912511833) rotate(0 14 -65.5)"><path d="M-0.99 -0.51 C-0.79 -21.93, -2.55 -106.28, 2.21 -127.93 C6.96 -149.58, 23.92 -151.9, 27.55 -130.41 C31.18 -108.92, 24.22 -20.88, 23.98 0.99 M0.7 -1.82 C1.18 -23.6, 0.19 -107.73, 4.5 -129.5 C8.81 -151.27, 23.35 -153.85, 26.55 -132.45 C29.75 -111.04, 23.91 -23.38, 23.69 -1.04" stroke="#5c940d" stroke-width="1" fill="none"></path></g></g><g stroke-linecap="round"><g transform="translate(1121.3475476214662 773.4245912511833) rotate(0 14 -65.5)"><path d="M-0.51 -0.79 C0.07 -22.2, -0.78 -107.58, 4.07 -129.45 C8.92 -151.32, 24.93 -153.78, 28.59 -132.02 C32.24 -110.26, 26.46 -21.09, 25.99 1.1 M1.42 1.41 C1.89 -19.75, -0.77 -106.04, 3.68 -128.15 C8.13 -150.25, 24.28 -152.45, 28.13 -131.24 C31.98 -110.03, 27.33 -22.48, 26.76 -0.88" stroke="#5c940d" stroke-width="1" fill="none"></path></g></g><g stroke-linecap="round"><g transform="translate(1148.5 642.390625) rotate(0 -13.5 74.5)"><path d="M-0.79 1.07 C-4.87 1.75, -20.91 -21.23, -25.45 3.59 C-29.99 28.41, -27.95 125.62, -28.02 149.99 M0.99 0.58 C-3.2 0.95, -22.19 -22.82, -26.63 1.77 C-31.07 26.37, -25.31 123.86, -25.66 148.17" stroke="#a61e4d" stroke-width="1" fill="none"></path></g></g><g stroke-linecap="round"><g transform="translate(1120.5 643.390625) rotate(0 -13 75.5)"><path d="M1.07 -0.45 C-3.08 -0.32, -21.23 -25.45, -25.41 -0.02 C-29.59 25.4, -24.21 126.75, -24.01 152.1 M0.17 -1.73 C-4.05 -1.42, -21.98 -24.37, -26.05 0.98 C-30.12 26.32, -24.67 125.48, -24.25 150.34" stroke="#a61e4d" stroke-width="1" fill="none"></path></g></g><g stroke-linecap="round"><g transform="translate(1100.8370105117726 641.3809804758057) rotate(0 -13 75.5)"><path d="M-0.45 0.59 C-4.82 0.74, -23.11 -23.21, -27.02 1.99 C-30.93 27.19, -24.42 127.16, -23.9 151.79 M1.52 -0.15 C-2.42 0.2, -20.58 -24.61, -24.85 0.39 C-29.11 25.39, -23.77 124.88, -24.09 149.87" stroke="#a61e4d" stroke-width="1" fill="none"></path></g></g><g stroke-linecap="round"><g transform="translate(1078.8370105117726 645.3809804758057) rotate(0 -13 75.5)"><path d="M0.59 -1.02 C-3.76 -0.6, -20.88 -23.42, -25.01 2.1 C-29.14 27.62, -24.01 127.45, -24.21 152.1 M-0.56 1.06 C-5.07 1.21, -21.44 -24.32, -25.44 0.56 C-29.43 25.44, -24.37 125.33, -24.56 150.33" stroke="#a61e4d" stroke-width="1" fill="none"></path></g></g><g stroke-linecap="round"><g transform="translate(1048.8370105117724 647.3809804758057) rotate(0 -13 75.5)"><path d="M-1.02 0.99 C-5.1 1.19, -21.09 -23.01, -24.9 1.79 C-28.71 26.6, -23.72 125.13, -23.9 149.81 M0.64 0.47 C-3.46 0.28, -21.15 -24.92, -25.27 0.09 C-29.39 25.09, -23.92 125.45, -24.09 150.5" stroke="#a61e4d" stroke-width="1" fill="none"></path></g></g><g stroke-linecap="round"><g transform="translate(1018.8370105117725 655.3809804758057) rotate(0 -13 67)"><path d="M0.99 1.1 C-3.31 1.62, -20.68 -19.88, -25.21 2.1 C-29.74 24.08, -26.04 110.85, -26.19 132.97 M0.05 0.63 C-4.39 0.93, -21.74 -21.64, -25.74 0.55 C-29.74 22.74, -23.81 111.72, -23.93 133.75" stroke="#a61e4d" stroke-width="1" fill="none"></path></g></g><g stroke-linecap="round"><g transform="translate(994.8370105117726 670.3809804758057) rotate(0 -13 60.5)"><path d="M1.1 0.79 C-2.88 0.6, -20.72 -20.04, -24.9 -0.19 C-29.09 19.65, -24.49 99.64, -24.03 119.88 M0.22 0.16 C-3.73 -0.02, -21.63 -19.36, -25.28 0.72 C-28.92 20.79, -22.31 100.32, -21.67 120.6" stroke="#a61e4d" stroke-width="1" fill="none"></path></g></g></svg>