<svg version="1.1" xmlns="http://www.w3.org/2000/svg" viewBox="0 0 10020 936.765625" width="10020" height="936.765625">
  <!-- svg-source:excalidraw -->
  
  <defs>
    <style>
      @font-face {
        font-family: "Virgil";
        src: url("https://excalidraw.com/Virgil.woff2");
      }
      @font-face {
        font-family: "Cascadia";
        src: url("https://excalidraw.com/Cascadia.woff2");
      }
    </style>
  </defs>
  <rect x="0" y="0" width="10020" height="936.765625" fill="#fff0"></rect><g stroke-linecap="round" transform="translate(10 10) rotate(0 5000 0.5)"><path d="M-0.52 -0.26 C3022.65 -30.2, 6044.59 -29.2, 9999.32 0.22 M0.38 -0.31 C3948.03 -0.44, 7895.41 0.2, 9999.95 0.08 M10000.08 -0.06 C10000.09 0.27, 10000.05 0.48, 10000.09 0.92 M9999.97 0.01 C9999.95 0.33, 9999.98 0.72, 10000 0.99 M10000.22 1.51 C7095.77 35.76, 4193.15 34.95, -0.25 0.75 M10000.01 1.13 C7827.97 2.74, 5656.23 3.35, -0.33 0.84 M-0.04 1.01 C0 0.63, -0.06 0.15, 0.05 -0.03 M-0.04 0.95 C-0.04 0.73, -0.03 0.59, -0.05 -0.02" stroke="transparent" stroke-width="1" fill="none"></path></g><g stroke-linecap="round"><g transform="translate(713 574.765625) rotate(0 117 176)"><path d="M-0.03 -0.33 C-21.62 9.81, -104.78 38.87, -129.16 60.31 C-153.54 81.74, -167.01 100.49, -146.31 128.3 C-125.61 156.1, -22.87 198.89, -4.98 227.15 C12.9 255.41, -38.94 277.12, -39.02 297.84 C-39.09 318.56, -44.85 342.59, -5.44 351.48 C33.97 360.37, 159.85 360.2, 197.45 351.18 C235.06 342.15, 189.85 315.38, 220.2 297.34 C250.54 279.3, 358.65 267.33, 379.52 242.94 C400.4 218.54, 380.17 170.13, 345.46 150.96 C310.76 131.79, 202.36 143.33, 171.27 127.92 C140.19 112.51, 172.9 78.34, 158.96 58.5 C145.01 38.66, 114.05 18.7, 87.61 8.87 C61.17 -0.96, 14.76 1.13, 0.31 -0.49 M-1.51 -1.54 C-23.21 8.26, -105.38 36.55, -129.67 58.35 C-153.96 80.14, -168.06 100.91, -147.24 129.24 C-126.42 157.57, -22.52 200.27, -4.73 228.33 C13.06 256.39, -40.57 276.71, -40.5 297.62 C-40.42 318.54, -44.06 345.02, -4.25 353.82 C35.55 362.63, 160.99 359.98, 198.33 350.45 C235.67 340.92, 189.31 314.29, 219.8 296.66 C250.29 279.02, 360.24 268.5, 381.26 244.66 C402.29 220.82, 380.96 173.44, 345.95 153.62 C310.94 133.8, 202.53 141.6, 171.21 125.72 C139.89 109.84, 171.89 77.88, 158.05 58.34 C144.21 38.81, 114.54 18.38, 88.16 8.5 C61.78 -1.38, 14.18 0.18, -0.24 -0.94" stroke="#d9480f" stroke-width="1" fill="none"></path></g></g><g transform="translate(1078 626.765625) rotate(0 7.5 12.5)"><text x="0" y="18" font-family="Virgil, Segoe UI Emoji" font-size="20px" fill="#d9480f" text-anchor="start" style="white-space: pre;" direction="ltr">R</text></g><g transform="translate(1095 610.765625) rotate(0 7.5 12.5)"><text x="0" y="18" font-family="Virgil, Segoe UI Emoji" font-size="20px" fill="#d9480f" text-anchor="start" style="white-space: pre;" direction="ltr">2</text></g></svg>