<svg version="1.1" xmlns="http://www.w3.org/2000/svg" viewBox="0 0 10020 747.25" width="10020" height="747.25">
  <!-- svg-source:excalidraw -->
  
  <defs>
    <style>
      @font-face {
        font-family: "Virgil";
        src: url("https://excalidraw.com/Virgil.woff2");
      }
      @font-face {
        font-family: "Cascadia";
        src: url("https://excalidraw.com/Cascadia.woff2");
      }
    </style>
  </defs>
  <rect x="0" y="0" width="10020" height="747.25" fill="#fff0"></rect><g stroke-linecap="round" transform="translate(10 10) rotate(0 5000 0.5)"><path d="M-0.52 -0.26 C3022.65 -30.2, 6044.59 -29.2, 9999.32 0.22 M0.38 -0.31 C3948.03 -0.44, 7895.41 0.2, 9999.95 0.08 M10000.08 -0.06 C10000.09 0.27, 10000.05 0.48, 10000.09 0.92 M9999.97 0.01 C9999.95 0.33, 9999.98 0.72, 10000 0.99 M10000.22 1.51 C7095.77 35.76, 4193.15 34.95, -0.25 0.75 M10000.01 1.13 C7827.97 2.74, 5656.23 3.35, -0.33 0.84 M-0.04 1.01 C0 0.63, -0.06 0.15, 0.05 -0.03 M-0.04 0.95 C-0.04 0.73, -0.03 0.59, -0.05 -0.02" stroke="transparent" stroke-width="1" fill="none"></path></g><g stroke-linecap="round"><g transform="translate(579 737.25) rotate(0 -2.5 -85.5)"><path d="M-0.12 -0.32 C-1 -28.93, -4.44 -143.04, -5.36 -171.64 M-1.64 -1.53 C-2.7 -29.99, -5.64 -142.18, -6.5 -170.44" stroke="#000" stroke-width="1" fill="none"></path></g><g transform="translate(579 737.25) rotate(0 -2.5 -85.5)"><path d="M4.02 -143.15 C0.26 -151.84, -3.41 -157.81, -5.34 -170.05 M4.57 -142.38 C1.45 -150.39, -2.33 -159.06, -6.46 -170.21" stroke="#000" stroke-width="1" fill="none"></path></g><g transform="translate(579 737.25) rotate(0 -2.5 -85.5)"><path d="M-16.5 -142.57 C-14.26 -151.41, -11.92 -157.55, -5.34 -170.05 M-15.95 -141.8 C-13.1 -150.01, -10.9 -158.85, -6.46 -170.21" stroke="#000" stroke-width="1" fill="none"></path></g></g><g stroke-linecap="round"><g transform="translate(542 711.25) rotate(356.17724477945916 128 3.5)"><path d="M1.17 -0.87 C43.78 0.32, 213.11 5.62, 255.51 6.78 M0.32 1.3 C42.75 2.7, 211.92 7.26, 254.31 8.21" stroke="#000" stroke-width="1" fill="none"></path></g><g transform="translate(542 711.25) rotate(356.17724477945916 128 3.5)"><path d="M224.43 16.95 C233.6 14.13, 240.55 14.06, 255.34 7.44 M225.4 17.54 C237.89 14.81, 248.97 11.07, 254.75 8.09" stroke="#000" stroke-width="1" fill="none"></path></g><g transform="translate(542 711.25) rotate(356.17724477945916 128 3.5)"><path d="M224.94 -3.57 C233.9 -0.56, 240.71 5.18, 255.34 7.44 M225.91 -2.97 C238.29 2.32, 249.17 6.61, 254.75 8.09" stroke="#000" stroke-width="1" fill="none"></path></g></g><g stroke-linecap="round"><g transform="translate(664 670.25) rotate(0 52.5 -54.5)"><path d="M-1.07 0.8 C-4.37 -6.56, -22.65 -25.89, -20.93 -44.07 C-19.22 -62.26, -6.18 -95.33, 9.21 -108.32 C24.6 -121.31, 51.63 -124.19, 71.41 -122.01 C91.19 -119.84, 119.89 -107.66, 127.9 -95.27 C135.91 -82.88, 133.47 -65.47, 119.45 -47.67 C105.43 -29.86, 63.63 3.66, 43.78 11.55 C23.94 19.45, 7.88 1.49, 0.4 -0.3 M0.56 0.18 C-2.7 -7, -22.65 -24.16, -21.32 -42.57 C-19.99 -60.99, -6.89 -97.17, 8.55 -110.31 C24 -123.46, 51.63 -123.99, 71.35 -121.44 C91.08 -118.89, 118.7 -107.69, 126.9 -95.02 C135.1 -82.35, 134.33 -63.51, 120.57 -45.4 C106.8 -27.29, 64.48 6.2, 44.31 13.63 C24.15 21.07, 6.91 1.5, -0.41 -0.79" stroke="#000" stroke-width="1" fill="none"></path></g></g><g transform="translate(667 634.25) rotate(0 1 1.5)" stroke="none"><path fill="#000" d="M 1.99,-1.33 Q 1.99,-1.33 0.08,0.33 -1.83,1.99 -1.94,1.60 -2.05,1.21 -2.03,0.80 -2.01,0.40 -1.86,0.02 -1.72,-0.35 -1.45,-0.66 -1.19,-0.97 -0.84,-1.18 -0.50,-1.39 -0.10,-1.48 0.28,-1.57 0.69,-1.53 1.09,-1.48 1.46,-1.32 1.83,-1.15 2.13,-0.87 2.42,-0.59 2.62,-0.23 2.81,0.12 2.87,0.52 2.94,0.92 2.88,1.32 2.81,1.72 2.63,2.08 2.44,2.44 2.14,2.72 1.85,3.00 1.48,3.17 1.11,3.34 0.71,3.39 0.31,3.44 -0.08,3.35 -0.48,3.26 -0.83,3.06 -1.18,2.85 -1.44,2.54 -1.70,2.23 -1.86,1.85 -2.01,1.48 -2.03,1.07 -2.06,0.67 -1.95,0.27 -1.84,-0.11 -1.61,-0.44 -1.39,-0.78 -1.07,-1.03 -0.74,-1.28 -0.36,-1.41 0.02,-1.54 0.42,-1.54 0.83,-1.54 1.21,-1.41 1.60,-1.29 1.92,-1.04 2.25,-0.80 2.48,-0.46 2.71,-0.13 2.71,-0.13 2.71,-0.13 0.35,0.60 -1.99,1.33 -2.12,1.07 -2.25,0.81 -2.32,0.53 -2.38,0.25 -2.38,-0.03 -2.37,-0.32 -2.30,-0.60 -2.23,-0.88 -2.09,-1.14 -1.95,-1.39 -1.75,-1.60 -1.56,-1.82 -1.32,-1.98 -1.08,-2.14 -0.80,-2.24 -0.53,-2.34 -0.24,-2.37 0.03,-2.40 0.32,-2.36 0.61,-2.32 0.88,-2.21 1.15,-2.10 1.38,-1.94 1.62,-1.77 1.81,-1.55 1.99,-1.33 1.99,-1.33 L 1.99,-1.33 Z"></path></g><g transform="translate(762 588.25) rotate(0 -4 -0.5)" stroke="none"><path fill="#000" d="M 0,2.56 Q 0,2.56 -1.71,2.50 -3.42,2.44 -4.82,2.89 -6.22,3.34 -6.53,3.39 -6.84,3.44 -7.16,3.41 -7.47,3.38 -7.77,3.28 -8.07,3.18 -8.34,3.01 -8.60,2.84 -8.82,2.61 -9.04,2.38 -9.19,2.10 -9.35,1.83 -9.44,1.52 -9.52,1.22 -9.53,0.90 -9.54,0.58 -9.48,0.27 -9.41,-0.03 -9.27,-0.31 -9.14,-0.59 -8.93,-0.84 -8.73,-1.08 -8.48,-1.27 -8.22,-1.46 -7.93,-1.58 -7.64,-1.70 -8.53,-0.78 -9.43,0.14 -8.91,-0.98 -8.39,-2.12 -7.50,-2.71 -6.61,-3.29 -5.56,-3.92 -4.51,-4.54 -3.10,-4.60 -1.69,-4.67 -1.69,-4.53 -1.69,-4.39 -1.33,-4.37 -0.96,-4.36 -0.62,-4.26 -0.27,-4.15 0.04,-3.97 0.35,-3.79 0.61,-3.54 0.87,-3.28 1.07,-2.98 1.26,-2.67 1.38,-2.32 1.49,-1.98 1.52,-1.62 1.55,-1.25 1.49,-0.90 1.43,-0.54 1.29,-0.20 1.14,0.12 0.92,0.41 0.70,0.70 0.42,0.93 0.14,1.16 -0.18,1.31 -0.51,1.47 -0.86,1.54 -1.22,1.61 -1.64,-0.70 -2.06,-3.03 -1.59,-2.94 -1.12,-2.84 -0.71,-2.60 -0.29,-2.36 0.01,-2.00 0.33,-1.64 0.51,-1.20 0.70,-0.76 0.73,-0.28 0.76,0.18 0.64,0.65 0.52,1.11 0.26,1.51 0.00,1.91 -0.37,2.21 -0.74,2.50 -1.19,2.66 -1.64,2.82 -2.12,2.83 -2.60,2.84 -3.06,2.69 -3.51,2.55 -3.90,2.26 -4.28,1.98 -4.56,1.59 -4.83,1.20 -4.97,0.74 -5.10,0.28 -5.09,-0.19 -5.07,-0.67 -4.90,-1.11 -4.73,-1.56 -4.42,-1.93 -4.12,-2.30 -3.72,-2.55 -3.31,-2.81 -2.84,-2.92 -2.38,-3.03 -1.90,-2.98 -1.43,-2.94 -0.99,-2.74 -0.55,-2.55 -0.20,-2.23 0.14,-1.90 0.37,-1.49 0.61,-1.07 0.69,-0.60 0.78,-0.12 0.71,0.34 0.64,0.81 0.42,1.24 0.20,1.66 -0.13,2.00 -0.47,2.33 -0.90,2.54 -1.33,2.75 -1.81,2.81 -2.28,2.87 -2.28,2.87 -2.28,2.87 -3.70,-0.20 -5.11,-3.28 -3.40,-3.84 -1.69,-4.39 -1.33,-4.37 -0.96,-4.36 -0.62,-4.26 -0.27,-4.15 0.04,-3.97 0.35,-3.79 0.61,-3.54 0.87,-3.29 1.07,-2.98 1.26,-2.67 1.38,-2.32 1.49,-1.98 1.52,-1.62 1.55,-1.26 1.49,-0.90 1.43,-0.54 1.29,-0.20 1.14,0.12 0.92,0.41 0.70,0.70 0.42,0.93 0.14,1.16 -0.18,1.31 -0.51,1.47 -0.86,1.54 -1.22,1.61 -1.69,0.92 -2.16,0.22 -3.33,0.38 -4.51,0.55 -5.36,1.94 -6.22,3.34 -6.53,3.39 -6.84,3.44 -7.16,3.41 -7.47,3.38 -7.77,3.28 -8.07,3.18 -8.34,3.01 -8.60,2.84 -8.82,2.61 -9.04,2.38 -9.19,2.10 -9.35,1.83 -9.44,1.52 -9.52,1.22 -9.53,0.90 -9.54,0.58 -9.48,0.27 -9.41,-0.02 -9.27,-0.31 -9.14,-0.59 -8.93,-0.84 -8.73,-1.08 -8.48,-1.27 -8.22,-1.46 -7.93,-1.58 -7.64,-1.70 -6.91,-1.78 -6.17,-1.86 -4.82,-2.15 -3.47,-2.44 -1.73,-2.50 0,-2.56 0.30,-2.53 0.61,-2.49 0.90,-2.38 1.19,-2.27 1.44,-2.09 1.70,-1.92 1.90,-1.69 2.11,-1.45 2.25,-1.18 2.40,-0.91 2.47,-0.61 2.55,-0.30 2.55,0.00 2.55,0.30 2.47,0.61 2.40,0.91 2.25,1.18 2.11,1.45 1.90,1.69 1.70,1.92 1.44,2.09 1.19,2.27 0.90,2.38 0.61,2.49 0.30,2.53 -0.00,2.56 -0.00,2.56 L 0,2.56 Z"></path></g><g stroke-linecap="round"><g transform="translate(669 631.25) rotate(0 42 -21)"><path d="M0.84 -0.47 C14.69 -7.61, 69.83 -35.62, 83.73 -42.72 M-0.18 -1.77 C13.44 -8.77, 68.67 -34.81, 82.64 -41.56" stroke="#1864ab" stroke-width="1" fill="none"></path></g></g><g transform="translate(670 588.25) rotate(0 7 12.5)"><text x="0" y="18" font-family="Virgil, Segoe UI Emoji" font-size="20px" fill="#d9480f" text-anchor="start" style="white-space: pre;" direction="ltr">a</text></g><g transform="translate(736 563.25) rotate(0 5.5 12.5)"><text x="0" y="18" font-family="Virgil, Segoe UI Emoji" font-size="20px" fill="#d9480f" text-anchor="start" style="white-space: pre;" direction="ltr">b</text></g><g stroke-linecap="round"><g transform="translate(669 634.25) rotate(0 26.5 6.5)"><path d="M-0.09 0.73 C8.53 3, 43.04 10.82, 51.96 12.94 M-1.59 0.07 C7.36 2.59, 45.04 12.56, 54.12 14.45" stroke="#d9480f" stroke-width="1" fill="none"></path></g></g><g stroke-linecap="round"><g transform="translate(698 640.25) rotate(0 3 -11)"><path d="M0.74 1.16 C1.91 -1.22, 6.65 -10.59, 6.6 -14.45 C6.55 -18.3, 1.69 -20.63, 0.42 -21.95 M-0.33 0.73 C0.77 -1.48, 5.94 -9.59, 5.97 -13.14 C6.01 -16.7, 1.09 -19.22, -0.12 -20.61" stroke="#d9480f" stroke-width="1" fill="none"></path></g></g><g transform="translate(674 639.75) rotate(0 37 12.5)"><text x="0" y="18" font-family="Virgil, Segoe UI Emoji" font-size="20px" fill="#d9480f" text-anchor="start" style="white-space: pre;" direction="ltr">B</text></g></svg>