<svg version="1.1" xmlns="http://www.w3.org/2000/svg" viewBox="0 0 10020 867.765625" width="10020" height="867.765625">
  <!-- svg-source:excalidraw -->
  
  <defs>
    <style>
      @font-face {
        font-family: "Virgil";
        src: url("https://excalidraw.com/Virgil.woff2");
      }
      @font-face {
        font-family: "Cascadia";
        src: url("https://excalidraw.com/Cascadia.woff2");
      }
    </style>
  </defs>
  <rect x="0" y="0" width="10020" height="867.765625" fill="#fff0"></rect><g stroke-linecap="round" transform="translate(10 10) rotate(0 5000 0.5)"><path d="M-0.52 -0.26 C3022.65 -30.2, 6044.59 -29.2, 9999.32 0.22 M0.38 -0.31 C3948.03 -0.44, 7895.41 0.2, 9999.95 0.08 M10000.08 -0.06 C10000.09 0.27, 10000.05 0.48, 10000.09 0.92 M9999.97 0.01 C9999.95 0.33, 9999.98 0.72, 10000 0.99 M10000.22 1.51 C7095.77 35.76, 4193.15 34.95, -0.25 0.75 M10000.01 1.13 C7827.97 2.74, 5656.23 3.35, -0.33 0.84 M-0.04 1.01 C0 0.63, -0.06 0.15, 0.05 -0.03 M-0.04 0.95 C-0.04 0.73, -0.03 0.59, -0.05 -0.02" stroke="transparent" stroke-width="1" fill="none"></path></g><g stroke-linecap="round"><g transform="translate(644 789.765625) rotate(0 -2.5 -120)"><path d="M0.21 -0.63 C-0.43 -40.59, -3.46 -200.11, -4.27 -239.9 M-1.14 1.66 C-1.83 -38.08, -4.15 -197.81, -4.84 -238.31" stroke="#000000" stroke-width="1" fill="none"></path></g></g><g stroke-linecap="round"><g transform="translate(594 786.765625) rotate(0 0 -80)"><path d="M0.63 -0.98 C0.67 -27.38, -0.45 -132.2, -0.41 -158.88 M-0.5 1.12 C-0.59 -25.54, -1.75 -133.51, -1.58 -160.41" stroke="#1864ab" stroke-width="1" fill="none"></path></g></g><g transform="translate(590 625.765625) rotate(0 2.5 -0.5)" stroke="none"><path fill="#1864ab" d="M 1.16,-2.32 Q 1.16,-2.32 2.31,-1.76 3.47,-1.19 4.63,-0.23 5.80,0.73 5.65,0.84 5.50,0.95 5.75,1.18 6.00,1.40 6.19,1.67 6.38,1.94 6.50,2.25 6.61,2.56 6.66,2.90 6.70,3.23 6.66,3.56 6.62,3.89 6.50,4.20 6.38,4.51 6.20,4.79 6.01,5.06 5.76,5.28 5.51,5.51 5.22,5.66 4.92,5.82 4.60,5.90 4.27,5.98 3.94,5.98 3.61,5.98 3.28,5.90 2.96,5.82 2.66,5.67 2.37,5.52 1.40,4.97 0.43,4.42 -0.43,3.66 -1.30,2.90 -1.65,1.40 -2.00,-0.09 -2.04,-1.52 -2.09,-2.94 -1.60,-4.28 -1.11,-5.61 0.36,-6.51 1.83,-7.42 3.16,-7.34 4.49,-7.26 5.42,-6.62 6.35,-5.99 7.02,-4.58 7.69,-3.16 7.52,-1.79 7.35,-0.43 3.85,1.65 0.35,3.74 -0.08,3.45 -0.52,3.16 -0.84,2.74 -1.16,2.32 -1.33,1.82 -1.50,1.32 -1.51,0.79 -1.51,0.26 -1.34,-0.23 -1.17,-0.73 -0.86,-1.15 -0.54,-1.57 -0.10,-1.87 0.32,-2.17 0.83,-2.31 1.34,-2.46 1.86,-2.43 2.39,-2.40 2.88,-2.21 3.37,-2.02 3.78,-1.68 4.18,-1.34 4.46,-0.89 4.73,-0.43 4.85,0.07 4.96,0.59 4.91,1.11 4.85,1.64 4.63,2.12 4.41,2.60 4.05,2.98 3.69,3.37 3.23,3.61 2.76,3.86 2.24,3.95 1.72,4.04 1.20,3.96 0.68,3.87 0.21,3.63 -0.25,3.38 -0.61,3.00 -0.98,2.62 -1.20,2.14 -1.43,1.66 -1.48,1.14 -1.54,0.61 -1.43,0.10 -1.32,-0.41 -1.05,-0.86 -0.78,-1.31 -0.38,-1.66 0.01,-2.00 0.50,-2.20 0.99,-2.40 1.52,-2.43 2.04,-2.46 2.55,-2.32 3.06,-2.18 3.06,-2.18 3.06,-2.18 2.60,-1.72 2.13,-1.25 3.12,-2.00 4.11,-2.74 3.82,-1.60 3.53,-0.45 4.51,0.25 5.49,0.95 5.75,1.17 6.00,1.40 6.19,1.67 6.38,1.94 6.50,2.25 6.61,2.56 6.66,2.90 6.70,3.23 6.66,3.56 6.62,3.89 6.50,4.20 6.39,4.51 6.20,4.79 6.01,5.06 5.76,5.28 5.51,5.51 5.22,5.66 4.92,5.82 4.60,5.90 4.28,5.98 3.94,5.98 3.61,5.98 3.28,5.90 2.96,5.82 2.67,5.67 2.37,5.52 1.74,4.50 1.12,3.49 -0.01,2.91 -1.16,2.32 -1.42,2.15 -1.68,1.98 -1.90,1.75 -2.11,1.52 -2.26,1.24 -2.41,0.97 -2.49,0.66 -2.57,0.36 -2.58,0.05 -2.59,-0.26 -2.52,-0.56 -2.45,-0.87 -2.31,-1.15 -2.17,-1.43 -1.96,-1.67 -1.76,-1.91 -1.51,-2.09 -1.25,-2.28 -0.96,-2.39 -0.67,-2.51 -0.36,-2.56 -0.05,-2.60 0.26,-2.57 0.57,-2.54 0.86,-2.43 1.16,-2.32 1.16,-2.32 L 1.16,-2.32 Z"></path></g><g stroke-linecap="round"><g transform="translate(592 623.765625) rotate(0 0 -37.5)"><path d="M-1.17 0.79 C-1.17 -11.64, -1.29 -62.23, -1 -74.76 M0.41 0.16 C0.87 -12.64, 1.24 -63.99, 1.19 -76.76" stroke="#1864ab" stroke-width="1" fill="none"></path></g></g><g transform="translate(538 690.765625) rotate(0 5.5 12.5)"><text x="0" y="18" font-family="Virgil, Segoe UI Emoji" font-size="20px" fill="#1864ab" text-anchor="start" style="white-space: pre;" direction="ltr">b</text></g><g transform="translate(554 588.765625) rotate(0 7 12.5)"><text x="0" y="18" font-family="Virgil, Segoe UI Emoji" font-size="20px" fill="#1864ab" text-anchor="start" style="white-space: pre;" direction="ltr">a</text></g><g transform="translate(661 614.765625) rotate(0 8.5 12.5)"><text x="0" y="18" font-family="Virgil, Segoe UI Emoji" font-size="20px" fill="#000000" text-anchor="start" style="white-space: pre;" direction="ltr">G</text></g><g transform="translate(643 790.765625) rotate(0 -1 -3.5)" stroke="none"><path fill="#000000" d="M -0.64,2.58 Q -0.64,2.58 -1.80,2.30 -2.96,2.02 -4.18,1.39 -5.40,0.75 -6.25,-0.50 -7.09,-1.76 -7.59,-3.07 -8.08,-4.37 -7.92,-5.92 -7.76,-7.47 -6.95,-8.35 -6.14,-9.24 -4.00,-10.02 -1.86,-10.80 -0.32,-10.93 1.21,-11.06 2.56,-10.55 3.91,-10.03 4.71,-9.05 5.51,-8.08 5.76,-6.88 6.01,-5.67 5.65,-2.89 5.28,-0.10 4.08,0.42 2.87,0.94 1.44,1.09 0.00,1.24 -1.41,1.27 -2.84,1.30 -4.24,0.92 -5.64,0.55 -6.73,-0.06 -7.82,-0.68 -7.98,-4.44 -8.15,-8.20 -7.80,-8.61 -7.46,-9.02 -7.00,-9.31 -6.54,-9.59 -6.02,-9.71 -5.49,-9.83 -4.96,-9.78 -4.42,-9.72 -3.93,-9.50 -3.44,-9.28 -3.05,-8.92 -2.65,-8.55 -2.40,-8.08 -2.14,-7.61 -2.05,-7.08 -1.95,-6.55 -2.04,-6.01 -2.12,-5.48 -2.36,-5.00 -2.61,-4.53 -3.00,-4.15 -3.38,-3.78 -3.87,-3.55 -4.36,-3.32 -4.89,-3.25 -5.42,-3.19 -5.95,-3.30 -6.48,-3.41 -6.94,-3.68 -7.41,-3.95 -7.76,-4.36 -8.11,-4.77 -8.32,-5.26 -8.52,-5.76 -8.55,-6.30 -8.59,-6.84 -8.45,-7.36 -8.31,-7.88 -8.02,-8.32 -7.72,-8.77 -7.29,-9.10 -6.87,-9.43 -6.36,-9.61 -5.85,-9.79 -5.31,-9.79 -4.78,-9.80 -4.26,-9.63 -3.75,-9.47 -3.32,-9.14 -2.89,-8.82 -2.58,-8.38 -2.28,-7.94 -2.13,-7.42 -1.98,-6.90 -2.00,-6.37 -2.02,-5.83 -2.22,-5.33 -2.41,-4.83 -2.41,-4.83 -2.41,-4.83 -2.60,-5.07 -2.79,-5.31 -1.07,-5.33 0.63,-5.34 1.71,-5.17 2.79,-5.01 2.05,-3.47 1.32,-1.94 0.28,-3.33 -0.74,-4.72 -1.81,-5.36 -2.88,-6.01 -2.25,-4.59 -1.63,-3.17 -0.49,-2.88 0.64,-2.58 0.94,-2.46 1.24,-2.35 1.50,-2.16 1.77,-1.98 1.98,-1.74 2.19,-1.50 2.34,-1.22 2.49,-0.93 2.56,-0.62 2.64,-0.31 2.64,0.00 2.64,0.32 2.56,0.64 2.48,0.95 2.33,1.23 2.18,1.51 1.97,1.75 1.75,1.99 1.49,2.17 1.22,2.36 0.92,2.47 0.62,2.58 0.30,2.62 -0.00,2.66 -0.32,2.62 -0.64,2.58 -0.64,2.58 L -0.64,2.58 Z"></path></g><g transform="translate(636 622.765625) rotate(0 6.5 -0.5)" stroke="none"><path fill="#000000" d="M 1.46,-2.20 Q 1.46,-2.20 2.32,-1.65 3.17,-1.11 4.54,-1.02 5.90,-0.92 6.58,-0.63 7.26,-0.33 7.60,-0.26 7.93,-0.18 8.24,-0.02 8.55,0.12 8.81,0.35 9.07,0.57 9.27,0.85 9.47,1.14 9.60,1.46 9.73,1.78 9.78,2.12 9.82,2.46 9.79,2.81 9.75,3.15 9.63,3.47 9.51,3.80 9.32,4.09 9.13,4.37 8.87,4.61 8.62,4.84 8.32,5.00 8.01,5.17 7.68,5.26 7.34,5.34 7.00,5.35 6.65,5.35 5.44,5.57 4.23,5.79 3.19,4.47 2.15,3.14 1.22,1.46 0.29,-0.22 0.52,-2.44 0.75,-4.66 2.62,-6.20 4.49,-7.75 5.90,-7.56 7.31,-7.36 8.22,-6.80 9.14,-6.23 10.34,-5.18 11.54,-4.12 12.57,-3.11 13.61,-2.11 14.31,-1.02 15.01,0.05 15.21,1.46 15.40,2.87 14.05,4.39 12.69,5.90 10.95,6.18 9.22,6.45 7.27,5.95 5.32,5.44 4.39,4.23 3.45,3.02 2.65,3.25 1.85,3.47 1.36,3.32 0.86,3.17 0.44,2.87 0.01,2.57 -0.29,2.15 -0.59,1.73 -0.75,1.24 -0.90,0.74 -0.89,0.22 -0.88,-0.28 -0.71,-0.77 -0.53,-1.26 -0.21,-1.67 0.10,-2.08 0.54,-2.36 0.97,-2.64 1.48,-2.77 1.98,-2.90 2.50,-2.86 3.02,-2.82 3.49,-2.62 3.97,-2.42 4.36,-2.08 4.75,-1.73 5.01,-1.28 5.27,-0.83 5.37,-0.32 5.47,0.18 5.41,0.69 5.34,1.21 5.11,1.67 4.88,2.14 4.52,2.51 4.16,2.88 3.69,3.11 3.23,3.35 2.71,3.42 2.20,3.50 1.69,3.40 1.18,3.31 0.72,3.06 0.27,2.80 -0.07,2.42 -0.42,2.04 -0.63,1.56 -0.84,1.08 -0.88,0.57 -0.93,0.05 -0.81,-0.45 -0.68,-0.95 -0.41,-1.39 -0.13,-1.83 0.26,-2.16 0.66,-2.49 1.15,-2.67 1.64,-2.85 2.15,-2.87 2.67,-2.89 2.67,-2.89 2.67,-2.89 5.54,-1.72 8.41,-0.55 9.33,0.02 10.25,0.61 9.57,1.63 8.90,2.64 7.93,1.68 6.96,0.71 6.56,-0.57 6.16,-1.85 6.56,-0.09 6.95,1.66 5.57,1.65 4.19,1.63 5.73,0.65 7.26,-0.33 7.60,-0.26 7.93,-0.18 8.24,-0.02 8.55,0.12 8.81,0.35 9.07,0.57 9.27,0.85 9.47,1.14 9.60,1.46 9.73,1.78 9.78,2.12 9.82,2.46 9.79,2.81 9.75,3.15 9.63,3.47 9.51,3.80 9.32,4.09 9.13,4.37 8.87,4.61 8.62,4.84 8.32,5.00 8.01,5.17 7.68,5.26 7.34,5.34 7.00,5.35 6.65,5.35 5.93,4.98 5.21,4.62 4.06,4.46 2.91,4.30 1.59,3.86 0.27,3.41 -0.59,2.80 -1.46,2.20 -1.70,1.99 -1.95,1.78 -2.13,1.52 -2.32,1.26 -2.44,0.97 -2.55,0.67 -2.60,0.35 -2.64,0.04 -2.61,-0.27 -2.57,-0.59 -2.47,-0.89 -2.36,-1.19 -2.18,-1.45 -2.00,-1.72 -1.77,-1.93 -1.53,-2.15 -1.25,-2.30 -0.97,-2.45 -0.66,-2.53 -0.36,-2.62 -0.04,-2.62 0.27,-2.63 0.58,-2.55 0.89,-2.48 1.18,-2.34 1.46,-2.20 1.46,-2.20 L 1.46,-2.20 Z"></path></g><g transform="translate(636 544.765625) rotate(0 2 5.5)" stroke="none"><path fill="#000000" d="M -1.87,1.87 Q -1.87,1.87 -2.18,1.61 -2.49,1.34 -2.70,1.09 -2.90,0.83 -3.03,0.53 -3.17,0.23 -3.23,-0.08 -3.29,-0.41 -3.27,-0.73 -3.25,-1.06 -3.15,-1.37 -3.05,-1.69 -2.88,-1.97 -2.71,-2.25 -2.48,-2.48 -2.25,-2.71 -1.97,-2.88 -1.69,-3.05 -1.37,-3.15 -1.06,-3.25 -0.73,-3.27 -0.41,-3.29 -0.08,-3.23 0.23,-3.17 0.53,-3.03 0.83,-2.90 1.09,-2.70 1.34,-2.49 2.79,-1.68 4.24,-0.87 4.57,0.92 4.90,2.72 4.98,3.93 5.05,5.15 5.11,6.70 5.18,8.25 4.71,10.04 4.25,11.84 2.06,13.35 -0.12,14.85 -1.68,14.54 -3.23,14.22 -4.23,13.35 -5.23,12.48 -5.74,10.77 -6.26,9.06 -5.91,7.03 -5.57,5.01 -5.00,4.05 -4.43,3.10 -2.77,1.62 -1.10,0.15 1.34,0.27 3.80,0.39 4.82,0.96 5.85,1.53 7.11,2.30 8.38,3.06 8.66,3.36 8.95,3.66 9.15,4.01 9.36,4.37 9.47,4.76 9.59,5.16 9.61,5.57 9.62,5.98 9.54,6.39 9.46,6.79 9.28,7.16 9.11,7.53 8.85,7.85 8.59,8.17 8.26,8.42 7.93,8.66 7.55,8.83 7.17,8.99 6.77,9.05 6.36,9.12 5.95,9.09 5.54,9.05 5.15,8.92 4.76,8.79 4.41,8.57 4.06,8.36 6.41,8.17 8.76,7.99 8.03,8.96 7.31,9.92 7.03,10.40 6.75,10.88 6.33,11.25 5.91,11.61 5.40,11.82 4.89,12.03 4.34,12.07 3.78,12.11 3.25,11.97 2.71,11.83 2.25,11.52 1.79,11.22 1.45,10.78 1.10,10.35 0.92,9.82 0.74,9.30 0.73,8.75 0.72,8.19 0.89,7.67 1.06,7.14 1.39,6.69 1.72,6.25 2.17,5.93 2.63,5.61 3.16,5.46 3.69,5.30 4.24,5.32 4.80,5.35 5.32,5.55 5.83,5.74 6.26,6.10 6.69,6.45 6.98,6.92 7.27,7.39 7.40,7.93 7.52,8.47 7.47,9.02 7.42,9.57 7.19,10.08 6.97,10.58 6.59,10.99 6.22,11.40 5.73,11.66 5.24,11.93 4.70,12.03 4.15,12.12 3.61,12.04 3.06,11.96 2.56,11.71 2.07,11.45 1.69,11.06 1.30,10.66 1.06,10.16 0.82,9.66 0.75,9.11 0.69,8.56 0.80,8.02 0.91,7.48 0.91,7.48 0.91,7.48 2.16,5.62 3.42,3.76 5.90,3.41 8.38,3.06 8.66,3.36 8.95,3.66 9.15,4.01 9.36,4.37 9.47,4.76 9.59,5.16 9.61,5.57 9.62,5.98 9.54,6.39 9.46,6.79 9.28,7.16 9.11,7.53 8.85,7.85 8.59,8.17 8.26,8.42 7.93,8.66 7.55,8.83 7.17,8.99 6.77,9.05 6.36,9.12 5.95,9.09 5.54,9.05 5.15,8.92 4.76,8.79 4.41,8.57 4.06,8.36 3.57,8.17 3.08,7.99 2.16,7.36 1.23,6.73 0.81,7.75 0.39,8.78 -0.37,8.01 -1.15,7.25 -1.09,5.71 -1.04,4.16 -0.23,2.96 0.56,1.76 -0.96,1.55 -2.49,1.34 -2.70,1.09 -2.90,0.83 -3.03,0.53 -3.17,0.23 -3.23,-0.08 -3.29,-0.41 -3.27,-0.73 -3.25,-1.06 -3.15,-1.37 -3.05,-1.69 -2.88,-1.97 -2.71,-2.25 -2.48,-2.48 -2.25,-2.71 -1.97,-2.88 -1.69,-3.05 -1.37,-3.15 -1.06,-3.25 -0.73,-3.27 -0.41,-3.29 -0.08,-3.23 0.23,-3.17 0.53,-3.03 0.83,-2.90 1.09,-2.70 1.34,-2.49 1.61,-2.18 1.87,-1.87 2.07,-1.62 2.26,-1.37 2.40,-1.08 2.53,-0.78 2.58,-0.47 2.64,-0.16 2.62,0.15 2.60,0.47 2.51,0.78 2.41,1.08 2.25,1.36 2.08,1.63 1.86,1.86 1.63,2.08 1.36,2.25 1.08,2.41 0.78,2.51 0.47,2.60 0.15,2.62 -0.16,2.64 -0.47,2.58 -0.78,2.53 -1.08,2.40 -1.37,2.26 -1.62,2.07 -1.87,1.87 -1.87,1.87 L -1.87,1.87 Z"></path></g><g transform="translate(672 519.765625) rotate(0 11 12.5)"><text x="0" y="18" font-family="Virgil, Segoe UI Emoji" font-size="20px" fill="#000000" text-anchor="start" style="white-space: pre;" direction="ltr">M1</text></g><g transform="translate(677 789.765625) rotate(0 15.5 12.5)"><text x="0" y="18" font-family="Virgil, Segoe UI Emoji" font-size="20px" fill="#000000" text-anchor="start" style="white-space: pre;" direction="ltr">M2</text></g><g stroke-linecap="round"><g transform="translate(635 552.765625) rotate(0 42.5 -8.5)"><path d="M0.54 -1.1 C14.92 -3.97, 71.87 -14.65, 86.12 -17.35 M-0.64 0.93 C13.69 -1.75, 71.34 -13.15, 85.76 -16" stroke="#d9480f" stroke-width="1" fill="none"></path></g><g transform="translate(635 552.765625) rotate(0 42.5 -8.5)"><path d="M58.25 1.39 C66.93 -3.31, 74.37 -11.51, 84.17 -17.56 M60.59 0.34 C66.49 -4.21, 71.98 -8.48, 85.01 -15.99" stroke="#d9480f" stroke-width="1" fill="none"></path></g><g transform="translate(635 552.765625) rotate(0 42.5 -8.5)"><path d="M54.27 -18.74 C64.07 -17.65, 72.66 -20.04, 84.17 -17.56 M56.61 -19.79 C63.54 -19.55, 69.98 -19.04, 85.01 -15.99" stroke="#d9480f" stroke-width="1" fill="none"></path></g></g><g stroke-linecap="round"><g transform="translate(644 786.765625) rotate(0 19.5 31.5)"><path d="M-0.38 0.55 C6.38 11.21, 32.94 53.49, 39.66 64 M1.63 -0.21 C8.36 10.13, 32.72 52.1, 39.05 62.4" stroke="#d9480f" stroke-width="1" fill="none"></path></g><g transform="translate(644 786.765625) rotate(0 19.5 31.5)"><path d="M16.73 44.53 C22.72 49.28, 27.34 50.42, 39.37 61.93 M16.35 43.6 C21.02 48.74, 26.94 53.34, 38.84 62.86" stroke="#d9480f" stroke-width="1" fill="none"></path></g><g transform="translate(644 786.765625) rotate(0 19.5 31.5)"><path d="M34.35 34.03 C36.38 41.09, 37.04 44.59, 39.37 61.93 M33.98 33.09 C34.27 40.79, 35.77 48.03, 38.84 62.86" stroke="#d9480f" stroke-width="1" fill="none"></path></g></g><g transform="translate(708 832.765625) rotate(0 13.5 12.5)"><text x="0" y="18" font-family="Virgil, Segoe UI Emoji" font-size="20px" fill="#d9480f" text-anchor="start" style="white-space: pre;" direction="ltr">F2</text></g><g transform="translate(755 521.765625) rotate(0 9 12.5)"><text x="0" y="18" font-family="Virgil, Segoe UI Emoji" font-size="20px" fill="#d9480f" text-anchor="start" style="white-space: pre;" direction="ltr">F1</text></g><g transform="translate(784 579.765625) rotate(0 64 12.5)"><text x="0" y="18" font-family="Virgil, Segoe UI Emoji" font-size="20px" fill="#000000" text-anchor="start" style="white-space: pre;" direction="ltr">M1 = 4 x M2</text></g><g transform="translate(798 614.765625) rotate(0 74.5 12.5)"><text x="0" y="18" font-family="Virgil, Segoe UI Emoji" font-size="20px" fill="#000000" text-anchor="start" style="white-space: pre;" direction="ltr">aM1 = bM2 =&gt; </text></g><g transform="translate(948 592.765625) rotate(0 40.5 12.5)"><text x="0" y="18" font-family="Virgil, Segoe UI Emoji" font-size="20px" fill="#000000" text-anchor="start" style="white-space: pre;" direction="ltr">a = L/5</text></g><g transform="translate(954 632.765625) rotate(0 45.5 12.5)"><text x="0" y="18" font-family="Virgil, Segoe UI Emoji" font-size="20px" fill="#000000" text-anchor="start" style="white-space: pre;" direction="ltr">b = 4/5L</text></g><g stroke-linecap="round"><g transform="translate(651 655.765625) rotate(325.6208964726178 15.331951768136577 -34.502937201741915)"><path d="M0.26 0.35 C5.23 -1.44, 25.11 0.42, 29.96 -11.15 C34.81 -22.72, 29.47 -59.25, 29.37 -69.07 M-1.06 -0.51 C4.29 -2.14, 27.26 1.14, 32.3 -10.07 C37.35 -21.28, 30.18 -57.87, 29.22 -67.78" stroke="#d9480f" stroke-width="1" fill="none"></path></g><g transform="translate(651 655.765625) rotate(325.6208964726178 15.331951768136577 -34.502937201741915)"><path d="M43.56 -42.98 C37.32 -47.92, 34.39 -56.05, 27.44 -69.3 M42.83 -42.14 C38.17 -52.62, 31.19 -61.38, 29.37 -67.73" stroke="#d9480f" stroke-width="1" fill="none"></path></g><g transform="translate(651 655.765625) rotate(325.6208964726178 15.331951768136577 -34.502937201741915)"><path d="M23.65 -40.21 C23.62 -46.05, 26.89 -55.05, 27.44 -69.3 M22.92 -39.37 C26.04 -51.11, 26.88 -60.95, 29.37 -67.73" stroke="#d9480f" stroke-width="1" fill="none"></path></g></g><g stroke-linecap="round"><g transform="translate(641 622.765625) rotate(0 46.5 -15.5)"><path d="M1.07 -0.59 C16.67 -6.01, 77.22 -26.22, 92.57 -31.44 M0.17 1.72 C15.66 -3.03, 76.01 -24.67, 91.4 -30.14" stroke="#d9480f" stroke-width="1" fill="none"></path></g><g transform="translate(641 622.765625) rotate(0 46.5 -15.5)"><path d="M67.31 -11.72 C72.38 -15.03, 76.59 -17.8, 93.02 -28.5 M69.28 -11.39 C74.16 -16.37, 79.37 -20.48, 92.19 -30.66" stroke="#d9480f" stroke-width="1" fill="none"></path></g><g transform="translate(641 622.765625) rotate(0 46.5 -15.5)"><path d="M60.42 -31.05 C67.17 -30.23, 72.87 -28.81, 93.02 -28.5 M62.39 -30.72 C69.09 -31.13, 75.93 -30.66, 92.19 -30.66" stroke="#d9480f" stroke-width="1" fill="none"></path></g></g><g transform="translate(704 639.765625) rotate(0 8 12.5)"><text x="0" y="18" font-family="Virgil, Segoe UI Emoji" font-size="20px" fill="#d9480f" text-anchor="start" style="white-space: pre;" direction="ltr">M</text></g><g transform="translate(745 562.765625) rotate(0 7.5 12.5)"><text x="0" y="18" font-family="Virgil, Segoe UI Emoji" font-size="20px" fill="#d9480f" text-anchor="start" style="white-space: pre;" direction="ltr">R</text></g></svg>