<svg version="1.1" xmlns="http://www.w3.org/2000/svg" viewBox="0 0 10020 749.0193071048391" width="10020" height="749.0193071048391">
  <!-- svg-source:excalidraw -->
  
  <defs>
    <style>
      @font-face {
        font-family: "Virgil";
        src: url("https://excalidraw.com/Virgil.woff2");
      }
      @font-face {
        font-family: "Cascadia";
        src: url("https://excalidraw.com/Cascadia.woff2");
      }
    </style>
  </defs>
  <rect x="0" y="0" width="10020" height="749.0193071048391" fill="#fff0"></rect><g stroke-linecap="round" transform="translate(10 10) rotate(0 5000 0.5)"><path d="M-0.52 -0.26 C3022.65 -30.2, 6044.59 -29.2, 9999.32 0.22 M0.38 -0.31 C3948.03 -0.44, 7895.41 0.2, 9999.95 0.08 M10000.08 -0.06 C10000.09 0.27, 10000.05 0.48, 10000.09 0.92 M9999.97 0.01 C9999.95 0.33, 9999.98 0.72, 10000 0.99 M10000.22 1.51 C7095.77 35.76, 4193.15 34.95, -0.25 0.75 M10000.01 1.13 C7827.97 2.74, 5656.23 3.35, -0.33 0.84 M-0.04 1.01 C0 0.63, -0.06 0.15, 0.05 -0.03 M-0.04 0.95 C-0.04 0.73, -0.03 0.59, -0.05 -0.02" stroke="transparent" stroke-width="1" fill="none"></path></g><g transform="translate(613 716.0193071048391) rotate(0 2.5 1)" stroke="none"><path fill="#000000" d="M -1.84,-1.84 Q -1.84,-1.84 -0.98,-2.72 -0.12,-3.60 0.79,-4.22 1.72,-4.83 3.19,-5.00 4.66,-5.16 4.27,-5.11 3.88,-5.07 4.22,-5.12 4.56,-5.17 4.90,-5.14 5.25,-5.11 5.57,-4.99 5.89,-4.88 6.18,-4.69 6.47,-4.50 6.70,-4.25 6.94,-4.00 7.11,-3.70 7.27,-3.40 7.37,-3.07 7.46,-2.74 7.47,-2.40 7.48,-2.06 7.40,-1.72 7.33,-1.38 7.18,-1.08 7.03,-0.77 6.81,-0.50 6.59,-0.24 6.31,-0.04 6.03,0.15 5.71,0.28 5.40,0.41 4.00,1.70 2.60,2.98 1.03,3.63 -0.53,4.28 -1.95,4.42 -3.38,4.56 -3.11,4.47 -2.85,4.39 -3.23,4.43 -3.60,4.48 -3.98,4.43 -4.36,4.38 -4.71,4.25 -5.07,4.11 -5.38,3.89 -5.69,3.68 -5.94,3.39 -6.20,3.10 -6.37,2.77 -6.55,2.43 -6.64,2.06 -6.73,1.69 -6.72,1.31 -6.72,0.93 -6.63,0.56 -6.54,0.19 -6.36,-0.13 -6.18,-0.47 -5.93,-0.75 -5.67,-1.04 -5.36,-1.25 -5.05,-1.47 -4.69,-1.60 -4.33,-1.73 -3.24,-1.92 -2.15,-2.11 -1.23,-2.43 -0.31,-2.75 0.05,-2.87 0.42,-2.98 0.81,-3.01 1.20,-3.03 1.58,-2.96 1.96,-2.89 2.32,-2.74 2.67,-2.58 2.98,-2.34 3.29,-2.10 3.53,-1.79 3.77,-1.49 3.93,-1.13 4.09,-0.78 4.16,-0.40 4.23,-0.02 4.21,0.36 4.19,0.75 4.07,1.12 3.96,1.49 3.76,1.83 3.56,2.16 3.29,2.44 3.01,2.71 2.68,2.92 2.35,3.12 3.23,2.09 4.12,1.07 3.58,2.22 3.04,3.38 1.76,4.82 0.48,6.25 0.18,6.81 -0.12,7.37 -0.49,7.53 -0.87,7.68 -1.27,7.74 -1.67,7.80 -2.07,7.77 -2.48,7.73 -2.86,7.60 -3.24,7.47 -3.58,7.25 -3.92,7.03 -4.20,6.73 -4.48,6.43 -4.68,6.08 -4.88,5.73 -4.99,5.34 -5.09,4.95 -5.11,4.54 -5.12,4.14 -5.03,3.74 -4.95,3.34 -4.77,2.98 -4.59,2.61 -4.33,2.30 -4.07,1.99 -3.75,1.75 -3.42,1.51 -4.17,3.56 -4.92,5.61 -4.57,3.70 -4.23,1.80 -2.74,0.78 -1.25,-0.23 0.31,-0.79 1.87,-1.35 3.03,-1.41 4.19,-1.47 5.33,-1.45 6.48,-1.44 7.72,-0.96 8.97,-0.48 9.49,-0.36 10.01,-0.23 10.35,0.01 10.69,0.27 10.96,0.60 11.23,0.92 11.41,1.31 11.59,1.69 11.68,2.11 11.77,2.52 11.75,2.95 11.73,3.37 11.62,3.78 11.50,4.19 11.29,4.56 11.08,4.92 10.79,5.23 10.49,5.54 10.13,5.77 9.78,5.99 9.37,6.13 8.97,6.26 8.55,6.30 8.12,6.34 7.70,6.27 7.29,6.20 6.89,6.04 6.50,5.87 8.31,5.84 10.11,5.81 8.98,6.16 7.84,6.52 6.63,6.53 5.41,6.55 1.89,5.08 -1.61,3.61 -1.86,3.11 -2.10,2.62 -2.18,2.07 -2.25,1.52 -2.14,0.98 -2.04,0.43 -1.77,-0.04 -1.49,-0.52 -1.08,-0.89 -0.67,-1.25 -0.16,-1.47 0.34,-1.69 0.89,-1.73 1.44,-1.78 1.98,-1.64 2.52,-1.51 2.98,-1.21 3.45,-0.91 3.79,-0.48 4.14,-0.04 4.33,0.47 4.52,0.99 4.53,1.54 4.54,2.09 4.38,2.62 4.22,3.15 3.89,3.60 3.57,4.04 3.12,4.37 2.67,4.69 2.14,4.85 1.61,5.01 1.06,4.99 0.50,4.98 -0.00,4.79 -0.52,4.59 -0.95,4.25 -1.38,3.90 -1.68,3.43 -1.98,2.96 -2.11,2.43 -2.24,1.89 -2.19,1.34 -2.15,0.79 -1.93,0.28 -1.71,-0.22 -1.34,-0.63 -0.97,-1.04 -0.49,-1.31 -0.00,-1.58 0.53,-1.68 1.07,-1.79 1.62,-1.71 2.17,-1.63 2.66,-1.39 3.16,-1.14 3.55,-0.75 3.94,-0.36 3.94,-0.36 3.94,-0.36 2.98,0.05 2.03,0.46 4.06,0.24 6.10,0.03 8.05,-0.10 10.01,-0.23 10.35,0.01 10.69,0.27 10.96,0.59 11.23,0.92 11.41,1.31 11.59,1.69 11.68,2.11 11.77,2.52 11.75,2.95 11.74,3.37 11.62,3.78 11.50,4.19 11.29,4.55 11.08,4.92 10.79,5.23 10.49,5.54 10.13,5.77 9.78,5.99 9.37,6.13 8.97,6.26 8.55,6.30 8.12,6.34 7.70,6.27 7.29,6.20 6.89,6.04 6.50,5.87 5.90,5.69 5.29,5.50 3.97,5.51 2.66,5.52 1.49,5.36 0.32,5.21 0.71,3.98 1.11,2.76 0.49,5.07 -0.12,7.37 -0.49,7.53 -0.87,7.68 -1.27,7.74 -1.67,7.80 -2.07,7.77 -2.47,7.73 -2.86,7.60 -3.24,7.47 -3.58,7.25 -3.92,7.03 -4.20,6.73 -4.48,6.44 -4.68,6.08 -4.88,5.73 -4.99,5.34 -5.09,4.95 -5.11,4.54 -5.12,4.14 -5.03,3.74 -4.95,3.34 -4.77,2.98 -4.59,2.61 -4.33,2.30 -4.07,1.99 -3.75,1.75 -3.42,1.51 -2.76,0.87 -2.10,0.23 -1.21,-1.25 -0.31,-2.75 0.05,-2.87 0.42,-2.98 0.81,-3.01 1.20,-3.03 1.58,-2.96 1.96,-2.89 2.32,-2.74 2.67,-2.58 2.98,-2.34 3.29,-2.10 3.53,-1.79 3.77,-1.49 3.93,-1.13 4.09,-0.78 4.16,-0.40 4.23,-0.02 4.21,0.36 4.19,0.75 4.07,1.12 3.96,1.49 3.76,1.83 3.56,2.16 3.29,2.44 3.01,2.71 2.68,2.92 2.35,3.12 2.98,2.15 3.62,1.19 1.76,2.68 -0.09,4.18 -1.47,4.29 -2.85,4.39 -3.23,4.43 -3.60,4.48 -3.98,4.43 -4.36,4.38 -4.71,4.25 -5.07,4.11 -5.38,3.89 -5.69,3.68 -5.94,3.39 -6.20,3.10 -6.37,2.77 -6.55,2.43 -6.64,2.06 -6.73,1.69 -6.72,1.31 -6.72,0.93 -6.63,0.56 -6.54,0.19 -6.36,-0.13 -6.18,-0.47 -5.93,-0.75 -5.68,-1.04 -5.36,-1.25 -5.05,-1.47 -4.69,-1.60 -4.34,-1.73 -3.66,-1.55 -2.99,-1.36 -1.68,-1.81 -0.37,-2.26 0.79,-2.60 1.97,-2.94 2.92,-4.00 3.88,-5.07 4.22,-5.12 4.56,-5.17 4.90,-5.14 5.25,-5.11 5.57,-4.99 5.89,-4.88 6.18,-4.69 6.47,-4.50 6.70,-4.25 6.94,-4.00 7.11,-3.70 7.27,-3.40 7.37,-3.07 7.46,-2.74 7.47,-2.40 7.48,-2.06 7.40,-1.72 7.33,-1.38 7.18,-1.08 7.03,-0.77 6.81,-0.51 6.59,-0.24 6.31,-0.04 6.03,0.15 5.71,0.28 5.40,0.41 4.48,0.28 3.57,0.15 2.70,1.00 1.84,1.84 1.59,2.04 1.35,2.23 1.06,2.36 0.77,2.49 0.46,2.55 0.15,2.60 -0.15,2.58 -0.47,2.56 -0.77,2.47 -1.07,2.38 -1.34,2.21 -1.61,2.05 -1.83,1.83 -2.05,1.61 -2.21,1.34 -2.38,1.07 -2.47,0.77 -2.56,0.47 -2.58,0.15 -2.60,-0.15 -2.55,-0.46 -2.49,-0.77 -2.36,-1.06 -2.23,-1.35 -2.04,-1.59 -1.84,-1.84 -1.84,-1.84 L -1.84,-1.84 Z"></path></g><g transform="translate(753 618.0193071048391) rotate(0 -3.5 0)" stroke="none"><path fill="#000000" d="M -1.47,2.21 Q -1.47,2.21 -2.57,1.29 -3.67,0.37 -4.15,-1.14 -4.63,-2.66 -4.23,-4.00 -3.84,-5.33 -1.51,-6.02 0.81,-6.71 2.01,-5.44 3.21,-4.17 4.11,-2.65 5.01,-1.12 4.82,0.60 4.64,2.33 3.28,4.03 1.93,5.73 -0.18,6.06 -2.29,6.39 -3.25,5.82 -4.22,5.25 -5.52,3.42 -6.83,1.60 -6.61,-0.19 -6.39,-1.98 -6.12,-2.17 -5.85,-2.35 -5.70,-2.73 -5.55,-3.12 -5.31,-3.45 -5.08,-3.79 -4.77,-4.06 -4.46,-4.33 -4.09,-4.52 -3.73,-4.70 -3.33,-4.80 -2.93,-4.89 -2.52,-4.89 -2.10,-4.89 -1.71,-4.79 -1.31,-4.68 -0.95,-4.49 -0.58,-4.30 -0.28,-4.02 0.02,-3.75 0.25,-3.41 0.48,-3.07 0.62,-2.68 0.76,-2.30 0.81,-1.89 0.85,-1.48 0.80,-1.07 0.75,-0.66 0.66,1.35 0.56,3.38 -0.15,4.47 -0.87,5.56 -2.42,6.70 -3.97,7.84 -6.12,8.00 -8.27,8.16 -9.83,6.33 -11.38,4.49 -11.18,3.18 -10.97,1.87 -9.99,1.00 -9.00,0.12 -8.07,-0.71 -7.14,-1.55 -4.94,-2.22 -2.74,-2.90 -2.21,-2.89 -1.68,-2.89 -1.18,-2.71 -0.67,-2.54 -0.26,-2.21 0.15,-1.88 0.45,-1.44 0.74,-1.00 0.88,-0.48 1.01,0.02 0.98,0.55 0.94,1.08 0.74,1.57 0.54,2.06 0.19,2.46 -0.15,2.86 -0.61,3.13 -1.07,3.40 -1.59,3.51 -2.11,3.62 -2.63,3.55 -3.16,3.49 -3.64,3.26 -4.12,3.03 -4.50,2.66 -4.88,2.29 -5.13,1.82 -5.37,1.35 -5.45,0.82 -5.53,0.30 -5.44,-0.21 -5.35,-0.74 -5.09,-1.20 -4.84,-1.67 -4.45,-2.03 -4.06,-2.39 -3.57,-2.61 -3.09,-2.83 -2.56,-2.88 -2.03,-2.93 -1.51,-2.81 -0.99,-2.69 -0.54,-2.41 -0.09,-2.13 0.24,-1.72 0.58,-1.31 0.77,-0.82 0.96,-0.32 0.98,0.20 1.00,0.73 0.86,1.24 0.71,1.75 0.40,2.19 0.10,2.62 -0.32,2.94 -0.74,3.26 -1.25,3.42 -1.75,3.58 -1.75,3.58 -1.75,3.58 -2.34,3.78 -2.93,3.98 -4.28,4.14 -5.62,4.30 -6.51,3.01 -7.40,1.72 -6.42,1.11 -5.44,0.50 -5.64,-0.92 -5.85,-2.35 -5.70,-2.73 -5.55,-3.12 -5.31,-3.45 -5.08,-3.79 -4.77,-4.06 -4.46,-4.33 -4.09,-4.52 -3.73,-4.70 -3.33,-4.80 -2.93,-4.89 -2.52,-4.89 -2.11,-4.89 -1.71,-4.79 -1.31,-4.68 -0.95,-4.49 -0.58,-4.30 -0.28,-4.02 0.02,-3.75 0.25,-3.41 0.48,-3.07 0.62,-2.68 0.76,-2.30 0.81,-1.89 0.85,-1.48 0.80,-1.07 0.75,-0.66 0.21,-0.30 -0.31,0.05 -1.15,-1.21 -1.98,-2.48 -0.88,-2.58 0.22,-2.67 0.84,-2.44 1.47,-2.21 1.71,-2.00 1.96,-1.79 2.14,-1.53 2.33,-1.27 2.45,-0.97 2.57,-0.67 2.61,-0.36 2.65,-0.04 2.62,0.27 2.59,0.59 2.48,0.89 2.37,1.19 2.19,1.46 2.01,1.73 1.78,1.94 1.54,2.16 1.26,2.31 0.98,2.47 0.67,2.55 0.36,2.63 0.04,2.64 -0.27,2.64 -0.59,2.57 -0.90,2.50 -1.18,2.35 -1.47,2.21 -1.47,2.21 L -1.47,2.21 Z"></path></g><g transform="translate(588 721.0193071048391) rotate(0 6 -1.5)" stroke="none"><path fill="#1864ab" d="M -1.15,-2.31 Q -1.15,-2.31 -0.00,-2.90 1.14,-3.49 2.49,-3.86 3.83,-4.23 4.99,-4.38 6.16,-4.53 8.84,-5.17 11.53,-5.80 11.99,-5.75 12.44,-5.70 12.85,-5.50 13.27,-5.31 13.60,-4.99 13.93,-4.68 14.14,-4.27 14.35,-3.87 14.42,-3.42 14.50,-2.96 14.42,-2.51 14.34,-2.06 14.13,-1.66 13.91,-1.26 13.58,-0.94 13.24,-0.63 12.83,-0.44 12.41,-0.25 11.96,-0.20 11.50,-0.16 11.06,-0.26 10.61,-0.36 10.22,-0.60 9.83,-0.83 9.54,-1.18 9.24,-1.53 9.07,-1.96 8.91,-2.39 8.88,-2.84 8.86,-3.30 8.99,-3.74 9.11,-4.18 9.37,-4.56 9.63,-4.93 9.99,-5.21 10.36,-5.48 10.79,-5.63 11.23,-5.77 11.68,-5.77 12.14,-5.77 12.57,-5.62 13.01,-5.47 13.37,-5.19 13.73,-4.91 13.99,-4.53 14.24,-4.15 14.36,-3.71 14.48,-3.27 14.45,-2.81 14.43,-2.36 14.26,-1.93 14.08,-1.51 13.79,-1.16 13.49,-0.82 13.10,-0.58 12.70,-0.35 12.26,-0.25 11.81,-0.16 11.81,-0.16 11.81,-0.16 10.44,-0.06 9.07,0.02 7.94,0.43 6.80,0.84 5.12,1.01 3.45,1.19 2.30,1.75 1.15,2.31 0.86,2.42 0.57,2.52 0.25,2.56 -0.05,2.59 -0.36,2.54 -0.67,2.50 -0.96,2.38 -1.25,2.27 -1.50,2.08 -1.75,1.90 -1.96,1.66 -2.16,1.43 -2.30,1.15 -2.44,0.87 -2.51,0.56 -2.57,0.26 -2.57,-0.05 -2.56,-0.36 -2.48,-0.66 -2.40,-0.96 -2.25,-1.24 -2.10,-1.51 -1.89,-1.74 -1.68,-1.97 -1.42,-2.14 -1.15,-2.31 -1.15,-2.31 L -1.15,-2.31 Z"></path></g><g transform="translate(596 730.0193071048391) rotate(0 1 -2.5)" stroke="none"><path fill="#1864ab" d="M -2.30,-0.76 Q -2.30,-0.76 -2.05,-1.65 -1.81,-2.53 0.67,-1.64 3.16,-0.75 2.94,-0.39 2.71,-0.03 2.38,0.23 2.05,0.50 1.65,0.65 1.26,0.80 0.83,0.82 0.41,0.83 0.00,0.71 -0.40,0.59 -0.75,0.35 -1.09,0.10 -1.35,-0.23 -1.60,-0.57 -1.73,-0.98 -1.86,-1.38 -1.85,-1.81 -1.84,-2.23 -1.70,-2.64 -1.56,-3.04 -1.29,-3.37 -1.03,-3.70 -0.67,-3.94 -0.32,-4.17 0.08,-4.28 0.50,-4.38 0.92,-4.35 1.35,-4.32 1.74,-4.16 2.13,-3.99 2.45,-3.71 2.77,-3.43 2.98,-3.06 3.19,-2.70 3.28,-2.28 3.36,-1.86 3.31,-1.44 3.26,-1.02 3.07,-0.63 2.89,-0.25 2.59,0.04 2.29,0.35 1.91,0.54 1.53,0.73 1.11,0.79 0.69,0.85 0.27,0.78 -0.14,0.70 -0.51,0.50 -0.88,0.29 -1.17,-0.01 -1.46,-0.33 -1.63,-0.72 -1.80,-1.11 -1.84,-1.53 -1.88,-1.95 -1.78,-2.37 -1.68,-2.78 -1.68,-2.78 -1.68,-2.78 0.63,-1.84 2.96,-0.91 2.63,-0.07 2.30,0.76 2.17,1.03 2.05,1.29 1.86,1.52 1.68,1.74 1.44,1.92 1.21,2.10 0.94,2.21 0.67,2.32 0.38,2.37 0.09,2.42 -0.19,2.40 -0.48,2.37 -0.76,2.28 -1.03,2.19 -1.28,2.03 -1.53,1.87 -1.73,1.66 -1.93,1.45 -2.08,1.20 -2.23,0.95 -2.31,0.67 -2.39,0.38 -2.40,0.09 -2.41,-0.19 -2.35,-0.48 -2.30,-0.76 -2.30,-0.76 L -2.30,-0.76 Z"></path></g><g transform="translate(602 736.0193071048391) rotate(0 3.5 -1.5)" stroke="none"><path fill="#1864ab" d="M 2.22,-1.48 Q 2.22,-1.48 2.73,-0.71 3.24,0.06 3.54,-1.22 3.84,-2.50 3.84,-3.89 3.84,-5.28 3.93,-5.78 4.02,-6.28 4.26,-6.73 4.50,-7.18 4.87,-7.52 5.24,-7.87 5.70,-8.08 6.17,-8.29 6.67,-8.34 7.18,-8.40 7.68,-8.28 8.17,-8.17 8.61,-7.91 9.04,-7.64 9.37,-7.25 9.70,-6.86 9.88,-6.39 10.07,-5.91 10.09,-5.40 10.12,-4.90 9.98,-4.41 9.84,-3.92 9.55,-3.50 9.26,-3.08 8.85,-2.77 8.45,-2.47 7.96,-2.31 7.48,-2.15 6.97,-2.15 6.46,-2.15 5.98,-2.32 5.50,-2.49 5.10,-2.80 4.69,-3.11 4.41,-3.53 4.13,-3.95 3.99,-4.44 3.86,-4.94 3.89,-5.44 3.92,-5.95 4.11,-6.42 4.31,-6.89 4.64,-7.28 4.97,-7.67 5.41,-7.93 5.84,-8.19 6.34,-8.29 6.84,-8.40 7.35,-8.34 7.85,-8.28 8.31,-8.06 8.77,-7.85 9.14,-7.50 9.51,-7.14 9.74,-6.69 9.98,-6.24 10.06,-5.74 10.14,-5.24 10.14,-5.24 10.14,-5.24 10.08,-3.62 10.03,-2.01 9.73,-0.53 9.43,0.94 8.28,2.42 7.13,3.90 5.83,4.57 4.53,5.24 3.09,5.12 1.65,5.00 0.35,4.19 -0.94,3.38 -1.58,2.43 -2.22,1.48 -2.37,1.19 -2.51,0.90 -2.58,0.59 -2.66,0.27 -2.65,-0.04 -2.64,-0.36 -2.56,-0.67 -2.48,-0.98 -2.33,-1.27 -2.17,-1.55 -1.95,-1.79 -1.74,-2.03 -1.47,-2.20 -1.20,-2.38 -0.90,-2.49 -0.59,-2.60 -0.27,-2.64 0.04,-2.67 0.36,-2.63 0.68,-2.58 0.98,-2.46 1.28,-2.34 1.54,-2.16 1.80,-1.97 2.01,-1.72 2.22,-1.48 2.22,-1.48 L 2.22,-1.48 Z"></path></g><g transform="translate(624 735.0193071048391) rotate(0 -2 -5)" stroke="none"><path fill="#1864ab" d="M -2.20,1.47 Q -2.20,1.47 -2.81,0.61 -3.41,-0.23 -4.03,-1.94 -4.65,-3.65 -5.72,-6.24 -6.79,-8.84 -6.85,-9.32 -6.90,-9.81 -6.80,-10.28 -6.71,-10.76 -6.46,-11.18 -6.22,-11.60 -5.85,-11.92 -5.48,-12.23 -5.03,-12.42 -4.58,-12.60 -4.10,-12.64 -3.62,-12.67 -3.15,-12.54 -2.68,-12.42 -2.27,-12.15 -1.87,-11.89 -1.57,-11.50 -1.27,-11.12 -1.11,-10.66 -0.95,-10.20 -0.94,-9.72 -0.93,-9.23 -1.08,-8.77 -1.23,-8.31 -1.52,-7.92 -1.81,-7.53 -2.21,-7.25 -2.61,-6.97 -3.08,-6.84 -3.54,-6.70 -4.03,-6.72 -4.51,-6.74 -4.97,-6.91 -5.42,-7.09 -5.79,-7.40 -6.17,-7.71 -6.42,-8.12 -6.68,-8.54 -6.79,-9.01 -6.90,-9.48 -6.85,-9.97 -6.81,-10.45 -6.61,-10.89 -6.41,-11.34 -6.08,-11.69 -5.75,-12.05 -5.32,-12.28 -4.90,-12.51 -4.42,-12.60 -3.94,-12.68 -3.46,-12.61 -2.98,-12.54 -2.55,-12.31 -2.12,-12.09 -1.78,-11.74 -1.44,-11.39 -1.23,-10.96 -1.02,-10.52 -1.02,-10.52 -1.02,-10.52 -0.50,-9.12 0.01,-7.73 0.47,-6.66 0.92,-5.59 1.01,-4.40 1.11,-3.21 1.66,-2.34 2.20,-1.47 2.35,-1.18 2.49,-0.90 2.56,-0.58 2.64,-0.27 2.63,0.04 2.62,0.36 2.54,0.67 2.46,0.98 2.31,1.26 2.16,1.54 1.94,1.77 1.72,2.01 1.46,2.19 1.19,2.37 0.89,2.47 0.59,2.58 0.27,2.62 -0.04,2.65 -0.36,2.61 -0.67,2.56 -0.97,2.44 -1.27,2.33 -1.53,2.14 -1.79,1.95 -2.00,1.71 -2.20,1.47 -2.20,1.47 L -2.20,1.47 Z"></path></g><g stroke-linecap="round"><g transform="translate(618 719.0193071048391) rotate(0 63.29980500526726 -48.51259074397385)"><path d="M0.67 0.37 C21.9 -15.78, 105.18 -81.3, 126.31 -97.45 M-0.44 -0.48 C20.7 -16.42, 103.95 -79.79, 125.2 -96.14" stroke="#000000" stroke-width="1" fill="none"></path></g></g><g stroke-linecap="round"><g transform="translate(751 614.0193071048391) rotate(0 20.106810186430806 38.90633915823419)"><path d="M0.37 -0.29 C7.09 12.7, 33.06 65.57, 39.78 78.64 M-0.9 -1.49 C5.68 11.11, 31.76 64.04, 38.61 76.96" stroke="#000000" stroke-width="1" fill="none"></path></g></g><g transform="translate(591 675.0193071048391) rotate(0 8 12.5)"><text x="0" y="18" font-family="Virgil, Segoe UI Emoji" font-size="20px" fill="#d9480f" text-anchor="start" style="white-space: pre;" direction="ltr">O</text></g><g transform="translate(777 625.0193071048391) rotate(0 7 12.5)"><text x="0" y="18" font-family="Virgil, Segoe UI Emoji" font-size="20px" fill="#d9480f" text-anchor="start" style="white-space: pre;" direction="ltr">A</text></g><g transform="translate(792 698.0193071048391) rotate(0 8 12.5)"><text x="0" y="18" font-family="Virgil, Segoe UI Emoji" font-size="20px" fill="#d9480f" text-anchor="start" style="white-space: pre;" direction="ltr">B</text></g><g transform="translate(861 628.0193071048391) rotate(0 117.5 50)"><text x="0" y="18" font-family="Virgil, Segoe UI Emoji" font-size="20px" fill="#000000" text-anchor="start" style="white-space: pre;" direction="ltr">Cerniera in O =&gt; 2 GDV</text><text x="0" y="43" font-family="Virgil, Segoe UI Emoji" font-size="20px" fill="#000000" text-anchor="start" style="white-space: pre;" direction="ltr">Cerniera in A =&gt; 2 GDV</text><text x="0" y="68" font-family="Virgil, Segoe UI Emoji" font-size="20px" fill="#000000" text-anchor="start" style="white-space: pre;" direction="ltr">Cerniera in B =&gt; 2 GDV</text><text x="0" y="93" font-family="Virgil, Segoe UI Emoji" font-size="20px" fill="#000000" text-anchor="start" style="white-space: pre;" direction="ltr">    =&gt; 0 GDLb  </text></g><g transform="translate(862 585.0193071048391) rotate(0 99 12.5)"><text x="0" y="18" font-family="Virgil, Segoe UI Emoji" font-size="20px" fill="#d9480f" text-anchor="start" style="white-space: pre;" direction="ltr">2x3 GDL -&gt; 6 GDL</text></g><g stroke-linecap="round"><g transform="translate(864 611.0193071048391) rotate(0 97.5 0)"><path d="M-0.61 0.03 C31.66 -0.15, 161.3 -0.63, 194.07 -0.73 M1.27 -1 C33.87 -1.07, 163.88 0.18, 196.3 0.43" stroke="#d9480f" stroke-width="1" fill="none"></path></g></g><g stroke-linecap="round"><g transform="translate(618 719.0193071048391) rotate(0 27.5 0)"><path d="M0.03 -0.93 C9.02 -0.66, 45.2 0.87, 54.27 1 M-1.41 1.2 C7.93 1.2, 47.46 -0.58, 56.61 -0.59" stroke="#d9480f" stroke-width="1" fill="none"></path></g></g><g stroke-linecap="round"><g transform="translate(754 620.0193071048391) rotate(0 27.5 0)"><path d="M-0.93 -0.73 C8.51 -0.82, 46.71 -0.82, 56 -0.52 M0.79 1.51 C10.2 1.57, 46.71 1.11, 55.58 0.74" stroke="#d9480f" stroke-width="1" fill="none"></path></g></g><g stroke-linecap="round"><g transform="translate(750 621.0193071048391) rotate(0 17.5 -15.5)"><path d="M-0.73 1 C5.02 -4.03, 28.34 -25.75, 34.48 -31.14 M1.09 0.48 C6.63 -4.28, 27.46 -24.56, 33.26 -29.68" stroke="#d9480f" stroke-width="1" fill="none"></path></g></g><g stroke-linecap="round"><g transform="translate(650 718.0193071048391) rotate(0 -3 -11.5)"><path d="M1 -0.52 C1.13 -2.89, 1.09 -11.28, -0.14 -14.92 C-1.37 -18.56, -5.56 -21, -6.37 -22.36 M0.07 1.82 C0.11 -0.79, 0.07 -12.11, -1.16 -16.47 C-2.4 -20.84, -6.81 -23.44, -7.34 -24.37" stroke="#d9480f" stroke-width="1" fill="none"></path></g></g><g transform="translate(785 687.59375) rotate(0 -0.5 2.5)" stroke="none"><path fill="#000000" d="M 1.86,-1.86 Q 1.86,-1.86 2.44,-1.33 3.02,-0.80 4.11,0.59 5.20,1.99 5.08,3.22 4.97,4.44 4.19,6.17 3.41,7.91 2.09,8.75 0.78,9.59 -0.65,9.23 -2.09,8.86 -2.85,7.92 -3.61,6.97 -4.75,4.94 -5.90,2.91 -6.08,1.46 -6.26,0.01 -6.03,-1.10 -5.80,-2.23 -5.08,-3.30 -4.37,-4.37 -3.36,-4.77 -2.36,-5.16 -1.09,-5.28 0.16,-5.39 1.32,-5.39 2.48,-5.38 2.86,-5.13 3.24,-4.88 3.65,-4.84 4.07,-4.79 4.46,-4.64 4.85,-4.50 5.19,-4.26 5.54,-4.03 5.82,-3.72 6.10,-3.40 6.29,-3.04 6.49,-2.67 6.59,-2.26 6.70,-1.86 6.70,-1.44 6.70,-1.02 6.60,-0.62 6.51,-0.21 6.31,0.15 6.12,0.52 5.85,0.84 5.57,1.15 5.23,1.39 4.89,1.63 4.50,1.78 4.11,1.93 3.69,1.99 3.28,2.04 4.69,1.26 6.11,0.49 5.60,1.51 5.09,2.53 4.07,3.22 3.05,3.92 2.10,4.87 1.16,5.82 -0.19,6.71 -1.55,7.61 -1.45,7.55 -1.36,7.49 -1.61,7.84 -1.86,8.18 -2.19,8.45 -2.52,8.73 -2.90,8.91 -3.28,9.10 -3.70,9.19 -4.12,9.28 -4.54,9.27 -4.97,9.25 -5.38,9.14 -5.79,9.02 -6.16,8.81 -6.53,8.61 -6.84,8.31 -7.15,8.02 -7.38,7.66 -7.61,7.31 -7.75,6.90 -7.89,6.50 -7.93,6.08 -7.97,5.65 -7.91,5.23 -7.84,4.81 -7.68,4.42 -7.51,4.02 -5.91,2.30 -4.30,0.58 -3.94,0.24 -3.58,-0.08 -3.13,-0.29 -2.68,-0.49 -2.19,-0.54 -1.70,-0.59 -1.22,-0.48 -0.73,-0.37 -0.31,-0.12 0.10,0.13 0.42,0.51 0.73,0.89 0.91,1.35 1.09,1.81 1.12,2.30 1.14,2.79 1.00,3.27 0.87,3.74 0.59,4.15 0.31,4.56 -0.08,4.85 -0.47,5.15 -0.94,5.31 -1.41,5.46 -1.90,5.46 -2.40,5.45 -2.86,5.29 -3.33,5.13 -3.72,4.83 -4.11,4.53 -4.39,4.12 -4.66,3.71 -4.79,3.23 -4.92,2.75 -4.89,2.26 -4.86,1.77 -4.67,1.31 -4.49,0.85 -4.17,0.48 -3.84,0.10 -3.42,-0.14 -2.99,-0.39 -2.51,-0.49 -2.03,-0.59 -1.54,-0.54 -1.05,-0.48 -0.60,-0.27 -0.15,-0.06 0.19,0.27 0.55,0.61 0.78,1.05 1.01,1.49 1.08,1.98 1.16,2.47 1.08,2.95 0.99,3.44 0.76,3.87 0.52,4.31 0.52,4.31 0.53,4.31 -0.41,5.90 -1.36,7.49 -1.61,7.84 -1.86,8.18 -2.19,8.45 -2.52,8.73 -2.90,8.91 -3.28,9.10 -3.70,9.19 -4.12,9.28 -4.54,9.27 -4.97,9.25 -5.38,9.14 -5.79,9.02 -6.16,8.81 -6.53,8.61 -6.84,8.31 -7.15,8.02 -7.38,7.66 -7.61,7.31 -7.75,6.90 -7.89,6.50 -7.93,6.08 -7.97,5.65 -7.91,5.23 -7.84,4.81 -7.68,4.42 -7.52,4.02 -6.96,3.71 -6.40,3.39 -5.05,2.08 -3.70,0.77 -2.59,-0.26 -1.48,-1.29 -0.68,-2.07 0.11,-2.85 1.67,-3.87 3.24,-4.88 3.65,-4.84 4.07,-4.79 4.46,-4.64 4.85,-4.50 5.19,-4.26 5.54,-4.03 5.82,-3.72 6.10,-3.40 6.29,-3.04 6.49,-2.67 6.59,-2.26 6.70,-1.86 6.70,-1.44 6.70,-1.02 6.60,-0.62 6.51,-0.21 6.31,0.15 6.12,0.52 5.85,0.84 5.57,1.15 5.23,1.39 4.89,1.63 4.50,1.78 4.11,1.93 3.69,1.99 3.28,2.04 1.71,1.85 0.15,1.67 0.76,2.72 1.37,3.78 0.32,3.44 -0.72,3.10 -1.29,2.48 -1.86,1.86 -2.06,1.61 -2.26,1.36 -2.39,1.07 -2.52,0.78 -2.58,0.47 -2.63,0.15 -2.61,-0.15 -2.59,-0.47 -2.50,-0.78 -2.40,-1.08 -2.24,-1.35 -2.08,-1.63 -1.85,-1.85 -1.62,-2.08 -1.35,-2.24 -1.08,-2.41 -0.78,-2.50 -0.47,-2.59 -0.15,-2.61 0.15,-2.63 0.47,-2.58 0.78,-2.52 1.07,-2.39 1.36,-2.26 1.61,-2.06 1.86,-1.86 1.86,-1.86 L 1.86,-1.86 Z"></path></g><g transform="translate(769 709.59375) rotate(0 2 -4.5)" stroke="none"><path fill="#1864ab" d="M -2.04,-0.87 Q -2.04,-0.87 -1.06,-2.84 -0.09,-4.80 0.73,-6.69 1.57,-8.58 1.74,-8.88 1.91,-9.18 2.16,-9.42 2.42,-9.65 2.74,-9.79 3.05,-9.93 3.40,-9.96 3.74,-9.99 4.08,-9.91 4.42,-9.83 4.71,-9.64 5.00,-9.46 5.22,-9.19 5.44,-8.92 5.56,-8.59 5.69,-8.27 5.70,-7.92 5.71,-7.58 5.61,-7.25 5.51,-6.91 5.31,-6.63 5.11,-6.35 4.83,-6.14 4.55,-5.94 4.22,-5.84 3.89,-5.73 3.54,-5.74 3.19,-5.75 2.87,-5.86 2.54,-5.98 2.27,-6.20 2.00,-6.41 1.81,-6.70 1.62,-6.99 1.54,-7.33 1.45,-7.66 1.48,-8.01 1.50,-8.36 1.64,-8.67 1.77,-8.99 2.00,-9.25 2.23,-9.51 2.53,-9.69 2.83,-9.86 3.17,-9.93 3.51,-9.99 3.86,-9.95 4.20,-9.90 4.51,-9.75 4.82,-9.60 5.07,-9.36 5.32,-9.11 5.47,-8.80 5.63,-8.49 5.68,-8.15 5.73,-7.81 5.66,-7.47 5.60,-7.13 5.60,-7.13 5.60,-7.13 4.57,-5.18 3.54,-3.24 2.79,-1.18 2.04,0.87 1.90,1.10 1.77,1.33 1.58,1.53 1.40,1.72 1.17,1.86 0.94,2.00 0.69,2.09 0.43,2.17 0.17,2.19 -0.09,2.21 -0.35,2.17 -0.62,2.13 -0.86,2.02 -1.11,1.92 -1.32,1.75 -1.54,1.59 -1.71,1.39 -1.87,1.18 -1.99,0.94 -2.10,0.69 -2.16,0.43 -2.21,0.17 -2.20,-0.09 -2.19,-0.36 -2.11,-0.61 -2.04,-0.87 -2.04,-0.87 L -2.04,-0.87 Z"></path></g><g transform="translate(780 705.59375) rotate(0 0.5 -1.5)" stroke="none"><path fill="#1864ab" d="M 2.12,-0.66 Q 2.12,-0.66 2.15,-0.13 2.18,0.40 1.96,0.88 1.74,1.36 1.32,1.69 0.91,2.02 0.38,2.12 -0.13,2.21 -0.64,2.05 -1.14,1.90 -1.52,1.52 -1.90,1.14 -2.05,0.64 -2.21,0.13 -2.12,-0.38 -2.02,-0.91 -1.69,-1.32 -1.36,-1.74 -0.88,-1.96 -0.39,-2.18 0.13,-2.15 0.66,-2.11 1.11,-1.84 1.57,-1.56 1.84,-1.11 L 2.12,-0.66 Z"></path></g><g transform="translate(801 700.59375) rotate(0 -3.5 -3)" stroke="none"><path fill="#1864ab" d="M -1.69,1.69 Q -1.69,1.69 -2.82,0.52 -3.95,-0.64 -5.82,-2.03 -7.69,-3.42 -7.96,-3.71 -8.23,-4.00 -8.40,-4.37 -8.56,-4.73 -8.60,-5.13 -8.64,-5.52 -8.55,-5.91 -8.46,-6.30 -8.25,-6.64 -8.04,-6.98 -7.73,-7.23 -7.43,-7.48 -7.06,-7.63 -6.68,-7.77 -6.29,-7.79 -5.89,-7.81 -5.51,-7.69 -5.12,-7.58 -4.80,-7.36 -4.47,-7.13 -4.23,-6.81 -4.00,-6.49 -3.87,-6.11 -3.75,-5.73 -3.75,-5.34 -3.76,-4.94 -3.89,-4.56 -4.02,-4.19 -4.27,-3.87 -4.51,-3.56 -4.84,-3.34 -5.17,-3.12 -5.56,-3.02 -5.94,-2.91 -6.34,-2.94 -6.74,-2.97 -7.11,-3.12 -7.47,-3.27 -7.77,-3.53 -8.08,-3.79 -8.28,-4.13 -8.48,-4.48 -8.56,-4.87 -8.64,-5.26 -8.59,-5.65 -8.55,-6.05 -8.37,-6.41 -8.20,-6.77 -7.93,-7.05 -7.65,-7.34 -7.29,-7.52 -6.94,-7.70 -6.55,-7.76 -6.15,-7.82 -5.76,-7.75 -5.37,-7.69 -5.02,-7.49 -4.67,-7.30 -4.67,-7.30 -4.67,-7.30 -2.65,-5.63 -0.64,-3.95 0.52,-2.82 1.69,-1.69 1.86,-1.46 2.04,-1.23 2.16,-0.97 2.28,-0.71 2.33,-0.42 2.38,-0.14 2.37,0.14 2.35,0.43 2.26,0.70 2.18,0.98 2.03,1.22 1.88,1.47 1.67,1.67 1.47,1.88 1.22,2.03 0.98,2.18 0.70,2.26 0.43,2.35 0.14,2.37 -0.14,2.38 -0.42,2.33 -0.71,2.28 -0.97,2.16 -1.23,2.04 -1.46,1.86 -1.69,1.69 -1.69,1.69 L -1.69,1.69 Z"></path></g><g transform="translate(804 684.59375) rotate(0 -6.5 1)" stroke="none"><path fill="#1864ab" d="M 0,2.35 Q 0,2.35 -1.72,2.31 -3.44,2.27 -5.00,2.26 -6.55,2.24 -9.11,3.24 -11.66,4.24 -12.06,4.24 -12.45,4.24 -12.82,4.12 -13.20,3.99 -13.51,3.75 -13.82,3.51 -14.04,3.19 -14.27,2.86 -14.37,2.48 -14.48,2.10 -14.45,1.71 -14.43,1.32 -14.29,0.95 -14.14,0.58 -13.89,0.28 -13.63,-0.01 -13.29,-0.21 -12.95,-0.41 -12.57,-0.50 -12.18,-0.58 -11.79,-0.54 -11.40,-0.49 -11.04,-0.33 -10.69,-0.16 -10.40,0.10 -10.12,0.37 -9.93,0.72 -9.75,1.07 -9.68,1.45 -9.62,1.84 -9.68,2.23 -9.75,2.62 -9.93,2.97 -10.12,3.32 -10.40,3.59 -10.69,3.86 -11.05,4.02 -11.41,4.19 -11.80,4.23 -12.19,4.27 -12.57,4.19 -12.96,4.10 -13.30,3.90 -13.63,3.70 -13.89,3.40 -14.14,3.10 -14.29,2.73 -14.43,2.36 -14.45,1.97 -14.48,1.58 -14.37,1.20 -14.26,0.82 -14.04,0.49 -13.82,0.17 -13.51,-0.06 -13.19,-0.30 -12.82,-0.43 -12.45,-0.55 -12.45,-0.55 -12.45,-0.55 -11.28,-0.75 -10.11,-0.95 -8.41,-1.60 -6.72,-2.24 -5.08,-2.26 -3.44,-2.27 -1.72,-2.31 0,-2.35 0.28,-2.32 0.56,-2.28 0.82,-2.18 1.09,-2.08 1.32,-1.92 1.56,-1.76 1.75,-1.55 1.93,-1.33 2.07,-1.08 2.20,-0.83 2.27,-0.55 2.33,-0.28 2.33,0.00 2.33,0.28 2.27,0.55 2.20,0.83 2.07,1.08 1.93,1.33 1.75,1.55 1.56,1.76 1.32,1.92 1.09,2.08 0.82,2.18 0.56,2.28 0.28,2.32 -0.00,2.35 -0.00,2.35 L 0,2.35 Z"></path></g></svg>