<svg version="1.1" xmlns="http://www.w3.org/2000/svg" viewBox="0 0 10020 817.265625" width="10020" height="817.265625">
  <!-- svg-source:excalidraw -->
  
  <defs>
    <style>
      @font-face {
        font-family: "Virgil";
        src: url("https://excalidraw.com/Virgil.woff2");
      }
      @font-face {
        font-family: "Cascadia";
        src: url("https://excalidraw.com/Cascadia.woff2");
      }
    </style>
  </defs>
  <rect x="0" y="0" width="10020" height="817.265625" fill="#fff0"></rect><g stroke-linecap="round" transform="translate(10 10) rotate(0 5000 0.5)"><path d="M-0.52 -0.26 C3022.65 -30.2, 6044.59 -29.2, 9999.32 0.22 M0.38 -0.31 C3948.03 -0.44, 7895.41 0.2, 9999.95 0.08 M10000.08 -0.06 C10000.09 0.27, 10000.05 0.48, 10000.09 0.92 M9999.97 0.01 C9999.95 0.33, 9999.98 0.72, 10000 0.99 M10000.22 1.51 C7095.77 35.76, 4193.15 34.95, -0.25 0.75 M10000.01 1.13 C7827.97 2.74, 5656.23 3.35, -0.33 0.84 M-0.04 1.01 C0 0.63, -0.06 0.15, 0.05 -0.03 M-0.04 0.95 C-0.04 0.73, -0.03 0.59, -0.05 -0.02" stroke="transparent" stroke-width="1" fill="none"></path></g><g stroke-linecap="round"><g transform="translate(598 807.265625) rotate(0 -1 -123.5)"><path d="M1.18 -1.08 C0.99 -42.06, -1.16 -206.13, -1.76 -246.91 M0.33 0.97 C0.07 -39.71, -1.96 -203.91, -2.58 -245.33" stroke="#000000" stroke-width="1" fill="none"></path></g><g transform="translate(598 807.265625) rotate(0 -1 -123.5)"><path d="M6.26 -216.88 C5.82 -224.8, 5.05 -230.87, -3.74 -244.3 M8.3 -218.25 C4.4 -225.16, 2.94 -234.3, -3.39 -244.82" stroke="#000000" stroke-width="1" fill="none"></path></g><g transform="translate(598 807.265625) rotate(0 -1 -123.5)"><path d="M-14.26 -216.6 C-9.64 -224.8, -5.36 -230.93, -3.74 -244.3 M-12.22 -217.97 C-10.06 -224.92, -5.46 -234.13, -3.39 -244.82" stroke="#000000" stroke-width="1" fill="none"></path></g></g><g stroke-linecap="round"><g transform="translate(577 782.265625) rotate(0 165.5 -1)"><path d="M0.92 -0.78 C56.05 -1.07, 275.01 -1.29, 329.91 -1.49 M-0.05 1.43 C55.5 0.75, 277.18 -3, 332.06 -3.35" stroke="#000000" stroke-width="1" fill="none"></path></g><g transform="translate(577 782.265625) rotate(0 165.5 -1)"><path d="M302.7 5.45 C311.3 3.46, 316.95 3.95, 330.15 -4.1 M303.42 7.45 C312.38 4.78, 322.73 0.36, 331.8 -2.57" stroke="#000000" stroke-width="1" fill="none"></path></g><g transform="translate(577 782.265625) rotate(0 165.5 -1)"><path d="M302.45 -15.07 C311.16 -12.31, 316.87 -7.08, 330.15 -4.1 M303.17 -13.07 C312.36 -8.84, 322.8 -6.35, 331.8 -2.57" stroke="#000000" stroke-width="1" fill="none"></path></g></g><g stroke-linecap="round"><g transform="translate(721 742.265625) rotate(0 37 -94)"><path d="M0.41 -0.49 C-10.89 -5.68, -57.91 -19.07, -68 -30.5 C-78.08 -41.93, -67.46 -54.79, -60.1 -69.05 C-52.74 -83.31, -27.52 -103.24, -23.85 -116.06 C-20.17 -128.89, -42.3 -137.9, -38.05 -146.01 C-33.8 -154.11, -9.7 -153.7, 1.66 -164.68 C13.01 -175.66, 16.37 -206.42, 30.08 -211.89 C43.78 -217.35, 81.15 -207.49, 83.88 -197.45 C86.6 -187.42, 44.29 -164.56, 46.41 -151.68 C48.52 -138.8, 84.2 -118.3, 96.57 -120.16 C108.94 -122.03, 113.21 -159.97, 120.63 -162.86 C128.04 -165.75, 142.6 -149.53, 141.06 -137.48 C139.53 -125.44, 126.07 -97.54, 111.41 -90.58 C96.75 -83.63, 61.08 -105.34, 53.08 -95.76 C45.08 -86.18, 57.21 -53.15, 63.41 -33.09 C69.62 -13.04, 100.97 19.19, 90.31 24.59 C79.65 29.99, 14.35 3.59, -0.53 -0.7 M-0.83 -1.8 C-11.75 -6.88, -55.88 -18.23, -65.81 -29.22 C-75.74 -40.22, -67.44 -53.46, -60.39 -67.75 C-53.34 -82.05, -26.99 -102.02, -23.52 -114.99 C-20.05 -127.97, -43.43 -137.19, -39.55 -145.62 C-35.67 -154.04, -11.45 -154.29, -0.25 -165.55 C10.95 -176.81, 13.7 -207.85, 27.63 -213.17 C41.55 -218.5, 79.9 -208.07, 83.31 -197.51 C86.72 -186.94, 45.7 -162.64, 48.08 -149.76 C50.47 -136.87, 85.52 -117.65, 97.63 -120.18 C109.75 -122.71, 113.74 -162.02, 120.75 -164.93 C127.76 -167.84, 141.17 -149.93, 139.69 -137.64 C138.2 -125.35, 125.88 -98.07, 111.85 -91.19 C97.83 -84.31, 63.53 -106.45, 55.55 -96.35 C47.57 -86.24, 57.96 -50.37, 63.96 -30.56 C69.95 -10.76, 101.9 17.45, 91.5 22.49 C81.11 27.53, 16.8 3.66, 1.6 -0.32" stroke="#000000" stroke-width="1" fill="none"></path></g></g><g stroke-linecap="round"><g transform="translate(770 725.265625) rotate(0 33.5 -2.5)"><path d="M-0.23 1.03 C10.79 0.07, 55.61 -5.24, 66.65 -6.1 M-1.8 0.52 C8.98 -0.3, 53.82 -4.05, 65.51 -5.14" stroke="#d9480f" stroke-width="1" fill="none"></path></g><g transform="translate(770 725.265625) rotate(0 33.5 -2.5)"><path d="M40.03 6.95 C45.89 1.56, 58.56 0.07, 64.79 -5.44 M37.56 6.73 C45.73 4.79, 52.56 0.83, 64.62 -4.5" stroke="#d9480f" stroke-width="1" fill="none"></path></g><g transform="translate(770 725.265625) rotate(0 33.5 -2.5)"><path d="M38.24 -13.49 C44.66 -11.84, 57.95 -6.29, 64.79 -5.44 M35.77 -13.72 C44.23 -10.4, 51.51 -9.12, 64.62 -4.5" stroke="#d9480f" stroke-width="1" fill="none"></path></g></g><g stroke-linecap="round"><g transform="translate(724 687.265625) rotate(0 -38 34.5)"><path d="M-0.21 0.16 C-12.85 11.83, -62.64 57.69, -75.17 69.07 M-1.78 -0.8 C-14.56 11.17, -63.34 58.93, -75.69 70.64" stroke="#d9480f" stroke-width="1" fill="none"></path></g><g transform="translate(724 687.265625) rotate(0 -38 34.5)"><path d="M-62.26 45.06 C-67.32 54.23, -73.07 62.87, -75.63 72.59 M-62 44.05 C-65.99 52.58, -70.21 59.75, -76.5 70.82" stroke="#d9480f" stroke-width="1" fill="none"></path></g><g transform="translate(724 687.265625) rotate(0 -38 34.5)"><path d="M-48.01 59.82 C-58.02 63.71, -68.84 67.1, -75.63 72.59 M-47.75 58.81 C-56.12 62.88, -64.65 65.58, -76.5 70.82" stroke="#d9480f" stroke-width="1" fill="none"></path></g></g><g stroke-linecap="round"><g transform="translate(825 665.265625) rotate(0 -49 -5.5)"><path d="M0.46 0.9 C-15.95 -1.05, -81.25 -9.33, -97.82 -11.28 M-0.76 0.33 C-17.36 -1.49, -82.7 -8.28, -98.67 -9.89" stroke="#d9480f" stroke-width="1" fill="none"></path></g><g transform="translate(825 665.265625) rotate(0 -49 -5.5)"><path d="M-68.08 -16.91 C-80.29 -16.14, -89.72 -12.73, -96.83 -8.52 M-69.67 -17.94 C-77.65 -14.52, -87.36 -12.46, -99.58 -10.71" stroke="#d9480f" stroke-width="1" fill="none"></path></g><g transform="translate(825 665.265625) rotate(0 -49 -5.5)"><path d="M-70.18 3.5 C-81.72 -2.94, -90.42 -6.73, -96.83 -8.52 M-71.77 2.47 C-79.18 -0.39, -88.25 -4.64, -99.58 -10.71" stroke="#d9480f" stroke-width="1" fill="none"></path></g></g><g stroke-linecap="round"><g transform="translate(752 563.265625) rotate(0 -43.5 -20.5)"><path d="M1.07 0.86 C-13.38 -5.72, -71.94 -33.24, -86.8 -40.38 M0.17 0.27 C-14.41 -6.59, -73.32 -35.27, -87.64 -42.17" stroke="#d9480f" stroke-width="1" fill="none"></path></g><g transform="translate(752 563.265625) rotate(0 -43.5 -20.5)"><path d="M-56.36 -38.78 C-65.43 -41.56, -76.79 -40.58, -88.45 -42.51 M-58.08 -39.69 C-64.75 -40.42, -69.9 -39.36, -86.75 -42.9" stroke="#d9480f" stroke-width="1" fill="none"></path></g><g transform="translate(752 563.265625) rotate(0 -43.5 -20.5)"><path d="M-65.31 -20.31 C-71.64 -28.55, -80.39 -32.95, -88.45 -42.51 M-67.03 -21.22 C-71.93 -25.75, -75.25 -28.46, -86.75 -42.9" stroke="#d9480f" stroke-width="1" fill="none"></path></g></g><g stroke-linecap="round" transform="translate(747 609.265625) rotate(0 8 7)"><path d="M-1.13 0.58 C3.48 0.35, 7.93 1.08, 16.42 -0.72 M0.5 -0.53 C4.1 0.36, 9.2 -0.1, 15.86 -0.35 M15.99 -1.23 C17.16 3.47, 17.15 6.24, 14.89 14.04 M15.73 -0.13 C15.88 5.37, 15.91 9.16, 16.41 13.38 M15.08 13.27 C10.31 14.16, 3.09 12.74, 0.88 14.08 M16.75 13.57 C13.36 14.22, 9.69 13.76, 0.47 14.68 M0.05 14.24 C1.37 10.8, 0.32 6.6, 0.89 1.04 M-0.24 13.94 C-0.41 9.95, -0.13 5.85, 0.02 -0.01" stroke="#1864ab" stroke-width="1" fill="none"></path></g><g stroke-linecap="round"><g transform="translate(760 617.265625) rotate(0 56 -30.5)"><path d="M0.64 0.46 C19.43 -9.66, 93.48 -50.77, 111.95 -61.2 M-0.49 -0.35 C18.21 -10.23, 92.5 -49.59, 110.98 -59.77" stroke="#1864ab" stroke-width="1" fill="none"></path></g><g transform="translate(760 617.265625) rotate(0 56 -30.5)"><path d="M91.79 -37.45 C95.46 -43.61, 98.57 -47.47, 109.05 -59.79 M91.83 -37.01 C94.29 -42.18, 99.74 -46.19, 110.01 -60.17" stroke="#1864ab" stroke-width="1" fill="none"></path></g><g transform="translate(760 617.265625) rotate(0 56 -30.5)"><path d="M82.06 -55.52 C87.93 -57.5, 93.32 -57.13, 109.05 -59.79 M82.09 -55.08 C86.77 -56.46, 94.29 -56.63, 110.01 -60.17" stroke="#1864ab" stroke-width="1" fill="none"></path></g></g><g transform="translate(897 532.265625) rotate(0 60 12.5)"><text x="0" y="18" font-family="Virgil, Segoe UI Emoji" font-size="20px" fill="#1864ab" text-anchor="start" style="white-space: pre;" direction="ltr">dm = dA*h*ρ</text></g><g transform="translate(960 584.265625) rotate(0 29.5 25)"><text x="0" y="18" font-family="Virgil, Segoe UI Emoji" font-size="20px" fill="#1864ab" text-anchor="start" style="white-space: pre;" direction="ltr">ω = 0</text><text x="0" y="43" font-family="Virgil, Segoe UI Emoji" font-size="20px" fill="#1864ab" text-anchor="start" style="white-space: pre;" direction="ltr"></text></g><g stroke-linecap="round"><g transform="translate(954.8069034697284 582.8984339765187) rotate(0 12.596548265135823 0.683595511740613)"><path d="M-0.6 0.36 C3.7 0.48, 20.58 1.15, 24.71 1.47 M1.29 -0.5 C5.48 -0.23, 19.29 2.9, 23.51 3.06" stroke="#1864ab" stroke-width="1" fill="none"></path></g><g transform="translate(954.8069034697284 582.8984339765187) rotate(0 12.596548265135823 0.683595511740613)"><path d="M11.56 5.25 C13.86 4.22, 17.33 3.58, 24.12 4.11 M11.04 5.79 C15.53 4.37, 19.6 3.65, 24.06 3.67" stroke="#1864ab" stroke-width="1" fill="none"></path></g><g transform="translate(954.8069034697284 582.8984339765187) rotate(0 12.596548265135823 0.683595511740613)"><path d="M12.71 -3.3 C14.83 -2.54, 18.05 -1.39, 24.12 4.11 M12.19 -2.76 C16.33 -1.07, 19.97 1.34, 24.06 3.67" stroke="#1864ab" stroke-width="1" fill="none"></path></g></g><g transform="translate(962 574.265625) rotate(0 0.00004999999998744897 0.00005000000000165983)" stroke="none"><path fill="#1864ab" d="M 1.57,-1.57 Q 1.57,-1.57 1.77,-1.27 1.98,-0.98 2.09,-0.64 2.20,-0.29 2.19,0.05 2.18,0.41 2.05,0.75 1.93,1.09 1.70,1.37 1.48,1.65 1.18,1.84 0.87,2.04 0.52,2.12 0.18,2.21 -0.17,2.18 -0.53,2.15 -0.86,2.01 -1.19,1.87 -1.46,1.63 -1.73,1.39 -1.90,1.07 -2.08,0.76 -2.15,0.41 -2.21,0.05 -2.17,-0.29 -2.12,-0.65 -1.96,-0.97 -1.80,-1.29 -1.54,-1.54 -1.29,-1.80 -0.97,-1.96 -0.65,-2.12 -0.29,-2.17 0.06,-2.21 0.41,-2.15 0.76,-2.08 1.07,-1.90 1.39,-1.73 1.63,-1.46 1.87,-1.19 2.01,-0.86 2.15,-0.53 2.18,-0.17 2.21,0.18 2.12,0.52 2.03,0.87 1.84,1.18 1.65,1.48 1.37,1.70 1.09,1.93 0.75,2.05 0.41,2.18 0.05,2.19 -0.30,2.20 -0.64,2.09 -0.98,1.98 -1.27,1.77 -1.57,1.56 -1.57,1.57 -1.57,1.57 -1.73,1.35 -1.90,1.14 -2.01,0.90 -2.12,0.66 -2.16,0.39 -2.21,0.13 -2.20,-0.13 -2.18,-0.40 -2.10,-0.65 -2.02,-0.91 -1.88,-1.14 -1.74,-1.36 -1.55,-1.55 -1.36,-1.74 -1.14,-1.88 -0.91,-2.02 -0.65,-2.10 -0.40,-2.18 -0.13,-2.20 0.13,-2.21 0.39,-2.16 0.66,-2.12 0.90,-2.01 1.14,-1.90 1.35,-1.73 1.57,-1.57 1.57,-1.57 L 1.57,-1.57 Z"></path></g><g transform="translate(956 650.265625) rotate(0 7 12.5)"><text x="0" y="18" font-family="Virgil, Segoe UI Emoji" font-size="20px" fill="#1864ab" text-anchor="start" style="white-space: pre;" direction="ltr">a</text></g><g stroke-linecap="round"><g transform="translate(947 644.265625) rotate(0 16 -2)"><path d="M-0.58 -0.99 C4.56 -1.63, 25.98 -3.74, 31.53 -4.06 M1.32 1.1 C6.19 0.69, 25.17 -1.59, 30.33 -2.55" stroke="#1864ab" stroke-width="1" fill="none"></path></g><g transform="translate(947 644.265625) rotate(0 16 -2)"><path d="M14.83 4.5 C21.2 3.35, 27.85 -0.53, 31.03 -2.15 M16.94 5.64 C21.38 1.64, 26.32 0.14, 30.49 -3.2" stroke="#1864ab" stroke-width="1" fill="none"></path></g><g transform="translate(947 644.265625) rotate(0 16 -2)"><path d="M13.2 -6.41 C20.14 -3.61, 27.37 -3.56, 31.03 -2.15 M15.31 -5.27 C20.35 -5.33, 25.87 -2.89, 30.49 -3.2" stroke="#1864ab" stroke-width="1" fill="none"></path></g></g><g stroke-linecap="round"><g transform="translate(908 715.265625) rotate(0 59.5 -1)"><path d="M-0.19 0.69 C19.6 0.29, 99.93 -1.51, 119.65 -2.11 M-1.76 0 C17.86 -0.22, 98.66 -0.29, 119.05 -0.64" stroke="#1864ab" stroke-width="1" fill="none"></path></g><g transform="translate(908 715.265625) rotate(0 59.5 -1)"><path d="M92.09 10.94 C101.25 4.53, 110.42 0.77, 119.16 0.27 M90.92 9.55 C101.4 5.95, 109.46 2.91, 118.95 -1.15" stroke="#1864ab" stroke-width="1" fill="none"></path></g><g transform="translate(908 715.265625) rotate(0 59.5 -1)"><path d="M91.92 -9.58 C101.19 -8.31, 110.42 -4.39, 119.16 0.27 M90.76 -10.97 C101.1 -7.58, 109.22 -3.61, 118.95 -1.15" stroke="#1864ab" stroke-width="1" fill="none"></path></g></g><g transform="translate(917 725.265625) rotate(0 84.5 25)"><text x="0" y="18" font-family="Virgil, Segoe UI Emoji" font-size="20px" fill="#1864ab" text-anchor="start" style="white-space: pre;" direction="ltr">Considero questa</text><text x="0" y="43" font-family="Virgil, Segoe UI Emoji" font-size="20px" fill="#1864ab" text-anchor="start" style="white-space: pre;" direction="ltr">forza</text></g></svg>