<svg version="1.1" xmlns="http://www.w3.org/2000/svg" viewBox="0 0 10020 819.4375" width="10020" height="819.4375">
  <!-- svg-source:excalidraw -->
  
  <defs>
    <style>
      @font-face {
        font-family: "Virgil";
        src: url("https://excalidraw.com/Virgil.woff2");
      }
      @font-face {
        font-family: "Cascadia";
        src: url("https://excalidraw.com/Cascadia.woff2");
      }
    </style>
  </defs>
  <rect x="0" y="0" width="10020" height="819.4375" fill="#fff0"></rect><g stroke-linecap="round" transform="translate(10 10) rotate(0 5000 0.5)"><path d="M-0.52 -0.26 C3022.65 -30.2, 6044.59 -29.2, 9999.32 0.22 M0.38 -0.31 C3948.03 -0.44, 7895.41 0.2, 9999.95 0.08 M10000.08 -0.06 C10000.09 0.27, 10000.05 0.48, 10000.09 0.92 M9999.97 0.01 C9999.95 0.33, 9999.98 0.72, 10000 0.99 M10000.22 1.51 C7095.77 35.76, 4193.15 34.95, -0.25 0.75 M10000.01 1.13 C7827.97 2.74, 5656.23 3.35, -0.33 0.84 M-0.04 1.01 C0 0.63, -0.06 0.15, 0.05 -0.03 M-0.04 0.95 C-0.04 0.73, -0.03 0.59, -0.05 -0.02" stroke="transparent" stroke-width="1" fill="none"></path></g><g stroke-linecap="round" transform="translate(778 549.4375) rotate(0 68.5 35)"><path d="M-0.7 -1.1 C37.81 -1.88, 78.85 -0.37, 138.74 -1.73 M-0.74 0.04 C52.52 -1.5, 104.25 -1.48, 137.63 0.61 M137.84 -1.41 C135.52 17.46, 138.5 37.08, 137.24 69.53 M136.84 -0.23 C137.17 24.4, 136.45 47.39, 137.77 69.06 M135.02 71.97 C88.58 72.12, 43 72.19, 0.75 71.75 M136.88 70.54 C93.19 68.91, 49.11 70.55, 0.81 70.42 M-0.32 69.8 C0.28 45.64, 1.92 20.26, 1.64 -0.16 M0.07 70.06 C-0.62 53.37, 0.2 35.53, -0.98 -0.25" stroke="#000" stroke-width="1" fill="none"></path></g><g stroke-linecap="round" transform="translate(784 689.4375) rotate(0 65.5 33)"><path d="M-1.48 0.08 C50.56 -2.33, 99.53 -2.28, 132.26 1.22 M0.42 -0.7 C35.79 -0.85, 73.62 -0.75, 131.12 -0.23 M130.68 -0.45 C131.81 23.73, 130.35 44.64, 132.54 64.12 M130.01 0.98 C130.77 23.57, 131.53 46.3, 131.38 66.87 M130.77 67.08 C89.24 63.92, 46.95 67.19, 1.62 66.85 M130.84 65.9 C82.57 66.32, 35.04 66.55, 0.82 65.92 M0.14 66.12 C-1.51 50.73, 0.15 33.06, -1.96 -0.5 M0.82 65.64 C-1.18 51.52, -0.75 35.52, 0.67 0.53" stroke="#000" stroke-width="1" fill="none"></path></g><g transform="translate(817 700.4375) rotate(0 39 25)"><text x="0" y="18" font-family="Virgil, Segoe UI Emoji" font-size="20px" fill="#000" text-anchor="start" style="white-space: pre;" direction="ltr">Learning</text><text x="0" y="43" font-family="Virgil, Segoe UI Emoji" font-size="20px" fill="#000" text-anchor="start" style="white-space: pre;" direction="ltr">machine</text></g><g stroke-linecap="round"><g transform="translate(580 581.4375) rotate(0 94.5 -1.5)"><path d="M-0.19 -0.12 C31.42 -0.4, 157.23 -1.83, 188.91 -2.11 M-1.75 -1.22 C29.76 -1.81, 156.02 -3.38, 187.91 -3.77" stroke="#000" stroke-width="1" fill="none"></path></g><g transform="translate(580 581.4375) rotate(0 94.5 -1.5)"><path d="M159.65 6.68 C168 5.85, 175.1 3.51, 187.75 -4.9 M159.91 5.97 C167.57 3.97, 174.2 0.22, 187.66 -4.49" stroke="#000" stroke-width="1" fill="none"></path></g><g transform="translate(580 581.4375) rotate(0 94.5 -1.5)"><path d="M159.4 -13.84 C167.74 -9.81, 174.9 -7.3, 187.75 -4.9 M159.65 -14.55 C167.58 -11.11, 174.27 -9.43, 187.66 -4.49" stroke="#000" stroke-width="1" fill="none"></path></g></g><g stroke-linecap="round"><g transform="translate(917 580.4375) rotate(0 103.35594907286577 0.5501532314345212)"><path d="M0.24 -0.77 C34.72 -0.34, 171.5 1.79, 206.06 2.2 M-1.09 1.44 C33.86 1.6, 173.69 0.95, 208.42 0.66" stroke="#000" stroke-width="1" fill="none"></path></g><g transform="translate(917 580.4375) rotate(0 103.35594907286577 0.5501532314345212)"><path d="M179.02 10 C188.65 10.11, 194.3 5.27, 206.94 1.02 M179.57 11.9 C190.33 7.81, 201.98 3.82, 208.52 -0.3" stroke="#000" stroke-width="1" fill="none"></path></g><g transform="translate(917 580.4375) rotate(0 103.35594907286577 0.5501532314345212)"><path d="M178.89 -10.53 C188.49 -5.67, 194.16 -5.78, 206.94 1.02 M179.44 -8.62 C190.29 -5.04, 201.99 -1.36, 208.52 -0.3" stroke="#000" stroke-width="1" fill="none"></path></g></g><g transform="translate(614 529.4375) rotate(0 24.5 12.5)"><text x="0" y="18" font-family="Virgil, Segoe UI Emoji" font-size="20px" fill="#000" text-anchor="start" style="white-space: pre;" direction="ltr">u (t)</text></g><g transform="translate(995 536.4375) rotate(0 23.5 12.5)"><text x="0" y="18" font-family="Virgil, Segoe UI Emoji" font-size="20px" fill="#000" text-anchor="start" style="white-space: pre;" direction="ltr">y (t)</text></g><g stroke-linecap="round"><g transform="translate(648 581.4375) rotate(0 62 75)"><path d="M-0.17 0.87 C0.18 23.81, -17.95 114.02, 2.82 138.77 C23.6 163.52, 104.22 147.51, 124.48 149.38 M-1.71 0.28 C-1.52 23.4, -18.64 112.04, 2.3 137.05 C23.25 162.07, 103.54 148.04, 123.97 150.37" stroke="#d9480f" stroke-width="1" fill="none"></path></g><g transform="translate(648 581.4375) rotate(0 62 75)"><path d="M97.5 162.74 C107.38 158.21, 115.19 154.08, 123.9 148.67 M96.16 161.23 C107.57 156.31, 118.04 152.24, 123.37 149.57" stroke="#d9480f" stroke-width="1" fill="none"></path></g><g transform="translate(648 581.4375) rotate(0 62 75)"><path d="M96.96 142.22 C107.22 145.15, 115.23 148.46, 123.9 148.67 M95.62 140.72 C107.09 143.82, 117.77 147.79, 123.37 149.57" stroke="#d9480f" stroke-width="1" fill="none"></path></g></g><g stroke-linecap="round"><g transform="translate(1013 582.4375) rotate(0 -42.5 70.5)"><path d="M0.96 1.13 C0.67 23.39, 11.82 109.74, -2.59 132.97 C-17.01 156.2, -71.8 139.14, -85.53 140.49 M0.01 0.68 C0.19 23.1, 14.24 110.49, -0.19 133.96 C-14.62 157.44, -72.49 140.16, -86.58 141.54" stroke="#d9480f" stroke-width="1" fill="none"></path></g><g transform="translate(1013 582.4375) rotate(0 -42.5 70.5)"><path d="M-55.63 133.12 C-65.95 135.16, -71.76 137.8, -86.4 139.68 M-56.58 134.27 C-63.13 135.34, -71.37 138.3, -85.99 141.85" stroke="#d9480f" stroke-width="1" fill="none"></path></g><g transform="translate(1013 582.4375) rotate(0 -42.5 70.5)"><path d="M-57.65 153.54 C-67.41 150.87, -72.75 148.82, -86.4 139.68 M-58.6 154.7 C-64.52 151.22, -72.31 149.63, -85.99 141.85" stroke="#d9480f" stroke-width="1" fill="none"></path></g></g><g stroke-linecap="round"><g transform="translate(854 757.4375) rotate(0 -1 26)"><path d="M0.38 0.34 C0.31 9.09, -0.86 44.57, -1.19 53.18 M-0.88 -0.53 C-0.96 7.86, -1.5 42.7, -1.71 51.68" stroke="#1864ab" stroke-width="1" fill="none"></path></g><g transform="translate(854 757.4375) rotate(0 -1 26)"><path d="M-9.58 28.42 C-6.06 33.45, -6.01 36.75, -2.43 51.49 M-9.9 27.9 C-7.91 36.21, -3.89 43.6, -1.2 51.24" stroke="#1864ab" stroke-width="1" fill="none"></path></g><g transform="translate(854 757.4375) rotate(0 -1 26)"><path d="M8.21 28.75 C7.58 33.76, 3.48 36.99, -2.43 51.49 M7.9 28.24 C4.03 36.26, 2.2 43.55, -1.2 51.24" stroke="#1864ab" stroke-width="1" fill="none"></path></g></g><g transform="translate(888 776.4375) rotate(0 27.5 12.5)"><text x="0" y="18" font-family="Virgil, Segoe UI Emoji" font-size="20px" fill="#1864ab" text-anchor="start" style="white-space: pre;" direction="ltr">Model</text></g><g transform="translate(678 624.4375) rotate(0 20.5 37.5)"><text x="0" y="18" font-family="Virgil, Segoe UI Emoji" font-size="20px" fill="#d9480f" text-anchor="start" style="white-space: pre;" direction="ltr">u(1)</text><text x="0" y="43" font-family="Virgil, Segoe UI Emoji" font-size="20px" fill="#d9480f" text-anchor="start" style="white-space: pre;" direction="ltr">u(2)</text><text x="0" y="68" font-family="Virgil, Segoe UI Emoji" font-size="20px" fill="#d9480f" text-anchor="start" style="white-space: pre;" direction="ltr">u(n)</text></g><g transform="translate(941 619.4375) rotate(0 19.5 37.5)"><text x="0" y="18" font-family="Virgil, Segoe UI Emoji" font-size="20px" fill="#d9480f" text-anchor="start" style="white-space: pre;" direction="ltr">y(1)</text><text x="0" y="43" font-family="Virgil, Segoe UI Emoji" font-size="20px" fill="#d9480f" text-anchor="start" style="white-space: pre;" direction="ltr">y(2)</text><text x="0" y="68" font-family="Virgil, Segoe UI Emoji" font-size="20px" fill="#d9480f" text-anchor="start" style="white-space: pre;" direction="ltr">y(n)</text></g><g transform="translate(783 571.9375) rotate(0 63.5 12.5)"><text x="63.5" y="18" font-family="Virgil, Segoe UI Emoji" font-size="20px" fill="#000000" text-anchor="middle" style="white-space: pre;" direction="ltr">S</text></g></svg>