<svg version="1.1" xmlns="http://www.w3.org/2000/svg" viewBox="0 0 10020 689.234375" width="10020" height="689.234375">
  <!-- svg-source:excalidraw -->
  
  <defs>
    <style>
      @font-face {
        font-family: "Virgil";
        src: url("https://excalidraw.com/Virgil.woff2");
      }
      @font-face {
        font-family: "Cascadia";
        src: url("https://excalidraw.com/Cascadia.woff2");
      }
    </style>
  </defs>
  <rect x="0" y="0" width="10020" height="689.234375" fill="#fff0"></rect><g stroke-linecap="round" transform="translate(10 10) rotate(0 5000 0.5)"><path d="M-0.52 -0.26 C3022.65 -30.2, 6044.59 -29.2, 9999.32 0.22 M0.38 -0.31 C3948.03 -0.44, 7895.41 0.2, 9999.95 0.08 M10000.08 -0.06 C10000.09 0.27, 10000.05 0.48, 10000.09 0.92 M9999.97 0.01 C9999.95 0.33, 9999.98 0.72, 10000 0.99 M10000.22 1.51 C7095.77 35.76, 4193.15 34.95, -0.25 0.75 M10000.01 1.13 C7827.97 2.74, 5656.23 3.35, -0.33 0.84 M-0.04 1.01 C0 0.63, -0.06 0.15, 0.05 -0.03 M-0.04 0.95 C-0.04 0.73, -0.03 0.59, -0.05 -0.02" stroke="transparent" stroke-width="1" fill="none"></path></g><g transform="translate(585 656.234375) rotate(0 2.5 1)" stroke="none"><path fill="#000000" d="M -1.84,-1.84 Q -1.84,-1.84 -0.98,-2.72 -0.12,-3.60 0.79,-4.22 1.72,-4.83 3.19,-5.00 4.66,-5.16 4.27,-5.11 3.88,-5.07 4.22,-5.12 4.56,-5.17 4.90,-5.14 5.25,-5.11 5.57,-4.99 5.89,-4.88 6.18,-4.69 6.47,-4.50 6.70,-4.25 6.94,-4.00 7.11,-3.70 7.27,-3.40 7.37,-3.07 7.46,-2.74 7.47,-2.40 7.48,-2.06 7.40,-1.72 7.33,-1.38 7.18,-1.08 7.03,-0.77 6.81,-0.50 6.59,-0.24 6.31,-0.04 6.03,0.15 5.71,0.28 5.40,0.41 4.00,1.70 2.60,2.98 1.03,3.63 -0.53,4.28 -1.95,4.42 -3.38,4.56 -3.11,4.47 -2.85,4.39 -3.23,4.43 -3.60,4.48 -3.98,4.43 -4.36,4.38 -4.71,4.25 -5.07,4.11 -5.38,3.89 -5.69,3.68 -5.94,3.39 -6.20,3.10 -6.37,2.77 -6.55,2.43 -6.64,2.06 -6.73,1.69 -6.72,1.31 -6.72,0.93 -6.63,0.56 -6.54,0.19 -6.36,-0.13 -6.18,-0.47 -5.93,-0.75 -5.67,-1.04 -5.36,-1.25 -5.05,-1.47 -4.69,-1.60 -4.33,-1.73 -3.24,-1.92 -2.15,-2.11 -1.23,-2.43 -0.31,-2.75 0.05,-2.87 0.42,-2.98 0.81,-3.01 1.20,-3.03 1.58,-2.96 1.96,-2.89 2.32,-2.74 2.67,-2.58 2.98,-2.34 3.29,-2.10 3.53,-1.79 3.77,-1.49 3.93,-1.13 4.09,-0.78 4.16,-0.40 4.23,-0.02 4.21,0.36 4.19,0.75 4.07,1.12 3.96,1.49 3.76,1.83 3.56,2.16 3.29,2.44 3.01,2.71 2.68,2.92 2.35,3.12 3.23,2.09 4.12,1.07 3.58,2.22 3.04,3.38 1.76,4.82 0.48,6.25 0.18,6.81 -0.12,7.37 -0.49,7.53 -0.87,7.68 -1.27,7.74 -1.67,7.80 -2.07,7.77 -2.48,7.73 -2.86,7.60 -3.24,7.47 -3.58,7.25 -3.92,7.03 -4.20,6.73 -4.48,6.43 -4.68,6.08 -4.88,5.73 -4.99,5.34 -5.09,4.95 -5.11,4.54 -5.12,4.14 -5.03,3.74 -4.95,3.34 -4.77,2.98 -4.59,2.61 -4.33,2.30 -4.07,1.99 -3.75,1.75 -3.42,1.51 -4.17,3.56 -4.92,5.61 -4.57,3.70 -4.23,1.80 -2.74,0.78 -1.25,-0.23 0.31,-0.79 1.87,-1.35 3.03,-1.41 4.19,-1.47 5.33,-1.45 6.48,-1.44 7.72,-0.96 8.97,-0.48 9.49,-0.36 10.01,-0.23 10.35,0.01 10.69,0.27 10.96,0.60 11.23,0.92 11.41,1.31 11.59,1.69 11.68,2.11 11.77,2.52 11.75,2.95 11.73,3.37 11.62,3.78 11.50,4.19 11.29,4.56 11.08,4.92 10.79,5.23 10.49,5.54 10.13,5.77 9.78,5.99 9.37,6.13 8.97,6.26 8.55,6.30 8.12,6.34 7.70,6.27 7.29,6.20 6.89,6.04 6.50,5.87 8.31,5.84 10.11,5.81 8.98,6.16 7.84,6.52 6.63,6.53 5.41,6.55 1.89,5.08 -1.61,3.61 -1.86,3.11 -2.10,2.62 -2.18,2.07 -2.25,1.52 -2.14,0.98 -2.04,0.43 -1.77,-0.04 -1.49,-0.52 -1.08,-0.89 -0.67,-1.25 -0.16,-1.47 0.34,-1.69 0.89,-1.73 1.44,-1.78 1.98,-1.64 2.52,-1.51 2.98,-1.21 3.45,-0.91 3.79,-0.48 4.14,-0.04 4.33,0.47 4.52,0.99 4.53,1.54 4.54,2.09 4.38,2.62 4.22,3.15 3.89,3.60 3.57,4.04 3.12,4.37 2.67,4.69 2.14,4.85 1.61,5.01 1.06,4.99 0.50,4.98 -0.00,4.79 -0.52,4.59 -0.95,4.25 -1.38,3.90 -1.68,3.43 -1.98,2.96 -2.11,2.43 -2.24,1.89 -2.19,1.34 -2.15,0.79 -1.93,0.28 -1.71,-0.22 -1.34,-0.63 -0.97,-1.04 -0.49,-1.31 -0.00,-1.58 0.53,-1.68 1.07,-1.79 1.62,-1.71 2.17,-1.63 2.66,-1.39 3.16,-1.14 3.55,-0.75 3.94,-0.36 3.94,-0.36 3.94,-0.36 2.98,0.05 2.03,0.46 4.06,0.24 6.10,0.03 8.05,-0.10 10.01,-0.23 10.35,0.01 10.69,0.27 10.96,0.59 11.23,0.92 11.41,1.31 11.59,1.69 11.68,2.11 11.77,2.52 11.75,2.95 11.74,3.37 11.62,3.78 11.50,4.19 11.29,4.55 11.08,4.92 10.79,5.23 10.49,5.54 10.13,5.77 9.78,5.99 9.37,6.13 8.97,6.26 8.55,6.30 8.12,6.34 7.70,6.27 7.29,6.20 6.89,6.04 6.50,5.87 5.90,5.69 5.29,5.50 3.97,5.51 2.66,5.52 1.49,5.36 0.32,5.21 0.71,3.98 1.11,2.76 0.49,5.07 -0.12,7.37 -0.49,7.53 -0.87,7.68 -1.27,7.74 -1.67,7.80 -2.07,7.77 -2.47,7.73 -2.86,7.60 -3.24,7.47 -3.58,7.25 -3.92,7.03 -4.20,6.73 -4.48,6.44 -4.68,6.08 -4.88,5.73 -4.99,5.34 -5.09,4.95 -5.11,4.54 -5.12,4.14 -5.03,3.74 -4.95,3.34 -4.77,2.98 -4.59,2.61 -4.33,2.30 -4.07,1.99 -3.75,1.75 -3.42,1.51 -2.76,0.87 -2.10,0.23 -1.21,-1.25 -0.31,-2.75 0.05,-2.87 0.42,-2.98 0.81,-3.01 1.20,-3.03 1.58,-2.96 1.96,-2.89 2.32,-2.74 2.67,-2.58 2.98,-2.34 3.29,-2.10 3.53,-1.79 3.77,-1.49 3.93,-1.13 4.09,-0.78 4.16,-0.40 4.23,-0.02 4.21,0.36 4.19,0.75 4.07,1.12 3.96,1.49 3.76,1.83 3.56,2.16 3.29,2.44 3.01,2.71 2.68,2.92 2.35,3.12 2.98,2.15 3.62,1.19 1.76,2.68 -0.09,4.18 -1.47,4.29 -2.85,4.39 -3.23,4.43 -3.60,4.48 -3.98,4.43 -4.36,4.38 -4.71,4.25 -5.07,4.11 -5.38,3.89 -5.69,3.68 -5.94,3.39 -6.20,3.10 -6.37,2.77 -6.55,2.43 -6.64,2.06 -6.73,1.69 -6.72,1.31 -6.72,0.93 -6.63,0.56 -6.54,0.19 -6.36,-0.13 -6.18,-0.47 -5.93,-0.75 -5.68,-1.04 -5.36,-1.25 -5.05,-1.47 -4.69,-1.60 -4.34,-1.73 -3.66,-1.55 -2.99,-1.36 -1.68,-1.81 -0.37,-2.26 0.79,-2.60 1.97,-2.94 2.92,-4.00 3.88,-5.07 4.22,-5.12 4.56,-5.17 4.90,-5.14 5.25,-5.11 5.57,-4.99 5.89,-4.88 6.18,-4.69 6.47,-4.50 6.70,-4.25 6.94,-4.00 7.11,-3.70 7.27,-3.40 7.37,-3.07 7.46,-2.74 7.47,-2.40 7.48,-2.06 7.40,-1.72 7.33,-1.38 7.18,-1.08 7.03,-0.77 6.81,-0.51 6.59,-0.24 6.31,-0.04 6.03,0.15 5.71,0.28 5.40,0.41 4.48,0.28 3.57,0.15 2.70,1.00 1.84,1.84 1.59,2.04 1.35,2.23 1.06,2.36 0.77,2.49 0.46,2.55 0.15,2.60 -0.15,2.58 -0.47,2.56 -0.77,2.47 -1.07,2.38 -1.34,2.21 -1.61,2.05 -1.83,1.83 -2.05,1.61 -2.21,1.34 -2.38,1.07 -2.47,0.77 -2.56,0.47 -2.58,0.15 -2.60,-0.15 -2.55,-0.46 -2.49,-0.77 -2.36,-1.06 -2.23,-1.35 -2.04,-1.59 -1.84,-1.84 -1.84,-1.84 L -1.84,-1.84 Z"></path></g><g transform="translate(725 558.234375) rotate(0 -3.5 0)" stroke="none"><path fill="#000000" d="M -1.47,2.21 Q -1.47,2.21 -2.57,1.29 -3.67,0.37 -4.15,-1.14 -4.63,-2.66 -4.23,-4.00 -3.84,-5.33 -1.51,-6.02 0.81,-6.71 2.01,-5.44 3.21,-4.17 4.11,-2.65 5.01,-1.12 4.82,0.60 4.64,2.33 3.28,4.03 1.93,5.73 -0.18,6.06 -2.29,6.39 -3.25,5.82 -4.22,5.25 -5.52,3.42 -6.83,1.60 -6.61,-0.19 -6.39,-1.98 -6.12,-2.17 -5.85,-2.35 -5.70,-2.73 -5.55,-3.12 -5.31,-3.45 -5.08,-3.79 -4.77,-4.06 -4.46,-4.33 -4.09,-4.52 -3.73,-4.70 -3.33,-4.80 -2.93,-4.89 -2.52,-4.89 -2.10,-4.89 -1.71,-4.79 -1.31,-4.68 -0.95,-4.49 -0.58,-4.30 -0.28,-4.02 0.02,-3.75 0.25,-3.41 0.48,-3.07 0.62,-2.68 0.76,-2.30 0.81,-1.89 0.85,-1.48 0.80,-1.07 0.75,-0.66 0.66,1.35 0.56,3.38 -0.15,4.47 -0.87,5.56 -2.42,6.70 -3.97,7.84 -6.12,8.00 -8.27,8.16 -9.83,6.33 -11.38,4.49 -11.18,3.18 -10.97,1.87 -9.99,1.00 -9.00,0.12 -8.07,-0.71 -7.14,-1.55 -4.94,-2.22 -2.74,-2.90 -2.21,-2.89 -1.68,-2.89 -1.18,-2.71 -0.67,-2.54 -0.26,-2.21 0.15,-1.88 0.45,-1.44 0.74,-1.00 0.88,-0.48 1.01,0.02 0.98,0.55 0.94,1.08 0.74,1.57 0.54,2.06 0.19,2.46 -0.15,2.86 -0.61,3.13 -1.07,3.40 -1.59,3.51 -2.11,3.62 -2.63,3.55 -3.16,3.49 -3.64,3.26 -4.12,3.03 -4.50,2.66 -4.88,2.29 -5.13,1.82 -5.37,1.35 -5.45,0.82 -5.53,0.30 -5.44,-0.21 -5.35,-0.74 -5.09,-1.20 -4.84,-1.67 -4.45,-2.03 -4.06,-2.39 -3.57,-2.61 -3.09,-2.83 -2.56,-2.88 -2.03,-2.93 -1.51,-2.81 -0.99,-2.69 -0.54,-2.41 -0.09,-2.13 0.24,-1.72 0.58,-1.31 0.77,-0.82 0.96,-0.32 0.98,0.20 1.00,0.73 0.86,1.24 0.71,1.75 0.40,2.19 0.10,2.62 -0.32,2.94 -0.74,3.26 -1.25,3.42 -1.75,3.58 -1.75,3.58 -1.75,3.58 -2.34,3.78 -2.93,3.98 -4.28,4.14 -5.62,4.30 -6.51,3.01 -7.40,1.72 -6.42,1.11 -5.44,0.50 -5.64,-0.92 -5.85,-2.35 -5.70,-2.73 -5.55,-3.12 -5.31,-3.45 -5.08,-3.79 -4.77,-4.06 -4.46,-4.33 -4.09,-4.52 -3.73,-4.70 -3.33,-4.80 -2.93,-4.89 -2.52,-4.89 -2.11,-4.89 -1.71,-4.79 -1.31,-4.68 -0.95,-4.49 -0.58,-4.30 -0.28,-4.02 0.02,-3.75 0.25,-3.41 0.48,-3.07 0.62,-2.68 0.76,-2.30 0.81,-1.89 0.85,-1.48 0.80,-1.07 0.75,-0.66 0.21,-0.30 -0.31,0.05 -1.15,-1.21 -1.98,-2.48 -0.88,-2.58 0.22,-2.67 0.84,-2.44 1.47,-2.21 1.71,-2.00 1.96,-1.79 2.14,-1.53 2.33,-1.27 2.45,-0.97 2.57,-0.67 2.61,-0.36 2.65,-0.04 2.62,0.27 2.59,0.59 2.48,0.89 2.37,1.19 2.19,1.46 2.01,1.73 1.78,1.94 1.54,2.16 1.26,2.31 0.98,2.47 0.67,2.55 0.36,2.63 0.04,2.64 -0.27,2.64 -0.59,2.57 -0.90,2.50 -1.18,2.35 -1.47,2.21 -1.47,2.21 L -1.47,2.21 Z"></path></g><g transform="translate(560 661.234375) rotate(0 6 -1.5)" stroke="none"><path fill="#1864ab" d="M -1.15,-2.31 Q -1.15,-2.31 -0.00,-2.90 1.14,-3.49 2.49,-3.86 3.83,-4.23 4.99,-4.38 6.16,-4.53 8.84,-5.17 11.53,-5.80 11.99,-5.75 12.44,-5.70 12.85,-5.50 13.27,-5.31 13.60,-4.99 13.93,-4.68 14.14,-4.27 14.35,-3.87 14.42,-3.42 14.50,-2.96 14.42,-2.51 14.34,-2.06 14.13,-1.66 13.91,-1.26 13.58,-0.94 13.24,-0.63 12.83,-0.44 12.41,-0.25 11.96,-0.20 11.50,-0.16 11.06,-0.26 10.61,-0.36 10.22,-0.60 9.83,-0.83 9.54,-1.18 9.24,-1.53 9.07,-1.96 8.91,-2.39 8.88,-2.84 8.86,-3.30 8.99,-3.74 9.11,-4.18 9.37,-4.56 9.63,-4.93 9.99,-5.21 10.36,-5.48 10.79,-5.63 11.23,-5.77 11.68,-5.77 12.14,-5.77 12.57,-5.62 13.01,-5.47 13.37,-5.19 13.73,-4.91 13.99,-4.53 14.24,-4.15 14.36,-3.71 14.48,-3.27 14.45,-2.81 14.43,-2.36 14.26,-1.93 14.08,-1.51 13.79,-1.16 13.49,-0.82 13.10,-0.58 12.70,-0.35 12.26,-0.25 11.81,-0.16 11.81,-0.16 11.81,-0.16 10.44,-0.06 9.07,0.02 7.94,0.43 6.80,0.84 5.12,1.01 3.45,1.19 2.30,1.75 1.15,2.31 0.86,2.42 0.57,2.52 0.25,2.56 -0.05,2.59 -0.36,2.54 -0.67,2.50 -0.96,2.38 -1.25,2.27 -1.50,2.08 -1.75,1.90 -1.96,1.66 -2.16,1.43 -2.30,1.15 -2.44,0.87 -2.51,0.56 -2.57,0.26 -2.57,-0.05 -2.56,-0.36 -2.48,-0.66 -2.40,-0.96 -2.25,-1.24 -2.10,-1.51 -1.89,-1.74 -1.68,-1.97 -1.42,-2.14 -1.15,-2.31 -1.15,-2.31 L -1.15,-2.31 Z"></path></g><g transform="translate(568 670.234375) rotate(0 1 -2.5)" stroke="none"><path fill="#1864ab" d="M -2.30,-0.76 Q -2.30,-0.76 -2.05,-1.65 -1.81,-2.53 0.67,-1.64 3.16,-0.75 2.94,-0.39 2.71,-0.03 2.38,0.23 2.05,0.50 1.65,0.65 1.26,0.80 0.83,0.82 0.41,0.83 0.00,0.71 -0.40,0.59 -0.75,0.35 -1.09,0.10 -1.35,-0.23 -1.60,-0.57 -1.73,-0.98 -1.86,-1.38 -1.85,-1.81 -1.84,-2.23 -1.70,-2.64 -1.56,-3.04 -1.29,-3.37 -1.03,-3.70 -0.67,-3.94 -0.32,-4.17 0.08,-4.28 0.50,-4.38 0.92,-4.35 1.35,-4.32 1.74,-4.16 2.13,-3.99 2.45,-3.71 2.77,-3.43 2.98,-3.06 3.19,-2.70 3.28,-2.28 3.36,-1.86 3.31,-1.44 3.26,-1.02 3.07,-0.63 2.89,-0.25 2.59,0.04 2.29,0.35 1.91,0.54 1.53,0.73 1.11,0.79 0.69,0.85 0.27,0.78 -0.14,0.70 -0.51,0.50 -0.88,0.29 -1.17,-0.01 -1.46,-0.33 -1.63,-0.72 -1.80,-1.11 -1.84,-1.53 -1.88,-1.95 -1.78,-2.37 -1.68,-2.78 -1.68,-2.78 -1.68,-2.78 0.63,-1.84 2.96,-0.91 2.63,-0.07 2.30,0.76 2.17,1.03 2.05,1.29 1.86,1.52 1.68,1.74 1.44,1.92 1.21,2.10 0.94,2.21 0.67,2.32 0.38,2.37 0.09,2.42 -0.19,2.40 -0.48,2.37 -0.76,2.28 -1.03,2.19 -1.28,2.03 -1.53,1.87 -1.73,1.66 -1.93,1.45 -2.08,1.20 -2.23,0.95 -2.31,0.67 -2.39,0.38 -2.40,0.09 -2.41,-0.19 -2.35,-0.48 -2.30,-0.76 -2.30,-0.76 L -2.30,-0.76 Z"></path></g><g transform="translate(574 676.234375) rotate(0 3.5 -1.5)" stroke="none"><path fill="#1864ab" d="M 2.22,-1.48 Q 2.22,-1.48 2.73,-0.71 3.24,0.06 3.54,-1.22 3.84,-2.50 3.84,-3.89 3.84,-5.28 3.93,-5.78 4.02,-6.28 4.26,-6.73 4.50,-7.18 4.87,-7.52 5.24,-7.87 5.70,-8.08 6.17,-8.29 6.67,-8.34 7.18,-8.40 7.68,-8.28 8.17,-8.17 8.61,-7.91 9.04,-7.64 9.37,-7.25 9.70,-6.86 9.88,-6.39 10.07,-5.91 10.09,-5.40 10.12,-4.90 9.98,-4.41 9.84,-3.92 9.55,-3.50 9.26,-3.08 8.85,-2.77 8.45,-2.47 7.96,-2.31 7.48,-2.15 6.97,-2.15 6.46,-2.15 5.98,-2.32 5.50,-2.49 5.10,-2.80 4.69,-3.11 4.41,-3.53 4.13,-3.95 3.99,-4.44 3.86,-4.94 3.89,-5.44 3.92,-5.95 4.11,-6.42 4.31,-6.89 4.64,-7.28 4.97,-7.67 5.41,-7.93 5.84,-8.19 6.34,-8.29 6.84,-8.40 7.35,-8.34 7.85,-8.28 8.31,-8.06 8.77,-7.85 9.14,-7.50 9.51,-7.14 9.74,-6.69 9.98,-6.24 10.06,-5.74 10.14,-5.24 10.14,-5.24 10.14,-5.24 10.08,-3.62 10.03,-2.01 9.73,-0.53 9.43,0.94 8.28,2.42 7.13,3.90 5.83,4.57 4.53,5.24 3.09,5.12 1.65,5.00 0.35,4.19 -0.94,3.38 -1.58,2.43 -2.22,1.48 -2.37,1.19 -2.51,0.90 -2.58,0.59 -2.66,0.27 -2.65,-0.04 -2.64,-0.36 -2.56,-0.67 -2.48,-0.98 -2.33,-1.27 -2.17,-1.55 -1.95,-1.79 -1.74,-2.03 -1.47,-2.20 -1.20,-2.38 -0.90,-2.49 -0.59,-2.60 -0.27,-2.64 0.04,-2.67 0.36,-2.63 0.68,-2.58 0.98,-2.46 1.28,-2.34 1.54,-2.16 1.80,-1.97 2.01,-1.72 2.22,-1.48 2.22,-1.48 L 2.22,-1.48 Z"></path></g><g transform="translate(596 675.234375) rotate(0 -2 -5)" stroke="none"><path fill="#1864ab" d="M -2.20,1.47 Q -2.20,1.47 -2.81,0.61 -3.41,-0.23 -4.03,-1.94 -4.65,-3.65 -5.72,-6.24 -6.79,-8.84 -6.85,-9.32 -6.90,-9.81 -6.80,-10.28 -6.71,-10.76 -6.46,-11.18 -6.22,-11.60 -5.85,-11.92 -5.48,-12.23 -5.03,-12.42 -4.58,-12.60 -4.10,-12.64 -3.62,-12.67 -3.15,-12.54 -2.68,-12.42 -2.27,-12.15 -1.87,-11.89 -1.57,-11.50 -1.27,-11.12 -1.11,-10.66 -0.95,-10.20 -0.94,-9.72 -0.93,-9.23 -1.08,-8.77 -1.23,-8.31 -1.52,-7.92 -1.81,-7.53 -2.21,-7.25 -2.61,-6.97 -3.08,-6.84 -3.54,-6.70 -4.03,-6.72 -4.51,-6.74 -4.97,-6.91 -5.42,-7.09 -5.79,-7.40 -6.17,-7.71 -6.42,-8.12 -6.68,-8.54 -6.79,-9.01 -6.90,-9.48 -6.85,-9.97 -6.81,-10.45 -6.61,-10.89 -6.41,-11.34 -6.08,-11.69 -5.75,-12.05 -5.32,-12.28 -4.90,-12.51 -4.42,-12.60 -3.94,-12.68 -3.46,-12.61 -2.98,-12.54 -2.55,-12.31 -2.12,-12.09 -1.78,-11.74 -1.44,-11.39 -1.23,-10.96 -1.02,-10.52 -1.02,-10.52 -1.02,-10.52 -0.50,-9.12 0.01,-7.73 0.47,-6.66 0.92,-5.59 1.01,-4.40 1.11,-3.21 1.66,-2.34 2.20,-1.47 2.35,-1.18 2.49,-0.90 2.56,-0.58 2.64,-0.27 2.63,0.04 2.62,0.36 2.54,0.67 2.46,0.98 2.31,1.26 2.16,1.54 1.94,1.77 1.72,2.01 1.46,2.19 1.19,2.37 0.89,2.47 0.59,2.58 0.27,2.62 -0.04,2.65 -0.36,2.61 -0.67,2.56 -0.97,2.44 -1.27,2.33 -1.53,2.14 -1.79,1.95 -2.00,1.71 -2.20,1.47 -2.20,1.47 L -2.20,1.47 Z"></path></g><g stroke-linecap="round"><g transform="translate(590 659.234375) rotate(0 63.29980500526726 -48.51259074397385)"><path d="M0.16 0.13 C21.08 -15.98, 105.31 -80.73, 126.2 -97.05 M-1.22 -0.85 C19.45 -16.72, 103.54 -79.52, 125.04 -95.53" stroke="#000000" stroke-width="1" fill="none"></path></g></g><g stroke-linecap="round"><g transform="translate(723 554.234375) rotate(0 20.106810186430806 38.90633915823419)"><path d="M-1.08 0.38 C5.48 13.07, 33.68 63.66, 40.43 76.68 M0.56 -0.47 C6.88 12.28, 32.71 64.79, 39.59 77.63" stroke="#000000" stroke-width="1" fill="none"></path></g></g><g transform="translate(563 615.234375) rotate(0 8 12.5)"><text x="0" y="18" font-family="Virgil, Segoe UI Emoji" font-size="20px" fill="#d9480f" text-anchor="start" style="white-space: pre;" direction="ltr">O</text></g><g transform="translate(749 565.234375) rotate(0 7 12.5)"><text x="0" y="18" font-family="Virgil, Segoe UI Emoji" font-size="20px" fill="#d9480f" text-anchor="start" style="white-space: pre;" direction="ltr">A</text></g><g transform="translate(764 638.234375) rotate(0 8 12.5)"><text x="0" y="18" font-family="Virgil, Segoe UI Emoji" font-size="20px" fill="#d9480f" text-anchor="start" style="white-space: pre;" direction="ltr">B</text></g><g transform="translate(833 568.234375) rotate(0 117.5 50)"><text x="0" y="18" font-family="Virgil, Segoe UI Emoji" font-size="20px" fill="#000000" text-anchor="start" style="white-space: pre;" direction="ltr">Cerniera in O =&gt; 2 GDV</text><text x="0" y="43" font-family="Virgil, Segoe UI Emoji" font-size="20px" fill="#000000" text-anchor="start" style="white-space: pre;" direction="ltr">Cerniera in A =&gt; 2 GDV</text><text x="0" y="68" font-family="Virgil, Segoe UI Emoji" font-size="20px" fill="#000000" text-anchor="start" style="white-space: pre;" direction="ltr"></text><text x="0" y="93" font-family="Virgil, Segoe UI Emoji" font-size="20px" fill="#000000" text-anchor="start" style="white-space: pre;" direction="ltr">    =&gt; 2 GDLa </text></g><g transform="translate(834 525.234375) rotate(0 99 12.5)"><text x="0" y="18" font-family="Virgil, Segoe UI Emoji" font-size="20px" fill="#d9480f" text-anchor="start" style="white-space: pre;" direction="ltr">2x3 GDL -&gt; 6 GDL</text></g><g stroke-linecap="round"><g transform="translate(836 551.234375) rotate(0 97.5 0)"><path d="M0.28 0.09 C32.72 0.04, 162.11 0.84, 194.75 0.76 M-1.04 -0.91 C31.22 -0.78, 160.84 -1.23, 193.67 -0.96" stroke="#d9480f" stroke-width="1" fill="none"></path></g></g><g stroke-linecap="round"><g transform="translate(590 659.234375) rotate(0 27.5 0)"><path d="M0.12 -0.36 C9.17 -0.57, 45.26 -0.63, 54.31 -0.7 M-1.27 -1.6 C8.16 -1.72, 47.56 0.18, 56.66 0.48" stroke="#d9480f" stroke-width="1" fill="none"></path></g></g><g stroke-linecap="round"><g transform="translate(726 560.234375) rotate(0 27.5 0)"><path d="M0.42 0.43 C9.73 0.42, 47.11 -0.22, 56.14 -0.13 M-0.82 -0.38 C8.41 -0.2, 46.71 1.42, 55.79 1.34" stroke="#d9480f" stroke-width="1" fill="none"></path></g></g><g stroke-linecap="round"><g transform="translate(722 561.234375) rotate(0 17.5 -15.5)"><path d="M-1.09 1.04 C4.57 -4.16, 27.89 -26.75, 34.06 -31.91 M0.54 0.54 C6.56 -4.47, 30.42 -25.48, 36.28 -30.85" stroke="#d9480f" stroke-width="1" fill="none"></path></g></g><g stroke-linecap="round"><g transform="translate(622 658.234375) rotate(0 -3 -11.5)"><path d="M0.6 0.19 C0.48 -2.82, 1.41 -13.45, 0.22 -17.14 C-0.97 -20.83, -5.55 -21.1, -6.55 -21.96 M-0.54 -0.76 C-0.89 -3.75, 0.57 -12.36, -0.61 -16.2 C-1.79 -20.03, -6.81 -22.38, -7.6 -23.76" stroke="#d9480f" stroke-width="1" fill="none"></path></g></g><g stroke-linecap="round"><g transform="translate(752 559.234375) rotate(0 -37.5 -0.5)"><path d="M1 -0.96 C-0.59 -6.25, -3.4 -24.64, -10.65 -31.02 C-17.91 -37.39, -32.9 -40.09, -42.53 -39.23 C-52.17 -38.36, -62.96 -32.93, -68.47 -25.82 C-73.99 -18.71, -77.57 -6.4, -75.61 3.43 C-73.65 13.26, -64.53 27.28, -56.71 33.16 C-48.89 39.04, -36.25 39.06, -28.7 38.72 C-21.14 38.38, -14.34 32.12, -11.38 31.12 M0.06 1.15 C-1.55 -4.09, -4.23 -23.48, -11.42 -30.01 C-18.6 -36.54, -33.54 -38.4, -43.05 -38.03 C-52.56 -37.65, -63.36 -34.77, -68.48 -27.76 C-73.59 -20.75, -75.35 -6.04, -73.74 4.04 C-72.13 14.13, -66.44 27.11, -58.8 32.73 C-51.16 38.35, -35.59 38.16, -27.89 37.76 C-20.2 37.36, -15.15 31.33, -12.61 30.32" stroke="#d9480f" stroke-width="1" fill="none"></path></g></g><g stroke-linecap="round"><g transform="translate(739 547.234375) rotate(0 -17 11)"><path d="M-0.44 -0.34 C-4.14 -1.91, -16.47 -8.59, -21.65 -8.5 C-26.82 -8.41, -29.28 -4.93, -31.49 0.2 C-33.71 5.34, -38.07 17.21, -34.96 22.33 C-31.85 27.44, -18.3 29.73, -12.85 30.89 C-7.4 32.04, -4.03 29.43, -2.27 29.25 M1.53 -1.56 C-1.82 -3.57, -13.69 -10.8, -19.27 -10.36 C-24.86 -9.91, -29.34 -4.56, -31.99 1.1 C-34.65 6.76, -38.18 18.58, -35.22 23.6 C-32.26 28.62, -19.42 29.9, -14.24 31.22 C-9.06 32.53, -6.29 31.96, -4.13 31.48" stroke="#d9480f" stroke-width="1" fill="none"></path></g></g><g stroke-linecap="round"><g transform="translate(1158 568.71875) rotate(0 0.5 54.5)"><path d="M0.63 -0.02 C0.81 18.27, 0.31 91.1, 0.48 109.23 M-0.5 -1.07 C-0.46 16.87, -1.03 88.73, -0.74 107.23" stroke="#d9480f" stroke-width="1" fill="none"></path></g><g transform="translate(1158 568.71875) rotate(0 0.5 54.5)"><path d="M-11.1 78.2 C-8.23 87.09, -6.43 92.9, 0.92 108.12 M-11.73 79.37 C-9.04 83.96, -6.14 90.09, -0.36 106.94" stroke="#d9480f" stroke-width="1" fill="none"></path></g><g transform="translate(1158 568.71875) rotate(0 0.5 54.5)"><path d="M9.42 78.15 C7.19 87.16, 3.89 92.99, 0.92 108.12 M8.79 79.32 C7.23 83.85, 5.88 89.98, -0.36 106.94" stroke="#d9480f" stroke-width="1" fill="none"></path></g></g></svg>