<svg version="1.1" xmlns="http://www.w3.org/2000/svg" viewBox="0 0 10020 815.8125" width="10020" height="815.8125">
  <!-- svg-source:excalidraw -->
  
  <defs>
    <style>
      @font-face {
        font-family: "Virgil";
        src: url("https://excalidraw.com/Virgil.woff2");
      }
      @font-face {
        font-family: "Cascadia";
        src: url("https://excalidraw.com/Cascadia.woff2");
      }
    </style>
  </defs>
  <rect x="0" y="0" width="10020" height="815.8125" fill="#fff0"></rect><g stroke-linecap="round" transform="translate(10 10) rotate(0 5000 0.5)"><path d="M-0.52 -0.26 C3022.65 -30.2, 6044.59 -29.2, 9999.32 0.22 M0.38 -0.31 C3948.03 -0.44, 7895.41 0.2, 9999.95 0.08 M10000.08 -0.06 C10000.09 0.27, 10000.05 0.48, 10000.09 0.92 M9999.97 0.01 C9999.95 0.33, 9999.98 0.72, 10000 0.99 M10000.22 1.51 C7095.77 35.76, 4193.15 34.95, -0.25 0.75 M10000.01 1.13 C7827.97 2.74, 5656.23 3.35, -0.33 0.84 M-0.04 1.01 C0 0.63, -0.06 0.15, 0.05 -0.03 M-0.04 0.95 C-0.04 0.73, -0.03 0.59, -0.05 -0.02" stroke="transparent" stroke-width="1" fill="none"></path></g><g stroke-linecap="round"><g transform="translate(562 771.8125) rotate(0 48 -55)"><path d="M-0.78 0.85 C14.88 -17.55, 78.82 -90.97, 95.04 -109.55 M1.02 0.26 C16.94 -18.59, 81.4 -93.11, 97.25 -111.44" stroke="#1864ab" stroke-width="1" fill="none"></path></g><g transform="translate(562 771.8125) rotate(0 48 -55)"><path d="M88 -85 C91.34 -93.43, 93.68 -106.52, 96.97 -111.98 M87.22 -84.19 C90.74 -94.02, 94.28 -104.43, 97.23 -110.97" stroke="#1864ab" stroke-width="1" fill="none"></path></g><g transform="translate(562 771.8125) rotate(0 48 -55)"><path d="M72.48 -98.42 C82.04 -101.45, 90.51 -109.24, 96.97 -111.98 M71.7 -97.61 C81.03 -102.26, 90.52 -107.53, 97.23 -110.97" stroke="#1864ab" stroke-width="1" fill="none"></path></g></g><g stroke-linecap="round"><g transform="translate(867 527.8125) rotate(0 -63 68)"><path d="M0.49 0.05 C-20.52 22.55, -104.42 112.38, -125.6 134.96 M-0.71 -0.97 C-21.89 21.65, -105.19 113.03, -126.34 135.95" stroke="#1864ab" stroke-width="1" fill="none"></path></g><g transform="translate(867 527.8125) rotate(0 -63 68)"><path d="M-114.76 108.91 C-120.48 116.71, -123.42 126.3, -126.24 135.11 M-115.72 107.58 C-118.45 118.22, -122.97 126.02, -127.17 136.43" stroke="#1864ab" stroke-width="1" fill="none"></path></g><g transform="translate(867 527.8125) rotate(0 -63 68)"><path d="M-99.64 122.77 C-110.47 125.95, -118.52 130.85, -126.24 135.11 M-100.6 121.45 C-108.34 127.6, -117.8 130.87, -127.17 136.43" stroke="#1864ab" stroke-width="1" fill="none"></path></g></g><g stroke-linecap="round"><g transform="translate(642 609.8125) rotate(0 66 53)"><path d="M-0.81 -0.9 C20.88 16.71, 109.1 88.4, 131.15 106.02 M0.97 1.24 C22.95 19.02, 111.83 90.19, 133.41 107.57" stroke="#000000" stroke-width="1" fill="none"></path></g></g><g stroke-linecap="round"><g transform="translate(739 664.8125) rotate(0 -61 70.5)"><path d="M-0.14 -0.5 C-20.33 23.26, -101.32 118.37, -121.69 142.16 M-1.68 -1.81 C-21.95 21.69, -102.2 116.93, -122.47 140.64" stroke="#000000" stroke-width="1" fill="none"></path></g></g><g stroke-linecap="round"><g transform="translate(659 657.8125) rotate(0 61 -70)"><path d="M-0.78 -0.05 C19.85 -23.5, 102.27 -116.89, 122.58 -140.1 M1.02 -1.12 C21.64 -24.43, 101.53 -115.26, 121.94 -138.61" stroke="#000000" stroke-width="1" fill="none"></path></g></g><g transform="translate(741 663.8125) rotate(0 0 1)" stroke="none"><path fill="#000000" d="M 2.28,-1.14 Q 2.28,-1.14 2.56,0.09 2.85,1.32 2.49,2.36 2.13,3.40 1.21,3.95 0.29,4.50 -0.66,1.06 -1.61,-2.37 -1.17,-2.48 -0.73,-2.59 -0.27,-2.56 0.17,-2.53 0.60,-2.35 1.02,-2.17 1.36,-1.87 1.70,-1.57 1.93,-1.17 2.16,-0.78 2.25,-0.33 2.33,0.11 2.28,0.56 2.22,1.01 2.02,1.42 1.82,1.84 1.50,2.16 1.18,2.49 0.77,2.69 0.36,2.90 -0.08,2.96 -0.53,3.03 -0.98,2.95 -1.43,2.86 -1.83,2.64 -2.23,2.42 -2.53,2.08 -2.84,1.74 -3.03,1.33 -3.21,0.91 -3.25,0.45 -3.29,0.00 -3.18,-0.44 -3.08,-0.88 -2.83,-1.27 -2.59,-1.65 -2.24,-1.94 -1.88,-2.23 -1.46,-2.39 -1.03,-2.55 -0.57,-2.57 -0.12,-2.58 0.31,-2.45 0.75,-2.32 1.12,-2.06 1.50,-1.79 1.76,-1.43 2.03,-1.06 2.17,-0.62 2.31,-0.19 2.30,0.26 2.29,0.72 2.14,1.15 1.98,1.58 1.70,1.93 1.41,2.29 1.03,2.54 0.65,2.79 0.65,2.79 0.65,2.79 -0.52,1.88 -1.70,0.97 -1.99,1.05 -2.28,1.14 -2.38,0.85 -2.49,0.56 -2.52,0.25 -2.55,-0.05 -2.50,-0.35 -2.46,-0.65 -2.35,-0.94 -2.23,-1.23 -2.05,-1.48 -1.87,-1.73 -1.64,-1.92 -1.40,-2.12 -1.13,-2.26 -0.85,-2.40 -0.55,-2.47 -0.25,-2.53 0.05,-2.53 0.35,-2.52 0.65,-2.44 0.95,-2.36 1.22,-2.22 1.49,-2.07 1.71,-1.86 1.94,-1.65 2.11,-1.39 2.28,-1.14 2.28,-1.14 L 2.28,-1.14 Z"></path></g><g transform="translate(656 659.8125) rotate(0 2 -1)" stroke="none"><path fill="#000000" d="M -2.07,-1.55 Q -2.07,-1.55 -1.20,-2.70 -0.33,-3.84 0.68,-4.99 1.70,-6.13 2.63,-6.84 3.55,-7.55 5.03,-7.81 6.51,-8.07 7.54,-7.63 8.57,-7.19 9.08,-6.25 9.58,-5.31 9.72,-3.94 9.86,-2.58 9.44,-1.40 9.02,-0.22 7.98,1.06 6.95,2.36 4.98,3.53 3.01,4.71 1.96,5.38 0.91,6.05 -0.45,6.19 -1.81,6.32 -3.61,5.29 -5.40,4.26 -5.83,2.55 -6.25,0.84 -5.82,-0.66 -5.39,-2.18 -1.48,-2.37 2.42,-2.56 2.59,-2.05 2.76,-1.54 2.76,-1.00 2.76,-0.46 2.59,0.04 2.41,0.56 2.09,0.99 1.76,1.42 1.31,1.72 0.86,2.02 0.34,2.17 -0.17,2.31 -0.71,2.28 -1.25,2.25 -1.75,2.05 -2.25,1.85 -2.67,1.50 -3.08,1.15 -3.36,0.69 -3.63,0.22 -3.75,-0.30 -3.87,-0.82 -3.81,-1.36 -3.75,-1.90 -3.52,-2.39 -3.29,-2.88 -2.92,-3.27 -2.55,-3.67 -2.07,-3.92 -1.59,-4.17 -1.06,-4.26 -0.52,-4.35 0.00,-4.26 0.53,-4.17 1.01,-3.91 1.49,-3.66 1.86,-3.27 2.23,-2.87 2.46,-2.38 2.69,-1.89 2.74,-1.35 2.80,-0.82 2.68,-0.29 2.57,0.23 2.29,0.69 2.01,1.16 1.60,1.51 1.18,1.86 0.68,2.05 0.18,2.25 -0.35,2.28 -0.89,2.31 -1.41,2.17 -1.94,2.02 -2.38,1.72 -2.83,1.41 -3.16,0.98 -3.48,0.55 -3.48,0.55 -3.48,0.55 -2.11,0.14 -0.74,-0.26 0.46,-0.65 1.66,-1.03 2.45,-1.85 3.23,-2.67 4.37,-2.69 5.50,-2.71 4.64,-1.73 3.78,-0.75 2.93,0.40 2.07,1.55 1.86,1.78 1.64,2.01 1.38,2.17 1.11,2.34 0.81,2.44 0.52,2.54 0.20,2.57 -0.10,2.59 -0.41,2.54 -0.72,2.49 -1.00,2.37 -1.29,2.25 -1.54,2.06 -1.79,1.87 -1.99,1.63 -2.19,1.39 -2.32,1.10 -2.46,0.82 -2.52,0.51 -2.58,0.21 -2.57,-0.10 -2.56,-0.41 -2.47,-0.71 -2.39,-1.01 -2.23,-1.28 -2.07,-1.55 -2.07,-1.55 L -2.07,-1.55 Z"></path></g><g transform="translate(614 625.8125) rotate(0 10 12.5)"><text x="0" y="18" font-family="Virgil, Segoe UI Emoji" font-size="20px" fill="#000000" text-anchor="start" style="white-space: pre;" direction="ltr">P1</text></g><g transform="translate(662 586.8125) rotate(0 14 12.5)"><text x="0" y="18" font-family="Virgil, Segoe UI Emoji" font-size="20px" fill="#000000" text-anchor="start" style="white-space: pre;" direction="ltr">P3</text></g><g transform="translate(777 656.8125) rotate(0 14 12.5)"><text x="0" y="18" font-family="Virgil, Segoe UI Emoji" font-size="20px" fill="#000000" text-anchor="start" style="white-space: pre;" direction="ltr">P2</text></g><g transform="translate(731 691.8125) rotate(0 13.5 12.5)"><text x="0" y="18" font-family="Virgil, Segoe UI Emoji" font-size="20px" fill="#000000" text-anchor="start" style="white-space: pre;" direction="ltr">P4</text></g><g transform="translate(727 680.8125) rotate(0 -2.5 0.5)" stroke="none"><path fill="#000000" d="M -2.19,-1.46 Q -2.19,-1.46 -1.61,-2.36 -1.03,-3.26 -0.56,-3.63 -0.09,-3.99 0.12,-4.24 0.34,-4.50 0.61,-4.69 0.88,-4.88 1.19,-5.01 1.50,-5.13 1.83,-5.18 2.16,-5.22 2.50,-5.19 2.83,-5.15 3.14,-5.04 3.46,-4.93 3.73,-4.74 4.01,-4.56 4.24,-4.31 4.46,-4.06 4.62,-3.77 4.78,-3.48 4.87,-3.15 4.95,-2.83 4.96,-2.50 4.96,-2.16 4.89,-1.84 4.81,-1.51 4.66,-1.21 4.51,-0.92 3.02,0.43 1.53,1.78 0.12,2.79 -1.28,3.80 -3.69,5.18 -6.10,6.56 -6.58,6.64 -7.07,6.71 -7.55,6.63 -8.03,6.54 -8.46,6.31 -8.89,6.08 -9.23,5.72 -9.56,5.36 -9.76,4.91 -9.96,4.47 -10.01,3.98 -10.06,3.49 -9.95,3.01 -9.84,2.54 -9.58,2.12 -9.33,1.70 -8.95,1.39 -8.58,1.07 -8.12,0.90 -7.66,0.72 -7.17,0.70 -6.68,0.68 -6.21,0.81 -5.74,0.95 -5.34,1.22 -4.94,1.50 -4.64,1.90 -4.35,2.29 -4.20,2.75 -4.05,3.22 -4.05,3.71 -4.05,4.20 -4.22,4.66 -4.38,5.13 -4.68,5.51 -4.98,5.90 -5.38,6.17 -5.79,6.44 -6.27,6.57 -6.74,6.70 -7.23,6.66 -7.72,6.63 -8.17,6.45 -8.62,6.26 -8.99,5.94 -9.36,5.62 -9.61,5.20 -9.86,4.78 -9.96,4.30 -10.06,3.82 -10.01,3.33 -9.95,2.85 -9.74,2.40 -9.53,1.96 -9.19,1.61 -8.85,1.25 -8.41,1.03 -7.98,0.80 -7.98,0.80 -7.98,0.80 -6.93,0.36 -5.88,-0.08 -4.41,-1.02 -2.94,-1.96 -1.51,-2.98 -0.09,-3.99 0.12,-4.24 0.34,-4.50 0.61,-4.69 0.88,-4.88 1.19,-5.01 1.50,-5.13 1.83,-5.18 2.16,-5.22 2.50,-5.19 2.83,-5.15 3.14,-5.04 3.46,-4.93 3.73,-4.74 4.01,-4.56 4.24,-4.31 4.46,-4.06 4.62,-3.77 4.78,-3.48 4.87,-3.15 4.95,-2.83 4.96,-2.50 4.96,-2.16 4.89,-1.84 4.81,-1.51 4.66,-1.21 4.51,-0.92 3.92,-0.55 3.33,-0.18 2.76,0.64 2.19,1.46 1.98,1.70 1.77,1.94 1.52,2.12 1.26,2.31 0.96,2.43 0.67,2.54 0.35,2.59 0.04,2.63 -0.27,2.60 -0.58,2.56 -0.88,2.46 -1.18,2.35 -1.45,2.17 -1.71,2.00 -1.93,1.76 -2.14,1.53 -2.29,1.25 -2.44,0.97 -2.52,0.66 -2.61,0.35 -2.61,0.04 -2.62,-0.27 -2.54,-0.58 -2.47,-0.89 -2.33,-1.17 -2.19,-1.46 -2.19,-1.46 L -2.19,-1.46 Z"></path></g><g transform="translate(679 634.8125) rotate(0 -7.5 1)" stroke="none"><path fill="#000000" d="M 0.64,2.56 Q 0.64,2.56 -0.50,2.86 -1.65,3.16 -3.57,3.44 -5.50,3.72 -6.80,3.74 -8.10,3.76 -9.86,3.82 -11.62,3.89 -12.88,3.94 -14.14,4.00 -14.50,3.96 -14.85,3.91 -15.19,3.79 -15.53,3.66 -15.83,3.45 -16.13,3.25 -16.37,2.98 -16.61,2.71 -16.78,2.39 -16.95,2.07 -17.04,1.71 -17.13,1.36 -17.13,1.00 -17.13,0.64 -17.04,0.29 -16.96,-0.05 -16.79,-0.38 -16.62,-0.70 -16.38,-0.97 -16.14,-1.24 -15.84,-1.45 -15.55,-1.65 -15.21,-1.78 -14.87,-1.91 -14.51,-1.96 -14.15,-2.00 -15.55,-1.09 -16.95,-0.17 -16.42,-1.19 -15.88,-2.21 -15.01,-3.13 -14.13,-4.06 -12.72,-4.73 -11.32,-5.40 -10.08,-5.62 -8.83,-5.83 -7.74,-6.11 -6.65,-6.38 -5.41,-6.52 -4.17,-6.65 -3.04,-6.30 -1.91,-5.95 -0.90,-5.51 0.10,-5.07 1.37,-3.52 2.64,-1.97 2.46,0.39 2.29,2.76 1.40,4.12 0.51,5.48 -1.10,7.01 -2.73,8.54 -4.33,8.91 -5.94,9.27 -8.88,7.61 -11.82,5.95 -11.97,5.42 -12.12,4.90 -12.10,4.35 -12.07,3.80 -11.88,3.29 -11.68,2.78 -11.33,2.36 -10.98,1.94 -10.51,1.65 -10.04,1.36 -9.51,1.24 -8.98,1.11 -8.43,1.17 -7.88,1.22 -7.38,1.45 -6.89,1.67 -6.48,2.04 -6.08,2.42 -5.82,2.90 -5.56,3.38 -5.46,3.92 -5.37,4.46 -5.45,5.00 -5.54,5.54 -5.79,6.03 -6.04,6.52 -6.43,6.90 -6.83,7.28 -7.32,7.51 -7.82,7.75 -8.36,7.81 -8.91,7.88 -9.44,7.77 -9.98,7.65 -10.45,7.38 -10.92,7.10 -11.28,6.68 -11.64,6.27 -11.85,5.76 -12.06,5.26 -12.09,4.71 -12.13,4.16 -11.99,3.63 -11.85,3.10 -11.54,2.65 -11.24,2.19 -10.81,1.85 -10.37,1.52 -9.86,1.34 -9.34,1.16 -8.79,1.15 -8.24,1.15 -7.72,1.32 -7.20,1.49 -6.76,1.81 -6.32,2.14 -6.01,2.59 -5.70,3.04 -5.70,3.04 -5.70,3.04 -5.43,2.61 -5.17,2.18 -4.03,1.42 -2.89,0.66 -3.98,0.03 -5.08,-0.59 -6.52,-0.17 -7.96,0.23 -9.56,0.63 -11.16,1.02 -12.65,2.51 -14.14,4.00 -14.49,3.96 -14.85,3.91 -15.19,3.79 -15.53,3.66 -15.83,3.45 -16.13,3.25 -16.37,2.98 -16.61,2.71 -16.78,2.39 -16.95,2.07 -17.04,1.72 -17.13,1.36 -17.13,1.00 -17.13,0.64 -17.04,0.29 -16.96,-0.05 -16.79,-0.38 -16.62,-0.70 -16.38,-0.97 -16.14,-1.24 -15.84,-1.45 -15.55,-1.65 -15.21,-1.78 -14.87,-1.91 -14.51,-1.96 -14.15,-2.00 -12.90,-1.95 -11.64,-1.90 -9.92,-1.86 -8.20,-1.82 -7.01,-1.85 -5.82,-1.87 -4.38,-1.94 -2.94,-2.01 -1.79,-2.28 -0.64,-2.56 -0.32,-2.60 -0.00,-2.64 0.30,-2.60 0.62,-2.56 0.92,-2.45 1.21,-2.34 1.48,-2.16 1.74,-1.98 1.95,-1.74 2.16,-1.50 2.31,-1.22 2.46,-0.94 2.54,-0.63 2.62,-0.32 2.62,-0.00 2.62,0.30 2.54,0.61 2.47,0.92 2.32,1.21 2.17,1.49 1.96,1.73 1.75,1.97 1.49,2.15 1.23,2.33 0.93,2.44 0.64,2.56 0.64,2.56 L 0.64,2.56 Z"></path></g><g transform="translate(776 710.8125) rotate(0 0.5 4.5)" stroke="none"><path fill="#000000" d="M -0.64,-2.58 Q -0.64,-2.58 0.50,-2.88 1.64,-3.18 4.09,-3.07 6.55,-2.97 7.91,-1.69 9.27,-0.42 9.59,0.89 9.91,2.21 9.51,3.56 9.12,4.91 8.08,6.09 7.04,7.26 5.98,8.33 4.93,9.41 3.46,10.48 2.00,11.55 0.71,12.18 -0.58,12.81 -2.13,12.62 -3.69,12.42 -5.40,11.50 -7.10,10.58 -8.25,9.48 -9.39,8.39 -9.80,6.30 -10.21,4.21 -9.83,2.89 -9.45,1.58 -8.81,0.65 -8.17,-0.26 -7.18,-0.96 -6.18,-1.67 -4.60,-2.00 -3.01,-2.33 -0.55,-2.53 1.91,-2.72 3.06,-2.14 4.21,-1.56 4.39,0.48 4.57,2.53 3.81,3.74 3.05,4.94 1.91,6.08 0.77,7.22 0.71,7.26 0.65,7.29 0.42,7.64 0.19,7.99 -0.11,8.27 -0.42,8.55 -0.78,8.75 -1.15,8.95 -1.56,9.06 -1.96,9.17 -2.38,9.17 -2.80,9.18 -3.21,9.09 -3.61,8.99 -3.99,8.80 -4.36,8.62 -4.68,8.34 -5.00,8.07 -5.24,7.73 -5.48,7.39 -5.64,7.00 -5.79,6.61 -5.85,6.20 -5.91,5.78 -5.86,5.37 -5.82,4.95 -5.68,4.56 -5.53,4.16 -4.73,2.68 -3.93,1.20 -3.66,0.76 -3.39,0.33 -2.99,0.01 -2.59,-0.30 -2.12,-0.48 -1.64,-0.65 -1.13,-0.67 -0.62,-0.69 -0.13,-0.54 0.35,-0.39 0.76,-0.09 1.18,0.19 1.48,0.61 1.78,1.02 1.93,1.51 2.08,1.99 2.07,2.50 2.06,3.01 1.88,3.49 1.71,3.97 1.39,4.37 1.07,4.77 0.64,5.05 0.22,5.32 -0.27,5.45 -0.76,5.57 -1.27,5.53 -1.78,5.50 -2.25,5.30 -2.72,5.10 -3.10,4.76 -3.48,4.42 -3.74,3.97 -3.99,3.53 -4.09,3.03 -4.18,2.53 -4.12,2.02 -4.05,1.52 -3.83,1.06 -3.60,0.60 -3.24,0.24 -2.88,-0.11 -2.43,-0.34 -1.97,-0.57 -1.46,-0.64 -0.96,-0.71 -0.46,-0.62 0.04,-0.52 0.48,-0.27 0.93,-0.02 1.27,0.34 1.61,0.72 1.81,1.19 2.02,1.66 2.06,2.17 2.10,2.68 1.98,3.17 1.86,3.67 1.86,3.67 1.86,3.67 1.26,5.48 0.65,7.29 0.42,7.64 0.19,7.99 -0.11,8.27 -0.42,8.55 -0.78,8.75 -1.15,8.95 -1.56,9.06 -1.96,9.17 -2.38,9.17 -2.80,9.18 -3.21,9.09 -3.61,8.99 -3.99,8.80 -4.36,8.62 -4.68,8.34 -5.00,8.07 -5.24,7.73 -5.48,7.39 -5.64,7.00 -5.79,6.61 -5.85,6.20 -5.91,5.78 -5.86,5.37 -5.82,4.95 -5.68,4.56 -5.53,4.16 -4.98,3.82 -4.43,3.48 -3.72,2.68 -3.00,1.87 -1.94,1.09 -0.87,0.31 -0.88,1.59 -0.90,2.87 0.31,3.19 1.53,3.52 0.28,3.96 -0.96,4.40 -2.29,4.25 -3.62,4.09 -3.34,5.16 -3.06,6.23 -1.70,6.11 -0.35,6.00 0.71,4.99 1.77,3.98 2.36,3.01 2.95,2.03 1.79,2.31 0.64,2.58 0.32,2.62 0.00,2.66 -0.31,2.62 -0.62,2.58 -0.92,2.47 -1.23,2.36 -1.49,2.18 -1.75,1.99 -1.97,1.76 -2.18,1.52 -2.33,1.23 -2.48,0.95 -2.56,0.64 -2.64,0.32 -2.64,0.00 -2.64,-0.31 -2.56,-0.62 -2.49,-0.93 -2.34,-1.22 -2.19,-1.50 -1.98,-1.74 -1.77,-1.98 -1.50,-2.17 -1.24,-2.35 -0.94,-2.46 -0.64,-2.58 -0.64,-2.58 L -0.64,-2.58 Z"></path></g><g transform="translate(831 687.8125) rotate(0 8 12.5)"><text x="0" y="18" font-family="Virgil, Segoe UI Emoji" font-size="20px" fill="#000000" text-anchor="start" style="white-space: pre;" direction="ltr">O</text></g><g transform="translate(845 578.8125) rotate(0 13.5 12.5)"><text x="0" y="18" font-family="Virgil, Segoe UI Emoji" font-size="20px" fill="#1864ab" text-anchor="start" style="white-space: pre;" direction="ltr">F2</text></g><g transform="translate(566 682.8125) rotate(0 9 12.5)"><text x="0" y="18" font-family="Virgil, Segoe UI Emoji" font-size="20px" fill="#1864ab" text-anchor="start" style="white-space: pre;" direction="ltr">F1</text></g><g stroke-linecap="round"><g transform="translate(743 687.8125) rotate(0 1 -11.5)"><path d="M0.49 0 C2.02 -1.83, 8.96 -6.24, 7.97 -10.05 C6.98 -13.85, -3.3 -20.52, -5.45 -22.83 M-0.71 -1.05 C0.76 -3.28, 7.88 -8.28, 7.01 -11.67 C6.14 -15.07, -3.46 -19.49, -5.93 -21.43" stroke="#d9480f" stroke-width="1" fill="none"></path></g></g><g stroke-linecap="round"><g transform="translate(691 649.3125) rotate(0 1 -11.5)"><path d="M0.02 0.37 C1.63 -1.58, 10.06 -7.36, 8.92 -11.35 C7.78 -15.33, -4.25 -21.42, -6.8 -23.55 M-1.42 -0.49 C0.17 -2.29, 8.94 -6.32, 8.46 -9.99 C7.97 -13.67, -1.86 -20.26, -4.32 -22.53" stroke="#d9480f" stroke-width="1" fill="none"></path></g></g></svg>