<svg version="1.1" xmlns="http://www.w3.org/2000/svg" viewBox="0 0 10020 722.25" width="10020" height="722.25">
  <!-- svg-source:excalidraw -->
  
  <defs>
    <style>
      @font-face {
        font-family: "Virgil";
        src: url("https://excalidraw.com/Virgil.woff2");
      }
      @font-face {
        font-family: "Cascadia";
        src: url("https://excalidraw.com/Cascadia.woff2");
      }
    </style>
  </defs>
  <rect x="0" y="0" width="10020" height="722.25" fill="#fff0"></rect><g stroke-linecap="round" transform="translate(10 10) rotate(0 5000 0.5)"><path d="M-0.52 -0.26 C3022.65 -30.2, 6044.59 -29.2, 9999.32 0.22 M0.38 -0.31 C3948.03 -0.44, 7895.41 0.2, 9999.95 0.08 M10000.08 -0.06 C10000.09 0.27, 10000.05 0.48, 10000.09 0.92 M9999.97 0.01 C9999.95 0.33, 9999.98 0.72, 10000 0.99 M10000.22 1.51 C7095.77 35.76, 4193.15 34.95, -0.25 0.75 M10000.01 1.13 C7827.97 2.74, 5656.23 3.35, -0.33 0.84 M-0.04 1.01 C0 0.63, -0.06 0.15, 0.05 -0.03 M-0.04 0.95 C-0.04 0.73, -0.03 0.59, -0.05 -0.02" stroke="transparent" stroke-width="1" fill="none"></path></g><g stroke-linecap="round" transform="translate(594 540.25) rotate(0 80 70)"><path d="M46.34 5.85 C56.1 0.84, 70.83 -1.07, 82.56 -0.68 C94.3 -0.29, 106.44 3.36, 116.75 8.19 C127.05 13.03, 137.39 20.41, 144.39 28.34 C151.39 36.27, 156.64 46.11, 158.75 55.78 C160.87 65.45, 159.82 76.37, 157.07 86.36 C154.32 96.35, 149.76 107.87, 142.24 115.72 C134.71 123.56, 122.45 129.22, 111.91 133.41 C101.36 137.59, 90.36 140.92, 78.98 140.83 C67.59 140.75, 53.94 137.52, 43.6 132.88 C33.26 128.25, 24.05 121.19, 16.93 113.03 C9.82 104.87, 3.36 93.85, 0.93 83.93 C-1.5 74, -0.72 63.36, 2.36 53.46 C5.44 43.57, 11.37 32.57, 19.41 24.56 C27.45 16.55, 44.71 8.64, 50.61 5.39 C56.52 2.15, 54.2 4.14, 54.86 5.09 M106.9 5.28 C117.24 7.97, 128.61 14.63, 136.63 21.99 C144.66 29.35, 151.39 40.09, 155.05 49.44 C158.7 58.78, 159.89 68.13, 158.57 78.07 C157.25 88, 153.63 100.36, 147.15 109.04 C140.66 117.72, 129.73 125.04, 119.66 130.14 C109.6 135.25, 97.84 138.54, 86.76 139.64 C75.67 140.75, 63.68 140.42, 53.15 136.79 C42.63 133.16, 31.99 125.21, 23.6 117.88 C15.22 110.55, 6.49 102.62, 2.85 92.81 C-0.79 83.01, -0.08 69.14, 1.76 59.06 C3.61 48.98, 7.91 40.34, 13.92 32.34 C19.93 24.34, 28.03 16.3, 37.83 11.06 C47.62 5.81, 60.87 2.13, 72.7 0.87 C84.53 -0.39, 102.78 2.78, 108.8 3.52 C114.82 4.25, 109.43 3.89, 108.81 5.26" stroke="#000" stroke-width="1" fill="none"></path></g><g stroke-linecap="round"><g transform="translate(560 683.25) rotate(0 125.5 1)"><path d="M-0.3 0.86 C41.63 0.87, 210.07 0.59, 251.78 0.88 M1.75 0.27 C43.56 0.3, 209.48 1.77, 251.25 1.83" stroke="#000" stroke-width="1" fill="none"></path></g></g><g stroke-linecap="round"><g transform="translate(673 685.25) rotate(0 -60 -85.5)"><path d="M0.42 0.61 C-19.91 -28.12, -100.55 -142.78, -120.78 -171.25 M-0.82 -0.11 C-20.86 -28.15, -98.85 -141.17, -118.48 -169.84" stroke="#1864ab" stroke-width="1" fill="none"></path></g></g><g stroke-linecap="round"><g transform="translate(667 681.25) rotate(0 0 -83)"><path d="M0.42 -0.54 C0.53 -28.19, 0.96 -137.25, 0.86 -164.81 M-0.82 1.79 C-0.81 -25.65, 0.4 -138.58, 0.36 -166.3" stroke="#000000" stroke-width="1" fill="none"></path></g></g><g stroke-linecap="round"><g transform="translate(665 540.25) rotate(0 -50 -2.5)"><path d="M1.16 -0.2 C-15.66 -1.03, -83.96 -3.55, -100.62 -4.18 M0.31 -1.36 C-16.13 -2.58, -81.69 -5.13, -98.23 -5.88" stroke="#d9480f" stroke-width="1" fill="none"></path></g><g transform="translate(665 540.25) rotate(0 -50 -2.5)"><path d="M-69.97 -15.97 C-77.49 -9.73, -86.51 -7.17, -96.83 -7.03 M-69.68 -14.03 C-80.76 -11.64, -90.32 -9.5, -98.86 -6.3" stroke="#d9480f" stroke-width="1" fill="none"></path></g><g transform="translate(665 540.25) rotate(0 -50 -2.5)"><path d="M-70.84 4.53 C-78.2 4.12, -86.94 0.02, -96.83 -7.03 M-70.54 6.47 C-81.26 1.55, -90.5 -3.62, -98.86 -6.3" stroke="#d9480f" stroke-width="1" fill="none"></path></g></g><g stroke-linecap="round"><g transform="translate(662.5585225656629 563.5996159003954) rotate(0 -36.77926128283143 -0.42480795019771733)"><path d="M0.56 -1.16 C-12.01 -1.34, -62.08 -0.35, -74.35 -0.46 M-0.61 0.85 C-12.88 0.23, -59.9 -2.06, -72.05 -2.37" stroke="#d9480f" stroke-width="1" fill="none"></path></g><g transform="translate(662.5585225656629 563.5996159003954) rotate(0 -36.77926128283143 -0.42480795019771733)"><path d="M-45.41 -12.85 C-53.83 -6.95, -67.15 -6.14, -74.02 -2.38 M-43.74 -12.36 C-54.25 -9.4, -64.36 -4.84, -72.63 -2.14" stroke="#d9480f" stroke-width="1" fill="none"></path></g><g transform="translate(662.5585225656629 563.5996159003954) rotate(0 -36.77926128283143 -0.42480795019771733)"><path d="M-46.21 7.66 C-54.43 5.62, -67.44 -1.51, -74.02 -2.38 M-44.54 8.15 C-54.86 3.68, -64.68 0.81, -72.63 -2.14" stroke="#d9480f" stroke-width="1" fill="none"></path></g></g><g stroke-linecap="round"><g transform="translate(662 595.75) rotate(0 -26 1)"><path d="M0.09 0.8 C-8.44 1.36, -42.38 2.47, -50.88 2.58 M-1.33 0.17 C-9.93 0.45, -42.94 0.37, -51.24 0.75" stroke="#d9480f" stroke-width="1" fill="none"></path></g><g transform="translate(662 595.75) rotate(0 -26 1)"><path d="M-25.63 -6.73 C-33.88 -3.78, -43.59 -2.32, -52.35 0.76 M-26.84 -9.12 C-33.78 -5.79, -39.9 -4.16, -50.61 1.06" stroke="#d9480f" stroke-width="1" fill="none"></path></g><g transform="translate(662 595.75) rotate(0 -26 1)"><path d="M-25.29 11.06 C-33.54 8.28, -43.35 4.02, -52.35 0.76 M-26.51 8.68 C-33.58 7.48, -39.78 4.58, -50.61 1.06" stroke="#d9480f" stroke-width="1" fill="none"></path></g></g><g stroke-linecap="round"><g transform="translate(665.7717298194766 634.320115955174) rotate(0 -15.885864909738302 -0.7850579775869875)"><path d="M-0.23 -0.43 C-5.6 -0.73, -26.87 -0.64, -32.3 -0.87 M-1.81 -1.7 C-7.38 -2.43, -28.74 -2.8, -33.53 -2.63" stroke="#d9480f" stroke-width="1" fill="none"></path></g><g transform="translate(665.7717298194766 634.320115955174) rotate(0 -15.885864909738302 -0.7850579775869875)"><path d="M-19.16 -8.8 C-22.05 -7.94, -27.78 -3.42, -32.22 -4.22 M-18.28 -8.77 C-22.36 -6.05, -27.74 -5.29, -34.07 -2.7" stroke="#d9480f" stroke-width="1" fill="none"></path></g><g transform="translate(665.7717298194766 634.320115955174) rotate(0 -15.885864909738302 -0.7850579775869875)"><path d="M-19.15 2.08 C-22.13 -0.28, -27.85 1.02, -32.22 -4.22 M-18.26 2.11 C-22.31 1.59, -27.7 -0.89, -34.07 -2.7" stroke="#d9480f" stroke-width="1" fill="none"></path></g></g><g transform="translate(599 597.75) rotate(0 75 12.5)"><text x="75" y="18" font-family="Virgil, Segoe UI Emoji" font-size="20px" fill="#d9480f" text-anchor="middle" style="white-space: pre;" direction="ltr">C</text></g><g transform="translate(674 687.25) rotate(0 7 12.5)"><text x="0" y="18" font-family="Virgil, Segoe UI Emoji" font-size="20px" fill="#d9480f" text-anchor="start" style="white-space: pre;" direction="ltr">A</text></g><g transform="translate(860 540.25) rotate(0 147 25)"><text x="0" y="18" font-family="Virgil, Segoe UI Emoji" font-size="20px" fill="#000000" text-anchor="start" style="white-space: pre;" direction="ltr">La velocità al centro sarà la</text><text x="0" y="43" font-family="Virgil, Segoe UI Emoji" font-size="20px" fill="#000000" text-anchor="start" style="white-space: pre;" direction="ltr">metà della velocità sull'apice</text></g><g transform="translate(754 610.25) rotate(0 0.5 -1.5)" stroke="none"><path fill="#d9480f" d="M 0,-2.60 Q 0,-2.60 1.15,-2.62 2.3,-2.65 3.69,-2.72 5.08,-2.80 5.42,-2.76 5.75,-2.72 6.07,-2.60 6.38,-2.48 6.66,-2.28 6.94,-2.09 7.17,-1.84 7.39,-1.59 7.55,-1.29 7.70,-0.99 7.78,-0.66 7.86,-0.33 7.86,0.00 7.86,0.33 7.78,0.66 7.70,0.99 7.55,1.29 7.39,1.59 7.16,1.84 6.94,2.09 6.66,2.28 6.38,2.48 6.07,2.60 5.75,2.72 5.42,2.76 5.08,2.80 3.37,2.46 1.67,2.13 0.53,1.68 -0.60,1.23 -2.12,0.65 -3.64,0.06 -1.90,-1.77 -0.15,-3.62 0.18,-3.30 0.51,-2.97 0.73,-2.56 0.95,-2.14 1.02,-1.68 1.10,-1.21 1.02,-0.75 0.94,-0.29 0.72,0.12 0.50,0.53 0.15,0.85 -0.18,1.17 -0.61,1.37 -1.03,1.56 -1.50,1.61 -1.97,1.66 -2.43,1.56 -2.88,1.45 -3.29,1.21 -3.69,0.96 -3.99,0.60 -4.29,0.25 -4.46,-0.18 -4.63,-0.62 -4.66,-1.09 -4.68,-1.56 -4.55,-2.01 -4.42,-2.46 -4.16,-2.85 -3.89,-3.24 -3.52,-3.52 -3.14,-3.80 -2.70,-3.95 -2.25,-4.10 -1.78,-4.09 -1.31,-4.09 -0.87,-3.94 -0.42,-3.79 -0.05,-3.50 0.31,-3.21 0.57,-2.82 0.84,-2.43 0.96,-1.98 1.08,-1.53 1.05,-1.06 1.03,-0.59 0.85,-0.15 0.67,0.27 0.37,0.63 0.06,0.98 -0.33,1.22 -0.74,1.46 -1.19,1.56 -1.65,1.66 -2.12,1.61 -2.59,1.55 -3.01,1.36 -3.44,1.16 -3.44,1.16 -3.44,1.16 -2.02,-1.91 -0.60,-5.00 0.47,-4.51 1.55,-4.02 3.31,-3.41 5.08,-2.80 5.42,-2.76 5.75,-2.72 6.07,-2.60 6.38,-2.48 6.66,-2.28 6.94,-2.09 7.16,-1.84 7.39,-1.59 7.55,-1.29 7.70,-0.99 7.78,-0.66 7.86,-0.33 7.86,-0.00 7.86,0.33 7.78,0.66 7.70,0.99 7.55,1.29 7.39,1.59 7.17,1.84 6.94,2.09 6.66,2.28 6.38,2.48 6.07,2.60 5.75,2.72 5.42,2.76 5.08,2.80 3.69,2.72 2.3,2.65 1.15,2.62 0,2.60 -0.31,2.56 -0.62,2.53 -0.91,2.42 -1.21,2.30 -1.47,2.13 -1.72,1.95 -1.93,1.71 -2.14,1.48 -2.29,1.20 -2.43,0.92 -2.51,0.61 -2.58,0.31 -2.58,-0.00 -2.58,-0.31 -2.51,-0.61 -2.43,-0.92 -2.29,-1.20 -2.14,-1.48 -1.93,-1.71 -1.72,-1.95 -1.47,-2.13 -1.21,-2.30 -0.91,-2.42 -0.62,-2.53 -0.31,-2.56 0.00,-2.60 0.00,-2.60 L 0,-2.60 Z"></path></g><g transform="translate(664 603.25) rotate(0 0.5 -1)" stroke="none"><path fill="#d9480f" d="M -1.65,-1.65 Q -1.65,-1.65 0.27,-0.20 2.21,1.23 1.89,1.46 1.57,1.69 1.19,1.81 0.81,1.92 0.42,1.91 0.02,1.90 -0.34,1.76 -0.71,1.63 -1.01,1.38 -1.32,1.13 -1.53,0.80 -1.75,0.47 -1.84,0.09 -1.94,-0.29 -1.90,-0.68 -1.87,-1.07 -1.72,-1.43 -1.56,-1.80 -1.30,-2.09 -1.03,-2.38 -0.69,-2.58 -0.35,-2.77 0.03,-2.85 0.42,-2.92 0.81,-2.87 1.20,-2.81 1.55,-2.64 1.91,-2.46 2.18,-2.18 2.46,-1.91 2.64,-1.55 2.81,-1.20 2.87,-0.81 2.92,-0.42 2.85,-0.03 2.77,0.35 2.58,0.69 2.38,1.03 2.09,1.30 1.80,1.56 1.43,1.72 1.07,1.87 0.68,1.90 0.29,1.94 -0.09,1.84 -0.47,1.75 -0.80,1.53 -1.13,1.32 -1.38,1.01 -1.63,0.71 -1.76,0.34 -1.90,-0.03 -1.91,-0.42 -1.92,-0.81 -1.81,-1.19 -1.69,-1.57 -1.46,-1.89 -1.23,-2.21 -1.23,-2.21 -1.23,-2.21 0.20,-0.27 1.65,1.65 1.43,1.82 1.20,2.00 0.95,2.11 0.69,2.23 0.41,2.28 0.14,2.33 -0.14,2.31 -0.42,2.29 -0.69,2.21 -0.95,2.13 -1.20,1.98 -1.44,1.84 -1.64,1.64 -1.84,1.44 -1.98,1.20 -2.13,0.95 -2.21,0.69 -2.29,0.42 -2.31,0.13 -2.33,-0.14 -2.28,-0.41 -2.23,-0.69 -2.11,-0.95 -2.00,-1.20 -1.82,-1.43 -1.65,-1.65 -1.65,-1.65 L -1.65,-1.65 Z"></path></g><g transform="translate(669 677.25) rotate(0 -4 5.5)" stroke="none"><path fill="#d9480f" d="M 0.51,2.58 Q 0.51,2.58 -0.92,2.84 -2.36,3.11 -3.57,3.53 -4.78,3.95 -3.58,4.51 -2.39,5.06 -1.68,6.33 -0.96,7.61 -0.49,7.77 -0.01,7.94 0.18,8.26 0.38,8.57 0.49,8.93 0.61,9.29 0.64,9.66 0.67,10.03 0.61,10.40 0.54,10.77 0.40,11.11 0.25,11.45 0.02,11.75 -0.19,12.05 -0.48,12.29 -0.77,12.52 -1.11,12.68 -1.45,12.84 -1.82,12.91 -2.18,12.99 -2.56,12.97 -2.93,12.95 -3.29,12.85 -3.65,12.74 -3.97,12.55 -4.30,12.36 -4.56,12.10 -4.83,11.84 -5.03,9.81 -5.23,7.78 -4.45,3.75 -3.67,-0.26 -3.31,-0.61 -2.95,-0.96 -2.49,-1.17 -2.04,-1.38 -1.54,-1.44 -1.04,-1.50 -0.55,-1.39 -0.06,-1.29 0.36,-1.03 0.79,-0.77 1.12,-0.39 1.44,-0.01 1.63,0.44 1.82,0.91 1.85,1.41 1.88,1.91 1.75,2.40 1.62,2.88 1.34,3.30 1.06,3.71 0.66,4.02 0.26,4.32 -0.20,4.49 -0.68,4.65 -1.18,4.65 -1.68,4.65 -2.16,4.50 -2.64,4.34 -3.04,4.04 -3.44,3.73 -3.72,3.32 -4.00,2.91 -4.14,2.42 -4.28,1.94 -4.25,1.44 -4.23,0.94 -4.04,0.47 -3.86,0.00 -3.54,-0.37 -3.21,-0.75 -2.79,-1.01 -2.36,-1.27 -1.87,-1.39 -1.38,-1.50 -0.88,-1.44 -0.38,-1.39 0.07,-1.18 0.52,-0.97 0.89,-0.63 1.25,-0.29 1.49,0.14 1.73,0.59 1.81,1.08 1.90,1.58 1.82,2.07 1.74,2.57 1.51,3.01 1.27,3.46 1.27,3.46 1.27,3.46 0.76,3.38 0.24,3.30 0.66,4.52 1.08,5.73 0.53,6.84 -0.01,7.94 0.18,8.26 0.38,8.57 0.49,8.93 0.61,9.28 0.64,9.66 0.67,10.03 0.61,10.40 0.54,10.77 0.40,11.11 0.25,11.45 0.02,11.75 -0.19,12.05 -0.48,12.29 -0.77,12.52 -1.11,12.68 -1.45,12.84 -1.82,12.91 -2.18,12.99 -2.56,12.97 -2.93,12.95 -3.29,12.85 -3.65,12.74 -3.97,12.55 -4.29,12.37 -4.56,12.11 -4.83,11.84 -4.93,11.87 -5.03,11.90 -6.42,9.80 -7.80,7.70 -8.86,6.74 -9.91,5.78 -10.28,4.47 -10.64,3.16 -10.33,2.03 -10.03,0.90 -8.63,-0.02 -7.23,-0.95 -5.31,-1.46 -3.38,-1.96 -1.94,-2.27 -0.51,-2.58 -0.19,-2.60 0.11,-2.62 0.42,-2.57 0.74,-2.52 1.03,-2.39 1.32,-2.27 1.57,-2.08 1.83,-1.89 2.03,-1.64 2.23,-1.39 2.36,-1.11 2.49,-0.82 2.56,-0.51 2.62,-0.20 2.61,0.11 2.59,0.43 2.50,0.73 2.41,1.04 2.25,1.31 2.09,1.58 1.87,1.81 1.65,2.04 1.38,2.21 1.11,2.38 0.81,2.48 0.51,2.58 0.51,2.58 L 0.51,2.58 Z"></path></g><g stroke-linecap="round"><g transform="translate(664 680.25) rotate(0 46 -37)"><path d="M0.42 -0.04 C15.76 -12.34, 77.05 -62.25, 92.17 -74.47 M-0.82 -1.1 C14.37 -13.18, 75.58 -60.81, 91.32 -73.18" stroke="#1864ab" stroke-width="1" fill="none"></path></g></g><g stroke-linecap="round"><g transform="translate(755 609.25) rotate(0 -20 -12.5)"><path d="M-0.57 -0.73 C-6.94 -5.03, -32.7 -21.57, -39.2 -25.58 M1.34 1.5 C-5.04 -2.67, -32.82 -20.2, -39.73 -24.35" stroke="#d9480f" stroke-width="1" fill="none"></path></g><g transform="translate(755 609.25) rotate(0 -20 -12.5)"><path d="M-17.86 -18.23 C-22.7 -20.05, -26.47 -21.06, -37.92 -25.28 M-16.03 -19.34 C-23.59 -21.84, -31.58 -23.51, -38.99 -23.35" stroke="#d9480f" stroke-width="1" fill="none"></path></g><g transform="translate(755 609.25) rotate(0 -20 -12.5)"><path d="M-26.34 -4.51 C-29.34 -9.31, -31.25 -13.33, -37.92 -25.28 M-24.51 -5.62 C-29.29 -12.69, -34.42 -18.98, -38.99 -23.35" stroke="#d9480f" stroke-width="1" fill="none"></path></g></g><g transform="translate(776 600.25) rotate(0 8.5 12.5)"><text x="0" y="18" font-family="Virgil, Segoe UI Emoji" font-size="20px" fill="#d9480f" text-anchor="start" style="white-space: pre;" direction="ltr">D</text></g></svg>