<svg version="1.1" xmlns="http://www.w3.org/2000/svg" viewBox="0 0 10020 694.28125" width="10020" height="694.28125">
  <!-- svg-source:excalidraw -->
  
  <defs>
    <style>
      @font-face {
        font-family: "Virgil";
        src: url("https://excalidraw.com/Virgil.woff2");
      }
      @font-face {
        font-family: "Cascadia";
        src: url("https://excalidraw.com/Cascadia.woff2");
      }
    </style>
  </defs>
  <rect x="0" y="0" width="10020" height="694.28125" fill="#fff0"></rect><g stroke-linecap="round" transform="translate(10 10) rotate(0 5000 0.5)"><path d="M-0.52 -0.26 C3022.65 -30.2, 6044.59 -29.2, 9999.32 0.22 M0.38 -0.31 C3948.03 -0.44, 7895.41 0.2, 9999.95 0.08 M10000.08 -0.06 C10000.09 0.27, 10000.05 0.48, 10000.09 0.92 M9999.97 0.01 C9999.95 0.33, 9999.98 0.72, 10000 0.99 M10000.22 1.51 C7095.77 35.76, 4193.15 34.95, -0.25 0.75 M10000.01 1.13 C7827.97 2.74, 5656.23 3.35, -0.33 0.84 M-0.04 1.01 C0 0.63, -0.06 0.15, 0.05 -0.03 M-0.04 0.95 C-0.04 0.73, -0.03 0.59, -0.05 -0.02" stroke="transparent" stroke-width="1" fill="none"></path></g><g stroke-linecap="round"><g transform="translate(594 543.28125) rotate(0 175.5 -1)"><path d="M-0.89 1.17 C57.37 0.66, 291.92 -1.95, 350.44 -2.65 M0.85 0.74 C58.81 0.35, 290.55 -0.96, 349.19 -1.46" stroke="#000" stroke-width="1" fill="none"></path></g></g><g stroke-linecap="round"><g transform="translate(591 679.28125) rotate(0 183.5 2)"><path d="M1 1.15 C62.15 1.85, 306.5 4.43, 367.41 5.04 M0.06 0.7 C61.05 1.02, 305.79 3.11, 366.68 3.47" stroke="#000" stroke-width="1" fill="none"></path></g></g><g stroke-linecap="round"><g transform="translate(941 521.28125) rotate(0 4.5 81.5)"><path d="M-0.22 -0.71 C1.37 26.33, 8.56 135.41, 10.1 162.86 M-1.79 1.53 C-0.32 28.71, 8.05 137.55, 9.73 164.32" stroke="#000" stroke-width="1" fill="none"></path></g></g><g stroke-linecap="round"><g transform="translate(604 545.28125) rotate(0 -1.5 69)"><path d="M0.31 -0.2 C-0.1 23.15, -1.28 115.93, -2.01 139.02 M-0.98 -1.35 C-1.5 21.77, -2.31 114.52, -2.44 137.44" stroke="#000" stroke-width="1" fill="none"></path></g></g><g stroke-linecap="round" transform="translate(630 556.28125) rotate(0 71.5 50)"><path d="M106.05 5.25 C115.87 8.34, 124.27 16, 130.28 22.6 C136.3 29.2, 140.78 37.2, 142.14 44.83 C143.49 52.47, 142.54 61.26, 138.43 68.41 C134.32 75.57, 126.07 82.75, 117.47 87.78 C108.86 92.8, 97.34 96.75, 86.79 98.57 C76.24 100.39, 64.63 100.64, 54.15 98.67 C43.66 96.71, 32.05 92.16, 23.88 86.77 C15.72 81.38, 9.07 73.63, 5.15 66.34 C1.22 59.06, -1.15 50.49, 0.33 43.06 C1.81 35.62, 7.6 28.06, 14.02 21.73 C20.44 15.4, 29.17 8.6, 38.86 5.08 C48.56 1.55, 60.78 0.35, 72.18 0.55 C83.58 0.75, 101.09 4.82, 107.26 6.27 C113.44 7.72, 109.67 8.58, 109.25 9.26 M93.61 3.14 C104.2 4.66, 114.73 9.5, 122.4 14.76 C130.07 20.01, 136.52 27.17, 139.62 34.66 C142.73 42.15, 142.74 52.21, 141.01 59.68 C139.28 67.15, 135.73 73.46, 129.23 79.49 C122.74 85.51, 112.49 92.46, 102.04 95.83 C91.59 99.2, 77.74 100.16, 66.51 99.71 C55.28 99.26, 44.14 96.85, 34.66 93.12 C25.18 89.39, 15.57 84.1, 9.64 77.32 C3.71 70.54, -0.1 60.56, -0.92 52.43 C-1.73 44.31, -0.08 35.71, 4.76 28.58 C9.59 21.45, 19.14 14.23, 28.08 9.65 C37.02 5.08, 47.73 2.23, 58.41 1.13 C69.09 0.03, 86.45 2.54, 92.16 3.04 C97.87 3.53, 92.77 3.33, 92.67 4.08" stroke="#000" stroke-width="1" fill="none"></path></g><g transform="translate(786 577.28125) rotate(0 7 -11.5)" stroke="none"><path fill="#000" d="M -2.17,0.36 Q -2.17,0.36 -2.43,-1.36 -2.69,-3.09 -2.72,-6.55 -2.74,-10.02 -2.71,-12.89 -2.68,-15.76 -2.42,-17.69 -2.16,-19.62 -2.11,-20.71 -2.07,-21.80 -1.57,-22.75 -1.07,-23.70 0.01,-24.22 1.10,-24.75 2.82,-24.25 4.55,-23.75 5.93,-22.06 7.31,-20.37 8.31,-18.48 9.31,-16.60 10.06,-14.90 10.82,-13.20 12.42,-10.47 14.03,-7.74 14.80,-6.76 15.58,-5.78 15.78,-3.82 15.98,-1.86 14.74,-1.17 13.51,-0.48 12.19,-0.85 10.88,-1.22 9.79,-2.08 8.69,-2.95 6.60,-4.14 4.51,-5.34 4.13,-5.54 3.75,-5.75 3.46,-6.07 3.17,-6.39 3.00,-6.79 2.82,-7.18 2.78,-7.61 2.74,-8.04 2.84,-8.46 2.94,-8.88 3.17,-9.25 3.40,-9.61 3.74,-9.88 4.07,-10.16 4.47,-10.31 4.88,-10.46 5.31,-10.48 5.74,-10.50 6.15,-10.37 6.57,-10.25 6.92,-10.00 7.27,-9.75 7.53,-9.41 7.78,-9.06 7.91,-8.65 8.05,-8.23 8.04,-7.80 8.03,-7.37 7.89,-6.96 7.74,-6.56 7.47,-6.22 7.21,-5.88 6.84,-5.64 6.48,-5.41 6.06,-5.30 5.65,-5.19 5.22,-5.22 4.79,-5.25 4.39,-5.42 3.99,-5.59 3.67,-5.87 3.34,-6.16 3.13,-6.53 2.91,-6.91 2.82,-7.33 2.74,-7.75 2.79,-8.18 2.85,-8.61 3.04,-9.00 3.22,-9.38 3.53,-9.69 3.83,-10.00 4.21,-10.20 4.60,-10.39 5.03,-10.45 5.45,-10.52 5.88,-10.44 6.30,-10.36 6.30,-10.36 6.30,-10.36 8.52,-9.19 10.74,-8.02 12.05,-6.75 13.36,-5.47 12.76,-4.43 12.17,-3.38 11.42,-4.55 10.67,-5.71 9.46,-7.50 8.25,-9.28 7.65,-10.39 7.06,-11.51 6.38,-13.00 5.70,-14.50 4.68,-16.07 3.67,-17.64 2.52,-18.37 1.37,-19.09 1.10,-17.45 0.84,-15.81 0.97,-12.98 1.11,-10.16 1.32,-6.98 1.54,-3.80 1.86,-2.08 2.17,-0.36 2.18,-0.09 2.20,0.16 2.14,0.42 2.09,0.69 1.98,0.93 1.87,1.17 1.70,1.37 1.53,1.58 1.32,1.74 1.11,1.90 0.86,2.01 0.62,2.11 0.36,2.16 0.09,2.20 -0.16,2.18 -0.43,2.16 -0.68,2.08 -0.93,1.99 -1.16,1.85 -1.38,1.71 -1.57,1.52 -1.75,1.33 -1.89,1.10 -2.02,0.87 -2.10,0.61 -2.17,0.36 -2.17,0.36 L -2.17,0.36 Z"></path></g><g transform="translate(784 566.28125) rotate(0 6 0)" stroke="none"><path fill="#000" d="M 0,-2.53 Q 0,-2.53 1.43,-2.53 2.87,-2.52 4.06,-2.55 5.24,-2.57 8.44,-2.64 11.63,-2.71 12.07,-2.64 12.50,-2.56 12.89,-2.36 13.28,-2.15 13.58,-1.84 13.88,-1.52 14.06,-1.12 14.25,-0.72 14.29,-0.28 14.34,0.14 14.25,0.57 14.15,1.00 13.93,1.37 13.70,1.75 13.37,2.03 13.03,2.32 12.62,2.48 12.22,2.64 11.78,2.67 11.34,2.69 10.92,2.57 10.50,2.46 10.13,2.21 9.77,1.96 9.50,1.61 9.24,1.26 9.10,0.85 8.96,0.43 8.96,-0.00 8.96,-0.43 9.10,-0.85 9.24,-1.27 9.50,-1.61 9.77,-1.96 10.13,-2.21 10.50,-2.46 10.92,-2.57 11.34,-2.69 11.78,-2.67 12.22,-2.64 12.63,-2.48 13.03,-2.32 13.37,-2.03 13.70,-1.75 13.93,-1.37 14.15,-1.00 14.25,-0.57 14.34,-0.14 14.29,0.28 14.25,0.72 14.06,1.12 13.88,1.52 13.58,1.84 13.27,2.15 12.89,2.36 12.50,2.56 12.07,2.64 11.63,2.71 11.63,2.71 11.63,2.71 8.44,2.64 5.24,2.57 4.06,2.55 2.87,2.52 1.43,2.53 0,2.53 -0.30,2.50 -0.60,2.46 -0.89,2.35 -1.18,2.24 -1.43,2.07 -1.68,1.90 -1.88,1.67 -2.08,1.44 -2.23,1.17 -2.37,0.90 -2.44,0.60 -2.52,0.30 -2.52,-0.00 -2.52,-0.30 -2.44,-0.60 -2.37,-0.90 -2.23,-1.17 -2.08,-1.44 -1.88,-1.67 -1.68,-1.90 -1.43,-2.07 -1.17,-2.24 -0.89,-2.35 -0.60,-2.46 -0.30,-2.50 0.00,-2.53 0.00,-2.53 L 0,-2.53 Z"></path></g><g transform="translate(613 565.28125) rotate(0 7.5 -8)" stroke="none"><path fill="#1864ab" d="M -1.52,-1.83 Q -1.52,-1.83 0.28,-3.16 2.10,-4.49 3.06,-5.40 4.03,-6.31 5.42,-8.37 6.81,-10.43 7.82,-11.64 8.83,-12.85 9.50,-13.68 10.18,-14.50 11.41,-15.84 12.64,-17.18 12.96,-17.43 13.29,-17.67 13.68,-17.80 14.07,-17.92 14.47,-17.92 14.88,-17.92 15.27,-17.78 15.65,-17.65 15.98,-17.40 16.30,-17.15 16.52,-16.81 16.75,-16.47 16.86,-16.07 16.96,-15.68 16.93,-15.27 16.91,-14.86 16.75,-14.49 16.60,-14.11 16.33,-13.80 16.06,-13.49 15.71,-13.28 15.36,-13.08 14.96,-12.99 14.56,-12.91 14.15,-12.96 13.75,-13.01 13.38,-13.18 13.01,-13.36 12.72,-13.64 12.42,-13.92 12.24,-14.29 12.05,-14.65 11.99,-15.05 11.93,-15.46 12.00,-15.86 12.07,-16.26 12.26,-16.62 12.46,-16.98 12.76,-17.26 13.06,-17.53 13.43,-17.70 13.80,-17.87 14.21,-17.91 14.61,-17.95 15.01,-17.86 15.41,-17.76 15.76,-17.55 16.10,-17.34 16.36,-17.02 16.62,-16.71 16.77,-16.33 16.92,-15.95 16.94,-15.54 16.95,-15.13 16.84,-14.74 16.73,-14.35 16.50,-14.01 16.26,-13.68 16.26,-13.68 16.26,-13.68 14.31,-11.76 12.36,-9.84 11.47,-8.83 10.58,-7.81 9.67,-6.50 8.76,-5.20 7.85,-4.11 6.94,-3.03 5.87,-2.14 4.79,-1.25 3.16,0.28 1.52,1.83 1.28,1.98 1.04,2.14 0.77,2.23 0.50,2.33 0.21,2.35 -0.07,2.38 -0.35,2.33 -0.64,2.29 -0.90,2.18 -1.17,2.07 -1.40,1.90 -1.63,1.73 -1.81,1.51 -2.00,1.29 -2.12,1.03 -2.25,0.77 -2.31,0.49 -2.37,0.21 -2.36,-0.07 -2.35,-0.35 -2.27,-0.63 -2.20,-0.91 -2.06,-1.16 -1.91,-1.41 -1.72,-1.62 -1.52,-1.83 -1.52,-1.83 L -1.52,-1.83 Z"></path></g><g transform="translate(615 587.28125) rotate(0 18.5 -17)" stroke="none"><path fill="#1864ab" d="M -1.24,-1.55 Q -1.24,-1.55 0.20,-2.68 1.64,-3.81 3.02,-5.52 4.40,-7.23 6.56,-9.50 8.72,-11.78 10.84,-13.62 12.96,-15.46 14.69,-17.06 16.42,-18.66 17.37,-19.71 18.33,-20.77 19.76,-21.66 21.20,-22.56 22.17,-23.40 23.13,-24.25 24.50,-25.24 25.86,-26.23 27.55,-27.64 29.24,-29.05 30.52,-30.27 31.81,-31.50 33.52,-33.25 35.22,-34.99 35.48,-35.17 35.74,-35.35 36.04,-35.44 36.35,-35.53 36.66,-35.52 36.98,-35.51 37.27,-35.40 37.57,-35.29 37.81,-35.09 38.06,-34.89 38.22,-34.62 38.39,-34.35 38.46,-34.04 38.54,-33.74 38.51,-33.42 38.48,-33.11 38.35,-32.82 38.22,-32.53 38.01,-32.30 37.80,-32.06 37.52,-31.91 37.24,-31.76 36.93,-31.70 36.62,-31.65 36.31,-31.69 36.00,-31.74 35.72,-31.88 35.43,-32.02 35.21,-32.25 34.99,-32.48 34.86,-32.76 34.72,-33.04 34.68,-33.36 34.64,-33.67 34.70,-33.98 34.76,-34.29 34.92,-34.56 35.08,-34.84 35.32,-35.04 35.56,-35.25 35.85,-35.37 36.14,-35.50 36.45,-35.52 36.77,-35.54 37.07,-35.46 37.38,-35.38 37.64,-35.21 37.91,-35.04 38.10,-34.79 38.30,-34.54 38.40,-34.24 38.51,-33.95 38.52,-33.63 38.52,-33.31 38.42,-33.01 38.33,-32.71 38.14,-32.46 37.96,-32.20 37.96,-32.20 37.96,-32.20 36.14,-30.52 34.32,-28.84 33.00,-27.60 31.67,-26.35 29.92,-24.66 28.17,-22.97 26.85,-22.06 25.53,-21.16 24.24,-20.25 22.96,-19.35 21.80,-18.83 20.65,-18.32 19.56,-17.40 18.47,-16.49 16.76,-14.82 15.04,-13.14 13.10,-11.34 11.16,-9.54 9.20,-7.30 7.23,-5.07 5.66,-2.92 4.10,-0.78 2.67,0.38 1.24,1.55 1.04,1.68 0.83,1.80 0.60,1.88 0.37,1.95 0.13,1.97 -0.10,1.99 -0.33,1.94 -0.57,1.90 -0.79,1.81 -1.01,1.71 -1.20,1.56 -1.39,1.42 -1.54,1.23 -1.69,1.04 -1.79,0.83 -1.89,0.61 -1.94,0.37 -1.98,0.14 -1.97,-0.09 -1.96,-0.33 -1.89,-0.56 -1.82,-0.79 -1.70,-1.00 -1.58,-1.21 -1.41,-1.38 -1.24,-1.55 -1.24,-1.55 L -1.24,-1.55 Z"></path></g><g transform="translate(614 636.28125) rotate(0 9 -8)" stroke="none"><path fill="#1864ab" d="M -1.14,-2.00 Q -1.14,-2.00 0.93,-3.03 3.01,-4.07 5.08,-5.06 7.16,-6.06 8.85,-7.02 10.54,-7.99 11.34,-8.92 12.15,-9.85 12.70,-10.78 13.26,-11.70 14.48,-14.02 15.69,-16.33 15.87,-16.65 16.05,-16.98 16.32,-17.23 16.59,-17.48 16.92,-17.63 17.26,-17.79 17.63,-17.82 18.00,-17.86 18.36,-17.78 18.72,-17.69 19.03,-17.50 19.34,-17.31 19.58,-17.02 19.82,-16.74 19.95,-16.39 20.09,-16.05 20.10,-15.68 20.12,-15.31 20.02,-14.96 19.91,-14.60 19.70,-14.30 19.49,-13.99 19.20,-13.77 18.90,-13.55 18.55,-13.44 18.20,-13.32 17.83,-13.33 17.46,-13.33 17.11,-13.45 16.76,-13.57 16.47,-13.80 16.18,-14.02 15.97,-14.33 15.77,-14.64 15.67,-15.00 15.58,-15.35 15.60,-15.72 15.63,-16.09 15.77,-16.43 15.91,-16.77 16.15,-17.05 16.39,-17.33 16.71,-17.52 17.03,-17.71 17.39,-17.78 17.75,-17.86 18.12,-17.82 18.48,-17.77 18.82,-17.62 19.15,-17.46 19.42,-17.20 19.68,-16.94 19.85,-16.62 20.02,-16.29 20.08,-15.92 20.13,-15.56 20.07,-15.19 20.01,-14.83 20.01,-14.83 20.01,-14.83 18.30,-12.07 16.60,-9.31 15.72,-8.23 14.84,-7.15 13.61,-6.06 12.38,-4.97 10.64,-3.88 8.90,-2.79 6.97,-1.65 5.03,-0.52 3.09,0.73 1.14,2.00 0.88,2.10 0.63,2.21 0.35,2.25 0.08,2.30 -0.19,2.27 -0.47,2.25 -0.73,2.16 -0.99,2.07 -1.23,1.92 -1.46,1.77 -1.65,1.57 -1.84,1.37 -1.98,1.13 -2.12,0.89 -2.19,0.62 -2.27,0.35 -2.28,0.08 -2.29,-0.19 -2.23,-0.46 -2.18,-0.73 -2.06,-0.98 -1.94,-1.24 -1.76,-1.45 -1.58,-1.66 -1.36,-1.83 -1.14,-2.00 -1.14,-2.00 L -1.14,-2.00 Z"></path></g><g transform="translate(621 661.28125) rotate(0 10 -6.5)" stroke="none"><path fill="#1864ab" d="M -0.92,-2.14 Q -0.92,-2.14 1.14,-2.88 3.20,-3.62 4.47,-4.47 5.75,-5.32 7.22,-6.29 8.70,-7.25 9.80,-8.19 10.90,-9.14 12.89,-10.83 14.89,-12.52 16.39,-13.82 17.89,-15.11 18.18,-15.36 18.46,-15.61 18.81,-15.76 19.15,-15.91 19.53,-15.94 19.91,-15.96 20.27,-15.87 20.64,-15.78 20.96,-15.57 21.27,-15.37 21.51,-15.07 21.74,-14.78 21.87,-14.42 22.00,-14.07 22.01,-13.69 22.02,-13.31 21.90,-12.95 21.79,-12.59 21.57,-12.28 21.35,-11.98 21.04,-11.76 20.73,-11.54 20.37,-11.43 20.01,-11.32 19.63,-11.34 19.25,-11.35 18.90,-11.48 18.55,-11.61 18.25,-11.85 17.96,-12.09 17.76,-12.41 17.56,-12.73 17.47,-13.09 17.38,-13.46 17.41,-13.84 17.44,-14.21 17.59,-14.56 17.75,-14.91 18.00,-15.19 18.25,-15.47 18.58,-15.65 18.91,-15.83 19.28,-15.90 19.65,-15.97 20.03,-15.92 20.40,-15.87 20.74,-15.70 21.08,-15.53 21.34,-15.26 21.61,-14.99 21.77,-14.65 21.94,-14.31 21.99,-13.94 22.04,-13.56 21.97,-13.19 21.89,-12.82 21.70,-12.49 21.52,-12.17 21.52,-12.17 21.52,-12.17 19.53,-10.52 17.55,-8.88 16.42,-8.08 15.29,-7.29 14.42,-6.61 13.55,-5.92 12.25,-4.89 10.95,-3.86 9.48,-2.87 8.01,-1.88 6.43,-0.85 4.84,0.17 2.88,1.16 0.92,2.14 0.65,2.22 0.37,2.30 0.09,2.31 -0.18,2.32 -0.45,2.27 -0.73,2.21 -0.98,2.09 -1.24,1.97 -1.46,1.79 -1.68,1.62 -1.85,1.39 -2.02,1.17 -2.13,0.91 -2.24,0.65 -2.28,0.37 -2.33,0.09 -2.31,-0.18 -2.29,-0.46 -2.20,-0.73 -2.11,-0.99 -1.96,-1.23 -1.81,-1.47 -1.61,-1.66 -1.40,-1.86 -1.16,-2.00 -0.92,-2.14 -0.92,-2.14 L -0.92,-2.14 Z"></path></g><g transform="translate(649 672.28125) rotate(0 13.5 -10.5)" stroke="none"><path fill="#1864ab" d="M -1.22,-1.42 Q -1.22,-1.42 0.83,-3.09 2.89,-4.76 4.91,-6.57 6.92,-8.39 8.40,-9.56 9.87,-10.72 11.29,-11.99 12.72,-13.27 14.89,-14.72 17.06,-16.17 19.15,-17.36 21.25,-18.54 23.16,-20.11 25.07,-21.69 25.31,-21.82 25.56,-21.94 25.83,-21.99 26.10,-22.03 26.38,-21.98 26.65,-21.94 26.89,-21.80 27.14,-21.67 27.33,-21.47 27.52,-21.27 27.63,-21.02 27.74,-20.77 27.77,-20.49 27.80,-20.21 27.74,-19.94 27.68,-19.67 27.53,-19.44 27.39,-19.20 27.18,-19.02 26.96,-18.85 26.71,-18.75 26.45,-18.65 26.17,-18.63 25.90,-18.62 25.63,-18.69 25.36,-18.77 25.14,-18.93 24.91,-19.08 24.74,-19.31 24.58,-19.53 24.49,-19.79 24.40,-20.05 24.40,-20.33 24.41,-20.61 24.50,-20.87 24.59,-21.13 24.76,-21.35 24.92,-21.57 25.15,-21.72 25.38,-21.88 25.65,-21.95 25.92,-22.02 26.20,-22.00 26.47,-21.99 26.73,-21.88 26.98,-21.78 27.19,-21.60 27.40,-21.42 27.55,-21.18 27.69,-20.94 27.74,-20.67 27.80,-20.40 27.77,-20.12 27.74,-19.85 27.62,-19.60 27.50,-19.35 27.31,-19.15 27.12,-18.95 27.12,-18.95 27.12,-18.95 24.94,-17.45 22.75,-15.96 20.79,-14.78 18.83,-13.60 16.88,-12.21 14.93,-10.81 13.42,-9.43 11.90,-8.05 10.52,-7.04 9.14,-6.03 7.14,-4.08 5.15,-2.13 3.18,-0.35 1.22,1.42 1.03,1.55 0.84,1.68 0.63,1.75 0.42,1.83 0.19,1.85 -0.03,1.88 -0.25,1.85 -0.48,1.82 -0.69,1.73 -0.90,1.65 -1.08,1.52 -1.27,1.38 -1.41,1.21 -1.56,1.04 -1.66,0.84 -1.77,0.63 -1.82,0.41 -1.87,0.19 -1.86,-0.03 -1.86,-0.25 -1.80,-0.47 -1.74,-0.69 -1.64,-0.89 -1.53,-1.09 -1.37,-1.26 -1.22,-1.42 -1.22,-1.42 L -1.22,-1.42 Z"></path></g><g transform="translate(733 662.28125) rotate(0 22 -14)" stroke="none"><path fill="#1864ab" d="M -0.81,-1.62 Q -0.81,-1.62 1.51,-2.71 3.84,-3.80 6.19,-5.34 8.54,-6.88 11.94,-8.73 15.34,-10.59 18.74,-12.76 22.14,-14.93 25.36,-16.74 28.59,-18.56 31.34,-20.43 34.08,-22.30 35.50,-23.43 36.92,-24.56 38.41,-25.65 39.89,-26.74 41.11,-27.82 42.33,-28.90 42.58,-29.04 42.83,-29.17 43.10,-29.23 43.38,-29.28 43.66,-29.24 43.94,-29.20 44.19,-29.07 44.44,-28.95 44.64,-28.74 44.84,-28.54 44.96,-28.29 45.09,-28.04 45.12,-27.76 45.16,-27.48 45.10,-27.20 45.05,-26.93 44.91,-26.68 44.77,-26.44 44.56,-26.25 44.35,-26.06 44.09,-25.95 43.83,-25.84 43.55,-25.82 43.27,-25.80 42.99,-25.87 42.72,-25.94 42.48,-26.09 42.25,-26.25 42.07,-26.47 41.90,-26.69 41.80,-26.95 41.70,-27.22 41.70,-27.50 41.69,-27.78 41.78,-28.05 41.86,-28.32 42.03,-28.55 42.19,-28.78 42.42,-28.94 42.65,-29.10 42.92,-29.18 43.19,-29.26 43.47,-29.25 43.76,-29.25 44.02,-29.15 44.28,-29.05 44.50,-28.87 44.72,-28.69 44.87,-28.45 45.02,-28.21 45.09,-27.94 45.15,-27.67 45.13,-27.39 45.11,-27.11 44.99,-26.85 44.88,-26.59 44.69,-26.38 44.50,-26.17 44.50,-26.17 44.50,-26.17 43.10,-25.17 41.70,-24.16 40.21,-23.17 38.71,-22.17 37.18,-21.09 35.66,-20.02 32.83,-18.05 29.99,-16.09 26.86,-14.29 23.72,-12.49 20.27,-10.22 16.81,-7.95 13.56,-6.10 10.31,-4.26 7.83,-2.53 5.35,-0.79 3.08,0.41 0.81,1.62 0.60,1.70 0.40,1.77 0.18,1.79 -0.03,1.82 -0.25,1.79 -0.47,1.75 -0.67,1.67 -0.87,1.59 -1.05,1.46 -1.23,1.33 -1.37,1.17 -1.51,1.00 -1.61,0.80 -1.71,0.61 -1.76,0.39 -1.81,0.18 -1.80,-0.03 -1.80,-0.25 -1.74,-0.46 -1.69,-0.67 -1.58,-0.87 -1.47,-1.06 -1.32,-1.22 -1.18,-1.38 -0.99,-1.50 -0.81,-1.62 -0.81,-1.62 L -0.81,-1.62 Z"></path></g><g transform="translate(769 667.28125) rotate(0 53 -59)" stroke="none"><path fill="#1864ab" d="M -1.02,-1.17 Q -1.02,-1.17 1.29,-3.16 3.61,-5.14 6.59,-7.97 9.57,-10.80 11.72,-12.86 13.86,-14.93 20.83,-21.28 27.80,-27.63 35.38,-33.80 42.97,-39.96 48.73,-45.41 54.50,-50.86 58.64,-55.73 62.78,-60.59 65.40,-64.08 68.02,-67.58 70.03,-69.97 72.04,-72.36 73.77,-74.24 75.50,-76.13 76.40,-77.49 77.30,-78.85 77.88,-80.22 78.47,-81.59 79.34,-83.14 80.21,-84.70 80.79,-85.91 81.37,-87.12 82.23,-88.57 83.09,-90.01 84.14,-91.12 85.19,-92.23 86.04,-93.36 86.90,-94.48 87.86,-95.82 88.82,-97.16 89.82,-98.59 90.82,-100.02 91.83,-101.48 92.84,-102.94 93.47,-104.31 94.09,-105.67 95.02,-107.24 95.94,-108.81 96.92,-110.34 97.90,-111.86 99.61,-113.70 101.32,-115.55 104.05,-115.98 106.78,-116.41 106.61,-116.15 106.45,-115.90 106.21,-115.71 105.97,-115.52 105.69,-115.42 105.40,-115.32 105.10,-115.32 104.80,-115.31 104.51,-115.40 104.22,-115.49 103.98,-115.67 103.73,-115.85 103.56,-116.10 103.38,-116.35 103.30,-116.64 103.21,-116.93 103.22,-117.23 103.23,-117.53 103.34,-117.81 103.45,-118.10 103.64,-118.33 103.83,-118.56 104.09,-118.73 104.35,-118.89 104.64,-118.96 104.93,-119.03 105.24,-119.00 105.54,-118.97 105.81,-118.85 106.09,-118.73 106.31,-118.52 106.54,-118.32 106.68,-118.05 106.83,-117.79 106.88,-117.49 106.94,-117.19 106.89,-116.89 106.85,-116.59 106.71,-116.32 106.58,-116.06 106.36,-115.84 106.14,-115.63 105.87,-115.50 105.60,-115.37 105.30,-115.33 105.00,-115.29 104.70,-115.35 104.41,-115.41 104.14,-115.56 103.88,-115.71 103.68,-115.94 103.48,-116.17 103.37,-116.45 103.25,-116.73 103.23,-117.03 103.21,-117.33 103.28,-117.62 103.36,-117.92 103.36,-117.92 103.36,-117.92 103.72,-115.54 104.08,-113.16 102.68,-111.43 101.29,-109.70 100.37,-108.23 99.45,-106.75 98.62,-105.33 97.79,-103.91 97.00,-102.29 96.20,-100.68 95.21,-99.18 94.23,-97.68 93.23,-96.20 92.24,-94.73 91.23,-93.29 90.21,-91.86 88.29,-89.89 86.37,-87.92 85.52,-86.62 84.67,-85.31 83.92,-84.12 83.17,-82.93 82.29,-81.53 81.40,-80.13 80.55,-78.61 79.70,-77.09 78.57,-75.72 77.45,-74.34 75.76,-72.50 74.08,-70.65 72.12,-68.31 70.15,-65.98 67.49,-62.42 64.82,-58.85 60.59,-53.88 56.35,-48.90 50.52,-43.38 44.69,-37.85 37.18,-31.72 29.66,-25.59 22.74,-19.25 15.83,-12.91 13.70,-10.81 11.58,-8.71 8.58,-5.80 5.58,-2.90 3.30,-0.86 1.02,1.17 0.87,1.28 0.71,1.38 0.54,1.45 0.36,1.51 0.17,1.54 -0.00,1.56 -0.19,1.53 -0.38,1.51 -0.55,1.44 -0.73,1.37 -0.88,1.27 -1.04,1.16 -1.16,1.02 -1.29,0.87 -1.37,0.71 -1.46,0.54 -1.50,0.36 -1.55,0.17 -1.55,-0.00 -1.54,-0.19 -1.50,-0.38 -1.45,-0.56 -1.36,-0.72 -1.28,-0.89 -1.15,-1.03 -1.02,-1.17 -1.02,-1.17 L -1.02,-1.17 Z"></path></g><g transform="translate(791 604.28125) rotate(0 25.5 -28.5)" stroke="none"><path fill="#1864ab" d="M -1.43,-1.23 Q -1.43,-1.23 0.35,-3.19 2.13,-5.16 5.06,-7.25 7.98,-9.34 11.78,-11.90 15.57,-14.45 19.14,-17.49 22.70,-20.52 25.06,-22.93 27.42,-25.34 28.69,-26.91 29.96,-28.48 31.04,-30.03 32.12,-31.57 32.56,-33.13 32.99,-34.69 33.34,-35.71 33.68,-36.72 34.58,-38.31 35.48,-39.89 36.42,-41.01 37.37,-42.14 38.33,-42.82 39.29,-43.50 39.95,-44.73 40.61,-45.96 41.93,-47.52 43.24,-49.09 43.99,-50.27 44.73,-51.45 45.30,-52.52 45.88,-53.59 46.47,-54.50 47.07,-55.40 47.73,-56.53 48.39,-57.65 48.62,-58.02 48.84,-58.39 49.17,-58.66 49.50,-58.94 49.90,-59.09 50.30,-59.25 50.73,-59.27 51.16,-59.29 51.57,-59.18 51.99,-59.06 52.34,-58.81 52.70,-58.57 52.95,-58.23 53.21,-57.88 53.35,-57.47 53.48,-57.07 53.48,-56.64 53.48,-56.21 53.34,-55.80 53.20,-55.39 52.93,-55.05 52.67,-54.71 52.31,-54.47 51.96,-54.23 51.54,-54.12 51.13,-54.01 50.70,-54.03 50.27,-54.06 49.87,-54.22 49.47,-54.38 49.14,-54.66 48.82,-54.94 48.60,-55.31 48.38,-55.68 48.29,-56.10 48.20,-56.52 48.25,-56.95 48.30,-57.38 48.48,-57.77 48.66,-58.16 48.96,-58.47 49.26,-58.78 49.64,-58.98 50.02,-59.18 50.45,-59.24 50.87,-59.31 51.30,-59.24 51.72,-59.17 52.10,-58.96 52.48,-58.76 52.77,-58.44 53.07,-58.13 53.24,-57.74 53.42,-57.35 53.47,-56.92 53.51,-56.49 53.41,-56.07 53.32,-55.65 53.32,-55.65 53.32,-55.65 51.80,-53.39 50.28,-51.12 49.61,-49.97 48.94,-48.82 48.12,-47.49 47.30,-46.15 46.28,-44.50 45.26,-42.86 44.56,-41.78 43.85,-40.70 42.52,-39.54 41.18,-38.38 40.23,-37.51 39.27,-36.64 38.52,-35.63 37.77,-34.62 36.80,-33.22 35.82,-31.82 35.17,-30.83 34.53,-29.83 33.35,-28.27 32.17,-26.70 30.83,-25.02 29.48,-23.35 27.05,-20.81 24.63,-18.28 20.97,-15.10 17.32,-11.92 13.60,-9.32 9.89,-6.72 7.32,-4.80 4.76,-2.88 3.09,-0.82 1.43,1.23 1.26,1.38 1.10,1.54 0.90,1.64 0.70,1.75 0.47,1.81 0.25,1.87 0.03,1.87 -0.19,1.88 -0.41,1.83 -0.64,1.78 -0.84,1.67 -1.04,1.57 -1.22,1.42 -1.39,1.27 -1.52,1.09 -1.66,0.90 -1.74,0.69 -1.83,0.48 -1.86,0.25 -1.89,0.03 -1.86,-0.19 -1.84,-0.42 -1.76,-0.63 -1.69,-0.85 -1.56,-1.04 -1.43,-1.23 -1.43,-1.23 L -1.43,-1.23 Z"></path></g><g transform="translate(824 664.28125) rotate(0 64.5 -45)" stroke="none"><path fill="#1864ab" d="M -0.97,-1.21 Q -0.97,-1.21 1.92,-3.49 4.81,-5.76 7.49,-7.87 10.16,-9.98 14.10,-14.24 18.04,-18.51 25.28,-24.45 32.53,-30.38 43.36,-38.63 54.19,-46.89 66.34,-53.89 78.48,-60.88 89.67,-66.72 100.87,-72.56 107.32,-76.18 113.78,-79.79 117.32,-82.44 120.86,-85.08 122.95,-86.78 125.04,-88.48 126.16,-89.92 127.29,-91.37 127.48,-91.52 127.67,-91.68 127.90,-91.77 128.13,-91.85 128.38,-91.86 128.62,-91.87 128.86,-91.80 129.10,-91.73 129.30,-91.59 129.50,-91.45 129.65,-91.25 129.79,-91.05 129.87,-90.81 129.94,-90.58 129.94,-90.33 129.93,-90.08 129.85,-89.85 129.77,-89.62 129.62,-89.42 129.46,-89.23 129.25,-89.09 129.05,-88.96 128.81,-88.90 128.57,-88.83 128.32,-88.85 128.08,-88.87 127.85,-88.97 127.62,-89.06 127.43,-89.22 127.25,-89.39 127.13,-89.60 127.00,-89.82 126.95,-90.06 126.90,-90.30 126.94,-90.55 126.97,-90.79 127.07,-91.01 127.18,-91.24 127.36,-91.41 127.53,-91.59 127.75,-91.70 127.97,-91.81 128.21,-91.85 128.46,-91.88 128.70,-91.84 128.95,-91.79 129.16,-91.67 129.38,-91.55 129.54,-91.37 129.71,-91.19 129.81,-90.96 129.91,-90.74 129.93,-90.49 129.96,-90.24 129.90,-90.00 129.84,-89.76 129.71,-89.55 129.58,-89.35 129.58,-89.35 129.58,-89.35 128.15,-87.89 126.71,-86.43 124.58,-84.69 122.45,-82.95 118.77,-80.21 115.08,-77.47 108.60,-73.83 102.11,-70.19 90.97,-64.37 79.83,-58.54 67.84,-51.63 55.84,-44.72 45.06,-36.48 34.28,-28.24 27.20,-22.42 20.11,-16.60 16.04,-12.16 11.97,-7.72 9.32,-5.58 6.68,-3.43 3.82,-1.10 0.97,1.21 0.81,1.31 0.65,1.41 0.47,1.47 0.29,1.53 0.10,1.54 -0.07,1.56 -0.26,1.52 -0.44,1.49 -0.62,1.42 -0.79,1.34 -0.94,1.23 -1.09,1.11 -1.21,0.96 -1.32,0.82 -1.40,0.65 -1.48,0.47 -1.52,0.29 -1.55,0.11 -1.54,-0.07 -1.53,-0.26 -1.48,-0.44 -1.43,-0.62 -1.33,-0.78 -1.23,-0.95 -1.10,-1.08 -0.97,-1.21 -0.97,-1.21 L -0.97,-1.21 Z"></path></g><g transform="translate(819 655.28125) rotate(0 43 -49)" stroke="none"><path fill="#1864ab" d="M -1.21,-0.97 Q -1.21,-0.97 2.25,-5.26 5.73,-9.56 11.33,-14.34 16.94,-19.13 22.72,-24.27 28.51,-29.41 34.12,-34.74 39.73,-40.08 43.51,-44.59 47.29,-49.10 49.76,-52.45 52.23,-55.79 54.42,-59.21 56.60,-62.62 58.74,-65.29 60.87,-67.96 62.93,-70.25 65.00,-72.54 66.71,-74.63 68.42,-76.71 70.00,-78.75 71.59,-80.78 72.83,-82.49 74.07,-84.21 75.14,-85.82 76.21,-87.43 77.23,-88.79 78.25,-90.14 79.23,-91.33 80.22,-92.52 81.14,-93.82 82.06,-95.11 82.97,-96.72 83.88,-98.32 84.09,-98.56 84.30,-98.80 84.58,-98.96 84.85,-99.12 85.16,-99.18 85.48,-99.24 85.79,-99.20 86.11,-99.16 86.39,-99.02 86.68,-98.88 86.91,-98.66 87.13,-98.44 87.28,-98.15 87.42,-97.87 87.47,-97.56 87.51,-97.24 87.45,-96.93 87.40,-96.62 87.24,-96.34 87.09,-96.06 86.85,-95.84 86.62,-95.63 86.33,-95.50 86.04,-95.37 85.72,-95.35 85.40,-95.32 85.09,-95.39 84.78,-95.47 84.51,-95.63 84.24,-95.80 84.04,-96.05 83.84,-96.30 83.73,-96.59 83.62,-96.89 83.61,-97.21 83.59,-97.53 83.69,-97.83 83.78,-98.14 83.96,-98.40 84.14,-98.66 84.40,-98.84 84.66,-99.03 84.96,-99.13 85.26,-99.22 85.58,-99.22 85.90,-99.21 86.20,-99.10 86.50,-99.00 86.75,-98.80 87.00,-98.60 87.17,-98.34 87.34,-98.07 87.42,-97.76 87.50,-97.45 87.48,-97.14 87.46,-96.82 87.33,-96.53 87.21,-96.23 87.21,-96.23 87.21,-96.23 86.08,-94.58 84.95,-92.93 83.85,-91.56 82.76,-90.19 81.70,-89.16 80.65,-88.14 79.58,-86.99 78.51,-85.83 77.36,-84.25 76.21,-82.66 74.94,-80.91 73.68,-79.16 72.07,-77.10 70.46,-75.04 68.72,-72.90 66.97,-70.76 64.96,-68.53 62.95,-66.30 60.90,-63.73 58.86,-61.17 56.63,-57.68 54.40,-54.19 51.89,-50.77 49.39,-47.35 45.51,-42.72 41.64,-38.08 36.01,-32.69 30.38,-27.31 24.60,-22.13 18.82,-16.94 13.44,-12.31 8.06,-7.68 4.64,-3.35 1.21,0.97 1.08,1.10 0.95,1.23 0.78,1.33 0.62,1.43 0.44,1.48 0.26,1.53 0.07,1.54 -0.11,1.55 -0.29,1.52 -0.47,1.48 -0.65,1.40 -0.82,1.32 -0.96,1.21 -1.11,1.09 -1.23,0.94 -1.34,0.79 -1.42,0.62 -1.49,0.44 -1.52,0.26 -1.56,0.07 -1.54,-0.10 -1.53,-0.29 -1.47,-0.47 -1.41,-0.65 -1.31,-0.81 -1.21,-0.97 -1.21,-0.97 L -1.21,-0.97 Z"></path></g><g transform="translate(875 658.28125) rotate(0 21 -17)" stroke="none"><path fill="#1864ab" d="M -1.14,-1.60 Q -1.14,-1.60 0.91,-2.97 2.97,-4.33 6.12,-6.87 9.26,-9.40 14.11,-13.08 18.95,-16.76 23.01,-20.02 27.06,-23.28 30.27,-25.55 33.48,-27.82 35.05,-29.29 36.61,-30.75 38.49,-33.29 40.36,-35.83 40.58,-36.01 40.81,-36.18 41.08,-36.28 41.35,-36.37 41.64,-36.38 41.92,-36.38 42.20,-36.29 42.47,-36.21 42.70,-36.04 42.93,-35.87 43.09,-35.63 43.26,-35.40 43.34,-35.12 43.42,-34.85 43.41,-34.56 43.39,-34.27 43.29,-34.01 43.19,-33.74 43.01,-33.52 42.82,-33.30 42.58,-33.14 42.34,-32.99 42.06,-32.93 41.78,-32.86 41.49,-32.89 41.21,-32.92 40.95,-33.04 40.68,-33.15 40.47,-33.35 40.26,-33.54 40.13,-33.79 39.99,-34.04 39.94,-34.33 39.89,-34.61 39.93,-34.89 39.97,-35.17 40.10,-35.43 40.24,-35.68 40.44,-35.88 40.65,-36.08 40.90,-36.21 41.16,-36.33 41.45,-36.37 41.73,-36.40 42.01,-36.34 42.29,-36.28 42.54,-36.14 42.79,-36.00 42.98,-35.78 43.16,-35.56 43.27,-35.30 43.38,-35.03 43.40,-34.75 43.42,-34.46 43.35,-34.18 43.28,-33.91 43.12,-33.67 42.96,-33.43 42.96,-33.43 42.96,-33.43 41.63,-32.03 40.30,-30.62 39.43,-29.66 38.56,-28.70 36.86,-27.08 35.17,-25.47 32.06,-23.21 28.96,-20.96 24.92,-17.62 20.87,-14.28 16.13,-10.56 11.40,-6.84 8.23,-4.12 5.07,-1.41 3.10,0.09 1.14,1.60 0.93,1.72 0.72,1.83 0.49,1.89 0.26,1.95 0.03,1.96 -0.20,1.96 -0.43,1.91 -0.67,1.85 -0.88,1.75 -1.09,1.64 -1.27,1.48 -1.45,1.33 -1.59,1.13 -1.73,0.94 -1.82,0.72 -1.90,0.50 -1.94,0.26 -1.97,0.03 -1.94,-0.20 -1.92,-0.44 -1.84,-0.66 -1.76,-0.88 -1.63,-1.08 -1.49,-1.28 -1.32,-1.44 -1.14,-1.60 -1.14,-1.60 L -1.14,-1.60 Z"></path></g><g transform="translate(902 662.28125) rotate(0 9 -12.5)" stroke="none"><path fill="#1864ab" d="M -0.80,-1.80 Q -0.80,-1.80 1.81,-2.86 4.42,-3.93 6.22,-5.39 8.03,-6.85 9.67,-8.58 11.32,-10.31 12.23,-12.32 13.14,-14.33 14.15,-16.94 15.16,-19.56 15.74,-22.16 16.32,-24.75 16.41,-24.99 16.50,-25.24 16.66,-25.43 16.83,-25.63 17.05,-25.77 17.27,-25.91 17.52,-25.97 17.77,-26.03 18.03,-26.00 18.28,-25.98 18.52,-25.87 18.76,-25.77 18.95,-25.59 19.14,-25.42 19.26,-25.19 19.38,-24.97 19.43,-24.71 19.48,-24.46 19.44,-24.20 19.40,-23.95 19.28,-23.72 19.17,-23.49 18.98,-23.31 18.80,-23.13 18.56,-23.02 18.33,-22.90 18.08,-22.87 17.82,-22.84 17.57,-22.89 17.31,-22.94 17.09,-23.07 16.87,-23.20 16.70,-23.40 16.53,-23.59 16.43,-23.83 16.33,-24.07 16.31,-24.32 16.29,-24.58 16.36,-24.83 16.42,-25.08 16.56,-25.30 16.71,-25.51 16.91,-25.67 17.11,-25.83 17.35,-25.92 17.60,-26.00 17.86,-26.01 18.11,-26.01 18.36,-25.93 18.61,-25.86 18.81,-25.70 19.02,-25.55 19.17,-25.34 19.32,-25.13 19.39,-24.88 19.46,-24.63 19.45,-24.37 19.44,-24.12 19.44,-24.12 19.44,-24.12 18.66,-21.33 17.87,-18.54 16.87,-15.81 15.87,-13.09 14.76,-10.66 13.66,-8.22 11.91,-6.26 10.16,-4.30 8.04,-2.48 5.92,-0.66 3.36,0.56 0.80,1.80 0.57,1.87 0.34,1.94 0.10,1.95 -0.12,1.96 -0.36,1.92 -0.59,1.88 -0.81,1.78 -1.02,1.68 -1.21,1.53 -1.40,1.38 -1.54,1.20 -1.69,1.01 -1.78,0.79 -1.88,0.57 -1.92,0.34 -1.96,0.10 -1.95,-0.12 -1.93,-0.36 -1.86,-0.59 -1.79,-0.81 -1.67,-1.02 -1.54,-1.22 -1.37,-1.39 -1.20,-1.55 -1.00,-1.68 -0.80,-1.80 -0.80,-1.80 L -0.80,-1.80 Z"></path></g><g transform="translate(918 665.28125) rotate(0 7 -7.5)" stroke="none"><path fill="#000000" d="M -0.93,-2.32 Q -0.93,-2.32 0.48,-2.86 1.90,-3.40 2.75,-4.26 3.60,-5.12 4.74,-6.78 5.88,-8.45 6.94,-9.57 7.99,-10.70 8.90,-11.59 9.81,-12.49 10.59,-14.03 11.37,-15.58 11.59,-15.94 11.82,-16.30 12.15,-16.58 12.48,-16.85 12.88,-17.00 13.28,-17.15 13.71,-17.17 14.14,-17.19 14.55,-17.06 14.96,-16.94 15.31,-16.70 15.67,-16.45 15.92,-16.11 16.17,-15.76 16.30,-15.35 16.43,-14.94 16.43,-14.52 16.42,-14.09 16.28,-13.68 16.13,-13.28 15.87,-12.94 15.60,-12.60 15.24,-12.37 14.89,-12.14 14.47,-12.03 14.06,-11.92 13.63,-11.95 13.20,-11.98 12.81,-12.14 12.41,-12.31 12.09,-12.59 11.77,-12.88 11.55,-13.25 11.34,-13.62 11.25,-14.04 11.17,-14.46 11.22,-14.88 11.27,-15.31 11.46,-15.69 11.64,-16.08 11.94,-16.39 12.24,-16.69 12.63,-16.89 13.01,-17.08 13.43,-17.14 13.86,-17.21 14.28,-17.13 14.70,-17.05 15.07,-16.85 15.45,-16.64 15.74,-16.32 16.03,-16.01 16.20,-15.62 16.38,-15.22 16.42,-14.80 16.46,-14.37 16.36,-13.95 16.26,-13.54 16.26,-13.54 16.26,-13.54 14.84,-11.17 13.43,-8.81 11.85,-7.42 10.27,-6.04 9.42,-4.57 8.57,-3.11 7.73,-2.36 6.88,-1.60 5.36,-0.24 3.84,1.10 2.38,1.71 0.93,2.32 0.63,2.40 0.34,2.48 0.04,2.48 -0.25,2.49 -0.55,2.42 -0.84,2.36 -1.11,2.22 -1.38,2.08 -1.61,1.89 -1.84,1.69 -2.02,1.45 -2.19,1.20 -2.31,0.92 -2.42,0.64 -2.46,0.34 -2.50,0.04 -2.47,-0.25 -2.44,-0.55 -2.34,-0.84 -2.24,-1.12 -2.07,-1.37 -1.90,-1.62 -1.68,-1.83 -1.46,-2.03 -1.19,-2.18 -0.93,-2.32 -0.93,-2.32 L -0.93,-2.32 Z"></path></g><g transform="translate(955 541.28125) rotate(0 10.5 12)" stroke="none"><path fill="#000000" d="M 2.13,0 Q 2.13,0 2.12,1.72 2.10,3.44 2.11,5.03 2.12,6.62 2.56,8.81 3.00,11.00 3.71,13.08 4.42,15.17 5.27,16.86 6.12,18.56 7.25,19.69 8.37,20.82 9.93,21.24 11.50,21.66 12.91,21.60 14.31,21.53 15.57,19.87 16.82,18.20 17.30,17.24 17.78,16.29 18.04,14.61 18.30,12.93 18.44,11.22 18.58,9.50 18.63,7.92 18.68,6.34 18.62,3.25 18.57,0.17 18.70,-0.18 18.82,-0.54 19.06,-0.84 19.30,-1.14 19.62,-1.35 19.94,-1.56 20.30,-1.65 20.67,-1.75 21.05,-1.72 21.43,-1.69 21.79,-1.55 22.14,-1.40 22.42,-1.15 22.71,-0.89 22.90,-0.56 23.09,-0.23 23.17,0.13 23.24,0.50 23.19,0.88 23.15,1.26 22.98,1.60 22.81,1.95 22.55,2.22 22.28,2.49 21.94,2.66 21.60,2.84 21.22,2.89 20.84,2.95 20.47,2.88 20.09,2.81 19.76,2.62 19.43,2.44 19.17,2.16 18.91,1.88 18.76,1.53 18.61,1.18 18.57,0.80 18.54,0.42 18.63,0.05 18.71,-0.31 18.92,-0.63 19.12,-0.96 19.41,-1.20 19.71,-1.44 20.06,-1.58 20.42,-1.71 20.80,-1.72 21.18,-1.74 21.55,-1.63 21.91,-1.52 22.23,-1.30 22.54,-1.08 22.76,-0.77 22.99,-0.47 23.10,-0.10 23.22,0.25 23.21,0.63 23.20,1.01 23.20,1.01 23.20,1.01 23.20,3.72 23.20,6.43 23.17,8.08 23.14,9.74 23.09,11.57 23.05,13.41 22.88,16.03 22.71,18.65 22.16,19.69 21.62,20.73 21.07,21.74 20.51,22.76 19.45,24.18 18.39,25.60 16.27,26.00 14.14,26.40 12.93,26.21 11.73,26.02 10.11,25.44 8.49,24.85 7.20,24.04 5.91,23.23 4.52,21.69 3.14,20.15 2.14,18.28 1.15,16.40 0.22,14.15 -0.70,11.89 -1.41,9.27 -2.12,6.65 -2.11,5.05 -2.10,3.44 -2.12,1.72 -2.13,0 -2.10,-0.25 -2.07,-0.51 -1.98,-0.75 -1.89,-0.99 -1.74,-1.20 -1.59,-1.41 -1.40,-1.58 -1.21,-1.75 -0.98,-1.87 -0.75,-1.99 -0.50,-2.05 -0.25,-2.11 0.00,-2.11 0.25,-2.11 0.50,-2.05 0.75,-1.99 0.98,-1.87 1.21,-1.75 1.40,-1.58 1.59,-1.41 1.74,-1.20 1.89,-0.99 1.98,-0.75 2.07,-0.51 2.10,-0.25 2.13,0.00 2.13,0.00 L 2.13,0 Z"></path></g></svg>