<svg version="1.1" xmlns="http://www.w3.org/2000/svg" viewBox="0 0 10020 699.390625" width="10020" height="699.390625">
  <!-- svg-source:excalidraw -->
  
  <defs>
    <style>
      @font-face {
        font-family: "Virgil";
        src: url("https://excalidraw.com/Virgil.woff2");
      }
      @font-face {
        font-family: "Cascadia";
        src: url("https://excalidraw.com/Cascadia.woff2");
      }
    </style>
  </defs>
  <rect x="0" y="0" width="10020" height="699.390625" fill="#fff0"></rect><g stroke-linecap="round" transform="translate(10 10) rotate(0 5000 0.5)"><path d="M-0.52 -0.26 C3022.65 -30.2, 6044.59 -29.2, 9999.32 0.22 M0.38 -0.31 C3948.03 -0.44, 7895.41 0.2, 9999.95 0.08 M10000.08 -0.06 C10000.09 0.27, 10000.05 0.48, 10000.09 0.92 M9999.97 0.01 C9999.95 0.33, 9999.98 0.72, 10000 0.99 M10000.22 1.51 C7095.77 35.76, 4193.15 34.95, -0.25 0.75 M10000.01 1.13 C7827.97 2.74, 5656.23 3.35, -0.33 0.84 M-0.04 1.01 C0 0.63, -0.06 0.15, 0.05 -0.03 M-0.04 0.95 C-0.04 0.73, -0.03 0.59, -0.05 -0.02" stroke="transparent" stroke-width="1" fill="none"></path></g><g stroke-linecap="round"><g transform="translate(730 689.390625) rotate(0 -1 -86.5)"><path d="M-0.45 -0.35 C-0.81 -28.87, -2.28 -143.47, -2.52 -172.27 M1.52 -1.58 C0.98 -30.34, -3.05 -145.62, -3.74 -174.02" stroke="#000" stroke-width="1" fill="none"></path></g><g transform="translate(730 689.390625) rotate(0 -1 -86.5)"><path d="M6.78 -147.02 C5.85 -153.6, 1.36 -163.2, -2.7 -174.63 M6.61 -146.91 C4.94 -154.26, 1.93 -160.13, -4 -173.92" stroke="#000" stroke-width="1" fill="none"></path></g><g transform="translate(730 689.390625) rotate(0 -1 -86.5)"><path d="M-13.73 -146.4 C-9.12 -153.07, -8.06 -162.83, -2.7 -174.63 M-13.9 -146.29 C-10.25 -153.62, -7.94 -159.66, -4 -173.92" stroke="#000" stroke-width="1" fill="none"></path></g></g><g stroke-linecap="round"><g transform="translate(691 621.390625) rotate(0 226.21674888357518 -1.9674021845217737)"><path d="M0.6 -0.61 C76.01 -1.26, 377.45 -2.22, 452.65 -2.85 M-0.54 1.69 C74.7 1.24, 376.61 -3.58, 451.82 -4.4" stroke="#000" stroke-width="1" fill="none"></path></g><g transform="translate(691 621.390625) rotate(0 226.21674888357518 -1.9674021845217737)"><path d="M422.76 6.6 C434.42 1.66, 440.84 -2.05, 453.47 -5.86 M424.31 5.65 C429.64 4.33, 436.3 1.21, 451.35 -4.29" stroke="#000" stroke-width="1" fill="none"></path></g><g transform="translate(691 621.390625) rotate(0 226.21674888357518 -1.9674021845217737)"><path d="M422.48 -13.92 C434.41 -12.33, 440.92 -9.5, 453.47 -5.86 M424.03 -14.87 C429.31 -11.61, 436.04 -10.17, 451.35 -4.29" stroke="#000" stroke-width="1" fill="none"></path></g></g><g stroke-linecap="round"><g transform="translate(693 588.390625) rotate(0 183 26)"><path d="M-0.33 0.75 C6.53 -4.16, 27.02 -23.64, 40.9 -28.44 C54.78 -33.24, 67.93 -32.74, 82.93 -28.06 C97.94 -23.38, 116.95 -12.44, 130.94 -0.35 C144.93 11.73, 154.16 34.49, 166.87 44.43 C179.58 54.37, 187.47 53.9, 207.19 59.26 C226.9 64.62, 258.59 73.07, 285.16 76.62 C311.74 80.17, 353.17 80.17, 366.63 80.58 M1.7 0.09 C8.42 -4.73, 26.49 -22.65, 39.9 -27.13 C53.3 -31.61, 66.83 -30.87, 82.13 -26.78 C97.43 -22.69, 117.72 -14.54, 131.68 -2.57 C145.63 9.4, 153.11 34.37, 165.86 45.05 C178.61 55.72, 188.25 55.88, 208.17 61.49 C228.09 67.11, 259.07 75.56, 285.37 78.73 C311.66 81.91, 352.8 80.19, 365.94 80.54" stroke="#d9480f" stroke-width="1" fill="none"></path></g></g><g transform="translate(845 610.390625) rotate(0 0.00004999999998744897 0.00005000000000165983)" stroke="none"><path fill="#1864ab" d="M 1.57,-1.57 Q 1.57,-1.57 1.77,-1.27 1.98,-0.98 2.09,-0.64 2.20,-0.29 2.19,0.05 2.18,0.41 2.05,0.75 1.93,1.09 1.70,1.37 1.48,1.65 1.18,1.84 0.87,2.04 0.52,2.12 0.18,2.21 -0.17,2.18 -0.53,2.15 -0.86,2.01 -1.19,1.87 -1.46,1.63 -1.73,1.39 -1.90,1.07 -2.08,0.76 -2.15,0.41 -2.21,0.05 -2.17,-0.29 -2.12,-0.65 -1.96,-0.97 -1.80,-1.29 -1.54,-1.54 -1.29,-1.80 -0.97,-1.96 -0.65,-2.12 -0.29,-2.17 0.06,-2.21 0.41,-2.15 0.76,-2.08 1.07,-1.90 1.39,-1.73 1.63,-1.46 1.87,-1.19 2.01,-0.86 2.15,-0.53 2.18,-0.17 2.21,0.18 2.12,0.52 2.03,0.87 1.84,1.18 1.65,1.48 1.37,1.70 1.09,1.93 0.75,2.05 0.41,2.18 0.05,2.19 -0.30,2.20 -0.64,2.09 -0.98,1.98 -1.27,1.77 -1.57,1.56 -1.57,1.57 -1.57,1.57 -1.73,1.35 -1.90,1.14 -2.01,0.90 -2.12,0.66 -2.16,0.39 -2.21,0.13 -2.20,-0.13 -2.18,-0.40 -2.10,-0.65 -2.02,-0.91 -1.88,-1.14 -1.74,-1.36 -1.55,-1.55 -1.36,-1.74 -1.14,-1.88 -0.91,-2.02 -0.65,-2.10 -0.40,-2.18 -0.13,-2.20 0.13,-2.21 0.39,-2.16 0.66,-2.12 0.90,-2.01 1.14,-1.90 1.35,-1.73 1.57,-1.57 1.57,-1.57 L 1.57,-1.57 Z"></path></g><g transform="translate(845 617.390625) rotate(0 0.00004999999998744897 0.00005000000000165983)" stroke="none"><path fill="#1864ab" d="M 1.57,-1.57 Q 1.57,-1.57 1.77,-1.27 1.98,-0.98 2.09,-0.64 2.20,-0.29 2.19,0.05 2.18,0.41 2.05,0.75 1.93,1.09 1.70,1.37 1.48,1.65 1.18,1.84 0.87,2.04 0.52,2.12 0.18,2.21 -0.17,2.18 -0.53,2.15 -0.86,2.01 -1.19,1.87 -1.46,1.63 -1.73,1.39 -1.90,1.07 -2.08,0.76 -2.15,0.41 -2.21,0.05 -2.17,-0.29 -2.12,-0.65 -1.96,-0.97 -1.80,-1.29 -1.54,-1.54 -1.29,-1.80 -0.97,-1.96 -0.65,-2.12 -0.29,-2.17 0.06,-2.21 0.41,-2.15 0.76,-2.08 1.07,-1.90 1.39,-1.73 1.63,-1.46 1.87,-1.19 2.01,-0.86 2.15,-0.53 2.18,-0.17 2.21,0.18 2.12,0.52 2.03,0.87 1.84,1.18 1.65,1.48 1.37,1.70 1.09,1.93 0.75,2.05 0.41,2.18 0.05,2.19 -0.30,2.20 -0.64,2.09 -0.98,1.98 -1.27,1.77 -1.57,1.56 -1.57,1.57 -1.57,1.57 -1.73,1.35 -1.90,1.14 -2.01,0.90 -2.12,0.66 -2.16,0.39 -2.21,0.13 -2.20,-0.13 -2.18,-0.40 -2.10,-0.65 -2.02,-0.91 -1.88,-1.14 -1.74,-1.36 -1.55,-1.55 -1.36,-1.74 -1.14,-1.88 -0.91,-2.02 -0.65,-2.10 -0.40,-2.18 -0.13,-2.20 0.13,-2.21 0.39,-2.16 0.66,-2.12 0.90,-2.01 1.14,-1.90 1.35,-1.73 1.57,-1.57 1.57,-1.57 L 1.57,-1.57 Z"></path></g><g transform="translate(845 617.390625) rotate(0 0.00004999999998744897 0.00005000000000165983)" stroke="none"><path fill="#1864ab" d="M 1.57,-1.57 Q 1.57,-1.57 1.77,-1.27 1.98,-0.98 2.09,-0.64 2.20,-0.29 2.19,0.05 2.18,0.41 2.05,0.75 1.93,1.09 1.70,1.37 1.48,1.65 1.18,1.84 0.87,2.04 0.52,2.12 0.18,2.21 -0.17,2.18 -0.53,2.15 -0.86,2.01 -1.19,1.87 -1.46,1.63 -1.73,1.39 -1.90,1.07 -2.08,0.76 -2.15,0.41 -2.21,0.05 -2.17,-0.29 -2.12,-0.65 -1.96,-0.97 -1.80,-1.29 -1.54,-1.54 -1.29,-1.80 -0.97,-1.96 -0.65,-2.12 -0.29,-2.17 0.06,-2.21 0.41,-2.15 0.76,-2.08 1.07,-1.90 1.39,-1.73 1.63,-1.46 1.87,-1.19 2.01,-0.86 2.15,-0.53 2.18,-0.17 2.21,0.18 2.12,0.52 2.03,0.87 1.84,1.18 1.65,1.48 1.37,1.70 1.09,1.93 0.75,2.05 0.41,2.18 0.05,2.19 -0.30,2.20 -0.64,2.09 -0.98,1.98 -1.27,1.77 -1.57,1.56 -1.57,1.57 -1.57,1.57 -1.73,1.35 -1.90,1.14 -2.01,0.90 -2.12,0.66 -2.16,0.39 -2.21,0.13 -2.20,-0.13 -2.18,-0.40 -2.10,-0.65 -2.02,-0.91 -1.88,-1.14 -1.74,-1.36 -1.55,-1.55 -1.36,-1.74 -1.14,-1.88 -0.91,-2.02 -0.65,-2.10 -0.40,-2.18 -0.13,-2.20 0.13,-2.21 0.39,-2.16 0.66,-2.12 0.90,-2.01 1.14,-1.90 1.35,-1.73 1.57,-1.57 1.57,-1.57 L 1.57,-1.57 Z"></path></g><g transform="translate(845 617.390625) rotate(0 0.5 0)" stroke="none"><path fill="#1864ab" d="M 2.12,-0.66 Q 2.12,-0.66 2.15,-0.13 2.18,0.40 1.96,0.88 1.74,1.36 1.32,1.69 0.91,2.02 0.38,2.12 -0.13,2.21 -0.64,2.05 -1.14,1.90 -1.52,1.52 -1.90,1.14 -2.05,0.64 -2.21,0.13 -2.12,-0.38 -2.02,-0.91 -1.69,-1.32 -1.36,-1.74 -0.88,-1.96 -0.39,-2.18 0.13,-2.15 0.66,-2.11 1.11,-1.84 1.57,-1.56 1.84,-1.11 L 2.12,-0.66 Z"></path></g><g transform="translate(846 617.390625) rotate(0 0.00004999999998744897 0.00005000000000165983)" stroke="none"><path fill="#1864ab" d="M 1.57,-1.57 Q 1.57,-1.57 1.77,-1.27 1.98,-0.98 2.09,-0.64 2.20,-0.29 2.19,0.05 2.18,0.41 2.05,0.75 1.93,1.09 1.70,1.37 1.48,1.65 1.18,1.84 0.87,2.04 0.52,2.12 0.18,2.21 -0.17,2.18 -0.53,2.15 -0.86,2.01 -1.19,1.87 -1.46,1.63 -1.73,1.39 -1.90,1.07 -2.08,0.76 -2.15,0.41 -2.21,0.05 -2.17,-0.29 -2.12,-0.65 -1.96,-0.97 -1.80,-1.29 -1.54,-1.54 -1.29,-1.80 -0.97,-1.96 -0.65,-2.12 -0.29,-2.17 0.06,-2.21 0.41,-2.15 0.76,-2.08 1.07,-1.90 1.39,-1.73 1.63,-1.46 1.87,-1.19 2.01,-0.86 2.15,-0.53 2.18,-0.17 2.21,0.18 2.12,0.52 2.03,0.87 1.84,1.18 1.65,1.48 1.37,1.70 1.09,1.93 0.75,2.05 0.41,2.18 0.05,2.19 -0.30,2.20 -0.64,2.09 -0.98,1.98 -1.27,1.77 -1.57,1.56 -1.57,1.57 -1.57,1.57 -1.73,1.35 -1.90,1.14 -2.01,0.90 -2.12,0.66 -2.16,0.39 -2.21,0.13 -2.20,-0.13 -2.18,-0.40 -2.10,-0.65 -2.02,-0.91 -1.88,-1.14 -1.74,-1.36 -1.55,-1.55 -1.36,-1.74 -1.14,-1.88 -0.91,-2.02 -0.65,-2.10 -0.40,-2.18 -0.13,-2.20 0.13,-2.21 0.39,-2.16 0.66,-2.12 0.90,-2.01 1.14,-1.90 1.35,-1.73 1.57,-1.57 1.57,-1.57 L 1.57,-1.57 Z"></path></g><g transform="translate(844 614.390625) rotate(0 -1.5 -1.5)" stroke="none"><path fill="#1864ab" d="M -1.87,1.87 Q -1.87,1.87 -2.45,1.34 -3.03,0.81 -4.59,-0.10 -6.16,-1.02 -6.38,-2.64 -6.60,-4.26 -6.04,-5.43 -5.48,-6.60 -4.16,-7.13 -2.84,-7.66 -1.41,-7.25 0.00,-6.84 0.76,-5.91 1.52,-4.97 2.50,-3.44 3.47,-1.91 3.65,-0.14 3.84,1.62 3.17,2.77 2.51,3.92 1.35,4.41 0.19,4.91 -1.35,4.66 -2.89,4.42 -3.86,3.87 -4.83,3.33 -3.40,0.12 -1.96,-3.08 -1.45,-3.02 -0.94,-2.97 -0.47,-2.76 -0.00,-2.54 0.37,-2.19 0.75,-1.83 0.99,-1.38 1.23,-0.92 1.32,-0.41 1.40,0.09 1.32,0.60 1.24,1.11 1.00,1.56 0.76,2.02 0.39,2.38 0.01,2.73 -0.44,2.95 -0.91,3.17 -1.43,3.23 -1.94,3.29 -2.44,3.18 -2.95,3.07 -3.39,2.80 -3.83,2.54 -4.17,2.15 -4.51,1.75 -4.70,1.28 -4.89,0.80 -4.92,0.28 -4.95,-0.22 -4.82,-0.72 -4.68,-1.22 -4.39,-1.65 -4.10,-2.08 -3.69,-2.39 -3.28,-2.71 -2.79,-2.87 -2.31,-3.04 -1.79,-3.04 -1.27,-3.04 -0.78,-2.88 -0.29,-2.72 0.11,-2.41 0.52,-2.09 0.81,-1.67 1.10,-1.24 1.24,-0.75 1.38,-0.25 1.36,0.26 1.33,0.77 1.14,1.25 0.95,1.73 0.62,2.13 0.29,2.52 -0.14,2.79 -0.59,3.06 -1.09,3.17 -1.59,3.29 -1.59,3.28 -1.59,3.28 -1.29,1.01 -0.99,-1.26 -1.31,0.00 -1.64,1.28 -1.98,-0.33 -2.32,-1.95 -2.22,-3.12 -2.13,-4.29 -0.70,-3.70 0.73,-3.11 1.30,-2.49 1.87,-1.87 2.07,-1.62 2.26,-1.37 2.40,-1.08 2.53,-0.78 2.58,-0.47 2.64,-0.16 2.62,0.15 2.60,0.47 2.51,0.78 2.41,1.08 2.25,1.36 2.08,1.63 1.86,1.86 1.63,2.08 1.36,2.25 1.08,2.41 0.78,2.51 0.47,2.60 0.15,2.62 -0.16,2.64 -0.47,2.58 -0.78,2.53 -1.08,2.40 -1.37,2.26 -1.62,2.07 -1.87,1.87 -1.87,1.87 L -1.87,1.87 Z"></path></g><g stroke-linecap="round"><g transform="translate(1047 670.390625) rotate(0 -159.5 3)"><path d="M-1.08 -0.83 C-54.28 0.29, -266.14 5.16, -319.01 6.48 M0.56 1.36 C-52.83 2.12, -266.75 3.94, -319.96 4.61" stroke="#1864ab" stroke-width="1" fill="none"></path></g></g><g stroke-linecap="round"><g transform="translate(695 589.390625) rotate(0 17.5 0.5)"><path d="M0.46 -1.07 C6.14 -0.84, 28.32 1.42, 33.9 1.66 M-0.76 0.98 C5.3 0.85, 29.87 -0.18, 36.03 -0.11" stroke="#1864ab" stroke-width="1" fill="none"></path></g></g><g transform="translate(757 572.390625) rotate(0 19.5 12.5)"><text x="0" y="18" font-family="Virgil, Segoe UI Emoji" font-size="20px" fill="#1864ab" text-anchor="start" style="white-space: pre;" direction="ltr">f(a)</text></g><g transform="translate(681 655.390625) rotate(0 18 12.5)"><text x="0" y="18" font-family="Virgil, Segoe UI Emoji" font-size="20px" fill="#1864ab" text-anchor="start" style="white-space: pre;" direction="ltr">f(b)</text></g><g transform="translate(863 587.390625) rotate(0 5.5 12.5)"><text x="0" y="18" font-family="Virgil, Segoe UI Emoji" font-size="20px" fill="#1864ab" text-anchor="start" style="white-space: pre;" direction="ltr">c</text></g><g stroke-linecap="round"><g transform="translate(692 586.390625) rotate(0 0.5 18.5)"><path d="M0.34 0.91 C0.49 6.92, 1.2 30.97, 1.39 37.06 M-0.94 0.35 C-0.95 7.09, 0.33 32.79, 0.64 38.64" stroke="#1864ab" stroke-width="1" fill="none"></path></g></g><g stroke-linecap="round"><g transform="translate(1041 670.390625) rotate(0 -2.5 -30.5)"><path d="M-0.76 0.46 C-1.61 -9.69, -3.3 -50.09, -4.2 -60.37 M1.04 -0.34 C0.02 -10.9, -3.91 -52.21, -4.73 -62.16" stroke="#1864ab" stroke-width="1" fill="none"></path></g></g><g transform="translate(1049 575.390625) rotate(0 5.5 12.5)"><text x="0" y="18" font-family="Virgil, Segoe UI Emoji" font-size="20px" fill="#1864ab" text-anchor="start" style="white-space: pre;" direction="ltr">b</text></g><g transform="translate(669 603.390625) rotate(0 7 12.5)"><text x="0" y="18" font-family="Virgil, Segoe UI Emoji" font-size="20px" fill="#1864ab" text-anchor="start" style="white-space: pre;" direction="ltr">a</text></g></svg>