<svg version="1.1" xmlns="http://www.w3.org/2000/svg" viewBox="0 0 10020 612.9375" width="10020" height="612.9375">
  <!-- svg-source:excalidraw -->
  
  <defs>
    <style>
      @font-face {
        font-family: "Virgil";
        src: url("https://excalidraw.com/Virgil.woff2");
      }
      @font-face {
        font-family: "Cascadia";
        src: url("https://excalidraw.com/Cascadia.woff2");
      }
    </style>
  </defs>
  <rect x="0" y="0" width="10020" height="612.9375" fill="#fff0"></rect><g stroke-linecap="round" transform="translate(10 10) rotate(0 5000 0.5)"><path d="M-0.52 -0.26 C3022.65 -30.2, 6044.59 -29.2, 9999.32 0.22 M0.38 -0.31 C3948.03 -0.44, 7895.41 0.2, 9999.95 0.08 M10000.08 -0.06 C10000.09 0.27, 10000.05 0.48, 10000.09 0.92 M9999.97 0.01 C9999.95 0.33, 9999.98 0.72, 10000 0.99 M10000.22 1.51 C7095.77 35.76, 4193.15 34.95, -0.25 0.75 M10000.01 1.13 C7827.97 2.74, 5656.23 3.35, -0.33 0.84 M-0.04 1.01 C0 0.63, -0.06 0.15, 0.05 -0.03 M-0.04 0.95 C-0.04 0.73, -0.03 0.59, -0.05 -0.02" stroke="transparent" stroke-width="1" fill="none"></path></g><g stroke-linecap="round" transform="translate(682.84375 545.9375) rotate(0 66 20)"><path d="M-0.27 -0.73 C40.74 -1.59, 80.69 -0.24, 133.1 1.54 M0.92 -0.62 C48.67 -0.18, 98.24 0.51, 131.85 -0.43 M133.27 -0.61 C131.18 9.97, 131.78 20.52, 132.15 40.96 M132.05 -0.02 C132.48 14.79, 133.01 29.9, 131.01 39.44 M133.67 39.01 C98.72 39.77, 65.44 39.75, -0.91 41.9 M132.47 40.53 C84.19 41.35, 38.39 41.17, 0.08 40.25 M1.03 39.2 C-1.17 30.04, -0.56 20.25, -1.74 0.68 M-0.05 40.82 C0.99 27.38, 0.43 12.28, -0.05 0.9" stroke="#000" stroke-width="1" fill="none"></path></g><g stroke-linecap="round" transform="translate(1118.84375 548.9375) rotate(0 85 19)"><path d="M-1.07 1.84 C62.83 -0.18, 126.39 0.15, 169.62 -0.3 M0.63 0.64 C43.32 -0.38, 86.71 -0.08, 169.22 0.07 M171.25 0.1 C170.2 13.74, 170.61 28.03, 171.38 36.02 M169.84 0.84 C169.34 9.54, 169.82 19.09, 169.98 37.54 M171.92 38.94 C103.93 37.59, 35.91 40.14, -0.19 38.16 M169.4 38.52 C114.29 37.18, 59.25 37.49, -0.18 37.13 M-0.92 37.9 C1.5 26.56, 1.5 12.72, -1.71 -0.09 M0.81 37.47 C0.41 23.6, -0.92 8.37, 0.87 0.23" stroke="#000" stroke-width="1" fill="none"></path></g><g transform="translate(1123.84375 555.4375) rotate(0 80 12.5)"><text x="80" y="18" font-family="Virgil, Segoe UI Emoji" font-size="20px" fill="#000" text-anchor="middle" style="white-space: pre;" direction="ltr">Bob</text></g><g transform="translate(687.84375 553.4375) rotate(0 61 12.5)"><text x="61" y="18" font-family="Virgil, Segoe UI Emoji" font-size="20px" fill="#000" text-anchor="middle" style="white-space: pre;" direction="ltr">Alice</text></g><g stroke-linecap="round"><g transform="translate(836.84375 563.9375) rotate(0 126.5 0)"><path d="M-0.19 -0.97 C41.98 -0.92, 210.52 0.75, 252.91 1.07 M-1.75 1.13 C40.26 0.8, 209.3 -0.15, 251.92 -0.5" stroke="#d9480f" stroke-width="1" fill="none"></path></g><g transform="translate(836.84375 563.9375) rotate(0 126.5 0)"><path d="M222.17 9.8 C233.7 8.84, 241.64 3.77, 251.58 -1.12 M224.37 10.57 C230.69 6.9, 238.69 4.91, 252.76 -0.29" stroke="#d9480f" stroke-width="1" fill="none"></path></g><g transform="translate(836.84375 563.9375) rotate(0 126.5 0)"><path d="M222.03 -10.72 C233.73 -5.71, 241.71 -4.8, 251.58 -1.12 M224.23 -9.95 C230.65 -8.31, 238.69 -4.97, 252.76 -0.29" stroke="#d9480f" stroke-width="1" fill="none"></path></g></g><g transform="translate(934.84375 577.9375) rotate(0 26 12.5)"><text x="0" y="18" font-family="Virgil, Segoe UI Emoji" font-size="20px" fill="#000000" text-anchor="start" style="white-space: pre;" direction="ltr">Qubit</text></g><g transform="translate(622.84375 516.9375) rotate(0 111.5 12.5)"><text x="0" y="18" font-family="Virgil, Segoe UI Emoji" font-size="20px" fill="#000" text-anchor="start" style="white-space: pre;" direction="ltr">2 random bit sequence</text></g><g transform="translate(1098.34375 518.4375) rotate(0 107 12.5)"><text x="0" y="18" font-family="Virgil, Segoe UI Emoji" font-size="20px" fill="#000" text-anchor="start" style="white-space: pre;" direction="ltr">1 random bit sequence</text></g><g transform="translate(872.84375 530.9375) rotate(0 81 12.5)"><text x="0" y="18" font-family="Virgil, Segoe UI Emoji" font-size="20px" fill="#d9480f" text-anchor="start" style="white-space: pre;" direction="ltr">|1) |0) |1) |1) |0) ...</text></g></svg>