<svg version="1.1" xmlns="http://www.w3.org/2000/svg" viewBox="0 0 10020 783.234375" width="10020" height="783.234375">
  <!-- svg-source:excalidraw -->
  
  <defs>
    <style>
      @font-face {
        font-family: "Virgil";
        src: url("https://excalidraw.com/Virgil.woff2");
      }
      @font-face {
        font-family: "Cascadia";
        src: url("https://excalidraw.com/Cascadia.woff2");
      }
    </style>
  </defs>
  <rect x="0" y="0" width="10020" height="783.234375" fill="#fff0"></rect><g stroke-linecap="round" transform="translate(10 10) rotate(0 5000 0.5)"><path d="M-0.52 -0.26 C3022.65 -30.2, 6044.59 -29.2, 9999.32 0.22 M0.38 -0.31 C3948.03 -0.44, 7895.41 0.2, 9999.95 0.08 M10000.08 -0.06 C10000.09 0.27, 10000.05 0.48, 10000.09 0.92 M9999.97 0.01 C9999.95 0.33, 9999.98 0.72, 10000 0.99 M10000.22 1.51 C7095.77 35.76, 4193.15 34.95, -0.25 0.75 M10000.01 1.13 C7827.97 2.74, 5656.23 3.35, -0.33 0.84 M-0.04 1.01 C0 0.63, -0.06 0.15, 0.05 -0.03 M-0.04 0.95 C-0.04 0.73, -0.03 0.59, -0.05 -0.02" stroke="transparent" stroke-width="1" fill="none"></path></g><g stroke-linecap="round" transform="translate(566 577.234375) rotate(0 82 76)"><path d="M55.13 3.52 C64.9 -0.7, 77.98 0.17, 89.04 1.14 C100.1 2.12, 111.97 4.72, 121.48 9.36 C130.99 14.01, 139.5 20.97, 146.1 29.02 C152.71 37.06, 158.31 47.61, 161.08 57.65 C163.86 67.69, 164.78 79.16, 162.75 89.26 C160.72 99.37, 155.07 109.56, 148.91 118.3 C142.75 127.03, 135.19 136.25, 125.77 141.68 C116.35 147.1, 103.54 149.54, 92.39 150.84 C81.23 152.15, 69.55 152.46, 58.84 149.5 C48.13 146.53, 36.6 139.69, 28.13 133.06 C19.66 126.44, 12.87 119.06, 8.03 109.74 C3.19 100.42, -0.72 87.65, -0.92 77.16 C-1.13 66.67, 2.25 56.29, 6.81 46.78 C11.37 37.28, 17.89 27.31, 26.44 20.11 C34.98 12.9, 51.79 6.48, 58.09 3.56 C64.39 0.63, 63.89 1.48, 64.25 2.57 M73.81 1.54 C84.15 -0.75, 96.61 0.53, 107.25 3.64 C117.9 6.76, 129.31 13.14, 137.7 20.26 C146.08 27.38, 153.17 36.98, 157.56 46.37 C161.96 55.75, 164.41 66.44, 164.06 76.56 C163.71 86.69, 160.15 97.84, 155.48 107.12 C150.82 116.39, 144.4 125.2, 136.07 132.22 C127.73 139.23, 116.18 145.96, 105.49 149.2 C94.8 152.43, 82.7 153.15, 71.93 151.62 C61.17 150.1, 50.24 145.25, 40.89 140.06 C31.54 134.87, 22.32 128.78, 15.82 120.47 C9.33 112.17, 4.39 100.35, 1.91 90.25 C-0.57 80.15, -1.34 70.02, 0.96 59.87 C3.26 49.72, 8.78 37.72, 15.71 29.34 C22.63 20.95, 32.88 14.15, 42.49 9.56 C52.1 4.98, 68.15 3.03, 73.39 1.82 C78.63 0.62, 73.85 1.37, 73.94 2.35" stroke="#000" stroke-width="1" fill="none"></path></g><g stroke-linecap="round"><g transform="translate(528 728.234375) rotate(0 120 0.5)"><path d="M-1.16 -1 C38.7 -1.03, 199.52 0.32, 239.65 0.77 M0.44 1.09 C40.06 1.16, 198.82 2.41, 238.52 2.19" stroke="#000" stroke-width="1" fill="none"></path></g></g><g transform="translate(642 652.234375) rotate(0 2 3.5)" stroke="none"><path fill="#d9480f" d="M 2.06,-1.54 Q 2.06,-1.54 2.91,-0.39 3.77,0.76 4.48,1.68 5.20,2.60 5.39,3.76 5.58,4.92 4.47,6.46 3.37,8.00 1.45,7.73 -0.45,7.47 -1.71,4.34 -2.96,1.21 -2.90,0.73 -2.83,0.25 -2.62,-0.17 -2.40,-0.61 -2.06,-0.95 -1.72,-1.30 -1.29,-1.52 -0.85,-1.73 -0.37,-1.80 0.10,-1.87 0.58,-1.78 1.05,-1.69 1.48,-1.45 1.90,-1.21 2.23,-0.85 2.55,-0.49 2.75,-0.05 2.94,0.39 2.98,0.87 3.02,1.35 2.91,1.83 2.79,2.30 2.53,2.71 2.27,3.12 1.89,3.42 1.52,3.73 1.06,3.90 0.61,4.07 0.12,4.08 -0.35,4.10 -0.82,3.96 -1.28,3.81 -1.68,3.53 -2.07,3.25 -2.36,2.86 -2.64,2.46 -2.79,2.00 -2.93,1.54 -2.92,1.05 -2.91,0.57 -2.74,0.11 -2.58,-0.34 -2.27,-0.71 -1.97,-1.09 -1.56,-1.36 -1.16,-1.62 -0.68,-1.74 -0.21,-1.86 0.26,-1.82 0.74,-1.78 1.19,-1.59 1.64,-1.40 2.00,-1.08 2.36,-0.76 2.60,-0.33 2.84,0.08 2.94,0.55 3.03,1.03 3.03,1.03 3.03,1.03 2.63,1.54 2.22,2.06 2.70,3.26 3.18,4.47 1.43,4.15 -0.32,3.83 -1.19,2.69 -2.06,1.54 -2.21,1.27 -2.37,1.00 -2.46,0.71 -2.54,0.41 -2.55,0.10 -2.57,-0.21 -2.50,-0.51 -2.44,-0.81 -2.31,-1.10 -2.17,-1.38 -1.98,-1.62 -1.78,-1.86 -1.53,-2.04 -1.28,-2.23 -1.00,-2.35 -0.71,-2.47 -0.40,-2.52 -0.10,-2.57 0.20,-2.55 0.51,-2.52 0.81,-2.42 1.10,-2.33 1.37,-2.16 1.63,-1.99 1.84,-1.77 2.06,-1.54 2.06,-1.54 L 2.06,-1.54 Z"></path></g><g transform="translate(648 727.234375) rotate(0 -3.5 4)" stroke="none"><path fill="#d9480f" d="M 0,2.63 Q 0,2.63 -1.15,2.65 -2.3,2.67 -3.11,4.10 -3.93,5.54 -5.07,5.31 -6.22,5.09 -5.46,4.13 -4.70,3.16 -4.10,1.89 -3.49,0.61 -3.26,0.15 -3.03,-0.29 -2.67,-0.65 -2.31,-1.01 -1.85,-1.24 -1.39,-1.46 -0.89,-1.53 -0.38,-1.59 0.11,-1.50 0.61,-1.40 1.06,-1.14 1.50,-0.89 1.84,-0.51 2.18,-0.13 2.38,0.33 2.58,0.80 2.61,1.31 2.65,1.82 2.53,2.32 2.40,2.81 2.12,3.24 1.85,3.67 1.45,3.99 1.05,4.30 0.57,4.48 0.09,4.65 -0.41,4.66 -0.92,4.67 -1.41,4.52 -1.90,4.37 -2.31,4.07 -2.72,3.77 -3.02,3.35 -3.31,2.94 -3.46,2.45 -3.61,1.96 -3.59,1.45 -3.58,0.94 -3.40,0.46 -3.22,-0.01 -2.90,-0.40 -2.58,-0.80 -2.14,-1.07 -1.71,-1.35 -1.22,-1.47 -0.72,-1.59 -0.21,-1.54 0.29,-1.50 0.75,-1.29 1.22,-1.09 1.60,-0.75 1.98,-0.41 2.23,0.03 2.48,0.48 2.57,0.98 2.66,1.48 2.59,1.98 2.52,2.49 2.52,2.49 2.52,2.49 1.96,4.32 1.40,6.15 0.51,7.05 -0.37,7.95 -1.44,8.59 -2.52,9.24 -3.97,9.72 -5.42,10.20 -7.04,9.57 -8.67,8.94 -9.19,7.27 -9.71,5.61 -9.22,3.81 -8.73,2.02 -7.68,0.20 -6.63,-1.61 -4.46,-2.14 -2.3,-2.67 -1.15,-2.65 0,-2.63 0.31,-2.59 0.63,-2.55 0.92,-2.44 1.22,-2.33 1.48,-2.15 1.74,-1.97 1.95,-1.73 2.16,-1.49 2.31,-1.21 2.46,-0.93 2.53,-0.62 2.61,-0.31 2.61,0.00 2.61,0.31 2.53,0.62 2.46,0.93 2.31,1.21 2.16,1.49 1.95,1.73 1.74,1.97 1.48,2.15 1.22,2.33 0.92,2.44 0.62,2.55 0.31,2.59 -0.00,2.63 -0.00,2.63 L 0,2.63 Z"></path></g><g transform="translate(633 616.234375) rotate(0 7 12.5)"><text x="0" y="18" font-family="Virgil, Segoe UI Emoji" font-size="20px" fill="#d9480f" text-anchor="start" style="white-space: pre;" direction="ltr">C</text></g><g transform="translate(642 748.234375) rotate(0 7 12.5)"><text x="0" y="18" font-family="Virgil, Segoe UI Emoji" font-size="20px" fill="#d9480f" text-anchor="start" style="white-space: pre;" direction="ltr">A</text></g><g transform="translate(813.8886466100812 566.0882643386722) rotate(0 41.5 12.5)"><text x="0" y="18" font-family="Virgil, Segoe UI Emoji" font-size="20px" fill="#000000" text-anchor="start" style="white-space: pre;" direction="ltr">Va piano</text></g><g transform="translate(816.8886466100812 601.0882643386722) rotate(0 41 12.5)"><text x="0" y="18" font-family="Virgil, Segoe UI Emoji" font-size="20px" fill="#000000" text-anchor="start" style="white-space: pre;" direction="ltr">Va disco</text></g><g stroke-linecap="round"><g transform="translate(912.8886466100812 591.0882643386722) rotate(0 19 0.5)"><path d="M0.51 -0.83 C6.97 -0.39, 31.27 1.81, 37.58 2 M-0.68 1.35 C5.69 1.52, 30 0.41, 36.41 0.41" stroke="#000000" stroke-width="1" fill="none"></path></g><g transform="translate(912.8886466100812 591.0882643386722) rotate(0 19 0.5)"><path d="M17.41 6.68 C23.89 6.44, 24.81 3.89, 38.12 -0.06 M18.62 7.49 C25.31 5.4, 29.98 3.18, 36.37 0.28" stroke="#000000" stroke-width="1" fill="none"></path></g><g transform="translate(912.8886466100812 591.0882643386722) rotate(0 19 0.5)"><path d="M17.08 -6.31 C23.56 -3.96, 24.55 -3.9, 38.12 -0.06 M18.29 -5.51 C25.08 -3.24, 29.86 -1.1, 36.37 0.28" stroke="#000000" stroke-width="1" fill="none"></path></g></g><g transform="translate(976.8886466100812 570.0882643386722) rotate(0 68.5 25)"><text x="0" y="18" font-family="Virgil, Segoe UI Emoji" font-size="20px" fill="#000000" text-anchor="start" style="white-space: pre;" direction="ltr">Normale è la </text><text x="0" y="43" font-family="Virgil, Segoe UI Emoji" font-size="20px" fill="#000000" text-anchor="start" style="white-space: pre;" direction="ltr">medesima</text></g><g stroke-linecap="round"><g transform="translate(817.8886466100812 597.0882643386722) rotate(0 8.5 1)"><path d="M-0.67 0.83 C2.17 1.08, 13.89 1.02, 16.93 1.1 M1.18 0.22 C3.87 0.63, 13.3 1.82, 15.94 2.16" stroke="#000000" stroke-width="1" fill="none"></path></g><g transform="translate(817.8886466100812 597.0882643386722) rotate(0 8.5 1)"><path d="M8.19 4 C9.39 3.94, 11.96 2.59, 15.82 2.17 M7.49 3.97 C11.03 2.92, 14.53 2.62, 15.54 2.48" stroke="#000000" stroke-width="1" fill="none"></path></g><g transform="translate(817.8886466100812 597.0882643386722) rotate(0 8.5 1)"><path d="M8.93 -1.81 C9.89 -0.19, 12.25 0.16, 15.82 2.17 M8.23 -1.84 C11.48 -0.61, 14.69 1.38, 15.54 2.48" stroke="#000000" stroke-width="1" fill="none"></path></g></g><g stroke-linecap="round"><g transform="translate(814.8886466100812 558.0882643386722) rotate(0 7.5 0.5)"><path d="M-1.11 1.06 C1.45 0.96, 12.3 -0.17, 15.13 -0.15 M0.51 0.57 C2.94 0.54, 11.74 0.44, 14.25 0.79" stroke="#000000" stroke-width="1" fill="none"></path></g><g transform="translate(814.8886466100812 558.0882643386722) rotate(0 7.5 0.5)"><path d="M7.72 3.04 C8.36 2.97, 11.24 1.25, 14.34 0.45 M6.9 3.03 C8.9 2.16, 11.53 1.82, 14.29 0.65" stroke="#000000" stroke-width="1" fill="none"></path></g><g transform="translate(814.8886466100812 558.0882643386722) rotate(0 7.5 0.5)"><path d="M8.01 -2.1 C8.58 -0.72, 11.39 -1, 14.34 0.45 M7.2 -2.11 C9.12 -1.44, 11.66 -0.25, 14.29 0.65" stroke="#000000" stroke-width="1" fill="none"></path></g></g><g transform="translate(814 522.234375) rotate(0 58.5 12.5)"><text x="0" y="18" font-family="Virgil, Segoe UI Emoji" font-size="20px" fill="#d9480f" text-anchor="start" style="white-space: pre;" direction="ltr">CONTATTO</text></g><g transform="translate(813.5 648.734375) rotate(0 126.5 12.5)"><text x="0" y="18" font-family="Virgil, Segoe UI Emoji" font-size="20px" fill="#d9480f" text-anchor="start" style="white-space: pre;" direction="ltr">SENZA STRISCIAMENTO</text></g><g stroke-linecap="round"><g transform="translate(932 713.234375) rotate(0 23 -0.5)"><path d="M0.04 -0.79 C7.71 -0.69, 38.18 -0.22, 45.86 -0.28 M-1.39 1.41 C6.11 1.25, 37.04 -1.81, 44.83 -2.03" stroke="#000000" stroke-width="1" fill="none"></path></g><g transform="translate(932 713.234375) rotate(0 23 -0.5)"><path d="M22.47 7.03 C31.17 4.72, 35.82 1.84, 43.55 -0.87 M24.67 8.06 C29.96 4.17, 35.18 2.78, 44.29 -1.96" stroke="#000000" stroke-width="1" fill="none"></path></g><g transform="translate(932 713.234375) rotate(0 23 -0.5)"><path d="M21.41 -8.67 C30.3 -6.43, 35.26 -4.74, 43.55 -0.87 M23.62 -7.64 C29.08 -7.25, 34.59 -4.37, 44.29 -1.96" stroke="#000000" stroke-width="1" fill="none"></path></g></g><g transform="translate(998 684.234375) rotate(0 69 25)"><text x="0" y="18" font-family="Virgil, Segoe UI Emoji" font-size="20px" fill="#000000" text-anchor="start" style="white-space: pre;" direction="ltr">Tangenziale è</text><text x="0" y="43" font-family="Virgil, Segoe UI Emoji" font-size="20px" fill="#000000" text-anchor="start" style="white-space: pre;" direction="ltr">la medesima</text></g><g transform="translate(822 695.234375) rotate(0 35.5 12.5)"><text x="0" y="18" font-family="Virgil, Segoe UI Emoji" font-size="20px" fill="#000000" text-anchor="start" style="white-space: pre;" direction="ltr">Va = 0</text></g><g stroke-linecap="round"><g transform="translate(818 690.234375) rotate(0 8 0.5)"><path d="M-0.44 0.43 C2.24 0.77, 12.73 1.43, 15.49 1.7 M1.52 -0.39 C4.06 -0.36, 11.96 -0.16, 14.27 -0.05" stroke="#000000" stroke-width="1" fill="none"></path></g><g transform="translate(818 690.234375) rotate(0 8 0.5)"><path d="M6.93 2.08 C9.02 1.89, 11.16 0.49, 14.75 0.52 M6.55 2.35 C8.07 2.16, 10.14 1.25, 14 0.24" stroke="#000000" stroke-width="1" fill="none"></path></g><g transform="translate(818 690.234375) rotate(0 8 0.5)"><path d="M7.13 -3.4 C9.15 -2.23, 11.24 -2.26, 14.75 0.52 M6.74 -3.13 C8.23 -2.2, 10.25 -2.01, 14 0.24" stroke="#000000" stroke-width="1" fill="none"></path></g></g><g transform="translate(829 723.234375) rotate(0 19 12.5)"><text x="0" y="18" font-family="Virgil, Segoe UI Emoji" font-size="20px" fill="#1864ab" text-anchor="start" style="white-space: pre;" direction="ltr">CIR</text></g></svg>