<svg version="1.1" xmlns="http://www.w3.org/2000/svg" viewBox="0 0 10020 682.71875" width="10020" height="682.71875">
  <!-- svg-source:excalidraw -->
  
  <defs>
    <style>
      @font-face {
        font-family: "Virgil";
        src: url("https://excalidraw.com/Virgil.woff2");
      }
      @font-face {
        font-family: "Cascadia";
        src: url("https://excalidraw.com/Cascadia.woff2");
      }
    </style>
  </defs>
  <rect x="0" y="0" width="10020" height="682.71875" fill="#fff0"></rect><g stroke-linecap="round" transform="translate(10 10) rotate(0 5000 0.5)"><path d="M-0.52 -0.26 C3022.65 -30.2, 6044.59 -29.2, 9999.32 0.22 M0.38 -0.31 C3948.03 -0.44, 7895.41 0.2, 9999.95 0.08 M10000.08 -0.06 C10000.09 0.27, 10000.05 0.48, 10000.09 0.92 M9999.97 0.01 C9999.95 0.33, 9999.98 0.72, 10000 0.99 M10000.22 1.51 C7095.77 35.76, 4193.15 34.95, -0.25 0.75 M10000.01 1.13 C7827.97 2.74, 5656.23 3.35, -0.33 0.84 M-0.04 1.01 C0 0.63, -0.06 0.15, 0.05 -0.03 M-0.04 0.95 C-0.04 0.73, -0.03 0.59, -0.05 -0.02" stroke="transparent" stroke-width="1" fill="none"></path></g><g stroke-linecap="round" transform="translate(818 555.71875) rotate(0 26 58.5)"><path d="M32.91 1.57 C37.31 3.26, 42.31 10.83, 45.53 18.67 C48.74 26.51, 51.58 38.37, 52.19 48.61 C52.8 58.86, 50.92 70.52, 49.17 80.13 C47.42 89.74, 45.24 100.19, 41.68 106.27 C38.12 112.35, 32.49 116.19, 27.81 116.62 C23.13 117.04, 17.94 114.16, 13.61 108.83 C9.27 103.5, 4 94.12, 1.8 84.62 C-0.41 75.13, -0.27 62.45, 0.38 51.86 C1.03 41.28, 2.72 29.21, 5.7 21.1 C8.67 12.98, 13.01 6.02, 18.23 3.19 C23.44 0.37, 33.3 2.87, 37.01 4.13 C40.71 5.39, 40.78 9.69, 40.46 10.75 M18.71 4.79 C22.91 0.72, 28.81 0.26, 33.23 2.28 C37.65 4.29, 42.15 9.57, 45.24 16.88 C48.34 24.19, 50.84 35.7, 51.79 46.14 C52.74 56.59, 52.76 69.81, 50.93 79.57 C49.09 89.32, 44.79 98.53, 40.78 104.66 C36.76 110.79, 31.39 115.35, 26.84 116.34 C22.3 117.34, 17.31 115.72, 13.49 110.65 C9.67 105.58, 6.15 95.35, 3.95 85.95 C1.76 76.55, -0.17 64.58, 0.32 54.25 C0.81 43.91, 4.22 32.54, 6.89 23.92 C9.57 15.3, 14.47 5.57, 16.34 2.53 C18.22 -0.51, 18.04 4.8, 18.16 5.68" stroke="#000" stroke-width="1" fill="none"></path></g><g stroke-linecap="round" transform="translate(988 559.71875) rotate(0 28.5 53.5)"><path d="M40.79 5.76 C45.42 9.09, 51.02 18.02, 53.61 26 C56.2 33.98, 56.47 43.98, 56.32 53.61 C56.17 63.25, 55.55 75.77, 52.71 83.8 C49.86 91.82, 44.1 98.11, 39.25 101.76 C34.41 105.41, 28.44 107.18, 23.63 105.67 C18.82 104.17, 14.28 99.07, 10.39 92.71 C6.51 86.34, 1.74 76.46, 0.31 67.47 C-1.11 58.49, 0.36 47.84, 1.84 38.81 C3.33 29.77, 5.29 19.71, 9.21 13.26 C13.13 6.8, 19.79 1, 25.37 0.08 C30.94 -0.84, 39.2 5.53, 42.68 7.74 C46.15 9.95, 46.3 12.55, 46.19 13.34 M42.71 5.25 C47.24 9.03, 51.19 20.17, 53.56 29.08 C55.94 37.99, 57.25 49.13, 56.97 58.71 C56.68 68.29, 54.96 79.07, 51.86 86.57 C48.76 94.07, 43.12 100.3, 38.35 103.73 C33.59 107.16, 28.5 109.29, 23.26 107.16 C18.02 105.04, 10.86 97.83, 6.91 90.98 C2.97 84.13, 0.37 75.23, -0.4 66.06 C-1.17 56.89, 0.23 45.18, 2.28 35.96 C4.32 26.74, 7.67 16.85, 11.87 10.72 C16.07 4.58, 22.38 -0.37, 27.48 -0.83 C32.58 -1.29, 39.81 6.74, 42.46 7.96 C45.11 9.18, 43.5 5.86, 43.38 6.5" stroke="#000" stroke-width="1" fill="none"></path></g><g transform="translate(843 581.71875) rotate(0 0.00004999999998744897 0.00005000000000165983)" stroke="none"><path fill="#000" d="M 1.57,-1.57 Q 1.57,-1.57 1.77,-1.27 1.98,-0.98 2.09,-0.64 2.20,-0.29 2.19,0.05 2.18,0.41 2.05,0.75 1.93,1.09 1.70,1.37 1.48,1.65 1.18,1.84 0.87,2.04 0.52,2.12 0.18,2.21 -0.17,2.18 -0.53,2.15 -0.86,2.01 -1.19,1.87 -1.46,1.63 -1.73,1.39 -1.90,1.07 -2.08,0.76 -2.15,0.41 -2.21,0.05 -2.17,-0.29 -2.12,-0.65 -1.96,-0.97 -1.80,-1.29 -1.54,-1.54 -1.29,-1.80 -0.97,-1.96 -0.65,-2.12 -0.29,-2.17 0.06,-2.21 0.41,-2.15 0.76,-2.08 1.07,-1.90 1.39,-1.73 1.63,-1.46 1.87,-1.19 2.01,-0.86 2.15,-0.53 2.18,-0.17 2.21,0.18 2.12,0.52 2.03,0.87 1.84,1.18 1.65,1.48 1.37,1.70 1.09,1.93 0.75,2.05 0.41,2.18 0.05,2.19 -0.30,2.20 -0.64,2.09 -0.98,1.98 -1.27,1.77 -1.57,1.56 -1.57,1.57 -1.57,1.57 -1.73,1.35 -1.90,1.14 -2.01,0.90 -2.12,0.66 -2.16,0.39 -2.21,0.13 -2.20,-0.13 -2.18,-0.40 -2.10,-0.65 -2.02,-0.91 -1.88,-1.14 -1.74,-1.36 -1.55,-1.55 -1.36,-1.74 -1.14,-1.88 -0.91,-2.02 -0.65,-2.10 -0.40,-2.18 -0.13,-2.20 0.13,-2.21 0.39,-2.16 0.66,-2.12 0.90,-2.01 1.14,-1.90 1.35,-1.73 1.57,-1.57 1.57,-1.57 L 1.57,-1.57 Z"></path></g><g transform="translate(837 618.71875) rotate(0 0 0.5)" stroke="none"><path fill="#000" d="M 2.12,-0.66 Q 2.12,-0.66 2.15,-0.13 2.18,0.40 1.96,0.88 1.74,1.36 1.32,1.69 0.91,2.02 0.38,2.12 -0.13,2.21 -0.64,2.05 -1.14,1.90 -1.52,1.52 -1.90,1.14 -2.05,0.64 -2.21,0.13 -2.12,-0.38 -2.02,-0.91 -1.69,-1.32 -1.36,-1.74 -0.88,-1.96 -0.39,-2.18 0.13,-2.15 0.66,-2.11 1.11,-1.84 1.57,-1.56 1.84,-1.11 L 2.12,-0.66 Z"></path></g><g transform="translate(838 651.71875) rotate(0 0.00004999999998744897 0.00005000000000165983)" stroke="none"><path fill="#000" d="M 1.57,-1.57 Q 1.57,-1.57 1.77,-1.27 1.98,-0.98 2.09,-0.64 2.20,-0.29 2.19,0.05 2.18,0.41 2.05,0.75 1.93,1.09 1.70,1.37 1.48,1.65 1.18,1.84 0.87,2.04 0.52,2.12 0.18,2.21 -0.17,2.18 -0.53,2.15 -0.86,2.01 -1.19,1.87 -1.46,1.63 -1.73,1.39 -1.90,1.07 -2.08,0.76 -2.15,0.41 -2.21,0.05 -2.17,-0.29 -2.12,-0.65 -1.96,-0.97 -1.80,-1.29 -1.54,-1.54 -1.29,-1.80 -0.97,-1.96 -0.65,-2.12 -0.29,-2.17 0.06,-2.21 0.41,-2.15 0.76,-2.08 1.07,-1.90 1.39,-1.73 1.63,-1.46 1.87,-1.19 2.01,-0.86 2.15,-0.53 2.18,-0.17 2.21,0.18 2.12,0.52 2.03,0.87 1.84,1.18 1.65,1.48 1.37,1.70 1.09,1.93 0.75,2.05 0.41,2.18 0.05,2.19 -0.30,2.20 -0.64,2.09 -0.98,1.98 -1.27,1.77 -1.57,1.56 -1.57,1.57 -1.57,1.57 -1.73,1.35 -1.90,1.14 -2.01,0.90 -2.12,0.66 -2.16,0.39 -2.21,0.13 -2.20,-0.13 -2.18,-0.40 -2.10,-0.65 -2.02,-0.91 -1.88,-1.14 -1.74,-1.36 -1.55,-1.55 -1.36,-1.74 -1.14,-1.88 -0.91,-2.02 -0.65,-2.10 -0.40,-2.18 -0.13,-2.20 0.13,-2.21 0.39,-2.16 0.66,-2.12 0.90,-2.01 1.14,-1.90 1.35,-1.73 1.57,-1.57 1.57,-1.57 L 1.57,-1.57 Z"></path></g><g transform="translate(1021 600.71875) rotate(0 0 1)" stroke="none"><path fill="#000" d="M 2.12,-0.66 Q 2.12,-0.66 2.15,-0.13 2.18,0.40 1.96,0.88 1.74,1.36 1.32,1.69 0.91,2.02 0.38,2.12 -0.13,2.21 -0.64,2.05 -1.14,1.90 -1.52,1.52 -1.90,1.14 -2.05,0.64 -2.21,0.13 -2.12,-0.38 -2.02,-0.91 -1.69,-1.32 -1.36,-1.74 -0.88,-1.96 -0.39,-2.18 0.13,-2.15 0.66,-2.11 1.11,-1.84 1.57,-1.56 1.84,-1.11 L 2.12,-0.66 Z"></path></g><g transform="translate(1014 633.71875) rotate(0 0.00004999999998744897 0.00005000000000165983)" stroke="none"><path fill="#000" d="M 1.57,-1.57 Q 1.57,-1.57 1.77,-1.27 1.98,-0.98 2.09,-0.64 2.20,-0.29 2.19,0.05 2.18,0.41 2.05,0.75 1.93,1.09 1.70,1.37 1.48,1.65 1.18,1.84 0.87,2.04 0.52,2.12 0.18,2.21 -0.17,2.18 -0.53,2.15 -0.86,2.01 -1.19,1.87 -1.46,1.63 -1.73,1.39 -1.90,1.07 -2.08,0.76 -2.15,0.41 -2.21,0.05 -2.17,-0.29 -2.12,-0.65 -1.96,-0.97 -1.80,-1.29 -1.54,-1.54 -1.29,-1.80 -0.97,-1.96 -0.65,-2.12 -0.29,-2.17 0.06,-2.21 0.41,-2.15 0.76,-2.08 1.07,-1.90 1.39,-1.73 1.63,-1.46 1.87,-1.19 2.01,-0.86 2.15,-0.53 2.18,-0.17 2.21,0.18 2.12,0.52 2.03,0.87 1.84,1.18 1.65,1.48 1.37,1.70 1.09,1.93 0.75,2.05 0.41,2.18 0.05,2.19 -0.30,2.20 -0.64,2.09 -0.98,1.98 -1.27,1.77 -1.57,1.56 -1.57,1.57 -1.57,1.57 -1.73,1.35 -1.90,1.14 -2.01,0.90 -2.12,0.66 -2.16,0.39 -2.21,0.13 -2.20,-0.13 -2.18,-0.40 -2.10,-0.65 -2.02,-0.91 -1.88,-1.14 -1.74,-1.36 -1.55,-1.55 -1.36,-1.74 -1.14,-1.88 -0.91,-2.02 -0.65,-2.10 -0.40,-2.18 -0.13,-2.20 0.13,-2.21 0.39,-2.16 0.66,-2.12 0.90,-2.01 1.14,-1.90 1.35,-1.73 1.57,-1.57 1.57,-1.57 L 1.57,-1.57 Z"></path></g><g transform="translate(878 551.71875) rotate(0 7 12.5)"><text x="0" y="18" font-family="Virgil, Segoe UI Emoji" font-size="20px" fill="#000" text-anchor="start" style="white-space: pre;" direction="ltr">A</text></g><g transform="translate(1060 552.71875) rotate(0 8 12.5)"><text x="0" y="18" font-family="Virgil, Segoe UI Emoji" font-size="20px" fill="#000" text-anchor="start" style="white-space: pre;" direction="ltr">B</text></g><g stroke-linecap="round"><g transform="translate(851 585.71875) rotate(0 75 7.5)"><path d="M0.54 -0.85 C25.35 1.38, 124.54 11.38, 149.28 13.88 M-0.63 1.32 C24.53 3.61, 126.29 12.55, 151.61 14.83" stroke="#d9480f" stroke-width="1" fill="none"></path></g><g transform="translate(851 585.71875) rotate(0 75 7.5)"><path d="M121.21 21.35 C130.39 18.07, 140.5 17.42, 151.09 15.27 M123.44 21.91 C133.8 19.52, 142.57 16.2, 151.49 14.99" stroke="#d9480f" stroke-width="1" fill="none"></path></g><g transform="translate(851 585.71875) rotate(0 75 7.5)"><path d="M123.02 0.91 C131.69 4.46, 141.2 10.62, 151.09 15.27 M125.26 1.46 C134.96 6.27, 143.09 10.16, 151.49 14.99" stroke="#d9480f" stroke-width="1" fill="none"></path></g></g><g stroke-linecap="round"><g transform="translate(849 618.71875) rotate(0 80.5 -6.5)"><path d="M-0.34 -1.01 C26.55 -3.29, 134.03 -11.46, 160.88 -13.3 M1.68 1.08 C28.44 -1.06, 133.5 -9.43, 159.87 -11.92" stroke="#d9480f" stroke-width="1" fill="none"></path></g><g transform="translate(849 618.71875) rotate(0 80.5 -6.5)"><path d="M130.98 0.52 C139.27 -2.9, 148.57 -5.56, 161.39 -10.49 M132.51 0.76 C142.4 -4.76, 152.36 -7.68, 159.19 -11.27" stroke="#d9480f" stroke-width="1" fill="none"></path></g><g transform="translate(849 618.71875) rotate(0 80.5 -6.5)"><path d="M129.23 -19.93 C138.04 -17.97, 147.8 -15.26, 161.39 -10.49 M130.75 -19.69 C141.37 -18.01, 151.95 -13.73, 159.19 -11.27" stroke="#d9480f" stroke-width="1" fill="none"></path></g></g></svg>