<svg version="1.1" xmlns="http://www.w3.org/2000/svg" viewBox="0 0 10020 801.984375" width="10020" height="801.984375">
  <!-- svg-source:excalidraw -->
  
  <defs>
    <style>
      @font-face {
        font-family: "Virgil";
        src: url("https://excalidraw.com/Virgil.woff2");
      }
      @font-face {
        font-family: "Cascadia";
        src: url("https://excalidraw.com/Cascadia.woff2");
      }
    </style>
  </defs>
  <rect x="0" y="0" width="10020" height="801.984375" fill="#fff0"></rect><g stroke-linecap="round" transform="translate(10 10) rotate(0 5000 0.5)"><path d="M-0.52 -0.26 C3022.65 -30.2, 6044.59 -29.2, 9999.32 0.22 M0.38 -0.31 C3948.03 -0.44, 7895.41 0.2, 9999.95 0.08 M10000.08 -0.06 C10000.09 0.27, 10000.05 0.48, 10000.09 0.92 M9999.97 0.01 C9999.95 0.33, 9999.98 0.72, 10000 0.99 M10000.22 1.51 C7095.77 35.76, 4193.15 34.95, -0.25 0.75 M10000.01 1.13 C7827.97 2.74, 5656.23 3.35, -0.33 0.84 M-0.04 1.01 C0 0.63, -0.06 0.15, 0.05 -0.03 M-0.04 0.95 C-0.04 0.73, -0.03 0.59, -0.05 -0.02" stroke="transparent" stroke-width="1" fill="none"></path></g><g stroke-linecap="round"><g transform="translate(676.84375 731.984375) rotate(0 -0.5235357840731751 -99.28494794871658)"><path d="M-0.89 -0.61 C-1.14 -33.79, -0.32 -166.1, -0.46 -199.14 M0.84 1.68 C0.39 -31.33, -0.49 -164.67, -1.09 -197.9" stroke="#000" stroke-width="1" fill="none"></path></g><g transform="translate(676.84375 731.984375) rotate(0 -0.5235357840731751 -99.28494794871658)"><path d="M8.48 -168.85 C4.45 -181.89, 0.82 -191.73, -0.07 -197.67 M9.85 -169.94 C5.7 -181.24, 0.42 -191.45, -2.03 -197.37" stroke="#000" stroke-width="1" fill="none"></path></g><g transform="translate(676.84375 731.984375) rotate(0 -0.5235357840731751 -99.28494794871658)"><path d="M-12.04 -168.61 C-8.1 -181.6, -3.75 -191.52, -0.07 -197.67 M-10.67 -169.7 C-6.85 -181.12, -4.15 -191.42, -2.03 -197.37" stroke="#000" stroke-width="1" fill="none"></path></g></g><g stroke-linecap="round"><g transform="translate(674.84375 736.984375) rotate(0 214 1)"><path d="M-0.58 -0.08 C70.7 0.17, 356.08 1.56, 427.41 1.78 M1.32 -1.17 C73.02 -0.76, 358.98 2.64, 429.82 3.2" stroke="#000" stroke-width="1" fill="none"></path></g><g transform="translate(674.84375 736.984375) rotate(0 214 1)"><path d="M401.38 12.19 C408.98 9.56, 415.94 6.23, 428.52 2.47 M400.74 12.37 C407.37 10.71, 413.47 8.15, 429.57 3.76" stroke="#000" stroke-width="1" fill="none"></path></g><g transform="translate(674.84375 736.984375) rotate(0 214 1)"><path d="M401.59 -8.33 C409.18 -5.27, 416.08 -2.89, 428.52 2.47 M400.95 -8.15 C407.37 -5.66, 413.43 -4.08, 429.57 3.76" stroke="#000" stroke-width="1" fill="none"></path></g></g><g stroke-linecap="round"><g transform="translate(649.84375 715.984375) rotate(0 225.5 -27)"><path d="M0.88 1.08 C13.19 -8.03, 47.08 -45.14, 73.73 -53.99 C100.38 -62.83, 140.91 -59.66, 160.79 -51.96 C180.67 -44.26, 174.13 -15.9, 193 -7.78 C211.88 0.34, 251.27 -0.55, 274.05 -3.24 C296.82 -5.93, 303.86 -17.58, 329.65 -23.92 C355.44 -30.26, 408.49 -39.36, 428.76 -41.29 C449.03 -43.23, 447.5 -36.61, 451.26 -35.52 M-0.12 0.6 C12.1 -8.36, 46.4 -43.38, 73.17 -52.44 C99.93 -61.5, 140.43 -61.4, 160.44 -53.75 C180.46 -46.11, 174.56 -15.11, 193.25 -6.56 C211.95 1.99, 249.66 0.6, 272.6 -2.46 C295.54 -5.51, 304.77 -18.19, 330.88 -24.91 C356.99 -31.63, 409.36 -40.92, 429.28 -42.79 C449.19 -44.66, 446.95 -37.27, 450.37 -36.14" stroke="#d9480f" stroke-width="1" fill="none"></path></g></g><g stroke-linecap="round"><g transform="translate(638.84375 675.984375) rotate(0 240 7)"><path d="M0.82 0.62 C13.53 5.06, 53.6 24.02, 76.76 26.3 C99.92 28.59, 111.57 21.2, 139.76 14.34 C167.95 7.49, 209.92 -11.76, 245.9 -14.82 C281.88 -17.89, 324.1 -9.98, 355.65 -4.06 C387.2 1.86, 414.68 15.21, 435.21 20.72 C455.74 26.23, 471.37 27.47, 478.84 29.02 M-0.21 -0.1 C12.27 4.51, 52.42 24.91, 75.69 27.47 C98.95 30.04, 110.9 22.16, 139.39 15.31 C167.88 8.46, 210.24 -10.55, 246.62 -13.63 C282.99 -16.71, 326.05 -8.79, 357.65 -3.18 C389.25 2.44, 416 14.91, 436.2 20.06 C456.41 25.2, 471.74 25.99, 478.88 27.68" stroke="#d9480f" stroke-width="1" fill="none"></path></g></g><g stroke-linecap="round"><g transform="translate(637.84375 637.984375) rotate(0 234.5 20)"><path d="M-1.01 -0.74 C9.01 -1.16, 41.04 -6.02, 59.03 -2.71 C77.01 0.6, 92.98 10.15, 106.92 19.13 C120.85 28.12, 127.26 43.73, 142.65 51.18 C158.05 58.63, 181.19 66.47, 199.29 63.85 C217.4 61.22, 230.5 47.97, 251.3 35.41 C272.09 22.86, 296.64 -2.95, 324.07 -11.48 C351.5 -20.02, 391.62 -13.61, 415.87 -15.81 C440.13 -18.01, 460.6 -23.47, 469.6 -24.67 M0.67 1.48 C11.14 1.22, 43.13 -4.72, 61.23 -1.55 C79.32 1.63, 95.57 11.53, 109.24 20.52 C122.91 29.51, 128.45 45.11, 143.24 52.38 C158.03 59.65, 180.32 66.6, 197.98 64.16 C215.64 61.71, 228.17 50.51, 249.21 37.73 C270.25 24.94, 296.54 -3.51, 324.22 -12.56 C351.9 -21.61, 391.3 -14.88, 415.3 -16.58 C439.31 -18.28, 459.55 -21.68, 468.25 -22.75" stroke="#d9480f" stroke-width="1" fill="none"></path></g></g><g transform="translate(1156.84375 694.984375) rotate(0 8.5 12.5)"><text x="0" y="18" font-family="Virgil, Segoe UI Emoji" font-size="20px" fill="#d9480f" text-anchor="start" style="white-space: pre;" direction="ltr">s1</text></g><g transform="translate(1139.84375 664.984375) rotate(0 13 12.5)"><text x="0" y="18" font-family="Virgil, Segoe UI Emoji" font-size="20px" fill="#d9480f" text-anchor="start" style="white-space: pre;" direction="ltr">s2</text></g><g transform="translate(1134.84375 594.984375) rotate(0 12.5 12.5)"><text x="0" y="18" font-family="Virgil, Segoe UI Emoji" font-size="20px" fill="#d9480f" text-anchor="start" style="white-space: pre;" direction="ltr">s3</text></g><g stroke-linecap="round"><g transform="translate(959.84375 565.984375) rotate(0 -0.5 91)"><path d="M0.73 -1.15 C0.61 29.23, -0.25 152.32, -0.46 182.86 M-0.35 0.86 C-0.6 30.87, -1.01 150.76, -1.13 181.19" stroke="#1864ab" stroke-width="1" fill="none"></path></g></g><g transform="translate(956.84375 766.984375) rotate(0 6 12.5)"><text x="0" y="18" font-family="Virgil, Segoe UI Emoji" font-size="20px" fill="#1864ab" text-anchor="start" style="white-space: pre;" direction="ltr">t</text></g><g stroke-linecap="round"><g transform="translate(951.84375 758.984375) rotate(0 8.5 0)"><path d="M0.62 0.73 C3.24 0.72, 13.13 0.02, 16.04 -0.27 M-0.52 0.07 C2.45 0.26, 15.19 1.17, 18.24 1.13" stroke="#1864ab" stroke-width="1" fill="none"></path></g></g><g stroke-linecap="round"><g transform="translate(639.84375 658.984375) rotate(0 233.5 8.5)"><path d="M-0.4 -0.19 C12.6 1.35, 58.44 7.72, 78.92 10.09 C99.39 12.45, 109.3 11.99, 122.43 14 C135.56 16, 148.21 19.71, 157.7 22.11 C167.18 24.51, 164.61 27.92, 179.34 28.37 C194.06 28.83, 220.16 27, 246.06 24.85 C271.96 22.7, 311.33 18.68, 334.74 15.45 C358.15 12.23, 371.3 9.9, 386.49 5.49 C401.69 1.07, 412.5 -7.98, 425.92 -11.02 C439.33 -14.06, 460.15 -12.63, 466.97 -12.78 M1.59 -1.34 C14.87 -0.18, 61.1 5.85, 81.06 8.53 C101.02 11.22, 108.48 12.42, 121.36 14.79 C134.23 17.15, 148.86 20.47, 158.31 22.75 C167.76 25.02, 163.26 27.75, 178.04 28.44 C192.82 29.12, 220.77 29.22, 246.97 26.87 C273.18 24.52, 312.12 17.92, 335.25 14.35 C358.37 10.77, 370.81 9.77, 385.73 5.4 C400.64 1.03, 411.06 -8.72, 424.73 -11.89 C438.39 -15.06, 460.66 -13.81, 467.71 -13.63" stroke="#1864ab" stroke-width="1" fill="none"></path></g></g><g transform="translate(1149.84375 623.984375) rotate(0 88.5 12.5)"><text x="0" y="18" font-family="Virgil, Segoe UI Emoji" font-size="20px" fill="#1864ab" text-anchor="start" style="white-space: pre;" direction="ltr">Mu(t) = E [v (t)]</text></g></svg>