<svg version="1.1" xmlns="http://www.w3.org/2000/svg" viewBox="0 0 10020 819.09375" width="10020" height="819.09375">
  <!-- svg-source:excalidraw -->
  
  <defs>
    <style>
      @font-face {
        font-family: "Virgil";
        src: url("https://excalidraw.com/Virgil.woff2");
      }
      @font-face {
        font-family: "Cascadia";
        src: url("https://excalidraw.com/Cascadia.woff2");
      }
    </style>
  </defs>
  <rect x="0" y="0" width="10020" height="819.09375" fill="#fff0"></rect><g stroke-linecap="round" transform="translate(10 10) rotate(0 5000 0.5)"><path d="M-0.52 -0.26 C3022.65 -30.2, 6044.59 -29.2, 9999.32 0.22 M0.38 -0.31 C3948.03 -0.44, 7895.41 0.2, 9999.95 0.08 M10000.08 -0.06 C10000.09 0.27, 10000.05 0.48, 10000.09 0.92 M9999.97 0.01 C9999.95 0.33, 9999.98 0.72, 10000 0.99 M10000.22 1.51 C7095.77 35.76, 4193.15 34.95, -0.25 0.75 M10000.01 1.13 C7827.97 2.74, 5656.23 3.35, -0.33 0.84 M-0.04 1.01 C0 0.63, -0.06 0.15, 0.05 -0.03 M-0.04 0.95 C-0.04 0.73, -0.03 0.59, -0.05 -0.02" stroke="transparent" stroke-width="1" fill="none"></path></g><g stroke-linecap="round"><g transform="translate(599.6330280492361 748.257908449322) rotate(0 0.6834859753819202 -114.08207922466099)"><path d="M0.76 0.16 C0.82 -37.63, 0.4 -189.32, 0.66 -227.55 M-0.31 -0.8 C0.12 -38.87, 2.61 -191.41, 3 -229.35" stroke="#000" stroke-width="1" fill="none"></path></g><g transform="translate(599.6330280492361 748.257908449322) rotate(0 0.6834859753819202 -114.08207922466099)"><path d="M13.15 -202.2 C10.88 -208.56, 4.92 -217.37, 4.88 -229.09 M12.09 -201.68 C10.21 -210.11, 6.11 -219.24, 2.31 -229.23" stroke="#000" stroke-width="1" fill="none"></path></g><g transform="translate(599.6330280492361 748.257908449322) rotate(0 0.6834859753819202 -114.08207922466099)"><path d="M-7.37 -202.48 C-2.98 -208.88, -2.29 -217.6, 4.88 -229.09 M-8.43 -201.96 C-3.72 -210.22, -1.25 -219.27, 2.31 -229.23" stroke="#000" stroke-width="1" fill="none"></path></g></g><g stroke-linecap="round"><g transform="translate(559 719.09375) rotate(0 198.5 0.5)"><path d="M-0.32 0.17 C65.82 0.11, 330.98 -0.26, 397.32 0.04 M1.71 -0.79 C67.67 -0.77, 330.6 0.92, 396.54 1.07" stroke="#000" stroke-width="1" fill="none"></path></g><g transform="translate(559 719.09375) rotate(0 198.5 0.5)"><path d="M368.58 11.73 C376.29 9.04, 389.08 3.65, 396.74 0.21 M368.4 11.57 C376.97 7.23, 385.88 3.61, 396.74 2" stroke="#000" stroke-width="1" fill="none"></path></g><g transform="translate(559 719.09375) rotate(0 198.5 0.5)"><path d="M368.67 -8.79 C376.42 -4.48, 389.18 -2.88, 396.74 0.21 M368.49 -8.95 C376.83 -6.63, 385.72 -3.58, 396.74 2" stroke="#000" stroke-width="1" fill="none"></path></g></g><g stroke-linecap="round"><g transform="translate(576 756.09375) rotate(0 171 -96)"><path d="M1.11 -1.03 C13.16 -12.2, 54.84 -44.8, 71.12 -66.8 C87.4 -88.8, 83.93 -116.34, 98.82 -133.03 C113.71 -149.73, 119.74 -157.37, 160.44 -167 C201.13 -176.63, 312.86 -186.75, 342.97 -190.81 M0.24 1.05 C12.24 -10.02, 53.43 -43.56, 70.24 -65.69 C87.04 -87.82, 86.07 -114.95, 101.09 -131.74 C116.12 -148.52, 120.24 -156.13, 160.39 -166.42 C200.54 -176.71, 311.73 -189.18, 342.01 -193.45" stroke="#d9480f" stroke-width="1" fill="none"></path></g></g><g stroke-linecap="round"><g transform="translate(571 727.09375) rotate(0 101.5 -103.5)"><path d="M0.55 1.01 C34.07 -33.46, 168.06 -173.42, 201.85 -207.99 M-0.62 0.5 C33.19 -33.76, 170.07 -172.15, 203.96 -206.98" stroke="#1864ab" stroke-width="1" fill="none"></path></g></g><g transform="translate(929 564.09375) rotate(0 18.5 12.5)"><text x="0" y="18" font-family="Virgil, Segoe UI Emoji" font-size="20px" fill="#d9480f" text-anchor="start" style="white-space: pre;" direction="ltr">f(x)</text></g><g transform="translate(958 719.09375) rotate(0 6 12.5)"><text x="0" y="18" font-family="Virgil, Segoe UI Emoji" font-size="20px" fill="#000000" text-anchor="start" style="white-space: pre;" direction="ltr">x</text></g><g transform="translate(569 515.09375) rotate(0 5 12.5)"><text x="0" y="18" font-family="Virgil, Segoe UI Emoji" font-size="20px" fill="#000000" text-anchor="start" style="white-space: pre;" direction="ltr">y</text></g><g transform="translate(794 509.09375) rotate(0 172 12.5)"><text x="0" y="18" font-family="Virgil, Segoe UI Emoji" font-size="20px" fill="#1864ab" text-anchor="start" style="white-space: pre;" direction="ltr">retta tangente a f(x) in (x0,f(x0)</text></g><g stroke-linecap="round"><g transform="translate(584 674.09375) rotate(0 114.5 -56.5)"><path d="M0.46 0.75 C38.35 -17.97, 189.96 -94.15, 227.95 -112.98 M-0.76 0.1 C37.44 -18.36, 192.1 -92.39, 230.11 -111.43" stroke="#1864ab" stroke-width="1" fill="none"></path></g></g><g stroke-linecap="round"><g transform="translate(668 633.09375) rotate(0 -1 49.5)"><path d="M0.89 -0.33 C0.48 16.43, -1.49 82.81, -1.95 99.43 M-0.11 -1.55 C-0.72 14.95, -2.46 81.06, -2.87 97.53" stroke="#000000" stroke-width="1" fill="none"></path></g></g><g stroke-linecap="round"><g transform="translate(766 586.09375) rotate(0 0 74)"><path d="M-1.15 -0.06 C-1.04 24.7, 0.33 123.1, 0.64 147.96 M0.44 -1.13 C0.46 23.88, 0.05 124.73, 0.03 149.48" stroke="#000000" stroke-width="1" fill="none"></path></g></g><g stroke-linecap="round"><g transform="translate(693 604.09375) rotate(0 -1 80)"><path d="M0.45 0.82 C0.01 27.47, -1.83 133.12, -2.05 159.64 M-0.77 0.2 C-1.43 27.05, -2.97 134.15, -3.02 160.99" stroke="#000000" stroke-width="1" fill="none"></path></g></g><g transform="translate(646 744.09375) rotate(0 13 12.5)"><text x="0" y="18" font-family="Virgil, Segoe UI Emoji" font-size="20px" fill="#1864ab" text-anchor="start" style="white-space: pre;" direction="ltr">x0</text></g><g transform="translate(685 784.09375) rotate(0 29.5 12.5)"><text x="0" y="18" font-family="Virgil, Segoe UI Emoji" font-size="20px" fill="#1864ab" text-anchor="start" style="white-space: pre;" direction="ltr">x'0+h'</text></g><g transform="translate(761 739.09375) rotate(0 24 12.5)"><text x="0" y="18" font-family="Virgil, Segoe UI Emoji" font-size="20px" fill="#1864ab" text-anchor="start" style="white-space: pre;" direction="ltr">x0+h</text></g></svg>