<svg version="1.1" xmlns="http://www.w3.org/2000/svg" viewBox="0 0 10020 856.9375" width="10020" height="856.9375">
  <!-- svg-source:excalidraw -->
  
  <defs>
    <style>
      @font-face {
        font-family: "Virgil";
        src: url("https://excalidraw.com/Virgil.woff2");
      }
      @font-face {
        font-family: "Cascadia";
        src: url("https://excalidraw.com/Cascadia.woff2");
      }
    </style>
  </defs>
  <rect x="0" y="0" width="10020" height="856.9375" fill="#fff0"></rect><g stroke-linecap="round" transform="translate(10 10) rotate(0 5000 0.5)"><path d="M-0.52 -0.26 C3022.65 -30.2, 6044.59 -29.2, 9999.32 0.22 M0.38 -0.31 C3948.03 -0.44, 7895.41 0.2, 9999.95 0.08 M10000.08 -0.06 C10000.09 0.27, 10000.05 0.48, 10000.09 0.92 M9999.97 0.01 C9999.95 0.33, 9999.98 0.72, 10000 0.99 M10000.22 1.51 C7095.77 35.76, 4193.15 34.95, -0.25 0.75 M10000.01 1.13 C7827.97 2.74, 5656.23 3.35, -0.33 0.84 M-0.04 1.01 C0 0.63, -0.06 0.15, 0.05 -0.03 M-0.04 0.95 C-0.04 0.73, -0.03 0.59, -0.05 -0.02" stroke="transparent" stroke-width="1" fill="none"></path></g><g transform="translate(987.84375 626.9375) rotate(0 -54 102)" stroke="none"><path fill="#000" d="M 1.56,0 Q 1.56,0 1.52,2.58 1.49,5.17 1.75,9.38 2.01,13.60 3.26,21.96 4.51,30.33 7.04,44.24 9.58,58.15 10.67,71.33 11.75,84.51 11.01,92.88 10.27,101.25 4.15,107.40 -1.96,113.56 -18.27,111.81 -34.57,110.07 -48.43,104.34 -62.28,98.62 -71.59,93.88 -80.91,89.14 -89.02,81.84 -97.14,74.54 -101.25,64.94 -105.36,55.35 -105.94,48.27 -106.51,41.19 -104.12,34.57 -101.72,27.95 -99.82,24.30 -97.92,20.66 -96.89,19.12 -95.86,17.57 -95.76,17.43 -95.66,17.29 -95.53,17.18 -95.41,17.06 -95.25,16.98 -95.10,16.90 -94.93,16.86 -94.77,16.82 -94.59,16.82 -94.42,16.82 -94.26,16.86 -94.09,16.90 -93.94,16.98 -93.78,17.06 -93.65,17.17 -93.52,17.29 -93.43,17.43 -93.33,17.57 -93.27,17.73 -93.21,17.89 -93.19,18.06 -93.16,18.23 -93.18,18.41 -93.21,18.58 -93.27,18.74 -93.33,18.90 -91.74,22.29 -90.15,25.68 -89.71,33.03 -89.27,40.38 -90.84,47.33 -92.41,54.28 -94.82,60.97 -97.23,67.66 -100.29,73.71 -103.35,79.76 -106.70,84.40 -110.06,89.04 -113.58,92.24 -117.11,95.43 -120.31,96.01 -123.51,96.59 -124.91,93.89 -126.32,91.18 -125.17,85.16 -124.03,79.13 -122.64,75.47 -121.24,71.80 -120.66,69.42 -120.08,67.04 -120.01,66.90 -119.93,66.76 -119.83,66.64 -119.72,66.53 -119.59,66.44 -119.46,66.35 -119.31,66.29 -119.16,66.24 -119.01,66.22 -118.85,66.20 -118.69,66.22 -118.53,66.24 -118.39,66.29 -118.24,66.35 -118.11,66.44 -117.98,66.53 -117.87,66.65 -117.77,66.77 -117.70,66.91 -117.62,67.05 -117.59,67.20 -117.55,67.36 -117.55,67.52 -117.55,67.67 -117.59,67.83 -117.63,67.98 -121.46,69.92 -125.29,71.86 -133.57,77.65 -141.85,83.43 -155.81,91.69 -169.76,99.95 -183.50,106.08 -197.25,112.20 -207.41,115.95 -217.57,119.70 -224.25,121.31 -230.93,122.92 -234.63,123.61 -238.33,124.29 -240.17,124.63 -242.01,124.97 -242.18,124.98 -242.35,124.99 -242.52,124.96 -242.69,124.93 -242.84,124.86 -243.00,124.79 -243.14,124.68 -243.27,124.58 -243.38,124.44 -243.48,124.31 -243.55,124.15 -243.62,124.00 -243.66,123.83 -243.69,123.66 -243.68,123.49 -243.67,123.32 -243.61,123.15 -243.56,122.99 -243.48,122.84 -243.39,122.69 -243.27,122.57 -243.14,122.45 -243.00,122.36 -242.85,122.27 -242.69,122.22 -242.52,122.17 -233.43,117.24 -224.33,112.31 -214.50,109.53 -204.68,106.76 -197.03,105.58 -189.38,104.41 -184.40,104.60 -179.42,104.79 -176.25,109.08 -173.08,113.37 -172.93,120.03 -172.78,126.70 -178.29,137.71 -183.79,148.72 -192.22,158.59 -200.66,168.45 -208.56,176.09 -216.46,183.72 -222.43,188.70 -228.39,193.69 -231.78,196.37 -235.18,199.06 -237.48,200.78 -239.78,202.49 -239.91,202.57 -240.05,202.66 -240.20,202.70 -240.35,202.75 -240.51,202.76 -240.67,202.77 -240.82,202.75 -240.98,202.72 -241.12,202.65 -241.27,202.59 -241.39,202.49 -241.52,202.40 -241.62,202.27 -241.72,202.15 -241.78,202.00 -241.85,201.86 -241.88,201.70 -241.91,201.55 -241.90,201.39 -241.89,201.23 -241.84,201.08 -241.80,200.93 -241.71,200.79 -241.63,200.66 -241.52,200.54 -241.41,200.43 -236.50,200.44 -231.58,200.46 -220.27,199.37 -208.96,198.29 -189.18,196.11 -169.40,193.92 -134.25,189.83 -99.11,185.74 -68.96,180.84 -38.81,175.94 -10.52,168.70 17.76,161.45 43.84,152.06 69.91,142.67 85.02,136.38 100.12,130.09 108.79,125.43 117.46,120.77 122.79,116.27 128.11,111.76 131.26,108.15 134.41,104.54 134.61,104.39 134.80,104.23 135.04,104.15 135.27,104.07 135.52,104.06 135.77,104.06 136.00,104.13 136.24,104.21 136.44,104.36 136.64,104.50 136.79,104.71 136.93,104.91 137.00,105.15 137.07,105.39 137.06,105.64 137.05,105.88 136.96,106.12 136.87,106.35 136.72,106.54 136.56,106.73 136.35,106.87 136.14,107.00 135.89,107.06 135.65,107.11 135.40,107.09 135.16,107.07 134.93,106.97 134.70,106.87 134.52,106.70 134.34,106.53 134.21,106.31 134.09,106.09 134.05,105.85 134.01,105.60 134.04,105.36 134.08,105.11 134.19,104.89 134.30,104.67 134.48,104.50 134.66,104.32 134.88,104.21 135.11,104.10 135.35,104.07 135.60,104.04 135.85,104.09 136.09,104.14 136.30,104.27 136.52,104.39 136.68,104.58 136.85,104.77 136.94,104.99 137.04,105.22 137.06,105.47 137.07,105.72 137.01,105.96 136.95,106.20 136.81,106.41 136.68,106.62 136.68,106.62 136.68,106.62 133.24,110.19 129.81,113.77 124.26,118.43 118.71,123.08 109.92,127.80 101.13,132.52 85.97,138.83 70.80,145.14 44.61,154.57 18.41,164.00 -9.98,171.27 -38.39,178.54 -68.60,183.44 -98.80,188.35 -133.96,192.44 -169.11,196.53 -188.91,198.72 -208.71,200.91 -220.19,201.99 -231.67,203.08 -235.72,202.79 -239.78,202.49 -239.91,202.57 -240.05,202.66 -240.20,202.70 -240.35,202.75 -240.51,202.76 -240.67,202.77 -240.82,202.75 -240.98,202.72 -241.12,202.65 -241.27,202.59 -241.39,202.49 -241.52,202.40 -241.62,202.27 -241.72,202.15 -241.78,202.00 -241.85,201.86 -241.88,201.70 -241.91,201.55 -241.90,201.39 -241.89,201.23 -241.84,201.08 -241.80,200.93 -241.71,200.79 -241.63,200.66 -241.52,200.55 -241.41,200.43 -239.11,198.72 -236.81,197.01 -233.44,194.34 -230.07,191.67 -224.18,186.75 -218.29,181.83 -210.47,174.29 -202.65,166.74 -194.39,157.13 -186.12,147.52 -180.75,137.05 -175.38,126.59 -175.34,120.60 -175.31,114.62 -177.82,110.78 -180.33,106.95 -184.66,106.98 -188.99,107.00 -196.48,108.14 -203.97,109.28 -213.53,111.95 -223.09,114.62 -232.55,119.80 -242.01,124.97 -242.18,124.98 -242.35,124.99 -242.52,124.96 -242.69,124.93 -242.84,124.86 -243.00,124.79 -243.14,124.68 -243.27,124.58 -243.38,124.44 -243.48,124.31 -243.55,124.15 -243.62,124.00 -243.66,123.83 -243.69,123.66 -243.68,123.49 -243.67,123.32 -243.61,123.15 -243.56,122.99 -243.48,122.84 -243.39,122.69 -243.27,122.57 -243.14,122.45 -243.00,122.36 -242.85,122.27 -242.69,122.22 -242.52,122.17 -240.67,121.94 -238.81,121.71 -235.18,121.04 -231.54,120.37 -225.01,118.80 -218.48,117.24 -208.40,113.52 -198.31,109.80 -184.70,103.74 -171.10,97.69 -157.22,89.48 -143.35,81.28 -134.87,75.37 -126.38,69.47 -123.23,68.26 -120.08,67.04 -120.01,66.90 -119.93,66.76 -119.83,66.64 -119.72,66.53 -119.59,66.44 -119.46,66.35 -119.31,66.29 -119.16,66.24 -119.01,66.22 -118.85,66.20 -118.69,66.22 -118.53,66.24 -118.39,66.29 -118.24,66.35 -118.11,66.44 -117.98,66.53 -117.87,66.65 -117.77,66.77 -117.70,66.91 -117.62,67.05 -117.59,67.20 -117.55,67.36 -117.55,67.52 -117.55,67.67 -117.59,67.83 -117.63,67.98 -118.21,70.36 -118.79,72.74 -120.12,76.21 -121.46,79.68 -122.69,85.03 -123.92,90.38 -122.78,92.80 -121.64,95.22 -120.21,94.33 -118.78,93.44 -115.48,90.46 -112.18,87.49 -108.93,83.03 -105.69,78.57 -102.70,72.67 -99.70,66.77 -97.34,60.23 -94.97,53.69 -93.43,47.09 -91.89,40.49 -92.24,33.56 -92.60,26.62 -94.23,22.10 -95.86,17.57 -95.76,17.43 -95.66,17.29 -95.53,17.18 -95.41,17.06 -95.25,16.98 -95.10,16.90 -94.93,16.86 -94.77,16.82 -94.59,16.82 -94.42,16.82 -94.26,16.86 -94.09,16.90 -93.94,16.98 -93.78,17.06 -93.65,17.17 -93.52,17.29 -93.43,17.43 -93.33,17.57 -93.27,17.73 -93.21,17.89 -93.19,18.06 -93.16,18.23 -93.18,18.41 -93.21,18.58 -93.27,18.74 -93.33,18.90 -94.46,20.39 -95.59,21.88 -97.42,25.37 -99.25,28.86 -101.58,34.97 -103.90,41.09 -103.41,47.72 -102.92,54.36 -99.12,63.52 -95.31,72.67 -87.50,79.73 -79.69,86.79 -70.47,91.48 -61.26,96.16 -47.75,101.80 -34.24,107.43 -18.63,109.40 -3.02,111.38 2.37,106.00 7.76,100.62 8.40,92.68 9.03,84.73 7.95,71.69 6.86,58.65 4.29,44.70 1.72,30.75 0.42,22.27 -0.86,13.79 -1.18,9.48 -1.49,5.17 -1.52,2.58 -1.56,0 -1.53,-0.18 -1.51,-0.37 -1.45,-0.54 -1.38,-0.72 -1.27,-0.88 -1.16,-1.03 -1.02,-1.16 -0.88,-1.28 -0.72,-1.37 -0.55,-1.46 -0.37,-1.50 -0.18,-1.55 0.00,-1.55 0.18,-1.55 0.37,-1.50 0.55,-1.46 0.72,-1.37 0.88,-1.28 1.02,-1.16 1.16,-1.03 1.27,-0.88 1.38,-0.72 1.45,-0.54 1.51,-0.37 1.53,-0.18 1.56,0.00 1.56,0.00 L 1.56,0 Z"></path></g><g transform="translate(1179.84375 805.9375) rotate(0 0.00004999999998744897 0.00004999999998744897)" stroke="none"><path fill="#000" d="M 1.57,-1.57 Q 1.57,-1.57 1.77,-1.27 1.98,-0.98 2.09,-0.64 2.20,-0.29 2.19,0.05 2.18,0.41 2.05,0.75 1.93,1.09 1.70,1.37 1.48,1.65 1.18,1.84 0.87,2.04 0.52,2.12 0.18,2.21 -0.17,2.18 -0.53,2.15 -0.86,2.01 -1.19,1.87 -1.46,1.63 -1.73,1.39 -1.90,1.07 -2.08,0.76 -2.15,0.41 -2.21,0.05 -2.17,-0.29 -2.12,-0.65 -1.96,-0.97 -1.80,-1.29 -1.54,-1.54 -1.29,-1.80 -0.97,-1.96 -0.65,-2.12 -0.29,-2.17 0.06,-2.21 0.41,-2.15 0.76,-2.08 1.07,-1.90 1.39,-1.73 1.63,-1.46 1.87,-1.19 2.01,-0.86 2.15,-0.53 2.18,-0.17 2.21,0.18 2.12,0.52 2.03,0.87 1.84,1.18 1.65,1.48 1.37,1.70 1.09,1.93 0.75,2.05 0.41,2.18 0.05,2.19 -0.30,2.20 -0.64,2.09 -0.98,1.98 -1.27,1.77 -1.57,1.56 -1.57,1.57 -1.57,1.57 -1.73,1.35 -1.90,1.14 -2.01,0.90 -2.12,0.66 -2.16,0.39 -2.21,0.13 -2.20,-0.13 -2.18,-0.40 -2.10,-0.65 -2.02,-0.91 -1.88,-1.14 -1.74,-1.36 -1.55,-1.55 -1.36,-1.74 -1.14,-1.88 -0.91,-2.02 -0.65,-2.10 -0.40,-2.18 -0.13,-2.20 0.13,-2.21 0.39,-2.16 0.66,-2.12 0.90,-2.01 1.14,-1.90 1.35,-1.73 1.57,-1.57 1.57,-1.57 L 1.57,-1.57 Z"></path></g><g transform="translate(1135.84375 772.9375) rotate(0 -29 -61)" stroke="none"><path fill="#000" d="M 0.13,1.55 Q 0.13,1.55 -6.48,2.09 -13.09,2.63 -19.45,2.56 -25.81,2.49 -52.60,-10.25 -79.39,-23.00 -101.35,-35.90 -123.31,-48.80 -142.50,-65.85 -161.69,-82.90 -171.85,-93.90 -182.02,-104.90 -186.71,-112.89 -191.39,-120.88 -191.10,-129.16 -190.81,-137.44 -186.80,-143.71 -182.79,-149.98 -175.97,-153.58 -169.15,-157.18 -157.13,-156.08 -145.11,-154.99 -133.27,-148.37 -121.43,-141.76 -110.57,-127.03 -99.71,-112.29 -92.53,-97.96 -85.35,-83.63 -81.13,-68.84 -76.90,-54.04 -76.26,-43.64 -75.61,-33.24 -76.52,-26.97 -77.44,-20.70 -82.57,-14.65 -87.70,-8.60 -94.66,-5.70 -101.62,-2.81 -109.44,-3.09 -117.27,-3.38 -124.22,-10.26 -131.16,-17.15 -134.39,-23.93 -137.61,-30.71 -138.08,-37.61 -138.54,-44.50 -131.41,-53.10 -124.28,-61.70 -115.30,-65.37 -106.32,-69.04 -96.26,-68.26 -86.21,-67.48 -75.47,-60.42 -64.72,-53.36 -56.38,-42.20 -48.04,-31.04 -42.76,-18.46 -37.48,-5.89 -34.08,9.56 -30.68,25.02 -28.96,33.57 -27.24,42.12 -26.09,46.80 -24.94,51.48 -16.42,51.48 -7.90,51.48 1.92,48.12 11.74,44.76 21.68,39.90 31.61,35.04 43.05,29.23 54.48,23.42 64.52,18.36 74.56,13.30 82.25,8.87 89.93,4.44 98.34,-1.44 106.74,-7.33 113.23,-11.58 119.71,-15.83 123.88,-18.77 128.05,-21.70 131.01,-23.55 133.97,-25.40 134.04,-27.43 134.12,-29.46 128.53,-32.61 122.93,-35.75 114.80,-38.88 106.68,-42.01 96.13,-43.62 85.59,-45.23 74.21,-45.92 62.83,-46.62 49.08,-46.92 35.33,-47.22 16.22,-48.50 -2.88,-49.78 -19.66,-52.05 -36.44,-54.33 -48.24,-57.04 -60.04,-59.76 -72.17,-69.94 -84.30,-80.13 -90.88,-88.83 -97.47,-97.52 -99.99,-104.76 -102.51,-112.00 -96.26,-121.04 -90.00,-130.08 -75.04,-134.81 -60.08,-139.55 -46.73,-139.77 -33.38,-140.00 -20.90,-134.26 -8.42,-128.52 -0.41,-118.41 7.59,-108.30 8.67,-95.93 9.76,-83.56 -0.56,-69.50 -10.88,-55.44 -27.20,-46.29 -43.53,-37.13 -60.61,-32.96 -77.69,-28.79 -94.55,-29.33 -111.42,-29.87 -123.94,-35.07 -136.46,-40.28 -145.66,-53.03 -154.86,-65.77 -157.62,-83.72 -160.37,-101.67 -158.62,-115.70 -156.87,-129.72 -151.15,-141.02 -145.43,-152.31 -132.20,-161.25 -118.97,-170.20 -106.35,-173.99 -93.73,-177.78 -83.28,-177.06 -72.83,-176.34 -62.44,-168.70 -52.05,-161.06 -46.15,-148.16 -40.25,-135.25 -38.34,-121.34 -36.44,-107.44 -39.68,-90.48 -42.92,-73.51 -47.21,-62.24 -51.51,-50.97 -58.96,-43.13 -66.40,-35.28 -76.69,-32.75 -86.98,-30.22 -98.24,-32.76 -109.50,-35.30 -133.09,-74.78 -156.68,-114.27 -166.58,-130.96 -176.48,-147.65 -176.56,-147.85 -176.64,-148.05 -176.65,-148.26 -176.66,-148.47 -176.60,-148.67 -176.54,-148.88 -176.42,-149.05 -176.30,-149.23 -176.13,-149.36 -175.96,-149.48 -175.76,-149.55 -175.56,-149.62 -175.35,-149.62 -175.13,-149.61 -174.93,-149.55 -174.73,-149.48 -174.56,-149.35 -174.40,-149.22 -174.28,-149.04 -174.16,-148.86 -174.10,-148.66 -174.05,-148.45 -174.06,-148.24 -174.07,-148.03 -174.15,-147.83 -174.23,-147.64 -174.37,-147.47 -174.51,-147.31 -174.69,-147.21 -174.88,-147.10 -175.08,-147.05 -175.29,-147.01 -175.50,-147.03 -175.71,-147.06 -175.91,-147.15 -176.10,-147.24 -176.25,-147.38 -176.41,-147.53 -176.50,-147.72 -176.60,-147.91 -176.64,-148.12 -176.67,-148.33 -176.63,-148.54 -176.60,-148.75 -176.50,-148.93 -176.40,-149.12 -176.24,-149.27 -176.09,-149.41 -175.89,-149.50 -175.70,-149.59 -175.49,-149.61 -175.28,-149.63 -175.07,-149.58 -174.86,-149.54 -174.68,-149.43 -174.50,-149.32 -174.36,-149.15 -174.23,-148.99 -174.23,-148.99 -174.23,-148.99 -164.32,-132.30 -154.42,-115.61 -131.41,-76.54 -108.39,-37.48 -97.93,-35.13 -87.47,-32.78 -77.78,-35.00 -68.10,-37.21 -61.01,-44.60 -53.92,-51.98 -49.71,-63.00 -45.50,-74.02 -42.27,-90.57 -39.04,-107.13 -40.84,-120.67 -42.65,-134.20 -48.19,-146.64 -53.72,-159.09 -63.48,-166.44 -73.24,-173.80 -83.14,-174.52 -93.04,-175.25 -105.29,-171.63 -117.54,-168.00 -130.37,-159.49 -143.20,-150.99 -148.74,-140.17 -154.28,-129.34 -156.03,-115.69 -157.77,-102.03 -155.22,-84.60 -152.67,-67.18 -143.97,-54.87 -135.28,-42.57 -123.27,-37.52 -111.27,-32.48 -94.78,-31.91 -78.28,-31.35 -61.53,-35.39 -44.78,-39.43 -28.85,-48.26 -12.92,-57.08 -2.82,-70.44 7.27,-83.79 6.35,-95.35 5.43,-106.91 -2.10,-116.56 -9.63,-126.22 -21.54,-131.80 -33.46,-137.39 -46.39,-137.21 -59.33,-137.03 -73.73,-132.69 -88.14,-128.35 -94.16,-120.10 -100.18,-111.85 -97.76,-105.47 -95.35,-99.08 -88.96,-90.61 -82.58,-82.13 -70.95,-72.21 -59.32,-62.28 -47.70,-59.62 -36.08,-56.96 -19.39,-54.70 -2.70,-52.44 16.34,-51.17 35.39,-49.90 49.19,-49.61 62.99,-49.32 74.50,-48.63 86.00,-47.93 96.83,-46.27 107.66,-44.61 116.01,-41.41 124.35,-38.21 130.45,-34.58 136.55,-30.94 137.48,-28.78 138.41,-26.61 136.88,-24.89 135.36,-23.18 132.46,-21.37 129.56,-19.56 125.36,-16.59 121.15,-13.63 114.70,-9.40 108.25,-5.17 99.75,0.76 91.24,6.71 83.50,11.18 75.75,15.65 65.71,20.71 55.67,25.76 44.22,31.58 32.77,37.41 22.68,42.33 12.58,47.25 2.34,50.67 -7.89,54.10 -16.82,53.81 -25.76,53.53 -27.79,48.08 -29.82,42.64 -31.53,34.11 -33.25,25.59 -36.57,10.35 -39.90,-4.88 -45.03,-17.19 -50.15,-29.49 -58.18,-40.35 -66.21,-51.20 -76.40,-58.06 -86.59,-64.91 -96.02,-65.75 -105.46,-66.59 -113.93,-63.25 -122.39,-59.92 -129.25,-52.03 -136.10,-44.15 -135.66,-37.96 -135.22,-31.77 -132.24,-25.36 -129.26,-18.95 -122.97,-12.37 -116.69,-5.79 -109.60,-5.52 -102.52,-5.26 -96.05,-7.83 -89.58,-10.39 -84.76,-15.84 -79.94,-21.29 -79.09,-27.19 -78.23,-33.09 -78.83,-43.21 -79.44,-53.34 -83.57,-67.90 -87.70,-82.46 -94.77,-96.60 -101.84,-110.74 -112.32,-125.13 -122.80,-139.52 -134.13,-145.96 -145.45,-152.39 -156.81,-153.58 -168.17,-154.78 -174.43,-151.60 -180.69,-148.41 -184.45,-142.77 -188.21,-137.13 -188.62,-129.57 -189.02,-122.00 -184.53,-114.36 -180.03,-106.72 -169.95,-95.83 -159.87,-84.93 -140.89,-68.06 -121.90,-51.18 -100.04,-38.36 -78.18,-25.54 -51.93,-12.95 -25.67,-0.36 -19.51,-0.35 -13.35,-0.33 -6.74,-0.94 -0.13,-1.55 0.05,-1.54 0.24,-1.54 0.42,-1.49 0.60,-1.44 0.76,-1.34 0.93,-1.25 1.06,-1.12 1.20,-0.99 1.30,-0.83 1.40,-0.67 1.46,-0.50 1.52,-0.32 1.54,-0.13 1.56,0.05 1.53,0.23 1.50,0.42 1.43,0.59 1.35,0.77 1.24,0.92 1.13,1.07 0.98,1.19 0.84,1.31 0.67,1.39 0.50,1.47 0.31,1.51 0.13,1.55 0.13,1.55 L 0.13,1.55 Z"></path></g><g transform="translate(664.84375 599.9375) rotate(0 88 26.5)" stroke="none"><path fill="#000" d="M 0.11,-1.55 Q 0.11,-1.55 4.13,-1.23 8.15,-0.91 13.92,-0.19 19.69,0.53 40.24,3.14 60.79,5.76 77.90,8.89 95.01,12.03 110.38,16.54 125.75,21.05 137.78,25.86 149.81,30.67 156.38,33.88 162.95,37.10 167.03,40.86 171.11,44.62 173.65,47.65 176.20,50.68 176.32,50.90 176.44,51.13 176.49,51.38 176.53,51.64 176.50,51.89 176.46,52.14 176.34,52.37 176.22,52.60 176.04,52.78 175.86,52.96 175.63,53.07 175.39,53.18 175.14,53.21 174.88,53.24 174.63,53.19 174.38,53.14 174.16,53.01 173.94,52.88 173.77,52.69 173.60,52.50 173.50,52.26 173.40,52.02 173.39,51.77 173.37,51.51 173.43,51.26 173.50,51.01 173.64,50.80 173.78,50.58 173.98,50.43 174.18,50.27 174.43,50.18 174.67,50.10 174.92,50.09 175.18,50.09 175.43,50.17 175.67,50.25 175.88,50.40 176.08,50.55 176.23,50.76 176.38,50.97 176.45,51.22 176.52,51.46 176.51,51.72 176.50,51.98 176.41,52.22 176.32,52.46 176.16,52.65 175.99,52.85 175.77,52.99 175.56,53.12 175.31,53.18 175.06,53.24 174.80,53.22 174.55,53.19 174.31,53.09 174.08,52.98 173.89,52.81 173.70,52.64 173.70,52.64 173.70,52.64 171.49,49.60 169.29,46.57 165.52,43.03 161.75,39.49 155.28,36.33 148.80,33.18 136.89,28.43 124.99,23.67 109.75,19.21 94.51,14.75 77.47,11.65 60.44,8.55 39.89,5.98 19.34,3.40 13.64,2.73 7.94,2.06 3.91,1.81 -0.11,1.55 -0.29,1.52 -0.48,1.48 -0.65,1.40 -0.82,1.32 -0.96,1.21 -1.11,1.09 -1.23,0.94 -1.34,0.79 -1.42,0.62 -1.49,0.44 -1.52,0.26 -1.56,0.07 -1.54,-0.11 -1.53,-0.29 -1.47,-0.47 -1.41,-0.65 -1.31,-0.81 -1.21,-0.97 -1.08,-1.10 -0.94,-1.24 -0.78,-1.33 -0.62,-1.43 -0.44,-1.48 -0.26,-1.53 -0.07,-1.54 0.11,-1.55 0.11,-1.55 L 0.11,-1.55 Z"></path></g><g transform="translate(1003.84375 774.9375) rotate(0 -4.5 -106.5)" stroke="none"><path fill="#1864ab" d="M -1.05,1.15 Q -1.05,1.15 -7.35,-4.61 -13.65,-10.39 -21.24,-18.05 -28.82,-25.71 -42.98,-41.64 -57.14,-57.57 -78.71,-87.97 -100.29,-118.36 -112.33,-137.91 -124.38,-157.45 -130.66,-169.52 -136.94,-181.59 -139.62,-188.20 -142.30,-194.81 -143.46,-199.41 -144.62,-204.01 -144.35,-207.23 -144.09,-210.45 -139.94,-211.28 -135.80,-212.10 -127.15,-206.60 -118.50,-201.10 -104.18,-181.68 -89.86,-162.26 -76.34,-139.64 -62.81,-117.03 -53.34,-100.82 -43.86,-84.61 -37.53,-73.40 -31.20,-62.20 -26.78,-53.68 -22.35,-45.16 -20.44,-40.04 -18.54,-34.92 -17.72,-31.85 -16.90,-28.78 -16.56,-26.50 -16.22,-24.23 -17.45,-22.59 -18.69,-20.94 -20.24,-21.36 -21.80,-21.79 -26.11,-28.34 -30.43,-34.89 -33.30,-40.81 -36.16,-46.72 -37.40,-51.65 -38.64,-56.58 -39.15,-61.02 -39.66,-65.46 -38.12,-71.85 -36.58,-78.24 -34.76,-83.22 -32.93,-88.21 -29.22,-94.16 -25.51,-100.11 -20.97,-104.17 -16.42,-108.22 -12.16,-111.09 -7.91,-113.95 -1.36,-116.09 5.17,-118.22 13.76,-119.12 22.35,-120.02 32.03,-120.39 41.70,-120.77 51.58,-120.64 61.46,-120.51 73.43,-119.87 85.40,-119.24 94.20,-118.97 103.00,-118.71 109.33,-118.59 115.65,-118.48 121.15,-119.00 126.64,-119.53 130.42,-119.97 134.20,-120.42 134.45,-120.40 134.70,-120.38 134.94,-120.28 135.17,-120.18 135.36,-120.01 135.55,-119.84 135.68,-119.62 135.80,-119.40 135.85,-119.15 135.90,-118.90 135.87,-118.65 135.83,-118.40 135.72,-118.17 135.61,-117.94 135.43,-117.76 135.25,-117.58 135.02,-117.47 134.79,-117.35 134.54,-117.32 134.29,-117.28 134.04,-117.33 133.79,-117.38 133.57,-117.50 133.35,-117.63 133.18,-117.81 133.01,-118.00 132.90,-118.24 132.80,-118.47 132.78,-118.72 132.76,-118.98 132.82,-119.22 132.88,-119.47 133.02,-119.69 133.15,-119.90 133.35,-120.06 133.55,-120.22 133.79,-120.31 134.03,-120.40 134.28,-120.41 134.54,-120.41 134.78,-120.34 135.02,-120.27 135.23,-120.12 135.44,-119.97 135.59,-119.76 135.74,-119.56 135.81,-119.31 135.89,-119.07 135.88,-118.82 135.87,-118.56 135.79,-118.32 135.70,-118.08 135.54,-117.89 135.38,-117.69 135.17,-117.55 134.95,-117.41 134.71,-117.35 134.46,-117.29 134.46,-117.29 134.46,-117.29 130.67,-117.10 126.89,-116.91 121.25,-116.38 115.61,-115.85 109.27,-115.96 102.92,-116.07 94.10,-116.34 85.27,-116.61 73.35,-117.24 61.43,-117.87 51.62,-118.00 41.81,-118.12 32.22,-117.75 22.63,-117.38 14.30,-116.53 5.97,-115.68 -0.23,-113.70 -6.44,-111.72 -10.54,-108.96 -14.64,-106.20 -18.93,-102.42 -23.23,-98.65 -26.79,-92.95 -30.35,-87.25 -32.10,-82.41 -33.86,-77.57 -35.33,-71.65 -36.81,-65.73 -36.29,-61.52 -35.76,-57.31 -34.57,-52.69 -33.38,-48.08 -30.53,-42.36 -27.68,-36.65 -23.23,-30.37 -18.77,-24.09 -19.11,-26.10 -19.44,-28.11 -20.22,-31.05 -21.00,-34.00 -22.84,-38.98 -24.69,-43.95 -29.09,-52.43 -33.49,-60.90 -39.81,-72.09 -46.13,-83.28 -55.60,-99.48 -65.07,-115.67 -78.53,-138.18 -91.99,-160.70 -105.99,-179.81 -119.99,-198.93 -127.92,-204.27 -135.85,-209.61 -139.59,-208.89 -143.33,-208.17 -142.68,-206.41 -142.03,-204.65 -140.92,-200.23 -139.82,-195.82 -137.18,-189.33 -134.54,-182.84 -128.30,-170.86 -122.05,-158.88 -110.04,-139.42 -98.03,-119.96 -76.53,-89.70 -55.03,-59.44 -40.90,-43.60 -26.77,-27.75 -19.21,-20.18 -11.64,-12.60 -5.29,-6.88 1.05,-1.15 1.17,-1.01 1.29,-0.87 1.38,-0.70 1.46,-0.53 1.51,-0.35 1.55,-0.16 1.55,0.01 1.54,0.20 1.50,0.39 1.45,0.57 1.36,0.73 1.27,0.90 1.14,1.04 1.02,1.18 0.86,1.28 0.70,1.39 0.53,1.45 0.35,1.52 0.16,1.54 -0.02,1.56 -0.20,1.53 -0.39,1.51 -0.56,1.44 -0.74,1.37 -0.89,1.26 -1.05,1.15 -1.05,1.15 L -1.05,1.15 Z"></path></g><g transform="translate(1186.84375 633.9375) rotate(0 -39 106.5)" stroke="none"><path fill="#1864ab" d="M 1.29,0.86 Q 1.29,0.86 -1.02,4.29 -3.35,7.72 -6.37,12.06 -9.39,16.40 -16.41,27.41 -23.43,38.42 -30.15,49.42 -36.88,60.43 -42.63,69.15 -48.38,77.87 -55.43,88.19 -62.48,98.51 -67.18,106.03 -71.89,113.55 -75.94,119.10 -79.98,124.64 -83.17,128.18 -86.36,131.72 -88.86,134.37 -91.36,137.01 -93.05,138.47 -94.73,139.92 -95.34,140.32 -95.95,140.72 -96.11,140.82 -96.26,140.93 -96.44,140.99 -96.62,141.05 -96.80,141.07 -96.99,141.09 -97.18,141.07 -97.36,141.04 -97.54,140.97 -97.71,140.91 -97.87,140.80 -98.02,140.69 -98.14,140.55 -98.26,140.40 -98.35,140.24 -98.43,140.07 -98.48,139.89 -98.52,139.70 -98.52,139.52 -98.51,139.33 -98.47,139.15 -98.42,138.96 -98.33,138.80 -98.24,138.63 -98.11,138.49 -97.99,138.36 -93.93,135.79 -89.87,133.22 -82.84,133.03 -75.81,132.83 -64.88,139.19 -53.95,145.54 -45.01,154.06 -36.08,162.57 -29.38,172.00 -22.68,181.42 -18.71,187.12 -14.75,192.82 -11.36,197.22 -7.98,201.62 -4.35,204.54 -0.73,207.46 2.93,208.64 6.60,209.82 9.06,209.53 11.52,209.24 13.55,206.96 15.58,204.68 16.86,202.79 18.13,200.89 18.31,200.72 18.49,200.55 18.72,200.44 18.95,200.33 19.20,200.31 19.45,200.28 19.69,200.33 19.94,200.38 20.15,200.51 20.37,200.64 20.53,200.83 20.69,201.02 20.79,201.25 20.88,201.49 20.90,201.74 20.91,201.99 20.84,202.23 20.78,202.47 20.64,202.68 20.50,202.89 20.30,203.04 20.10,203.19 19.86,203.27 19.63,203.35 19.38,203.35 19.13,203.36 18.89,203.28 18.65,203.20 18.45,203.05 18.25,202.90 18.11,202.69 17.97,202.48 17.90,202.24 17.83,202.00 17.84,201.75 17.85,201.50 17.95,201.27 18.04,201.03 18.20,200.84 18.36,200.65 18.58,200.52 18.79,200.39 19.03,200.33 19.28,200.28 19.53,200.30 19.78,200.33 20.01,200.43 20.23,200.54 20.42,200.71 20.60,200.88 20.72,201.10 20.84,201.32 20.88,201.57 20.92,201.82 20.88,202.07 20.84,202.31 20.72,202.54 20.61,202.76 20.61,202.76 20.61,202.76 19.05,204.63 17.49,206.51 14.83,209.10 12.18,211.68 9.03,212.02 5.87,212.36 1.76,210.96 -2.35,209.56 -6.22,206.42 -10.09,203.27 -13.53,198.81 -16.96,194.36 -20.93,188.68 -24.90,183.00 -31.44,173.78 -37.99,164.56 -46.69,156.26 -55.40,147.96 -65.68,141.81 -75.97,135.66 -82.32,135.80 -88.67,135.93 -92.31,138.33 -95.95,140.72 -96.11,140.82 -96.26,140.93 -96.44,140.99 -96.62,141.05 -96.80,141.07 -96.99,141.09 -97.18,141.07 -97.36,141.04 -97.54,140.97 -97.71,140.91 -97.87,140.80 -98.02,140.69 -98.14,140.55 -98.26,140.40 -98.35,140.24 -98.43,140.07 -98.48,139.89 -98.52,139.70 -98.52,139.52 -98.51,139.33 -98.47,139.15 -98.42,138.96 -98.33,138.80 -98.24,138.63 -98.11,138.50 -97.99,138.36 -97.21,138.13 -96.43,137.91 -94.86,136.55 -93.28,135.19 -90.81,132.57 -88.33,129.95 -85.23,126.51 -82.13,123.07 -78.15,117.60 -74.16,112.13 -69.43,104.56 -64.71,96.99 -57.69,86.68 -50.66,76.37 -44.95,67.68 -39.24,58.99 -32.52,47.95 -25.81,36.91 -18.79,25.83 -11.76,14.76 -8.80,10.41 -5.84,6.07 -3.57,2.60 -1.29,-0.86 -1.17,-1.00 -1.05,-1.15 -0.90,-1.26 -0.74,-1.37 -0.57,-1.44 -0.39,-1.51 -0.21,-1.53 -0.02,-1.56 0.16,-1.54 0.34,-1.52 0.52,-1.45 0.70,-1.39 0.86,-1.29 1.01,-1.18 1.14,-1.04 1.27,-0.90 1.36,-0.74 1.45,-0.57 1.49,-0.39 1.54,-0.21 1.55,-0.02 1.55,0.16 1.51,0.34 1.46,0.53 1.38,0.69 1.29,0.86 1.29,0.86 L 1.29,0.86 Z"></path></g><g transform="translate(1206.84375 834.9375) rotate(0 0.00004999999998744897 0.00004999999998744897)" stroke="none"><path fill="#1864ab" d="M 1.57,-1.57 Q 1.57,-1.57 1.77,-1.27 1.98,-0.98 2.09,-0.64 2.20,-0.29 2.19,0.05 2.18,0.41 2.05,0.75 1.93,1.09 1.70,1.37 1.48,1.65 1.18,1.84 0.87,2.04 0.52,2.12 0.18,2.21 -0.17,2.18 -0.53,2.15 -0.86,2.01 -1.19,1.87 -1.46,1.63 -1.73,1.39 -1.90,1.07 -2.08,0.76 -2.15,0.41 -2.21,0.05 -2.17,-0.29 -2.12,-0.65 -1.96,-0.97 -1.80,-1.29 -1.54,-1.54 -1.29,-1.80 -0.97,-1.96 -0.65,-2.12 -0.29,-2.17 0.06,-2.21 0.41,-2.15 0.76,-2.08 1.07,-1.90 1.39,-1.73 1.63,-1.46 1.87,-1.19 2.01,-0.86 2.15,-0.53 2.18,-0.17 2.21,0.18 2.12,0.52 2.03,0.87 1.84,1.18 1.65,1.48 1.37,1.70 1.09,1.93 0.75,2.05 0.41,2.18 0.05,2.19 -0.30,2.20 -0.64,2.09 -0.98,1.98 -1.27,1.77 -1.57,1.56 -1.57,1.57 -1.57,1.57 -1.73,1.35 -1.90,1.14 -2.01,0.90 -2.12,0.66 -2.16,0.39 -2.21,0.13 -2.20,-0.13 -2.18,-0.40 -2.10,-0.65 -2.02,-0.91 -1.88,-1.14 -1.74,-1.36 -1.55,-1.55 -1.36,-1.74 -1.14,-1.88 -0.91,-2.02 -0.65,-2.10 -0.40,-2.18 -0.13,-2.20 0.13,-2.21 0.39,-2.16 0.66,-2.12 0.90,-2.01 1.14,-1.90 1.35,-1.73 1.57,-1.57 1.57,-1.57 L 1.57,-1.57 Z"></path></g><g transform="translate(1264.84375 810.9375) rotate(0 0.00004999999998744897 0.00004999999998744897)" stroke="none"><path fill="#1864ab" d="M 1.57,-1.57 Q 1.57,-1.57 1.77,-1.27 1.98,-0.98 2.09,-0.64 2.20,-0.29 2.19,0.05 2.18,0.41 2.05,0.75 1.93,1.09 1.70,1.37 1.48,1.65 1.18,1.84 0.87,2.04 0.52,2.12 0.18,2.21 -0.17,2.18 -0.53,2.15 -0.86,2.01 -1.19,1.87 -1.46,1.63 -1.73,1.39 -1.90,1.07 -2.08,0.76 -2.15,0.41 -2.21,0.05 -2.17,-0.29 -2.12,-0.65 -1.96,-0.97 -1.80,-1.29 -1.54,-1.54 -1.29,-1.80 -0.97,-1.96 -0.65,-2.12 -0.29,-2.17 0.06,-2.21 0.41,-2.15 0.76,-2.08 1.07,-1.90 1.39,-1.73 1.63,-1.46 1.87,-1.19 2.01,-0.86 2.15,-0.53 2.18,-0.17 2.21,0.18 2.12,0.52 2.03,0.87 1.84,1.18 1.65,1.48 1.37,1.70 1.09,1.93 0.75,2.05 0.41,2.18 0.05,2.19 -0.30,2.20 -0.64,2.09 -0.98,1.98 -1.27,1.77 -1.57,1.56 -1.57,1.57 -1.57,1.57 -1.73,1.35 -1.90,1.14 -2.01,0.90 -2.12,0.66 -2.16,0.39 -2.21,0.13 -2.20,-0.13 -2.18,-0.40 -2.10,-0.65 -2.02,-0.91 -1.88,-1.14 -1.74,-1.36 -1.55,-1.55 -1.36,-1.74 -1.14,-1.88 -0.91,-2.02 -0.65,-2.10 -0.40,-2.18 -0.13,-2.20 0.13,-2.21 0.39,-2.16 0.66,-2.12 0.90,-2.01 1.14,-1.90 1.35,-1.73 1.57,-1.57 1.57,-1.57 L 1.57,-1.57 Z"></path></g></svg>