<svg version="1.1" xmlns="http://www.w3.org/2000/svg" viewBox="0 0 10020 759.859375" width="10020" height="759.859375">
  <!-- svg-source:excalidraw -->
  
  <defs>
    <style>
      @font-face {
        font-family: "Virgil";
        src: url("https://excalidraw.com/Virgil.woff2");
      }
      @font-face {
        font-family: "Cascadia";
        src: url("https://excalidraw.com/Cascadia.woff2");
      }
    </style>
  </defs>
  <rect x="0" y="0" width="10020" height="759.859375" fill="#fff0"></rect><g stroke-linecap="round" transform="translate(10 10) rotate(0 5000 0.5)"><path d="M-0.52 -0.26 C3022.65 -30.2, 6044.59 -29.2, 9999.32 0.22 M0.38 -0.31 C3948.03 -0.44, 7895.41 0.2, 9999.95 0.08 M10000.08 -0.06 C10000.09 0.27, 10000.05 0.48, 10000.09 0.92 M9999.97 0.01 C9999.95 0.33, 9999.98 0.72, 10000 0.99 M10000.22 1.51 C7095.77 35.76, 4193.15 34.95, -0.25 0.75 M10000.01 1.13 C7827.97 2.74, 5656.23 3.35, -0.33 0.84 M-0.04 1.01 C0 0.63, -0.06 0.15, 0.05 -0.03 M-0.04 0.95 C-0.04 0.73, -0.03 0.59, -0.05 -0.02" stroke="transparent" stroke-width="1" fill="none"></path></g><g stroke-linecap="round"><g transform="translate(609 749.859375) rotate(0 -2.5 -85.5)"><path d="M-0.47 1.17 C-1.12 -27.15, -3.78 -141.13, -4.36 -169.81 M1.48 0.74 C0.77 -27.9, -4.03 -142.93, -4.97 -171.31" stroke="#000" stroke-width="1" fill="none"></path></g><g transform="translate(609 749.859375) rotate(0 -2.5 -85.5)"><path d="M8.3 -142.46 C5.37 -149, 0.6 -158.06, -4.82 -170.7 M7.24 -144.46 C1.76 -151.92, -0.92 -161.24, -4.26 -171.43" stroke="#000" stroke-width="1" fill="none"></path></g><g transform="translate(609 749.859375) rotate(0 -2.5 -85.5)"><path d="M-12.21 -141.68 C-9.84 -148.34, -9.31 -157.61, -4.82 -170.7 M-13.27 -143.69 C-11.94 -151.21, -7.8 -160.79, -4.26 -171.43" stroke="#000" stroke-width="1" fill="none"></path></g></g><g stroke-linecap="round"><g transform="translate(572 723.859375) rotate(356.17724477945916 128 3.5)"><path d="M1.17 0.64 C44.01 2.06, 214.7 7, 257.19 8.05 M0.33 -0.07 C43.1 1.08, 214.36 5.1, 256.87 6.48" stroke="#000" stroke-width="1" fill="none"></path></g><g transform="translate(572 723.859375) rotate(356.17724477945916 128 3.5)"><path d="M229.47 17.95 C239.08 12.86, 246.08 9.91, 257.48 7.12 M227.47 15.25 C239.1 12.85, 248.67 9.98, 256.74 5.69" stroke="#000" stroke-width="1" fill="none"></path></g><g transform="translate(572 723.859375) rotate(356.17724477945916 128 3.5)"><path d="M230.03 -2.57 C239.38 -1.24, 246.21 2.22, 257.48 7.12 M228.03 -5.27 C239.28 -0.69, 248.66 3.4, 256.74 5.69" stroke="#000" stroke-width="1" fill="none"></path></g></g><g stroke-linecap="round"><g transform="translate(694 682.859375) rotate(0 52.5 -54.5)"><path d="M0.64 1.19 C-2.77 -6.32, -22.33 -25.57, -20.95 -43.91 C-19.57 -62.26, -6.64 -96.12, 8.92 -108.91 C24.47 -121.69, 52.61 -122.74, 72.37 -120.61 C92.13 -118.48, 119.36 -108.19, 127.47 -96.11 C135.59 -84.02, 135.12 -66.33, 121.07 -48.13 C107.01 -29.92, 63.25 4.94, 43.14 13.13 C23.04 21.33, 7.48 3.24, 0.44 1.03 M-0.48 0.77 C-3.92 -6.03, -22.78 -24.28, -21.35 -42.33 C-19.92 -60.38, -7.58 -94.71, 8.11 -107.54 C23.8 -120.37, 53.12 -121.18, 72.81 -119.3 C92.5 -117.43, 118.49 -108.5, 126.25 -96.3 C134.01 -84.09, 133.2 -64.21, 119.38 -46.1 C105.56 -27.98, 63.29 4.5, 43.33 12.38 C23.38 20.27, 6.92 3.56, -0.36 1.23" stroke="#000" stroke-width="1" fill="none"></path></g></g><g transform="translate(697 646.859375) rotate(0 1 1.5)" stroke="none"><path fill="#000" d="M 1.99,-1.33 Q 1.99,-1.33 0.08,0.33 -1.83,1.99 -1.94,1.60 -2.05,1.21 -2.03,0.80 -2.01,0.40 -1.86,0.02 -1.72,-0.35 -1.45,-0.66 -1.19,-0.97 -0.84,-1.18 -0.50,-1.39 -0.10,-1.48 0.28,-1.57 0.69,-1.53 1.09,-1.48 1.46,-1.32 1.83,-1.15 2.13,-0.87 2.42,-0.59 2.62,-0.23 2.81,0.12 2.87,0.52 2.94,0.92 2.88,1.32 2.81,1.72 2.63,2.08 2.44,2.44 2.14,2.72 1.85,3.00 1.48,3.17 1.11,3.34 0.71,3.39 0.31,3.44 -0.08,3.35 -0.48,3.26 -0.83,3.06 -1.18,2.85 -1.44,2.54 -1.70,2.23 -1.86,1.85 -2.01,1.48 -2.03,1.07 -2.06,0.67 -1.95,0.27 -1.84,-0.11 -1.61,-0.44 -1.39,-0.78 -1.07,-1.03 -0.74,-1.28 -0.36,-1.41 0.02,-1.54 0.42,-1.54 0.83,-1.54 1.21,-1.41 1.60,-1.29 1.92,-1.04 2.25,-0.80 2.48,-0.46 2.71,-0.13 2.71,-0.13 2.71,-0.13 0.35,0.60 -1.99,1.33 -2.12,1.07 -2.25,0.81 -2.32,0.53 -2.38,0.25 -2.38,-0.03 -2.37,-0.32 -2.30,-0.60 -2.23,-0.88 -2.09,-1.14 -1.95,-1.39 -1.75,-1.60 -1.56,-1.82 -1.32,-1.98 -1.08,-2.14 -0.80,-2.24 -0.53,-2.34 -0.24,-2.37 0.03,-2.40 0.32,-2.36 0.61,-2.32 0.88,-2.21 1.15,-2.10 1.38,-1.94 1.62,-1.77 1.81,-1.55 1.99,-1.33 1.99,-1.33 L 1.99,-1.33 Z"></path></g><g transform="translate(792 600.859375) rotate(0 -4 -0.5)" stroke="none"><path fill="#000" d="M 0,2.56 Q 0,2.56 -1.71,2.50 -3.42,2.44 -4.82,2.89 -6.22,3.34 -6.53,3.39 -6.84,3.44 -7.16,3.41 -7.47,3.38 -7.77,3.28 -8.07,3.18 -8.34,3.01 -8.60,2.84 -8.82,2.61 -9.04,2.38 -9.19,2.10 -9.35,1.83 -9.44,1.52 -9.52,1.22 -9.53,0.90 -9.54,0.58 -9.48,0.27 -9.41,-0.03 -9.27,-0.31 -9.14,-0.59 -8.93,-0.84 -8.73,-1.08 -8.48,-1.27 -8.22,-1.46 -7.93,-1.58 -7.64,-1.70 -8.53,-0.78 -9.43,0.14 -8.91,-0.98 -8.39,-2.12 -7.50,-2.71 -6.61,-3.29 -5.56,-3.92 -4.51,-4.54 -3.10,-4.60 -1.69,-4.67 -1.69,-4.53 -1.69,-4.39 -1.33,-4.37 -0.96,-4.36 -0.62,-4.26 -0.27,-4.15 0.04,-3.97 0.35,-3.79 0.61,-3.54 0.87,-3.28 1.07,-2.98 1.26,-2.67 1.38,-2.32 1.49,-1.98 1.52,-1.62 1.55,-1.25 1.49,-0.90 1.43,-0.54 1.29,-0.20 1.14,0.12 0.92,0.41 0.70,0.70 0.42,0.93 0.14,1.16 -0.18,1.31 -0.51,1.47 -0.86,1.54 -1.22,1.61 -1.64,-0.70 -2.06,-3.03 -1.59,-2.94 -1.12,-2.84 -0.71,-2.60 -0.29,-2.36 0.01,-2.00 0.33,-1.64 0.51,-1.20 0.70,-0.76 0.73,-0.28 0.76,0.18 0.64,0.65 0.52,1.11 0.26,1.51 0.00,1.91 -0.37,2.21 -0.74,2.50 -1.19,2.66 -1.64,2.82 -2.12,2.83 -2.60,2.84 -3.06,2.69 -3.51,2.55 -3.90,2.26 -4.28,1.98 -4.56,1.59 -4.83,1.20 -4.97,0.74 -5.10,0.28 -5.09,-0.19 -5.07,-0.67 -4.90,-1.11 -4.73,-1.56 -4.42,-1.93 -4.12,-2.30 -3.72,-2.55 -3.31,-2.81 -2.84,-2.92 -2.38,-3.03 -1.90,-2.98 -1.43,-2.94 -0.99,-2.74 -0.55,-2.55 -0.20,-2.23 0.14,-1.90 0.37,-1.49 0.61,-1.07 0.69,-0.60 0.78,-0.12 0.71,0.34 0.64,0.81 0.42,1.24 0.20,1.66 -0.13,2.00 -0.47,2.33 -0.90,2.54 -1.33,2.75 -1.81,2.81 -2.28,2.87 -2.28,2.87 -2.28,2.87 -3.70,-0.20 -5.11,-3.28 -3.40,-3.84 -1.69,-4.39 -1.33,-4.37 -0.96,-4.36 -0.62,-4.26 -0.27,-4.15 0.04,-3.97 0.35,-3.79 0.61,-3.54 0.87,-3.29 1.07,-2.98 1.26,-2.67 1.38,-2.32 1.49,-1.98 1.52,-1.62 1.55,-1.26 1.49,-0.90 1.43,-0.54 1.29,-0.20 1.14,0.12 0.92,0.41 0.70,0.70 0.42,0.93 0.14,1.16 -0.18,1.31 -0.51,1.47 -0.86,1.54 -1.22,1.61 -1.69,0.92 -2.16,0.22 -3.33,0.38 -4.51,0.55 -5.36,1.94 -6.22,3.34 -6.53,3.39 -6.84,3.44 -7.16,3.41 -7.47,3.38 -7.77,3.28 -8.07,3.18 -8.34,3.01 -8.60,2.84 -8.82,2.61 -9.04,2.38 -9.19,2.10 -9.35,1.83 -9.44,1.52 -9.52,1.22 -9.53,0.90 -9.54,0.58 -9.48,0.27 -9.41,-0.02 -9.27,-0.31 -9.14,-0.59 -8.93,-0.84 -8.73,-1.08 -8.48,-1.27 -8.22,-1.46 -7.93,-1.58 -7.64,-1.70 -6.91,-1.78 -6.17,-1.86 -4.82,-2.15 -3.47,-2.44 -1.73,-2.50 0,-2.56 0.30,-2.53 0.61,-2.49 0.90,-2.38 1.19,-2.27 1.44,-2.09 1.70,-1.92 1.90,-1.69 2.11,-1.45 2.25,-1.18 2.40,-0.91 2.47,-0.61 2.55,-0.30 2.55,0.00 2.55,0.30 2.47,0.61 2.40,0.91 2.25,1.18 2.11,1.45 1.90,1.69 1.70,1.92 1.44,2.09 1.19,2.27 0.90,2.38 0.61,2.49 0.30,2.53 -0.00,2.56 -0.00,2.56 L 0,2.56 Z"></path></g><g stroke-linecap="round"><g transform="translate(699 643.859375) rotate(0 42 -21)"><path d="M0.09 -0.08 C13.9 -7.2, 70.04 -34.73, 84.09 -41.63 M-1.33 -1.17 C12.23 -8.14, 69 -36.49, 83.19 -43.56" stroke="#1864ab" stroke-width="1" fill="none"></path></g></g><g transform="translate(700 600.859375) rotate(0 7 12.5)"><text x="0" y="18" font-family="Virgil, Segoe UI Emoji" font-size="20px" fill="#d9480f" text-anchor="start" style="white-space: pre;" direction="ltr">a</text></g><g transform="translate(766 575.859375) rotate(0 5.5 12.5)"><text x="0" y="18" font-family="Virgil, Segoe UI Emoji" font-size="20px" fill="#d9480f" text-anchor="start" style="white-space: pre;" direction="ltr">b</text></g><g transform="translate(828 553.859375) rotate(0 185 50)"><text x="0" y="18" font-family="Virgil, Segoe UI Emoji" font-size="20px" fill="#000000" text-anchor="start" style="white-space: pre;" direction="ltr">b = (b - o) = (a - o) + (b - a)</text><text x="0" y="43" font-family="Virgil, Segoe UI Emoji" font-size="20px" fill="#000000" text-anchor="start" style="white-space: pre;" direction="ltr">  = Xai + Yaj + ab cosBi + ab senBj</text><text x="0" y="68" font-family="Virgil, Segoe UI Emoji" font-size="20px" fill="#000000" text-anchor="start" style="white-space: pre;" direction="ltr"></text><text x="0" y="93" font-family="Virgil, Segoe UI Emoji" font-size="20px" fill="#000000" text-anchor="start" style="white-space: pre;" direction="ltr">b = Xa+iYa+abe^iB</text></g><g stroke-linecap="round"><g transform="translate(823 550.859375) rotate(0 8.5 -0.5)"><path d="M1.03 -0.83 C3.89 -1.13, 15.46 -1.72, 17.93 -1.75 M0.11 1.35 C2.82 1.19, 14.47 -0.44, 17.48 -0.61" stroke="#000000" stroke-width="1" fill="none"></path></g><g transform="translate(823 550.859375) rotate(0 8.5 -0.5)"><path d="M9.22 3.76 C12.07 0.87, 15.42 -0.44, 18.29 -0.92 M10.07 3.01 C11.45 2.62, 13.81 1.68, 17.06 -0.46" stroke="#000000" stroke-width="1" fill="none"></path></g><g transform="translate(823 550.859375) rotate(0 8.5 -0.5)"><path d="M8.63 -2.03 C11.7 -2.81, 15.26 -2.01, 18.29 -0.92 M9.48 -2.79 C10.96 -1.78, 13.46 -1.34, 17.06 -0.46" stroke="#000000" stroke-width="1" fill="none"></path></g></g><g stroke-linecap="round"><g transform="translate(892 579.859375) rotate(0 7.5 -0.5)"><path d="M0.41 1.18 C3.27 1.1, 13.55 -0.54, 16.09 -0.83 M-0.84 0.76 C2.06 0.93, 13.03 1.37, 15.72 0.8" stroke="#000000" stroke-width="1" fill="none"></path></g><g transform="translate(892 579.859375) rotate(0 7.5 -0.5)"><path d="M9.58 4.51 C10.39 3.6, 12.01 2.19, 15.49 0.79 M9.12 3.98 C10.75 2.83, 12.25 2.65, 15.79 0.77" stroke="#000000" stroke-width="1" fill="none"></path></g><g transform="translate(892 579.859375) rotate(0 7.5 -0.5)"><path d="M9.25 -0.62 C10.11 -0.46, 11.8 -0.8, 15.49 0.79 M8.79 -1.15 C10.47 -1.09, 12.05 -0.06, 15.79 0.77" stroke="#000000" stroke-width="1" fill="none"></path></g></g><g stroke-linecap="round"><g transform="translate(948 578.859375) rotate(0 9.5 -0.5)"><path d="M0.67 0.15 C3.77 0.02, 15.95 -0.15, 19.08 -0.46 M-0.43 -0.82 C2.48 -1.33, 14.95 -2.31, 18.18 -2.3" stroke="#000000" stroke-width="1" fill="none"></path></g><g transform="translate(948 578.859375) rotate(0 9.5 -0.5)"><path d="M9.51 1.42 C12.8 0.42, 14.79 -1.89, 17.86 -3.02 M9.29 0.9 C11.81 0.62, 14.01 -0.68, 18.21 -2.19" stroke="#000000" stroke-width="1" fill="none"></path></g><g transform="translate(948 578.859375) rotate(0 9.5 -0.5)"><path d="M9.22 -5.08 C12.62 -3.87, 14.71 -3.97, 17.86 -3.02 M8.99 -5.61 C11.61 -4.06, 13.89 -3.52, 18.21 -2.19" stroke="#000000" stroke-width="1" fill="none"></path></g></g><g stroke-linecap="round"><g transform="translate(1072 579.859375) rotate(0 7.5 -0.5)"><path d="M-0.9 -0.22 C1.79 -0.33, 12.64 -0.75, 15.25 -1.07 M0.83 -1.38 C3.46 -1.26, 12.26 0.43, 14.43 0.42" stroke="#000000" stroke-width="1" fill="none"></path></g><g transform="translate(1072 579.859375) rotate(0 7.5 -0.5)"><path d="M6.99 2.38 C8.74 1.7, 9.72 1.39, 14.88 -0.09 M7.13 1.86 C9.06 1.91, 11.83 0.89, 14.65 0.78" stroke="#000000" stroke-width="1" fill="none"></path></g><g transform="translate(1072 579.859375) rotate(0 7.5 -0.5)"><path d="M7.54 -2.73 C9.15 -2.26, 10 -1.42, 14.88 -0.09 M7.68 -3.26 C9.44 -1.65, 12.05 -1.11, 14.65 0.78" stroke="#000000" stroke-width="1" fill="none"></path></g></g><g stroke-linecap="round"><g transform="translate(1190 572.859375) rotate(0 6 0)"><path d="M-0.12 0.73 C1.79 0.93, 9.15 0.13, 11.18 0.05 M-1.65 0.06 C0.67 0.57, 11.3 1.34, 13.46 1.62" stroke="#000000" stroke-width="1" fill="none"></path></g><g transform="translate(1190 572.859375) rotate(0 6 0)"><path d="M8.02 2.71 C9.31 2.76, 11.04 2.29, 12.87 1.15 M7.83 3.41 C10.06 2.58, 11.94 1.88, 13.23 1.77" stroke="#000000" stroke-width="1" fill="none"></path></g><g transform="translate(1190 572.859375) rotate(0 6 0)"><path d="M8.41 -1.37 C9.55 -0.2, 11.17 0.47, 12.87 1.15 M8.22 -0.68 C10.34 -0.01, 12.07 0.79, 13.23 1.77" stroke="#000000" stroke-width="1" fill="none"></path></g></g></svg>