<svg version="1.1" xmlns="http://www.w3.org/2000/svg" viewBox="0 0 10020 781.71875" width="10020" height="781.71875">
  <!-- svg-source:excalidraw -->
  
  <defs>
    <style>
      @font-face {
        font-family: "Virgil";
        src: url("https://excalidraw.com/Virgil.woff2");
      }
      @font-face {
        font-family: "Cascadia";
        src: url("https://excalidraw.com/Cascadia.woff2");
      }
    </style>
  </defs>
  <rect x="0" y="0" width="10020" height="781.71875" fill="#fff0"></rect><g stroke-linecap="round" transform="translate(10 10) rotate(0 5000 0.5)"><path d="M-0.52 -0.26 C3022.65 -30.2, 6044.59 -29.2, 9999.32 0.22 M0.38 -0.31 C3948.03 -0.44, 7895.41 0.2, 9999.95 0.08 M10000.08 -0.06 C10000.09 0.27, 10000.05 0.48, 10000.09 0.92 M9999.97 0.01 C9999.95 0.33, 9999.98 0.72, 10000 0.99 M10000.22 1.51 C7095.77 35.76, 4193.15 34.95, -0.25 0.75 M10000.01 1.13 C7827.97 2.74, 5656.23 3.35, -0.33 0.84 M-0.04 1.01 C0 0.63, -0.06 0.15, 0.05 -0.03 M-0.04 0.95 C-0.04 0.73, -0.03 0.59, -0.05 -0.02" stroke="transparent" stroke-width="1" fill="none"></path></g><g stroke-linecap="round"><g transform="translate(588 646.71875) rotate(0 92.5 6.5)"><path d="M-0.49 -0.12 C9.61 -14.92, 35.1 -77.75, 61.26 -87.81 C87.42 -97.87, 134.14 -82.74, 156.48 -60.47 C178.83 -38.2, 198.04 29.24, 195.34 45.82 C192.63 62.39, 156.38 39.17, 140.25 38.97 C124.12 38.78, 108.03 34.42, 98.57 44.65 C89.11 54.87, 101.6 95.96, 83.48 100.33 C65.35 104.71, 3.83 87.54, -10.19 70.91 C-24.2 54.28, -2.48 12.23, -0.6 0.56 M1.45 -1.23 C11.36 -15.89, 34.78 -76.48, 60.45 -86.18 C86.11 -95.87, 132.98 -81.57, 155.44 -59.4 C177.91 -37.24, 197.47 30.36, 195.24 46.82 C193 63.28, 157.96 39.83, 142.04 39.35 C126.13 38.87, 109.37 33.45, 99.76 43.94 C90.15 54.44, 102.79 97.87, 84.37 102.3 C65.95 106.73, 3.1 87.66, -10.78 70.53 C-24.67 53.39, -0.52 11.08, 1.07 -0.53" stroke="#000" stroke-width="1" fill="none"></path></g></g><g stroke-linecap="round"><g transform="translate(887.1826431624517 566.4987920526845) rotate(0 94.39362524264851 60.25532234965178)"><path d="M0.01 0.89 C1.42 20.44, -17.02 95.59, 7.91 118.49 C32.85 141.39, 119.55 152.13, 149.62 138.3 C179.69 124.47, 193.34 61.31, 188.32 35.49 C183.29 9.67, 151 -10.78, 119.46 -16.62 C87.92 -22.47, 19.15 -2.53, -0.93 0.42 M-1.45 0.31 C-0.09 20.47, -18.25 96.79, 7.33 119.48 C32.9 142.18, 121.82 150.83, 151.99 136.48 C182.16 122.14, 193.91 58.85, 188.32 33.42 C182.72 7.98, 149.81 -10.51, 118.42 -16.14 C87.04 -21.78, 19.89 -3.14, 0 -0.4" stroke="#000" stroke-width="1" fill="none"></path></g></g><g stroke-linecap="round"><g transform="translate(659 724.71875) rotate(0 49 -24)"><path d="M-0.84 -0.2 C15.4 -8.22, 81.8 -39.15, 98.14 -46.98 M0.92 -1.35 C16.95 -9.18, 80.81 -40.6, 97.27 -48.57" stroke="#1864ab" stroke-width="1" fill="none"></path></g></g><g stroke-linecap="round"><g transform="translate(612 672.71875) rotate(0 36.5 -31)"><path d="M1.05 1.15 C13.47 -9.5, 61.72 -52.27, 73.64 -62.94 M0.15 0.71 C12.54 -9.9, 61.11 -51.45, 73.03 -61.89" stroke="#1864ab" stroke-width="1" fill="none"></path></g></g><g stroke-linecap="round"><g transform="translate(913 609.71875) rotate(0 36.5 -6)"><path d="M0.6 -0.12 C12.71 -1.76, 61.85 -8.68, 73.73 -10.84 M-0.54 -1.23 C11.37 -3.09, 60.71 -10.5, 73.17 -12.35" stroke="#1864ab" stroke-width="1" fill="none"></path></g></g><g stroke-linecap="round"><g transform="translate(971 673.71875) rotate(0 28.5 -33.5)"><path d="M0.22 -0.97 C9.63 -12.28, 46.58 -56.87, 55.9 -67.69 M-1.12 1.13 C8.7 -10.05, 48.09 -55.05, 58.03 -66.51" stroke="#1864ab" stroke-width="1" fill="none"></path></g></g><g transform="translate(704 746.71875) rotate(0 64.5 12.5)"><text x="0" y="18" font-family="Virgil, Segoe UI Emoji" font-size="20px" fill="#000000" text-anchor="start" style="white-space: pre;" direction="ltr">Non convesso</text></g><g transform="translate(983 724.71875) rotate(0 44.5 12.5)"><text x="0" y="18" font-family="Virgil, Segoe UI Emoji" font-size="20px" fill="#000000" text-anchor="start" style="white-space: pre;" direction="ltr">Convesso</text></g></svg>