<svg version="1.1" xmlns="http://www.w3.org/2000/svg" viewBox="0 0 10020 821.15625" width="10020" height="821.15625">
  <!-- svg-source:excalidraw -->
  
  <defs>
    <style>
      @font-face {
        font-family: "Virgil";
        src: url("https://excalidraw.com/Virgil.woff2");
      }
      @font-face {
        font-family: "Cascadia";
        src: url("https://excalidraw.com/Cascadia.woff2");
      }
    </style>
  </defs>
  <rect x="0" y="0" width="10020" height="821.15625" fill="#fff0"></rect><g stroke-linecap="round" transform="translate(10 10) rotate(0 5000 0.5)"><path d="M-0.52 -0.26 C3022.65 -30.2, 6044.59 -29.2, 9999.32 0.22 M0.38 -0.31 C3948.03 -0.44, 7895.41 0.2, 9999.95 0.08 M10000.08 -0.06 C10000.09 0.27, 10000.05 0.48, 10000.09 0.92 M9999.97 0.01 C9999.95 0.33, 9999.98 0.72, 10000 0.99 M10000.22 1.51 C7095.77 35.76, 4193.15 34.95, -0.25 0.75 M10000.01 1.13 C7827.97 2.74, 5656.23 3.35, -0.33 0.84 M-0.04 1.01 C0 0.63, -0.06 0.15, 0.05 -0.03 M-0.04 0.95 C-0.04 0.73, -0.03 0.59, -0.05 -0.02" stroke="transparent" stroke-width="1" fill="none"></path></g><g stroke-linecap="round"><g transform="translate(798.84375 767.15625) rotate(0 1 -112)"><path d="M1.08 1.14 C1.23 -36.43, 1.88 -187.59, 1.99 -224.94 M0.18 0.7 C0.08 -36.8, 0.93 -186.32, 1.03 -223.89" stroke="#000000" stroke-width="1" fill="none"></path></g><g transform="translate(798.84375 767.15625) rotate(0 1 -112)"><path d="M13.07 -195.68 C5.53 -207.07, 4.92 -218.86, 2.4 -222.36 M10.86 -195.58 C7.64 -204.38, 5.43 -213.96, 1.47 -224.28" stroke="#000000" stroke-width="1" fill="none"></path></g><g transform="translate(798.84375 767.15625) rotate(0 1 -112)"><path d="M-7.45 -195.77 C-6.98 -207.3, 0.41 -219.06, 2.4 -222.36 M-9.66 -195.67 C-6.32 -204.38, -1.96 -213.94, 1.47 -224.28" stroke="#000000" stroke-width="1" fill="none"></path></g></g><g stroke-linecap="round"><g transform="translate(797.84375 763.15625) rotate(0 158 -0.5)"><path d="M1.14 -0.01 C53.57 -0.41, 262.41 -1, 315.06 -1.29 M0.28 -1.07 C53.03 -0.77, 264.52 0.05, 317.28 0.09" stroke="#000000" stroke-width="1" fill="none"></path></g><g transform="translate(797.84375 763.15625) rotate(0 158 -0.5)"><path d="M289.04 8.72 C298.19 8.29, 307.11 4.38, 318.82 0.49 M289.14 9.95 C297.5 8.17, 305.01 4.99, 316.9 0.49" stroke="#000000" stroke-width="1" fill="none"></path></g><g transform="translate(797.84375 763.15625) rotate(0 158 -0.5)"><path d="M289.1 -11.8 C298.41 -5.17, 307.31 -2.04, 318.82 0.49 M289.19 -10.57 C297.48 -6.5, 304.97 -3.81, 316.9 0.49" stroke="#000000" stroke-width="1" fill="none"></path></g></g><g transform="translate(736.84375 514.15625) rotate(0 5 12.5)"><text x="0" y="18" font-family="Virgil, Segoe UI Emoji" font-size="20px" fill="#000000" text-anchor="start" style="white-space: pre;" direction="ltr">y</text></g><g transform="translate(1146.84375 786.15625) rotate(0 6 12.5)"><text x="0" y="18" font-family="Virgil, Segoe UI Emoji" font-size="20px" fill="#000000" text-anchor="start" style="white-space: pre;" direction="ltr">x</text></g><g transform="translate(873.84375 684.15625) rotate(0 0.00004999999998744897 0.00005000000000165983)" stroke="none"><path fill="#1864ab" d="M 1.57,-1.57 Q 1.57,-1.57 1.77,-1.27 1.98,-0.98 2.09,-0.64 2.20,-0.29 2.19,0.05 2.18,0.41 2.05,0.75 1.93,1.09 1.70,1.37 1.48,1.65 1.18,1.84 0.87,2.04 0.52,2.12 0.18,2.21 -0.17,2.18 -0.53,2.15 -0.86,2.01 -1.19,1.87 -1.46,1.63 -1.73,1.39 -1.90,1.07 -2.08,0.76 -2.15,0.41 -2.21,0.05 -2.17,-0.29 -2.12,-0.65 -1.96,-0.97 -1.80,-1.29 -1.54,-1.54 -1.29,-1.80 -0.97,-1.96 -0.65,-2.12 -0.29,-2.17 0.06,-2.21 0.41,-2.15 0.76,-2.08 1.07,-1.90 1.39,-1.73 1.63,-1.46 1.87,-1.19 2.01,-0.86 2.15,-0.53 2.18,-0.17 2.21,0.18 2.12,0.52 2.03,0.87 1.84,1.18 1.65,1.48 1.37,1.70 1.09,1.93 0.75,2.05 0.41,2.18 0.05,2.19 -0.30,2.20 -0.64,2.09 -0.98,1.98 -1.27,1.77 -1.57,1.56 -1.57,1.57 -1.57,1.57 -1.73,1.35 -1.90,1.14 -2.01,0.90 -2.12,0.66 -2.16,0.39 -2.21,0.13 -2.20,-0.13 -2.18,-0.40 -2.10,-0.65 -2.02,-0.91 -1.88,-1.14 -1.74,-1.36 -1.55,-1.55 -1.36,-1.74 -1.14,-1.88 -0.91,-2.02 -0.65,-2.10 -0.40,-2.18 -0.13,-2.20 0.13,-2.21 0.39,-2.16 0.66,-2.12 0.90,-2.01 1.14,-1.90 1.35,-1.73 1.57,-1.57 1.57,-1.57 L 1.57,-1.57 Z"></path></g><g transform="translate(1019.84375 593.15625) rotate(0 0.00004999999998744897 0.00005000000000165983)" stroke="none"><path fill="#1864ab" d="M 1.57,-1.57 Q 1.57,-1.57 1.77,-1.27 1.98,-0.98 2.09,-0.64 2.20,-0.29 2.19,0.05 2.18,0.41 2.05,0.75 1.93,1.09 1.70,1.37 1.48,1.65 1.18,1.84 0.87,2.04 0.52,2.12 0.18,2.21 -0.17,2.18 -0.53,2.15 -0.86,2.01 -1.19,1.87 -1.46,1.63 -1.73,1.39 -1.90,1.07 -2.08,0.76 -2.15,0.41 -2.21,0.05 -2.17,-0.29 -2.12,-0.65 -1.96,-0.97 -1.80,-1.29 -1.54,-1.54 -1.29,-1.80 -0.97,-1.96 -0.65,-2.12 -0.29,-2.17 0.06,-2.21 0.41,-2.15 0.76,-2.08 1.07,-1.90 1.39,-1.73 1.63,-1.46 1.87,-1.19 2.01,-0.86 2.15,-0.53 2.18,-0.17 2.21,0.18 2.12,0.52 2.03,0.87 1.84,1.18 1.65,1.48 1.37,1.70 1.09,1.93 0.75,2.05 0.41,2.18 0.05,2.19 -0.30,2.20 -0.64,2.09 -0.98,1.98 -1.27,1.77 -1.57,1.56 -1.57,1.57 -1.57,1.57 -1.73,1.35 -1.90,1.14 -2.01,0.90 -2.12,0.66 -2.16,0.39 -2.21,0.13 -2.20,-0.13 -2.18,-0.40 -2.10,-0.65 -2.02,-0.91 -1.88,-1.14 -1.74,-1.36 -1.55,-1.55 -1.36,-1.74 -1.14,-1.88 -0.91,-2.02 -0.65,-2.10 -0.40,-2.18 -0.13,-2.20 0.13,-2.21 0.39,-2.16 0.66,-2.12 0.90,-2.01 1.14,-1.90 1.35,-1.73 1.57,-1.57 1.57,-1.57 L 1.57,-1.57 Z"></path></g><g transform="translate(941.84375 642.15625) rotate(0 0.00004999999998744897 0.00005000000000165983)" stroke="none"><path fill="#d9480f" d="M 1.57,-1.57 Q 1.57,-1.57 1.77,-1.27 1.98,-0.98 2.09,-0.64 2.20,-0.29 2.19,0.05 2.18,0.41 2.05,0.75 1.93,1.09 1.70,1.37 1.48,1.65 1.18,1.84 0.87,2.04 0.52,2.12 0.18,2.21 -0.17,2.18 -0.53,2.15 -0.86,2.01 -1.19,1.87 -1.46,1.63 -1.73,1.39 -1.90,1.07 -2.08,0.76 -2.15,0.41 -2.21,0.05 -2.17,-0.29 -2.12,-0.65 -1.96,-0.97 -1.80,-1.29 -1.54,-1.54 -1.29,-1.80 -0.97,-1.96 -0.65,-2.12 -0.29,-2.17 0.06,-2.21 0.41,-2.15 0.76,-2.08 1.07,-1.90 1.39,-1.73 1.63,-1.46 1.87,-1.19 2.01,-0.86 2.15,-0.53 2.18,-0.17 2.21,0.18 2.12,0.52 2.03,0.87 1.84,1.18 1.65,1.48 1.37,1.70 1.09,1.93 0.75,2.05 0.41,2.18 0.05,2.19 -0.30,2.20 -0.64,2.09 -0.98,1.98 -1.27,1.77 -1.57,1.56 -1.57,1.57 -1.57,1.57 -1.73,1.35 -1.90,1.14 -2.01,0.90 -2.12,0.66 -2.16,0.39 -2.21,0.13 -2.20,-0.13 -2.18,-0.40 -2.10,-0.65 -2.02,-0.91 -1.88,-1.14 -1.74,-1.36 -1.55,-1.55 -1.36,-1.74 -1.14,-1.88 -0.91,-2.02 -0.65,-2.10 -0.40,-2.18 -0.13,-2.20 0.13,-2.21 0.39,-2.16 0.66,-2.12 0.90,-2.01 1.14,-1.90 1.35,-1.73 1.57,-1.57 1.57,-1.57 L 1.57,-1.57 Z"></path></g><g stroke-linecap="round"><g transform="translate(951.84375 635.15625) rotate(0 28 -17.5)"><path d="M0.82 0.92 C10.02 -4.82, 47.1 -29.12, 56.24 -35.17 M-0.2 0.36 C8.76 -5.12, 46.26 -27.96, 55.42 -33.73" stroke="#d9480f" stroke-width="1" fill="none"></path></g><g transform="translate(951.84375 635.15625) rotate(0 28 -17.5)"><path d="M38.36 -9.78 C43.92 -20.01, 50.83 -28.49, 54.76 -33.04 M36.44 -9.79 C44.52 -19.8, 50.38 -27.99, 55.83 -33.35" stroke="#d9480f" stroke-width="1" fill="none"></path></g><g transform="translate(951.84375 635.15625) rotate(0 28 -17.5)"><path d="M27.58 -27.24 C37.23 -30.75, 48.33 -32.43, 54.76 -33.04 M25.66 -27.25 C37.7 -30.83, 47.56 -32.55, 55.83 -33.35" stroke="#d9480f" stroke-width="1" fill="none"></path></g></g><g stroke-linecap="round"><g transform="translate(930.84375 649.15625) rotate(0 -23.5 14)"><path d="M0.92 0.24 C-6.82 4.72, -39.12 23.04, -47.17 27.68 M-0.06 -0.68 C-7.9 3.9, -40.17 24.02, -48.21 29.04" stroke="#d9480f" stroke-width="1" fill="none"></path></g><g transform="translate(930.84375 649.15625) rotate(0 -23.5 14)"><path d="M-30.94 7.22 C-35.73 12.12, -39.04 17.18, -47.52 30.46 M-30.95 8.26 C-36.77 13.18, -40.94 19.89, -47.84 28.96" stroke="#d9480f" stroke-width="1" fill="none"></path></g><g transform="translate(930.84375 649.15625) rotate(0 -23.5 14)"><path d="M-21.05 23.1 C-28.29 24.32, -33.94 25.61, -47.52 30.46 M-21.06 24.14 C-29.71 24.58, -36.65 26.86, -47.84 28.96" stroke="#d9480f" stroke-width="1" fill="none"></path></g></g><g transform="translate(1033.84375 563.15625) rotate(0 27.5 12.5)"><text x="0" y="18" font-family="Virgil, Segoe UI Emoji" font-size="20px" fill="#000000" text-anchor="start" style="white-space: pre;" direction="ltr">x2,y2</text></g><g transform="translate(854.84375 703.15625) rotate(0 19 12.5)"><text x="0" y="18" font-family="Virgil, Segoe UI Emoji" font-size="20px" fill="#000000" text-anchor="start" style="white-space: pre;" direction="ltr">x1,y1</text></g><g transform="translate(962.84375 646.15625) rotate(0 27 12.5)"><text x="0" y="18" font-family="Virgil, Segoe UI Emoji" font-size="20px" fill="#000000" text-anchor="start" style="white-space: pre;" direction="ltr">x0,y0</text></g></svg>