<svg version="1.1" xmlns="http://www.w3.org/2000/svg" viewBox="0 0 10020 902.484375" width="10020" height="902.484375">
  <!-- svg-source:excalidraw -->
  
  <defs>
    <style>
      @font-face {
        font-family: "Virgil";
        src: url("https://excalidraw.com/Virgil.woff2");
      }
      @font-face {
        font-family: "Cascadia";
        src: url("https://excalidraw.com/Cascadia.woff2");
      }
    </style>
  </defs>
  <rect x="0" y="0" width="10020" height="902.484375" fill="#fff0"></rect><g stroke-linecap="round" transform="translate(10 10) rotate(0 5000 0.5)"><path d="M-0.52 -0.26 C3022.65 -30.2, 6044.59 -29.2, 9999.32 0.22 M0.38 -0.31 C3948.03 -0.44, 7895.41 0.2, 9999.95 0.08 M10000.08 -0.06 C10000.09 0.27, 10000.05 0.48, 10000.09 0.92 M9999.97 0.01 C9999.95 0.33, 9999.98 0.72, 10000 0.99 M10000.22 1.51 C7095.77 35.76, 4193.15 34.95, -0.25 0.75 M10000.01 1.13 C7827.97 2.74, 5656.23 3.35, -0.33 0.84 M-0.04 1.01 C0 0.63, -0.06 0.15, 0.05 -0.03 M-0.04 0.95 C-0.04 0.73, -0.03 0.59, -0.05 -0.02" stroke="transparent" stroke-width="1" fill="none"></path></g><g stroke-linecap="round"><g transform="translate(582 534.484375) rotate(0 0 31)"><path d="M-0.44 0.61 C-0.53 10.64, 0.32 50.8, 0.26 61.15 M1.53 -0.12 C1.23 9.96, -0.58 52.1, -0.55 62.25" stroke="#000" stroke-width="1" fill="none"></path></g></g><g stroke-linecap="round"><g transform="translate(585 565.484375) rotate(0 82.5 0)"><path d="M-0.69 0.38 C26.79 0.09, 136.43 -0.9, 164.16 -1.12 M1.15 -0.47 C29.07 -0.7, 139.07 -0.22, 166.43 -0.18" stroke="#000" stroke-width="1" fill="none"></path></g></g><g transform="translate(830 534.484375) rotate(0 37.5 25)"><text x="0" y="18" font-family="Virgil, Segoe UI Emoji" font-size="20px" fill="#000" text-anchor="start" style="white-space: pre;" direction="ltr">Inastro</text><text x="0" y="43" font-family="Virgil, Segoe UI Emoji" font-size="20px" fill="#000" text-anchor="start" style="white-space: pre;" direction="ltr">0 GDL</text></g><g transform="translate(945 523.484375) rotate(0 35.5 37.5)"><text x="0" y="18" font-family="Virgil, Segoe UI Emoji" font-size="20px" fill="#000" text-anchor="start" style="white-space: pre;" direction="ltr">Xa = 0</text><text x="0" y="43" font-family="Virgil, Segoe UI Emoji" font-size="20px" fill="#000" text-anchor="start" style="white-space: pre;" direction="ltr">Ya = 0</text><text x="0" y="68" font-family="Virgil, Segoe UI Emoji" font-size="20px" fill="#000" text-anchor="start" style="white-space: pre;" direction="ltr">b = 0</text></g><g transform="translate(559 553.484375) rotate(0 6.5 -5)" stroke="none"><path fill="#1864ab" d="M -1.86,-1.86 Q -1.86,-1.86 -1.01,-2.73 -0.15,-3.60 1.01,-4.88 2.19,-6.15 3.22,-6.87 4.24,-7.60 5.66,-8.90 7.07,-10.21 8.00,-10.74 8.93,-11.27 10.32,-11.98 11.72,-12.68 12.19,-12.78 12.66,-12.87 13.14,-12.81 13.61,-12.74 14.04,-12.53 14.47,-12.32 14.82,-11.98 15.16,-11.64 15.37,-11.22 15.59,-10.79 15.65,-10.31 15.72,-9.84 15.63,-9.36 15.54,-8.89 15.31,-8.47 15.07,-8.06 14.72,-7.73 14.36,-7.41 13.92,-7.22 13.48,-7.03 13.00,-6.99 12.52,-6.95 12.06,-7.06 11.59,-7.18 11.19,-7.43 10.78,-7.69 10.48,-8.06 10.18,-8.44 10.01,-8.89 9.84,-9.34 9.83,-9.82 9.81,-10.29 9.95,-10.75 10.09,-11.21 10.37,-11.60 10.65,-11.99 11.04,-12.28 11.43,-12.56 11.88,-12.70 12.34,-12.84 12.82,-12.83 13.30,-12.82 13.75,-12.66 14.20,-12.49 14.58,-12.19 14.95,-11.89 15.21,-11.49 15.47,-11.09 15.59,-10.62 15.71,-10.16 15.67,-9.68 15.63,-9.20 15.45,-8.76 15.26,-8.32 14.94,-7.96 14.62,-7.60 14.20,-7.36 13.79,-7.13 13.79,-7.13 13.79,-7.13 12.57,-6.53 11.36,-5.93 10.43,-5.30 9.49,-4.67 7.81,-3.42 6.13,-2.17 4.87,-1.00 3.60,0.15 2.73,1.01 1.86,1.86 1.61,2.06 1.36,2.26 1.07,2.39 0.78,2.52 0.47,2.57 0.15,2.63 -0.15,2.61 -0.47,2.59 -0.78,2.50 -1.08,2.40 -1.35,2.24 -1.62,2.07 -1.85,1.85 -2.07,1.62 -2.24,1.35 -2.40,1.08 -2.50,0.78 -2.59,0.47 -2.61,0.15 -2.63,-0.15 -2.57,-0.47 -2.52,-0.78 -2.39,-1.07 -2.26,-1.36 -2.06,-1.61 -1.86,-1.86 -1.86,-1.86 L -1.86,-1.86 Z"></path></g><g transform="translate(561 558.484375) rotate(0 5.5 -4.5)" stroke="none"><path fill="#1864ab" d="M -1.45,-1.94 Q -1.45,-1.94 -0.31,-2.81 0.83,-3.67 2.55,-4.80 4.26,-5.93 5.36,-6.60 6.47,-7.26 7.42,-8.21 8.37,-9.16 8.57,-9.51 8.77,-9.87 9.07,-10.14 9.38,-10.41 9.75,-10.57 10.13,-10.74 10.53,-10.77 10.94,-10.80 11.34,-10.70 11.73,-10.60 12.08,-10.38 12.42,-10.16 12.68,-9.84 12.93,-9.53 13.07,-9.14 13.21,-8.76 13.22,-8.35 13.23,-7.94 13.11,-7.55 12.99,-7.16 12.75,-6.83 12.52,-6.50 12.18,-6.26 11.85,-6.03 11.46,-5.91 11.07,-5.79 10.66,-5.80 10.26,-5.81 9.87,-5.95 9.49,-6.09 9.17,-6.35 8.86,-6.61 8.64,-6.95 8.42,-7.29 8.32,-7.69 8.22,-8.09 8.25,-8.49 8.29,-8.90 8.45,-9.27 8.61,-9.65 8.88,-9.95 9.16,-10.25 9.51,-10.46 9.87,-10.66 10.27,-10.73 10.67,-10.81 11.07,-10.75 11.48,-10.70 11.84,-10.52 12.21,-10.33 12.50,-10.04 12.78,-9.76 12.97,-9.39 13.15,-9.02 13.20,-8.62 13.26,-8.22 13.18,-7.82 13.10,-7.41 13.10,-7.42 13.10,-7.42 11.49,-5.46 9.89,-3.50 8.38,-2.96 6.88,-2.42 5.32,-1.10 3.76,0.22 2.61,1.08 1.45,1.94 1.20,2.09 0.95,2.23 0.66,2.31 0.38,2.40 0.09,2.41 -0.19,2.42 -0.48,2.36 -0.77,2.30 -1.03,2.18 -1.30,2.05 -1.52,1.86 -1.75,1.68 -1.93,1.44 -2.10,1.21 -2.22,0.94 -2.33,0.67 -2.38,0.38 -2.43,0.09 -2.40,-0.19 -2.38,-0.48 -2.28,-0.76 -2.19,-1.04 -2.03,-1.29 -1.88,-1.54 -1.67,-1.74 -1.45,-1.94 -1.45,-1.94 L -1.45,-1.94 Z"></path></g><g transform="translate(559 573.484375) rotate(0 5.5 -6)" stroke="none"><path fill="#1864ab" d="M -1.78,-1.78 Q -1.78,-1.78 -0.60,-2.90 0.56,-4.02 1.21,-4.96 1.86,-5.90 2.95,-6.89 4.05,-7.87 4.94,-8.72 5.83,-9.56 7.12,-11.18 8.40,-12.80 8.65,-13.16 8.89,-13.52 9.24,-13.78 9.59,-14.04 10.00,-14.18 10.42,-14.32 10.85,-14.32 11.29,-14.32 11.70,-14.17 12.11,-14.03 12.45,-13.77 12.80,-13.50 13.04,-13.14 13.29,-12.78 13.40,-12.36 13.52,-11.94 13.49,-11.51 13.46,-11.07 13.30,-10.67 13.14,-10.27 12.86,-9.93 12.57,-9.60 12.20,-9.38 11.82,-9.16 11.40,-9.07 10.97,-8.98 10.54,-9.02 10.11,-9.07 9.71,-9.26 9.32,-9.44 9.01,-9.74 8.69,-10.04 8.49,-10.43 8.29,-10.81 8.22,-11.24 8.15,-11.67 8.22,-12.10 8.29,-12.53 8.50,-12.92 8.70,-13.30 9.02,-13.60 9.34,-13.90 9.73,-14.08 10.13,-14.26 10.56,-14.30 11.00,-14.35 11.42,-14.25 11.85,-14.16 12.22,-13.93 12.59,-13.70 12.87,-13.37 13.15,-13.04 13.31,-12.63 13.47,-12.23 13.49,-11.79 13.51,-11.36 13.39,-10.94 13.28,-10.52 13.28,-10.52 13.28,-10.52 11.30,-8.16 9.32,-5.80 7.58,-4.37 5.84,-2.94 4.94,-1.75 4.03,-0.57 2.90,0.60 1.78,1.78 1.54,1.97 1.30,2.15 1.02,2.28 0.75,2.40 0.45,2.46 0.15,2.51 -0.15,2.49 -0.45,2.48 -0.74,2.39 -1.03,2.29 -1.29,2.14 -1.55,1.98 -1.77,1.77 -1.98,1.55 -2.14,1.29 -2.30,1.03 -2.39,0.74 -2.48,0.45 -2.49,0.15 -2.51,-0.15 -2.46,-0.45 -2.40,-0.75 -2.28,-1.02 -2.15,-1.30 -1.97,-1.54 -1.78,-1.78 -1.78,-1.78 L -1.78,-1.78 Z"></path></g><g transform="translate(565 594.484375) rotate(0 7.5 -7.5)" stroke="none"><path fill="#1864ab" d="M -1.88,-1.13 Q -1.88,-1.13 -1.01,-2.56 -0.14,-3.99 1.23,-5.57 2.60,-7.14 4.12,-8.44 5.64,-9.73 7.81,-11.10 9.97,-12.47 11.44,-13.92 12.91,-15.38 13.12,-15.62 13.34,-15.86 13.61,-16.02 13.89,-16.18 14.20,-16.24 14.51,-16.30 14.83,-16.26 15.14,-16.23 15.43,-16.09 15.72,-15.95 15.94,-15.73 16.17,-15.50 16.32,-15.22 16.46,-14.94 16.51,-14.62 16.55,-14.30 16.50,-13.99 16.44,-13.68 16.29,-13.40 16.13,-13.12 15.90,-12.91 15.66,-12.69 15.37,-12.56 15.08,-12.43 14.76,-12.40 14.45,-12.37 14.14,-12.45 13.83,-12.52 13.56,-12.69 13.29,-12.86 13.08,-13.10 12.88,-13.35 12.77,-13.65 12.66,-13.95 12.64,-14.26 12.63,-14.58 12.72,-14.89 12.81,-15.19 13.00,-15.45 13.18,-15.71 13.43,-15.90 13.69,-16.09 14.00,-16.19 14.30,-16.28 14.62,-16.28 14.94,-16.27 15.24,-16.17 15.54,-16.06 15.79,-15.86 16.04,-15.67 16.21,-15.40 16.38,-15.13 16.46,-14.83 16.54,-14.52 16.52,-14.20 16.50,-13.88 16.38,-13.59 16.25,-13.29 16.25,-13.29 16.25,-13.29 14.14,-11.38 12.03,-9.46 10.14,-8.09 8.26,-6.71 7.01,-5.60 5.75,-4.50 4.67,-3.12 3.59,-1.75 2.73,-0.30 1.88,1.13 1.72,1.34 1.56,1.55 1.35,1.71 1.14,1.88 0.90,1.99 0.66,2.10 0.40,2.14 0.14,2.19 -0.12,2.18 -0.39,2.16 -0.64,2.09 -0.89,2.01 -1.12,1.87 -1.35,1.73 -1.54,1.55 -1.72,1.36 -1.86,1.13 -2.00,0.91 -2.08,0.65 -2.16,0.40 -2.18,0.13 -2.19,-0.12 -2.15,-0.38 -2.10,-0.64 -1.99,-0.89 -1.88,-1.13 -1.88,-1.13 L -1.88,-1.13 Z"></path></g><g transform="translate(562 585.484375) rotate(0 4.5 -7)" stroke="none"><path fill="#1864ab" d="M -2.58,-0.51 Q -2.58,-0.51 -2.27,-1.95 -1.96,-3.38 -1.49,-4.78 -1.02,-6.18 -0.04,-7.41 0.93,-8.63 1.87,-9.78 2.80,-10.92 3.42,-11.97 4.03,-13.02 5.29,-14.38 6.55,-15.74 6.93,-16.02 7.32,-16.31 7.78,-16.46 8.23,-16.61 8.71,-16.60 9.19,-16.60 9.65,-16.44 10.10,-16.28 10.48,-15.99 10.86,-15.69 11.13,-15.29 11.39,-14.89 11.52,-14.43 11.64,-13.96 11.61,-13.48 11.58,-13.00 11.39,-12.56 11.21,-12.11 10.90,-11.75 10.58,-11.39 10.17,-11.14 9.75,-10.90 9.28,-10.80 8.81,-10.70 8.33,-10.76 7.86,-10.82 7.42,-11.02 6.99,-11.23 6.64,-11.56 6.30,-11.90 6.08,-12.33 5.86,-12.75 5.78,-13.23 5.71,-13.70 5.79,-14.18 5.88,-14.65 6.11,-15.07 6.34,-15.49 6.69,-15.82 7.04,-16.15 7.48,-16.35 7.92,-16.54 8.40,-16.59 8.87,-16.64 9.34,-16.53 9.81,-16.42 10.22,-16.17 10.63,-15.92 10.94,-15.55 11.24,-15.18 11.42,-14.73 11.59,-14.28 11.61,-13.80 11.63,-13.32 11.50,-12.86 11.37,-12.40 11.09,-12.00 10.82,-11.61 10.82,-11.61 10.82,-11.61 9.25,-9.98 7.68,-8.36 6.26,-6.69 4.84,-5.02 3.98,-3.69 3.11,-2.36 2.85,-0.92 2.58,0.51 2.48,0.81 2.38,1.11 2.21,1.38 2.04,1.65 1.81,1.87 1.59,2.09 1.31,2.25 1.04,2.41 0.73,2.50 0.43,2.59 0.11,2.61 -0.20,2.62 -0.51,2.56 -0.82,2.50 -1.11,2.36 -1.39,2.23 -1.64,2.03 -1.89,1.83 -2.08,1.57 -2.27,1.32 -2.40,1.03 -2.52,0.74 -2.57,0.42 -2.63,0.11 -2.60,-0.20 -2.58,-0.51 -2.58,-0.51 L -2.58,-0.51 Z"></path></g><g stroke-linecap="round"><g transform="translate(581.5 693.984375) rotate(0 89.06254239901901 -23.71296922879759)"><path d="M0.43 0.04 C30.21 -7.84, 149.48 -40.31, 179.25 -48.06 M-0.8 -0.98 C28.86 -8.65, 148.96 -38.97, 178.89 -46.85" stroke="#000" stroke-width="1" fill="none"></path></g></g><g transform="translate(829.5 645.984375) rotate(0 39.5 25)"><text x="0" y="18" font-family="Virgil, Segoe UI Emoji" font-size="20px" fill="#000" text-anchor="start" style="white-space: pre;" direction="ltr">Cerniera</text><text x="0" y="43" font-family="Virgil, Segoe UI Emoji" font-size="20px" fill="#000" text-anchor="start" style="white-space: pre;" direction="ltr">1 GDL</text></g><g transform="translate(945.5 648.984375) rotate(0 35.5 37.5)"><text x="0" y="18" font-family="Virgil, Segoe UI Emoji" font-size="20px" fill="#000" text-anchor="start" style="white-space: pre;" direction="ltr">Xa = 0</text><text x="0" y="43" font-family="Virgil, Segoe UI Emoji" font-size="20px" fill="#000" text-anchor="start" style="white-space: pre;" direction="ltr">Ya = 0</text><text x="0" y="68" font-family="Virgil, Segoe UI Emoji" font-size="20px" fill="#000" text-anchor="start" style="white-space: pre;" direction="ltr"></text></g><g transform="translate(564.5 705.984375) rotate(0 7.5 -7.5)" stroke="none"><path fill="#1864ab" d="M -1.88,-1.13 Q -1.88,-1.13 -1.01,-2.56 -0.14,-3.99 1.23,-5.57 2.60,-7.14 4.12,-8.44 5.64,-9.73 7.81,-11.10 9.97,-12.47 11.44,-13.92 12.91,-15.38 13.12,-15.62 13.34,-15.86 13.61,-16.02 13.89,-16.18 14.20,-16.24 14.51,-16.30 14.83,-16.26 15.14,-16.23 15.43,-16.09 15.72,-15.95 15.94,-15.73 16.17,-15.50 16.32,-15.22 16.46,-14.94 16.51,-14.62 16.55,-14.30 16.50,-13.99 16.44,-13.68 16.29,-13.40 16.13,-13.12 15.90,-12.91 15.66,-12.69 15.37,-12.56 15.08,-12.43 14.76,-12.40 14.45,-12.37 14.14,-12.45 13.83,-12.52 13.56,-12.69 13.29,-12.86 13.08,-13.10 12.88,-13.35 12.77,-13.65 12.66,-13.95 12.64,-14.26 12.63,-14.58 12.72,-14.89 12.81,-15.19 13.00,-15.45 13.18,-15.71 13.43,-15.90 13.69,-16.09 14.00,-16.19 14.30,-16.28 14.62,-16.28 14.94,-16.27 15.24,-16.17 15.54,-16.06 15.79,-15.86 16.04,-15.67 16.21,-15.40 16.38,-15.13 16.46,-14.83 16.54,-14.52 16.52,-14.20 16.50,-13.88 16.38,-13.59 16.25,-13.29 16.25,-13.29 16.25,-13.29 14.14,-11.38 12.03,-9.46 10.14,-8.09 8.26,-6.71 7.01,-5.60 5.75,-4.50 4.67,-3.12 3.59,-1.75 2.73,-0.30 1.88,1.13 1.72,1.34 1.56,1.55 1.35,1.71 1.14,1.88 0.90,1.99 0.66,2.10 0.40,2.14 0.14,2.19 -0.12,2.18 -0.39,2.16 -0.64,2.09 -0.89,2.01 -1.12,1.87 -1.35,1.73 -1.54,1.55 -1.72,1.36 -1.86,1.13 -2.00,0.91 -2.08,0.65 -2.16,0.40 -2.18,0.13 -2.19,-0.12 -2.15,-0.38 -2.10,-0.64 -1.99,-0.89 -1.88,-1.13 -1.88,-1.13 L -1.88,-1.13 Z"></path></g><g transform="translate(582 688.484375) rotate(0 2.5 4.5)" stroke="none"><path fill="#000000" d="M 2.22,1.48 Q 2.22,1.48 1.66,2.35 1.11,3.23 0.55,4.22 -0.01,5.21 1.00,6.03 2.02,6.85 3.21,6.81 4.39,6.77 3.53,6.12 2.67,5.47 1.41,4.47 0.14,3.48 -0.96,2.52 -2.07,1.56 -0.47,1.56 1.11,1.55 1.76,2.92 2.40,4.29 3.00,5.49 3.59,6.69 1.51,6.53 -0.55,6.37 -1.07,5.03 -1.58,3.69 -1.74,3.21 -1.91,2.73 -1.90,2.23 -1.90,1.72 -1.74,1.24 -1.58,0.76 -1.27,0.36 -0.96,-0.04 -0.54,-0.32 -0.12,-0.60 0.35,-0.74 0.84,-0.87 1.35,-0.84 1.85,-0.82 2.32,-0.63 2.79,-0.44 3.18,-0.11 3.57,0.21 3.83,0.64 4.09,1.08 4.19,1.57 4.30,2.07 4.25,2.57 4.19,3.07 3.98,3.53 3.76,3.99 3.41,4.36 3.07,4.73 2.62,4.96 2.17,5.20 1.67,5.28 1.17,5.36 0.67,5.28 0.17,5.20 -0.27,4.96 -0.71,4.72 -1.06,4.35 -1.41,3.98 -1.62,3.52 -1.83,3.06 -1.89,2.56 -1.94,2.06 -1.83,1.56 -1.72,1.07 -1.46,0.63 -1.20,0.20 -0.81,-0.12 -0.42,-0.45 0.04,-0.63 0.51,-0.82 1.01,-0.84 1.52,-0.87 2.01,-0.73 2.50,-0.60 2.91,-0.31 3.33,-0.03 3.64,0.37 3.94,0.77 3.94,0.77 3.94,0.77 4.99,3.08 6.04,5.39 5.76,6.96 5.48,8.53 4.47,9.72 3.46,10.91 0.52,9.94 -2.41,8.96 -3.44,7.22 -4.47,5.48 -4.87,4.20 -5.28,2.91 -5.03,1.02 -4.79,-0.86 -3.35,-1.94 -1.92,-3.02 0.31,-2.61 2.55,-2.21 4.15,-1.09 5.74,0.02 6.69,0.77 7.64,1.53 8.65,2.83 9.67,4.13 10.20,6.08 10.74,8.02 10.09,9.49 9.44,10.97 7.81,11.83 6.17,12.70 5.06,12.90 3.95,13.11 2.48,12.90 1.00,12.69 -0.90,11.70 -2.81,10.72 -3.89,9.75 -4.97,8.78 -5.41,7.52 -5.84,6.26 -5.58,4.69 -5.32,3.11 -4.36,1.66 -3.41,0.21 -2.81,-0.63 -2.22,-1.48 -2.01,-1.72 -1.80,-1.97 -1.54,-2.15 -1.27,-2.34 -0.97,-2.46 -0.68,-2.58 -0.36,-2.62 -0.04,-2.67 0.27,-2.63 0.59,-2.60 0.90,-2.49 1.20,-2.38 1.47,-2.20 1.73,-2.02 1.95,-1.78 2.17,-1.55 2.32,-1.26 2.48,-0.98 2.56,-0.67 2.64,-0.36 2.65,-0.04 2.65,0.27 2.58,0.59 2.51,0.90 2.36,1.19 2.22,1.48 2.22,1.48 L 2.22,1.48 Z"></path></g><g stroke-linecap="round"><g transform="translate(1057.4802704133094 733.517495854944) rotate(0 40.01972958669069 -75.03312085494399)"><path d="M-0.95 -0.86 C12.63 -25.72, 67.27 -125, 80.92 -150.04 M0.75 1.3 C14.3 -23.27, 67.12 -123.21, 80.44 -148.49" stroke="#000000" stroke-width="1" fill="none"></path></g></g><g transform="translate(1046.5 741.484375) rotate(0 7 12.5)"><text x="0" y="18" font-family="Virgil, Segoe UI Emoji" font-size="20px" fill="#d9480f" text-anchor="start" style="white-space: pre;" direction="ltr">A</text></g><g transform="translate(1144.5 554.484375) rotate(0 8 12.5)"><text x="0" y="18" font-family="Virgil, Segoe UI Emoji" font-size="20px" fill="#d9480f" text-anchor="start" style="white-space: pre;" direction="ltr">B</text></g><g stroke-linecap="round"><g transform="translate(1037.5 733.484375) rotate(0 28.5 -0.5)"><path d="M0.02 0.93 C9.49 0.63, 46.39 -0.67, 55.91 -0.91 M-1.42 0.37 C8.47 0.2, 48.41 1.18, 58.06 0.67" stroke="#d9480f" stroke-width="1" fill="none"></path></g></g><g stroke-linecap="round"><g transform="translate(1086.5 729.484375) rotate(0 -6 -15.5)"><path d="M0.93 -1.09 C0.46 -4.56, 0.17 -15.83, -1.91 -20.85 C-3.99 -25.87, -9.73 -29.35, -11.56 -31.22 M-0.04 0.96 C-0.74 -2.3, -0.81 -14.07, -2.82 -19.23 C-4.82 -24.39, -10.37 -27.96, -12.1 -30.02" stroke="#d9480f" stroke-width="1" fill="none"></path></g></g><g transform="translate(1110.5 697.484375) rotate(0 5.5 12.5)"><text x="0" y="18" font-family="Virgil, Segoe UI Emoji" font-size="20px" fill="#d9480f" text-anchor="start" style="white-space: pre;" direction="ltr">b</text></g><g stroke-linecap="round"><g transform="translate(553.5 737.484375) rotate(0 0 30.999999999999986)"><path d="M0.46 0.08 C0.17 10.52, -0.61 51.16, -0.79 61.41 M-0.76 -0.92 C-0.75 9.77, 1.66 52.03, 1.51 62.64" stroke="#000" stroke-width="1" fill="none"></path></g></g><g stroke-linecap="round"><g transform="translate(565.5 772.484375) rotate(0 84.90592672614846 -21.795140644968484)"><path d="M0.08 -0.79 C28.49 -8.23, 141 -36.87, 169.22 -44.19 M-1.33 1.41 C27.58 -5.92, 143.33 -35.4, 171.62 -42.97" stroke="#000" stroke-width="1" fill="none"></path></g></g><g transform="translate(530.5 756.484375) rotate(0 6.5 -5)" stroke="none"><path fill="#1864ab" d="M -1.86,-1.86 Q -1.86,-1.86 -1.01,-2.73 -0.15,-3.60 1.01,-4.88 2.19,-6.15 3.22,-6.87 4.24,-7.60 5.66,-8.90 7.07,-10.21 8.00,-10.74 8.93,-11.27 10.32,-11.98 11.72,-12.68 12.19,-12.78 12.66,-12.87 13.14,-12.81 13.61,-12.74 14.04,-12.53 14.47,-12.32 14.82,-11.98 15.16,-11.64 15.37,-11.22 15.59,-10.79 15.65,-10.31 15.72,-9.84 15.63,-9.36 15.54,-8.89 15.31,-8.47 15.07,-8.06 14.72,-7.73 14.36,-7.41 13.92,-7.22 13.48,-7.03 13.00,-6.99 12.52,-6.95 12.06,-7.06 11.59,-7.18 11.19,-7.43 10.78,-7.69 10.48,-8.06 10.18,-8.44 10.01,-8.89 9.84,-9.34 9.83,-9.82 9.81,-10.29 9.95,-10.75 10.09,-11.21 10.37,-11.60 10.65,-11.99 11.04,-12.28 11.43,-12.56 11.88,-12.70 12.34,-12.84 12.82,-12.83 13.30,-12.82 13.75,-12.66 14.20,-12.49 14.58,-12.19 14.95,-11.89 15.21,-11.49 15.47,-11.09 15.59,-10.62 15.71,-10.16 15.67,-9.68 15.63,-9.20 15.45,-8.76 15.26,-8.32 14.94,-7.96 14.62,-7.60 14.20,-7.36 13.79,-7.13 13.79,-7.13 13.79,-7.13 12.57,-6.53 11.36,-5.93 10.43,-5.30 9.49,-4.67 7.81,-3.42 6.13,-2.17 4.87,-1.00 3.60,0.15 2.73,1.01 1.86,1.86 1.61,2.06 1.36,2.26 1.07,2.39 0.78,2.52 0.47,2.57 0.15,2.63 -0.15,2.61 -0.47,2.59 -0.78,2.50 -1.08,2.40 -1.35,2.24 -1.62,2.07 -1.85,1.85 -2.07,1.62 -2.24,1.35 -2.40,1.08 -2.50,0.78 -2.59,0.47 -2.61,0.15 -2.63,-0.15 -2.57,-0.47 -2.52,-0.78 -2.39,-1.07 -2.26,-1.36 -2.06,-1.61 -1.86,-1.86 -1.86,-1.86 L -1.86,-1.86 Z"></path></g><g transform="translate(532.5 761.484375) rotate(0 5.5 -4.5)" stroke="none"><path fill="#1864ab" d="M -1.45,-1.94 Q -1.45,-1.94 -0.31,-2.81 0.83,-3.67 2.55,-4.80 4.26,-5.93 5.36,-6.60 6.47,-7.26 7.42,-8.21 8.37,-9.16 8.57,-9.51 8.77,-9.87 9.07,-10.14 9.38,-10.41 9.75,-10.57 10.13,-10.74 10.53,-10.77 10.94,-10.80 11.34,-10.70 11.73,-10.60 12.08,-10.38 12.42,-10.16 12.68,-9.84 12.93,-9.53 13.07,-9.14 13.21,-8.76 13.22,-8.35 13.23,-7.94 13.11,-7.55 12.99,-7.16 12.75,-6.83 12.52,-6.50 12.18,-6.26 11.85,-6.03 11.46,-5.91 11.07,-5.79 10.66,-5.80 10.26,-5.81 9.87,-5.95 9.49,-6.09 9.17,-6.35 8.86,-6.61 8.64,-6.95 8.42,-7.29 8.32,-7.69 8.22,-8.09 8.25,-8.49 8.29,-8.90 8.45,-9.27 8.61,-9.65 8.88,-9.95 9.16,-10.25 9.51,-10.46 9.87,-10.66 10.27,-10.73 10.67,-10.81 11.07,-10.75 11.48,-10.70 11.84,-10.52 12.21,-10.33 12.50,-10.04 12.78,-9.76 12.97,-9.39 13.15,-9.02 13.20,-8.62 13.26,-8.22 13.18,-7.82 13.10,-7.41 13.10,-7.42 13.10,-7.42 11.49,-5.46 9.89,-3.50 8.38,-2.96 6.88,-2.42 5.32,-1.10 3.76,0.22 2.61,1.08 1.45,1.94 1.20,2.09 0.95,2.23 0.66,2.31 0.38,2.40 0.09,2.41 -0.19,2.42 -0.48,2.36 -0.77,2.30 -1.03,2.18 -1.30,2.05 -1.52,1.86 -1.75,1.68 -1.93,1.44 -2.10,1.21 -2.22,0.94 -2.33,0.67 -2.38,0.38 -2.43,0.09 -2.40,-0.19 -2.38,-0.48 -2.28,-0.76 -2.19,-1.04 -2.03,-1.29 -1.88,-1.54 -1.67,-1.74 -1.45,-1.94 -1.45,-1.94 L -1.45,-1.94 Z"></path></g><g transform="translate(530.5 776.484375) rotate(0 5.5 -6)" stroke="none"><path fill="#1864ab" d="M -1.78,-1.78 Q -1.78,-1.78 -0.60,-2.90 0.56,-4.02 1.21,-4.96 1.86,-5.90 2.95,-6.89 4.05,-7.87 4.94,-8.72 5.83,-9.56 7.12,-11.18 8.40,-12.80 8.65,-13.16 8.89,-13.52 9.24,-13.78 9.59,-14.04 10.00,-14.18 10.42,-14.32 10.85,-14.32 11.29,-14.32 11.70,-14.17 12.11,-14.03 12.45,-13.77 12.80,-13.50 13.04,-13.14 13.29,-12.78 13.40,-12.36 13.52,-11.94 13.49,-11.51 13.46,-11.07 13.30,-10.67 13.14,-10.27 12.86,-9.93 12.57,-9.60 12.20,-9.38 11.82,-9.16 11.40,-9.07 10.97,-8.98 10.54,-9.02 10.11,-9.07 9.71,-9.26 9.32,-9.44 9.01,-9.74 8.69,-10.04 8.49,-10.43 8.29,-10.81 8.22,-11.24 8.15,-11.67 8.22,-12.10 8.29,-12.53 8.50,-12.92 8.70,-13.30 9.02,-13.60 9.34,-13.90 9.73,-14.08 10.13,-14.26 10.56,-14.30 11.00,-14.35 11.42,-14.25 11.85,-14.16 12.22,-13.93 12.59,-13.70 12.87,-13.37 13.15,-13.04 13.31,-12.63 13.47,-12.23 13.49,-11.79 13.51,-11.36 13.39,-10.94 13.28,-10.52 13.28,-10.52 13.28,-10.52 11.30,-8.16 9.32,-5.80 7.58,-4.37 5.84,-2.94 4.94,-1.75 4.03,-0.57 2.90,0.60 1.78,1.78 1.54,1.97 1.30,2.15 1.02,2.28 0.75,2.40 0.45,2.46 0.15,2.51 -0.15,2.49 -0.45,2.48 -0.74,2.39 -1.03,2.29 -1.29,2.14 -1.55,1.98 -1.77,1.77 -1.98,1.55 -2.14,1.29 -2.30,1.03 -2.39,0.74 -2.48,0.45 -2.49,0.15 -2.51,-0.15 -2.46,-0.45 -2.40,-0.75 -2.28,-1.02 -2.15,-1.30 -1.97,-1.54 -1.78,-1.78 -1.78,-1.78 L -1.78,-1.78 Z"></path></g><g transform="translate(536.5 797.484375) rotate(0 7.5 -7.5)" stroke="none"><path fill="#1864ab" d="M -1.88,-1.13 Q -1.88,-1.13 -1.01,-2.56 -0.14,-3.99 1.23,-5.57 2.60,-7.14 4.12,-8.44 5.64,-9.73 7.81,-11.10 9.97,-12.47 11.44,-13.92 12.91,-15.38 13.12,-15.62 13.34,-15.86 13.61,-16.02 13.89,-16.18 14.20,-16.24 14.51,-16.30 14.83,-16.26 15.14,-16.23 15.43,-16.09 15.72,-15.95 15.94,-15.73 16.17,-15.50 16.32,-15.22 16.46,-14.94 16.51,-14.62 16.55,-14.30 16.50,-13.99 16.44,-13.68 16.29,-13.40 16.13,-13.12 15.90,-12.91 15.66,-12.69 15.37,-12.56 15.08,-12.43 14.76,-12.40 14.45,-12.37 14.14,-12.45 13.83,-12.52 13.56,-12.69 13.29,-12.86 13.08,-13.10 12.88,-13.35 12.77,-13.65 12.66,-13.95 12.64,-14.26 12.63,-14.58 12.72,-14.89 12.81,-15.19 13.00,-15.45 13.18,-15.71 13.43,-15.90 13.69,-16.09 14.00,-16.19 14.30,-16.28 14.62,-16.28 14.94,-16.27 15.24,-16.17 15.54,-16.06 15.79,-15.86 16.04,-15.67 16.21,-15.40 16.38,-15.13 16.46,-14.83 16.54,-14.52 16.52,-14.20 16.50,-13.88 16.38,-13.59 16.25,-13.29 16.25,-13.29 16.25,-13.29 14.14,-11.38 12.03,-9.46 10.14,-8.09 8.26,-6.71 7.01,-5.60 5.75,-4.50 4.67,-3.12 3.59,-1.75 2.73,-0.30 1.88,1.13 1.72,1.34 1.56,1.55 1.35,1.71 1.14,1.88 0.90,1.99 0.66,2.10 0.40,2.14 0.14,2.19 -0.12,2.18 -0.39,2.16 -0.64,2.09 -0.89,2.01 -1.12,1.87 -1.35,1.73 -1.54,1.55 -1.72,1.36 -1.86,1.13 -2.00,0.91 -2.08,0.65 -2.16,0.40 -2.18,0.13 -2.19,-0.12 -2.15,-0.38 -2.10,-0.64 -1.99,-0.89 -1.88,-1.13 -1.88,-1.13 L -1.88,-1.13 Z"></path></g><g transform="translate(533.5 788.484375) rotate(0 4.5 -7)" stroke="none"><path fill="#1864ab" d="M -2.58,-0.51 Q -2.58,-0.51 -2.27,-1.95 -1.96,-3.38 -1.49,-4.78 -1.02,-6.18 -0.04,-7.41 0.93,-8.63 1.87,-9.78 2.80,-10.92 3.42,-11.97 4.03,-13.02 5.29,-14.38 6.55,-15.74 6.93,-16.02 7.32,-16.31 7.78,-16.46 8.23,-16.61 8.71,-16.60 9.19,-16.60 9.65,-16.44 10.10,-16.28 10.48,-15.99 10.86,-15.69 11.13,-15.29 11.39,-14.89 11.52,-14.43 11.64,-13.96 11.61,-13.48 11.58,-13.00 11.39,-12.56 11.21,-12.11 10.90,-11.75 10.58,-11.39 10.17,-11.14 9.75,-10.90 9.28,-10.80 8.81,-10.70 8.33,-10.76 7.86,-10.82 7.42,-11.02 6.99,-11.23 6.64,-11.56 6.30,-11.90 6.08,-12.33 5.86,-12.75 5.78,-13.23 5.71,-13.70 5.79,-14.18 5.88,-14.65 6.11,-15.07 6.34,-15.49 6.69,-15.82 7.04,-16.15 7.48,-16.35 7.92,-16.54 8.40,-16.59 8.87,-16.64 9.34,-16.53 9.81,-16.42 10.22,-16.17 10.63,-15.92 10.94,-15.55 11.24,-15.18 11.42,-14.73 11.59,-14.28 11.61,-13.80 11.63,-13.32 11.50,-12.86 11.37,-12.40 11.09,-12.00 10.82,-11.61 10.82,-11.61 10.82,-11.61 9.25,-9.98 7.68,-8.36 6.26,-6.69 4.84,-5.02 3.98,-3.69 3.11,-2.36 2.85,-0.92 2.58,0.51 2.48,0.81 2.38,1.11 2.21,1.38 2.04,1.65 1.81,1.87 1.59,2.09 1.31,2.25 1.04,2.41 0.73,2.50 0.43,2.59 0.11,2.61 -0.20,2.62 -0.51,2.56 -0.82,2.50 -1.11,2.36 -1.39,2.23 -1.64,2.03 -1.89,1.83 -2.08,1.57 -2.27,1.32 -2.40,1.03 -2.52,0.74 -2.57,0.42 -2.63,0.11 -2.60,-0.20 -2.58,-0.51 -2.58,-0.51 L -2.58,-0.51 Z"></path></g><g stroke-linecap="round"><g transform="translate(579 731.484375) rotate(0 -7 36.5)"><path d="M-0.98 0.02 C-3.1 1.68, -11.73 1.36, -13.83 10.93 C-15.93 20.51, -15.98 47.33, -13.58 57.48 C-11.18 67.63, -1.68 69.1, 0.57 71.84 M0.7 -1.01 C-0.93 0.24, -9.09 -0.1, -11.56 9.3 C-14.03 18.7, -16.24 44.88, -14.12 55.39 C-12.01 65.9, -0.97 69.71, 1.12 72.34" stroke="#000" stroke-width="1" fill="none"></path></g></g><g transform="translate(821 723.484375) rotate(0 37 25)"><text x="0" y="18" font-family="Virgil, Segoe UI Emoji" font-size="20px" fill="#000" text-anchor="start" style="white-space: pre;" direction="ltr">Pattino</text><text x="0" y="43" font-family="Virgil, Segoe UI Emoji" font-size="20px" fill="#000" text-anchor="start" style="white-space: pre;" direction="ltr">1 GDL</text></g><g transform="translate(944 729.484375) rotate(0 35.5 25)"><text x="0" y="18" font-family="Virgil, Segoe UI Emoji" font-size="20px" fill="#000" text-anchor="start" style="white-space: pre;" direction="ltr">Xa = 0</text><text x="0" y="43" font-family="Virgil, Segoe UI Emoji" font-size="20px" fill="#000" text-anchor="start" style="white-space: pre;" direction="ltr">b = 0</text></g><g stroke-linecap="round"><g transform="translate(544 872.484375) rotate(0 55.5 -0.5)"><path d="M0.91 0.75 C19.68 0.92, 93.52 0.09, 111.75 -0.18 M-0.07 0.11 C18.69 0.03, 92.99 -1.94, 111.2 -1.88" stroke="#000000" stroke-width="1" fill="none"></path></g></g><g transform="translate(540 889.484375) rotate(0 6 -3.5)" stroke="none"><path fill="#1864ab" d="M -1.59,-1.99 Q -1.59,-1.99 -0.10,-3.08 1.38,-4.16 2.44,-4.81 3.49,-5.46 5.00,-6.55 6.51,-7.65 8.04,-8.12 9.58,-8.58 9.96,-8.83 10.34,-9.08 10.78,-9.20 11.21,-9.31 11.67,-9.28 12.12,-9.25 12.54,-9.08 12.96,-8.90 13.30,-8.60 13.64,-8.30 13.87,-7.91 14.10,-7.52 14.19,-7.08 14.28,-6.63 14.23,-6.18 14.17,-5.73 13.97,-5.32 13.78,-4.91 13.46,-4.59 13.14,-4.26 12.74,-4.05 12.34,-3.85 11.89,-3.78 11.44,-3.71 10.99,-3.79 10.54,-3.87 10.15,-4.09 9.75,-4.31 9.44,-4.64 9.13,-4.98 8.95,-5.39 8.76,-5.81 8.72,-6.26 8.68,-6.71 8.78,-7.15 8.89,-7.60 9.13,-7.98 9.37,-8.37 9.72,-8.66 10.07,-8.94 10.49,-9.11 10.92,-9.27 11.37,-9.29 11.82,-9.30 12.26,-9.18 12.69,-9.05 13.07,-8.79 13.44,-8.53 13.71,-8.16 13.98,-7.80 14.11,-7.36 14.25,-6.93 14.25,-6.48 14.24,-6.02 14.09,-5.60 13.94,-5.17 13.66,-4.81 13.38,-4.45 13.38,-4.45 13.38,-4.45 11.02,-3.62 8.66,-2.79 7.83,-2.09 7.01,-1.39 5.68,-0.91 4.36,-0.43 2.97,0.78 1.59,1.99 1.33,2.15 1.07,2.31 0.77,2.41 0.48,2.50 0.17,2.53 -0.12,2.55 -0.43,2.50 -0.73,2.44 -1.01,2.32 -1.30,2.20 -1.54,2.01 -1.78,1.82 -1.98,1.58 -2.17,1.34 -2.30,1.06 -2.43,0.78 -2.49,0.48 -2.54,0.18 -2.53,-0.12 -2.51,-0.43 -2.42,-0.73 -2.34,-1.02 -2.18,-1.29 -2.02,-1.55 -1.81,-1.77 -1.59,-1.99 -1.59,-1.99 L -1.59,-1.99 Z"></path></g><g transform="translate(550 892.484375) rotate(0 4 -4)" stroke="none"><path fill="#1864ab" d="M -1.85,-1.85 Q -1.85,-1.85 -0.99,-2.73 -0.12,-3.61 0.78,-4.22 1.69,-4.83 2.47,-6.01 3.24,-7.18 4.11,-7.88 4.98,-8.57 5.25,-8.97 5.52,-9.37 5.90,-9.67 6.28,-9.96 6.74,-10.12 7.20,-10.27 7.68,-10.28 8.16,-10.28 8.62,-10.13 9.08,-9.98 9.46,-9.69 9.85,-9.40 10.12,-9.00 10.39,-8.60 10.53,-8.14 10.66,-7.67 10.63,-7.19 10.61,-6.71 10.43,-6.26 10.26,-5.81 9.95,-5.44 9.64,-5.07 9.22,-4.82 8.81,-4.57 8.34,-4.46 7.87,-4.36 7.39,-4.41 6.91,-4.46 6.47,-4.66 6.03,-4.86 5.68,-5.19 5.33,-5.52 5.10,-5.94 4.87,-6.37 4.79,-6.84 4.71,-7.32 4.79,-7.79 4.86,-8.27 5.09,-8.70 5.31,-9.13 5.66,-9.46 6.01,-9.79 6.44,-10.00 6.88,-10.20 7.36,-10.26 7.84,-10.31 8.31,-10.21 8.78,-10.11 9.20,-9.86 9.61,-9.62 9.93,-9.25 10.24,-8.88 10.42,-8.44 10.60,-7.99 10.63,-7.51 10.66,-7.03 10.53,-6.56 10.41,-6.10 10.41,-6.10 10.41,-6.10 8.80,-4.54 7.19,-2.99 6.58,-2.11 5.96,-1.22 4.77,-0.53 3.57,0.16 2.71,1.01 1.85,1.85 1.60,2.05 1.35,2.24 1.06,2.37 0.78,2.50 0.46,2.56 0.15,2.61 -0.15,2.60 -0.47,2.58 -0.77,2.48 -1.07,2.39 -1.34,2.22 -1.61,2.06 -1.84,1.84 -2.06,1.61 -2.22,1.34 -2.39,1.07 -2.48,0.77 -2.58,0.47 -2.60,0.15 -2.61,-0.15 -2.56,-0.46 -2.50,-0.78 -2.37,-1.06 -2.24,-1.35 -2.05,-1.60 -1.85,-1.85 -1.85,-1.85 L -1.85,-1.85 Z"></path></g><g transform="translate(566 890.484375) rotate(0 3.5 -3.5)" stroke="none"><path fill="#1864ab" d="M -1.14,-2.29 Q -1.14,-2.29 -0.02,-2.86 1.09,-3.43 2.05,-4.77 3.02,-6.11 3.53,-6.76 4.04,-7.41 4.29,-7.81 4.54,-8.20 4.90,-8.50 5.26,-8.79 5.70,-8.95 6.14,-9.12 6.60,-9.13 7.07,-9.15 7.52,-9.01 7.96,-8.88 8.34,-8.61 8.72,-8.34 9.00,-7.96 9.27,-7.58 9.41,-7.14 9.55,-6.69 9.54,-6.22 9.53,-5.76 9.37,-5.32 9.21,-4.88 8.92,-4.52 8.63,-4.15 8.24,-3.90 7.85,-3.64 7.40,-3.53 6.94,-3.41 6.48,-3.45 6.01,-3.49 5.58,-3.67 5.15,-3.85 4.80,-4.16 4.46,-4.47 4.22,-4.87 3.99,-5.28 3.90,-5.74 3.81,-6.20 3.87,-6.66 3.93,-7.12 4.14,-7.54 4.34,-7.96 4.67,-8.29 5.00,-8.62 5.42,-8.83 5.84,-9.04 6.30,-9.11 6.76,-9.17 7.22,-9.09 7.68,-9.00 8.08,-8.77 8.49,-8.54 8.80,-8.20 9.12,-7.85 9.30,-7.42 9.49,-7.00 9.53,-6.53 9.57,-6.07 9.46,-5.61 9.35,-5.16 9.35,-5.16 9.35,-5.16 7.31,-2.80 5.28,-0.45 4.39,0.33 3.50,1.13 2.32,1.71 1.14,2.29 0.85,2.40 0.56,2.50 0.25,2.53 -0.05,2.57 -0.35,2.52 -0.66,2.48 -0.95,2.36 -1.23,2.25 -1.49,2.07 -1.74,1.89 -1.94,1.65 -2.14,1.41 -2.28,1.14 -2.42,0.86 -2.49,0.56 -2.55,0.25 -2.55,-0.05 -2.54,-0.36 -2.46,-0.65 -2.38,-0.95 -2.23,-1.23 -2.08,-1.50 -1.87,-1.73 -1.66,-1.95 -1.40,-2.12 -1.14,-2.30 -1.14,-2.30 L -1.14,-2.29 Z"></path></g><g transform="translate(577 890.484375) rotate(0 7.5 -9)" stroke="none"><path fill="#1864ab" d="M -1.60,-1.60 Q -1.60,-1.60 -0.45,-2.74 0.70,-3.89 1.70,-5.12 2.69,-6.36 4.73,-8.36 6.77,-10.37 7.80,-11.71 8.84,-13.06 9.89,-14.31 10.94,-15.57 11.61,-16.88 12.28,-18.20 12.44,-18.42 12.61,-18.65 12.82,-18.82 13.03,-19.00 13.28,-19.13 13.53,-19.25 13.80,-19.31 14.07,-19.37 14.35,-19.36 14.63,-19.35 14.90,-19.28 15.17,-19.21 15.41,-19.07 15.65,-18.94 15.85,-18.75 16.06,-18.56 16.21,-18.32 16.36,-18.09 16.45,-17.83 16.54,-17.57 16.57,-17.29 16.60,-17.01 16.56,-16.74 16.51,-16.46 16.41,-16.21 16.30,-15.95 15.55,-14.42 14.79,-12.89 13.75,-11.46 12.72,-10.02 12.03,-9.06 11.34,-8.10 10.54,-5.83 9.75,-3.57 9.55,-3.16 9.35,-2.76 9.04,-2.45 8.72,-2.13 8.32,-1.93 7.93,-1.73 7.48,-1.67 7.04,-1.61 6.60,-1.69 6.16,-1.78 5.77,-2.00 5.38,-2.22 5.09,-2.55 4.79,-2.88 4.61,-3.29 4.43,-3.70 4.39,-4.14 4.36,-4.59 4.46,-5.02 4.57,-5.46 4.81,-5.83 5.05,-6.21 5.40,-6.49 5.75,-6.77 6.17,-6.93 6.58,-7.08 7.03,-7.09 7.48,-7.11 7.90,-6.98 8.33,-6.85 8.69,-6.59 9.06,-6.33 9.32,-5.96 9.58,-5.60 9.71,-5.17 9.84,-4.75 9.83,-4.30 9.82,-3.86 9.67,-3.44 9.52,-3.02 9.24,-2.67 8.96,-2.32 8.58,-2.08 8.20,-1.84 7.77,-1.73 7.34,-1.62 6.89,-1.65 6.45,-1.69 6.04,-1.87 5.63,-2.04 5.29,-2.34 4.96,-2.64 4.74,-3.03 4.52,-3.41 4.43,-3.85 4.35,-4.29 4.41,-4.73 4.47,-5.18 4.47,-5.18 4.47,-5.18 5.19,-6.77 5.91,-8.37 6.44,-9.75 6.96,-11.13 7.83,-12.35 8.71,-13.58 9.57,-14.45 10.43,-15.32 11.36,-16.76 12.28,-18.20 12.44,-18.42 12.61,-18.65 12.82,-18.82 13.03,-19.00 13.28,-19.13 13.53,-19.25 13.80,-19.31 14.07,-19.37 14.35,-19.36 14.63,-19.35 14.90,-19.28 15.17,-19.21 15.41,-19.07 15.65,-18.94 15.85,-18.75 16.06,-18.56 16.21,-18.32 16.36,-18.09 16.45,-17.83 16.54,-17.57 16.57,-17.29 16.60,-17.01 16.56,-16.74 16.51,-16.46 16.41,-16.21 16.30,-15.95 15.77,-15.36 15.23,-14.77 14.60,-13.85 13.98,-12.93 12.95,-11.81 11.93,-10.70 10.78,-9.19 9.64,-7.68 7.89,-5.66 6.15,-3.64 5.02,-2.17 3.89,-0.70 2.75,0.44 1.60,1.60 1.39,1.77 1.17,1.94 0.92,2.05 0.67,2.17 0.40,2.22 0.13,2.26 -0.13,2.25 -0.40,2.23 -0.67,2.15 -0.93,2.07 -1.16,1.93 -1.40,1.78 -1.59,1.59 -1.79,1.40 -1.93,1.16 -2.07,0.93 -2.15,0.67 -2.23,0.40 -2.25,0.13 -2.26,-0.13 -2.22,-0.40 -2.17,-0.67 -2.05,-0.92 -1.94,-1.17 -1.77,-1.39 -1.60,-1.60 -1.60,-1.60 L -1.60,-1.60 Z"></path></g><g transform="translate(602 890.484375) rotate(0 2.5 -3.5)" stroke="none"><path fill="#1864ab" d="M -1.74,-1.74 Q -1.74,-1.74 -0.90,-2.61 -0.07,-3.48 1.15,-5.61 2.39,-7.74 2.63,-8.10 2.88,-8.45 3.23,-8.71 3.58,-8.97 3.99,-9.10 4.40,-9.23 4.83,-9.23 5.27,-9.22 5.67,-9.08 6.08,-8.93 6.42,-8.67 6.76,-8.40 7.00,-8.04 7.24,-7.68 7.35,-7.26 7.46,-6.84 7.43,-6.41 7.41,-5.98 7.24,-5.58 7.07,-5.18 6.79,-4.85 6.51,-4.53 6.13,-4.31 5.76,-4.09 5.34,-4.00 4.91,-3.91 4.48,-3.97 4.05,-4.02 3.66,-4.20 3.27,-4.39 2.96,-4.69 2.65,-4.99 2.45,-5.38 2.25,-5.76 2.19,-6.19 2.12,-6.62 2.20,-7.05 2.28,-7.47 2.48,-7.85 2.69,-8.23 3.01,-8.53 3.33,-8.82 3.72,-9.00 4.12,-9.17 4.55,-9.21 4.98,-9.26 5.40,-9.16 5.82,-9.06 6.19,-8.83 6.56,-8.60 6.83,-8.27 7.11,-7.94 7.26,-7.53 7.42,-7.13 7.44,-6.70 7.46,-6.26 7.33,-5.85 7.21,-5.43 7.21,-5.43 7.21,-5.43 5.97,-3.59 4.73,-1.74 4.12,-0.85 3.52,0.03 2.63,0.89 1.74,1.74 1.51,1.92 1.27,2.11 1.00,2.23 0.73,2.35 0.44,2.40 0.14,2.46 -0.14,2.44 -0.44,2.42 -0.72,2.33 -1.01,2.25 -1.26,2.09 -1.52,1.94 -1.73,1.73 -1.94,1.52 -2.09,1.26 -2.25,1.01 -2.33,0.72 -2.42,0.44 -2.44,0.14 -2.46,-0.14 -2.40,-0.44 -2.35,-0.73 -2.23,-1.00 -2.11,-1.27 -1.92,-1.51 -1.74,-1.74 -1.74,-1.74 L -1.74,-1.74 Z"></path></g><g transform="translate(613 892.484375) rotate(0 4 -7)" stroke="none"><path fill="#1864ab" d="M -1.97,-1.57 Q -1.97,-1.57 -0.75,-2.96 0.46,-4.36 1.37,-5.16 2.27,-5.97 3.16,-7.65 4.05,-9.32 4.65,-11.75 5.24,-14.19 5.41,-14.59 5.58,-15.00 5.87,-15.33 6.16,-15.66 6.54,-15.88 6.92,-16.11 7.36,-16.19 7.79,-16.28 8.22,-16.23 8.66,-16.17 9.06,-15.98 9.46,-15.79 9.77,-15.48 10.09,-15.17 10.29,-14.78 10.49,-14.39 10.55,-13.95 10.62,-13.52 10.54,-13.08 10.46,-12.65 10.25,-12.26 10.03,-11.88 9.71,-11.58 9.38,-11.28 8.98,-11.10 8.58,-10.92 8.14,-10.88 7.70,-10.84 7.27,-10.94 6.84,-11.04 6.47,-11.28 6.09,-11.51 5.81,-11.85 5.53,-12.19 5.38,-12.60 5.22,-13.02 5.20,-13.46 5.19,-13.90 5.31,-14.32 5.44,-14.74 5.69,-15.10 5.94,-15.46 6.30,-15.73 6.65,-15.99 7.07,-16.12 7.49,-16.25 7.93,-16.25 8.38,-16.24 8.79,-16.09 9.21,-15.95 9.55,-15.67 9.90,-15.40 10.14,-15.03 10.38,-14.66 10.49,-14.24 10.61,-13.81 10.57,-13.37 10.54,-12.93 10.54,-12.93 10.54,-12.93 9.89,-10.96 9.23,-8.99 8.25,-7.06 7.28,-5.13 5.70,-3.25 4.13,-1.38 3.05,0.09 1.97,1.57 1.75,1.79 1.53,2.00 1.27,2.15 1.01,2.31 0.72,2.40 0.42,2.48 0.12,2.50 -0.17,2.51 -0.47,2.46 -0.77,2.40 -1.05,2.27 -1.32,2.14 -1.56,1.95 -1.80,1.76 -1.98,1.52 -2.17,1.28 -2.29,1.00 -2.41,0.72 -2.47,0.42 -2.52,0.12 -2.50,-0.17 -2.47,-0.48 -2.38,-0.77 -2.29,-1.06 -2.13,-1.31 -1.97,-1.57 -1.97,-1.57 L -1.97,-1.57 Z"></path></g><g transform="translate(588 887.484375) rotate(0 7 -3.5)" stroke="none"><path fill="#1864ab" d="M -0.41,-2.48 Q -0.41,-2.48 1.31,-2.71 3.04,-2.93 4.29,-3.71 5.54,-4.49 6.69,-5.24 7.85,-6.00 10.23,-7.66 12.60,-9.33 13.02,-9.43 13.45,-9.53 13.88,-9.50 14.31,-9.46 14.71,-9.28 15.11,-9.11 15.43,-8.82 15.76,-8.52 15.97,-8.14 16.18,-7.76 16.26,-7.33 16.34,-6.91 16.28,-6.47 16.22,-6.04 16.02,-5.65 15.83,-5.26 15.52,-4.96 15.21,-4.65 14.81,-4.46 14.42,-4.27 13.99,-4.21 13.56,-4.16 13.13,-4.24 12.70,-4.33 12.33,-4.54 11.95,-4.76 11.66,-5.09 11.37,-5.41 11.20,-5.81 11.03,-6.21 11.00,-6.65 10.97,-7.08 11.07,-7.51 11.18,-7.93 11.42,-8.29 11.66,-8.66 12.00,-8.93 12.34,-9.20 12.75,-9.35 13.16,-9.50 13.59,-9.50 14.03,-9.51 14.44,-9.38 14.86,-9.25 15.21,-9.00 15.56,-8.74 15.82,-8.39 16.07,-8.03 16.19,-7.61 16.32,-7.20 16.30,-6.76 16.29,-6.32 16.14,-5.92 15.98,-5.51 15.71,-5.17 15.43,-4.83 15.07,-4.60 14.70,-4.37 14.70,-4.37 14.70,-4.37 13.58,-3.69 12.47,-3.01 11.57,-2.36 10.68,-1.71 9.50,-0.93 8.32,-0.14 7.37,0.38 6.42,0.90 5.14,1.34 3.85,1.78 2.13,2.13 0.41,2.48 0.11,2.50 -0.19,2.51 -0.49,2.45 -0.78,2.39 -1.06,2.26 -1.33,2.13 -1.57,1.94 -1.81,1.75 -1.99,1.51 -2.17,1.26 -2.29,0.99 -2.41,0.71 -2.46,0.41 -2.51,0.11 -2.49,-0.19 -2.47,-0.49 -2.37,-0.78 -2.28,-1.07 -2.12,-1.32 -1.95,-1.58 -1.74,-1.79 -1.52,-2.00 -1.26,-2.16 -0.99,-2.31 -0.70,-2.40 -0.41,-2.48 -0.41,-2.48 L -0.41,-2.48 Z"></path></g><g transform="translate(629 889.484375) rotate(0 2.5 -5)" stroke="none"><path fill="#1864ab" d="M -2.09,-1.25 Q -2.09,-1.25 -1.20,-2.67 -0.30,-4.09 0.30,-5.25 0.92,-6.41 1.71,-8.25 2.50,-10.10 2.64,-10.47 2.77,-10.85 3.02,-11.16 3.27,-11.47 3.61,-11.69 3.94,-11.91 4.33,-12.01 4.71,-12.11 5.11,-12.08 5.51,-12.05 5.88,-11.89 6.25,-11.74 6.54,-11.47 6.84,-11.21 7.04,-10.86 7.24,-10.51 7.32,-10.12 7.40,-9.73 7.35,-9.34 7.29,-8.94 7.12,-8.58 6.94,-8.22 6.66,-7.94 6.38,-7.65 6.03,-7.47 5.67,-7.29 5.28,-7.24 4.88,-7.18 4.49,-7.25 4.10,-7.33 3.75,-7.52 3.40,-7.71 3.13,-8.01 2.86,-8.30 2.70,-8.67 2.54,-9.04 2.51,-9.43 2.47,-9.83 2.56,-10.22 2.66,-10.61 2.87,-10.95 3.08,-11.28 3.39,-11.54 3.70,-11.79 4.08,-11.93 4.45,-12.07 4.85,-12.08 5.25,-12.10 5.63,-11.98 6.01,-11.87 6.34,-11.63 6.66,-11.40 6.90,-11.08 7.13,-10.76 7.25,-10.38 7.37,-10.00 7.37,-9.60 7.36,-9.20 7.36,-9.20 7.36,-9.20 6.25,-6.64 5.14,-4.08 4.44,-2.86 3.75,-1.65 2.92,-0.19 2.09,1.25 1.91,1.49 1.73,1.72 1.50,1.90 1.27,2.08 1.00,2.20 0.73,2.33 0.44,2.38 0.15,2.43 -0.13,2.42 -0.43,2.40 -0.71,2.31 -0.99,2.23 -1.24,2.08 -1.50,1.92 -1.71,1.72 -1.91,1.51 -2.07,1.26 -2.22,1.01 -2.31,0.72 -2.40,0.44 -2.42,0.15 -2.44,-0.13 -2.38,-0.42 -2.33,-0.71 -2.21,-0.98 -2.09,-1.25 -2.09,-1.25 L -2.09,-1.25 Z"></path></g><g transform="translate(636 888.484375) rotate(0 4.5 -3.5)" stroke="none"><path fill="#1864ab" d="M -0.83,-2.50 Q -0.83,-2.50 0.01,-2.82 0.87,-3.15 1.91,-3.63 2.96,-4.11 3.53,-5.22 4.10,-6.33 5.13,-7.34 6.16,-8.36 6.49,-8.73 6.83,-9.11 7.27,-9.36 7.71,-9.62 8.20,-9.71 8.70,-9.81 9.20,-9.75 9.70,-9.68 10.16,-9.46 10.61,-9.24 10.97,-8.88 11.33,-8.53 11.56,-8.08 11.78,-7.62 11.86,-7.12 11.93,-6.62 11.83,-6.12 11.74,-5.63 11.50,-5.19 11.25,-4.74 10.88,-4.40 10.50,-4.06 10.04,-3.86 9.57,-3.66 9.07,-3.61 8.57,-3.57 8.07,-3.69 7.58,-3.81 7.16,-4.08 6.73,-4.35 6.41,-4.74 6.09,-5.13 5.91,-5.61 5.73,-6.08 5.72,-6.59 5.70,-7.09 5.85,-7.58 5.99,-8.06 6.29,-8.47 6.58,-8.89 6.99,-9.18 7.40,-9.48 7.88,-9.63 8.36,-9.78 8.87,-9.77 9.37,-9.76 9.85,-9.59 10.32,-9.42 10.72,-9.10 11.12,-8.79 11.39,-8.36 11.67,-7.94 11.79,-7.45 11.92,-6.96 11.88,-6.46 11.84,-5.95 11.64,-5.49 11.45,-5.02 11.45,-5.02 11.45,-5.02 10.00,-3.62 8.55,-2.23 7.08,-0.89 5.61,0.43 4.09,1.21 2.57,2.00 1.70,2.25 0.83,2.50 0.52,2.57 0.21,2.63 -0.10,2.62 -0.42,2.60 -0.73,2.51 -1.03,2.43 -1.31,2.27 -1.58,2.11 -1.81,1.89 -2.04,1.67 -2.21,1.40 -2.38,1.13 -2.48,0.82 -2.58,0.52 -2.61,0.20 -2.64,-0.10 -2.58,-0.42 -2.53,-0.73 -2.41,-1.02 -2.28,-1.32 -2.09,-1.57 -1.90,-1.83 -1.65,-2.03 -1.41,-2.23 -1.12,-2.37 -0.83,-2.50 -0.83,-2.50 L -0.83,-2.50 Z"></path></g><g transform="translate(569 863.484375) rotate(0 -3.5 -1.5)" stroke="none"><path fill="#000000" d="M -2.63,0 Q -2.63,0 -1.94,-1.82 -1.24,-3.64 0.79,-3.72 2.84,-3.80 4.07,-2.28 5.30,-0.77 5.00,0.59 4.70,1.96 3.76,2.72 2.82,3.48 1.57,3.71 0.32,3.94 -1.11,3.64 -2.54,3.34 -3.66,2.89 -4.78,2.43 -5.73,1.85 -6.68,1.27 -8.22,0.10 -9.76,-1.05 -9.64,-1.01 -9.53,-0.97 -9.83,-1.20 -10.13,-1.44 -10.37,-1.74 -10.61,-2.04 -10.76,-2.38 -10.92,-2.73 -10.99,-3.11 -11.06,-3.48 -11.04,-3.86 -11.02,-4.24 -10.91,-4.61 -10.80,-4.97 -10.60,-5.30 -10.40,-5.63 -10.14,-5.90 -9.87,-6.17 -9.54,-6.37 -9.22,-6.57 -8.85,-6.68 -8.49,-6.80 -8.11,-6.82 -7.73,-6.85 -7.35,-6.78 -6.97,-6.71 -6.63,-6.56 -6.28,-6.40 -4.95,-7.17 -3.61,-7.94 -2.19,-8.47 -0.76,-9.00 1.40,-8.70 3.57,-8.39 4.92,-6.79 6.27,-5.19 5.83,-3.18 5.40,-1.17 5.40,-0.06 5.40,1.04 4.86,2.40 4.32,3.75 2.77,4.68 1.22,5.61 -0.15,5.54 -1.52,5.47 -3.30,4.45 -5.08,3.42 -6.05,2.51 -7.01,1.60 -8.52,0.08 -10.02,-1.43 -10.68,-4.83 -11.35,-8.24 -9.75,-8.72 -8.15,-9.19 -6.72,-8.85 -5.28,-8.51 -4.27,-7.96 -3.27,-7.40 -0.96,-5.44 1.34,-3.48 1.59,-3.03 1.84,-2.57 1.94,-2.06 2.03,-1.55 1.95,-1.04 1.88,-0.52 1.64,-0.06 1.41,0.40 1.03,0.76 0.66,1.12 0.19,1.35 -0.26,1.58 -0.78,1.64 -1.30,1.71 -1.81,1.60 -2.32,1.50 -2.77,1.24 -3.22,0.98 -3.56,0.59 -3.90,0.20 -4.10,-0.27 -4.30,-0.75 -4.34,-1.27 -4.38,-1.79 -4.25,-2.29 -4.12,-2.80 -3.83,-3.23 -3.55,-3.67 -3.14,-3.99 -2.73,-4.31 -2.24,-4.49 -1.75,-4.66 -1.23,-4.67 -0.71,-4.68 -0.21,-4.52 0.27,-4.36 0.69,-4.05 1.11,-3.75 1.41,-3.32 1.71,-2.89 1.86,-2.40 2.00,-1.90 1.98,-1.38 1.96,-0.86 1.78,-0.37 1.60,0.11 1.27,0.51 0.94,0.91 0.49,1.18 0.05,1.46 -0.44,1.58 -0.95,1.70 -1.47,1.65 -1.99,1.61 -2.46,1.40 -2.94,1.18 -3.32,0.83 -3.70,0.48 -3.70,0.48 -3.70,0.48 -4.27,-0.30 -4.83,-1.10 -6.57,-2.02 -8.32,-2.94 -7.96,-5.20 -7.60,-7.45 -6.53,-6.77 -5.46,-6.09 -4.60,-5.30 -3.75,-4.51 -2.42,-3.31 -1.09,-2.12 -0.09,-1.54 0.89,-0.95 -0.21,-0.17 -1.33,0.61 -1.20,-0.99 -1.08,-2.60 -0.45,-3.87 0.17,-5.13 0.05,-3.92 -0.07,-2.71 -1.31,-2.18 -2.55,-1.64 -4.43,-1.19 -6.30,-0.73 -7.91,-0.85 -9.53,-0.97 -9.83,-1.20 -10.13,-1.44 -10.37,-1.74 -10.61,-2.04 -10.76,-2.38 -10.92,-2.73 -10.99,-3.11 -11.06,-3.48 -11.04,-3.86 -11.02,-4.24 -10.91,-4.61 -10.80,-4.97 -10.60,-5.30 -10.40,-5.63 -10.14,-5.90 -9.87,-6.17 -9.54,-6.37 -9.22,-6.57 -8.85,-6.68 -8.49,-6.80 -8.11,-6.82 -7.73,-6.85 -7.35,-6.78 -6.98,-6.71 -6.63,-6.56 -6.28,-6.40 -5.21,-5.55 -4.14,-4.71 -3.27,-3.98 -2.39,-3.26 -1.05,-2.64 0.28,-2.02 0.76,-0.91 1.24,0.19 1.94,0.09 2.63,0 2.59,0.31 2.55,0.63 2.44,0.92 2.33,1.22 2.15,1.48 1.97,1.74 1.73,1.95 1.49,2.16 1.21,2.31 0.93,2.46 0.62,2.54 0.31,2.61 -0.00,2.61 -0.31,2.61 -0.62,2.54 -0.93,2.46 -1.21,2.31 -1.49,2.16 -1.73,1.95 -1.97,1.74 -2.15,1.48 -2.33,1.22 -2.44,0.92 -2.55,0.63 -2.59,0.31 -2.63,-0.00 -2.63,-0.00 L -2.63,0 Z"></path></g><g transform="translate(615 861.484375) rotate(0 -5.5 -1)" stroke="none"><path fill="#000000" d="M 1.18,2.37 Q 1.18,2.37 0.03,2.95 -1.11,3.53 -2.20,3.89 -3.30,4.25 -4.61,4.10 -5.92,3.95 -7.01,3.48 -8.11,3.02 -9.09,2.43 -10.07,1.83 -10.74,0.90 -11.41,-0.03 -11.70,-1.67 -11.99,-3.31 -11.32,-4.76 -10.64,-6.21 -9.29,-6.97 -7.94,-7.74 -6.48,-7.96 -5.02,-8.18 -3.35,-7.97 -1.69,-7.76 -0.68,-7.09 0.33,-6.43 1.13,-5.13 1.92,-3.83 2.48,-2.77 3.03,-1.72 3.18,-0.18 3.32,1.35 2.76,2.75 2.19,4.15 1.18,4.96 0.16,5.76 -2.37,5.71 -4.92,5.66 -5.96,5.19 -6.99,4.72 -8.74,4.48 -10.48,4.23 -11.66,3.50 -12.85,2.77 -13.38,1.37 -13.91,-0.01 -13.64,-1.40 -13.37,-2.79 -12.73,-3.64 -12.09,-4.49 -11.08,-5.15 -10.06,-5.80 -8.36,-6.46 -6.65,-7.12 -5.27,-7.01 -3.89,-6.89 -2.57,-6.04 -1.25,-5.20 0.16,-4.22 1.58,-3.23 1.93,-2.80 2.28,-2.36 2.47,-1.83 2.66,-1.30 2.68,-0.74 2.69,-0.18 2.52,0.34 2.36,0.88 2.03,1.33 1.70,1.79 1.24,2.11 0.78,2.44 0.25,2.60 -0.28,2.76 -0.84,2.75 -1.40,2.73 -1.93,2.53 -2.45,2.34 -2.89,1.98 -3.32,1.63 -3.62,1.16 -3.92,0.68 -4.06,0.14 -4.19,-0.40 -4.14,-0.95 -4.09,-1.51 -3.87,-2.03 -3.65,-2.54 -3.27,-2.96 -2.90,-3.37 -2.41,-3.65 -1.92,-3.92 -1.37,-4.02 -0.81,-4.13 -0.26,-4.05 0.29,-3.97 0.79,-3.72 1.29,-3.47 1.68,-3.07 2.08,-2.67 2.33,-2.17 2.57,-1.67 2.65,-1.11 2.72,-0.56 2.61,-0.01 2.50,0.54 2.23,1.02 1.95,1.51 1.53,1.88 1.11,2.25 0.59,2.47 0.08,2.69 -0.47,2.74 -1.03,2.78 -1.57,2.64 -2.12,2.51 -2.59,2.20 -3.06,1.90 -3.06,1.90 -3.06,1.90 -3.96,0.63 -4.87,-0.62 -6.08,-0.22 -7.28,0.17 -7.50,-0.93 -7.71,-2.04 -6.02,-1.80 -4.33,-1.56 -3.91,-0.43 -3.49,0.70 -3.57,-0.49 -3.65,-1.69 -5.00,-2.13 -6.34,-2.56 -4.91,-1.90 -3.48,-1.23 -2.33,-1.80 -1.18,-2.37 -0.88,-2.48 -0.58,-2.59 -0.26,-2.62 0.05,-2.65 0.36,-2.61 0.68,-2.56 0.98,-2.44 1.28,-2.33 1.54,-2.14 1.80,-1.95 2.01,-1.71 2.21,-1.46 2.36,-1.18 2.50,-0.89 2.57,-0.58 2.64,-0.26 2.63,0.05 2.63,0.37 2.55,0.68 2.46,0.99 2.31,1.27 2.15,1.55 1.94,1.78 1.72,2.02 1.45,2.20 1.18,2.37 1.18,2.37 L 1.18,2.37 Z"></path></g><g transform="translate(587 826.484375) rotate(0 5.5 1)" stroke="none"><path fill="#000000" d="M -1.58,-2.11 Q -1.58,-2.11 -0.42,-2.97 0.73,-3.82 1.89,-4.37 3.05,-4.93 4.35,-4.92 5.66,-4.90 7.76,-4.54 9.86,-4.19 10.84,-3.59 11.82,-3.00 12.57,-1.65 13.32,-0.30 13.23,1.02 13.14,2.36 12.35,3.39 11.56,4.43 9.85,5.08 8.13,5.73 6.46,6.26 4.78,6.79 2.95,7.12 1.11,7.45 0.03,6.93 -1.04,6.41 -1.54,4.61 -2.05,2.81 -2.24,2.33 -2.44,1.85 -2.48,1.33 -2.51,0.81 -2.37,0.30 -2.24,-0.19 -1.95,-0.62 -1.66,-1.06 -1.25,-1.38 -0.84,-1.70 -0.34,-1.87 0.14,-2.04 0.66,-2.04 1.18,-2.05 1.68,-1.89 2.18,-1.72 2.59,-1.41 3.01,-1.10 3.31,-0.67 3.60,-0.24 3.75,0.25 3.89,0.75 3.87,1.27 3.85,1.79 3.66,2.28 3.47,2.77 3.13,3.17 2.80,3.57 2.35,3.84 1.91,4.11 1.40,4.23 0.89,4.35 0.37,4.29 -0.14,4.24 -0.61,4.03 -1.09,3.81 -1.47,3.46 -1.85,3.10 -2.10,2.64 -2.35,2.18 -2.44,1.67 -2.52,1.16 -2.44,0.64 -2.36,0.12 -2.12,-0.33 -1.88,-0.79 -1.51,-1.15 -1.13,-1.52 -0.66,-1.74 -0.19,-1.96 0.32,-2.02 0.84,-2.08 1.35,-1.98 1.86,-1.87 2.31,-1.60 2.76,-1.34 3.10,-0.94 3.44,-0.55 3.44,-0.55 3.44,-0.55 3.58,0.84 3.71,2.24 2.49,1.99 1.27,1.75 2.84,1.14 4.40,0.54 5.73,0.69 7.05,0.85 5.45,0.61 3.86,0.37 2.72,1.24 1.58,2.11 1.31,2.27 1.03,2.43 0.72,2.52 0.42,2.61 0.10,2.62 -0.21,2.64 -0.52,2.57 -0.84,2.51 -1.12,2.37 -1.41,2.23 -1.66,2.03 -1.91,1.83 -2.10,1.57 -2.29,1.32 -2.42,1.02 -2.54,0.73 -2.59,0.41 -2.64,0.10 -2.62,-0.21 -2.59,-0.53 -2.49,-0.83 -2.39,-1.13 -2.22,-1.40 -2.05,-1.67 -1.82,-1.89 -1.58,-2.11 -1.58,-2.11 L -1.58,-2.11 Z"></path></g><g stroke-linecap="round"><g transform="translate(607 859.484375) rotate(0 -19.5 -12.5)"><path d="M0.72 0.17 C-2.59 -4.8, -14.25 -29.92, -20.86 -29.4 C-27.47 -28.88, -42.58 -1.55, -38.92 3.3 C-35.26 8.14, -5.39 0.28, 1.09 -0.35 M-0.36 -0.79 C-3.2 -5.63, -12.05 -28.91, -18.6 -28.07 C-25.15 -27.23, -42.45 -0.53, -39.64 4.25 C-36.83 9.02, -8.11 1.34, -1.75 0.58" stroke="#000000" stroke-width="1" fill="none"></path></g></g><g stroke-linecap="round"><g transform="translate(589 829.484375) rotate(0 73.5 -17)"><path d="M0.42 0.59 C25.17 -5.17, 123.61 -27.66, 148.12 -33.54 M-0.82 -0.15 C23.91 -5.75, 123.12 -29.82, 147.75 -35.42" stroke="#000000" stroke-width="1" fill="none"></path></g></g><g transform="translate(810 804.484375) rotate(0 38 25)"><text x="0" y="18" font-family="Virgil, Segoe UI Emoji" font-size="20px" fill="#000000" text-anchor="start" style="white-space: pre;" direction="ltr">Carrello</text><text x="0" y="43" font-family="Virgil, Segoe UI Emoji" font-size="20px" fill="#000000" text-anchor="start" style="white-space: pre;" direction="ltr">2 GDL</text></g><g transform="translate(944 797.484375) rotate(0 35.5 12.5)"><text x="0" y="18" font-family="Virgil, Segoe UI Emoji" font-size="20px" fill="#000000" text-anchor="start" style="white-space: pre;" direction="ltr">Ya = 0</text></g><g transform="translate(596 535.484375) rotate(0 7 12.5)"><text x="0" y="18" font-family="Virgil, Segoe UI Emoji" font-size="20px" fill="#d9480f" text-anchor="start" style="white-space: pre;" direction="ltr">A</text></g><g transform="translate(764 536.484375) rotate(0 8 12.5)"><text x="0" y="18" font-family="Virgil, Segoe UI Emoji" font-size="20px" fill="#d9480f" text-anchor="start" style="white-space: pre;" direction="ltr">B</text></g><g transform="translate(580 657.984375) rotate(0 7 12.5)"><text x="0" y="18" font-family="Virgil, Segoe UI Emoji" font-size="20px" fill="#d9480f" text-anchor="start" style="white-space: pre;" direction="ltr">A</text></g><g transform="translate(570 737.984375) rotate(0 7 12.5)"><text x="0" y="18" font-family="Virgil, Segoe UI Emoji" font-size="20px" fill="#d9480f" text-anchor="start" style="white-space: pre;" direction="ltr">A</text></g><g transform="translate(600 793.984375) rotate(0 7 12.5)"><text x="0" y="18" font-family="Virgil, Segoe UI Emoji" font-size="20px" fill="#d9480f" text-anchor="start" style="white-space: pre;" direction="ltr">A</text></g><g transform="translate(742 611.984375) rotate(0 8 12.5)"><text x="0" y="18" font-family="Virgil, Segoe UI Emoji" font-size="20px" fill="#d9480f" text-anchor="start" style="white-space: pre;" direction="ltr">B</text></g><g transform="translate(736 699.984375) rotate(0 8 12.5)"><text x="0" y="18" font-family="Virgil, Segoe UI Emoji" font-size="20px" fill="#d9480f" text-anchor="start" style="white-space: pre;" direction="ltr">B</text></g><g transform="translate(732 769.984375) rotate(0 8 12.5)"><text x="0" y="18" font-family="Virgil, Segoe UI Emoji" font-size="20px" fill="#d9480f" text-anchor="start" style="white-space: pre;" direction="ltr">B</text></g></svg>