<svg version="1.1" xmlns="http://www.w3.org/2000/svg" viewBox="0 0 10020 719.28125" width="10020" height="719.28125">
  <!-- svg-source:excalidraw -->
  
  <defs>
    <style>
      @font-face {
        font-family: "Virgil";
        src: url("https://excalidraw.com/Virgil.woff2");
      }
      @font-face {
        font-family: "Cascadia";
        src: url("https://excalidraw.com/Cascadia.woff2");
      }
    </style>
  </defs>
  <rect x="0" y="0" width="10020" height="719.28125" fill="#fff0"></rect><g stroke-linecap="round" transform="translate(10 10) rotate(0 5000 0.5)"><path d="M-0.52 -0.26 C3022.65 -30.2, 6044.59 -29.2, 9999.32 0.22 M0.38 -0.31 C3948.03 -0.44, 7895.41 0.2, 9999.95 0.08 M10000.08 -0.06 C10000.09 0.27, 10000.05 0.48, 10000.09 0.92 M9999.97 0.01 C9999.95 0.33, 9999.98 0.72, 10000 0.99 M10000.22 1.51 C7095.77 35.76, 4193.15 34.95, -0.25 0.75 M10000.01 1.13 C7827.97 2.74, 5656.23 3.35, -0.33 0.84 M-0.04 1.01 C0 0.63, -0.06 0.15, 0.05 -0.03 M-0.04 0.95 C-0.04 0.73, -0.03 0.59, -0.05 -0.02" stroke="transparent" stroke-width="1" fill="none"></path></g><g stroke-linecap="round" transform="translate(550 526.28125) rotate(0 58.5 91.5)"><path d="M84.68 9.59 C92.37 14.26, 100.19 26.2, 105.46 36.56 C110.72 46.92, 114.63 59.06, 116.25 71.75 C117.87 84.45, 117.16 99.59, 115.17 112.72 C113.17 125.84, 109.53 140.08, 104.29 150.51 C99.04 160.93, 91.57 169.74, 83.68 175.27 C75.79 180.8, 65.49 183.91, 56.93 183.7 C48.38 183.49, 39.85 179.91, 32.35 173.99 C24.86 168.07, 17.27 158.88, 11.95 148.18 C6.64 137.47, 2.04 122.67, 0.48 109.75 C-1.09 96.83, 0.59 83.3, 2.59 70.64 C4.59 57.99, 7.27 44.32, 12.47 33.8 C17.68 23.28, 25.85 13.14, 33.82 7.54 C41.8 1.93, 51 -0.86, 60.32 0.16 C69.64 1.18, 84.14 10.07, 89.73 13.66 C95.31 17.25, 94.38 20.37, 93.82 21.67 M64.39 0.51 C72.19 0.34, 82.4 5.96, 89.47 13.01 C96.55 20.06, 102.1 31.58, 106.84 42.82 C111.58 54.06, 116.65 67.06, 117.92 80.45 C119.19 93.84, 117.47 110.66, 114.46 123.16 C111.45 135.66, 106.1 146.37, 99.87 155.46 C93.64 164.54, 85.23 173.03, 77.1 177.68 C68.97 182.32, 59.28 184.78, 51.07 183.33 C42.87 181.87, 35.1 176.12, 27.85 168.94 C20.61 161.76, 11.97 151.3, 7.59 140.24 C3.22 129.19, 2.1 115.99, 1.6 102.61 C1.09 89.22, 1.79 72.84, 4.58 59.92 C7.38 47, 12.47 34, 18.37 25.08 C24.27 16.16, 32.18 10.54, 39.99 6.4 C47.8 2.27, 61.09 0.93, 65.24 0.27 C69.38 -0.39, 64.84 0.88, 64.87 2.44" stroke="#000" stroke-width="1" fill="none"></path></g><g stroke-linecap="round" transform="translate(816 537.28125) rotate(0 49 82.5)"><path d="M35.85 4.14 C41.99 -0.06, 50.31 -0.91, 57.2 0.95 C64.09 2.81, 71.31 8.35, 77.18 15.3 C83.05 22.26, 88.79 32.28, 92.42 42.67 C96.04 53.05, 98.55 65.58, 98.92 77.62 C99.28 89.66, 97.49 103.7, 94.6 114.92 C91.71 126.13, 87.02 137.24, 81.58 144.91 C76.14 152.58, 68.66 157.67, 61.97 160.93 C55.27 164.19, 48.35 166.31, 41.42 164.48 C34.48 162.64, 26.41 156.91, 20.36 149.92 C14.32 142.94, 8.67 133.21, 5.15 122.57 C1.64 111.93, -0.33 97.95, -0.72 86.11 C-1.11 74.27, 0 62.26, 2.8 51.54 C5.6 40.82, 8.96 30.48, 16.09 21.78 C23.23 13.09, 39.33 2.52, 45.63 -0.65 C51.92 -3.81, 54 1.23, 53.88 2.81 M35.8 3.85 C42.28 -0.36, 50.92 -1.77, 57.96 0.46 C65 2.7, 72.42 9.94, 78.06 17.26 C83.7 24.58, 88.36 34.13, 91.78 44.37 C95.2 54.62, 98.33 66.77, 98.57 78.72 C98.81 90.67, 96.13 104.78, 93.2 116.07 C90.27 127.36, 86.08 138.88, 80.99 146.46 C75.89 154.05, 69.51 158.5, 62.64 161.59 C55.76 164.68, 46.84 167.14, 39.73 164.99 C32.62 162.85, 25.88 156.15, 19.98 148.71 C14.08 141.26, 7.46 131.04, 4.34 120.32 C1.22 109.6, 1.13 96.05, 1.27 84.4 C1.4 72.74, 2.51 61.25, 5.14 50.39 C7.77 39.53, 11.91 27.15, 17.04 19.25 C22.17 11.35, 32.49 5.28, 35.9 2.99 C39.32 0.7, 37.43 4.2, 37.52 5.49" stroke="#000" stroke-width="1" fill="none"></path></g><g transform="translate(602 561.28125) rotate(0 3 0.5)" stroke="none"><path fill="#000" d="M -2.53,-0.84 Q -2.53,-0.84 -2.22,-1.79 -1.91,-2.74 -0.38,-3.79 1.15,-4.83 2.84,-4.53 4.53,-4.23 5.54,-3.63 6.55,-3.03 7.30,-2.12 8.05,-1.20 8.38,0.17 8.72,1.55 8.34,2.98 7.97,4.40 6.73,5.35 5.50,6.29 3.91,6.28 2.33,6.26 0.31,4.60 -1.69,2.94 -1.92,2.49 -2.16,2.04 -2.23,1.54 -2.31,1.04 -2.22,0.55 -2.14,0.05 -1.90,-0.38 -1.66,-0.83 -1.29,-1.17 -0.92,-1.51 -0.46,-1.72 -0.00,-1.93 0.49,-1.98 1.00,-2.03 1.49,-1.92 1.98,-1.80 2.41,-1.54 2.84,-1.27 3.16,-0.89 3.49,-0.50 3.67,-0.03 3.85,0.43 3.87,0.94 3.89,1.44 3.75,1.92 3.61,2.41 3.33,2.82 3.04,3.24 2.64,3.54 2.23,3.84 1.75,4.00 1.27,4.15 0.77,4.15 0.26,4.14 -0.20,3.98 -0.68,3.81 -1.08,3.50 -1.48,3.19 -1.76,2.77 -2.03,2.35 -2.16,1.87 -2.29,1.38 -2.26,0.88 -2.23,0.37 -2.04,-0.08 -1.85,-0.55 -1.52,-0.93 -1.19,-1.31 -0.75,-1.57 -0.32,-1.83 0.17,-1.93 0.66,-2.03 1.16,-1.97 1.66,-1.91 2.12,-1.70 2.57,-1.48 2.94,-1.13 3.30,-0.78 3.30,-0.78 3.30,-0.78 3.29,0.43 3.29,1.65 3.18,0.47 3.06,-0.70 2.80,0.06 2.53,0.84 2.39,1.13 2.25,1.42 2.05,1.67 1.84,1.92 1.59,2.11 1.33,2.31 1.03,2.43 0.74,2.56 0.42,2.61 0.10,2.66 -0.21,2.64 -0.53,2.61 -0.83,2.51 -1.14,2.41 -1.41,2.23 -1.68,2.06 -1.90,1.83 -2.13,1.60 -2.29,1.32 -2.45,1.04 -2.54,0.73 -2.63,0.42 -2.64,0.10 -2.65,-0.21 -2.59,-0.52 -2.53,-0.84 -2.53,-0.84 L -2.53,-0.84 Z"></path></g><g transform="translate(580 560.28125) rotate(0 0 13)" stroke="none"><path fill="#000" d="M 1.95,0 Q 1.95,0 1.87,2.87 1.78,5.75 1.72,8.40 1.65,11.06 1.31,13.72 0.98,16.37 0.82,18.57 0.67,20.76 0.70,22.93 0.72,25.09 0.67,25.36 0.62,25.63 0.48,25.87 0.34,26.11 0.14,26.29 -0.06,26.47 -0.31,26.58 -0.56,26.69 -0.84,26.71 -1.11,26.73 -1.38,26.66 -1.64,26.59 -1.87,26.44 -2.10,26.29 -2.28,26.08 -2.45,25.86 -2.54,25.60 -2.63,25.34 -2.64,25.07 -2.64,24.79 -2.56,24.53 -2.48,24.27 -2.32,24.05 -2.15,23.83 -1.93,23.67 -1.71,23.51 -1.44,23.43 -1.18,23.35 -0.91,23.36 -0.63,23.37 -0.37,23.47 -0.12,23.56 0.09,23.74 0.30,23.91 0.45,24.14 0.59,24.38 0.66,24.64 0.72,24.91 0.70,25.18 0.67,25.46 0.56,25.71 0.45,25.96 0.27,26.16 0.08,26.37 -0.15,26.50 -0.39,26.63 -0.66,26.68 -0.93,26.73 -1.20,26.69 -1.47,26.65 -1.72,26.53 -1.96,26.41 -2.16,26.21 -2.35,26.02 -2.47,25.77 -2.59,25.52 -2.62,25.25 -2.66,24.98 -2.66,24.98 -2.66,24.98 -2.48,22.79 -2.31,20.60 -2.22,18.31 -2.13,16.03 -1.89,13.54 -1.65,11.06 -1.72,8.40 -1.78,5.75 -1.87,2.87 -1.95,0 -1.93,-0.23 -1.90,-0.46 -1.81,-0.68 -1.73,-0.91 -1.60,-1.10 -1.46,-1.29 -1.29,-1.45 -1.11,-1.61 -0.90,-1.72 -0.69,-1.83 -0.46,-1.88 -0.23,-1.94 0.00,-1.94 0.23,-1.94 0.46,-1.88 0.69,-1.83 0.90,-1.72 1.11,-1.61 1.29,-1.45 1.46,-1.29 1.60,-1.10 1.73,-0.91 1.81,-0.68 1.90,-0.46 1.93,-0.23 1.95,0.00 1.95,0.00 L 1.95,0 Z"></path></g><g transform="translate(602 615.28125) rotate(0 0 -4.5)" stroke="none"><path fill="#000" d="M -2.37,0.94 Q -2.37,0.94 -2.93,-0.53 -3.48,-2.02 -3.51,-3.97 -3.54,-5.92 -3.17,-7.26 -2.80,-8.59 -1.53,-9.62 -0.27,-10.66 1.31,-10.31 2.90,-9.97 3.64,-8.87 4.38,-7.76 3.83,-4.50 3.27,-1.25 3.08,-0.84 2.88,-0.43 2.57,-0.10 2.25,0.21 1.85,0.42 1.45,0.63 1.00,0.70 0.55,0.77 0.11,0.69 -0.33,0.62 -0.73,0.40 -1.13,0.18 -1.44,-0.14 -1.75,-0.47 -1.93,-0.88 -2.12,-1.30 -2.17,-1.75 -2.21,-2.20 -2.11,-2.64 -2.01,-3.09 -1.77,-3.47 -1.53,-3.86 -1.18,-4.15 -0.84,-4.44 -0.41,-4.60 0.00,-4.77 0.45,-4.79 0.91,-4.81 1.34,-4.68 1.78,-4.56 2.15,-4.30 2.53,-4.04 2.80,-3.68 3.07,-3.31 3.21,-2.88 3.35,-2.45 3.34,-2.00 3.34,-1.54 3.19,-1.12 3.04,-0.69 2.77,-0.33 2.49,0.02 2.11,0.27 1.73,0.52 1.29,0.64 0.86,0.76 0.40,0.73 -0.04,0.70 -0.46,0.53 -0.88,0.36 -1.22,0.06 -1.57,-0.23 -1.80,-0.62 -2.03,-1.01 -2.12,-1.45 -2.21,-1.90 -2.16,-2.35 -2.11,-2.80 -2.11,-2.80 -2.11,-2.80 -1.19,-4.59 -0.27,-6.38 0.81,-6.54 1.90,-6.70 1.54,-5.21 1.18,-3.72 1.78,-2.33 2.37,-0.94 2.45,-0.65 2.52,-0.35 2.53,-0.04 2.54,0.26 2.47,0.56 2.40,0.86 2.26,1.13 2.12,1.41 1.92,1.64 1.72,1.88 1.47,2.06 1.22,2.23 0.94,2.35 0.65,2.46 0.35,2.51 0.04,2.55 -0.26,2.52 -0.56,2.49 -0.85,2.38 -1.14,2.28 -1.40,2.11 -1.65,1.94 -1.86,1.71 -2.07,1.48 -2.22,1.21 -2.37,0.94 -2.37,0.94 L -2.37,0.94 Z"></path></g><g transform="translate(571 615.28125) rotate(0 0.5 7)" stroke="none"><path fill="#000" d="M -2.44,-0.34 Q -2.44,-0.34 -2.03,-2.34 -1.62,-4.34 -1.20,-5.72 -0.78,-7.10 -0.24,-8.13 0.29,-9.17 1.11,-9.91 1.94,-10.64 3.16,-11.01 4.38,-11.38 6.38,-11.14 8.38,-10.90 9.62,-10.12 10.87,-9.34 12.19,-7.86 13.51,-6.37 14.15,-4.23 14.80,-2.08 15.03,-0.67 15.26,0.74 15.13,3.04 14.99,5.34 14.54,6.52 14.08,7.69 12.73,9.10 11.37,10.51 9.12,11.56 6.87,12.61 4.73,13.27 2.60,13.93 0.21,14.45 -2.17,14.97 -4.52,15.69 -6.88,16.42 -7.96,16.99 -9.05,17.55 -7.67,17.46 -6.29,17.37 -5.05,17.35 -3.81,17.33 -1.66,17.64 0.47,17.96 1.81,18.83 3.15,19.71 4.19,19.94 5.22,20.17 5.64,20.34 6.06,20.50 6.41,20.80 6.76,21.09 7.00,21.48 7.23,21.87 7.33,22.31 7.43,22.75 7.38,23.20 7.33,23.66 7.15,24.07 6.96,24.48 6.65,24.81 6.33,25.14 5.93,25.36 5.53,25.57 5.09,25.65 4.64,25.72 4.19,25.65 3.74,25.58 3.34,25.37 2.94,25.16 2.62,24.83 2.31,24.50 2.12,24.09 1.93,23.68 1.87,23.23 1.82,22.77 1.92,22.33 2.02,21.89 2.25,21.50 2.48,21.11 2.83,20.81 3.17,20.52 3.59,20.35 4.01,20.18 4.47,20.15 4.92,20.12 5.36,20.24 5.80,20.36 6.17,20.62 6.55,20.87 6.83,21.23 7.10,21.59 7.25,22.02 7.40,22.45 7.40,22.91 7.40,23.36 7.26,23.79 7.11,24.22 6.84,24.58 6.57,24.95 6.19,25.20 5.82,25.46 5.38,25.58 4.94,25.71 4.49,25.68 4.03,25.66 4.03,25.66 4.03,25.66 2.00,24.93 -0.03,24.21 -1.19,23.43 -2.34,22.66 -3.94,22.51 -5.54,22.37 -7.51,21.81 -9.47,21.26 -10.76,20.25 -12.04,19.23 -12.25,17.97 -12.46,16.71 -11.77,15.63 -11.07,14.55 -9.55,13.84 -8.02,13.13 -5.57,12.20 -3.13,11.28 -0.98,10.62 1.15,9.96 2.91,9.20 4.66,8.44 6.17,7.50 7.67,6.56 8.71,5.23 9.75,3.91 9.96,2.70 10.18,1.49 10.03,0.36 9.88,-0.76 9.64,-1.89 9.40,-3.03 8.64,-3.85 7.88,-4.68 6.11,-5.61 4.34,-6.53 3.55,-5.11 2.77,-3.70 2.61,-1.67 2.44,0.34 2.37,0.63 2.29,0.92 2.14,1.18 2.00,1.44 1.80,1.66 1.60,1.88 1.35,2.04 1.10,2.21 0.82,2.31 0.54,2.41 0.24,2.44 -0.05,2.47 -0.34,2.43 -0.64,2.38 -0.91,2.27 -1.19,2.16 -1.43,1.99 -1.67,1.81 -1.87,1.58 -2.06,1.36 -2.19,1.09 -2.33,0.82 -2.39,0.53 -2.46,0.24 -2.45,-0.05 -2.44,-0.35 -2.44,-0.34 L -2.44,-0.34 Z"></path></g><g transform="translate(585 663.28125) rotate(0 6.5 4.5)" stroke="none"><path fill="#000" d="M -2.43,-0.81 Q -2.43,-0.81 -1.78,-2.51 -1.12,-4.21 -0.53,-5.45 0.05,-6.69 0.81,-7.51 1.57,-8.32 2.49,-9.30 3.40,-10.28 5.48,-11.00 7.56,-11.72 9.18,-11.44 10.81,-11.16 12.10,-10.71 13.38,-10.26 14.39,-9.71 15.40,-9.15 16.41,-8.05 17.42,-6.96 17.71,-5.67 18.00,-4.38 17.30,-3.09 16.61,-1.80 15.28,-1.08 13.95,-0.36 14.06,-1.44 14.16,-2.52 14.97,-1.60 15.78,-0.68 16.61,0.54 17.45,1.76 17.92,2.76 18.40,3.76 18.63,5.00 18.87,6.25 18.94,7.33 19.01,8.41 18.66,11.15 18.30,13.90 17.31,15.31 16.33,16.72 15.20,17.60 14.07,18.48 12.99,19.12 11.92,19.76 10.10,20.33 8.29,20.89 6.62,20.62 4.95,20.34 3.29,19.48 1.63,18.62 0.50,18.03 -0.62,17.44 -2.14,16.71 -3.66,15.98 -4.05,15.69 -4.43,15.41 -4.71,15.02 -4.99,14.63 -5.13,14.17 -5.27,13.71 -5.25,13.24 -5.23,12.76 -5.07,12.31 -4.90,11.86 -4.60,11.49 -4.30,11.12 -3.89,10.86 -3.49,10.60 -3.02,10.49 -2.55,10.38 -2.08,10.42 -1.60,10.46 -1.16,10.65 -0.72,10.84 -0.37,11.16 -0.01,11.49 0.21,11.90 0.45,12.32 0.53,12.79 0.62,13.26 0.56,13.74 0.49,14.21 0.27,14.64 0.06,15.07 -0.27,15.41 -0.61,15.74 -1.04,15.95 -1.47,16.16 -1.95,16.23 -2.42,16.29 -2.89,16.20 -3.36,16.10 -3.78,15.87 -4.20,15.63 -4.51,15.27 -4.83,14.91 -5.02,14.47 -5.21,14.03 -5.24,13.55 -5.28,13.07 -5.16,12.61 -5.04,12.15 -4.78,11.74 -4.52,11.34 -4.15,11.04 -3.77,10.74 -3.32,10.58 -2.87,10.42 -2.39,10.41 -1.91,10.40 -1.46,10.54 -1.00,10.68 -1.00,10.68 -1.00,10.68 0.49,11.47 1.99,12.25 3.15,12.81 4.30,13.37 6.16,14.07 8.02,14.76 9.26,14.19 10.49,13.62 11.50,12.96 12.51,12.31 12.66,10.54 12.82,8.77 12.76,7.43 12.70,6.09 11.99,4.83 11.27,3.57 10.09,2.40 8.90,1.23 8.42,-0.46 7.94,-2.15 9.07,-3.67 10.20,-5.20 11.29,-4.69 12.37,-4.18 11.01,-4.87 9.64,-5.56 8.37,-5.91 7.11,-6.26 6.00,-5.32 4.90,-4.38 4.16,-3.53 3.42,-2.68 2.93,-0.93 2.43,0.81 2.30,1.09 2.16,1.36 1.97,1.60 1.77,1.84 1.53,2.03 1.28,2.22 0.99,2.34 0.71,2.46 0.40,2.51 0.10,2.56 -0.20,2.53 -0.51,2.51 -0.80,2.41 -1.09,2.31 -1.35,2.15 -1.62,1.98 -1.83,1.76 -2.04,1.54 -2.20,1.27 -2.35,1.00 -2.44,0.70 -2.53,0.41 -2.54,0.10 -2.55,-0.20 -2.49,-0.50 -2.43,-0.81 -2.43,-0.81 L -2.43,-0.81 Z"></path></g><g transform="translate(623 650.28125) rotate(0 1.5 -6)" stroke="none"><path fill="#000" d="M -2.58,0.51 Q -2.58,0.51 -2.83,-1.03 -3.09,-2.58 -2.58,-4.41 -2.06,-6.24 -1.27,-7.23 -0.48,-8.22 0.81,-8.78 2.11,-9.35 4.36,-9.07 6.61,-8.80 7.42,-7.90 8.22,-7.00 8.52,-5.70 8.82,-4.40 8.49,-2.86 8.16,-1.32 7.32,-0.27 6.49,0.76 5.05,1.28 3.61,1.79 1.98,1.51 0.35,1.22 -1.19,-0.11 -2.74,-1.45 -3.58,-2.64 -4.43,-3.83 -4.90,-4.81 -5.37,-5.79 -4.64,-9.50 -3.90,-13.21 -3.58,-13.60 -3.25,-13.98 -2.81,-14.24 -2.38,-14.50 -1.89,-14.60 -1.40,-14.71 -0.89,-14.65 -0.39,-14.60 0.05,-14.38 0.51,-14.17 0.88,-13.82 1.24,-13.47 1.48,-13.03 1.71,-12.58 1.79,-12.08 1.87,-11.58 1.79,-11.08 1.70,-10.59 1.47,-10.14 1.23,-9.70 0.86,-9.35 0.49,-9.01 0.03,-8.80 -0.42,-8.59 -0.92,-8.53 -1.42,-8.48 -1.91,-8.59 -2.40,-8.70 -2.84,-8.96 -3.27,-9.23 -3.59,-9.61 -3.92,-10.00 -4.10,-10.47 -4.29,-10.94 -4.31,-11.44 -4.34,-11.94 -4.20,-12.43 -4.06,-12.91 -3.78,-13.33 -3.49,-13.75 -3.09,-14.05 -2.69,-14.36 -2.21,-14.51 -1.73,-14.67 -1.23,-14.67 -0.72,-14.67 -0.24,-14.51 0.22,-14.34 0.62,-14.04 1.02,-13.73 1.31,-13.31 1.59,-12.89 1.72,-12.41 1.85,-11.92 1.82,-11.42 1.79,-10.91 1.61,-10.44 1.42,-9.98 1.42,-9.98 1.42,-9.98 0.83,-9.05 0.24,-8.12 0.90,-6.92 1.55,-5.72 2.90,-4.90 4.24,-4.09 3.09,-3.62 1.94,-3.16 2.26,-1.83 2.58,-0.51 2.60,-0.19 2.62,0.11 2.57,0.42 2.52,0.74 2.39,1.03 2.27,1.32 2.08,1.57 1.89,1.83 1.64,2.03 1.39,2.22 1.11,2.36 0.82,2.49 0.51,2.56 0.20,2.62 -0.11,2.60 -0.43,2.59 -0.73,2.50 -1.04,2.41 -1.31,2.25 -1.58,2.09 -1.81,1.87 -2.04,1.65 -2.21,1.38 -2.38,1.11 -2.48,0.81 -2.58,0.51 -2.58,0.51 L -2.58,0.51 Z"></path></g><g transform="translate(869 594.28125) rotate(0 -1 -4.5)" stroke="none"><path fill="#000" d="M -1.87,1.87 Q -1.87,1.87 -2.78,0.94 -3.69,0.02 -4.35,-1.69 -5.02,-3.42 -5.23,-4.76 -5.44,-6.09 -5.15,-7.49 -4.85,-8.89 -3.66,-9.91 -2.48,-10.94 -0.60,-10.70 1.28,-10.46 2.24,-9.33 3.20,-8.21 3.47,-6.87 3.74,-5.53 3.47,-4.24 3.20,-2.94 2.40,-2.87 1.59,-2.80 1.90,-2.40 2.20,-1.99 2.35,-1.51 2.51,-1.03 2.50,-0.52 2.49,-0.01 2.32,0.45 2.16,0.93 1.85,1.33 1.53,1.73 1.11,2.01 0.69,2.29 0.20,2.41 -0.28,2.54 -0.78,2.51 -1.29,2.47 -1.76,2.28 -2.22,2.09 -2.61,1.75 -2.99,1.42 -3.24,0.99 -3.50,0.55 -3.60,0.05 -3.70,-0.43 -3.64,-0.94 -3.58,-1.44 -3.36,-1.89 -3.14,-2.35 -2.79,-2.71 -2.44,-3.08 -1.99,-3.31 -1.54,-3.54 -1.03,-3.61 -0.53,-3.69 -0.04,-3.60 0.45,-3.51 0.90,-3.27 1.34,-3.02 1.68,-2.65 2.03,-2.28 2.23,-1.82 2.44,-1.36 2.49,-0.85 2.53,-0.35 2.42,0.13 2.30,0.63 2.04,1.06 1.77,1.49 1.38,1.81 0.99,2.13 0.52,2.31 0.04,2.49 -0.45,2.51 -0.96,2.53 -1.44,2.39 -1.93,2.25 -2.34,1.96 -2.76,1.67 -2.76,1.67 -2.76,1.67 -2.81,-0.88 -2.86,-3.44 -2.49,-4.56 -2.13,-5.67 -1.11,-6.16 -0.09,-6.65 0.07,-5.06 0.24,-3.47 1.05,-2.67 1.87,-1.87 2.06,-1.62 2.26,-1.36 2.39,-1.07 2.52,-0.78 2.58,-0.47 2.64,-0.15 2.62,0.15 2.60,0.47 2.50,0.78 2.41,1.08 2.24,1.35 2.08,1.63 1.85,1.85 1.63,2.08 1.35,2.24 1.08,2.41 0.78,2.50 0.47,2.60 0.15,2.62 -0.15,2.64 -0.47,2.58 -0.78,2.52 -1.07,2.39 -1.36,2.26 -1.62,2.06 -1.87,1.87 -1.87,1.87 L -1.87,1.87 Z"></path></g><g transform="translate(890 586.28125) rotate(0 -3.5 9)" stroke="none"><path fill="#000" d="M 2.62,0 Q 2.62,0 2.60,1.43 2.59,2.87 2.15,5.11 1.72,7.35 0.28,8.45 -1.14,9.55 -2.20,10.49 -3.26,11.43 -4.71,12.14 -6.16,12.86 -7.64,13.67 -9.12,14.48 -11.58,14.02 -14.04,13.56 -14.83,12.07 -15.62,10.58 -15.44,9.22 -15.26,7.86 -14.25,6.26 -13.23,4.66 -11.26,4.23 -9.29,3.80 -7.21,4.15 -5.14,4.50 -3.79,5.44 -2.44,6.39 -1.39,7.38 -0.34,8.38 1.00,10.03 2.36,11.68 4.94,13.39 7.52,15.10 7.88,15.48 8.24,15.85 8.46,16.33 8.68,16.80 8.74,17.32 8.80,17.84 8.69,18.35 8.58,18.86 8.31,19.31 8.05,19.76 7.65,20.10 7.25,20.44 6.77,20.63 6.29,20.83 5.76,20.86 5.24,20.89 4.74,20.75 4.23,20.62 3.80,20.33 3.37,20.03 3.05,19.62 2.73,19.21 2.56,18.71 2.39,18.22 2.39,17.70 2.39,17.17 2.55,16.68 2.72,16.18 3.03,15.76 3.34,15.35 3.77,15.05 4.21,14.76 4.71,14.61 5.21,14.47 5.73,14.50 6.25,14.52 6.74,14.71 7.23,14.90 7.63,15.24 8.03,15.58 8.30,16.02 8.57,16.47 8.68,16.98 8.80,17.49 8.75,18.01 8.69,18.53 8.47,19.00 8.26,19.48 7.90,19.86 7.54,20.24 7.08,20.49 6.62,20.73 6.11,20.82 5.59,20.91 5.07,20.83 4.56,20.74 4.10,20.50 3.63,20.26 3.63,20.26 3.63,20.26 1.86,19.07 0.08,17.88 -1.00,17.05 -2.09,16.22 -3.31,14.63 -4.52,13.04 -5.41,12.29 -6.30,11.55 -7.62,10.93 -8.94,10.31 -9.70,9.56 -10.46,8.81 -8.73,7.93 -7.00,7.04 -5.46,5.90 -3.93,4.75 -3.26,3.81 -2.59,2.87 -2.60,1.43 -2.62,0 -2.58,-0.31 -2.54,-0.62 -2.43,-0.92 -2.32,-1.21 -2.14,-1.47 -1.96,-1.73 -1.72,-1.94 -1.48,-2.15 -1.20,-2.30 -0.92,-2.45 -0.62,-2.52 -0.31,-2.60 0.00,-2.60 0.31,-2.60 0.62,-2.52 0.92,-2.45 1.20,-2.30 1.48,-2.15 1.72,-1.94 1.96,-1.73 2.14,-1.47 2.32,-1.21 2.43,-0.92 2.54,-0.62 2.58,-0.31 2.62,0.00 2.62,0.00 L 2.62,0 Z"></path></g><g transform="translate(870 645.28125) rotate(0 -1.5 -3.5)" stroke="none"><path fill="#000" d="M -1.65,1.65 Q -1.65,1.65 -2.56,0.78 -3.47,-0.08 -4.13,-1.39 -4.79,-2.70 -5.15,-4.12 -5.52,-5.54 -5.55,-5.87 -5.58,-6.19 -5.54,-6.51 -5.49,-6.83 -5.37,-7.13 -5.25,-7.43 -5.06,-7.70 -4.88,-7.96 -4.63,-8.17 -4.38,-8.38 -4.09,-8.52 -3.80,-8.67 -3.49,-8.74 -3.17,-8.81 -2.85,-8.81 -2.52,-8.80 -2.21,-8.72 -1.90,-8.63 -1.61,-8.48 -1.33,-8.32 -1.09,-8.10 -0.85,-7.88 -0.67,-7.61 -0.49,-7.34 -0.38,-7.04 -0.28,-6.73 0.31,-5.17 0.90,-3.62 1.01,-3.25 1.11,-2.88 1.10,-2.50 1.08,-2.12 0.94,-1.76 0.80,-1.40 0.56,-1.11 0.31,-0.81 -0.01,-0.61 -0.33,-0.41 -0.71,-0.33 -1.08,-0.24 -1.46,-0.28 -1.84,-0.32 -2.19,-0.48 -2.54,-0.63 -2.82,-0.90 -3.10,-1.16 -3.29,-1.49 -3.47,-1.83 -3.53,-2.21 -3.60,-2.59 -3.54,-2.97 -3.48,-3.34 -3.30,-3.68 -3.13,-4.02 -2.85,-4.29 -2.57,-4.56 -2.23,-4.72 -1.88,-4.88 -1.50,-4.93 -1.12,-4.97 -0.74,-4.89 -0.37,-4.81 -0.04,-4.62 0.28,-4.42 0.53,-4.13 0.78,-3.84 0.93,-3.49 1.07,-3.13 1.09,-2.75 1.12,-2.37 1.02,-2.00 0.92,-1.63 0.71,-1.31 0.49,-0.99 0.19,-0.76 -0.10,-0.52 -0.46,-0.40 -0.83,-0.27 -1.21,-0.27 -1.59,-0.27 -1.96,-0.38 -2.32,-0.50 -2.63,-0.73 -2.94,-0.96 -3.15,-1.28 -3.37,-1.59 -3.37,-1.59 -3.37,-1.59 -4.44,-3.57 -5.52,-5.54 -5.55,-5.87 -5.58,-6.19 -5.54,-6.51 -5.49,-6.83 -5.37,-7.13 -5.25,-7.43 -5.06,-7.69 -4.88,-7.96 -4.63,-8.17 -4.38,-8.38 -4.09,-8.52 -3.80,-8.67 -3.49,-8.74 -3.17,-8.81 -2.85,-8.81 -2.52,-8.80 -2.21,-8.72 -1.90,-8.63 -1.61,-8.48 -1.33,-8.32 -1.09,-8.10 -0.85,-7.88 -0.67,-7.61 -0.49,-7.34 -0.38,-7.04 -0.28,-6.73 -0.25,-6.14 -0.23,-5.55 -0.10,-4.45 0.02,-3.36 0.84,-2.50 1.65,-1.65 1.82,-1.43 2.00,-1.21 2.11,-0.95 2.23,-0.69 2.28,-0.41 2.33,-0.14 2.31,0.14 2.30,0.42 2.21,0.69 2.13,0.96 1.98,1.20 1.84,1.44 1.64,1.64 1.44,1.84 1.20,1.98 0.96,2.13 0.69,2.21 0.42,2.30 0.14,2.31 -0.14,2.33 -0.41,2.28 -0.69,2.23 -0.95,2.11 -1.21,2.00 -1.43,1.82 -1.65,1.65 -1.65,1.65 L -1.65,1.65 Z"></path></g><g transform="translate(890 630.28125) rotate(0 -4 22)" stroke="none"><path fill="#000" d="M 1.88,0 Q 1.88,0 1.89,1.72 1.90,3.45 1.53,6.28 1.16,9.12 0.39,12.38 -0.37,15.64 -0.99,19.24 -1.61,22.84 -2.18,25.84 -2.74,28.84 -3.28,31.55 -3.82,34.26 -4.03,36.22 -4.23,38.18 -4.22,39.59 -4.21,41.01 -6.87,41.45 -9.53,41.89 -9.58,41.61 -9.62,41.33 -9.58,41.06 -9.53,40.78 -9.40,40.53 -9.27,40.28 -9.06,40.09 -8.86,39.89 -8.60,39.77 -8.35,39.65 -8.07,39.62 -7.79,39.59 -7.51,39.65 -7.24,39.71 -7.00,39.86 -6.76,40.00 -6.57,40.22 -6.39,40.43 -6.29,40.69 -6.18,40.95 -6.17,41.24 -6.15,41.52 -6.22,41.79 -6.30,42.06 -6.46,42.29 -6.62,42.53 -6.84,42.70 -7.06,42.87 -7.33,42.96 -7.60,43.05 -7.88,43.05 -8.16,43.05 -8.43,42.96 -8.69,42.87 -8.92,42.70 -9.14,42.53 -9.30,42.30 -9.46,42.06 -9.54,41.79 -9.61,41.52 -9.60,41.24 -9.58,40.96 -9.48,40.70 -9.37,40.44 -9.19,40.22 -9.01,40.01 -8.77,39.86 -8.53,39.71 -8.25,39.65 -7.98,39.59 -7.70,39.62 -7.42,39.65 -7.16,39.77 -6.91,39.89 -6.70,40.08 -6.50,40.28 -6.36,40.52 -6.23,40.77 -6.23,40.77 -6.23,40.77 -6.87,40.76 -7.50,40.75 -7.31,39.31 -7.11,37.86 -6.88,35.79 -6.64,33.72 -6.15,31.02 -5.66,28.31 -5.16,25.33 -4.66,22.35 -4.11,18.65 -3.56,14.95 -2.93,11.85 -2.31,8.75 -2.11,6.10 -1.90,3.44 -1.89,1.72 -1.88,0 -1.85,-0.22 -1.82,-0.45 -1.74,-0.66 -1.66,-0.87 -1.53,-1.06 -1.40,-1.24 -1.23,-1.39 -1.06,-1.54 -0.86,-1.65 -0.66,-1.75 -0.44,-1.81 -0.22,-1.86 0.00,-1.86 0.22,-1.86 0.44,-1.81 0.66,-1.75 0.86,-1.65 1.06,-1.54 1.23,-1.39 1.40,-1.24 1.53,-1.06 1.66,-0.87 1.74,-0.66 1.82,-0.45 1.85,-0.22 1.88,0.00 1.88,0.00 L 1.88,0 Z"></path></g><g transform="translate(898 632.28125) rotate(0 -1.5 11)" stroke="none"><path fill="#000" d="M 1.17,-2.35 Q 1.17,-2.35 2.35,-1.76 3.53,-1.17 4.44,-0.33 5.35,0.50 5.87,1.81 6.39,3.12 6.54,4.24 6.69,5.37 6.80,7.02 6.92,8.67 6.20,11.15 5.48,13.64 4.82,14.62 4.17,15.60 3.26,16.34 2.35,17.08 0.73,17.54 -0.89,18.00 -2.04,18.09 -3.19,18.17 -5.56,16.57 -7.93,14.96 -7.33,15.71 -6.73,16.45 -7.05,16.21 -7.37,15.98 -7.62,15.67 -7.87,15.37 -8.04,15.01 -8.22,14.65 -8.30,14.27 -8.38,13.88 -8.36,13.48 -8.35,13.09 -8.24,12.71 -8.13,12.33 -7.94,11.98 -7.74,11.64 -7.47,11.35 -7.19,11.07 -6.86,10.85 -6.53,10.64 -6.15,10.51 -5.78,10.39 -5.38,10.35 -4.99,10.32 -4.60,10.38 -4.21,10.44 -3.84,10.60 -3.48,10.75 -1.33,11.15 0.81,11.55 1.86,12.44 2.92,13.34 3.43,14.74 3.95,16.13 4.75,18.34 5.56,20.54 5.13,21.95 4.70,23.35 3.70,24.08 2.71,24.82 0.97,25.04 -0.76,25.25 -1.96,25.29 -3.16,25.33 -4.92,25.34 -6.68,25.35 -7.21,25.27 -7.75,25.18 -8.23,24.92 -8.71,24.67 -9.08,24.28 -9.46,23.88 -9.69,23.39 -9.91,22.90 -9.97,22.36 -10.03,21.82 -9.92,21.28 -9.80,20.75 -9.52,20.29 -9.24,19.82 -8.83,19.47 -8.41,19.12 -7.91,18.92 -7.40,18.72 -6.86,18.69 -6.32,18.66 -5.79,18.80 -5.27,18.95 -4.82,19.25 -4.37,19.56 -4.04,19.99 -3.71,20.42 -3.54,20.93 -3.36,21.45 -3.36,21.99 -3.36,22.54 -3.54,23.05 -3.71,23.57 -4.04,24.00 -4.37,24.43 -4.82,24.74 -5.27,25.04 -5.79,25.19 -6.31,25.33 -6.86,25.30 -7.40,25.27 -7.90,25.07 -8.41,24.87 -8.82,24.52 -9.24,24.17 -9.52,23.70 -9.80,23.24 -9.91,22.71 -10.03,22.18 -9.97,21.64 -9.91,21.10 -9.69,20.60 -9.46,20.11 -9.09,19.72 -8.71,19.32 -8.23,19.07 -7.75,18.81 -7.22,18.72 -6.68,18.64 -6.68,18.64 -6.68,18.64 -4.42,18.65 -2.15,18.66 -0.90,18.71 0.35,18.75 -0.19,19.76 -0.75,20.77 -1.15,19.15 -1.56,17.53 -3.02,17.29 -4.49,17.05 -5.61,16.75 -6.73,16.45 -7.05,16.21 -7.37,15.98 -7.62,15.67 -7.87,15.37 -8.04,15.01 -8.22,14.65 -8.30,14.27 -8.38,13.88 -8.36,13.48 -8.35,13.09 -8.24,12.71 -8.13,12.33 -7.94,11.98 -7.74,11.64 -7.47,11.35 -7.19,11.07 -6.86,10.85 -6.53,10.64 -6.15,10.51 -5.78,10.39 -5.38,10.35 -4.99,10.32 -4.60,10.38 -4.21,10.44 -3.84,10.59 -3.48,10.75 -2.95,11.28 -2.41,11.81 -1.10,11.39 0.21,10.98 0.62,9.88 1.03,8.77 1.03,7.34 1.04,5.91 1.05,4.69 1.06,3.47 -0.05,2.91 -1.17,2.35 -1.44,2.17 -1.70,2.00 -1.92,1.77 -2.13,1.53 -2.28,1.25 -2.44,0.98 -2.52,0.67 -2.60,0.36 -2.61,0.05 -2.61,-0.26 -2.54,-0.57 -2.47,-0.88 -2.33,-1.16 -2.19,-1.45 -1.98,-1.69 -1.78,-1.93 -1.52,-2.12 -1.26,-2.30 -0.97,-2.42 -0.67,-2.54 -0.36,-2.58 -0.05,-2.63 0.26,-2.59 0.57,-2.56 0.87,-2.45 1.17,-2.35 1.17,-2.35 L 1.17,-2.35 Z"></path></g><g stroke-linecap="round"><g transform="translate(626 569.28125) rotate(0 111 11)"><path d="M-0.8 0.02 C36.49 3.82, 185.59 18.11, 222.92 21.8 M0.98 -1.01 C38.27 3.06, 185.45 19.14, 222.45 23.24" stroke="#1864ab" stroke-width="1" fill="none"></path></g><g transform="translate(626 569.28125) rotate(0 111 11)"><path d="M193.34 31.88 C199.67 30.81, 206.9 26.28, 222.77 23.75 M192.52 29.84 C205.19 27.82, 216.01 25.83, 222.88 22.93" stroke="#1864ab" stroke-width="1" fill="none"></path></g><g transform="translate(626 569.28125) rotate(0 111 11)"><path d="M195.58 11.49 C201.24 15.05, 207.95 15.16, 222.77 23.75 M194.76 9.44 C206.42 15.42, 216.36 21.46, 222.88 22.93" stroke="#1864ab" stroke-width="1" fill="none"></path></g></g><g stroke-linecap="round"><g transform="translate(622 608.28125) rotate(0 116 13.5)"><path d="M0.53 -1.12 C39.33 3.37, 194.25 21.55, 233.02 26.18 M-0.65 0.91 C38.06 5.6, 193.67 22.8, 232.6 27.29" stroke="#1864ab" stroke-width="1" fill="none"></path></g><g transform="translate(622 608.28125) rotate(0 116 13.5)"><path d="M201.58 36.02 C211.42 33.79, 221.57 29.52, 233.01 28.95 M202.68 34.61 C214.08 32.23, 224.98 28.97, 232.76 27.26" stroke="#1864ab" stroke-width="1" fill="none"></path></g><g transform="translate(622 608.28125) rotate(0 116 13.5)"><path d="M203.88 15.63 C212.86 19.91, 222.27 22.15, 233.01 28.95 M204.98 14.22 C215.59 19.65, 225.6 24.21, 232.76 27.26" stroke="#1864ab" stroke-width="1" fill="none"></path></g></g><g transform="translate(677 547.28125) rotate(0 8.5 -6.5)" stroke="none"><path fill="#000000" d="M -2.32,-0.46 Q -2.32,-0.46 -2.03,-1.90 -1.75,-3.34 -1.21,-5.36 -0.68,-7.39 0.21,-9.53 1.10,-11.67 1.70,-12.96 2.29,-14.25 2.76,-15.53 3.23,-16.80 3.76,-17.84 4.29,-18.88 4.88,-20.26 5.47,-21.65 6.52,-22.31 7.58,-22.98 9.07,-22.90 10.56,-22.83 11.92,-21.98 13.28,-21.13 14.25,-19.96 15.23,-18.79 15.66,-16.42 16.09,-14.05 16.61,-11.35 17.13,-8.64 17.33,-6.17 17.53,-3.69 17.90,-1.92 18.26,-0.15 18.47,1.59 18.69,3.34 19.24,4.98 19.79,6.62 19.83,6.96 19.87,7.30 19.80,7.63 19.73,7.96 19.55,8.25 19.38,8.55 19.12,8.77 18.86,8.99 18.55,9.12 18.23,9.25 17.89,9.27 17.55,9.29 17.22,9.20 16.89,9.11 16.61,8.92 16.33,8.73 16.12,8.46 15.91,8.19 15.80,7.87 15.69,7.55 15.69,7.20 15.69,6.86 15.79,6.54 15.90,6.22 16.11,5.94 16.31,5.67 16.59,5.48 16.87,5.29 17.20,5.19 17.53,5.10 17.87,5.12 18.21,5.13 18.53,5.26 18.84,5.38 19.10,5.60 19.37,5.82 19.54,6.11 19.72,6.40 19.80,6.74 19.87,7.07 19.84,7.41 19.80,7.75 19.66,8.06 19.52,8.37 19.28,8.61 19.05,8.86 18.75,9.02 18.45,9.19 18.11,9.24 17.78,9.30 17.44,9.25 17.11,9.19 16.80,9.04 16.50,8.88 16.27,8.63 16.03,8.38 15.89,8.08 15.74,7.77 15.74,7.77 15.74,7.77 15.26,5.77 14.78,3.77 14.65,2.22 14.51,0.67 14.05,-1.25 13.59,-3.19 13.19,-5.37 12.80,-7.56 11.93,-10.41 11.06,-13.26 10.92,-14.49 10.77,-15.72 9.84,-16.98 8.91,-18.25 8.03,-16.72 7.15,-15.20 6.53,-13.77 5.91,-12.35 5.29,-11.35 4.67,-10.34 4.07,-8.45 3.47,-6.55 3.18,-4.48 2.90,-2.40 2.61,-0.97 2.32,0.46 2.23,0.73 2.14,1.00 1.99,1.24 1.83,1.48 1.63,1.68 1.42,1.88 1.18,2.02 0.93,2.17 0.66,2.25 0.38,2.33 0.10,2.34 -0.18,2.35 -0.46,2.30 -0.74,2.24 -0.99,2.12 -1.25,2.00 -1.47,1.82 -1.70,1.64 -1.87,1.41 -2.04,1.19 -2.15,0.92 -2.27,0.66 -2.31,0.38 -2.36,0.10 -2.34,-0.17 -2.32,-0.46 -2.32,-0.46 L -2.32,-0.46 Z"></path></g><g transform="translate(680 545.28125) rotate(0 5 0)" stroke="none"><path fill="#000000" d="M 0,-2.39 Q 0,-2.39 1.72,-2.35 3.44,-2.31 4.75,-2.34 6.06,-2.37 7.83,-2.40 9.59,-2.43 9.98,-2.37 10.37,-2.31 10.72,-2.12 11.07,-1.94 11.34,-1.65 11.61,-1.36 11.77,-1.01 11.94,-0.65 11.98,-0.26 12.02,0.13 11.94,0.51 11.86,0.90 11.65,1.24 11.45,1.57 11.15,1.83 10.85,2.09 10.48,2.23 10.11,2.38 9.72,2.40 9.33,2.42 8.94,2.31 8.56,2.21 8.24,1.99 7.91,1.77 7.67,1.45 7.43,1.14 7.31,0.76 7.18,0.39 7.18,-0.00 7.18,-0.39 7.31,-0.76 7.43,-1.14 7.67,-1.45 7.91,-1.77 8.24,-1.99 8.57,-2.21 8.95,-2.31 9.33,-2.42 9.72,-2.40 10.11,-2.38 10.48,-2.23 10.85,-2.08 11.15,-1.83 11.45,-1.57 11.65,-1.24 11.86,-0.90 11.94,-0.51 12.02,-0.13 11.98,0.26 11.94,0.65 11.77,1.01 11.61,1.36 11.34,1.65 11.06,1.94 10.72,2.12 10.37,2.31 9.98,2.37 9.59,2.43 9.59,2.43 9.59,2.43 7.83,2.40 6.06,2.37 4.75,2.34 3.44,2.31 1.72,2.35 0,2.39 -0.28,2.36 -0.57,2.32 -0.84,2.22 -1.11,2.12 -1.35,1.95 -1.58,1.79 -1.77,1.57 -1.97,1.36 -2.10,1.10 -2.23,0.84 -2.30,0.56 -2.37,0.28 -2.37,-0.00 -2.37,-0.28 -2.30,-0.56 -2.23,-0.84 -2.10,-1.10 -1.97,-1.36 -1.77,-1.57 -1.58,-1.79 -1.35,-1.95 -1.11,-2.12 -0.84,-2.22 -0.57,-2.32 -0.28,-2.36 0.00,-2.39 0.00,-2.39 L 0,-2.39 Z"></path></g><g transform="translate(806 533.28125) rotate(0 2 15)" stroke="none"><path fill="#000000" d="M 2.14,0 Q 2.14,0 2.03,3.73 1.92,7.47 1.83,9.92 1.75,12.37 1.69,15.43 1.63,18.48 1.29,20.75 0.95,23.01 0.61,24.39 0.26,25.77 0.16,27.58 0.06,29.39 0.10,29.27 0.15,29.16 0.10,29.41 0.04,29.66 -0.06,29.89 -0.18,30.11 -0.34,30.31 -0.51,30.50 -0.71,30.65 -0.92,30.80 -1.16,30.90 -1.40,31.00 -1.65,31.03 -1.90,31.07 -2.16,31.04 -2.41,31.02 -2.65,30.93 -2.89,30.85 -3.11,30.71 -3.32,30.57 -3.49,30.38 -3.67,30.19 -3.79,29.97 -3.91,29.74 -3.98,29.50 -4.05,29.25 -4.05,29.00 -4.06,28.74 -4.17,26.37 -4.28,23.99 -4.26,22.27 -4.23,20.54 -4.17,18.66 -4.11,16.78 -4.05,14.83 -3.99,12.87 -3.64,10.76 -3.28,8.65 -3.24,7.53 -3.20,6.41 -2.85,5.33 -2.51,4.25 -1.98,2.82 -1.45,1.39 0.54,0.46 2.53,-0.45 3.81,-0.60 5.10,-0.75 6.57,-0.82 8.05,-0.90 10.46,1.52 12.87,3.94 11.63,5.06 10.40,6.17 9.35,7.15 8.30,8.12 7.39,8.98 6.47,9.83 5.42,11.13 4.37,12.42 3.27,13.49 2.17,14.55 1.90,14.81 1.63,15.07 1.30,15.26 0.98,15.45 0.62,15.55 0.26,15.66 -0.11,15.67 -0.48,15.69 -0.85,15.61 -1.22,15.54 -1.56,15.38 -1.90,15.22 -2.19,14.98 -2.48,14.74 -2.70,14.44 -2.93,14.14 -3.08,13.80 -3.22,13.45 -3.29,13.08 -3.35,12.71 -3.32,12.34 -3.29,11.96 -3.17,11.61 -3.05,11.25 -2.85,10.94 -2.65,10.62 -0.44,10.67 1.76,10.71 3.71,11.04 5.65,11.38 7.05,11.93 8.46,12.48 9.77,13.19 11.08,13.90 12.02,15.20 12.96,16.49 13.29,17.79 13.62,19.08 13.73,20.21 13.85,21.34 13.93,23.00 14.02,24.66 13.03,27.01 12.03,29.37 10.51,30.48 8.99,31.58 7.77,31.81 6.55,32.03 4.20,32.06 1.86,32.09 0.37,31.75 -1.12,31.41 -4.06,30.77 -7.00,30.13 -7.49,29.99 -7.97,29.85 -8.39,29.57 -8.80,29.29 -9.11,28.88 -9.41,28.48 -9.57,28.00 -9.73,27.53 -9.73,27.02 -9.73,26.52 -9.56,26.04 -9.40,25.56 -9.09,25.16 -8.79,24.76 -8.37,24.48 -7.95,24.20 -7.46,24.07 -6.98,23.94 -6.48,23.97 -5.97,23.99 -5.51,24.18 -5.04,24.37 -4.66,24.70 -4.27,25.03 -4.02,25.46 -3.76,25.89 -3.65,26.38 -3.54,26.88 -3.60,27.38 -3.66,27.88 -3.87,28.33 -4.08,28.79 -4.43,29.16 -4.78,29.52 -5.23,29.75 -5.67,29.99 -6.17,30.07 -6.67,30.15 -7.16,30.06 -7.66,29.98 -8.11,29.74 -8.55,29.50 -8.89,29.14 -9.24,28.77 -9.45,28.31 -9.66,27.85 -9.71,27.35 -9.76,26.85 -9.65,26.36 -9.54,25.87 -9.28,25.44 -9.02,25.01 -8.63,24.68 -8.25,24.36 -7.78,24.17 -7.31,23.99 -6.81,23.96 -6.30,23.94 -6.31,23.94 -6.31,23.94 -4.18,24.53 -2.05,25.12 -0.11,25.48 1.83,25.85 3.81,25.76 5.79,25.68 6.98,25.53 8.18,25.38 8.05,24.24 7.93,23.10 7.89,21.66 7.84,20.21 7.25,19.07 6.67,17.92 4.78,17.40 2.90,16.89 1.47,16.45 0.04,16.01 -0.96,15.47 -1.97,14.93 0.10,14.74 2.17,14.55 1.90,14.81 1.63,15.07 1.30,15.26 0.98,15.45 0.62,15.55 0.26,15.66 -0.11,15.67 -0.48,15.69 -0.85,15.61 -1.22,15.54 -1.56,15.38 -1.90,15.22 -2.19,14.98 -2.48,14.74 -2.70,14.44 -2.93,14.14 -3.08,13.80 -3.22,13.45 -3.29,13.08 -3.35,12.71 -3.32,12.34 -3.29,11.96 -3.17,11.61 -3.05,11.25 -2.85,10.94 -2.65,10.62 -1.66,9.82 -0.67,9.03 0.78,7.27 2.23,5.50 3.15,4.56 4.07,3.62 5.82,2.41 7.57,1.20 8.29,3.06 9.00,4.92 7.92,4.88 6.83,4.85 5.55,4.81 4.28,4.76 3.15,4.62 2.03,4.47 1.43,5.69 0.84,6.91 0.63,8.05 0.43,9.19 0.21,11.03 -0.00,12.88 0.05,14.83 0.11,16.78 0.17,18.66 0.23,20.54 0.27,22.26 0.30,23.97 0.27,25.31 0.25,26.65 0.20,27.90 0.15,29.16 0.10,29.41 0.04,29.66 -0.06,29.88 -0.18,30.11 -0.34,30.31 -0.51,30.50 -0.71,30.65 -0.92,30.80 -1.16,30.90 -1.39,31.00 -1.65,31.03 -1.90,31.07 -2.16,31.04 -2.41,31.02 -2.65,30.93 -2.89,30.85 -3.10,30.71 -3.32,30.57 -3.49,30.38 -3.67,30.19 -3.79,29.97 -3.91,29.75 -3.98,29.50 -4.05,29.25 -4.05,29.00 -4.06,28.74 -3.86,27.91 -3.65,27.08 -3.35,25.87 -3.05,24.65 -2.58,23.62 -2.10,22.59 -1.87,20.53 -1.63,18.48 -1.69,15.43 -1.75,12.37 -1.83,9.92 -1.92,7.47 -2.03,3.73 -2.14,0 -2.10,-0.25 -2.07,-0.51 -1.98,-0.75 -1.89,-0.99 -1.74,-1.20 -1.60,-1.41 -1.40,-1.59 -1.21,-1.76 -0.98,-1.88 -0.75,-2.00 -0.50,-2.06 -0.25,-2.12 0.00,-2.12 0.25,-2.12 0.50,-2.06 0.75,-2.00 0.98,-1.88 1.21,-1.76 1.40,-1.59 1.60,-1.41 1.74,-1.20 1.89,-0.99 1.98,-0.75 2.07,-0.51 2.10,-0.25 2.14,0.00 2.14,0.00 L 2.14,0 Z"></path></g></svg>