<svg version="1.1" xmlns="http://www.w3.org/2000/svg" viewBox="0 0 10020 739.90625" width="10020" height="739.90625">
  <!-- svg-source:excalidraw -->
  
  <defs>
    <style>
      @font-face {
        font-family: "Virgil";
        src: url("https://excalidraw.com/Virgil.woff2");
      }
      @font-face {
        font-family: "Cascadia";
        src: url("https://excalidraw.com/Cascadia.woff2");
      }
    </style>
  </defs>
  <rect x="0" y="0" width="10020" height="739.90625" fill="#fff0"></rect><g stroke-linecap="round" transform="translate(10 10) rotate(0 5000 0.5)"><path d="M-0.52 -0.26 C3022.65 -30.2, 6044.59 -29.2, 9999.32 0.22 M0.38 -0.31 C3948.03 -0.44, 7895.41 0.2, 9999.95 0.08 M10000.08 -0.06 C10000.09 0.27, 10000.05 0.48, 10000.09 0.92 M9999.97 0.01 C9999.95 0.33, 9999.98 0.72, 10000 0.99 M10000.22 1.51 C7095.77 35.76, 4193.15 34.95, -0.25 0.75 M10000.01 1.13 C7827.97 2.74, 5656.23 3.35, -0.33 0.84 M-0.04 1.01 C0 0.63, -0.06 0.15, 0.05 -0.03 M-0.04 0.95 C-0.04 0.73, -0.03 0.59, -0.05 -0.02" stroke="transparent" stroke-width="1" fill="none"></path></g><g stroke-linecap="round"><g transform="translate(827 529.90625) rotate(0 1 100)"><path d="M1.05 -0.78 C1.28 32.57, 0.46 166.82, 0.8 200.39 M0.14 1.42 C0.77 34.37, 2.43 165.6, 2.88 198.47" stroke="#000" stroke-width="1" fill="none"></path></g></g><g stroke-linecap="round"><g transform="translate(709 629.90625) rotate(0 121.5 -1.5)"><path d="M-0.33 -0.43 C40.26 -0.95, 202.22 -2.43, 242.88 -2.8 M1.69 -1.71 C42.17 -2.64, 201.62 -4.3, 241.87 -4.82" stroke="#000" stroke-width="1" fill="none"></path></g></g><g stroke-linecap="round" transform="translate(765 561.90625) rotate(0 61.5 65)"><path d="M48.88 2.05 C57.68 -0.85, 70.89 -0.75, 80.01 1.84 C89.13 4.44, 97 10.39, 103.6 17.64 C110.2 24.89, 116.49 35.52, 119.62 45.35 C122.75 55.18, 123.76 66.64, 122.39 76.63 C121.02 86.61, 117.24 97.38, 111.38 105.27 C105.53 113.15, 95.95 119.69, 87.24 123.92 C78.53 128.15, 68.76 131.14, 59.12 130.66 C49.49 130.18, 37.57 126.23, 29.42 121.03 C21.26 115.84, 15.15 108.01, 10.18 99.49 C5.2 90.97, 0.48 79.9, -0.43 69.93 C-1.34 59.95, 0.79 48.83, 4.72 39.65 C8.65 30.47, 15.31 21.2, 23.15 14.85 C31 8.51, 46.3 3.9, 51.82 1.59 C57.33 -0.71, 56.02 0.16, 56.24 1 M83.16 2.99 C92.23 5.62, 101.77 14.35, 108.22 22.03 C114.66 29.71, 119.57 39.66, 121.85 49.09 C124.12 58.52, 124.42 68.69, 121.86 78.63 C119.3 88.57, 112.63 101.07, 106.5 108.76 C100.37 116.45, 93.68 121.14, 85.08 124.77 C76.47 128.4, 64.31 131.45, 54.86 130.53 C45.42 129.62, 36.45 125.25, 28.4 119.3 C20.35 113.35, 11.34 103.92, 6.56 94.83 C1.78 85.75, -0.4 74.53, -0.28 64.77 C-0.16 55.02, 3.09 45.19, 7.29 36.31 C11.49 27.43, 17.39 17.46, 24.94 11.51 C32.48 5.56, 43.06 2.08, 52.53 0.63 C62 -0.82, 76.62 2.23, 81.75 2.82 C86.88 3.4, 83.32 2.77, 83.32 4.16" stroke="#000" stroke-width="1" fill="none"></path></g><g stroke-linecap="round"><g transform="translate(768 645.90625) rotate(0 58 -19.5)"><path d="M0.13 0.28 C19.58 -6.28, 97.77 -32.67, 116.92 -39.23 M-1.26 -0.63 C18.09 -7, 96.68 -31.61, 116.46 -37.81" stroke="#d9480f" stroke-width="1" fill="none"></path></g></g><g stroke-linecap="round"><g transform="translate(849 567.90625) rotate(0 -22 59)"><path d="M0.32 -0.26 C-6.97 19.65, -36.39 99.17, -43.95 118.85 M-0.97 -1.44 C-8.39 18.19, -37.92 97.09, -44.87 117.17" stroke="#d9480f" stroke-width="1" fill="none"></path></g></g><g stroke-linecap="round"><g transform="translate(785 574.90625) rotate(0 42 50)"><path d="M-0.4 0.8 C13.62 17.66, 69.77 83.7, 83.92 100.26 M1.59 0.17 C15.46 16.74, 69.2 81.38, 82.93 98.27" stroke="#d9480f" stroke-width="1" fill="none"></path></g></g><g stroke-linecap="round"><g transform="translate(801 685.90625) rotate(0 32.5 -3)"><path d="M0.3 -0.1 C10.99 -1.19, 54.25 -5.24, 65.21 -6.22 M-1 -1.2 C9.45 -2.13, 53.24 -4.22, 64.37 -4.79" stroke="#1864ab" stroke-width="1" fill="none"></path></g></g><g stroke-linecap="round"><g transform="translate(866 679.90625) rotate(0 8 -35.5)"><path d="M-0.83 1.02 C1.97 -11, 12.99 -59.16, 15.62 -71.18 M0.94 0.51 C3.64 -11.4, 11.75 -58.02, 14.48 -69.74" stroke="#1864ab" stroke-width="1" fill="none"></path></g></g><g stroke-linecap="round"><g transform="translate(847 567.90625) rotate(0 18.5 18.5)"><path d="M-1.12 -0.39 C5.06 5.8, 30.24 30.91, 36.53 37.08 M0.49 -1.64 C6.53 4.76, 29.47 32.09, 35.34 38.66" stroke="#1864ab" stroke-width="1" fill="none"></path></g></g><g stroke-linecap="round"><g transform="translate(845 564.90625) rotate(0 -28 5)"><path d="M0.65 -0.93 C-8.33 0.62, -45.28 7.95, -54.91 9.95 M-0.47 1.19 C-9.42 2.89, -46.22 10.12, -55.29 11.47" stroke="#1864ab" stroke-width="1" fill="none"></path></g></g><g stroke-linecap="round"><g transform="translate(790 575.90625) rotate(0 -11.5 36)"><path d="M0.88 0.08 C-3.15 11.91, -19.88 58.85, -23.92 70.83 M-0.12 -0.93 C-3.8 11.02, -17.67 59.39, -21.69 71.75" stroke="#1864ab" stroke-width="1" fill="none"></path></g></g><g stroke-linecap="round"><g transform="translate(767 641.90625) rotate(0 17.5 21.5)"><path d="M-0.43 -0.45 C5.26 6.59, 28.63 35.91, 34.39 43.3 M1.55 -1.74 C7.62 5.45, 30.94 34.04, 36.78 41.34" stroke="#1864ab" stroke-width="1" fill="none"></path></g></g><g transform="translate(901 590.90625) rotate(0 9 12.5)"><text x="0" y="18" font-family="Virgil, Segoe UI Emoji" font-size="20px" fill="#d9480f" text-anchor="start" style="white-space: pre;" direction="ltr">z1</text></g><g transform="translate(856 539.90625) rotate(0 13.5 12.5)"><text x="0" y="18" font-family="Virgil, Segoe UI Emoji" font-size="20px" fill="#d9480f" text-anchor="start" style="white-space: pre;" direction="ltr">z2</text></g><g transform="translate(781 547.90625) rotate(0 13 12.5)"><text x="0" y="18" font-family="Virgil, Segoe UI Emoji" font-size="20px" fill="#d9480f" text-anchor="start" style="white-space: pre;" direction="ltr">z3</text></g><g transform="translate(740 636.90625) rotate(0 12.5 12.5)"><text x="0" y="18" font-family="Virgil, Segoe UI Emoji" font-size="20px" fill="#d9480f" text-anchor="start" style="white-space: pre;" direction="ltr">z4</text></g><g transform="translate(789 696.90625) rotate(0 12.5 12.5)"><text x="0" y="18" font-family="Virgil, Segoe UI Emoji" font-size="20px" fill="#d9480f" text-anchor="start" style="white-space: pre;" direction="ltr">z5</text></g><g transform="translate(878 682.90625) rotate(0 12.5 12.5)"><text x="0" y="18" font-family="Virgil, Segoe UI Emoji" font-size="20px" fill="#d9480f" text-anchor="start" style="white-space: pre;" direction="ltr">z6</text></g><g transform="translate(994 544.90625) rotate(0 97 50)"><text x="0" y="18" font-family="Virgil, Segoe UI Emoji" font-size="20px" fill="#d9480f" text-anchor="start" style="white-space: pre;" direction="ltr">Le 6 radici si </text><text x="0" y="43" font-family="Virgil, Segoe UI Emoji" font-size="20px" fill="#d9480f" text-anchor="start" style="white-space: pre;" direction="ltr">dispongono come un </text><text x="0" y="68" font-family="Virgil, Segoe UI Emoji" font-size="20px" fill="#d9480f" text-anchor="start" style="white-space: pre;" direction="ltr">esagono regolare</text><text x="0" y="93" font-family="Virgil, Segoe UI Emoji" font-size="20px" fill="#d9480f" text-anchor="start" style="white-space: pre;" direction="ltr">centrato nell'origine</text></g></svg>