<svg version="1.1" xmlns="http://www.w3.org/2000/svg" viewBox="0 0 10020 756.046875" width="10020" height="756.046875">
  <!-- svg-source:excalidraw -->
  
  <defs>
    <style>
      @font-face {
        font-family: "Virgil";
        src: url("https://excalidraw.com/Virgil.woff2");
      }
      @font-face {
        font-family: "Cascadia";
        src: url("https://excalidraw.com/Cascadia.woff2");
      }
    </style>
  </defs>
  <rect x="0" y="0" width="10020" height="756.046875" fill="#fff0"></rect><g stroke-linecap="round" transform="translate(10 10) rotate(0 5000 0.5)"><path d="M-0.52 -0.26 C3022.65 -30.2, 6044.59 -29.2, 9999.32 0.22 M0.38 -0.31 C3948.03 -0.44, 7895.41 0.2, 9999.95 0.08 M10000.08 -0.06 C10000.09 0.27, 10000.05 0.48, 10000.09 0.92 M9999.97 0.01 C9999.95 0.33, 9999.98 0.72, 10000 0.99 M10000.22 1.51 C7095.77 35.76, 4193.15 34.95, -0.25 0.75 M10000.01 1.13 C7827.97 2.74, 5656.23 3.35, -0.33 0.84 M-0.04 1.01 C0 0.63, -0.06 0.15, 0.05 -0.03 M-0.04 0.95 C-0.04 0.73, -0.03 0.59, -0.05 -0.02" stroke="transparent" stroke-width="1" fill="none"></path></g><g stroke-linecap="round"><g transform="translate(835.84375 696.046875) rotate(0 -1 -88)"><path d="M0.95 0.46 C0.66 -28.72, -1.85 -145.66, -2.34 -175.01 M-0.01 -0.34 C-0.43 -29.85, -3.02 -147.64, -3.47 -176.62" stroke="#000" stroke-width="1" fill="none"></path></g><g transform="translate(835.84375 696.046875) rotate(0 -1 -88)"><path d="M8.1 -149.2 C6.27 -155.48, 2.49 -163.84, -4.42 -177.76 M7.82 -149.29 C5.12 -155.9, 2.27 -162.18, -3.98 -176.28" stroke="#000" stroke-width="1" fill="none"></path></g><g transform="translate(835.84375 696.046875) rotate(0 -1 -88)"><path d="M-12.42 -148.8 C-9.13 -155.35, -7.8 -163.8, -4.42 -177.76 M-12.7 -148.9 C-10.43 -155.63, -8.33 -162.01, -3.98 -176.28" stroke="#000" stroke-width="1" fill="none"></path></g></g><g stroke-linecap="round"><g transform="translate(832.84375 695.046875) rotate(0 162 0.5)"><path d="M-0.28 0.89 C53.77 1.09, 269.78 1.13, 323.83 1.05 M1.78 0.31 C55.69 0.73, 269.21 2.43, 322.79 2.62" stroke="#000" stroke-width="1" fill="none"></path></g><g transform="translate(832.84375 695.046875) rotate(0 162 0.5)"><path d="M296.02 12.42 C302.08 10.16, 308.48 8.77, 324.5 2.04 M293.86 13.46 C304.53 7.96, 315.67 5.74, 322.44 2.57" stroke="#000" stroke-width="1" fill="none"></path></g><g transform="translate(832.84375 695.046875) rotate(0 162 0.5)"><path d="M296.15 -8.1 C302.15 -4.96, 308.52 -0.94, 324.5 2.04 M293.99 -7.06 C304.81 -4.57, 315.9 1.22, 322.44 2.57" stroke="#000" stroke-width="1" fill="none"></path></g></g><g stroke-linecap="round"><g transform="translate(780.84375 646.046875) rotate(0 199 10.5)"><path d="M0 -0.04 C5.22 -2.15, 16.51 -9.13, 32.38 -11.83 C48.26 -14.54, 79.21 -19.23, 95.27 -16.27 C111.33 -13.32, 114.11 1.24, 128.74 5.89 C143.36 10.54, 166.46 13.51, 183.02 11.61 C199.58 9.7, 209.14 -2.38, 228.12 -5.56 C247.1 -8.74, 275.99 -13.15, 296.89 -7.47 C317.8 -1.79, 336.65 21.03, 353.54 28.52 C370.42 36.01, 390.84 36.01, 398.2 37.47 M-1.46 -1.11 C4.06 -3.59, 18.76 -11.01, 34.77 -13.34 C50.79 -15.68, 78.87 -18.48, 94.64 -15.1 C110.41 -11.72, 114.8 2.46, 129.37 6.94 C143.95 11.42, 165.38 14.01, 182.08 11.79 C198.79 9.57, 210.88 -3.5, 229.59 -6.37 C248.3 -9.23, 273.9 -11.11, 294.35 -5.4 C314.79 0.32, 335.22 20.97, 352.27 27.92 C369.31 34.88, 388.96 34.83, 396.63 36.33" stroke="#d9480f" stroke-width="1" fill="none"></path></g></g><g stroke-linecap="round"><g transform="translate(911.84375 699.046875) rotate(0 0 -25)"><path d="M0.71 0.95 C0.59 -7.43, -0.14 -42.25, -0.28 -50.68 M-0.38 0.41 C-0.72 -7.79, -1.28 -40.81, -1.38 -49.5" stroke="#1864ab" stroke-width="1" fill="none"></path></g></g><g stroke-linecap="round"><g transform="translate(1103.84375 696.046875) rotate(0 -2 -24.5)"><path d="M-1.18 -0.78 C-1.65 -8.77, -2.82 -40.96, -3.38 -49.11 M0.4 1.43 C-0.12 -6.27, -3.01 -39.27, -4 -47.64" stroke="#1864ab" stroke-width="1" fill="none"></path></g></g><g transform="translate(896.84375 714.046875) rotate(0 9 12.5)"><text x="0" y="18" font-family="Virgil, Segoe UI Emoji" font-size="20px" fill="#1864ab" text-anchor="start" style="white-space: pre;" direction="ltr">t1</text></g><g transform="translate(1093.84375 721.046875) rotate(0 13.5 12.5)"><text x="0" y="18" font-family="Virgil, Segoe UI Emoji" font-size="20px" fill="#1864ab" text-anchor="start" style="white-space: pre;" direction="ltr">t2</text></g></svg>