<svg version="1.1" xmlns="http://www.w3.org/2000/svg" viewBox="0 0 10020 685.359375" width="10020" height="685.359375">
  <!-- svg-source:excalidraw -->
  
  <defs>
    <style>
      @font-face {
        font-family: "Virgil";
        src: url("https://excalidraw.com/Virgil.woff2");
      }
      @font-face {
        font-family: "Cascadia";
        src: url("https://excalidraw.com/Cascadia.woff2");
      }
    </style>
  </defs>
  <rect x="0" y="0" width="10020" height="685.359375" fill="#fff0"></rect><g stroke-linecap="round" transform="translate(10 10) rotate(0 5000 0.5)"><path d="M-0.52 -0.26 C3022.65 -30.2, 6044.59 -29.2, 9999.32 0.22 M0.38 -0.31 C3948.03 -0.44, 7895.41 0.2, 9999.95 0.08 M10000.08 -0.06 C10000.09 0.27, 10000.05 0.48, 10000.09 0.92 M9999.97 0.01 C9999.95 0.33, 9999.98 0.72, 10000 0.99 M10000.22 1.51 C7095.77 35.76, 4193.15 34.95, -0.25 0.75 M10000.01 1.13 C7827.97 2.74, 5656.23 3.35, -0.33 0.84 M-0.04 1.01 C0 0.63, -0.06 0.15, 0.05 -0.03 M-0.04 0.95 C-0.04 0.73, -0.03 0.59, -0.05 -0.02" stroke="transparent" stroke-width="1" fill="none"></path></g><g stroke-linecap="round"><g transform="translate(900 537.359375) rotate(0 1 66.5)"><path d="M-0.48 -0.78 C-0.04 21.45, 2.16 110.53, 2.67 132.83 M1.47 1.42 C1.8 23.89, 1.97 112.12, 2.08 134.28" stroke="#000" stroke-width="1" fill="none"></path></g></g><g stroke-linecap="round"><g transform="translate(797 601.359375) rotate(0 112.5 1)"><path d="M-1.09 -0.92 C36.4 -0.57, 188.3 0.87, 226.03 1.39 M0.54 1.21 C37.86 1.78, 188.27 2.21, 225.62 2.61" stroke="#000" stroke-width="1" fill="none"></path></g></g><g stroke-linecap="round"><g transform="translate(942 595.359375) rotate(0 0 10)"><path d="M-1.03 0.96 C-1.01 4.45, 0.55 16.8, 0.8 19.82 M0.63 0.41 C0.5 4.19, 0.38 18.01, 0.27 21.26" stroke="#000" stroke-width="1" fill="none"></path></g></g><g stroke-linecap="round"><g transform="translate(871 592.359375) rotate(0 0.5 12)"><path d="M-0.34 -1.04 C0.16 2.95, 1.82 18.97, 2.06 23.1 M1.68 1.03 C2.19 5.22, 1.89 20.18, 1.67 24.17" stroke="#000" stroke-width="1" fill="none"></path></g></g><g stroke-linecap="round"><g transform="translate(888 546.359375) rotate(0 11 0)"><path d="M0.71 0.25 C4.67 0.43, 19.12 0.1, 22.68 0.12 M-0.37 -0.67 C3.58 -0.19, 18.46 1.9, 22.09 1.72" stroke="#000" stroke-width="1" fill="none"></path></g></g><g stroke-linecap="round"><g transform="translate(894 664.359375) rotate(0 9.5 -1.5)"><path d="M0.79 -0.22 C3.98 -0.83, 15.19 -2.2, 18.28 -2.83 M-0.26 -1.38 C3.4 -1.84, 17.45 -0.9, 20.61 -1.21" stroke="#000" stroke-width="1" fill="none"></path></g></g><g transform="translate(950 608.359375) rotate(0 3 12.5)"><text x="0" y="18" font-family="Virgil, Segoe UI Emoji" font-size="20px" fill="#000" text-anchor="start" style="white-space: pre;" direction="ltr">1</text></g><g transform="translate(852 617.359375) rotate(0 7 25)"><text x="0" y="18" font-family="Virgil, Segoe UI Emoji" font-size="20px" fill="#000" text-anchor="start" style="white-space: pre;" direction="ltr">-1</text><text x="0" y="43" font-family="Virgil, Segoe UI Emoji" font-size="20px" fill="#000" text-anchor="start" style="white-space: pre;" direction="ltr"></text></g><g transform="translate(915 650.359375) rotate(0 24 12.5)"><text x="0" y="18" font-family="Virgil, Segoe UI Emoji" font-size="20px" fill="#000" text-anchor="start" style="white-space: pre;" direction="ltr">-pi/2</text></g><g transform="translate(913 532.359375) rotate(0 24 12.5)"><text x="0" y="18" font-family="Virgil, Segoe UI Emoji" font-size="20px" fill="#000" text-anchor="start" style="white-space: pre;" direction="ltr">-pi/2</text></g><g stroke-linecap="round"><g transform="translate(873 661.359375) rotate(0 30.5 -56.5)"><path d="M-0.5 -0.09 C0.36 -5.77, 0.82 -23.91, 5.31 -34.06 C9.79 -44.2, 18.97 -52.25, 26.39 -60.96 C33.81 -69.67, 44.07 -77.66, 49.83 -86.34 C55.58 -95.01, 59.19 -108.45, 60.93 -112.99 M1.44 -1.18 C2.15 -7.19, 0.45 -25.86, 4.52 -35.68 C8.58 -45.51, 18.17 -51.34, 25.83 -60.15 C33.5 -68.96, 44.91 -79.8, 50.51 -88.54 C56.11 -97.28, 57.62 -108.8, 59.42 -112.59" stroke="#d9480f" stroke-width="1" fill="none"></path></g></g></svg>