<svg version="1.1" xmlns="http://www.w3.org/2000/svg" viewBox="0 0 10020 770.9951228052378" width="10020" height="770.9951228052378">
  <!-- svg-source:excalidraw -->
  
  <defs>
    <style>
      @font-face {
        font-family: "Virgil";
        src: url("https://excalidraw.com/Virgil.woff2");
      }
      @font-face {
        font-family: "Cascadia";
        src: url("https://excalidraw.com/Cascadia.woff2");
      }
    </style>
  </defs>
  <rect x="0" y="0" width="10020" height="770.9951228052378" fill="#fff0"></rect><g stroke-linecap="round" transform="translate(10 10) rotate(0 5000 0.5)"><path d="M-0.52 -0.26 C3022.65 -30.2, 6044.59 -29.2, 9999.32 0.22 M0.38 -0.31 C3948.03 -0.44, 7895.41 0.2, 9999.95 0.08 M10000.08 -0.06 C10000.09 0.27, 10000.05 0.48, 10000.09 0.92 M9999.97 0.01 C9999.95 0.33, 9999.98 0.72, 10000 0.99 M10000.22 1.51 C7095.77 35.76, 4193.15 34.95, -0.25 0.75 M10000.01 1.13 C7827.97 2.74, 5656.23 3.35, -0.33 0.84 M-0.04 1.01 C0 0.63, -0.06 0.15, 0.05 -0.03 M-0.04 0.95 C-0.04 0.73, -0.03 0.59, -0.05 -0.02" stroke="transparent" stroke-width="1" fill="none"></path></g><g stroke-linecap="round"><g transform="translate(632.6721268936992 634.3747857525944) rotate(0 142.3904990531504 2.6797946237027617)"><path d="M-0.78 -0.36 C46.4 0.59, 236.4 5.42, 283.85 6.48 M1.01 -1.59 C48.5 -1.02, 238.52 4.01, 286.07 4.95" stroke="#000" stroke-width="1" fill="none"></path></g></g><g stroke-linecap="round"><g transform="translate(753.9125258435774 760.9951228052378) rotate(0 2.270299578211265 -121.13037390261889)"><path d="M-0.19 0.63 C0.56 -39.78, 2.95 -200.96, 3.72 -241.49 M-1.74 -0.08 C-0.55 -40.32, 5.11 -202.99, 6 -243.2" stroke="#000" stroke-width="1" fill="none"></path></g></g><g stroke-linecap="round"><g transform="translate(684.453125 620.734375) rotate(0 64.5 49.5)"><path d="M-0.28 -0.14 C4.45 10.95, 17.03 51.08, 28.93 67.63 C40.82 84.19, 56.43 98.79, 71.11 99.16 C85.79 99.54, 107.33 84.73, 117.01 69.88 C126.69 55.03, 127.37 20.22, 129.18 10.07 M1.77 -1.26 C6.81 10.51, 19.11 52.01, 31.07 68.98 C43.03 85.95, 59.09 100.77, 73.54 100.57 C87.99 100.37, 108.74 83.33, 117.78 67.79 C126.83 52.26, 125.99 17.33, 127.8 7.36" stroke="#000000" stroke-width="1" fill="none"></path></g></g><g transform="translate(689.453125 628.734375) rotate(0 -0.5 0.5)" stroke="none"><path fill="#1864ab" d="M 2.12,-0.66 Q 2.12,-0.66 2.15,-0.13 2.18,0.40 1.96,0.88 1.74,1.36 1.32,1.69 0.91,2.02 0.38,2.12 -0.13,2.21 -0.64,2.05 -1.14,1.90 -1.52,1.52 -1.90,1.14 -2.05,0.64 -2.21,0.13 -2.12,-0.38 -2.02,-0.91 -1.69,-1.32 -1.36,-1.74 -0.88,-1.96 -0.39,-2.18 0.13,-2.15 0.66,-2.11 1.11,-1.84 1.57,-1.56 1.84,-1.11 L 2.12,-0.66 Z"></path></g><g stroke-linecap="round"><g transform="translate(690.453125 635.734375) rotate(0 66.5 36)"><path d="M-0.51 0.7 C5.15 9.03, 18.36 36.83, 35.05 48.82 C51.74 60.81, 83.25 72.04, 99.63 72.65 C116.01 73.26, 129.09 64.27, 133.33 52.5 C137.56 40.73, 126.46 10.43, 125.05 2.02 M1.42 0.02 C6.84 8.55, 17.92 37.97, 34.13 49.74 C50.34 61.51, 82.07 70.57, 98.67 70.65 C115.27 70.73, 129.59 62.1, 133.74 50.21 C137.9 38.31, 124.87 7.4, 123.61 -0.72" stroke="#1864ab" stroke-width="1" fill="none"></path></g></g></svg>