<svg version="1.1" xmlns="http://www.w3.org/2000/svg" viewBox="0 0 10020 794.421875" width="10020" height="794.421875">
  <!-- svg-source:excalidraw -->
  
  <defs>
    <style>
      @font-face {
        font-family: "Virgil";
        src: url("https://excalidraw.com/Virgil.woff2");
      }
      @font-face {
        font-family: "Cascadia";
        src: url("https://excalidraw.com/Cascadia.woff2");
      }
    </style>
  </defs>
  <rect x="0" y="0" width="10020" height="794.421875" fill="#fff0"></rect><g stroke-linecap="round" transform="translate(10 10) rotate(0 5000 0.5)"><path d="M-0.52 -0.26 C3022.65 -30.2, 6044.59 -29.2, 9999.32 0.22 M0.38 -0.31 C3948.03 -0.44, 7895.41 0.2, 9999.95 0.08 M10000.08 -0.06 C10000.09 0.27, 10000.05 0.48, 10000.09 0.92 M9999.97 0.01 C9999.95 0.33, 9999.98 0.72, 10000 0.99 M10000.22 1.51 C7095.77 35.76, 4193.15 34.95, -0.25 0.75 M10000.01 1.13 C7827.97 2.74, 5656.23 3.35, -0.33 0.84 M-0.04 1.01 C0 0.63, -0.06 0.15, 0.05 -0.03 M-0.04 0.95 C-0.04 0.73, -0.03 0.59, -0.05 -0.02" stroke="transparent" stroke-width="1" fill="none"></path></g><g stroke-linecap="round"><g transform="translate(573 784.421875) rotate(0 -2.5 -85.5)"><path d="M0.91 0.94 C-0.01 -27.59, -4.46 -142.44, -5.27 -171.05 M-0.07 0.39 C-1.2 -27.95, -5.68 -141.27, -6.36 -169.54" stroke="#000" stroke-width="1" fill="none"></path></g><g transform="translate(573 784.421875) rotate(0 -2.5 -85.5)"><path d="M6.4 -142.16 C1.1 -148.85, -1.94 -160.39, -7.27 -167.69 M4.59 -141.01 C1.71 -148.19, -1.76 -155.88, -5.57 -170.1" stroke="#000" stroke-width="1" fill="none"></path></g><g transform="translate(573 784.421875) rotate(0 -2.5 -85.5)"><path d="M-14.11 -141.48 C-12.8 -148.55, -9.23 -160.3, -7.27 -167.69 M-15.92 -140.33 C-13.5 -147.77, -11.66 -155.63, -5.57 -170.1" stroke="#000" stroke-width="1" fill="none"></path></g></g><g stroke-linecap="round"><g transform="translate(536 758.421875) rotate(356.17724477945916 127.99999999999999 3.5)"><path d="M0.94 -0.27 C43.58 0.92, 213.39 6.91, 255.95 8.04 M-0.02 -1.46 C42.44 -0.66, 212.36 4.96, 254.97 6.47" stroke="#000" stroke-width="1" fill="none"></path></g><g transform="translate(536 758.421875) rotate(356.17724477945916 127.99999999999999 3.5)"><path d="M226 15.68 C237 13.12, 243.32 8.84, 256.82 5.64 M227.15 15.79 C238.07 11.7, 248.56 9.47, 254.41 5.76" stroke="#000" stroke-width="1" fill="none"></path></g><g transform="translate(536 758.421875) rotate(356.17724477945916 127.99999999999999 3.5)"><path d="M226.69 -4.83 C237.63 -0.99, 243.74 1.11, 256.82 5.64 M227.84 -4.72 C238.57 -0.92, 248.8 4.74, 254.41 5.76" stroke="#000" stroke-width="1" fill="none"></path></g></g><g stroke-linecap="round"><g transform="translate(658 717.421875) rotate(0 52.499999999999986 -54.5)"><path d="M-0.27 -0.05 C-3.91 -7.5, -22.42 -25.47, -20.96 -43.71 C-19.5 -61.96, -7.18 -96.58, 8.5 -109.55 C24.18 -122.51, 53.19 -123.99, 73.11 -121.49 C93.03 -119, 120.25 -107.11, 128.02 -94.55 C135.79 -82, 133.71 -64.05, 119.71 -46.16 C105.71 -28.26, 64.09 5.08, 44.02 12.81 C23.96 20.54, 6.51 2.48, -0.67 0.23 M1.79 -1.13 C-2 -9.03, -22.31 -27.79, -21.36 -45.69 C-20.41 -63.59, -7.8 -96.02, 7.47 -108.51 C22.75 -121.01, 50.35 -123.08, 70.28 -120.65 C90.22 -118.22, 118.64 -106.24, 127.08 -93.93 C135.53 -81.61, 134.71 -64.39, 120.97 -46.76 C107.24 -29.12, 64.57 4.09, 44.68 11.89 C24.78 19.68, 9.09 1.78, 1.61 0.01" stroke="#000" stroke-width="1" fill="none"></path></g></g><g transform="translate(661 681.421875) rotate(0 1 1.5)" stroke="none"><path fill="#000" d="M 1.99,-1.33 Q 1.99,-1.33 0.08,0.33 -1.83,1.99 -1.94,1.60 -2.05,1.21 -2.03,0.80 -2.01,0.40 -1.86,0.02 -1.72,-0.35 -1.45,-0.66 -1.19,-0.97 -0.84,-1.18 -0.50,-1.39 -0.10,-1.48 0.28,-1.57 0.69,-1.53 1.09,-1.48 1.46,-1.32 1.83,-1.15 2.13,-0.87 2.42,-0.59 2.62,-0.23 2.81,0.12 2.87,0.52 2.94,0.92 2.88,1.32 2.81,1.72 2.63,2.08 2.44,2.44 2.14,2.72 1.85,3.00 1.48,3.17 1.11,3.34 0.71,3.39 0.31,3.44 -0.08,3.35 -0.48,3.26 -0.83,3.06 -1.18,2.85 -1.44,2.54 -1.70,2.23 -1.86,1.85 -2.01,1.48 -2.03,1.07 -2.06,0.67 -1.95,0.27 -1.84,-0.11 -1.61,-0.44 -1.39,-0.78 -1.07,-1.03 -0.74,-1.28 -0.36,-1.41 0.02,-1.54 0.42,-1.54 0.83,-1.54 1.21,-1.41 1.60,-1.29 1.92,-1.04 2.25,-0.80 2.48,-0.46 2.71,-0.13 2.71,-0.13 2.71,-0.13 0.35,0.60 -1.99,1.33 -2.12,1.07 -2.25,0.81 -2.32,0.53 -2.38,0.25 -2.38,-0.03 -2.37,-0.32 -2.30,-0.60 -2.23,-0.88 -2.09,-1.14 -1.95,-1.39 -1.75,-1.60 -1.56,-1.82 -1.32,-1.98 -1.08,-2.14 -0.80,-2.24 -0.53,-2.34 -0.24,-2.37 0.03,-2.40 0.32,-2.36 0.61,-2.32 0.88,-2.21 1.15,-2.10 1.38,-1.94 1.62,-1.77 1.81,-1.55 1.99,-1.33 1.99,-1.33 L 1.99,-1.33 Z"></path></g><g transform="translate(756 635.4218750000003) rotate(0 -4 -0.5)" stroke="none"><path fill="#000" d="M 0,2.56 Q 0,2.56 -1.71,2.50 -3.42,2.44 -4.82,2.89 -6.22,3.34 -6.53,3.39 -6.84,3.44 -7.16,3.41 -7.47,3.38 -7.77,3.28 -8.07,3.18 -8.34,3.01 -8.60,2.84 -8.82,2.61 -9.04,2.38 -9.19,2.10 -9.35,1.83 -9.44,1.52 -9.52,1.22 -9.53,0.90 -9.54,0.58 -9.48,0.27 -9.41,-0.03 -9.27,-0.31 -9.14,-0.59 -8.93,-0.84 -8.73,-1.08 -8.48,-1.27 -8.22,-1.46 -7.93,-1.58 -7.64,-1.70 -8.53,-0.78 -9.43,0.14 -8.91,-0.98 -8.39,-2.12 -7.50,-2.71 -6.61,-3.29 -5.56,-3.92 -4.51,-4.54 -3.10,-4.60 -1.69,-4.67 -1.69,-4.53 -1.69,-4.39 -1.33,-4.37 -0.96,-4.36 -0.62,-4.26 -0.27,-4.15 0.04,-3.97 0.35,-3.79 0.61,-3.54 0.87,-3.28 1.07,-2.98 1.26,-2.67 1.38,-2.32 1.49,-1.98 1.52,-1.62 1.55,-1.25 1.49,-0.90 1.43,-0.54 1.29,-0.20 1.14,0.12 0.92,0.41 0.70,0.70 0.42,0.93 0.14,1.16 -0.18,1.31 -0.51,1.47 -0.86,1.54 -1.22,1.61 -1.64,-0.70 -2.06,-3.03 -1.59,-2.94 -1.12,-2.84 -0.71,-2.60 -0.29,-2.36 0.01,-2.00 0.33,-1.64 0.51,-1.20 0.70,-0.76 0.73,-0.28 0.76,0.18 0.64,0.65 0.52,1.11 0.26,1.51 0.00,1.91 -0.37,2.21 -0.74,2.50 -1.19,2.66 -1.64,2.82 -2.12,2.83 -2.60,2.84 -3.06,2.69 -3.51,2.55 -3.90,2.26 -4.28,1.98 -4.56,1.59 -4.83,1.20 -4.97,0.74 -5.10,0.28 -5.09,-0.19 -5.07,-0.67 -4.90,-1.11 -4.73,-1.56 -4.42,-1.93 -4.12,-2.30 -3.72,-2.55 -3.31,-2.81 -2.84,-2.92 -2.38,-3.03 -1.90,-2.98 -1.43,-2.94 -0.99,-2.74 -0.55,-2.55 -0.20,-2.23 0.14,-1.90 0.37,-1.49 0.61,-1.07 0.69,-0.60 0.78,-0.12 0.71,0.34 0.64,0.81 0.42,1.24 0.20,1.66 -0.13,2.00 -0.47,2.33 -0.90,2.54 -1.33,2.75 -1.81,2.81 -2.28,2.87 -2.28,2.87 -2.28,2.87 -3.70,-0.20 -5.11,-3.28 -3.40,-3.84 -1.69,-4.39 -1.33,-4.37 -0.96,-4.36 -0.62,-4.26 -0.27,-4.15 0.04,-3.97 0.35,-3.79 0.61,-3.54 0.87,-3.29 1.07,-2.98 1.26,-2.67 1.38,-2.32 1.49,-1.98 1.52,-1.62 1.55,-1.26 1.49,-0.90 1.43,-0.54 1.29,-0.20 1.14,0.12 0.92,0.41 0.70,0.70 0.42,0.93 0.14,1.16 -0.18,1.31 -0.51,1.47 -0.86,1.54 -1.22,1.61 -1.69,0.92 -2.16,0.22 -3.33,0.38 -4.51,0.55 -5.36,1.94 -6.22,3.34 -6.53,3.39 -6.84,3.44 -7.16,3.41 -7.47,3.38 -7.77,3.28 -8.07,3.18 -8.34,3.01 -8.60,2.84 -8.82,2.61 -9.04,2.38 -9.19,2.10 -9.35,1.83 -9.44,1.52 -9.52,1.22 -9.53,0.90 -9.54,0.58 -9.48,0.27 -9.41,-0.02 -9.27,-0.31 -9.14,-0.59 -8.93,-0.84 -8.73,-1.08 -8.48,-1.27 -8.22,-1.46 -7.93,-1.58 -7.64,-1.70 -6.91,-1.78 -6.17,-1.86 -4.82,-2.15 -3.47,-2.44 -1.73,-2.50 0,-2.56 0.30,-2.53 0.61,-2.49 0.90,-2.38 1.19,-2.27 1.44,-2.09 1.70,-1.92 1.90,-1.69 2.11,-1.45 2.25,-1.18 2.40,-0.91 2.47,-0.61 2.55,-0.30 2.55,0.00 2.55,0.30 2.47,0.61 2.40,0.91 2.25,1.18 2.11,1.45 1.90,1.69 1.70,1.92 1.44,2.09 1.19,2.27 0.90,2.38 0.61,2.49 0.30,2.53 -0.00,2.56 -0.00,2.56 L 0,2.56 Z"></path></g><g stroke-linecap="round"><g transform="translate(663 678.421875) rotate(0 42 -21)"><path d="M0.29 -0.5 C14.2 -7.49, 69.58 -34.14, 83.45 -40.89 M-1.02 -1.81 C12.69 -8.58, 68.3 -35.6, 82.22 -42.43" stroke="#1864ab" stroke-width="1" fill="none"></path></g></g><g transform="translate(664 635.4218750000003) rotate(0 7 12.499999999999993)"><text x="0" y="18" font-family="Virgil, Segoe UI Emoji" font-size="20px" fill="#d9480f" text-anchor="start" style="white-space: pre;" direction="ltr">a</text></g><g transform="translate(730 610.4218750000005) rotate(0 5.5 12.5)"><text x="0" y="18" font-family="Virgil, Segoe UI Emoji" font-size="20px" fill="#d9480f" text-anchor="start" style="white-space: pre;" direction="ltr">b</text></g><g stroke-linecap="round"><g transform="translate(663 681.421875) rotate(0 26.5 6.5)"><path d="M1.11 -0.49 C10.2 1.84, 45.42 11.06, 54.02 13.45 M0.24 -1.8 C9.3 0.21, 45.01 9.27, 53.61 11.56" stroke="#d9480f" stroke-width="1" fill="none"></path></g></g><g stroke-linecap="round"><g transform="translate(692 687.421875) rotate(0 3 -11)"><path d="M-0.49 1.02 C0.67 -1.55, 6.22 -10.46, 6.45 -14.29 C6.67 -18.12, 1.78 -20.58, 0.84 -21.98 M1.45 0.51 C2.54 -1.37, 5.89 -9.38, 5.73 -12.9 C5.58 -16.43, 1.23 -19.15, 0.52 -20.65" stroke="#d9480f" stroke-width="1" fill="none"></path></g></g><g transform="translate(668 686.921875) rotate(0 37 12.5)"><text x="0" y="18" font-family="Virgil, Segoe UI Emoji" font-size="20px" fill="#d9480f" text-anchor="start" style="white-space: pre;" direction="ltr">B</text></g></svg>