<svg version="1.1" xmlns="http://www.w3.org/2000/svg" viewBox="0 0 10020 846.703125" width="10020" height="846.703125">
  <!-- svg-source:excalidraw -->
  
  <defs>
    <style>
      @font-face {
        font-family: "Virgil";
        src: url("https://excalidraw.com/Virgil.woff2");
      }
      @font-face {
        font-family: "Cascadia";
        src: url("https://excalidraw.com/Cascadia.woff2");
      }
    </style>
  </defs>
  <rect x="0" y="0" width="10020" height="846.703125" fill="#fff0"></rect><g stroke-linecap="round" transform="translate(10 10) rotate(0 5000 0.5)"><path d="M-0.52 -0.26 C3022.65 -30.2, 6044.59 -29.2, 9999.32 0.22 M0.38 -0.31 C3948.03 -0.44, 7895.41 0.2, 9999.95 0.08 M10000.08 -0.06 C10000.09 0.27, 10000.05 0.48, 10000.09 0.92 M9999.97 0.01 C9999.95 0.33, 9999.98 0.72, 10000 0.99 M10000.22 1.51 C7095.77 35.76, 4193.15 34.95, -0.25 0.75 M10000.01 1.13 C7827.97 2.74, 5656.23 3.35, -0.33 0.84 M-0.04 1.01 C0 0.63, -0.06 0.15, 0.05 -0.03 M-0.04 0.95 C-0.04 0.73, -0.03 0.59, -0.05 -0.02" stroke="transparent" stroke-width="1" fill="none"></path></g><g stroke-linecap="round" transform="translate(883.84375 582.703125) rotate(0 6.5 34.5)"><path d="M-0.73 -0.74 C4.26 0.82, 9.5 1.17, 14.3 -0.21 M-0.6 0.34 C3.1 0.47, 5.94 0.55, 12.77 0.03 M14.22 -1.68 C11.61 24.16, 12.89 45.24, 12.5 68.06 M13.58 -0.65 C13.09 15.83, 11.76 31.24, 13.78 68.67 M13.9 68.85 C10.26 68.39, 6.99 69.76, 0.13 69.08 M13.07 69.04 C9.4 69.12, 6.27 69.26, -0.06 69.39 M0.76 70.44 C-0.9 46.48, -0.68 28.1, -1.37 0.75 M0.02 68.52 C0.89 46.08, 0.27 23.59, -0.2 0.41" stroke="#000" stroke-width="1" fill="none"></path></g><g stroke-linecap="round" transform="translate(880.84375 685.703125) rotate(0 8 35)"><path d="M0.78 1.06 C5.08 -0.02, 11.87 1, 17.46 0.98 M-0.23 -0.52 C3.25 -0.45, 6.27 -0.44, 16.02 0.47 M14.17 1.67 C17.85 15.82, 15.55 34.41, 15.02 71.39 M16.63 0.63 C16.47 20.26, 16.2 40.13, 15.77 70.11 M17.58 70.71 C10.98 70.99, 6.3 69.35, 0.33 70.61 M15.61 70.45 C9.5 70.18, 4.34 69.23, 0.07 70.02 M-0.59 70.56 C-0.63 53.17, -0.14 34.99, -0.96 1.08 M0.73 70.61 C0.05 43.6, 1.46 17.1, -0.1 0.7" stroke="#000" stroke-width="1" fill="none"></path></g><g stroke-linecap="round" transform="translate(626.84375 567.703125) rotate(0 8.5 93.5)"><path d="M0.4 1.68 C6.04 -0.17, 11.6 0.05, 16.27 0.35 M-0.64 -0.42 C6.22 -0.48, 11.82 0.37, 16.3 0.08 M16.85 -0.59 C16.67 56.11, 16.92 113.12, 17.29 186.04 M16.5 0.73 C19.01 65.62, 18.22 133.26, 16.55 186.9 M16.6 187.7 C12.13 186.51, 5.38 185.97, -0.91 187.17 M17.11 186.43 C12.11 186.15, 5.05 187.28, 0.54 186.39 M-1.25 188.76 C-1.1 140.28, -0.8 92.78, 1.32 -0.79 M-0.4 187.99 C0.36 148.86, -1.13 109.76, -0.64 -0.42" stroke="#000" stroke-width="1" fill="none"></path></g><g transform="translate(585.84375 786.703125) rotate(0 41 25)"><text x="0" y="18" font-family="Virgil, Segoe UI Emoji" font-size="20px" fill="#000" text-anchor="start" style="white-space: pre;" direction="ltr">Heated</text><text x="0" y="43" font-family="Virgil, Segoe UI Emoji" font-size="20px" fill="#000" text-anchor="start" style="white-space: pre;" direction="ltr">Cathode</text></g><g transform="translate(863.84375 792.703125) rotate(0 28.5 12.5)"><text x="0" y="18" font-family="Virgil, Segoe UI Emoji" font-size="20px" fill="#000" text-anchor="start" style="white-space: pre;" direction="ltr">Anode</text></g><g stroke-linecap="round" transform="translate(873.84375 661.703125) rotate(0 221.5 4)"><path d="M0.37 0.61 C111.71 0.61, 222.74 0.32, 442.76 -0.27 M-0.05 0.29 C102.16 -2.12, 205.37 -1.68, 443.24 -0.41 M443.71 0.72 C442.83 2.06, 443.77 3.07, 442.69 7.29 M443.06 0.23 C442.67 1.32, 443.26 3.35, 443.04 7.71 M443.92 8.62 C291.04 8.69, 141.09 7.2, -0.62 7.92 M442.87 7.94 C296.44 7.32, 150.75 7.73, -0.42 8.33 M0.53 7.61 C-0.04 5.12, -0.34 2.91, -0.23 0.62 M0.05 8.3 C-0.32 4.6, 0.08 1.77, 0.2 0.1" stroke="#d9480f" stroke-width="1" fill="none"></path></g><g transform="translate(1062.84375 679.703125) rotate(0 69 12.5)"><text x="0" y="18" font-family="Virgil, Segoe UI Emoji" font-size="20px" fill="#d9480f" text-anchor="start" style="white-space: pre;" direction="ltr">Electron beam</text></g><g stroke-linecap="round"><g transform="translate(651.84375 714.703125) rotate(0 95 2)"><path d="M-1.15 -1.07 C30.51 -0.56, 157.47 2.13, 189.15 2.94 M0.45 0.98 C32.56 1.62, 159.61 3.25, 191.41 3.93" stroke="#d9480f" stroke-width="1" fill="none"></path></g></g><g stroke-linecap="round"><g transform="translate(664.84375 676.703125) rotate(0 95 2)"><path d="M-0.47 -0.88 C30.99 0.11, 157.77 4.24, 189.7 5.19 M1.49 1.27 C32.68 2.02, 157.02 3.42, 188.59 3.69" stroke="#d9480f" stroke-width="1" fill="none"></path></g></g><g stroke-linecap="round"><g transform="translate(645.84375 618.703125) rotate(0 95 2)"><path d="M-0.88 -0.3 C31.11 0.62, 159.24 4.4, 191.19 5.09 M0.86 -1.51 C32.86 -0.85, 159.27 2.44, 190.86 3.54" stroke="#d9480f" stroke-width="1" fill="none"></path></g></g><g stroke-linecap="round"><g transform="translate(676.84375 598.703125) rotate(0 95 2)"><path d="M-0.3 1.19 C31.62 2.13, 159.4 4.49, 191.09 4.78 M1.74 0.76 C33.64 1.45, 159.5 2.57, 190.71 3.07" stroke="#d9480f" stroke-width="1" fill="none"></path></g></g><g stroke-linecap="round"><g transform="translate(660.84375 644.703125) rotate(0 95 2)"><path d="M1.19 1.09 C33.13 1.78, 159.49 3.31, 190.78 3.85 M0.35 0.62 C32.28 1.53, 158.42 5.04, 190.24 5.31" stroke="#d9480f" stroke-width="1" fill="none"></path></g></g><g stroke-linecap="round"><g transform="translate(872.84375 573.703125) rotate(0 -115 -21.5)"><path d="M0.42 -0.4 C-22.48 -7.58, -98.32 -41.18, -136.81 -42.53 C-175.29 -43.88, -214.98 -14.2, -230.49 -8.5 M-0.83 -1.66 C-23.4 -9.25, -96.07 -42.92, -134.52 -44.41 C-172.97 -45.89, -215.68 -16.22, -231.51 -10.58" stroke="#1864ab" stroke-width="1" fill="none"></path></g><g transform="translate(872.84375 573.703125) rotate(0 -115 -21.5)"><path d="M-211.34 -33.5 C-217.07 -25.36, -224.3 -16.76, -230.4 -9.54 M-211.28 -32.11 C-215.84 -25.14, -221.72 -19.2, -232.17 -11.09" stroke="#1864ab" stroke-width="1" fill="none"></path></g><g transform="translate(872.84375 573.703125) rotate(0 -115 -21.5)"><path d="M-202.34 -15.06 C-211.3 -13.33, -221.67 -11.18, -230.4 -9.54 M-202.29 -13.67 C-209.54 -11.84, -217.96 -11.11, -232.17 -11.09" stroke="#1864ab" stroke-width="1" fill="none"></path></g></g><g transform="translate(832.84375 521.703125) rotate(0 12.5 12.5)"><text x="0" y="18" font-family="Virgil, Segoe UI Emoji" font-size="20px" fill="#1864ab" text-anchor="start" style="white-space: pre;" direction="ltr">Va</text></g><g stroke-linecap="round"><g transform="translate(908.84375 631.703125) rotate(0 21 0)"><path d="M-0.65 -1.04 C6.4 -0.83, 35.4 0.67, 42.61 0.66 M1.21 1.03 C8.12 0.94, 35.15 -0.88, 41.98 -1.12" stroke="#1864ab" stroke-width="1" fill="none"></path></g><g transform="translate(908.84375 631.703125) rotate(0 21 0)"><path d="M20.92 8.1 C30.14 5.53, 33.53 0.85, 43.77 -0.47 M21.76 7.56 C29.75 5.18, 34.53 2.26, 42.11 -0.78" stroke="#1864ab" stroke-width="1" fill="none"></path></g><g transform="translate(908.84375 631.703125) rotate(0 21 0)"><path d="M20.17 -6.25 C29.57 -4.1, 33.21 -4.06, 43.77 -0.47 M21.01 -6.78 C29.29 -4.46, 34.31 -2.66, 42.11 -0.78" stroke="#1864ab" stroke-width="1" fill="none"></path></g></g><g transform="translate(972.84375 617.703125) rotate(0 14 12.5)"><text x="0" y="18" font-family="Virgil, Segoe UI Emoji" font-size="20px" fill="#1864ab" text-anchor="start" style="white-space: pre;" direction="ltr">vel</text></g></svg>