<svg version="1.1" xmlns="http://www.w3.org/2000/svg" viewBox="0 0 10020 799.9375" width="10020" height="799.9375">
  <!-- svg-source:excalidraw -->
  
  <defs>
    <style>
      @font-face {
        font-family: "Virgil";
        src: url("https://excalidraw.com/Virgil.woff2");
      }
      @font-face {
        font-family: "Cascadia";
        src: url("https://excalidraw.com/Cascadia.woff2");
      }
    </style>
  </defs>
  <rect x="0" y="0" width="10020" height="799.9375" fill="#fff0"></rect><g stroke-linecap="round" transform="translate(10 10) rotate(0 5000 0.5)"><path d="M-0.52 -0.26 C3022.65 -30.2, 6044.59 -29.2, 9999.32 0.22 M0.38 -0.31 C3948.03 -0.44, 7895.41 0.2, 9999.95 0.08 M10000.08 -0.06 C10000.09 0.27, 10000.05 0.48, 10000.09 0.92 M9999.97 0.01 C9999.95 0.33, 9999.98 0.72, 10000 0.99 M10000.22 1.51 C7095.77 35.76, 4193.15 34.95, -0.25 0.75 M10000.01 1.13 C7827.97 2.74, 5656.23 3.35, -0.33 0.84 M-0.04 1.01 C0 0.63, -0.06 0.15, 0.05 -0.03 M-0.04 0.95 C-0.04 0.73, -0.03 0.59, -0.05 -0.02" stroke="transparent" stroke-width="1" fill="none"></path></g><g stroke-linecap="round"><g transform="translate(1011 549.9375) rotate(0 -0.5 120)"><path d="M0.57 0.23 C0.67 40.3, 0.1 199.32, -0.33 239.25 M-0.6 -0.7 C-0.5 39.62, -1.08 200.1, -0.92 240.4" stroke="#000" stroke-width="1" fill="none"></path></g></g><g stroke-linecap="round"><g transform="translate(872 665.9375) rotate(0 140.5 -1.5)"><path d="M-0.95 -0.2 C45.84 -0.85, 233.64 -2.93, 280.68 -3.54 M0.75 -1.35 C47.36 -1.87, 232.92 -2.01, 279.56 -2.28" stroke="#000" stroke-width="1" fill="none"></path></g></g><g stroke-linecap="round" transform="translate(947 600.9375) rotate(0 62.5 64.5)"><path d="M40.58 3.65 C49.01 -0.55, 60.03 -0.49, 69.67 0.88 C79.3 2.26, 90.29 6.32, 98.42 11.92 C106.56 17.52, 114.07 25.77, 118.48 34.48 C122.88 43.2, 124.92 54.33, 124.83 64.21 C124.75 74.08, 122.23 84.73, 117.97 93.74 C113.72 102.74, 107.32 112.38, 99.31 118.26 C91.3 124.13, 79.71 127.97, 69.9 129 C60.08 130.03, 49.27 127.8, 40.44 124.41 C31.62 121.03, 23.33 115.83, 16.94 108.67 C10.55 101.51, 4.74 91.4, 2.13 81.44 C-0.48 71.48, -0.78 58.77, 1.29 48.91 C3.36 39.05, 6.51 30.25, 14.55 22.29 C22.59 14.34, 42.1 4.59, 49.52 1.18 C56.94 -2.23, 58.79 0.63, 59.07 1.82 M38.27 4.72 C46.18 0.14, 57.28 -0.45, 67.07 0.39 C76.85 1.23, 88.55 4.18, 96.98 9.74 C105.4 15.29, 112.82 24.94, 117.62 33.72 C122.43 42.5, 125.82 52.57, 125.81 62.43 C125.8 72.28, 121.79 83.75, 117.55 92.84 C113.31 101.94, 107.98 111.11, 100.38 116.99 C92.78 122.87, 81.52 126.52, 71.95 128.1 C62.38 129.69, 52.01 129.55, 42.94 126.5 C33.88 123.44, 24.08 116.97, 17.54 109.77 C11.01 102.57, 6.68 92.93, 3.75 83.28 C0.82 73.63, -1.92 61.91, -0.01 51.86 C1.9 41.81, 8.75 31, 15.21 23 C21.67 14.99, 34.81 6.44, 38.76 3.84 C42.71 1.23, 38.4 6.05, 38.9 7.35" stroke="#000" stroke-width="1" fill="none"></path></g><g transform="translate(1059 624.9375) rotate(0 2 1)" stroke="none"><path fill="#d9480f" d="M 0.59,-2.39 Q 0.59,-2.39 1.80,-2.10 3.01,-1.82 4.24,-0.07 5.47,1.66 2.18,2.19 -1.09,2.71 -1.35,2.36 -1.61,2.01 -1.73,1.59 -1.86,1.17 -1.85,0.73 -1.84,0.30 -1.69,-0.10 -1.54,-0.52 -1.27,-0.86 -1.00,-1.20 -0.63,-1.44 -0.26,-1.67 0.15,-1.78 0.58,-1.88 1.01,-1.85 1.45,-1.82 1.85,-1.64 2.25,-1.47 2.58,-1.18 2.90,-0.89 3.12,-0.51 3.34,-0.13 3.42,0.29 3.50,0.72 3.45,1.15 3.39,1.59 3.19,1.98 3.00,2.37 2.69,2.68 2.38,2.99 1.99,3.18 1.60,3.38 1.17,3.44 0.74,3.50 0.31,3.42 -0.11,3.34 -0.49,3.12 -0.88,2.91 -1.17,2.58 -1.46,2.26 -1.63,1.86 -1.81,1.46 -1.85,1.02 -1.88,0.59 -1.78,0.16 -1.67,-0.25 -1.44,-0.62 -1.20,-0.99 -0.86,-1.27 -0.52,-1.54 -0.11,-1.69 0.29,-1.84 0.72,-1.86 1.16,-1.87 1.58,-1.74 2.00,-1.62 2.35,-1.36 2.71,-1.11 2.71,-1.11 2.71,-1.11 2.14,0.93 1.58,2.97 0.49,2.68 -0.59,2.39 -0.87,2.28 -1.15,2.18 -1.39,2.01 -1.64,1.84 -1.83,1.61 -2.03,1.39 -2.17,1.13 -2.30,0.86 -2.37,0.57 -2.44,0.28 -2.44,-0.00 -2.44,-0.30 -2.37,-0.59 -2.30,-0.88 -2.16,-1.14 -2.02,-1.40 -1.82,-1.62 -1.62,-1.85 -1.38,-2.01 -1.13,-2.18 -0.86,-2.29 -0.58,-2.39 -0.28,-2.43 0.00,-2.46 0.30,-2.42 0.59,-2.39 0.59,-2.39 L 0.59,-2.39 Z"></path></g><g transform="translate(967 618.9375) rotate(0 1.5 -0.5)" stroke="none"><path fill="#d9480f" d="M -0.63,-2.52 Q -0.63,-2.52 0.51,-2.82 1.66,-3.13 1.97,-3.17 2.29,-3.21 2.60,-3.17 2.92,-3.13 3.21,-3.02 3.51,-2.91 3.77,-2.73 4.04,-2.55 4.25,-2.31 4.46,-2.07 4.61,-1.79 4.76,-1.51 4.83,-1.20 4.91,-0.90 4.91,-0.58 4.91,-0.26 4.84,0.04 4.76,0.35 4.62,0.63 4.47,0.91 4.26,1.15 4.05,1.39 3.79,1.57 3.53,1.75 3.23,1.86 2.93,1.98 1.50,1.38 0.07,0.78 -0.93,0.28 -1.93,-0.22 -2.20,-0.40 -2.47,-0.59 -2.68,-0.83 -2.90,-1.08 -3.05,-1.37 -3.20,-1.65 -3.27,-1.97 -3.35,-2.28 -3.35,-2.61 -3.35,-2.93 -3.27,-3.25 -3.19,-3.56 -3.04,-3.85 -2.89,-4.14 -2.67,-4.38 -2.45,-4.62 -2.19,-4.81 -1.92,-4.99 -1.62,-5.10 -1.31,-5.22 -0.99,-5.26 -0.67,-5.29 -0.34,-5.25 -0.02,-5.21 0.27,-5.10 0.57,-4.98 2.26,-4.97 3.94,-4.95 4.96,-3.57 5.98,-2.18 5.98,-0.94 5.99,0.29 4.76,1.70 3.52,3.11 1.89,3.51 0.26,3.92 -0.98,3.56 -2.23,3.20 -3.15,2.60 -4.06,1.99 -4.57,-0.16 -5.07,-2.31 -4.51,-3.39 -3.95,-4.46 -2.82,-5.17 -1.69,-5.89 -0.59,-6.00 0.50,-6.12 1.85,-6.11 3.19,-6.11 4.80,-5.50 6.40,-4.90 6.18,-5.05 5.95,-5.19 6.30,-5.02 6.64,-4.86 6.94,-4.61 7.24,-4.37 7.47,-4.06 7.70,-3.75 7.84,-3.39 7.99,-3.03 8.05,-2.65 8.11,-2.27 8.08,-1.89 8.04,-1.50 7.92,-1.14 7.79,-0.78 7.58,-0.45 7.38,-0.13 7.10,0.13 6.82,0.39 6.48,0.58 6.15,0.77 5.77,0.88 5.40,0.98 5.02,0.99 4.63,1.01 4.26,0.93 3.88,0.85 3.59,1.34 3.31,1.83 2.83,1.96 2.36,2.08 1.87,2.04 1.39,2.01 0.93,1.82 0.48,1.63 0.12,1.31 -0.24,0.99 -0.48,0.56 -0.73,0.14 -0.83,-0.33 -0.92,-0.81 -0.86,-1.29 -0.80,-1.78 -0.59,-2.22 -0.37,-2.66 -0.03,-3.01 0.30,-3.35 0.74,-3.58 1.17,-3.80 1.66,-3.87 2.14,-3.94 2.62,-3.85 3.10,-3.76 3.53,-3.53 3.96,-3.29 4.29,-2.93 4.62,-2.57 4.81,-2.12 5.01,-1.68 5.05,-1.19 5.10,-0.70 4.99,-0.23 4.87,0.24 4.61,0.65 4.35,1.07 3.98,1.38 3.60,1.69 3.14,1.86 2.68,2.03 2.19,2.05 1.71,2.07 1.24,1.93 0.77,1.79 0.37,1.51 -0.02,1.23 -0.31,0.83 -0.60,0.44 -0.75,-0.02 -0.89,-0.48 -0.88,-0.97 -0.88,-1.46 -0.71,-1.92 -0.55,-2.38 -0.25,-2.76 0.05,-3.15 0.46,-3.42 0.87,-3.68 0.87,-3.68 0.87,-3.68 3.41,-4.44 5.95,-5.19 6.30,-5.03 6.64,-4.86 6.94,-4.61 7.24,-4.37 7.47,-4.06 7.70,-3.75 7.84,-3.39 7.99,-3.03 8.05,-2.65 8.11,-2.27 8.08,-1.89 8.04,-1.51 7.92,-1.14 7.79,-0.78 7.58,-0.45 7.38,-0.13 7.10,0.13 6.82,0.39 6.48,0.58 6.15,0.77 5.77,0.88 5.40,0.98 5.02,0.99 4.63,1.01 4.26,0.93 3.88,0.85 3.54,0.52 3.20,0.19 1.67,0.22 0.13,0.24 0.14,-1.08 0.14,-2.40 0.52,-1.30 0.90,-0.19 -0.51,-0.21 -1.93,-0.22 -2.20,-0.40 -2.47,-0.59 -2.68,-0.83 -2.90,-1.08 -3.05,-1.36 -3.20,-1.65 -3.27,-1.97 -3.35,-2.28 -3.35,-2.61 -3.35,-2.93 -3.27,-3.25 -3.19,-3.56 -3.04,-3.85 -2.89,-4.14 -2.67,-4.38 -2.46,-4.62 -2.19,-4.81 -1.92,-4.99 -1.62,-5.10 -1.31,-5.22 -0.99,-5.26 -0.67,-5.29 -0.34,-5.25 -0.02,-5.21 0.27,-5.10 0.57,-4.98 0.81,-4.66 1.04,-4.34 2.61,-3.38 4.17,-2.42 2.91,-2.77 1.66,-3.13 1.97,-3.17 2.29,-3.21 2.60,-3.17 2.92,-3.13 3.21,-3.02 3.51,-2.91 3.77,-2.73 4.04,-2.55 4.25,-2.31 4.46,-2.07 4.61,-1.79 4.76,-1.51 4.83,-1.20 4.91,-0.90 4.91,-0.58 4.91,-0.26 4.84,0.04 4.76,0.35 4.62,0.63 4.47,0.91 4.26,1.15 4.05,1.39 3.79,1.57 3.53,1.75 3.23,1.86 2.93,1.98 1.78,2.25 0.63,2.52 0.31,2.55 0.00,2.59 -0.30,2.56 -0.61,2.52 -0.90,2.41 -1.19,2.30 -1.45,2.12 -1.71,1.95 -1.92,1.71 -2.13,1.48 -2.28,1.20 -2.42,0.92 -2.50,0.62 -2.57,0.32 -2.57,0.00 -2.58,-0.30 -2.50,-0.60 -2.43,-0.91 -2.28,-1.19 -2.14,-1.46 -1.93,-1.70 -1.72,-1.93 -1.47,-2.11 -1.21,-2.29 -0.92,-2.40 -0.62,-2.52 -0.63,-2.52 L -0.63,-2.52 Z"></path></g><g transform="translate(1059 625.9375) rotate(0 0.5 -4.5)" stroke="none"><path fill="#d9480f" d="M -2.58,0 Q -2.58,0 -2.50,-1.80 -2.42,-3.60 -1.73,-5.16 -1.05,-6.73 -0.49,-7.78 0.05,-8.84 0.19,-8.93 0.33,-9.02 0.51,-9.28 0.69,-9.54 0.93,-9.75 1.17,-9.96 1.45,-10.11 1.73,-10.26 2.04,-10.33 2.35,-10.41 2.67,-10.41 2.98,-10.41 3.29,-10.33 3.60,-10.25 3.88,-10.10 4.16,-9.96 4.40,-9.74 4.64,-9.53 4.82,-9.27 5.00,-9.01 5.11,-8.71 5.22,-8.41 5.26,-8.10 5.30,-7.78 5.26,-7.47 5.22,-7.15 5.11,-6.85 5.00,-6.56 4.40,-4.78 3.80,-3.00 1.50,-1.79 -0.80,-0.58 0.63,-1.63 2.06,-2.68 2.16,-2.22 2.27,-1.76 2.22,-1.29 2.18,-0.81 1.98,-0.38 1.79,0.04 1.46,0.38 1.14,0.73 0.73,0.96 0.31,1.18 -0.15,1.26 -0.61,1.34 -1.08,1.27 -1.55,1.20 -1.97,0.98 -2.39,0.76 -2.72,0.42 -3.05,0.08 -3.25,-0.34 -3.45,-0.76 -3.51,-1.23 -3.56,-1.70 -3.46,-2.17 -3.37,-2.63 -3.13,-3.04 -2.89,-3.44 -2.53,-3.75 -2.17,-4.06 -1.73,-4.24 -1.29,-4.42 -0.82,-4.45 -0.35,-4.48 0.10,-4.36 0.55,-4.24 0.95,-3.97 1.34,-3.71 1.63,-3.34 1.92,-2.96 2.08,-2.52 2.23,-2.07 2.24,-1.60 2.24,-1.12 2.09,-0.67 1.95,-0.22 1.66,0.14 1.38,0.52 0.99,0.79 0.60,1.06 0.15,1.19 -0.30,1.32 -0.77,1.30 -1.24,1.28 -1.68,1.11 -2.13,0.94 -2.49,0.64 -2.85,0.33 -3.10,-0.06 -3.35,-0.46 -3.35,-0.46 -3.35,-0.46 -1.53,-3.53 0.28,-6.59 0.30,-7.80 0.33,-9.02 0.51,-9.28 0.69,-9.54 0.93,-9.75 1.17,-9.96 1.45,-10.11 1.73,-10.26 2.04,-10.33 2.35,-10.41 2.67,-10.41 2.98,-10.41 3.29,-10.33 3.60,-10.25 3.88,-10.10 4.16,-9.96 4.40,-9.74 4.64,-9.53 4.82,-9.27 5.00,-9.01 5.11,-8.71 5.22,-8.41 5.26,-8.10 5.30,-7.78 5.26,-7.47 5.22,-7.15 5.11,-6.85 5.00,-6.56 4.68,-6.36 4.37,-6.17 3.39,-4.73 2.42,-3.29 2.50,-1.64 2.58,0 2.55,0.30 2.51,0.61 2.40,0.91 2.29,1.20 2.11,1.45 1.93,1.71 1.70,1.92 1.47,2.13 1.19,2.27 0.91,2.42 0.61,2.49 0.31,2.56 -0.00,2.56 -0.31,2.56 -0.61,2.49 -0.91,2.41 -1.19,2.27 -1.47,2.12 -1.70,1.92 -1.93,1.71 -2.11,1.45 -2.29,1.20 -2.40,0.91 -2.51,0.61 -2.55,0.30 -2.58,-0.00 -2.58,-0.00 L -2.58,0 Z"></path></g><g stroke-linecap="round"><g transform="translate(1012 663.9375) rotate(0 23.5 -18)"><path d="M-0.27 -0.33 C7.69 -6.62, 39.31 -30.98, 46.99 -37.08 M1.79 -1.56 C9.66 -7.78, 38.32 -30.35, 46.04 -36.12" stroke="#d9480f" stroke-width="1" fill="none"></path></g></g><g stroke-linecap="round"><g transform="translate(970 620.9375) rotate(0 19.5 20.5)"><path d="M-0.43 -0.07 C5.9 6.48, 32.2 33.22, 38.65 40.23 M1.55 -1.15 C7.62 5.45, 30.98 34.48, 37.52 41.36" stroke="#d9480f" stroke-width="1" fill="none"></path></g></g><g stroke-linecap="round"><g transform="translate(1028 648.9375) rotate(0 5.001660064827831 7.99837043524532)"><path d="M0.79 0.62 C2.53 1.8, 9.36 5.16, 9.94 7.87 C10.53 10.58, 5.15 15.44, 4.31 16.86 M-0.26 -0.11 C1.37 1.2, 8.39 6.83, 8.96 9.34 C9.54 11.85, 3.82 13.58, 3.19 14.97" stroke="#d9480f" stroke-width="1" fill="none"></path></g></g><g stroke-linecap="round"><g transform="translate(983 632.9375) rotate(0 33.5 11)"><path d="M-0.57 0.32 C3.77 -1.23, 15.49 -9.37, 25.99 -8.16 C36.48 -6.95, 55.71 0.85, 62.42 7.58 C69.12 14.31, 65.42 28.48, 66.22 32.2 M1.34 -0.55 C6.05 -1.93, 18.08 -11.38, 28.16 -9.84 C38.25 -8.3, 55.56 1.99, 61.87 8.68 C68.19 15.36, 65.39 26.77, 66.05 30.27" stroke="#d9480f" stroke-width="1" fill="none"></path></g></g><g transform="translate(1086 606.9375) rotate(0 6 12.5)"><text x="0" y="18" font-family="Virgil, Segoe UI Emoji" font-size="20px" fill="#d9480f" text-anchor="start" style="white-space: pre;" direction="ltr">z</text></g><g transform="translate(961 572.9375) rotate(0 13.5 12.5)"><text x="0" y="18" font-family="Virgil, Segoe UI Emoji" font-size="20px" fill="#d9480f" text-anchor="start" style="white-space: pre;" direction="ltr">z*i</text></g><g stroke-linecap="round"><g transform="translate(1101 592.9375) rotate(0 -51 -15.5)"><path d="M-0.07 -0.96 C-3.57 -3.65, -11.8 -10.6, -21.93 -15.79 C-32.06 -20.98, -47.41 -32.5, -60.84 -32.1 C-74.28 -31.7, -95.53 -16.34, -102.53 -13.41 M-1.56 1.15 C-5.14 -1.96, -12.94 -12.39, -22.84 -17.81 C-32.75 -23.22, -47.72 -31.72, -61 -31.36 C-74.29 -31, -95.89 -18.49, -102.55 -15.65" stroke="#1864ab" stroke-width="1" fill="none"></path></g><g transform="translate(1101 592.9375) rotate(0 -51 -15.5)"><path d="M-89.04 -31.15 C-90.45 -25.83, -96.03 -25.12, -101.57 -16.96 M-87.68 -30.89 C-91.55 -28.19, -95.01 -24.04, -103.05 -15.59" stroke="#1864ab" stroke-width="1" fill="none"></path></g><g transform="translate(1101 592.9375) rotate(0 -51 -15.5)"><path d="M-82.54 -17.79 C-85.45 -15.48, -92.5 -17.78, -101.57 -16.96 M-81.18 -17.53 C-86.66 -18.28, -91.81 -17.6, -103.05 -15.59" stroke="#1864ab" stroke-width="1" fill="none"></path></g></g></svg>