<svg version="1.1" xmlns="http://www.w3.org/2000/svg" viewBox="0 0 10020 1357.65625" width="10020" height="1357.65625">
  <!-- svg-source:excalidraw -->
  
  <defs>
    <style>
      @font-face {
        font-family: "Virgil";
        src: url("https://excalidraw.com/Virgil.woff2");
      }
      @font-face {
        font-family: "Cascadia";
        src: url("https://excalidraw.com/Cascadia.woff2");
      }
    </style>
  </defs>
  <rect x="0" y="0" width="10020" height="1357.65625" fill="#fff0"></rect><g stroke-linecap="round" transform="translate(10 10) rotate(0 5000 0.5)"><path d="M-0.52 -0.26 C3022.65 -30.2, 6044.59 -29.2, 9999.32 0.22 M0.38 -0.31 C3948.03 -0.44, 7895.41 0.2, 9999.95 0.08 M10000.08 -0.06 C10000.09 0.27, 10000.05 0.48, 10000.09 0.92 M9999.97 0.01 C9999.95 0.33, 9999.98 0.72, 10000 0.99 M10000.22 1.51 C7095.77 35.76, 4193.15 34.95, -0.25 0.75 M10000.01 1.13 C7827.97 2.74, 5656.23 3.35, -0.33 0.84 M-0.04 1.01 C0 0.63, -0.06 0.15, 0.05 -0.03 M-0.04 0.95 C-0.04 0.73, -0.03 0.59, -0.05 -0.02" stroke="transparent" stroke-width="1" fill="none"></path></g><g stroke-linecap="round"><g transform="translate(607 542.65625) rotate(0 0 40)"><path d="M-0.2 -0.44 C-0.13 12.73, 0.67 66.67, 0.85 80.17 M-1.77 -1.71 C-1.82 12.18, -0.04 68.42, 0.34 81.8" stroke="#000" stroke-width="1" fill="none"></path></g></g><g stroke-linecap="round"><g transform="translate(609 590.65625) rotate(0 75.5 -1.5)"><path d="M0.35 -1.14 C0.24 -1.23, -24.93 -0.28, 0.03 -0.67 C24.99 -1.06, 124.99 -2.96, 150.08 -3.48 M-0.93 0.88 C-1.24 0.94, -26.47 1.07, -0.9 0.52 C24.67 -0.03, 127.25 -1.81, 152.49 -2.42" stroke="#000" stroke-width="1" fill="none"></path></g></g><g transform="translate(614 584.65625) rotate(0 -4 2.5)" stroke="none"><path fill="#000000" d="M 2.50,0.83 Q 2.50,0.83 2.24,1.71 1.98,2.59 1.47,3.54 0.97,4.48 0.48,6.13 0.00,7.77 -0.11,8.31 -0.23,8.84 -0.46,9.13 -0.69,9.41 -0.98,9.63 -1.27,9.85 -1.60,10.00 -1.94,10.14 -2.29,10.20 -2.65,10.26 -3.02,10.24 -3.38,10.21 -3.72,10.10 -4.07,9.98 -4.38,9.79 -4.69,9.60 -4.94,9.34 -5.20,9.08 -5.38,8.76 -5.56,8.45 -5.67,8.10 -5.77,7.75 -5.79,7.39 -5.80,7.03 -5.73,6.67 -5.66,6.31 -5.51,5.98 -5.36,5.65 -4.99,7.47 -4.63,9.29 -5.75,8.47 -6.87,7.65 -8.07,5.99 -9.27,4.33 -9.99,2.78 -10.70,1.24 -10.47,-0.12 -10.25,-1.48 -9.11,-2.98 -7.98,-4.48 -5.87,-4.88 -3.77,-5.27 -2.78,-4.75 -1.79,-4.23 -1.31,-2.82 -0.84,-1.40 -0.75,-0.14 -0.66,1.11 -2.07,-0.16 -3.47,-1.45 -3.01,-1.70 -2.54,-1.96 -2.02,-2.05 -1.50,-2.14 -0.97,-2.06 -0.44,-1.98 0.02,-1.74 0.49,-1.50 0.86,-1.12 1.23,-0.74 1.46,-0.26 1.69,0.21 1.76,0.74 1.82,1.27 1.71,1.79 1.61,2.31 1.34,2.77 1.07,3.23 0.67,3.58 0.27,3.93 -0.21,4.13 -0.70,4.33 -1.23,4.37 -1.77,4.40 -2.28,4.27 -2.79,4.13 -3.24,3.84 -3.68,3.55 -4.01,3.13 -4.34,2.71 -4.51,2.21 -4.69,1.71 -4.69,1.18 -4.70,0.64 -4.54,0.14 -4.38,-0.36 -4.06,-0.79 -3.74,-1.21 -3.31,-1.52 -2.87,-1.82 -2.36,-1.97 -1.85,-2.12 -1.32,-2.10 -0.79,-2.07 -0.29,-1.88 0.20,-1.69 0.60,-1.35 1.01,-1.02 1.29,-0.56 1.57,-0.11 1.70,0.40 1.82,0.91 1.77,1.44 1.71,1.97 1.50,2.46 1.28,2.94 0.92,3.33 0.56,3.72 0.56,3.72 0.56,3.72 -3.14,3.52 -6.86,3.32 -7.13,1.38 -7.41,-0.54 -6.14,-0.27 -4.86,-0.01 -4.24,1.08 -3.61,2.19 -2.40,3.55 -1.19,4.91 -0.71,6.88 -0.23,8.84 -0.46,9.13 -0.69,9.41 -0.98,9.63 -1.27,9.85 -1.60,10.00 -1.94,10.14 -2.29,10.20 -2.65,10.26 -3.02,10.24 -3.38,10.21 -3.72,10.10 -4.07,9.98 -4.38,9.79 -4.69,9.60 -4.94,9.34 -5.20,9.08 -5.38,8.76 -5.56,8.45 -5.67,8.10 -5.77,7.75 -5.79,7.39 -5.80,7.03 -5.73,6.67 -5.66,6.31 -5.51,5.98 -5.36,5.65 -4.91,4.49 -4.46,3.33 -3.80,2.09 -3.13,0.85 -2.81,0.00 -2.50,-0.83 -2.36,-1.12 -2.22,-1.40 -2.02,-1.65 -1.82,-1.90 -1.57,-2.09 -1.31,-2.28 -1.02,-2.40 -0.73,-2.53 -0.42,-2.58 -0.10,-2.63 0.20,-2.60 0.52,-2.58 0.82,-2.48 1.12,-2.38 1.39,-2.21 1.66,-2.04 1.88,-1.81 2.10,-1.58 2.26,-1.30 2.42,-1.03 2.51,-0.72 2.60,-0.42 2.61,-0.10 2.62,0.21 2.56,0.52 2.50,0.83 2.50,0.83 L 2.50,0.83 Z"></path></g><g transform="translate(759 588.65625) rotate(0 2 -7)" stroke="none"><path fill="#000000" d="M -2.37,0.67 Q -2.37,0.67 -2.81,-1.37 -3.25,-3.42 -3.50,-5.29 -3.76,-7.15 -3.91,-8.52 -4.07,-9.89 -4.14,-11.72 -4.20,-13.56 -3.64,-14.52 -3.07,-15.49 -1.93,-15.90 -0.79,-16.30 0.39,-16.02 1.58,-15.75 2.63,-14.90 3.69,-14.06 4.52,-12.97 5.36,-11.89 5.99,-10.84 6.62,-9.80 7.19,-8.07 7.75,-6.35 8.16,-5.17 8.58,-3.99 8.56,-3.63 8.55,-3.26 8.44,-2.91 8.34,-2.56 8.16,-2.24 7.97,-1.92 7.72,-1.66 7.46,-1.39 7.15,-1.20 6.84,-1.00 6.49,-0.89 6.15,-0.77 5.78,-0.74 5.42,-0.71 5.05,-0.77 4.69,-0.83 4.35,-0.98 4.02,-1.12 3.72,-1.34 3.43,-1.56 3.20,-1.85 2.97,-2.13 2.81,-2.47 2.65,-2.80 2.58,-3.16 2.51,-3.52 3.72,-1.96 4.94,-0.41 3.78,-0.25 2.62,-0.09 2.82,-0.88 3.02,-1.66 2.96,-1.16 2.90,-0.67 2.68,-0.22 2.47,0.23 2.12,0.59 1.77,0.94 1.33,1.17 0.88,1.40 0.39,1.48 -0.09,1.55 -0.59,1.47 -1.08,1.38 -1.52,1.14 -1.96,0.91 -2.30,0.54 -2.64,0.17 -2.84,-0.27 -3.05,-0.73 -3.10,-1.23 -3.15,-1.72 -3.03,-2.21 -2.92,-2.70 -2.66,-3.12 -2.40,-3.55 -2.01,-3.87 -1.63,-4.19 -1.16,-4.37 -0.69,-4.55 -0.20,-4.57 0.29,-4.59 0.77,-4.45 1.25,-4.32 1.67,-4.03 2.08,-3.75 2.37,-3.34 2.67,-2.94 2.83,-2.47 2.98,-1.99 2.98,-1.49 2.97,-0.99 2.81,-0.52 2.64,-0.05 2.34,0.34 2.03,0.73 1.61,1.01 1.20,1.28 0.71,1.41 0.23,1.54 -0.26,1.51 -0.76,1.48 -1.22,1.29 -1.68,1.10 -2.06,0.77 -2.44,0.44 -2.69,0.01 -2.94,-0.41 -3.05,-0.90 -3.15,-1.39 -3.15,-1.39 -3.15,-1.39 -1.08,-3.75 0.98,-6.11 2.10,-6.17 3.22,-6.23 5.90,-5.11 8.58,-4.00 8.56,-3.63 8.55,-3.26 8.44,-2.91 8.34,-2.56 8.16,-2.24 7.97,-1.92 7.72,-1.66 7.46,-1.39 7.15,-1.20 6.84,-1.00 6.50,-0.89 6.15,-0.77 5.78,-0.74 5.42,-0.71 5.05,-0.77 4.69,-0.83 4.35,-0.98 4.02,-1.12 3.72,-1.34 3.43,-1.56 3.20,-1.85 2.97,-2.13 2.81,-2.47 2.66,-2.80 2.58,-3.16 2.51,-3.52 2.25,-3.97 1.99,-4.42 1.87,-5.70 1.74,-6.98 0.88,-8.45 0.02,-9.93 0.14,-11.23 0.26,-12.52 0.32,-11.38 0.38,-10.24 0.43,-9.00 0.48,-7.76 0.72,-6.19 0.95,-4.62 1.66,-2.65 2.37,-0.67 2.42,-0.38 2.46,-0.09 2.44,0.20 2.41,0.50 2.32,0.78 2.22,1.06 2.06,1.31 1.90,1.56 1.69,1.77 1.47,1.98 1.21,2.12 0.96,2.27 0.67,2.35 0.38,2.44 0.08,2.45 -0.20,2.46 -0.49,2.40 -0.79,2.34 -1.05,2.21 -1.32,2.08 -1.55,1.89 -1.78,1.70 -1.96,1.46 -2.14,1.22 -2.26,0.95 -2.37,0.67 -2.37,0.67 L -2.37,0.67 Z"></path></g><g transform="translate(625 548.65625) rotate(0 7 12.5)"><text x="0" y="18" font-family="Virgil, Segoe UI Emoji" font-size="20px" fill="#000000" text-anchor="start" style="white-space: pre;" direction="ltr">A</text></g><g transform="translate(774 543.65625) rotate(0 8 12.5)"><text x="0" y="18" font-family="Virgil, Segoe UI Emoji" font-size="20px" fill="#000000" text-anchor="start" style="white-space: pre;" direction="ltr">B</text></g><g transform="translate(592 621.65625) rotate(0 4.5 -6)" stroke="none"><path fill="#1864ab" d="M -1.62,-2.02 Q -1.62,-2.02 -0.13,-3.10 1.35,-4.18 2.16,-6.04 2.98,-7.90 4.06,-9.57 5.14,-11.24 5.66,-12.52 6.17,-13.79 6.45,-14.17 6.72,-14.55 7.10,-14.81 7.48,-15.08 7.93,-15.22 8.38,-15.35 8.84,-15.33 9.31,-15.32 9.74,-15.15 10.18,-14.99 10.54,-14.69 10.90,-14.40 11.15,-14.00 11.39,-13.61 11.50,-13.16 11.61,-12.70 11.57,-12.24 11.53,-11.78 11.34,-11.35 11.15,-10.92 10.84,-10.58 10.53,-10.23 10.12,-10.01 9.71,-9.78 9.25,-9.70 8.79,-9.62 8.33,-9.68 7.87,-9.75 7.46,-9.96 7.04,-10.17 6.72,-10.50 6.39,-10.83 6.19,-11.25 5.98,-11.67 5.92,-12.13 5.86,-12.60 5.96,-13.05 6.05,-13.51 6.28,-13.91 6.51,-14.32 6.86,-14.62 7.21,-14.93 7.64,-15.11 8.07,-15.29 8.53,-15.33 9.00,-15.36 9.45,-15.24 9.90,-15.13 10.29,-14.87 10.68,-14.62 10.97,-14.25 11.26,-13.89 11.42,-13.45 11.57,-13.01 11.58,-12.55 11.59,-12.08 11.45,-11.64 11.31,-11.19 11.31,-11.19 11.31,-11.19 9.57,-8.40 7.83,-5.61 6.96,-3.96 6.08,-2.31 5.24,-1.36 4.39,-0.41 3.01,0.80 1.62,2.02 1.35,2.19 1.09,2.35 0.79,2.45 0.49,2.55 0.18,2.57 -0.13,2.59 -0.43,2.54 -0.74,2.48 -1.03,2.36 -1.32,2.23 -1.57,2.04 -1.81,1.85 -2.01,1.61 -2.21,1.36 -2.34,1.08 -2.47,0.79 -2.53,0.49 -2.59,0.18 -2.57,-0.12 -2.56,-0.44 -2.47,-0.74 -2.38,-1.04 -2.22,-1.31 -2.06,-1.58 -1.84,-1.80 -1.62,-2.02 -1.62,-2.02 L -1.62,-2.02 Z"></path></g><g transform="translate(582 566.65625) rotate(0 7.5 -8)" stroke="none"><path fill="#1864ab" d="M -1.37,-2.05 Q -1.37,-2.05 0.42,-3.09 2.22,-4.13 3.46,-5.12 4.69,-6.11 5.77,-7.11 6.84,-8.11 8.42,-9.42 10.01,-10.73 11.04,-13.12 12.08,-15.51 12.20,-15.96 12.33,-16.40 12.59,-16.78 12.85,-17.15 13.22,-17.43 13.59,-17.71 14.03,-17.85 14.46,-17.99 14.92,-17.99 15.38,-17.98 15.82,-17.83 16.25,-17.68 16.62,-17.40 16.98,-17.12 17.23,-16.74 17.49,-16.35 17.61,-15.91 17.73,-15.47 17.70,-15.01 17.67,-14.55 17.50,-14.12 17.32,-13.70 17.02,-13.35 16.72,-13.00 16.32,-12.77 15.93,-12.53 15.48,-12.44 15.03,-12.34 14.57,-12.40 14.12,-12.45 13.70,-12.65 13.28,-12.84 12.95,-13.16 12.62,-13.48 12.41,-13.89 12.20,-14.30 12.13,-14.75 12.06,-15.21 12.14,-15.66 12.21,-16.11 12.43,-16.52 12.65,-16.92 12.99,-17.24 13.33,-17.55 13.74,-17.74 14.16,-17.93 14.62,-17.97 15.08,-18.02 15.53,-17.92 15.97,-17.81 16.37,-17.57 16.76,-17.33 17.05,-16.98 17.35,-16.63 17.51,-16.20 17.68,-15.77 17.70,-15.31 17.72,-14.85 17.72,-14.85 17.72,-14.85 17.05,-12.62 16.37,-10.38 15.59,-9.20 14.81,-8.01 13.12,-7.12 11.43,-6.22 10.62,-5.53 9.80,-4.85 8.62,-3.79 7.43,-2.74 6.05,-1.60 4.67,-0.46 3.02,0.79 1.37,2.05 1.10,2.19 0.83,2.32 0.54,2.39 0.25,2.45 -0.03,2.45 -0.33,2.44 -0.62,2.37 -0.91,2.29 -1.17,2.15 -1.43,2.01 -1.65,1.80 -1.87,1.60 -2.04,1.36 -2.20,1.11 -2.30,0.83 -2.40,0.55 -2.43,0.25 -2.47,-0.04 -2.43,-0.33 -2.38,-0.63 -2.27,-0.90 -2.16,-1.18 -1.99,-1.42 -1.82,-1.66 -1.59,-1.86 -1.37,-2.05 -1.37,-2.05 L -1.37,-2.05 Z"></path></g><g transform="translate(880 530.65625) rotate(0 12.5 37.5)"><text x="0" y="18" font-family="Virgil, Segoe UI Emoji" font-size="20px" fill="#d9480f" text-anchor="start" style="white-space: pre;" direction="ltr">Xa</text><text x="0" y="43" font-family="Virgil, Segoe UI Emoji" font-size="20px" fill="#d9480f" text-anchor="start" style="white-space: pre;" direction="ltr">Ya</text><text x="0" y="68" font-family="Virgil, Segoe UI Emoji" font-size="20px" fill="#d9480f" text-anchor="start" style="white-space: pre;" direction="ltr">β</text></g><g stroke-linecap="round"><g transform="translate(631 531.65625) rotate(0 -32.5 45.5)"><path d="M-0.91 0.56 C-10.31 4.48, -44.55 8.46, -55.23 23.6 C-65.92 38.74, -63.45 80.08, -65 91.4 M0.82 -0.19 C-8.86 3.37, -45.21 6.88, -56.3 21.79 C-67.4 36.7, -64.47 78.02, -65.77 89.26" stroke="#d9480f" stroke-width="1" fill="none"></path></g><g transform="translate(631 531.65625) rotate(0 -32.5 45.5)"><path d="M-74.21 60.38 C-70.4 72.18, -67 84.29, -64.91 88.72 M-75.65 60.89 C-72.25 71.27, -68.62 81.5, -66.44 89.02" stroke="#d9480f" stroke-width="1" fill="none"></path></g><g transform="translate(631 531.65625) rotate(0 -32.5 45.5)"><path d="M-53.7 61.02 C-58.05 72.41, -62.81 84.26, -64.91 88.72 M-55.14 61.53 C-58.99 71.82, -62.6 81.82, -66.44 89.02" stroke="#d9480f" stroke-width="1" fill="none"></path></g></g><g stroke-linecap="round"><g transform="translate(614 657.65625) rotate(0 -1.5 -32.5)"><path d="M-0.71 0.63 C-1.15 -10.19, -2.03 -55.15, -2.39 -65.98 M1.11 -0.08 C0.55 -10.7, -2.24 -53.91, -3.02 -64.96" stroke="#d9480f" stroke-width="1" fill="none"></path></g><g transform="translate(614 657.65625) rotate(0 -1.5 -32.5)"><path d="M10.16 -36.51 C3.84 -46.11, 2.63 -56.97, -4.66 -66.21 M9.63 -37.2 C5.99 -46.44, 1.98 -54.67, -3.85 -65.92" stroke="#d9480f" stroke-width="1" fill="none"></path></g><g transform="translate(614 657.65625) rotate(0 -1.5 -32.5)"><path d="M-10.32 -35.13 C-10.11 -45.05, -4.8 -56.35, -4.66 -66.21 M-10.84 -35.83 C-7.99 -45.44, -5.52 -54.11, -3.85 -65.92" stroke="#d9480f" stroke-width="1" fill="none"></path></g></g><g stroke-linecap="round"><g transform="translate(528.5928298354149 589.7053867371559) rotate(0 43.703585082292555 -2.5245683685779596)"><path d="M-0.41 -0.91 C14.18 -1.92, 72.31 -4.9, 87.02 -5.39 M1.58 1.23 C16.02 0.33, 71.58 -2.9, 85.86 -4.03" stroke="#d9480f" stroke-width="1" fill="none"></path></g><g transform="translate(528.5928298354149 589.7053867371559) rotate(0 43.703585082292555 -2.5245683685779596)"><path d="M56.91 7.45 C64.83 5.78, 74.43 3.39, 86.43 -5.91 M57.76 8.72 C65.97 3.67, 74.2 1.19, 86.79 -4.34" stroke="#d9480f" stroke-width="1" fill="none"></path></g><g transform="translate(528.5928298354149 589.7053867371559) rotate(0 43.703585082292555 -2.5245683685779596)"><path d="M55.53 -13.02 C63.93 -9.43, 73.87 -6.57, 86.43 -5.91 M56.38 -11.76 C65.01 -10.65, 73.64 -6.96, 86.79 -4.34" stroke="#d9480f" stroke-width="1" fill="none"></path></g></g><g transform="translate(642 516.65625) rotate(0 15 12.5)"><text x="0" y="18" font-family="Virgil, Segoe UI Emoji" font-size="20px" fill="#d9480f" text-anchor="start" style="white-space: pre;" direction="ltr">Ma</text></g><g transform="translate(512 593.65625) rotate(0 18.5 12.5)"><text x="0" y="18" font-family="Virgil, Segoe UI Emoji" font-size="20px" fill="#d9480f" text-anchor="start" style="white-space: pre;" direction="ltr">Fxa</text></g><g transform="translate(636 651.65625) rotate(0 17.5 12.5)"><text x="0" y="18" font-family="Virgil, Segoe UI Emoji" font-size="20px" fill="#d9480f" text-anchor="start" style="white-space: pre;" direction="ltr">Fya</text></g><g transform="translate(749 618.65625) rotate(0 43 12.5)"><text x="0" y="18" font-family="Virgil, Segoe UI Emoji" font-size="20px" fill="#000000" text-anchor="start" style="white-space: pre;" direction="ltr">Incastro</text></g><g transform="translate(535 679.65625) rotate(0 39 25)"><text x="0" y="18" font-family="Virgil, Segoe UI Emoji" font-size="20px" fill="#d9480f" text-anchor="start" style="white-space: pre;" direction="ltr">Reazioni</text><text x="0" y="43" font-family="Virgil, Segoe UI Emoji" font-size="20px" fill="#d9480f" text-anchor="start" style="white-space: pre;" direction="ltr">vincolari</text></g><g transform="translate(605 866.65625) rotate(0 1.5 4)" stroke="none"><path fill="#000000" d="M 0.64,-2.57 Q 0.64,-2.57 2.10,-2.04 3.57,-1.52 4.33,-0.00 5.09,1.51 4.54,3.00 4.00,4.50 3.14,5.22 2.28,5.94 1.20,6.59 0.11,7.24 -1.00,7.91 -2.13,8.59 -4.07,6.94 -6.02,5.30 -5.82,4.18 -5.62,3.06 -4.74,2.21 -3.85,1.36 -2.22,0.69 -0.58,0.03 1.79,-0.00 4.17,-0.04 5.10,0.59 6.03,1.23 6.52,2.24 7.01,3.25 6.92,4.70 6.82,6.15 5.95,7.49 5.09,8.83 4.02,9.50 2.95,10.17 1.16,10.70 -0.63,11.24 -1.92,11.04 -3.20,10.84 -4.27,10.21 -5.34,9.59 -6.19,8.20 -7.04,6.81 -7.19,5.63 -7.35,4.44 -7.20,3.29 -7.05,2.14 -6.43,1.00 -5.80,-0.14 -4.86,-1.03 -3.91,-1.93 -2.47,-2.50 -1.03,-3.07 0.10,-3.59 1.23,-4.11 3.56,-3.90 5.89,-3.68 7.64,-2.62 9.39,-1.55 9.80,-0.39 10.21,0.77 9.94,2.35 9.68,3.92 9.19,5.49 8.70,7.05 8.04,8.06 7.38,9.07 6.41,9.83 5.43,10.59 3.63,11.33 1.83,12.06 -0.78,11.76 -3.40,11.45 -3.92,11.24 -4.44,11.04 -4.87,10.68 -5.30,10.32 -5.59,9.84 -5.88,9.36 -6.01,8.82 -6.13,8.27 -6.07,7.71 -6.02,7.16 -5.78,6.65 -5.55,6.14 -5.17,5.73 -4.79,5.32 -4.29,5.05 -3.80,4.79 -3.25,4.69 -2.69,4.60 -2.14,4.69 -1.59,4.78 -1.09,5.04 -0.59,5.30 -0.21,5.70 0.17,6.10 0.41,6.61 0.65,7.12 0.71,7.68 0.77,8.23 0.66,8.78 0.54,9.33 0.25,9.81 -0.02,10.29 -0.45,10.66 -0.87,11.02 -1.39,11.23 -1.91,11.44 -2.47,11.47 -3.03,11.51 -3.57,11.36 -4.11,11.21 -4.58,10.90 -5.04,10.59 -5.38,10.15 -5.73,9.70 -5.91,9.17 -6.09,8.64 -6.09,8.08 -6.10,7.52 -5.92,6.99 -5.74,6.46 -5.41,6.01 -5.07,5.56 -4.61,5.25 -4.15,4.93 -3.61,4.78 -3.07,4.62 -2.51,4.65 -1.95,4.68 -1.95,4.68 -1.95,4.68 -0.03,4.85 1.87,5.02 2.36,3.78 2.85,2.53 1.70,2.91 0.56,3.28 -0.58,3.88 -1.72,4.48 -0.50,4.46 0.70,4.44 1.59,5.15 2.47,5.87 0.91,5.61 -0.65,5.35 -1.64,3.78 -2.64,2.22 -1.73,1.66 -0.82,1.11 0.10,1.89 1.02,2.67 0.19,2.62 -0.64,2.57 -0.94,2.45 -1.23,2.34 -1.50,2.16 -1.76,1.97 -1.97,1.73 -2.18,1.49 -2.33,1.21 -2.48,0.93 -2.55,0.62 -2.63,0.31 -2.63,-0.00 -2.63,-0.32 -2.55,-0.63 -2.47,-0.94 -2.32,-1.23 -2.17,-1.51 -1.96,-1.75 -1.75,-1.99 -1.48,-2.17 -1.22,-2.35 -0.92,-2.46 -0.62,-2.57 -0.30,-2.61 0.00,-2.65 0.32,-2.61 0.64,-2.57 0.64,-2.57 L 0.64,-2.57 Z"></path></g><g stroke-linecap="round"><g transform="translate(610 866.65625) rotate(0 47.5 -60)"><path d="M-0.45 0.72 C15.26 -19.25, 78.54 -98.69, 94.39 -118.81 M1.51 0.05 C17.62 -19.69, 81.42 -100.53, 96.78 -120.3" stroke="#000000" stroke-width="1" fill="none"></path></g></g><g stroke-linecap="round"><g transform="translate(706 821.65625) rotate(0 56.5 -2)"><path d="M1.13 -1.04 C19.99 -1.83, 94.84 -4.27, 113.37 -4.73 M0.26 1.03 C18.98 0.37, 94.13 -3.01, 112.62 -3.57" stroke="#000000" stroke-width="1" fill="none"></path></g><g transform="translate(706 821.65625) rotate(0 56.5 -2)"><path d="M83.11 8.39 C92.49 2.77, 102.9 1.67, 110.84 -2.21 M85.08 8.39 C89.99 4.79, 96.06 2.68, 111.84 -3.66" stroke="#000000" stroke-width="1" fill="none"></path></g><g transform="translate(706 821.65625) rotate(0 56.5 -2)"><path d="M82.31 -12.12 C91.95 -11.21, 102.62 -5.76, 110.84 -2.21 M84.29 -12.12 C89.2 -11.3, 95.44 -9.01, 111.84 -3.66" stroke="#000000" stroke-width="1" fill="none"></path></g></g><g stroke-linecap="round"><g transform="translate(856 870.65625) rotate(0 48.5 -72)"><path d="M-0.53 0.03 C15.39 -23.62, 80.29 -118.97, 96.7 -143.02 M1.39 -0.99 C17.03 -24.88, 79.55 -120.94, 95.59 -144.62" stroke="#000000" stroke-width="1" fill="none"></path></g></g><g stroke-linecap="round"><g transform="translate(863 934.65625) rotate(0 0 -29)"><path d="M1.14 0.59 C1.06 -9.08, 0.62 -47.65, 0.59 -57.59 M0.28 -0.14 C0 -10.22, -0.11 -49.81, -0.04 -59.49" stroke="#d9480f" stroke-width="1" fill="none"></path></g><g transform="translate(863 934.65625) rotate(0 0 -29)"><path d="M10.84 -31.24 C6.59 -41.14, 0.36 -52.62, 0.84 -59.73 M10.62 -32.6 C7.7 -37.03, 5.59 -44.14, -0.83 -58.54" stroke="#d9480f" stroke-width="1" fill="none"></path></g><g transform="translate(863 934.65625) rotate(0 0 -29)"><path d="M-9 -31.26 C-5.53 -41.34, -4.05 -52.82, 0.84 -59.73 M-9.22 -32.62 C-8.15 -37.03, -6.27 -44.14, -0.83 -58.54" stroke="#d9480f" stroke-width="1" fill="none"></path></g></g><g stroke-linecap="round"><g transform="translate(791 868.65625) rotate(0 33.5 -1)"><path d="M-0.63 -0.99 C10.38 -1.19, 54.97 -1.33, 66.43 -1.33 M1.24 1.11 C12.01 0.56, 54.07 -2.45, 65.18 -3.1" stroke="#d9480f" stroke-width="1" fill="none"></path></g><g transform="translate(791 868.65625) rotate(0 33.5 -1)"><path d="M36.07 8.03 C47.88 6.96, 57.48 -0.13, 65.23 -1.34 M38.43 9.13 C46.18 5.42, 56.02 1.63, 64.55 -4.04" stroke="#d9480f" stroke-width="1" fill="none"></path></g><g transform="translate(791 868.65625) rotate(0 33.5 -1)"><path d="M34.73 -12.45 C46.96 -6.78, 57.01 -7.13, 65.23 -1.34 M37.09 -11.35 C45.45 -8.26, 55.73 -5.28, 64.55 -4.04" stroke="#d9480f" stroke-width="1" fill="none"></path></g></g><g transform="translate(578 872.65625) rotate(0 6 -2.5)" stroke="none"><path fill="#1864ab" d="M -0.92,-2.31 Q -0.92,-2.31 0.51,-2.87 1.95,-3.42 2.91,-4.12 3.87,-4.82 5.24,-5.35 6.61,-5.88 8.95,-6.69 11.28,-7.50 11.70,-7.49 12.12,-7.48 12.51,-7.34 12.90,-7.20 13.23,-6.94 13.56,-6.68 13.79,-6.33 14.01,-5.98 14.12,-5.58 14.22,-5.18 14.19,-4.76 14.16,-4.34 14.00,-3.96 13.84,-3.57 13.56,-3.26 13.28,-2.95 12.92,-2.74 12.56,-2.53 12.15,-2.45 11.74,-2.37 11.33,-2.42 10.92,-2.47 10.54,-2.66 10.17,-2.84 9.87,-3.13 9.57,-3.42 9.38,-3.80 9.19,-4.17 9.13,-4.58 9.07,-5.00 9.15,-5.41 9.23,-5.82 9.43,-6.18 9.63,-6.55 9.94,-6.83 10.25,-7.11 10.63,-7.28 11.01,-7.44 11.43,-7.48 11.84,-7.52 12.25,-7.42 12.65,-7.32 13.01,-7.10 13.36,-6.88 13.62,-6.56 13.89,-6.23 14.03,-5.84 14.18,-5.45 14.20,-5.03 14.21,-4.62 14.09,-4.22 13.97,-3.82 13.73,-3.48 13.49,-3.14 13.15,-2.89 12.82,-2.64 12.42,-2.52 12.02,-2.39 12.02,-2.39 12.02,-2.39 9.32,-1.57 6.61,-0.75 5.20,0.18 3.79,1.12 2.36,1.72 0.92,2.31 0.63,2.39 0.34,2.47 0.04,2.47 -0.25,2.48 -0.54,2.41 -0.84,2.34 -1.11,2.21 -1.38,2.07 -1.60,1.88 -1.83,1.68 -2.01,1.44 -2.18,1.19 -2.30,0.91 -2.41,0.64 -2.45,0.34 -2.49,0.04 -2.46,-0.25 -2.43,-0.55 -2.33,-0.83 -2.23,-1.11 -2.06,-1.37 -1.89,-1.62 -1.67,-1.82 -1.45,-2.02 -1.19,-2.17 -0.92,-2.31 -0.92,-2.31 L -0.92,-2.31 Z"></path></g><g transform="translate(587 891.65625) rotate(0 5.5 -7.5)" stroke="none"><path fill="#1864ab" d="M -2.00,-1.50 Q -2.00,-1.50 -1.13,-2.64 -0.27,-3.79 0.39,-4.65 1.06,-5.51 1.86,-6.61 2.66,-7.71 3.62,-9.04 4.58,-10.36 5.21,-11.46 5.85,-12.55 7.59,-14.74 9.34,-16.93 9.71,-17.10 10.08,-17.27 10.49,-17.32 10.90,-17.36 11.30,-17.27 11.70,-17.18 12.05,-16.96 12.40,-16.75 12.66,-16.44 12.92,-16.12 13.07,-15.74 13.22,-15.36 13.24,-14.95 13.26,-14.54 13.15,-14.15 13.04,-13.75 12.81,-13.42 12.58,-13.08 12.25,-12.83 11.92,-12.59 11.53,-12.46 11.15,-12.33 10.74,-12.33 10.33,-12.33 9.94,-12.47 9.55,-12.60 9.23,-12.85 8.90,-13.10 8.67,-13.44 8.45,-13.78 8.34,-14.17 8.23,-14.57 8.25,-14.98 8.28,-15.39 8.43,-15.77 8.59,-16.15 8.85,-16.46 9.12,-16.77 9.47,-16.98 9.82,-17.19 10.22,-17.27 10.63,-17.36 11.03,-17.31 11.44,-17.27 11.81,-17.09 12.18,-16.92 12.48,-16.63 12.77,-16.35 12.96,-15.99 13.15,-15.63 13.22,-15.22 13.28,-14.82 13.21,-14.41 13.14,-14.01 12.95,-13.65 12.76,-13.29 12.46,-13.01 12.16,-12.73 12.16,-12.73 12.16,-12.73 11.14,-11.37 10.12,-10.02 9.38,-8.80 8.64,-7.58 7.72,-6.17 6.81,-4.75 5.26,-2.77 3.72,-0.80 2.86,0.34 2.00,1.50 1.79,1.71 1.58,1.93 1.32,2.09 1.07,2.26 0.78,2.35 0.50,2.45 0.20,2.47 -0.09,2.50 -0.39,2.45 -0.69,2.40 -0.97,2.28 -1.24,2.16 -1.49,1.98 -1.73,1.80 -1.92,1.57 -2.11,1.33 -2.24,1.06 -2.37,0.79 -2.43,0.49 -2.49,0.20 -2.48,-0.09 -2.47,-0.39 -2.38,-0.68 -2.30,-0.97 -2.15,-1.24 -2.00,-1.50 -2.00,-1.50 L -2.00,-1.50 Z"></path></g><g transform="translate(603 888.65625) rotate(0 0.5 -2)" stroke="none"><path fill="#1864ab" d="M -2.33,0 Q -2.33,0 0.05,-0.48 2.44,-0.97 2.38,-0.58 2.32,-0.19 2.13,0.15 1.94,0.50 1.66,0.77 1.37,1.04 1.01,1.21 0.65,1.38 0.26,1.42 -0.13,1.46 -0.51,1.38 -0.90,1.29 -1.24,1.09 -1.58,0.88 -1.84,0.58 -2.09,0.28 -2.24,-0.08 -2.39,-0.45 -2.41,-0.84 -2.43,-1.24 -2.32,-1.62 -2.22,-2.00 -2.00,-2.33 -1.77,-2.66 -1.46,-2.90 -1.14,-3.14 -0.77,-3.26 -0.39,-3.39 0.00,-3.39 0.39,-3.39 0.77,-3.26 1.14,-3.14 1.46,-2.90 1.77,-2.66 2.00,-2.33 2.22,-2.00 2.32,-1.62 2.43,-1.24 2.41,-0.84 2.39,-0.45 2.24,-0.08 2.09,0.28 1.84,0.58 1.58,0.88 1.24,1.09 0.90,1.29 0.51,1.38 0.13,1.46 -0.26,1.42 -0.65,1.38 -1.01,1.21 -1.37,1.04 -1.66,0.77 -1.95,0.50 -2.13,0.15 -2.32,-0.19 -2.38,-0.58 -2.44,-0.97 -2.44,-0.97 -2.44,-0.97 -0.05,-0.48 2.33,0 2.30,0.27 2.26,0.55 2.16,0.82 2.06,1.08 1.90,1.31 1.74,1.54 1.53,1.73 1.32,1.92 1.07,2.05 0.82,2.18 0.55,2.25 0.28,2.31 -0.00,2.31 -0.28,2.31 -0.55,2.25 -0.82,2.18 -1.07,2.05 -1.32,1.92 -1.53,1.73 -1.74,1.54 -1.90,1.31 -2.06,1.08 -2.16,0.82 -2.26,0.55 -2.30,0.27 -2.33,-0.00 -2.33,-0.00 L -2.33,0 Z"></path></g><g transform="translate(617 888.65625) rotate(0 -1.5 -3.5)" stroke="none"><path fill="#1864ab" d="M -2.25,0.45 Q -2.25,0.45 -2.54,-0.97 -2.84,-2.40 -3.43,-3.75 -4.01,-5.09 -4.50,-5.50 -4.99,-5.92 -5.04,-6.23 -5.08,-6.54 -5.04,-6.85 -5.01,-7.17 -4.90,-7.46 -4.79,-7.76 -4.62,-8.02 -4.44,-8.29 -4.21,-8.50 -3.98,-8.71 -3.70,-8.86 -3.42,-9.01 -3.11,-9.09 -2.81,-9.17 -2.49,-9.17 -2.18,-9.18 -1.87,-9.11 -1.56,-9.03 -1.28,-8.89 -1.00,-8.75 -0.76,-8.54 -0.52,-8.34 -0.34,-8.08 -0.16,-7.82 -0.04,-7.53 0.06,-7.23 0.57,-5.41 1.08,-3.59 1.15,-3.23 1.23,-2.87 1.18,-2.50 1.13,-2.14 0.97,-1.80 0.81,-1.47 0.55,-1.21 0.29,-0.95 -0.03,-0.78 -0.36,-0.62 -0.72,-0.56 -1.09,-0.51 -1.45,-0.58 -1.82,-0.65 -2.14,-0.83 -2.46,-1.00 -2.71,-1.28 -2.96,-1.55 -3.10,-1.89 -3.25,-2.23 -3.28,-2.59 -3.32,-2.96 -3.23,-3.32 -3.14,-3.68 -2.95,-3.99 -2.75,-4.30 -2.46,-4.54 -2.18,-4.77 -1.83,-4.90 -1.49,-5.03 -1.12,-5.04 -0.75,-5.05 -0.40,-4.95 -0.04,-4.84 0.25,-4.63 0.55,-4.41 0.77,-4.12 0.98,-3.82 1.09,-3.47 1.20,-3.11 1.20,-2.74 1.19,-2.38 1.06,-2.03 0.94,-1.68 0.71,-1.39 0.48,-1.10 0.17,-0.90 -0.13,-0.70 -0.49,-0.61 -0.84,-0.52 -1.21,-0.55 -1.58,-0.58 -1.92,-0.72 -2.26,-0.86 -2.54,-1.11 -2.81,-1.35 -2.99,-1.67 -3.18,-1.99 -3.18,-1.99 -3.18,-1.99 -4.09,-3.95 -4.99,-5.92 -5.04,-6.23 -5.08,-6.54 -5.04,-6.85 -5.01,-7.17 -4.90,-7.46 -4.79,-7.76 -4.62,-8.02 -4.44,-8.29 -4.21,-8.50 -3.98,-8.71 -3.70,-8.86 -3.42,-9.01 -3.12,-9.09 -2.81,-9.17 -2.49,-9.17 -2.18,-9.18 -1.87,-9.11 -1.56,-9.03 -1.28,-8.89 -1.00,-8.75 -0.76,-8.54 -0.52,-8.34 -0.34,-8.08 -0.16,-7.82 -0.04,-7.53 0.06,-7.23 0.44,-6.45 0.81,-5.67 1.25,-4.50 1.69,-3.34 1.97,-1.89 2.25,-0.45 2.27,-0.17 2.29,0.10 2.24,0.37 2.20,0.64 2.09,0.90 1.98,1.15 1.81,1.37 1.65,1.59 1.43,1.77 1.21,1.94 0.96,2.06 0.71,2.18 0.44,2.23 0.17,2.29 -0.10,2.27 -0.37,2.26 -0.64,2.18 -0.90,2.10 -1.14,1.97 -1.38,1.83 -1.58,1.63 -1.78,1.44 -1.93,1.21 -2.07,0.97 -2.16,0.71 -2.25,0.45 -2.25,0.45 L -2.25,0.45 Z"></path></g><g stroke-linecap="round"><g transform="translate(594 1034.65625) rotate(0 18.5 22)"><path d="M-1.06 -0.69 C4.96 6.76, 30.01 36.67, 36.54 43.94 M0.58 1.56 C6.37 9.28, 29.12 38.43, 35.34 45.45" stroke="#000000" stroke-width="1" fill="none"></path></g></g><g stroke-linecap="round"><g transform="translate(570 1023.65625) rotate(0 38.5 43.5)"><path d="M0.23 0.69 C13.21 14.99, 64.47 71.5, 77.13 85.96 M-1.11 0.01 C11.78 14.4, 62.96 72.72, 76.26 86.94" stroke="#000000" stroke-width="1" fill="none"></path></g></g><g stroke-linecap="round"><g transform="translate(612 1051.65625) rotate(0 36 -32.5)"><path d="M-1.08 0.18 C11.15 -10.85, 60.77 -54.46, 73.01 -65.15 M0.55 -0.77 C12.74 -11.09, 60.72 -52.86, 72.59 -63.69" stroke="#000000" stroke-width="1" fill="none"></path></g></g><g stroke-linecap="round"><g transform="translate(718 1035.65625) rotate(0 54 -0.5)"><path d="M-1.07 -0.76 C17.09 -0.77, 90.6 -0.15, 108.59 -0.29 M0.57 1.46 C18.66 1.13, 89.86 -1.7, 107.95 -2.04" stroke="#000000" stroke-width="1" fill="none"></path></g><g transform="translate(718 1035.65625) rotate(0 54 -0.5)"><path d="M78.83 10.06 C88.8 4.43, 94.1 1.9, 106.54 -2.13 M79.21 9.02 C86.68 5.34, 94.39 4.27, 108.62 -1.44" stroke="#000000" stroke-width="1" fill="none"></path></g><g transform="translate(718 1035.65625) rotate(0 54 -0.5)"><path d="M78.2 -10.45 C88.3 -10.55, 93.77 -7.55, 106.54 -2.13 M78.58 -11.49 C86.03 -10.08, 93.9 -6.04, 108.62 -1.44" stroke="#000000" stroke-width="1" fill="none"></path></g></g><g stroke-linecap="round"><g transform="translate(892 1059.65625) rotate(0 66 -71.5)"><path d="M-0.54 0.91 C21.32 -22.92, 109.92 -118.82, 132 -142.67 M1.38 0.35 C23 -23.9, 109.43 -120.55, 131.05 -144.62" stroke="#000000" stroke-width="1" fill="none"></path></g></g><g stroke-linecap="round"><g transform="translate(944 1043.65625) rotate(0 -38 -4.5)"><path d="M1.1 -0.19 C-2.66 -3.81, -14.58 -19.22, -21.79 -22.63 C-29.01 -26.05, -35.22 -23.2, -42.19 -20.67 C-49.17 -18.14, -57.99 -12.88, -63.67 -7.46 C-69.34 -2.03, -74.08 8.6, -76.23 11.91 M0.22 -1.34 C-3.23 -4.73, -12.8 -18.46, -19.5 -21.43 C-26.19 -24.4, -32.64 -21.65, -39.93 -19.18 C-47.22 -16.7, -56.93 -11.74, -63.24 -6.59 C-69.56 -1.44, -75.78 8.18, -77.81 11.72" stroke="#d9480f" stroke-width="1" fill="none"></path></g><g transform="translate(944 1043.65625) rotate(0 -38 -4.5)"><path d="M-75.56 -0.45 C-76.97 3.35, -76.92 9.01, -78.26 11.5 M-75.58 0.23 C-76.14 2.92, -76.84 4.84, -77.99 11.23" stroke="#d9480f" stroke-width="1" fill="none"></path></g><g transform="translate(944 1043.65625) rotate(0 -38 -4.5)"><path d="M-68.8 3.79 C-72.65 6.1, -75.08 10.21, -78.26 11.5 M-68.82 4.47 C-70.77 6.24, -72.89 7.27, -77.99 11.23" stroke="#d9480f" stroke-width="1" fill="none"></path></g></g><g stroke-linecap="round"><g transform="translate(855 1102.65625) rotate(0 17.5 -21)"><path d="M0.14 -0.83 C5.68 -7.87, 28.46 -36, 34.37 -42.91 M-1.25 1.35 C4.6 -5.5, 30.68 -34.77, 36.75 -41.85" stroke="#d9480f" stroke-width="1" fill="none"></path></g><g transform="translate(855 1102.65625) rotate(0 17.5 -21)"><path d="M25.48 -17.43 C29.36 -25.42, 34.26 -34.65, 38 -42.73 M26.52 -16.57 C29.89 -23, 33.41 -31.9, 36.16 -41.55" stroke="#d9480f" stroke-width="1" fill="none"></path></g><g transform="translate(855 1102.65625) rotate(0 17.5 -21)"><path d="M11.41 -29.75 C20.75 -32.91, 31.17 -37.31, 38 -42.73 M12.45 -28.89 C19.97 -31.54, 27.66 -36.78, 36.16 -41.55" stroke="#d9480f" stroke-width="1" fill="none"></path></g></g><g transform="translate(718 1089.65625) rotate(0 37.5 12.5)"><text x="0" y="18" font-family="Virgil, Segoe UI Emoji" font-size="20px" fill="#000000" text-anchor="start" style="white-space: pre;" direction="ltr">Pattino</text></g><g transform="translate(707 895.65625) rotate(0 40 12.5)"><text x="0" y="18" font-family="Virgil, Segoe UI Emoji" font-size="20px" fill="#000000" text-anchor="start" style="white-space: pre;" direction="ltr">Cerniera</text></g><g stroke-linecap="round"><g transform="translate(630 1240.65625) rotate(0 41.5 46.5)"><path d="M0.56 -0.12 C14.46 15.51, 69.42 78.04, 83.18 93.56 M-0.61 -1.23 C13.17 14.07, 68.48 75.81, 82.32 91.72" stroke="#000000" stroke-width="1" fill="none"></path></g></g><g stroke-linecap="round"><g transform="translate(703 1170.65625) rotate(0 3.5 36.5)"><path d="M0.4 0.74 C1.53 13.01, 6.73 61.1, 7.66 73.2 M-0.84 0.09 C0.1 12, 5.53 59.33, 7.05 71.18" stroke="#000000" stroke-width="1" fill="none"></path></g></g><g stroke-linecap="round"><g transform="translate(706 1245.65625) rotate(0 -20.5 16.5)"><path d="M-1.06 -0.68 C-7.86 -0.85, -40.34 -5.79, -40.71 -0.12 C-41.08 5.54, -9.99 33.32, -3.3 33.31 C3.4 33.3, -1.06 5.39, -0.55 -0.18 M0.58 1.57 C-6.36 1.43, -40.79 -4.71, -41.5 0.82 C-42.21 6.36, -10.51 34.79, -3.69 34.79 C3.12 34.79, -1.51 6.59, -0.6 0.83" stroke="#000000" stroke-width="1" fill="none"></path></g></g><g transform="translate(704 1245.65625) rotate(0 9 1)" stroke="none"><path fill="#000000" d="M -0.83,-2.50 Q -0.83,-2.50 0.01,-2.82 0.87,-3.14 2.12,-3.24 3.37,-3.33 4.55,-3.14 5.73,-2.95 6.89,-2.38 8.05,-1.81 8.48,0.44 8.91,2.70 7.68,3.95 6.46,5.20 4.19,5.40 1.92,5.59 0.87,4.96 -0.18,4.34 -0.56,3.05 -0.94,1.75 -0.54,0.37 -0.15,-1.00 0.98,-1.99 2.12,-2.98 3.90,-3.57 5.67,-4.15 7.21,-4.24 8.76,-4.32 10.37,-4.33 11.98,-4.34 13.09,-4.36 14.21,-4.38 16.29,-4.12 18.37,-3.87 19.50,-2.23 20.63,-0.58 20.52,0.66 20.40,1.91 19.75,2.76 19.11,3.60 18.08,4.25 17.06,4.90 14.99,5.52 12.92,6.15 11.46,6.27 10.01,6.40 8.49,6.42 6.96,6.43 5.73,6.41 4.49,6.38 2.40,5.20 0.30,4.01 -0.08,3.67 -0.47,3.32 -0.74,2.87 -1.00,2.41 -1.10,1.90 -1.20,1.38 -1.14,0.86 -1.07,0.34 -0.84,-0.12 -0.61,-0.59 -0.24,-0.96 0.11,-1.34 0.58,-1.57 1.05,-1.81 1.57,-1.89 2.09,-1.96 2.60,-1.87 3.12,-1.77 3.58,-1.52 4.03,-1.26 4.39,-0.87 4.74,-0.49 4.95,-0.01 5.16,0.46 5.21,0.98 5.26,1.51 5.13,2.02 5.01,2.53 4.73,2.97 4.45,3.41 4.05,3.75 3.64,4.08 3.15,4.26 2.66,4.45 2.14,4.46 1.61,4.48 1.11,4.33 0.61,4.18 0.18,3.88 -0.24,3.58 -0.55,3.16 -0.86,2.73 -1.01,2.23 -1.17,1.73 -1.16,1.21 -1.15,0.68 -0.98,0.19 -0.80,-0.29 -0.47,-0.70 -0.15,-1.12 0.28,-1.40 0.72,-1.69 1.23,-1.82 1.74,-1.95 2.26,-1.91 2.78,-1.87 3.27,-1.67 3.75,-1.46 3.75,-1.46 3.75,-1.46 4.78,-0.96 5.81,-0.45 6.98,-0.45 8.15,-0.45 9.94,-0.53 11.73,-0.61 13.23,-0.44 14.72,-0.26 14.47,1.05 14.21,2.38 13.11,2.36 12.01,2.35 10.45,2.36 8.89,2.37 7.15,2.36 5.42,2.35 4.95,1.20 4.48,0.05 4.69,1.44 4.90,2.83 3.74,2.41 2.57,1.99 1.70,2.25 0.83,2.50 0.52,2.56 0.21,2.63 -0.10,2.61 -0.42,2.60 -0.73,2.51 -1.03,2.42 -1.31,2.26 -1.58,2.11 -1.81,1.88 -2.04,1.66 -2.21,1.40 -2.38,1.13 -2.48,0.82 -2.58,0.52 -2.61,0.20 -2.63,-0.10 -2.58,-0.42 -2.53,-0.73 -2.41,-1.02 -2.28,-1.32 -2.09,-1.57 -1.90,-1.83 -1.65,-2.03 -1.41,-2.23 -1.12,-2.36 -0.83,-2.50 -0.83,-2.50 L -0.83,-2.50 Z"></path></g><g transform="translate(647 1249.65625) rotate(0 9 0)" stroke="none"><path fill="#000000" d="M -0.61,-2.47 Q -0.61,-2.47 0.50,-2.77 1.62,-3.07 3.39,-4.25 5.17,-5.44 6.84,-6.21 8.50,-6.98 10.68,-8.05 12.85,-9.12 14.37,-9.41 15.90,-9.69 17.04,-9.79 18.18,-9.89 20.16,-9.01 22.13,-8.13 22.48,-7.08 22.83,-6.03 22.56,-4.57 22.28,-3.11 21.74,-2.15 21.19,-1.19 20.30,-0.18 19.40,0.82 18.22,2.09 17.04,3.36 15.97,4.10 14.90,4.85 13.24,5.62 11.58,6.40 9.93,7.01 8.28,7.63 7.10,8.16 5.93,8.68 4.02,9.17 2.12,9.66 0.87,9.35 -0.38,9.04 -1.75,7.66 -3.12,6.28 -3.95,4.99 -4.79,3.71 -4.88,2.29 -4.98,0.87 -5.00,-0.23 -5.03,-1.34 -4.50,-3.73 -3.97,-6.13 -2.71,-7.17 -1.45,-8.22 0.20,-8.53 1.85,-8.83 3.04,-9.10 4.23,-9.37 6.02,-9.66 7.82,-9.95 9.25,-9.63 10.69,-9.31 12.05,-8.40 13.42,-7.48 14.86,-5.87 16.31,-4.25 16.49,-2.11 16.68,0.01 15.80,1.34 14.92,2.67 13.94,3.18 12.96,3.69 11.71,3.89 10.45,4.09 8.98,3.79 7.50,3.49 5.20,3.21 2.91,2.93 2.45,2.85 1.99,2.76 1.59,2.54 1.18,2.31 0.87,1.96 0.56,1.62 0.37,1.19 0.19,0.77 0.15,0.30 0.11,-0.15 0.22,-0.60 0.33,-1.05 0.57,-1.44 0.82,-1.84 1.18,-2.13 1.54,-2.42 1.98,-2.58 2.42,-2.75 2.88,-2.76 3.34,-2.78 3.79,-2.64 4.23,-2.51 4.61,-2.24 4.99,-1.97 5.26,-1.59 5.54,-1.22 5.68,-0.77 5.81,-0.33 5.80,0.13 5.79,0.59 5.63,1.03 5.48,1.46 5.19,1.83 4.90,2.19 4.51,2.44 4.12,2.69 3.67,2.81 3.22,2.92 2.75,2.89 2.29,2.85 1.86,2.67 1.43,2.49 1.09,2.18 0.74,1.87 0.51,1.47 0.28,1.06 0.19,0.61 0.10,0.15 0.16,-0.30 0.22,-0.76 0.42,-1.18 0.63,-1.59 0.96,-1.92 1.28,-2.25 1.70,-2.46 2.11,-2.67 2.57,-2.74 3.03,-2.80 3.03,-2.80 3.03,-2.80 5.26,-2.93 7.49,-3.06 9.22,-2.31 10.95,-1.56 9.59,-2.70 8.24,-3.85 7.00,-3.71 5.75,-3.56 3.44,-2.54 1.12,-1.51 0.81,0.35 0.51,2.23 2.08,2.95 3.64,3.67 4.89,3.09 6.13,2.51 7.48,1.87 8.82,1.23 10.15,0.41 11.47,-0.40 12.55,-1.24 13.62,-2.07 14.79,-3.33 15.96,-4.59 17.12,-4.33 18.28,-4.07 16.83,-4.11 15.39,-4.16 14.17,-4.03 12.94,-3.91 11.87,-3.24 10.80,-2.57 9.29,-1.70 7.79,-0.83 6.82,-0.30 5.86,0.21 4.41,1.07 2.97,1.92 1.79,2.19 0.61,2.47 0.31,2.51 0.00,2.54 -0.29,2.51 -0.60,2.47 -0.88,2.36 -1.17,2.26 -1.43,2.08 -1.68,1.91 -1.88,1.68 -2.09,1.45 -2.23,1.18 -2.38,0.91 -2.45,0.61 -2.52,0.31 -2.53,0.00 -2.53,-0.29 -2.45,-0.59 -2.38,-0.89 -2.24,-1.16 -2.10,-1.44 -1.89,-1.67 -1.69,-1.90 -1.44,-2.07 -1.19,-2.25 -0.90,-2.36 -0.61,-2.47 -0.61,-2.47 L -0.61,-2.47 Z"></path></g><g transform="translate(696 1280.65625) rotate(0 -4 1)" stroke="none"><path fill="#000000" d="M 1.85,1.85 Q 1.85,1.85 1.28,2.47 0.71,3.09 -0.46,3.64 -1.65,4.19 -3.09,3.93 -4.53,3.67 -5.38,2.24 -6.23,0.81 -5.71,-1.04 -5.20,-2.90 -3.67,-4.11 -2.14,-5.33 -0.74,-5.82 0.65,-6.31 2.94,-6.22 5.22,-6.12 6.15,-5.52 7.07,-4.92 7.54,-2.76 8.02,-0.60 7.47,0.44 6.91,1.49 6.13,2.26 5.34,3.03 4.16,4.24 2.98,5.44 1.46,6.23 -0.05,7.02 -1.51,7.52 -2.97,8.03 -4.36,8.31 -5.76,8.59 -6.96,8.71 -8.17,8.82 -10.26,8.51 -12.35,8.19 -14.39,6.75 -16.44,5.31 -16.40,3.75 -16.37,2.19 -15.92,1.10 -15.47,0.02 -14.52,-1.24 -13.56,-2.52 -11.94,-3.94 -10.31,-5.36 -8.13,-6.11 -5.95,-6.86 -4.81,-6.96 -3.67,-7.05 -1.60,-6.69 0.46,-6.34 2.10,-5.78 3.74,-5.22 2.43,-1.03 1.13,3.14 0.60,3.14 0.06,3.13 -0.43,2.96 -0.93,2.79 -1.35,2.46 -1.77,2.14 -2.07,1.70 -2.36,1.25 -2.50,0.74 -2.64,0.23 -2.61,-0.29 -2.57,-0.82 -2.37,-1.32 -2.17,-1.81 -1.82,-2.21 -1.48,-2.61 -1.02,-2.88 -0.56,-3.15 -0.04,-3.26 0.47,-3.37 1.00,-3.31 1.52,-3.25 2.00,-3.02 2.48,-2.80 2.87,-2.43 3.25,-2.06 3.50,-1.59 3.74,-1.12 3.82,-0.59 3.91,-0.07 3.81,0.45 3.72,0.97 3.47,1.44 3.22,1.91 2.83,2.27 2.44,2.63 1.96,2.85 1.47,3.07 0.95,3.12 0.42,3.18 -0.09,3.06 -0.61,2.94 -1.06,2.66 -1.52,2.38 -1.86,1.98 -2.20,1.57 -2.39,1.07 -2.58,0.58 -2.61,0.05 -2.63,-0.47 -2.49,-0.98 -2.34,-1.50 -2.04,-1.93 -1.74,-2.37 -1.31,-2.69 -0.89,-3.01 -0.38,-3.17 0.11,-3.34 0.11,-3.34 0.11,-3.34 0.19,-1.66 0.26,0.01 -1.45,-0.35 -3.18,-0.72 -4.47,-0.63 -5.77,-0.54 -7.18,0.38 -8.59,1.32 -9.39,2.60 -10.19,3.89 -10.87,3.01 -11.55,2.13 -10.12,2.51 -8.69,2.90 -6.89,2.67 -5.09,2.45 -3.22,1.69 -1.35,0.92 -0.20,-0.20 0.95,-1.34 2.08,-1.13 3.21,-0.93 2.10,-0.73 0.99,-0.53 -0.06,-0.13 -1.12,0.26 -2.06,-0.26 -3.01,-0.79 -2.43,-1.32 -1.85,-1.85 -1.60,-2.05 -1.35,-2.24 -1.06,-2.37 -0.78,-2.50 -0.46,-2.56 -0.15,-2.62 0.15,-2.60 0.47,-2.58 0.77,-2.48 1.07,-2.39 1.34,-2.23 1.61,-2.06 1.84,-1.84 2.06,-1.61 2.23,-1.34 2.39,-1.07 2.48,-0.77 2.58,-0.47 2.60,-0.15 2.62,0.15 2.56,0.46 2.50,0.78 2.37,1.06 2.24,1.35 2.05,1.60 1.85,1.85 1.85,1.85 L 1.85,1.85 Z"></path></g><g stroke-linecap="round"><g transform="translate(771 1235.65625) rotate(0 55.5 -2.5)"><path d="M-0.95 0.37 C17.8 -0.27, 93.06 -3.49, 111.73 -4.57 M0.75 -0.48 C19.47 -1.43, 92.9 -5.65, 111.17 -6.46" stroke="#000000" stroke-width="1" fill="none"></path></g><g transform="translate(771 1235.65625) rotate(0 55.5 -2.5)"><path d="M84.17 6.47 C90.9 2.85, 94.89 0.57, 109.71 -7.89 M82.69 6.18 C92.99 1.47, 99.8 -1.62, 110.75 -6.69" stroke="#000000" stroke-width="1" fill="none"></path></g><g transform="translate(771 1235.65625) rotate(0 55.5 -2.5)"><path d="M83.11 -14.02 C89.97 -12.77, 94.21 -10.19, 109.71 -7.89 M81.63 -14.32 C92.07 -12.83, 99.2 -9.73, 110.75 -6.69" stroke="#000000" stroke-width="1" fill="none"></path></g></g><g stroke-linecap="round"><g transform="translate(1001 1262.65625) rotate(0 -11.5 -49.5)"><path d="M-0.39 -0.64 C-4.39 -17.42, -19.04 -83.02, -22.85 -99.5 M1.6 1.64 C-2.63 -14.48, -19.42 -81.55, -23.72 -98.23" stroke="#000000" stroke-width="1" fill="none"></path></g></g><g stroke-linecap="round"><g transform="translate(960 1347.65625) rotate(0 20.17275198679883 -37.768845233661125)"><path d="M0.99 0.16 C7.59 -12.26, 32.92 -62.55, 39.45 -75.15 M0.06 -0.79 C7.04 -13.53, 35.15 -64.86, 41.69 -77.08" stroke="#d9480f" stroke-width="1" fill="none"></path></g><g transform="translate(960 1347.65625) rotate(0 20.17275198679883 -37.768845233661125)"><path d="M37.54 -48.9 C39.34 -56.33, 40.14 -65.48, 41.08 -75.82 M37.51 -46.71 C39.68 -58.45, 40.87 -68.65, 42.29 -77.83" stroke="#d9480f" stroke-width="1" fill="none"></path></g><g transform="translate(960 1347.65625) rotate(0 20.17275198679883 -37.768845233661125)"><path d="M19.5 -58.68 C26.46 -63.44, 32.47 -69.76, 41.08 -75.82 M19.47 -56.5 C28.2 -64.78, 35.99 -71.4, 42.29 -77.83" stroke="#d9480f" stroke-width="1" fill="none"></path></g></g><g transform="translate(803 1305.65625) rotate(0 38.5 12.5)"><text x="0" y="18" font-family="Virgil, Segoe UI Emoji" font-size="20px" fill="#000000" text-anchor="start" style="white-space: pre;" direction="ltr">Carrello</text></g><g transform="translate(691 1337.65625) rotate(0 1 -14)" stroke="none"><path fill="#1864ab" d="M -1.96,-0.24 Q -1.96,-0.24 -1.58,-2.53 -1.21,-4.82 -1.03,-8.02 -0.84,-11.21 -0.45,-15.23 -0.06,-19.24 0.10,-21.49 0.28,-23.74 0.28,-25.52 0.28,-27.29 0.33,-27.56 0.39,-27.82 0.53,-28.06 0.67,-28.29 0.88,-28.47 1.08,-28.64 1.33,-28.75 1.59,-28.85 1.86,-28.87 2.13,-28.88 2.39,-28.81 2.65,-28.74 2.88,-28.59 3.11,-28.44 3.27,-28.22 3.44,-28.00 3.53,-27.75 3.61,-27.49 3.62,-27.22 3.62,-26.95 3.53,-26.69 3.45,-26.43 3.28,-26.21 3.12,-25.99 2.89,-25.84 2.67,-25.69 2.41,-25.61 2.15,-25.54 1.88,-25.55 1.60,-25.57 1.35,-25.67 1.10,-25.76 0.89,-25.94 0.68,-26.11 0.54,-26.35 0.40,-26.58 0.34,-26.84 0.28,-27.11 0.31,-27.38 0.33,-27.65 0.45,-27.90 0.56,-28.15 0.75,-28.34 0.93,-28.54 1.17,-28.67 1.41,-28.80 1.68,-28.84 1.95,-28.89 2.22,-28.85 2.49,-28.80 2.73,-28.68 2.97,-28.55 3.16,-28.36 3.34,-28.16 3.46,-27.91 3.57,-27.67 3.60,-27.40 3.64,-27.13 3.64,-27.13 3.64,-27.13 3.46,-25.34 3.28,-23.55 3.17,-21.26 3.06,-18.98 2.77,-15.03 2.48,-11.09 2.42,-7.73 2.36,-4.37 2.16,-2.06 1.96,0.24 1.90,0.47 1.84,0.70 1.73,0.91 1.62,1.13 1.46,1.30 1.30,1.48 1.11,1.62 0.91,1.75 0.69,1.83 0.46,1.92 0.22,1.95 -0.00,1.97 -0.24,1.94 -0.48,1.92 -0.70,1.83 -0.92,1.74 -1.12,1.61 -1.31,1.47 -1.47,1.29 -1.63,1.11 -1.74,0.90 -1.85,0.69 -1.90,0.46 -1.96,0.23 -1.96,-0.00 -1.96,-0.24 -1.96,-0.24 L -1.96,-0.24 Z"></path></g><g transform="translate(673 1317.65625) rotate(0 -3 -15)" stroke="none"><path fill="#1864ab" d="M -1.85,0.26 Q -1.85,0.26 -2.09,-1.75 -2.32,-3.77 -2.95,-6.87 -3.57,-9.97 -4.39,-13.31 -5.21,-16.65 -5.84,-19.54 -6.48,-22.43 -7.00,-25.44 -7.52,-28.46 -7.51,-28.74 -7.51,-29.02 -7.41,-29.28 -7.31,-29.54 -7.14,-29.75 -6.96,-29.97 -6.73,-30.12 -6.50,-30.27 -6.23,-30.34 -5.96,-30.40 -5.68,-30.38 -5.40,-30.36 -5.15,-30.25 -4.89,-30.14 -4.68,-29.95 -4.48,-29.76 -4.34,-29.52 -4.20,-29.28 -4.15,-29.01 -4.10,-28.73 -4.14,-28.46 -4.18,-28.18 -4.30,-27.93 -4.43,-27.68 -4.62,-27.49 -4.82,-27.29 -5.07,-27.17 -5.32,-27.04 -5.59,-27.01 -5.87,-26.97 -6.14,-27.02 -6.42,-27.08 -6.66,-27.21 -6.90,-27.35 -7.08,-27.56 -7.27,-27.77 -7.38,-28.02 -7.49,-28.28 -7.51,-28.55 -7.53,-28.83 -7.46,-29.10 -7.40,-29.37 -7.25,-29.61 -7.10,-29.84 -6.88,-30.01 -6.66,-30.19 -6.40,-30.28 -6.14,-30.38 -5.86,-30.38 -5.58,-30.39 -5.32,-30.31 -5.05,-30.23 -4.83,-30.06 -4.60,-29.90 -4.44,-29.68 -4.28,-29.45 -4.20,-29.18 -4.12,-28.92 -4.12,-28.92 -4.12,-28.92 -3.84,-26.01 -3.57,-23.10 -2.88,-20.26 -2.20,-17.43 -1.28,-14.06 -0.36,-10.69 0.40,-7.48 1.17,-4.27 1.51,-2.27 1.85,-0.26 1.86,-0.03 1.86,0.18 1.81,0.40 1.76,0.62 1.66,0.83 1.56,1.03 1.41,1.20 1.27,1.37 1.08,1.50 0.90,1.64 0.69,1.72 0.48,1.81 0.26,1.84 0.03,1.87 -0.18,1.85 -0.41,1.82 -0.62,1.75 -0.83,1.67 -1.02,1.55 -1.21,1.42 -1.36,1.26 -1.52,1.09 -1.62,0.89 -1.73,0.70 -1.79,0.48 -1.85,0.26 -1.85,0.26 L -1.85,0.26 Z"></path></g><g transform="translate(644 1289.65625) rotate(0 -1.5 -13.5)" stroke="none"><path fill="#1864ab" d="M -1.96,-0.39 Q -1.96,-0.39 -1.72,-1.82 -1.47,-3.26 -1.57,-5.03 -1.66,-6.81 -2.22,-10.49 -2.77,-14.16 -3.27,-16.89 -3.77,-19.61 -4.62,-22.35 -5.47,-25.08 -5.48,-25.38 -5.50,-25.68 -5.42,-25.97 -5.34,-26.26 -5.17,-26.50 -5.00,-26.75 -4.76,-26.93 -4.53,-27.11 -4.24,-27.20 -3.96,-27.30 -3.66,-27.30 -3.36,-27.30 -3.08,-27.20 -2.80,-27.11 -2.56,-26.92 -2.32,-26.74 -2.15,-26.50 -1.99,-26.25 -1.91,-25.96 -1.83,-25.67 -1.85,-25.37 -1.86,-25.08 -1.97,-24.80 -2.09,-24.52 -2.28,-24.29 -2.47,-24.07 -2.73,-23.91 -2.99,-23.76 -3.28,-23.70 -3.57,-23.63 -3.87,-23.67 -4.16,-23.70 -4.43,-23.83 -4.70,-23.95 -4.92,-24.16 -5.14,-24.36 -5.28,-24.63 -5.41,-24.89 -5.46,-25.19 -5.51,-25.48 -5.46,-25.78 -5.41,-26.07 -5.27,-26.33 -5.13,-26.60 -4.91,-26.80 -4.70,-27.01 -4.42,-27.13 -4.15,-27.26 -3.86,-27.29 -3.56,-27.32 -3.27,-27.25 -2.98,-27.19 -2.72,-27.03 -2.47,-26.88 -2.27,-26.65 -2.08,-26.42 -1.97,-26.15 -1.86,-25.87 -1.86,-25.87 -1.86,-25.87 -1.21,-23.07 -0.56,-20.27 0.05,-17.51 0.68,-14.76 1.42,-10.94 2.15,-7.12 2.39,-4.80 2.62,-2.48 2.29,-1.04 1.96,0.39 1.89,0.62 1.81,0.85 1.68,1.05 1.55,1.26 1.38,1.43 1.21,1.59 1.00,1.72 0.79,1.84 0.56,1.91 0.32,1.97 0.08,1.99 -0.15,2.00 -0.39,1.95 -0.62,1.90 -0.84,1.80 -1.06,1.70 -1.25,1.54 -1.44,1.39 -1.58,1.20 -1.73,1.01 -1.82,0.78 -1.92,0.56 -1.96,0.32 -2.00,0.08 -1.98,-0.15 -1.96,-0.39 -1.96,-0.39 L -1.96,-0.39 Z"></path></g><g transform="translate(568 1031.65625) rotate(0 0.5 9.5)" stroke="none"><path fill="#1864ab" d="M 2.53,-0.36 Q 2.53,-0.36 2.68,1.66 2.84,3.70 2.98,5.19 3.13,6.68 3.31,8.60 3.49,10.52 3.60,11.82 3.70,13.12 3.76,15.88 3.82,18.65 3.75,19.10 3.67,19.55 3.46,19.95 3.24,20.36 2.91,20.67 2.58,20.99 2.17,21.18 1.75,21.37 1.30,21.42 0.84,21.47 0.40,21.37 -0.04,21.27 -0.43,21.04 -0.82,20.80 -1.12,20.45 -1.42,20.10 -1.59,19.68 -1.75,19.25 -1.78,18.80 -1.80,18.34 -1.68,17.90 -1.56,17.46 -1.30,17.08 -1.05,16.70 -0.68,16.43 -0.32,16.15 0.10,16.00 0.54,15.86 0.99,15.86 1.45,15.86 1.89,16.00 2.32,16.15 2.68,16.43 3.05,16.70 3.30,17.08 3.56,17.46 3.68,17.90 3.80,18.34 3.78,18.80 3.75,19.25 3.59,19.68 3.42,20.10 3.12,20.45 2.82,20.80 2.43,21.04 2.04,21.27 1.59,21.37 1.15,21.47 0.69,21.42 0.24,21.37 -0.17,21.18 -0.58,20.99 -0.91,20.67 -1.24,20.36 -1.46,19.95 -1.67,19.55 -1.75,19.10 -1.82,18.65 -1.82,18.65 -1.82,18.65 -1.77,15.90 -1.71,13.15 -1.63,11.90 -1.56,10.64 -1.52,8.86 -1.49,7.08 -1.59,5.71 -1.69,4.34 -2.11,2.35 -2.53,0.36 -2.53,0.05 -2.54,-0.25 -2.47,-0.55 -2.40,-0.85 -2.27,-1.13 -2.13,-1.40 -1.93,-1.64 -1.73,-1.87 -1.48,-2.05 -1.23,-2.23 -0.94,-2.35 -0.66,-2.46 -0.35,-2.51 -0.05,-2.55 0.25,-2.52 0.55,-2.49 0.84,-2.39 1.13,-2.28 1.39,-2.11 1.65,-1.94 1.86,-1.72 2.07,-1.49 2.22,-1.22 2.37,-0.95 2.45,-0.65 2.53,-0.36 2.53,-0.36 L 2.53,-0.36 Z"></path></g><g transform="translate(582 1044.65625) rotate(0 2 13)" stroke="none"><path fill="#1864ab" d="M 2.07,-0.41 Q 2.07,-0.41 3.12,5.35 4.16,11.12 4.58,14.78 5.00,18.45 5.22,20.28 5.44,22.11 5.64,23.64 5.84,25.17 5.82,25.48 5.79,25.79 5.67,26.07 5.55,26.35 5.34,26.58 5.14,26.81 4.87,26.97 4.60,27.12 4.30,27.18 3.99,27.24 3.69,27.19 3.38,27.15 3.11,27.02 2.83,26.88 2.61,26.66 2.39,26.44 2.26,26.17 2.12,25.89 2.08,25.59 2.03,25.28 2.09,24.98 2.15,24.68 2.30,24.41 2.45,24.14 2.68,23.93 2.91,23.73 3.19,23.60 3.48,23.48 3.78,23.45 4.09,23.43 4.39,23.50 4.69,23.58 4.95,23.74 5.21,23.91 5.40,24.15 5.60,24.39 5.70,24.68 5.81,24.97 5.82,25.28 5.83,25.58 5.74,25.88 5.65,26.17 5.47,26.42 5.29,26.68 5.04,26.86 4.79,27.04 4.49,27.13 4.20,27.22 3.89,27.21 3.58,27.20 3.29,27.10 3.00,26.99 2.76,26.80 2.52,26.61 2.36,26.35 2.19,26.09 2.11,25.79 2.04,25.49 2.04,25.49 2.04,25.49 1.99,24.00 1.93,22.51 1.74,20.72 1.54,18.92 0.99,15.39 0.43,11.87 -0.82,6.14 -2.07,0.41 -2.09,0.16 -2.11,-0.09 -2.07,-0.34 -2.03,-0.59 -1.92,-0.83 -1.82,-1.06 -1.67,-1.26 -1.52,-1.47 -1.32,-1.63 -1.12,-1.79 -0.89,-1.90 -0.66,-2.00 -0.41,-2.05 -0.16,-2.10 0.09,-2.09 0.34,-2.08 0.59,-2.01 0.83,-1.94 1.05,-1.81 1.27,-1.68 1.46,-1.50 1.64,-1.33 1.77,-1.11 1.91,-0.89 1.99,-0.65 2.07,-0.41 2.07,-0.41 L 2.07,-0.41 Z"></path></g><g transform="translate(606 1069.65625) rotate(0 -2.5 7)" stroke="none"><path fill="#1864ab" d="M 2.21,1.47 Q 2.21,1.47 1.65,2.35 1.10,3.22 0.55,4.55 0.00,5.88 -0.62,7.17 -1.24,8.45 -1.53,10.99 -1.83,13.52 -1.92,14.03 -2.00,14.53 -2.25,14.98 -2.49,15.43 -2.86,15.78 -3.24,16.13 -3.70,16.34 -4.17,16.55 -4.67,16.61 -5.18,16.66 -5.68,16.54 -6.18,16.43 -6.62,16.16 -7.05,15.90 -7.38,15.51 -7.71,15.11 -7.90,14.64 -8.08,14.16 -8.11,13.65 -8.13,13.14 -7.99,12.65 -7.85,12.16 -7.56,11.74 -7.27,11.31 -6.86,11.01 -6.45,10.70 -5.97,10.54 -5.48,10.38 -4.97,10.38 -4.46,10.39 -3.98,10.55 -3.49,10.72 -3.09,11.03 -2.68,11.34 -2.40,11.77 -2.12,12.19 -1.98,12.69 -1.85,13.18 -1.88,13.69 -1.91,14.20 -2.10,14.68 -2.29,15.15 -2.63,15.54 -2.96,15.92 -3.40,16.19 -3.84,16.45 -4.34,16.55 -4.84,16.66 -5.35,16.60 -5.86,16.54 -6.32,16.32 -6.78,16.11 -7.15,15.75 -7.52,15.40 -7.76,14.95 -7.99,14.49 -8.07,13.99 -8.15,13.48 -8.15,13.48 -8.15,13.48 -8.11,11.80 -8.07,10.11 -7.84,8.72 -7.60,7.33 -6.72,5.95 -5.85,4.58 -5.23,3.42 -4.61,2.26 -4.00,1.24 -3.40,0.22 -2.80,-0.62 -2.21,-1.47 -2.00,-1.71 -1.79,-1.95 -1.53,-2.14 -1.27,-2.33 -0.97,-2.45 -0.67,-2.56 -0.35,-2.61 -0.04,-2.65 0.27,-2.62 0.59,-2.58 0.89,-2.48 1.19,-2.37 1.46,-2.19 1.72,-2.01 1.94,-1.78 2.16,-1.54 2.31,-1.26 2.46,-0.98 2.54,-0.67 2.63,-0.36 2.63,-0.04 2.64,0.27 2.57,0.58 2.49,0.90 2.35,1.18 2.20,1.47 2.21,1.47 L 2.21,1.47 Z"></path></g><g transform="translate(630 1086.65625) rotate(0 2 13)" stroke="none"><path fill="#1864ab" d="M 2.32,-0.29 Q 2.32,-0.29 2.48,2.02 2.63,4.34 3.49,8.09 4.36,11.84 4.75,13.80 5.14,15.77 5.41,16.91 5.69,18.05 5.58,20.01 5.47,21.97 4.95,23.90 4.43,25.83 4.30,26.19 4.18,26.56 3.94,26.86 3.70,27.16 3.38,27.37 3.06,27.58 2.69,27.67 2.32,27.77 1.94,27.74 1.55,27.72 1.20,27.57 0.85,27.42 0.56,27.17 0.27,26.91 0.08,26.58 -0.10,26.25 -0.18,25.88 -0.26,25.50 -0.21,25.12 -0.16,24.74 0.00,24.39 0.16,24.05 0.43,23.77 0.70,23.50 1.04,23.33 1.38,23.15 1.76,23.10 2.14,23.04 2.52,23.11 2.89,23.18 3.23,23.36 3.57,23.55 3.83,23.83 4.08,24.11 4.24,24.47 4.39,24.82 4.43,25.20 4.46,25.58 4.38,25.95 4.29,26.33 4.08,26.65 3.88,26.98 3.58,27.22 3.29,27.46 2.93,27.60 2.57,27.73 2.19,27.75 1.80,27.76 1.44,27.65 1.07,27.54 0.76,27.32 0.44,27.10 0.22,26.79 -0.00,26.49 -0.12,26.12 -0.23,25.75 -0.23,25.37 -0.22,24.99 -0.22,24.99 -0.22,24.99 0.77,21.83 1.78,18.67 1.70,17.60 1.62,16.53 1.17,14.65 0.72,12.76 -0.37,8.81 -1.48,4.85 -1.90,2.57 -2.32,0.29 -2.33,0.00 -2.33,-0.27 -2.26,-0.54 -2.19,-0.82 -2.06,-1.07 -1.93,-1.32 -1.75,-1.53 -1.56,-1.75 -1.33,-1.91 -1.09,-2.07 -0.83,-2.17 -0.56,-2.27 -0.28,-2.31 -0.00,-2.34 0.27,-2.31 0.55,-2.28 0.81,-2.18 1.08,-2.08 1.31,-1.92 1.55,-1.76 1.73,-1.55 1.92,-1.34 2.06,-1.09 2.19,-0.84 2.26,-0.56 2.33,-0.29 2.32,-0.29 L 2.32,-0.29 Z"></path></g><g transform="translate(614 1082.65625) rotate(0 1.5 1.5)" stroke="none"><path fill="#1864ab" d="M 2.12,-0.66 Q 2.12,-0.66 2.15,-0.13 2.18,0.40 1.96,0.88 1.74,1.36 1.32,1.69 0.91,2.02 0.38,2.12 -0.13,2.21 -0.64,2.05 -1.14,1.90 -1.52,1.52 -1.90,1.14 -2.05,0.64 -2.21,0.13 -2.12,-0.38 -2.02,-0.91 -1.69,-1.32 -1.36,-1.74 -0.88,-1.96 -0.39,-2.18 0.13,-2.15 0.66,-2.11 1.11,-1.84 1.57,-1.56 1.84,-1.11 L 2.12,-0.66 Z"></path></g></svg>