<svg version="1.1" xmlns="http://www.w3.org/2000/svg" viewBox="0 0 10020 749.75" width="10020" height="749.75">
  <!-- svg-source:excalidraw -->
  
  <defs>
    <style>
      @font-face {
        font-family: "Virgil";
        src: url("https://excalidraw.com/Virgil.woff2");
      }
      @font-face {
        font-family: "Cascadia";
        src: url("https://excalidraw.com/Cascadia.woff2");
      }
    </style>
  </defs>
  <rect x="0" y="0" width="10020" height="749.75" fill="#fff0"></rect><g stroke-linecap="round" transform="translate(10 10) rotate(0 5000 0.5)"><path d="M-0.52 -0.26 C3022.65 -30.2, 6044.59 -29.2, 9999.32 0.22 M0.38 -0.31 C3948.03 -0.44, 7895.41 0.2, 9999.95 0.08 M10000.08 -0.06 C10000.09 0.27, 10000.05 0.48, 10000.09 0.92 M9999.97 0.01 C9999.95 0.33, 9999.98 0.72, 10000 0.99 M10000.22 1.51 C7095.77 35.76, 4193.15 34.95, -0.25 0.75 M10000.01 1.13 C7827.97 2.74, 5656.23 3.35, -0.33 0.84 M-0.04 1.01 C0 0.63, -0.06 0.15, 0.05 -0.03 M-0.04 0.95 C-0.04 0.73, -0.03 0.59, -0.05 -0.02" stroke="transparent" stroke-width="1" fill="none"></path></g><g transform="translate(1087.703125 590.75) rotate(0 -154 21)" stroke="none"><path fill="#1864ab" d="M 1.56,0 Q 1.56,0 1.50,2.37 1.45,4.74 -1.26,8.93 -3.98,13.12 -8.70,16.92 -13.42,20.72 -23.34,23.81 -33.26,26.90 -51.87,29.33 -70.48,31.77 -97.95,32.80 -125.42,33.82 -156.06,34.26 -186.70,34.69 -213.82,34.87 -240.93,35.05 -254.67,31.63 -268.41,28.21 -274.51,21.75 -280.60,15.30 -278.50,5.15 -276.40,-4.99 -263.52,-16.90 -250.63,-28.81 -228.36,-37.32 -206.09,-45.83 -178.17,-50.00 -150.25,-54.18 -122.20,-52.49 -94.15,-50.80 -74.00,-43.39 -53.85,-35.97 -44.26,-21.69 -34.66,-7.42 -32.33,12.06 -30.01,31.55 -36.91,49.25 -43.82,66.96 -61.03,77.18 -78.23,87.40 -91.93,91.70 -105.62,95.99 -136.90,93.79 -168.18,91.59 -196.40,86.62 -224.61,81.64 -246.15,74.90 -267.68,68.17 -280.03,62.99 -292.37,57.81 -297.88,52.51 -303.38,47.22 -302.17,43.77 -300.97,40.32 -287.98,38.91 -274.98,37.51 -252.18,39.86 -229.38,42.21 -202.40,48.98 -175.42,55.74 -152.44,63.80 -129.45,71.87 -115.99,76.14 -102.53,80.41 -96.51,82.23 -90.49,84.05 -90.35,84.12 -90.20,84.19 -90.08,84.28 -89.96,84.38 -89.86,84.51 -89.76,84.63 -89.70,84.78 -89.63,84.92 -89.61,85.08 -89.58,85.23 -89.59,85.39 -89.60,85.55 -89.65,85.70 -89.70,85.85 -89.78,85.99 -89.86,86.12 -89.97,86.23 -90.09,86.34 -90.22,86.42 -90.36,86.51 -90.51,86.55 -90.66,86.60 -90.82,86.61 -90.98,86.62 -91.13,86.59 -91.29,86.56 -94.24,85.74 -97.19,84.92 -97.42,84.80 -97.65,84.69 -97.84,84.50 -98.02,84.32 -98.14,84.09 -98.25,83.86 -98.29,83.60 -98.33,83.34 -98.28,83.09 -98.23,82.83 -98.10,82.61 -97.98,82.38 -97.78,82.21 -97.59,82.03 -97.35,81.93 -97.12,81.82 -96.86,81.80 -96.60,81.78 -96.35,81.84 -96.09,81.90 -95.88,82.04 -95.66,82.18 -95.49,82.38 -95.33,82.58 -95.24,82.83 -95.15,83.07 -95.14,83.33 -95.13,83.59 -95.21,83.84 -95.28,84.09 -95.43,84.30 -95.58,84.51 -95.79,84.66 -96.00,84.81 -96.25,84.89 -96.50,84.97 -96.76,84.96 -97.02,84.96 -97.26,84.87 -97.51,84.78 -97.71,84.62 -97.91,84.46 -98.05,84.24 -98.19,84.02 -98.26,83.77 -98.32,83.52 -98.30,83.26 -98.28,83.00 -98.18,82.76 -98.08,82.52 -97.91,82.33 -97.73,82.13 -97.51,82.00 -97.28,81.88 -97.03,81.83 -96.77,81.78 -96.51,81.81 -96.26,81.84 -96.26,81.84 -96.26,81.84 -93.38,82.95 -90.49,84.05 -90.35,84.12 -90.20,84.19 -90.08,84.28 -89.96,84.38 -89.86,84.51 -89.76,84.63 -89.70,84.78 -89.63,84.92 -89.61,85.08 -89.58,85.23 -89.59,85.39 -89.60,85.55 -89.65,85.70 -89.70,85.85 -89.78,85.99 -89.86,86.12 -89.97,86.23 -90.09,86.34 -90.22,86.42 -90.36,86.51 -90.51,86.55 -90.66,86.60 -90.82,86.61 -90.98,86.62 -91.13,86.59 -91.29,86.56 -97.30,84.74 -103.32,82.92 -116.82,78.63 -130.32,74.34 -153.19,66.32 -176.06,58.29 -202.86,51.56 -229.65,44.82 -252.20,42.47 -274.74,40.12 -287.28,41.17 -299.82,42.22 -300.50,44.56 -301.18,46.90 -296.25,51.16 -291.31,55.42 -279.10,60.54 -266.89,65.66 -245.52,72.36 -224.15,79.05 -196.07,84.01 -167.99,88.97 -137.16,91.23 -106.33,93.48 -92.94,89.30 -79.55,85.13 -62.79,75.42 -46.03,65.72 -39.31,48.71 -32.60,31.70 -34.75,12.80 -36.90,-6.09 -45.95,-19.89 -55.01,-33.70 -74.68,-40.94 -94.34,-48.18 -122.11,-49.88 -149.88,-51.57 -177.52,-47.47 -205.16,-43.36 -227.04,-35.09 -248.91,-26.83 -261.44,-15.50 -273.96,-4.17 -276.18,5.18 -278.39,14.53 -272.98,20.14 -267.57,25.75 -254.25,29.07 -240.93,32.39 -213.84,32.20 -186.74,32.01 -156.13,31.57 -125.53,31.13 -98.18,30.10 -70.83,29.07 -52.45,26.66 -34.07,24.25 -24.59,21.37 -15.12,18.48 -10.74,14.98 -6.36,11.48 -3.90,7.97 -1.45,4.45 -1.50,2.22 -1.56,0 -1.53,-0.18 -1.51,-0.37 -1.45,-0.54 -1.38,-0.72 -1.27,-0.88 -1.16,-1.03 -1.02,-1.16 -0.88,-1.28 -0.72,-1.37 -0.55,-1.46 -0.37,-1.50 -0.18,-1.55 0.00,-1.55 0.18,-1.55 0.37,-1.50 0.55,-1.46 0.72,-1.37 0.88,-1.28 1.02,-1.16 1.16,-1.03 1.27,-0.88 1.38,-0.72 1.45,-0.54 1.51,-0.37 1.53,-0.18 1.56,0.00 1.56,0.00 L 1.56,0 Z"></path></g><g transform="translate(1070.703125 640.75) rotate(0 -187.5 -19)" stroke="none"><path fill="#d9480f" d="M 1.37,0.74 Q 1.37,0.74 -0.67,4.47 -2.72,8.20 -8.93,13.99 -15.14,19.78 -29.44,24.88 -43.75,29.97 -67.14,32.11 -90.54,34.25 -122.91,33.41 -155.29,32.58 -190.96,26.46 -226.63,20.34 -258.52,10.25 -290.40,0.16 -313.75,-9.89 -337.10,-19.95 -348.44,-28.68 -359.79,-37.41 -355.17,-47.42 -350.55,-57.43 -330.53,-62.95 -310.51,-68.46 -274.39,-70.73 -238.28,-72.99 -199.87,-68.77 -161.46,-64.54 -130.71,-56.40 -99.96,-48.27 -81.31,-37.84 -62.66,-27.42 -54.03,-16.79 -45.40,-6.16 -43.74,4.41 -42.08,15.00 -46.45,21.45 -50.81,27.90 -59.78,30.96 -68.74,34.02 -79.17,35.26 -89.60,36.50 -106.98,37.02 -124.36,37.54 -142.94,37.76 -161.52,37.98 -176.90,38.08 -192.27,38.17 -202.63,36.77 -213.00,35.36 -219.29,33.23 -225.58,31.11 -227.22,28.30 -228.86,25.49 -229.00,25.42 -229.15,25.36 -229.27,25.26 -229.39,25.16 -229.49,25.03 -229.58,24.90 -229.64,24.76 -229.71,24.61 -229.73,24.46 -229.76,24.30 -229.74,24.14 -229.73,23.98 -229.68,23.83 -229.63,23.68 -229.55,23.55 -229.46,23.42 -229.35,23.31 -229.23,23.20 -229.10,23.12 -228.96,23.04 -228.81,22.99 -228.66,22.95 -228.50,22.94 -228.34,22.94 -228.18,22.97 -228.03,23.00 -220.59,19.78 -213.14,16.56 -194.67,14.56 -176.19,12.57 -156.03,11.17 -135.86,9.76 -122.40,9.16 -108.93,8.56 -102.60,8.32 -96.27,8.07 -94.25,9.07 -92.22,10.07 -92.20,11.62 -92.17,13.16 -94.31,14.19 -96.45,15.22 -98.87,16.24 -101.29,17.26 -101.58,17.32 -101.86,17.38 -102.15,17.34 -102.43,17.30 -102.69,17.18 -102.95,17.05 -103.16,16.85 -103.37,16.65 -103.50,16.39 -103.63,16.13 -103.67,15.84 -103.71,15.56 -103.66,15.27 -103.61,14.99 -103.47,14.74 -103.33,14.48 -103.11,14.29 -102.90,14.09 -102.63,13.98 -102.37,13.86 -102.08,13.84 -101.79,13.81 -101.51,13.88 -101.23,13.95 -100.99,14.10 -100.74,14.25 -100.56,14.48 -100.38,14.70 -100.27,14.97 -100.17,15.24 -100.16,15.53 -100.15,15.82 -100.23,16.10 -100.32,16.37 -100.48,16.61 -100.65,16.85 -100.88,17.02 -101.12,17.19 -101.39,17.27 -101.67,17.36 -101.96,17.35 -102.25,17.35 -102.52,17.25 -102.79,17.15 -103.02,16.97 -103.24,16.79 -103.40,16.55 -103.56,16.31 -103.63,16.03 -103.70,15.75 -103.68,15.46 -103.66,15.17 -103.55,14.91 -103.44,14.64 -103.25,14.42 -103.05,14.21 -102.80,14.06 -102.55,13.92 -102.55,13.92 -102.55,13.92 -100.12,13.11 -97.68,12.31 -95.97,12.00 -94.27,11.68 -95.30,11.17 -96.32,10.67 -102.57,10.93 -108.82,11.19 -122.25,11.78 -135.68,12.38 -155.80,13.78 -175.91,15.18 -194.05,17.09 -212.18,19.00 -220.52,22.24 -228.86,25.49 -229.00,25.42 -229.15,25.36 -229.27,25.26 -229.39,25.16 -229.49,25.03 -229.58,24.90 -229.64,24.76 -229.71,24.61 -229.73,24.46 -229.76,24.30 -229.74,24.14 -229.73,23.98 -229.68,23.83 -229.63,23.68 -229.55,23.55 -229.46,23.42 -229.35,23.31 -229.23,23.20 -229.10,23.12 -228.96,23.04 -228.81,22.99 -228.66,22.95 -228.50,22.94 -228.34,22.94 -228.18,22.97 -228.03,23.00 -226.22,25.94 -224.41,28.89 -218.52,30.83 -212.63,32.76 -202.46,34.15 -192.28,35.54 -176.92,35.45 -161.56,35.36 -142.99,35.14 -124.43,34.92 -107.17,34.41 -89.91,33.89 -79.73,32.71 -69.55,31.52 -61.13,28.86 -52.70,26.19 -48.63,20.54 -44.56,14.88 -46.04,5.09 -47.52,-4.68 -55.76,-14.93 -64.00,-25.17 -82.32,-35.45 -100.65,-45.73 -131.20,-53.83 -161.75,-61.93 -199.93,-66.14 -238.12,-70.36 -273.98,-68.13 -309.84,-65.91 -329.30,-60.86 -348.76,-55.80 -353.15,-46.36 -357.54,-36.92 -346.79,-29.66 -336.04,-22.39 -312.81,-12.39 -289.59,-2.39 -257.88,7.64 -226.17,17.68 -190.70,23.77 -155.22,29.85 -123.00,30.67 -90.78,31.49 -67.72,29.40 -44.67,27.31 -30.84,22.46 -17.02,17.61 -11.17,12.18 -5.32,6.74 -3.35,3.00 -1.37,-0.74 -1.26,-0.89 -1.15,-1.04 -1.01,-1.17 -0.87,-1.29 -0.70,-1.38 -0.53,-1.46 -0.35,-1.50 -0.17,-1.55 0.01,-1.55 0.20,-1.54 0.38,-1.50 0.56,-1.45 0.73,-1.36 0.90,-1.27 1.04,-1.14 1.18,-1.02 1.28,-0.86 1.39,-0.71 1.45,-0.53 1.52,-0.35 1.54,-0.17 1.56,0.01 1.53,0.20 1.51,0.39 1.44,0.56 1.37,0.74 1.37,0.74 L 1.37,0.74 Z"></path></g><g transform="translate(1201.703125 695.75) rotate(0 -135.5 -29)" stroke="none"><path fill="#d9480f" d="M 0,1.56 Q 0,1.56 -4.6,1.52 -9.2,1.49 -17.19,1.46 -25.18,1.44 -37.49,1.42 -49.80,1.40 -68.54,1.39 -87.29,1.38 -111.95,0.79 -136.60,0.21 -162.73,-5.22 -188.85,-10.66 -209.80,-19.92 -230.76,-29.17 -242.62,-38.06 -254.48,-46.95 -259.65,-55.33 -264.81,-63.72 -262.86,-71.36 -260.91,-78.99 -249.80,-85.49 -238.70,-91.98 -220.07,-95.26 -201.45,-98.55 -179.16,-99.92 -156.86,-101.29 -131.08,-92.63 -105.29,-83.96 -90.48,-70.96 -75.66,-57.95 -68.73,-42.18 -61.79,-26.40 -63.18,-10.02 -64.57,6.35 -69.26,17.40 -73.94,28.46 -77.12,33.18 -80.30,37.91 -81.66,38.38 -83.03,38.85 -82.80,38.80 -82.57,38.74 -82.34,38.76 -82.10,38.78 -81.89,38.88 -81.67,38.97 -81.50,39.13 -81.33,39.29 -81.21,39.50 -81.10,39.70 -81.05,39.93 -81.01,40.17 -81.05,40.40 -81.08,40.63 -81.19,40.84 -81.29,41.05 -81.46,41.22 -81.63,41.38 -81.84,41.49 -82.05,41.59 -82.29,41.62 -82.52,41.65 -82.75,41.60 -82.98,41.56 -83.18,41.44 -83.39,41.32 -83.54,41.14 -83.70,40.97 -83.79,40.75 -83.88,40.53 -83.90,40.30 -83.92,40.06 -83.86,39.84 -83.80,39.61 -83.67,39.41 -83.54,39.21 -83.36,39.07 -83.17,38.92 -82.95,38.84 -82.73,38.76 -82.49,38.76 -82.26,38.75 -82.03,38.82 -81.81,38.89 -81.62,39.03 -81.43,39.17 -81.29,39.37 -81.16,39.56 -81.09,39.78 -81.02,40.01 -81.03,40.24 -81.04,40.48 -81.12,40.70 -81.21,40.92 -81.36,41.10 -81.50,41.29 -81.70,41.41 -81.90,41.54 -81.90,41.54 -81.90,41.54 -82.19,38.99 -82.47,36.43 -79.41,31.93 -76.35,27.42 -71.77,16.75 -67.18,6.08 -65.71,-9.71 -64.23,-25.50 -70.85,-40.79 -77.47,-56.07 -91.83,-68.79 -106.20,-81.51 -131.49,-90.09 -156.77,-98.67 -178.89,-97.31 -201.00,-95.95 -219.22,-92.81 -237.44,-89.67 -248.08,-83.75 -258.72,-77.83 -260.59,-71.15 -262.45,-64.46 -257.65,-56.75 -252.84,-49.03 -241.25,-40.32 -229.66,-31.61 -208.97,-22.46 -188.28,-13.30 -162.41,-7.91 -136.53,-2.51 -111.91,-1.94 -87.29,-1.38 -68.54,-1.39 -49.80,-1.40 -37.49,-1.42 -25.18,-1.44 -17.19,-1.46 -9.2,-1.49 -4.6,-1.52 0,-1.56 0.18,-1.53 0.37,-1.51 0.54,-1.45 0.72,-1.38 0.88,-1.27 1.03,-1.16 1.16,-1.02 1.28,-0.88 1.37,-0.72 1.46,-0.55 1.50,-0.37 1.55,-0.18 1.55,0.00 1.55,0.18 1.50,0.37 1.46,0.55 1.37,0.72 1.28,0.88 1.16,1.02 1.03,1.16 0.88,1.27 0.72,1.38 0.54,1.45 0.37,1.51 0.18,1.53 -0.00,1.56 -0.00,1.56 L 0,1.56 Z"></path></g><g transform="translate(1203.703125 629.75) rotate(0 0.00004999999998744897 0.00005000000000165983)" stroke="none"><path fill="#d9480f" d="M 1.57,-1.57 Q 1.57,-1.57 1.77,-1.27 1.98,-0.98 2.09,-0.64 2.20,-0.29 2.19,0.05 2.18,0.41 2.05,0.75 1.93,1.09 1.70,1.37 1.48,1.65 1.18,1.84 0.87,2.04 0.52,2.12 0.18,2.21 -0.17,2.18 -0.53,2.15 -0.86,2.01 -1.19,1.87 -1.46,1.63 -1.73,1.39 -1.90,1.07 -2.08,0.76 -2.15,0.41 -2.21,0.05 -2.17,-0.29 -2.12,-0.65 -1.96,-0.97 -1.80,-1.29 -1.54,-1.54 -1.29,-1.80 -0.97,-1.96 -0.65,-2.12 -0.29,-2.17 0.06,-2.21 0.41,-2.15 0.76,-2.08 1.07,-1.90 1.39,-1.73 1.63,-1.46 1.87,-1.19 2.01,-0.86 2.15,-0.53 2.18,-0.17 2.21,0.18 2.12,0.52 2.03,0.87 1.84,1.18 1.65,1.48 1.37,1.70 1.09,1.93 0.75,2.05 0.41,2.18 0.05,2.19 -0.30,2.20 -0.64,2.09 -0.98,1.98 -1.27,1.77 -1.57,1.56 -1.57,1.57 -1.57,1.57 -1.73,1.35 -1.90,1.14 -2.01,0.90 -2.12,0.66 -2.16,0.39 -2.21,0.13 -2.20,-0.13 -2.18,-0.40 -2.10,-0.65 -2.02,-0.91 -1.88,-1.14 -1.74,-1.36 -1.55,-1.55 -1.36,-1.74 -1.14,-1.88 -0.91,-2.02 -0.65,-2.10 -0.40,-2.18 -0.13,-2.20 0.13,-2.21 0.39,-2.16 0.66,-2.12 0.90,-2.01 1.14,-1.90 1.35,-1.73 1.57,-1.57 1.57,-1.57 L 1.57,-1.57 Z"></path></g><g transform="translate(1147.703125 556.75) rotate(0 -88.5 43)" stroke="none"><path fill="#d9480f" d="M 0.69,1.39 Q 0.69,1.39 -2.19,2.80 -5.08,4.21 -9.73,6.79 -14.38,9.38 -20.50,11.67 -26.61,13.97 -36.44,16.38 -46.26,18.79 -55.28,21.23 -64.29,23.68 -74.44,26.72 -84.58,29.77 -95.21,33.36 -105.83,36.94 -117.76,42.47 -129.70,47.99 -139.89,54.62 -150.08,61.24 -156.66,67.45 -163.23,73.66 -166.31,77.15 -169.39,80.64 -172.02,83.70 -174.64,86.75 -174.84,86.91 -175.04,87.07 -175.28,87.15 -175.52,87.24 -175.77,87.24 -176.03,87.25 -176.27,87.17 -176.51,87.09 -176.72,86.94 -176.92,86.79 -177.07,86.58 -177.22,86.38 -177.29,86.13 -177.36,85.89 -177.35,85.63 -177.34,85.38 -177.25,85.14 -177.16,84.90 -177.00,84.70 -176.84,84.51 -176.62,84.37 -176.41,84.24 -176.16,84.18 -175.91,84.12 -175.66,84.14 -175.41,84.17 -175.17,84.27 -174.94,84.37 -174.75,84.54 -174.56,84.72 -174.44,84.94 -174.32,85.16 -174.27,85.41 -174.23,85.66 -174.26,85.92 -174.30,86.17 -174.42,86.39 -174.53,86.62 -174.71,86.80 -174.90,86.98 -175.12,87.09 -175.35,87.20 -175.61,87.23 -175.86,87.26 -176.11,87.21 -176.36,87.16 -176.58,87.03 -176.80,86.91 -176.97,86.72 -177.14,86.52 -177.23,86.29 -177.33,86.05 -177.35,85.80 -177.37,85.55 -177.30,85.30 -177.24,85.05 -177.10,84.84 -176.96,84.63 -176.96,84.63 -176.96,84.63 -174.17,81.76 -171.37,78.90 -168.21,75.32 -165.05,71.74 -158.29,65.38 -151.53,59.02 -141.18,52.30 -130.82,45.58 -118.76,39.99 -106.69,34.41 -96.03,30.79 -85.36,27.18 -75.18,24.11 -65.01,21.05 -55.97,18.58 -46.92,16.10 -37.27,13.72 -27.61,11.33 -21.70,9.09 -15.79,6.86 -11.10,4.19 -6.41,1.53 -3.55,0.07 -0.69,-1.39 -0.52,-1.46 -0.34,-1.52 -0.15,-1.54 0.03,-1.56 0.21,-1.53 0.40,-1.50 0.57,-1.43 0.75,-1.36 0.90,-1.25 1.05,-1.14 1.18,-1.00 1.30,-0.86 1.38,-0.69 1.47,-0.52 1.51,-0.34 1.55,-0.15 1.55,0.03 1.54,0.21 1.49,0.40 1.44,0.58 1.35,0.74 1.26,0.91 1.14,1.05 1.01,1.18 0.85,1.29 0.69,1.39 0.69,1.39 L 0.69,1.39 Z"></path></g></svg>