<svg version="1.1" xmlns="http://www.w3.org/2000/svg" viewBox="0 0 10020 688.296875" width="10020" height="688.296875">
  <!-- svg-source:excalidraw -->
  
  <defs>
    <style>
      @font-face {
        font-family: "Virgil";
        src: url("https://excalidraw.com/Virgil.woff2");
      }
      @font-face {
        font-family: "Cascadia";
        src: url("https://excalidraw.com/Cascadia.woff2");
      }
    </style>
  </defs>
  <rect x="0" y="0" width="10020" height="688.296875" fill="#fff0"></rect><g stroke-linecap="round" transform="translate(10 10) rotate(0 5000 0.5)"><path d="M-0.52 -0.26 C3022.65 -30.2, 6044.59 -29.2, 9999.32 0.22 M0.38 -0.31 C3948.03 -0.44, 7895.41 0.2, 9999.95 0.08 M10000.08 -0.06 C10000.09 0.27, 10000.05 0.48, 10000.09 0.92 M9999.97 0.01 C9999.95 0.33, 9999.98 0.72, 10000 0.99 M10000.22 1.51 C7095.77 35.76, 4193.15 34.95, -0.25 0.75 M10000.01 1.13 C7827.97 2.74, 5656.23 3.35, -0.33 0.84 M-0.04 1.01 C0 0.63, -0.06 0.15, 0.05 -0.03 M-0.04 0.95 C-0.04 0.73, -0.03 0.59, -0.05 -0.02" stroke="transparent" stroke-width="1" fill="none"></path></g><g stroke-linecap="round"><g transform="translate(836 529.296875) rotate(0 0.5 74.5)"><path d="M-0.96 -0.83 C-0.86 24.03, 0.12 123.82, 0.44 148.85 M0.74 1.34 C0.65 26.43, -0.71 125.39, -0.8 150.3" stroke="#000" stroke-width="1" fill="none"></path></g></g><g stroke-linecap="round"><g transform="translate(735 631.296875) rotate(0 106.5 0.5)"><path d="M-0.85 -0.59 C34.65 -0.38, 176.58 0.62, 212.08 0.69 M0.91 1.72 C36.85 2.15, 178.7 2.26, 214.31 2.07" stroke="#000" stroke-width="1" fill="none"></path></g></g><g stroke-linecap="round"><g transform="translate(835 630.296875) rotate(0 27.5 -27)"><path d="M0.52 -0.05 C9.67 -9.09, 45.32 -44.87, 54.58 -53.86 M-0.67 -1.13 C8.32 -9.98, 43.99 -43.66, 53.42 -52.26" stroke="#d9480f" stroke-width="1" fill="none"></path></g></g><g stroke-linecap="round"><g transform="translate(855 611.296875) rotate(0 6.5 7.5)"><path d="M-1.13 0.71 C0.32 1.68, 7.19 3.25, 9.73 5.8 C12.26 8.34, 13.71 14.37, 14.08 15.98 M0.48 0.04 C1.74 0.67, 6.92 1.74, 9.16 4.09 C11.39 6.45, 13.47 12.04, 13.88 14.15" stroke="#d9480f" stroke-width="1" fill="none"></path></g></g><g transform="translate(878 601.296875) rotate(0 6 12.5)"><text x="0" y="18" font-family="Virgil, Segoe UI Emoji" font-size="20px" fill="#d9480f" text-anchor="start" style="white-space: pre;" direction="ltr">θ</text></g><g transform="translate(851 574.296875) rotate(0 4.5 12.5)"><text x="0" y="18" font-family="Virgil, Segoe UI Emoji" font-size="20px" fill="#d9480f" text-anchor="start" style="white-space: pre;" direction="ltr">ρ</text></g><g transform="translate(887 577.296875) rotate(0 -0.5 1.5)" stroke="none"><path fill="#d9480f" d="M -2.52,-0.84 Q -2.52,-0.84 -2.21,-1.79 -1.90,-2.74 -0.57,-3.78 0.75,-4.82 2.17,-4.69 3.58,-4.56 4.42,-3.73 5.26,-2.90 5.45,-1.70 5.64,-0.49 4.93,1.05 4.23,2.61 2.68,3.99 1.12,5.36 -0.56,5.69 -2.26,6.01 -3.62,5.50 -4.99,4.98 -5.78,3.52 -6.57,2.06 -6.42,0.71 -6.27,-0.63 -5.18,-2.05 -4.10,-3.48 -2.56,-4.62 -1.02,-5.75 0.03,-5.93 1.08,-6.11 2.69,-5.44 4.30,-4.77 5.11,-3.38 5.91,-2.00 5.76,0.38 5.60,2.77 5.13,3.86 4.65,4.95 3.44,6.23 2.22,7.50 0.39,7.63 -1.44,7.76 -2.51,4.25 -3.59,0.75 -3.38,0.25 -3.17,-0.23 -2.82,-0.63 -2.46,-1.04 -2.00,-1.30 -1.53,-1.57 -1.00,-1.68 -0.48,-1.78 0.05,-1.71 0.58,-1.64 1.06,-1.41 1.54,-1.17 1.93,-0.79 2.31,-0.42 2.55,0.05 2.79,0.53 2.87,1.06 2.94,1.60 2.84,2.12 2.75,2.65 2.49,3.12 2.22,3.59 1.83,3.95 1.43,4.31 0.94,4.53 0.45,4.74 -0.08,4.79 -0.61,4.84 -1.14,4.71 -1.66,4.58 -2.11,4.30 -2.57,4.01 -2.91,3.60 -3.24,3.18 -3.43,2.68 -3.62,2.17 -3.64,1.64 -3.66,1.10 -3.50,0.59 -3.35,0.07 -3.04,-0.36 -2.73,-0.79 -2.29,-1.11 -1.86,-1.43 -1.35,-1.59 -0.83,-1.75 -0.30,-1.74 0.23,-1.73 0.73,-1.54 1.24,-1.36 1.66,-1.03 2.08,-0.69 2.37,-0.24 2.67,0.20 2.80,0.72 2.93,1.24 2.89,1.77 2.85,2.31 2.85,2.31 2.85,2.31 1.85,2.27 0.86,2.22 -0.31,2.27 -1.49,2.31 -1.01,1.15 -0.54,-0.00 0.52,0.04 1.60,0.08 0.64,1.03 -0.31,1.98 -0.89,1.03 -1.47,0.08 -0.21,0.12 1.04,0.17 2.05,-0.26 3.05,-0.70 2.78,0.06 2.52,0.84 2.38,1.12 2.24,1.41 2.04,1.66 1.84,1.91 1.58,2.10 1.32,2.30 1.03,2.42 0.74,2.55 0.42,2.60 0.10,2.65 -0.21,2.62 -0.53,2.60 -0.83,2.50 -1.13,2.40 -1.40,2.22 -1.67,2.05 -1.90,1.82 -2.12,1.59 -2.28,1.31 -2.44,1.04 -2.53,0.73 -2.62,0.42 -2.63,0.10 -2.64,-0.21 -2.58,-0.52 -2.52,-0.84 -2.52,-0.84 L -2.52,-0.84 Z"></path></g></svg>