<svg version="1.1" xmlns="http://www.w3.org/2000/svg" viewBox="0 0 10020 770.71875" width="10020" height="770.71875">
  <!-- svg-source:excalidraw -->
  
  <defs>
    <style>
      @font-face {
        font-family: "Virgil";
        src: url("https://excalidraw.com/Virgil.woff2");
      }
      @font-face {
        font-family: "Cascadia";
        src: url("https://excalidraw.com/Cascadia.woff2");
      }
    </style>
  </defs>
  <rect x="0" y="0" width="10020" height="770.71875" fill="#fff0"></rect><g stroke-linecap="round" transform="translate(10 10) rotate(0 5000 0.5)"><path d="M-0.52 -0.26 C3022.65 -30.2, 6044.59 -29.2, 9999.32 0.22 M0.38 -0.31 C3948.03 -0.44, 7895.41 0.2, 9999.95 0.08 M10000.08 -0.06 C10000.09 0.27, 10000.05 0.48, 10000.09 0.92 M9999.97 0.01 C9999.95 0.33, 9999.98 0.72, 10000 0.99 M10000.22 1.51 C7095.77 35.76, 4193.15 34.95, -0.25 0.75 M10000.01 1.13 C7827.97 2.74, 5656.23 3.35, -0.33 0.84 M-0.04 1.01 C0 0.63, -0.06 0.15, 0.05 -0.03 M-0.04 0.95 C-0.04 0.73, -0.03 0.59, -0.05 -0.02" stroke="transparent" stroke-width="1" fill="none"></path></g><g stroke-linecap="round"><g transform="translate(600 687.71875) rotate(0 110 -63)"><path d="M-0.01 0.54 C0.38 -11.51, -4.67 -55.25, 3 -72.81 C10.67 -90.36, 29.2 -90.77, 46.02 -104.78 C62.83 -118.79, 83.93 -148.1, 103.89 -156.87 C123.86 -165.65, 146.51 -164.17, 165.81 -157.42 C185.11 -150.68, 212.9 -133.2, 219.7 -116.41 C226.51 -99.61, 220.63 -64.12, 206.66 -56.65 C192.68 -49.19, 151.83 -75.59, 135.88 -71.62 C119.93 -67.65, 114.23 -48.19, 110.95 -32.83 C107.66 -17.46, 127.59 18.7, 116.16 20.57 C104.73 22.44, 57.1 -23.18, 42.37 -21.62 C27.64 -20.06, 33.98 21.28, 27.77 29.95 C21.56 38.63, 9.56 35.26, 5.11 30.41 C0.66 25.55, 1.98 5.75, 1.07 0.81 M-1.47 -0.22 C-0.79 -12.1, -2.69 -54.51, 5.18 -71.69 C13.06 -88.88, 29.21 -89.26, 45.78 -103.35 C62.35 -117.44, 84.34 -147.25, 104.6 -156.23 C124.87 -165.21, 147.98 -163.68, 167.37 -157.25 C186.77 -150.83, 214.25 -134.76, 220.96 -117.66 C227.67 -100.57, 222 -62.24, 207.64 -54.68 C193.28 -47.12, 151.1 -75.8, 134.79 -72.29 C118.48 -68.77, 112.73 -49.05, 109.77 -33.6 C106.81 -18.15, 128.16 18.22, 117.01 20.42 C105.86 22.61, 57.92 -22.47, 42.88 -20.44 C27.84 -18.4, 33.54 24.27, 26.77 32.64 C20 41.01, 6.57 35.06, 2.26 29.8 C-2.04 24.53, 1.33 5.91, 0.92 1.05" stroke="#000000" stroke-width="1" fill="none"></path></g></g><g stroke-linecap="round"><g transform="translate(557 760.71875) rotate(0 -2.5 -101.5)"><path d="M-0.89 -0.37 C-1.76 -34.03, -3.55 -169.11, -4.05 -203.02 M0.84 -1.6 C-0.2 -34.97, -3.68 -167.94, -4.5 -201.49" stroke="#000000" stroke-width="1" fill="none"></path></g><g transform="translate(557 760.71875) rotate(0 -2.5 -101.5)"><path d="M5.87 -171.98 C2.35 -182.81, -3.29 -195.66, -5.75 -199.77 M6.55 -172.67 C2.36 -183.92, -0.4 -192.42, -3.53 -200.61" stroke="#000000" stroke-width="1" fill="none"></path></g><g transform="translate(557 760.71875) rotate(0 -2.5 -101.5)"><path d="M-14.65 -171.46 C-10.04 -182.34, -7.57 -195.4, -5.75 -199.77 M-13.96 -172.14 C-10.9 -183.69, -6.42 -192.38, -3.53 -200.61" stroke="#000000" stroke-width="1" fill="none"></path></g></g><g stroke-linecap="round"><g transform="translate(536 747.71875) rotate(0 126 1)"><path d="M-0.99 0.76 C40.99 1.27, 209.37 2.86, 251.69 2.93 M0.7 0.12 C42.5 0.3, 208.59 0.96, 250.57 1.29" stroke="#000000" stroke-width="1" fill="none"></path></g><g transform="translate(536 747.71875) rotate(0 126 1)"><path d="M223.6 10.87 C231.96 10.25, 237.14 4.68, 251.72 1.97 M222.06 10.76 C232.85 7.53, 242.84 3.35, 250.09 1.61" stroke="#000000" stroke-width="1" fill="none"></path></g><g transform="translate(536 747.71875) rotate(0 126 1)"><path d="M223.71 -9.65 C232.02 -4.4, 237.17 -4.1, 251.72 1.97 M222.18 -9.77 C232.73 -5.58, 242.69 -2.36, 250.09 1.61" stroke="#000000" stroke-width="1" fill="none"></path></g></g><g transform="translate(630 614.71875) rotate(0 0.00005000000000165983 0.00005000000000165983)" stroke="none"><path fill="#000000" d="M 1.57,-1.57 Q 1.57,-1.57 1.77,-1.27 1.98,-0.98 2.09,-0.64 2.20,-0.29 2.19,0.05 2.18,0.41 2.05,0.75 1.93,1.09 1.70,1.37 1.48,1.65 1.18,1.84 0.87,2.04 0.52,2.12 0.18,2.21 -0.17,2.18 -0.53,2.15 -0.86,2.01 -1.19,1.87 -1.46,1.63 -1.73,1.39 -1.90,1.07 -2.08,0.76 -2.15,0.41 -2.21,0.05 -2.17,-0.29 -2.12,-0.65 -1.96,-0.97 -1.80,-1.29 -1.54,-1.54 -1.29,-1.80 -0.97,-1.96 -0.65,-2.12 -0.29,-2.17 0.06,-2.21 0.41,-2.15 0.76,-2.08 1.07,-1.90 1.39,-1.73 1.63,-1.46 1.87,-1.19 2.01,-0.86 2.15,-0.53 2.18,-0.17 2.21,0.18 2.12,0.52 2.03,0.87 1.84,1.18 1.65,1.48 1.37,1.70 1.09,1.93 0.75,2.05 0.41,2.18 0.05,2.19 -0.30,2.20 -0.64,2.09 -0.98,1.98 -1.27,1.77 -1.57,1.56 -1.57,1.57 -1.57,1.57 -1.73,1.35 -1.90,1.14 -2.01,0.90 -2.12,0.66 -2.16,0.39 -2.21,0.13 -2.20,-0.13 -2.18,-0.40 -2.10,-0.65 -2.02,-0.91 -1.88,-1.14 -1.74,-1.36 -1.55,-1.55 -1.36,-1.74 -1.14,-1.88 -0.91,-2.02 -0.65,-2.10 -0.40,-2.18 -0.13,-2.20 0.13,-2.21 0.39,-2.16 0.66,-2.12 0.90,-2.01 1.14,-1.90 1.35,-1.73 1.57,-1.57 1.57,-1.57 L 1.57,-1.57 Z"></path></g><g transform="translate(756 560.71875) rotate(0 0.00005000000000165983 0.00005000000000165983)" stroke="none"><path fill="#000000" d="M 1.57,-1.57 Q 1.57,-1.57 1.77,-1.27 1.98,-0.98 2.09,-0.64 2.20,-0.29 2.19,0.05 2.18,0.41 2.05,0.75 1.93,1.09 1.70,1.37 1.48,1.65 1.18,1.84 0.87,2.04 0.52,2.12 0.18,2.21 -0.17,2.18 -0.53,2.15 -0.86,2.01 -1.19,1.87 -1.46,1.63 -1.73,1.39 -1.90,1.07 -2.08,0.76 -2.15,0.41 -2.21,0.05 -2.17,-0.29 -2.12,-0.65 -1.96,-0.97 -1.80,-1.29 -1.54,-1.54 -1.29,-1.80 -0.97,-1.96 -0.65,-2.12 -0.29,-2.17 0.06,-2.21 0.41,-2.15 0.76,-2.08 1.07,-1.90 1.39,-1.73 1.63,-1.46 1.87,-1.19 2.01,-0.86 2.15,-0.53 2.18,-0.17 2.21,0.18 2.12,0.52 2.03,0.87 1.84,1.18 1.65,1.48 1.37,1.70 1.09,1.93 0.75,2.05 0.41,2.18 0.05,2.19 -0.30,2.20 -0.64,2.09 -0.98,1.98 -1.27,1.77 -1.57,1.56 -1.57,1.57 -1.57,1.57 -1.73,1.35 -1.90,1.14 -2.01,0.90 -2.12,0.66 -2.16,0.39 -2.21,0.13 -2.20,-0.13 -2.18,-0.40 -2.10,-0.65 -2.02,-0.91 -1.88,-1.14 -1.74,-1.36 -1.55,-1.55 -1.36,-1.74 -1.14,-1.88 -0.91,-2.02 -0.65,-2.10 -0.40,-2.18 -0.13,-2.20 0.13,-2.21 0.39,-2.16 0.66,-2.12 0.90,-2.01 1.14,-1.90 1.35,-1.73 1.57,-1.57 1.57,-1.57 L 1.57,-1.57 Z"></path></g><g transform="translate(686 657.71875) rotate(0 0.00005000000000165983 0.00005000000000165983)" stroke="none"><path fill="#000000" d="M 1.57,-1.57 Q 1.57,-1.57 1.77,-1.27 1.98,-0.98 2.09,-0.64 2.20,-0.29 2.19,0.05 2.18,0.41 2.05,0.75 1.93,1.09 1.70,1.37 1.48,1.65 1.18,1.84 0.87,2.04 0.52,2.12 0.18,2.21 -0.17,2.18 -0.53,2.15 -0.86,2.01 -1.19,1.87 -1.46,1.63 -1.73,1.39 -1.90,1.07 -2.08,0.76 -2.15,0.41 -2.21,0.05 -2.17,-0.29 -2.12,-0.65 -1.96,-0.97 -1.80,-1.29 -1.54,-1.54 -1.29,-1.80 -0.97,-1.96 -0.65,-2.12 -0.29,-2.17 0.06,-2.21 0.41,-2.15 0.76,-2.08 1.07,-1.90 1.39,-1.73 1.63,-1.46 1.87,-1.19 2.01,-0.86 2.15,-0.53 2.18,-0.17 2.21,0.18 2.12,0.52 2.03,0.87 1.84,1.18 1.65,1.48 1.37,1.70 1.09,1.93 0.75,2.05 0.41,2.18 0.05,2.19 -0.30,2.20 -0.64,2.09 -0.98,1.98 -1.27,1.77 -1.57,1.56 -1.57,1.57 -1.57,1.57 -1.73,1.35 -1.90,1.14 -2.01,0.90 -2.12,0.66 -2.16,0.39 -2.21,0.13 -2.20,-0.13 -2.18,-0.40 -2.10,-0.65 -2.02,-0.91 -1.88,-1.14 -1.74,-1.36 -1.55,-1.55 -1.36,-1.74 -1.14,-1.88 -0.91,-2.02 -0.65,-2.10 -0.40,-2.18 -0.13,-2.20 0.13,-2.21 0.39,-2.16 0.66,-2.12 0.90,-2.01 1.14,-1.90 1.35,-1.73 1.57,-1.57 1.57,-1.57 L 1.57,-1.57 Z"></path></g><g stroke-linecap="round"><g transform="translate(630 613.71875) rotate(0 64.5 -27)"><path d="M-0.05 -1.13 C21.79 -10.1, 108.56 -43.94, 130 -52.84 M-1.54 0.9 C20.32 -7.86, 108.05 -45.29, 129.58 -54.36" stroke="#1864ab" stroke-width="1" fill="none"></path></g></g><g stroke-linecap="round"><g transform="translate(629 614.71875) rotate(0 29 22)"><path d="M0.33 -0.5 C10.11 7.11, 48.31 37.46, 57.9 44.95 M-0.95 -1.8 C8.73 5.53, 47.23 35.97, 56.89 43.33" stroke="#1864ab" stroke-width="1" fill="none"></path></g></g><g stroke-linecap="round"><g transform="translate(686 655.71875) rotate(0 35.5 -48)"><path d="M0.85 -0.53 C12.87 -16.83, 60.11 -80.89, 71.72 -96.62 M-0.16 1.8 C11.8 -13.84, 59.54 -79, 71.15 -95.42" stroke="#1864ab" stroke-width="1" fill="none"></path></g></g><g stroke-linecap="round"><g transform="translate(686 654.71875) rotate(0 9.5 -12)"><path d="M-0.63 -0.56 C2.33 -4.38, 14.71 -18.98, 18.05 -22.92 M1.24 1.76 C4.55 -2.36, 17.33 -20.35, 20.26 -24.47" stroke="#d9480f" stroke-width="1" fill="none"></path></g><g transform="translate(686 654.71875) rotate(0 9.5 -12)"><path d="M15.46 -10.94 C18.88 -13.98, 18.6 -19.23, 21.2 -24.05 M15.76 -9.54 C17.73 -13.2, 18.61 -16.71, 20.72 -24.06" stroke="#d9480f" stroke-width="1" fill="none"></path></g><g transform="translate(686 654.71875) rotate(0 9.5 -12)"><path d="M6.93 -17.01 C13.11 -18.05, 15.59 -21.32, 21.2 -24.05 M7.24 -15.61 C11.24 -17.81, 14.13 -19.9, 20.72 -24.06" stroke="#d9480f" stroke-width="1" fill="none"></path></g></g><g stroke-linecap="round"><g transform="translate(757.5 559.71875) rotate(0 9.5 -12)"><path d="M-0.34 -0.99 C2.64 -5.16, 15.2 -20.52, 18.58 -24.37 M1.68 1.1 C4.4 -2.95, 14.42 -19.03, 17.41 -23.03" stroke="#d9480f" stroke-width="1" fill="none"></path></g><g transform="translate(757.5 559.71875) rotate(0 9.5 -12)"><path d="M12.42 -8.72 C14.47 -12.36, 16.11 -17.76, 15.88 -21.51 M13.89 -8.37 C14.38 -11, 14.85 -15.57, 18 -22.7" stroke="#d9480f" stroke-width="1" fill="none"></path></g><g transform="translate(757.5 559.71875) rotate(0 9.5 -12)"><path d="M3.75 -14.59 C8.96 -16.08, 13.71 -19.38, 15.88 -21.51 M5.22 -14.24 C7.63 -15.48, 10.06 -18.73, 18 -22.7" stroke="#d9480f" stroke-width="1" fill="none"></path></g></g><g stroke-linecap="round"><g transform="translate(690 654.71875) rotate(0 44.5 19.5)"><path d="M0.28 -0.91 C15.22 5.89, 75.44 33.22, 90.09 39.82 M-1.03 1.23 C13.81 7.78, 74.44 31.7, 89.72 38.13" stroke="#d9480f" stroke-width="1" fill="none"></path></g></g><g stroke-linecap="round"><g transform="translate(761.5 560.21875) rotate(0 35.73871085345746 -8.088392755389215)"><path d="M-0.91 -0.55 C11.02 -3.14, 59.79 -12.92, 71.95 -15.35 M0.81 1.78 C12.59 -1.16, 59.46 -13.92, 71.26 -17.04" stroke="#d9480f" stroke-width="1" fill="none"></path></g></g><g transform="translate(800 681.71875) rotate(0 12.5 12.5)"><text x="0" y="18" font-family="Virgil, Segoe UI Emoji" font-size="20px" fill="#d9480f" text-anchor="start" style="white-space: pre;" direction="ltr">Va</text></g><g transform="translate(844 541.71875) rotate(0 11 12.5)"><text x="0" y="18" font-family="Virgil, Segoe UI Emoji" font-size="20px" fill="#d9480f" text-anchor="start" style="white-space: pre;" direction="ltr">Vb</text></g><g stroke-linecap="round"><g transform="translate(703 630.71875) rotate(0 40 30.5)"><path d="M0.2 1.18 C13.63 11.67, 66.8 52.05, 80.21 61.95 M-1.16 0.76 C12.17 11.01, 65.8 50.17, 79.37 60.33" stroke="#000000" stroke-width="1" fill="none"></path></g></g><g stroke-linecap="round"><g transform="translate(772 530.71875) rotate(0 27.89075897414702 4.646441051247528)"><path d="M0.2 -0.52 C9.38 0.86, 45.92 6.7, 55.17 8.48 M-1.15 1.83 C8.42 3.32, 48.22 8.51, 57.56 9.59" stroke="#000000" stroke-width="1" fill="none"></path></g></g></svg>