<svg version="1.1" xmlns="http://www.w3.org/2000/svg" viewBox="0 0 10020 834.3125" width="10020" height="834.3125">
  <!-- svg-source:excalidraw -->
  
  <defs>
    <style>
      @font-face {
        font-family: "Virgil";
        src: url("https://excalidraw.com/Virgil.woff2");
      }
      @font-face {
        font-family: "Cascadia";
        src: url("https://excalidraw.com/Cascadia.woff2");
      }
    </style>
  </defs>
  <rect x="0" y="0" width="10020" height="834.3125" fill="#fff0"></rect><g stroke-linecap="round" transform="translate(10 10) rotate(0 5000 0.5)"><path d="M-0.52 -0.26 C3022.65 -30.2, 6044.59 -29.2, 9999.32 0.22 M0.38 -0.31 C3948.03 -0.44, 7895.41 0.2, 9999.95 0.08 M10000.08 -0.06 C10000.09 0.27, 10000.05 0.48, 10000.09 0.92 M9999.97 0.01 C9999.95 0.33, 9999.98 0.72, 10000 0.99 M10000.22 1.51 C7095.77 35.76, 4193.15 34.95, -0.25 0.75 M10000.01 1.13 C7827.97 2.74, 5656.23 3.35, -0.33 0.84 M-0.04 1.01 C0 0.63, -0.06 0.15, 0.05 -0.03 M-0.04 0.95 C-0.04 0.73, -0.03 0.59, -0.05 -0.02" stroke="transparent" stroke-width="1" fill="none"></path></g><g transform="translate(585 743.25) rotate(0 6 -2)" stroke="none"><path fill="#000000" d="M -2.43,-0.97 Q -2.43,-0.97 -1.81,-2.41 -1.19,-3.86 -0.48,-4.84 0.22,-5.83 1.06,-6.73 1.90,-7.64 2.82,-8.26 3.73,-8.88 5.30,-9.32 6.87,-9.77 9.07,-9.48 11.26,-9.19 12.38,-8.34 13.50,-7.48 14.08,-5.78 14.66,-4.08 14.84,-2.57 15.03,-1.06 14.14,1.53 13.25,4.13 11.00,4.83 8.74,5.53 7.31,5.36 5.87,5.20 3.61,4.51 1.36,3.82 0.48,2.53 -0.40,1.23 -0.38,-1.19 -0.36,-3.62 0.36,-5.70 1.09,-7.77 2.55,-8.66 4.02,-9.55 5.68,-9.46 7.33,-9.36 8.61,-8.66 9.90,-7.95 10.74,-6.59 11.59,-5.23 11.86,-3.52 12.13,-1.82 11.61,-0.41 11.10,0.98 10.07,1.81 9.04,2.63 6.19,2.68 3.34,2.72 2.88,2.66 2.42,2.61 2.01,2.41 1.59,2.21 1.25,1.89 0.92,1.56 0.71,1.15 0.50,0.74 0.43,0.28 0.36,-0.17 0.44,-0.62 0.52,-1.08 0.74,-1.49 0.96,-1.89 1.30,-2.21 1.64,-2.52 2.06,-2.71 2.49,-2.90 2.95,-2.95 3.41,-2.99 3.86,-2.89 4.31,-2.78 4.71,-2.54 5.10,-2.29 5.40,-1.94 5.69,-1.58 5.86,-1.15 6.03,-0.72 6.05,-0.25 6.07,0.20 5.94,0.64 5.81,1.09 5.54,1.47 5.28,1.85 4.91,2.13 4.53,2.40 4.09,2.55 3.65,2.69 3.19,2.68 2.73,2.68 2.29,2.52 1.85,2.37 1.49,2.09 1.12,1.80 0.86,1.42 0.61,1.03 0.49,0.58 0.37,0.13 0.40,-0.32 0.43,-0.78 0.61,-1.21 0.78,-1.64 1.09,-1.99 1.39,-2.34 1.79,-2.57 2.19,-2.81 2.65,-2.90 3.10,-2.99 3.10,-2.99 3.10,-2.99 4.40,-2.38 5.71,-1.77 5.83,-3.00 5.96,-4.23 5.34,-2.55 4.73,-0.87 5.83,-0.78 6.93,-0.69 7.91,0.00 8.89,0.71 8.87,-0.50 8.85,-1.73 8.60,-2.87 8.36,-4.01 7.04,-3.95 5.72,-3.89 4.60,-2.88 3.49,-1.88 2.96,-0.45 2.43,0.97 2.27,1.24 2.12,1.52 1.91,1.75 1.70,1.99 1.43,2.16 1.17,2.33 0.87,2.44 0.58,2.55 0.26,2.58 -0.04,2.61 -0.35,2.57 -0.67,2.52 -0.96,2.41 -1.25,2.29 -1.51,2.11 -1.77,1.92 -1.97,1.68 -2.18,1.44 -2.32,1.16 -2.46,0.88 -2.53,0.57 -2.60,0.26 -2.59,-0.04 -2.59,-0.36 -2.51,-0.66 -2.43,-0.97 -2.43,-0.97 L -2.43,-0.97 Z"></path></g><g stroke-linecap="round"><g transform="translate(592 740.25) rotate(0 224.5 1)"><path d="M-1.04 1.17 C73.95 1.58, 374.85 1.01, 449.72 1.3 M0.61 0.75 C75.53 1.39, 374.14 2.42, 449.16 2.48" stroke="#000000" stroke-width="1" fill="none"></path></g></g><g transform="translate(1041 745.25) rotate(0 0.5 -4)" stroke="none"><path fill="#000000" d="M -2.37,1.18 Q -2.37,1.18 -2.95,0.03 -3.53,-1.11 -3.89,-2.20 -4.25,-3.30 -4.11,-4.59 -3.96,-5.88 -3.41,-7.40 -2.86,-8.92 -1.88,-9.70 -0.91,-10.47 0.54,-10.74 1.99,-11.01 4.32,-9.94 6.64,-8.87 7.14,-7.92 7.64,-6.96 7.91,-5.45 8.18,-3.94 7.80,-2.30 7.43,-0.66 6.67,0.44 5.91,1.54 4.92,2.13 3.93,2.72 1.81,2.96 -0.31,3.20 -0.51,-0.12 -0.71,-3.45 -0.22,-3.27 0.27,-3.09 0.68,-2.76 1.09,-2.43 1.38,-1.99 1.67,-1.54 1.80,-1.03 1.92,-0.52 1.88,0.00 1.84,0.52 1.64,1.01 1.43,1.49 1.08,1.89 0.73,2.28 0.27,2.54 -0.18,2.81 -0.70,2.91 -1.22,3.01 -1.74,2.94 -2.26,2.87 -2.74,2.64 -3.21,2.40 -3.59,2.03 -3.96,1.66 -4.20,1.19 -4.43,0.72 -4.51,0.19 -4.58,-0.32 -4.48,-0.84 -4.38,-1.36 -4.13,-1.82 -3.87,-2.28 -3.48,-2.63 -3.08,-2.99 -2.60,-3.20 -2.12,-3.41 -1.59,-3.45 -1.06,-3.50 -0.55,-3.37 -0.04,-3.25 0.40,-2.96 0.84,-2.68 1.18,-2.27 1.51,-1.86 1.69,-1.36 1.88,-0.87 1.89,-0.34 1.91,0.18 1.76,0.68 1.60,1.19 1.30,1.62 0.99,2.05 0.56,2.36 0.13,2.66 -0.36,2.82 -0.86,2.98 -1.39,2.97 -1.92,2.95 -1.92,2.95 -1.92,2.95 -1.22,-0.17 -0.52,-3.30 0.58,-3.42 1.70,-3.55 1.71,-4.66 1.73,-5.78 1.48,-4.63 1.23,-3.48 1.80,-2.33 2.37,-1.18 2.48,-0.88 2.59,-0.58 2.62,-0.26 2.65,0.05 2.61,0.36 2.56,0.68 2.45,0.98 2.33,1.28 2.14,1.54 1.95,1.80 1.71,2.01 1.46,2.21 1.18,2.36 0.89,2.50 0.58,2.57 0.26,2.64 -0.05,2.64 -0.37,2.63 -0.68,2.55 -0.99,2.46 -1.27,2.31 -1.55,2.15 -1.78,1.94 -2.02,1.72 -2.20,1.45 -2.37,1.18 -2.37,1.18 L -2.37,1.18 Z"></path></g><g transform="translate(1017 775.25) rotate(0 4.5 -3)" stroke="none"><path fill="#000000" d="M -1.85,-1.85 Q -1.85,-1.85 -1.00,-2.72 -0.15,-3.59 1.44,-5.35 3.04,-7.11 4.97,-7.85 6.89,-8.58 8.28,-8.18 9.66,-7.79 10.19,-5.39 10.72,-2.99 9.41,-2.04 8.11,-1.09 6.06,-0.26 4.02,0.56 3.61,0.75 3.21,0.95 2.76,1.00 2.32,1.06 1.88,0.97 1.44,0.88 1.05,0.66 0.66,0.43 0.36,0.10 0.07,-0.23 -0.10,-0.64 -0.27,-1.06 -0.30,-1.51 -0.34,-1.95 -0.22,-2.39 -0.11,-2.82 0.12,-3.20 0.37,-3.58 0.72,-3.85 1.08,-4.13 1.50,-4.28 1.92,-4.43 2.37,-4.44 2.82,-4.45 3.25,-4.31 3.68,-4.18 4.04,-3.91 4.40,-3.65 4.66,-3.28 4.92,-2.91 5.05,-2.48 5.17,-2.05 5.16,-1.60 5.14,-1.15 4.98,-0.73 4.82,-0.31 4.54,0.02 4.25,0.37 3.87,0.61 3.49,0.85 3.06,0.95 2.62,1.06 2.17,1.02 1.72,0.97 1.31,0.79 0.90,0.61 0.57,0.31 0.24,0.01 0.02,-0.38 -0.19,-0.77 -0.27,-1.21 -0.35,-1.65 -0.28,-2.10 -0.22,-2.54 -0.01,-2.94 0.18,-3.34 0.50,-3.66 0.82,-3.97 0.82,-3.97 0.82,-3.97 3.71,-5.06 6.61,-6.15 6.89,-4.58 7.17,-3.00 6.19,-2.53 5.22,-2.05 4.41,-0.95 3.60,0.14 2.73,1.00 1.85,1.85 1.60,2.05 1.35,2.24 1.07,2.37 0.78,2.50 0.47,2.56 0.15,2.62 -0.15,2.60 -0.47,2.58 -0.77,2.48 -1.07,2.39 -1.34,2.23 -1.62,2.06 -1.84,1.84 -2.06,1.62 -2.23,1.34 -2.39,1.07 -2.48,0.77 -2.58,0.47 -2.60,0.15 -2.62,-0.15 -2.56,-0.47 -2.50,-0.78 -2.37,-1.07 -2.24,-1.35 -2.05,-1.60 -1.85,-1.85 -1.85,-1.85 L -1.85,-1.85 Z"></path></g><g transform="translate(1065 772.25) rotate(0 -6.5 -3.5)" stroke="none"><path fill="#000000" d="M 0.35,2.50 Q 0.35,2.50 -1.67,2.65 -3.70,2.81 -5.50,2.92 -7.30,3.02 -8.37,3.13 -9.45,3.24 -10.68,2.92 -11.90,2.60 -13.00,1.59 -14.09,0.59 -14.62,-0.69 -15.15,-1.98 -15.33,-3.14 -15.52,-4.30 -15.49,-6.07 -15.46,-7.85 -14.77,-8.88 -14.09,-9.91 -12.77,-10.34 -11.46,-10.76 -10.12,-10.81 -8.79,-10.86 -7.25,-10.52 -5.72,-10.17 -4.46,-8.79 -3.20,-7.40 -3.06,-6.19 -2.91,-4.97 -3.46,-3.94 -4.01,-2.92 -5.09,-2.04 -6.17,-1.17 -7.91,-0.26 -9.64,0.64 -12.27,-1.46 -14.89,-3.57 -14.98,-4.08 -15.06,-4.59 -14.97,-5.10 -14.89,-5.61 -14.64,-6.07 -14.40,-6.53 -14.02,-6.88 -13.64,-7.24 -13.17,-7.45 -12.70,-7.67 -12.19,-7.72 -11.67,-7.78 -11.17,-7.66 -10.66,-7.55 -10.22,-7.28 -9.78,-7.01 -9.44,-6.62 -9.11,-6.22 -8.92,-5.74 -8.73,-5.26 -8.70,-4.74 -8.68,-4.22 -8.82,-3.72 -8.96,-3.23 -9.25,-2.80 -9.54,-2.37 -9.95,-2.06 -10.37,-1.75 -10.86,-1.58 -11.35,-1.42 -11.87,-1.42 -12.39,-1.42 -12.88,-1.59 -13.37,-1.76 -13.78,-2.07 -14.19,-2.39 -14.48,-2.82 -14.77,-3.25 -14.90,-3.75 -15.04,-4.25 -15.01,-4.76 -14.98,-5.28 -14.79,-5.76 -14.59,-6.24 -14.26,-6.64 -13.92,-7.03 -13.48,-7.29 -13.03,-7.56 -12.52,-7.67 -12.02,-7.78 -11.50,-7.72 -10.99,-7.66 -10.52,-7.44 -10.05,-7.22 -9.68,-6.87 -9.30,-6.51 -9.06,-6.05 -8.82,-5.59 -8.82,-5.59 -8.82,-5.59 -9.96,-5.37 -11.09,-5.16 -9.95,-5.76 -8.80,-6.37 -8.11,-5.49 -7.43,-4.61 -8.79,-4.76 -10.16,-4.90 -10.06,-3.36 -9.96,-1.81 -8.78,-1.60 -7.61,-1.38 -5.98,-1.52 -4.34,-1.66 -2.35,-2.08 -0.35,-2.50 -0.05,-2.50 0.25,-2.51 0.54,-2.44 0.84,-2.37 1.11,-2.24 1.39,-2.10 1.62,-1.91 1.85,-1.71 2.03,-1.46 2.21,-1.22 2.32,-0.93 2.43,-0.65 2.48,-0.35 2.52,-0.05 2.49,0.24 2.46,0.55 2.36,0.83 2.26,1.12 2.09,1.38 1.92,1.63 1.70,1.84 1.47,2.04 1.21,2.19 0.94,2.34 0.65,2.42 0.35,2.50 0.35,2.50 L 0.35,2.50 Z"></path></g><g transform="translate(1008 790.25) rotate(0 44 -3)" stroke="none"><path fill="#000000" d="M 0,-1.57 Q 0,-1.57 2.01,-1.56 4.02,-1.55 9.19,-1.52 14.36,-1.49 21.96,-2.03 29.57,-2.58 37.16,-2.81 44.76,-3.04 49.96,-3.42 55.16,-3.79 58.55,-3.95 61.94,-4.11 64.54,-4.17 67.14,-4.24 69.40,-4.26 71.65,-4.29 74.05,-4.30 76.45,-4.31 78.32,-4.36 80.20,-4.42 81.95,-4.97 83.70,-5.53 85.15,-6.33 86.59,-7.13 86.85,-7.20 87.10,-7.28 87.36,-7.27 87.62,-7.25 87.87,-7.16 88.12,-7.07 88.32,-6.90 88.52,-6.73 88.66,-6.51 88.80,-6.28 88.86,-6.02 88.92,-5.77 88.89,-5.51 88.87,-5.24 88.76,-5.00 88.65,-4.76 88.47,-4.57 88.29,-4.38 88.06,-4.25 87.83,-4.12 87.57,-4.08 87.31,-4.03 87.05,-4.07 86.79,-4.11 86.56,-4.23 86.32,-4.35 86.14,-4.54 85.96,-4.73 85.84,-4.97 85.73,-5.21 85.70,-5.47 85.67,-5.73 85.72,-5.99 85.77,-6.24 85.91,-6.47 86.04,-6.70 86.24,-6.87 86.44,-7.04 86.68,-7.15 86.92,-7.25 87.19,-7.26 87.45,-7.28 87.71,-7.21 87.96,-7.15 88.18,-7.00 88.40,-6.86 88.56,-6.65 88.72,-6.44 88.81,-6.19 88.90,-5.94 88.90,-5.68 88.90,-5.42 88.82,-5.17 88.74,-4.91 88.58,-4.70 88.43,-4.49 88.21,-4.34 88.00,-4.19 88.00,-4.19 88.00,-4.19 86.26,-3.47 84.53,-2.76 82.38,-2.16 80.24,-1.56 78.35,-1.60 76.46,-1.64 74.08,-1.63 71.69,-1.61 69.45,-1.58 67.21,-1.54 64.65,-1.47 62.08,-1.39 58.72,-1.21 55.37,-1.04 50.11,-0.63 44.85,-0.23 37.32,0.02 29.78,0.28 22.07,0.88 14.36,1.49 9.19,1.52 4.02,1.55 2.01,1.56 0,1.57 -0.18,1.54 -0.37,1.52 -0.55,1.45 -0.73,1.39 -0.88,1.28 -1.04,1.17 -1.16,1.03 -1.29,0.89 -1.38,0.72 -1.46,0.55 -1.51,0.37 -1.56,0.18 -1.56,-0.00 -1.56,-0.18 -1.51,-0.37 -1.46,-0.55 -1.38,-0.72 -1.29,-0.89 -1.16,-1.03 -1.04,-1.17 -0.88,-1.28 -0.73,-1.39 -0.55,-1.45 -0.37,-1.52 -0.18,-1.54 0.00,-1.57 0.00,-1.57 L 0,-1.57 Z"></path></g><g transform="translate(1015 796.25) rotate(0 5.5 -3)" stroke="none"><path fill="#000000" d="M -0.85,-1.93 Q -0.85,-1.93 1.77,-2.98 4.40,-4.03 6.61,-5.55 8.83,-7.08 9.14,-7.21 9.45,-7.34 9.78,-7.37 10.12,-7.39 10.44,-7.31 10.77,-7.23 11.05,-7.05 11.33,-6.87 11.54,-6.60 11.75,-6.34 11.86,-6.03 11.98,-5.71 11.99,-5.38 12.00,-5.04 11.90,-4.72 11.80,-4.40 11.60,-4.13 11.40,-3.86 11.13,-3.66 10.86,-3.47 10.54,-3.37 10.22,-3.27 9.88,-3.28 9.55,-3.29 9.23,-3.41 8.92,-3.53 8.66,-3.74 8.40,-3.95 8.22,-4.23 8.04,-4.51 7.96,-4.84 7.88,-5.16 7.91,-5.50 7.93,-5.83 8.07,-6.14 8.20,-6.45 8.42,-6.70 8.65,-6.95 8.94,-7.11 9.23,-7.27 9.56,-7.34 9.89,-7.40 10.23,-7.35 10.56,-7.31 10.86,-7.16 11.16,-7.01 11.39,-6.77 11.63,-6.53 11.78,-6.23 11.93,-5.93 11.97,-5.60 12.01,-5.26 11.95,-4.94 11.89,-4.61 11.72,-4.31 11.55,-4.02 11.30,-3.80 11.05,-3.58 11.05,-3.58 11.05,-3.58 8.50,-2.07 5.94,-0.56 3.40,0.68 0.85,1.93 0.61,2.00 0.37,2.07 0.11,2.09 -0.13,2.10 -0.38,2.06 -0.63,2.01 -0.86,1.90 -1.10,1.80 -1.30,1.64 -1.50,1.48 -1.65,1.28 -1.81,1.08 -1.91,0.85 -2.01,0.61 -2.06,0.36 -2.10,0.11 -2.09,-0.13 -2.07,-0.39 -1.99,-0.63 -1.92,-0.87 -1.78,-1.09 -1.65,-1.31 -1.47,-1.49 -1.29,-1.66 -1.07,-1.79 -0.85,-1.93 -0.85,-1.93 L -0.85,-1.93 Z"></path></g><g transform="translate(1026 803.25) rotate(0 6.5 -6)" stroke="none"><path fill="#000000" d="M -1.47,-1.72 Q -1.47,-1.72 0.61,-3.35 2.71,-4.98 4.14,-6.23 5.58,-7.48 6.42,-8.37 7.25,-9.26 9.14,-11.19 11.03,-13.12 11.32,-13.32 11.60,-13.53 11.94,-13.63 12.28,-13.73 12.63,-13.72 12.99,-13.71 13.32,-13.58 13.65,-13.46 13.92,-13.23 14.19,-13.01 14.38,-12.71 14.57,-12.41 14.65,-12.07 14.74,-11.73 14.70,-11.38 14.67,-11.02 14.53,-10.70 14.39,-10.38 14.15,-10.12 13.91,-9.86 13.61,-9.68 13.30,-9.51 12.95,-9.45 12.60,-9.38 12.25,-9.43 11.90,-9.48 11.59,-9.64 11.27,-9.80 11.03,-10.05 10.78,-10.30 10.62,-10.62 10.47,-10.94 10.42,-11.29 10.38,-11.64 10.45,-11.99 10.52,-12.33 10.69,-12.64 10.87,-12.94 11.13,-13.18 11.40,-13.41 11.72,-13.55 12.05,-13.69 12.40,-13.71 12.75,-13.74 13.09,-13.65 13.44,-13.56 13.73,-13.37 14.03,-13.18 14.25,-12.90 14.47,-12.63 14.59,-12.29 14.70,-11.96 14.71,-11.61 14.72,-11.26 14.61,-10.92 14.51,-10.58 14.30,-10.30 14.09,-10.01 14.09,-10.01 14.09,-10.01 12.09,-8.13 10.09,-6.24 9.14,-5.44 8.18,-4.64 6.76,-3.28 5.33,-1.91 3.40,-0.09 1.47,1.72 1.25,1.87 1.02,2.02 0.76,2.12 0.50,2.21 0.23,2.24 -0.03,2.27 -0.30,2.23 -0.57,2.19 -0.83,2.09 -1.08,1.99 -1.31,1.83 -1.53,1.67 -1.71,1.46 -1.89,1.25 -2.01,1.01 -2.13,0.77 -2.19,0.50 -2.25,0.23 -2.25,-0.03 -2.25,-0.31 -2.18,-0.57 -2.11,-0.84 -1.97,-1.08 -1.84,-1.32 -1.66,-1.52 -1.47,-1.72 -1.47,-1.72 L -1.47,-1.72 Z"></path></g><g transform="translate(1047 803.25) rotate(0 9 -6.5)" stroke="none"><path fill="#000000" d="M -1.38,-1.84 Q -1.38,-1.84 -0.24,-2.71 0.90,-3.59 2.03,-4.33 3.16,-5.07 4.76,-6.09 6.35,-7.11 7.94,-8.13 9.53,-9.16 11.17,-9.97 12.81,-10.77 14.42,-12.46 16.03,-14.16 16.32,-14.36 16.61,-14.56 16.96,-14.66 17.30,-14.76 17.65,-14.75 18.01,-14.73 18.34,-14.61 18.68,-14.48 18.95,-14.25 19.22,-14.02 19.41,-13.72 19.60,-13.42 19.68,-13.07 19.76,-12.72 19.73,-12.37 19.69,-12.02 19.55,-11.69 19.40,-11.37 19.16,-11.10 18.92,-10.84 18.61,-10.67 18.30,-10.50 17.94,-10.44 17.59,-10.38 17.24,-10.43 16.89,-10.48 16.57,-10.65 16.26,-10.81 16.01,-11.06 15.76,-11.32 15.61,-11.64 15.45,-11.96 15.41,-12.31 15.37,-12.67 15.44,-13.02 15.51,-13.37 15.69,-13.67 15.87,-13.98 16.14,-14.21 16.41,-14.45 16.74,-14.58 17.06,-14.72 17.42,-14.74 17.77,-14.77 18.12,-14.68 18.46,-14.59 18.76,-14.39 19.06,-14.19 19.28,-13.91 19.50,-13.63 19.61,-13.30 19.73,-12.96 19.74,-12.61 19.74,-12.25 19.63,-11.91 19.52,-11.57 19.31,-11.28 19.10,-11.00 19.10,-11.00 19.10,-11.00 16.89,-9.02 14.69,-7.04 13.29,-6.37 11.90,-5.70 10.40,-4.60 8.91,-3.51 7.29,-2.25 5.68,-0.98 4.69,-0.42 3.69,0.14 2.54,0.99 1.38,1.84 1.14,1.98 0.90,2.11 0.63,2.19 0.36,2.27 0.08,2.28 -0.18,2.29 -0.45,2.23 -0.73,2.18 -0.98,2.06 -1.23,1.94 -1.44,1.76 -1.66,1.59 -1.82,1.37 -1.99,1.14 -2.10,0.89 -2.21,0.63 -2.25,0.36 -2.30,0.09 -2.27,-0.18 -2.25,-0.46 -2.16,-0.72 -2.07,-0.98 -1.93,-1.22 -1.78,-1.45 -1.58,-1.65 -1.38,-1.84 -1.38,-1.84 L -1.38,-1.84 Z"></path></g><g transform="translate(1078 795.25) rotate(0 4.5 -5)" stroke="none"><path fill="#000000" d="M -1.52,-1.52 Q -1.52,-1.52 -0.37,-2.67 0.76,-3.82 2.13,-5.32 3.50,-6.81 5.11,-8.71 6.71,-10.61 6.98,-10.82 7.25,-11.03 7.57,-11.15 7.88,-11.26 8.22,-11.27 8.56,-11.28 8.89,-11.18 9.21,-11.07 9.49,-10.88 9.76,-10.68 9.96,-10.40 10.16,-10.12 10.26,-9.80 10.36,-9.47 10.35,-9.13 10.33,-8.79 10.22,-8.47 10.10,-8.16 9.88,-7.89 9.67,-7.63 9.38,-7.44 9.10,-7.26 8.77,-7.18 8.44,-7.10 8.10,-7.13 7.76,-7.16 7.45,-7.29 7.13,-7.43 6.88,-7.66 6.63,-7.89 6.46,-8.18 6.30,-8.48 6.24,-8.81 6.17,-9.15 6.22,-9.48 6.27,-9.82 6.42,-10.12 6.57,-10.43 6.81,-10.67 7.05,-10.91 7.36,-11.06 7.66,-11.21 8.00,-11.25 8.34,-11.30 8.67,-11.23 9.01,-11.17 9.30,-11.00 9.60,-10.83 9.82,-10.57 10.05,-10.32 10.18,-10.01 10.31,-9.70 10.34,-9.36 10.37,-9.02 10.28,-8.69 10.20,-8.36 10.02,-8.07 9.83,-7.79 9.83,-7.79 9.83,-7.79 8.16,-6.06 6.49,-4.34 5.16,-2.55 3.83,-0.77 2.67,0.37 1.52,1.52 1.32,1.68 1.11,1.85 0.88,1.95 0.64,2.06 0.38,2.11 0.13,2.15 -0.12,2.14 -0.38,2.12 -0.63,2.04 -0.88,1.97 -1.11,1.83 -1.33,1.70 -1.51,1.51 -1.70,1.33 -1.83,1.11 -1.97,0.88 -2.04,0.63 -2.12,0.38 -2.14,0.12 -2.15,-0.13 -2.11,-0.38 -2.06,-0.64 -1.95,-0.88 -1.85,-1.11 -1.68,-1.32 -1.52,-1.52 -1.52,-1.52 L -1.52,-1.52 Z"></path></g><g stroke-linecap="round"><g transform="translate(1042 744.25) rotate(0 -2 15.5)"><path d="M-0.75 0.07 C-4.31 5.22, -24.99 25.35, -22.07 29.85 C-19.14 34.35, 13.29 32.04, 16.83 27.06 C20.37 22.08, 1.97 4.55, -0.83 -0.05 M1.06 -0.94 C-2.61 4.4, -26.05 26.41, -23.05 30.78 C-20.04 35.15, 15.43 30.23, 19.1 25.27 C22.78 20.31, 2.41 5.32, -1.01 1.03" stroke="#000000" stroke-width="1" fill="none"></path></g></g><g transform="translate(585 753.25) rotate(0 3.5 -6)" stroke="none"><path fill="#1864ab" d="M -1.69,-1.69 Q -1.69,-1.69 -0.53,-2.81 0.62,-3.94 1.22,-5.05 1.83,-6.16 2.39,-7.47 2.95,-8.78 3.82,-10.79 4.68,-12.80 4.93,-13.10 5.18,-13.40 5.52,-13.60 5.85,-13.80 6.23,-13.88 6.60,-13.97 6.99,-13.93 7.38,-13.89 7.73,-13.73 8.08,-13.57 8.37,-13.30 8.65,-13.03 8.83,-12.69 9.01,-12.35 9.08,-11.97 9.14,-11.58 9.08,-11.20 9.02,-10.82 8.84,-10.47 8.66,-10.13 8.38,-9.86 8.10,-9.59 7.75,-9.43 7.40,-9.27 7.01,-9.22 6.62,-9.18 6.24,-9.26 5.86,-9.34 5.53,-9.54 5.20,-9.74 4.95,-10.04 4.69,-10.33 4.55,-10.69 4.40,-11.05 4.38,-11.44 4.36,-11.82 4.46,-12.20 4.56,-12.57 4.78,-12.90 5.00,-13.22 5.30,-13.45 5.61,-13.69 5.98,-13.82 6.35,-13.94 6.74,-13.94 7.12,-13.94 7.49,-13.82 7.86,-13.70 8.17,-13.46 8.48,-13.23 8.70,-12.91 8.92,-12.59 9.02,-12.22 9.13,-11.84 9.11,-11.46 9.09,-11.07 8.95,-10.71 8.80,-10.35 8.80,-10.35 8.80,-10.35 8.01,-8.65 7.21,-6.96 6.54,-5.40 5.87,-3.84 4.92,-2.25 3.97,-0.65 2.83,0.51 1.69,1.69 1.46,1.86 1.23,2.04 0.97,2.16 0.71,2.28 0.42,2.33 0.14,2.38 -0.14,2.36 -0.43,2.35 -0.70,2.26 -0.98,2.17 -1.22,2.03 -1.47,1.88 -1.67,1.67 -1.88,1.47 -2.03,1.22 -2.17,0.98 -2.26,0.70 -2.35,0.43 -2.36,0.14 -2.38,-0.14 -2.33,-0.42 -2.28,-0.71 -2.16,-0.97 -2.04,-1.23 -1.86,-1.46 -1.69,-1.69 -1.69,-1.69 L -1.69,-1.69 Z"></path></g><g transform="translate(576 748.25) rotate(0 5 -4)" stroke="none"><path fill="#1864ab" d="M -1.73,-1.73 Q -1.73,-1.73 -0.56,-2.86 0.60,-3.99 1.80,-4.90 2.99,-5.82 4.09,-6.52 5.19,-7.22 6.56,-8.41 7.93,-9.60 8.28,-9.82 8.63,-10.04 9.04,-10.14 9.44,-10.23 9.86,-10.19 10.27,-10.15 10.65,-9.99 11.03,-9.82 11.34,-9.54 11.64,-9.25 11.84,-8.89 12.04,-8.52 12.12,-8.12 12.19,-7.71 12.13,-7.29 12.07,-6.88 11.88,-6.51 11.69,-6.14 11.39,-5.85 11.10,-5.56 10.72,-5.38 10.35,-5.20 9.93,-5.15 9.52,-5.10 9.11,-5.18 8.71,-5.27 8.35,-5.47 7.99,-5.68 7.71,-6.00 7.44,-6.31 7.28,-6.69 7.12,-7.08 7.09,-7.49 7.06,-7.91 7.17,-8.31 7.27,-8.71 7.50,-9.06 7.73,-9.41 8.06,-9.66 8.38,-9.92 8.78,-10.06 9.17,-10.20 9.58,-10.20 10.00,-10.21 10.40,-10.08 10.79,-9.96 11.13,-9.71 11.46,-9.46 11.70,-9.12 11.94,-8.78 12.06,-8.38 12.17,-7.98 12.16,-7.57 12.14,-7.15 11.99,-6.76 11.84,-6.37 11.58,-6.05 11.31,-5.73 11.31,-5.73 11.31,-5.73 9.54,-4.34 7.77,-2.94 6.81,-2.41 5.86,-1.88 4.92,-1.24 3.99,-0.60 2.86,0.56 1.73,1.73 1.50,1.91 1.26,2.09 0.99,2.22 0.72,2.34 0.43,2.39 0.14,2.44 -0.14,2.43 -0.44,2.41 -0.72,2.32 -1.00,2.23 -1.26,2.08 -1.51,1.93 -1.72,1.72 -1.93,1.51 -2.08,1.26 -2.23,1.00 -2.32,0.72 -2.41,0.44 -2.43,0.14 -2.44,-0.14 -2.39,-0.43 -2.34,-0.73 -2.22,-0.99 -2.09,-1.26 -1.91,-1.50 -1.73,-1.73 -1.73,-1.73 L -1.73,-1.73 Z"></path></g><g transform="translate(598 754.25) rotate(0 -3 -7)" stroke="none"><path fill="#1864ab" d="M -2.00,0.80 Q -2.00,0.80 -2.59,-0.63 -3.17,-2.06 -3.63,-4.25 -4.09,-6.45 -5.01,-7.96 -5.94,-9.46 -6.72,-11.00 -7.50,-12.54 -7.58,-12.85 -7.66,-13.16 -7.64,-13.47 -7.62,-13.79 -7.50,-14.09 -7.38,-14.38 -7.17,-14.62 -6.97,-14.86 -6.69,-15.03 -6.42,-15.19 -6.10,-15.25 -5.79,-15.32 -5.48,-15.28 -5.16,-15.24 -4.87,-15.11 -4.58,-14.97 -4.36,-14.75 -4.13,-14.53 -3.98,-14.25 -3.83,-13.96 -3.78,-13.65 -3.74,-13.33 -3.79,-13.02 -3.84,-12.71 -4.00,-12.43 -4.15,-12.15 -4.38,-11.93 -4.61,-11.71 -4.90,-11.58 -5.19,-11.45 -5.51,-11.42 -5.83,-11.39 -6.14,-11.46 -6.45,-11.53 -6.72,-11.70 -6.99,-11.86 -7.20,-12.11 -7.40,-12.35 -7.52,-12.65 -7.63,-12.95 -7.65,-13.26 -7.66,-13.58 -7.57,-13.89 -7.48,-14.19 -7.30,-14.46 -7.12,-14.72 -6.87,-14.91 -6.61,-15.10 -6.31,-15.20 -6.00,-15.30 -5.69,-15.29 -5.37,-15.29 -5.07,-15.19 -4.77,-15.08 -4.51,-14.89 -4.26,-14.69 -4.09,-14.43 -3.91,-14.16 -3.91,-14.16 -3.91,-14.16 -3.37,-12.78 -2.84,-11.40 -1.58,-9.44 -0.32,-7.48 0.27,-5.58 0.87,-3.68 1.44,-2.24 2.00,-0.80 2.07,-0.54 2.13,-0.29 2.14,-0.03 2.14,0.22 2.08,0.47 2.03,0.72 1.91,0.96 1.79,1.19 1.62,1.39 1.45,1.58 1.24,1.74 1.03,1.89 0.79,1.98 0.55,2.08 0.29,2.12 0.03,2.15 -0.21,2.13 -0.47,2.10 -0.72,2.01 -0.96,1.92 -1.18,1.78 -1.40,1.64 -1.57,1.44 -1.75,1.25 -1.87,1.02 -2.00,0.80 -2.00,0.80 L -2.00,0.80 Z"></path></g><g stroke-linecap="round"><g transform="translate(927 590.25) rotate(0 -79 76)"><path d="M0.71 -0.48 C-25.55 24.95, -130.71 127.55, -157.32 152.98 M-0.38 -1.78 C-26.76 23.3, -131.88 125.5, -157.91 151.38" stroke="#000000" stroke-width="1" fill="none"></path></g><g transform="translate(927 590.25) rotate(0 -79 76)"><path d="M-145.77 125.45 C-147.39 131.47, -152.99 143.6, -158.87 149.9 M-145.71 124.04 C-148.92 133.07, -153.14 143.16, -157.36 150.41" stroke="#000000" stroke-width="1" fill="none"></path></g><g transform="translate(927 590.25) rotate(0 -79 76)"><path d="M-131.4 140.1 C-137.67 141.51, -147.89 148.94, -158.87 149.9 M-131.33 138.69 C-139.71 142.42, -149.02 147.32, -157.36 150.41" stroke="#000000" stroke-width="1" fill="none"></path></g></g><g stroke-linecap="round"><g transform="translate(829 743.25) rotate(0 -8 -20)"><path d="M-1 0.07 C-1.13 -3.6, 0.97 -15.25, -1.45 -21.9 C-3.87 -28.54, -13.31 -36.88, -15.55 -39.8 M0.67 -0.94 C0.41 -4.93, 0.16 -17.2, -2.64 -23.44 C-5.43 -29.68, -13.56 -35.34, -16.08 -38.37" stroke="#d9480f" stroke-width="1" fill="none"></path></g></g><g transform="translate(844 702.25) rotate(0 17 12.5)"><text x="0" y="18" font-family="Virgil, Segoe UI Emoji" font-size="20px" fill="#d9480f" text-anchor="start" style="white-space: pre;" direction="ltr">45°</text></g><g transform="translate(945 561.25) rotate(0 6 12.5)"><text x="0" y="18" font-family="Virgil, Segoe UI Emoji" font-size="20px" fill="#000000" text-anchor="start" style="white-space: pre;" direction="ltr">F</text></g><g stroke-linecap="round"><g transform="translate(938 547.25) rotate(0 12 0)"><path d="M-0.39 -1.08 C3.78 -1.08, 20.15 0.37, 24.4 0.53 M1.6 0.97 C5.7 0.56, 19.78 -1.34, 23.66 -1.31" stroke="#000000" stroke-width="1" fill="none"></path></g><g transform="translate(938 547.25) rotate(0 12 0)"><path d="M11.62 3.98 C15.94 3.48, 18.03 0.77, 23.89 -2.48 M12.61 3.09 C17.37 1.57, 20.98 0.23, 23.18 -1.44" stroke="#000000" stroke-width="1" fill="none"></path></g><g transform="translate(938 547.25) rotate(0 12 0)"><path d="M11.04 -4.21 C15.54 -2.67, 17.77 -3.34, 23.89 -2.48 M12.03 -5.1 C17.09 -3.41, 20.93 -1.53, 23.18 -1.44" stroke="#000000" stroke-width="1" fill="none"></path></g></g><g transform="translate(577 689.3125) rotate(0 7 12.5)"><text x="0" y="18" font-family="Virgil, Segoe UI Emoji" font-size="20px" fill="#000000" text-anchor="start" style="white-space: pre;" direction="ltr">A</text></g><g transform="translate(1060 703.3125) rotate(0 8 12.5)"><text x="0" y="18" font-family="Virgil, Segoe UI Emoji" font-size="20px" fill="#000000" text-anchor="start" style="white-space: pre;" direction="ltr">B</text></g><g transform="translate(759 690.3125) rotate(0 7 12.5)"><text x="0" y="18" font-family="Virgil, Segoe UI Emoji" font-size="20px" fill="#000000" text-anchor="start" style="white-space: pre;" direction="ltr">C</text></g><g stroke-linecap="round"><g transform="translate(589 824.3125) rotate(0 230.5 0)"><path d="M-0.76 0.88 C76.35 1.17, 384.94 0.5, 461.81 0.53 M1.04 0.29 C78.14 0.33, 384.89 -1.14, 461.29 -1.32" stroke="#1864ab" stroke-width="1" fill="none"></path></g><g transform="translate(589 824.3125) rotate(0 230.5 0)"><path d="M434.6 10.4 C440.59 5.99, 447.93 5.03, 461.26 -0.78 M432.89 9.24 C443.33 5.74, 453.12 1.68, 461.22 -1.54" stroke="#1864ab" stroke-width="1" fill="none"></path></g><g transform="translate(589 824.3125) rotate(0 230.5 0)"><path d="M434.53 -10.12 C440.33 -9.82, 447.68 -6.07, 461.26 -0.78 M432.82 -11.28 C443.18 -7.41, 452.99 -4.08, 461.22 -1.54" stroke="#1864ab" stroke-width="1" fill="none"></path></g></g><g transform="translate(907 787.3125) rotate(0 6.5 12.5)"><text x="0" y="18" font-family="Virgil, Segoe UI Emoji" font-size="20px" fill="#1864ab" text-anchor="start" style="white-space: pre;" direction="ltr">L</text></g><g stroke-linecap="round"><g transform="translate(591 782.3125) rotate(0 88.5 -2)"><path d="M0.97 -0.36 C30.51 -0.9, 147.15 -2.51, 176.43 -3.09 M0.02 -1.59 C29.42 -2.48, 145.91 -4.59, 175.19 -4.74" stroke="#1864ab" stroke-width="1" fill="none"></path></g><g transform="translate(591 782.3125) rotate(0 88.5 -2)"><path d="M146.54 4.94 C155.14 2.62, 160.36 -0.8, 175.81 -6.16 M147.61 5.62 C152.56 3.97, 157.78 2.53, 175.53 -4.17" stroke="#1864ab" stroke-width="1" fill="none"></path></g><g transform="translate(591 782.3125) rotate(0 88.5 -2)"><path d="M146.27 -15.58 C154.97 -13.14, 160.25 -11.79, 175.81 -6.16 M147.35 -14.9 C152.36 -12.43, 157.64 -9.74, 175.53 -4.17" stroke="#1864ab" stroke-width="1" fill="none"></path></g></g><g stroke-linecap="round"><g transform="translate(1045 785.3125) rotate(0 -136.5 -3)"><path d="M0.86 0.78 C-44.77 0.06, -227.54 -3.61, -273.26 -4.85 M-0.15 0.14 C-46 -0.84, -228.63 -5.39, -274.35 -6.36" stroke="#1864ab" stroke-width="1" fill="none"></path></g><g transform="translate(1045 785.3125) rotate(0 -136.5 -3)"><path d="M-244.63 -16.4 C-253.75 -13.23, -266.48 -11.18, -274.9 -8.04 M-244.93 -15.65 C-252 -13.58, -259.16 -11.87, -274.37 -6.55" stroke="#1864ab" stroke-width="1" fill="none"></path></g><g transform="translate(1045 785.3125) rotate(0 -136.5 -3)"><path d="M-245.11 4.12 C-253.98 0.27, -266.54 -4.69, -274.9 -8.04 M-245.41 4.87 C-252.25 2.21, -259.3 -0.82, -274.37 -6.55" stroke="#1864ab" stroke-width="1" fill="none"></path></g></g><g transform="translate(681 751.3125) rotate(0 7 12.5)"><text x="0" y="18" font-family="Virgil, Segoe UI Emoji" font-size="20px" fill="#1864ab" text-anchor="start" style="white-space: pre;" direction="ltr">a</text></g><g transform="translate(900 758.3125) rotate(0 5.5 12.5)"><text x="0" y="18" font-family="Virgil, Segoe UI Emoji" font-size="20px" fill="#1864ab" text-anchor="start" style="white-space: pre;" direction="ltr">b</text></g></svg>