<svg version="1.1" xmlns="http://www.w3.org/2000/svg" viewBox="0 0 10020 992.765625" width="10020" height="992.765625">
  <!-- svg-source:excalidraw -->
  
  <defs>
    <style>
      @font-face {
        font-family: "Virgil";
        src: url("https://excalidraw.com/Virgil.woff2");
      }
      @font-face {
        font-family: "Cascadia";
        src: url("https://excalidraw.com/Cascadia.woff2");
      }
    </style>
  </defs>
  <rect x="0" y="0" width="10020" height="992.765625" fill="#fff0"></rect><g stroke-linecap="round" transform="translate(10 10) rotate(0 5000 0.5)"><path d="M-0.52 -0.26 C3022.65 -30.2, 6044.59 -29.2, 9999.32 0.22 M0.38 -0.31 C3948.03 -0.44, 7895.41 0.2, 9999.95 0.08 M10000.08 -0.06 C10000.09 0.27, 10000.05 0.48, 10000.09 0.92 M9999.97 0.01 C9999.95 0.33, 9999.98 0.72, 10000 0.99 M10000.22 1.51 C7095.77 35.76, 4193.15 34.95, -0.25 0.75 M10000.01 1.13 C7827.97 2.74, 5656.23 3.35, -0.33 0.84 M-0.04 1.01 C0 0.63, -0.06 0.15, 0.05 -0.03 M-0.04 0.95 C-0.04 0.73, -0.03 0.59, -0.05 -0.02" stroke="transparent" stroke-width="1" fill="none"></path></g><g stroke-linecap="round"><g transform="translate(644 718.765625) rotate(0 258.5 109)"><path d="M0.74 1.1 C-8.63 15.2, -47.85 54.93, -57.37 84.38 C-66.89 113.83, -96.2 148.04, -56.39 177.82 C-16.58 207.61, 76.46 254.74, 181.5 263.09 C286.54 271.43, 508.45 256.3, 573.87 227.89 C639.29 199.48, 603.33 126.54, 574.02 92.61 C544.71 58.67, 450.83 28.72, 397.99 24.28 C345.15 19.85, 286.78 71.77, 256.96 66.02 C227.13 60.28, 238.49 8.39, 219.04 -10.21 C199.59 -28.81, 153.58 -39.55, 140.28 -45.58 M-0.33 0.64 C-9.79 14.9, -49.09 55.94, -58.51 85.59 C-67.93 115.24, -96.84 148.84, -56.84 178.52 C-16.84 208.21, 76.53 255.52, 181.48 263.71 C286.43 271.91, 507.19 256.42, 572.85 227.7 C638.51 198.97, 605 124.94, 575.44 91.36 C545.88 57.78, 448.66 30.41, 395.49 26.22 C342.33 22.03, 286.03 72.54, 256.44 66.22 C226.84 59.9, 237.12 6.97, 217.91 -11.7 C198.71 -30.37, 154.31 -40.16, 141.2 -45.81" stroke="#1864ab" stroke-width="1" fill="none"></path></g></g><g transform="translate(656 706.765625) rotate(0 7 -5)" stroke="none"><path fill="#1864ab" d="M -1.19,-1.90 Q -1.19,-1.90 1.17,-3.23 3.53,-4.57 5.41,-5.67 7.29,-6.77 8.27,-7.59 9.25,-8.40 10.73,-9.79 12.22,-11.17 12.50,-11.36 12.78,-11.54 13.10,-11.62 13.43,-11.71 13.76,-11.68 14.09,-11.66 14.40,-11.53 14.71,-11.40 14.96,-11.18 15.21,-10.96 15.38,-10.67 15.55,-10.38 15.62,-10.05 15.68,-9.73 15.64,-9.39 15.60,-9.06 15.45,-8.76 15.31,-8.46 15.08,-8.22 14.84,-7.98 14.54,-7.83 14.24,-7.68 13.91,-7.63 13.58,-7.58 13.25,-7.64 12.92,-7.70 12.63,-7.86 12.34,-8.02 12.11,-8.27 11.88,-8.52 11.75,-8.82 11.61,-9.13 11.58,-9.46 11.55,-9.79 11.63,-10.12 11.71,-10.45 11.88,-10.73 12.06,-11.01 12.32,-11.23 12.58,-11.44 12.89,-11.56 13.20,-11.68 13.54,-11.69 13.87,-11.70 14.20,-11.61 14.52,-11.51 14.79,-11.32 15.06,-11.13 15.26,-10.86 15.46,-10.59 15.56,-10.27 15.66,-9.95 15.66,-9.61 15.65,-9.28 15.54,-8.96 15.43,-8.65 15.22,-8.39 15.01,-8.12 15.01,-8.12 15.01,-8.12 13.30,-6.68 11.58,-5.25 10.42,-4.48 9.26,-3.71 7.46,-2.44 5.66,-1.17 3.42,0.36 1.19,1.90 0.94,2.01 0.70,2.13 0.43,2.18 0.16,2.24 -0.10,2.22 -0.37,2.21 -0.63,2.13 -0.89,2.06 -1.12,1.92 -1.35,1.78 -1.55,1.60 -1.74,1.41 -1.89,1.18 -2.03,0.95 -2.11,0.69 -2.20,0.43 -2.22,0.16 -2.24,-0.10 -2.19,-0.36 -2.15,-0.63 -2.04,-0.88 -1.93,-1.13 -1.77,-1.34 -1.61,-1.56 -1.40,-1.73 -1.19,-1.90 -1.19,-1.90 L -1.19,-1.90 Z"></path></g><g transform="translate(696 683.765625) rotate(0 9 -3.5)" stroke="none"><path fill="#1864ab" d="M -1.00,-2.01 Q -1.00,-2.01 0.74,-2.81 2.50,-3.61 4.43,-4.46 6.36,-5.31 8.08,-6.02 9.81,-6.74 11.04,-7.36 12.28,-7.98 14.75,-8.50 17.23,-9.03 17.57,-9.02 17.91,-9.01 18.23,-8.89 18.55,-8.77 18.82,-8.56 19.09,-8.34 19.27,-8.06 19.46,-7.77 19.54,-7.43 19.62,-7.10 19.60,-6.76 19.57,-6.42 19.43,-6.11 19.30,-5.79 19.07,-5.54 18.84,-5.28 18.54,-5.11 18.25,-4.94 17.91,-4.88 17.57,-4.81 17.24,-4.86 16.90,-4.91 16.59,-5.06 16.28,-5.21 16.04,-5.45 15.80,-5.69 15.65,-6.00 15.49,-6.31 15.45,-6.65 15.40,-6.98 15.46,-7.32 15.53,-7.66 15.70,-7.96 15.87,-8.25 16.12,-8.48 16.37,-8.71 16.69,-8.85 17.00,-8.98 17.34,-9.01 17.69,-9.04 18.02,-8.96 18.35,-8.87 18.64,-8.69 18.93,-8.50 19.14,-8.24 19.36,-7.97 19.47,-7.65 19.59,-7.33 19.60,-6.99 19.61,-6.64 19.51,-6.32 19.41,-5.99 19.21,-5.71 19.01,-5.43 18.73,-5.23 18.46,-5.03 18.13,-4.93 17.80,-4.83 17.80,-4.83 17.80,-4.83 15.86,-4.56 13.92,-4.30 12.59,-3.76 11.26,-3.22 9.66,-2.56 8.06,-1.90 6.23,-0.86 4.39,0.16 2.70,1.08 1.00,2.01 0.75,2.10 0.49,2.19 0.22,2.22 -0.04,2.25 -0.31,2.21 -0.58,2.17 -0.83,2.07 -1.08,1.97 -1.30,1.81 -1.52,1.65 -1.70,1.45 -1.87,1.24 -2.00,1.00 -2.12,0.75 -2.18,0.49 -2.24,0.22 -2.23,-0.04 -2.23,-0.31 -2.16,-0.57 -2.09,-0.84 -1.96,-1.07 -1.82,-1.31 -1.64,-1.51 -1.46,-1.71 -1.23,-1.86 -1.00,-2.01 -1.00,-2.01 L -1.00,-2.01 Z"></path></g><g transform="translate(738 672.765625) rotate(0 9.5 -2.5)" stroke="none"><path fill="#1864ab" d="M -0.49,-2.49 Q -0.49,-2.49 0.94,-2.77 2.38,-3.04 4.41,-3.32 6.44,-3.59 8.37,-3.89 10.30,-4.19 11.25,-5.05 12.20,-5.91 14.84,-6.75 17.47,-7.59 17.93,-7.61 18.40,-7.64 18.84,-7.52 19.29,-7.39 19.67,-7.13 20.06,-6.88 20.34,-6.51 20.62,-6.14 20.77,-5.70 20.92,-5.26 20.92,-4.80 20.92,-4.34 20.77,-3.90 20.62,-3.46 20.34,-3.09 20.06,-2.72 19.68,-2.46 19.30,-2.20 18.85,-2.08 18.41,-1.95 17.95,-1.98 17.48,-2.00 17.05,-2.17 16.62,-2.34 16.27,-2.64 15.92,-2.94 15.68,-3.33 15.44,-3.73 15.34,-4.18 15.24,-4.63 15.29,-5.09 15.34,-5.55 15.53,-5.97 15.72,-6.40 16.04,-6.73 16.36,-7.07 16.77,-7.29 17.17,-7.50 17.63,-7.58 18.09,-7.66 18.54,-7.58 19.00,-7.51 19.41,-7.29 19.82,-7.08 20.14,-6.74 20.46,-6.40 20.65,-5.98 20.85,-5.57 20.90,-5.11 20.95,-4.65 20.85,-4.19 20.75,-3.74 20.51,-3.34 20.28,-2.95 19.92,-2.65 19.57,-2.35 19.14,-2.17 18.71,-2.00 18.71,-2.00 18.71,-2.00 17.26,-1.93 15.81,-1.86 14.85,-0.90 13.88,0.05 12.65,0.56 11.42,1.07 9.07,1.41 6.73,1.75 5.05,1.82 3.36,1.89 1.93,2.19 0.49,2.49 0.19,2.52 -0.11,2.54 -0.41,2.49 -0.71,2.44 -1.00,2.32 -1.28,2.20 -1.52,2.01 -1.77,1.82 -1.96,1.59 -2.15,1.35 -2.28,1.07 -2.41,0.79 -2.47,0.49 -2.53,0.19 -2.52,-0.11 -2.51,-0.41 -2.42,-0.71 -2.33,-1.00 -2.18,-1.27 -2.02,-1.53 -1.81,-1.75 -1.60,-1.97 -1.34,-2.14 -1.08,-2.30 -0.79,-2.40 -0.49,-2.49 -0.49,-2.49 L -0.49,-2.49 Z"></path></g><g stroke-linecap="round" transform="translate(614 620.765625) rotate(0 67 55)"><path d="M63.96 -0.54 C73.52 -1.81, 85.46 1.84, 94.75 5.56 C104.04 9.28, 113.17 15.25, 119.69 21.78 C126.21 28.31, 132.08 36.29, 133.88 44.76 C135.68 53.22, 133.73 64.19, 130.49 72.58 C127.25 80.96, 121.98 89.13, 114.46 95.06 C106.93 100.99, 95.51 105.98, 85.33 108.14 C75.15 110.31, 63.42 109.91, 53.4 108.04 C43.39 106.17, 33.31 102.27, 25.25 96.95 C17.2 91.63, 9.26 83.9, 5.06 76.12 C0.87 68.34, -0.83 58.71, 0.11 50.27 C1.05 41.84, 5.23 32.73, 10.7 25.51 C16.18 18.28, 22.73 11.11, 32.95 6.92 C43.16 2.74, 64.29 1.35, 71.99 0.39 C79.7 -0.58, 79.45 0.1, 79.19 1.13 M49.26 3 C58.62 -0.07, 71.34 -0.24, 81.33 1.1 C91.32 2.44, 101.45 5.45, 109.22 11.04 C116.99 16.62, 123.63 26.73, 127.95 34.59 C132.26 42.45, 135.71 49.71, 135.11 58.21 C134.51 66.72, 130.35 78.38, 124.35 85.64 C118.36 92.9, 108.07 97.46, 99.14 101.76 C90.21 106.06, 81.03 110.74, 70.77 111.43 C60.52 112.12, 47.41 109.68, 37.61 105.91 C27.81 102.13, 17.92 95.57, 12 88.78 C6.08 81.98, 3.59 73.89, 2.12 65.14 C0.64 56.39, 0.31 44.66, 3.15 36.27 C5.98 27.89, 11.39 20.71, 19.14 14.82 C26.89 8.94, 44.76 2.95, 49.64 0.96 C54.52 -1.04, 48.42 1.86, 48.4 2.83" stroke="#d9480f" stroke-width="1" fill="none"></path></g><g stroke-linecap="round" transform="translate(831 863.765625) rotate(0 29 24.5)"><path d="M17.59 1.55 C22.92 -0.84, 31.22 0.31, 36.91 1.7 C42.61 3.08, 48.17 5.55, 51.78 9.86 C55.38 14.18, 59.01 22.13, 58.55 27.58 C58.09 33.04, 53.7 38.96, 49.04 42.59 C44.38 46.22, 36.55 48.88, 30.58 49.35 C24.61 49.83, 18.18 48.65, 13.22 45.42 C8.26 42.19, 2.72 35.23, 0.82 29.96 C-1.09 24.69, -1.62 18.75, 1.78 13.8 C5.18 8.86, 17.52 2.51, 21.22 0.3 C24.93 -1.91, 24.08 0.11, 24.01 0.56 M30.73 1.07 C36.74 1.16, 45.6 4.66, 50.33 8.04 C55.05 11.42, 58.46 16.54, 59.09 21.37 C59.73 26.21, 57.93 32.63, 54.12 37.05 C50.31 41.47, 42.52 46.47, 36.24 47.91 C29.96 49.35, 22.18 48.07, 16.42 45.69 C10.66 43.31, 4.2 38.13, 1.68 33.63 C-0.83 29.12, -0.62 23.55, 1.31 18.67 C3.24 13.79, 8.26 7.35, 13.24 4.35 C18.22 1.34, 28.3 1.22, 31.21 0.64 C34.11 0.06, 30.53 0.75, 30.68 0.88" stroke="#d9480f" stroke-width="1" fill="none"></path></g><g stroke-linecap="round" transform="translate(1016 642.765625) rotate(0 43.5 41.5)"><path d="M29.13 2.73 C36.16 -0.07, 46.42 -0.68, 53.98 1.02 C61.55 2.73, 69.25 7.56, 74.52 12.97 C79.79 18.38, 83.94 26.35, 85.62 33.49 C87.3 40.64, 87.31 48.98, 84.59 55.83 C81.87 62.69, 75.91 70.06, 69.31 74.62 C62.72 79.19, 52.94 82.56, 45.03 83.23 C37.12 83.89, 28.46 82.29, 21.85 78.61 C15.25 74.94, 9.14 68.08, 5.41 61.16 C1.67 54.24, -1.17 44.65, -0.55 37.08 C0.07 29.52, 3.5 21.73, 9.14 15.79 C14.77 9.85, 28.64 3.83, 33.23 1.44 C37.82 -0.94, 36.59 0.94, 36.68 1.5 M26.09 3.88 C32.7 0.13, 41.06 -2.22, 48.98 -0.92 C56.9 0.38, 67.33 6.58, 73.64 11.7 C79.94 16.82, 85.01 23.05, 86.82 29.81 C88.64 36.57, 87.04 44.87, 84.53 52.27 C82.03 59.67, 77.7 69.26, 71.82 74.21 C65.94 79.15, 57.04 80.9, 49.24 81.91 C41.45 82.93, 32.35 83.56, 25.03 80.29 C17.72 77.03, 9.63 69, 5.33 62.31 C1.02 55.62, -0.96 47.51, -0.78 40.15 C-0.6 32.78, 1.77 24.16, 6.41 18.12 C11.05 12.09, 23.95 6, 27.06 3.93 C30.16 1.86, 24.99 5.24, 25.03 5.72" stroke="#d9480f" stroke-width="1" fill="none"></path></g><g stroke-linecap="round" transform="translate(1148 903.765625) rotate(0 40 39.5)"><path d="M41.98 0.96 C48.95 1.2, 58.99 4.81, 64.86 8.88 C70.73 12.95, 74.99 18.85, 77.2 25.38 C79.42 31.92, 79.54 41.07, 78.16 48.09 C76.78 55.11, 73.97 62.49, 68.93 67.5 C63.9 72.51, 54.98 76.79, 47.95 78.14 C40.93 79.49, 33.59 78.2, 26.79 75.61 C19.98 73.02, 11.67 68.24, 7.12 62.6 C2.57 56.95, -0.07 48.63, -0.49 41.75 C-0.92 34.86, 0.95 27.59, 4.56 21.3 C8.16 15.01, 13.97 7.5, 21.13 4 C28.3 0.51, 42.77 0.68, 47.52 0.33 C52.27 -0.02, 49.97 1.24, 49.64 1.89 M47.59 0.59 C54.2 1.21, 62.24 6.27, 67.39 11.23 C72.53 16.19, 76.9 23.61, 78.44 30.36 C79.98 37.11, 79.11 44.85, 76.64 51.71 C74.17 58.58, 69.38 67.26, 63.64 71.54 C57.9 75.82, 49.09 76.75, 42.21 77.4 C35.34 78.04, 28.45 78.37, 22.4 75.39 C16.35 72.42, 9.58 65.98, 5.91 59.55 C2.23 53.13, 0.14 44.25, 0.35 36.83 C0.57 29.41, 2.97 20.82, 7.18 15.04 C11.39 9.27, 18.66 4.72, 25.63 2.17 C32.6 -0.37, 45.29 -0.26, 49.01 -0.22 C52.74 -0.18, 48.51 1.81, 47.99 2.42" stroke="#d9480f" stroke-width="1" fill="none"></path></g><g transform="translate(536 531.765625) rotate(0 184.5 12.5)"><text x="0" y="18" font-family="Virgil, Segoe UI Emoji" font-size="20px" fill="#000000" text-anchor="start" style="white-space: pre;" direction="ltr">Linea continua se appartengono ad E</text></g><g transform="translate(534 565.765625) rotate(0 103.5 12.5)"><text x="0" y="18" font-family="Virgil, Segoe UI Emoji" font-size="20px" fill="00000" text-anchor="start" style="white-space: pre;" direction="ltr">Tratteggiata se non</text></g><g transform="translate(619 663.265625) rotate(0 62 12.5)"><text x="62" y="18" font-family="Virgil, Segoe UI Emoji" font-size="20px" fill="#d9480f" text-anchor="middle" style="white-space: pre;" direction="ltr">x3</text></g><g transform="translate(836 875.765625) rotate(0 24 12.5)"><text x="24" y="18" font-family="Virgil, Segoe UI Emoji" font-size="20px" fill="#d9480f" text-anchor="middle" style="white-space: pre;" direction="ltr">x0</text></g><g transform="translate(1021 671.765625) rotate(0 38.5 12.5)"><text x="38.5" y="18" font-family="Virgil, Segoe UI Emoji" font-size="20px" fill="#d9480f" text-anchor="middle" style="white-space: pre;" direction="ltr">x1</text></g><g transform="translate(1153 930.765625) rotate(0 35 12.5)"><text x="35" y="18" font-family="Virgil, Segoe UI Emoji" font-size="20px" fill="#d9480f" text-anchor="middle" style="white-space: pre;" direction="ltr">x2</text></g><g transform="translate(1149 805.765625) rotate(0 7 12.5)"><text x="0" y="18" font-family="Virgil, Segoe UI Emoji" font-size="20px" fill="#d9480f" text-anchor="start" style="white-space: pre;" direction="ltr">E</text></g><g transform="translate(1186 568.765625) rotate(0 14.5 12.5)"><text x="0" y="18" font-family="Virgil, Segoe UI Emoji" font-size="20px" fill="#d9480f" text-anchor="start" style="white-space: pre;" direction="ltr">R2</text></g></svg>