<svg version="1.1" xmlns="http://www.w3.org/2000/svg" viewBox="0 0 10020 749.375" width="10020" height="749.375">
  <!-- svg-source:excalidraw -->
  
  <defs>
    <style>
      @font-face {
        font-family: "Virgil";
        src: url("https://excalidraw.com/Virgil.woff2");
      }
      @font-face {
        font-family: "Cascadia";
        src: url("https://excalidraw.com/Cascadia.woff2");
      }
    </style>
  </defs>
  <rect x="0" y="0" width="10020" height="749.375" fill="#fff0"></rect><g stroke-linecap="round" transform="translate(10 10) rotate(0 5000 0.5)"><path d="M-0.52 -0.26 C3022.65 -30.2, 6044.59 -29.2, 9999.32 0.22 M0.38 -0.31 C3948.03 -0.44, 7895.41 0.2, 9999.95 0.08 M10000.08 -0.06 C10000.09 0.27, 10000.05 0.48, 10000.09 0.92 M9999.97 0.01 C9999.95 0.33, 9999.98 0.72, 10000 0.99 M10000.22 1.51 C7095.77 35.76, 4193.15 34.95, -0.25 0.75 M10000.01 1.13 C7827.97 2.74, 5656.23 3.35, -0.33 0.84 M-0.04 1.01 C0 0.63, -0.06 0.15, 0.05 -0.03 M-0.04 0.95 C-0.04 0.73, -0.03 0.59, -0.05 -0.02" stroke="transparent" stroke-width="1" fill="none"></path></g><g transform="translate(791 635.375) rotate(0 66.5 12)" stroke="none"><path fill="#000" d="M -0.30,-1.53 Q -0.30,-1.53 15.51,-4.66 31.33,-7.79 60.35,-7.11 89.37,-6.43 109.44,-4.69 129.51,-2.94 143.56,-0.17 157.61,2.58 167.74,6.99 177.87,11.39 186.94,22.63 196.00,33.86 199.58,44.82 203.15,55.78 201.97,65.34 200.79,74.91 188.89,83.72 176.98,92.54 162.26,94.82 147.54,97.09 134.27,94.84 121.00,92.59 108.04,83.77 95.07,74.96 87.54,67.15 80.02,59.33 75.66,53.68 71.30,48.02 69.66,42.16 68.03,36.30 70.90,30.10 73.78,23.90 85.55,17.17 97.32,10.44 119.10,6.74 140.88,3.05 156.71,1.51 172.54,-0.03 182.73,-0.40 192.93,-0.77 201.04,-0.35 209.16,0.06 215.50,0.82 221.85,1.58 227.55,3.66 233.24,5.74 237.97,8.07 242.69,10.41 245.60,12.29 248.51,14.17 250.09,15.24 251.68,16.31 251.97,17.50 252.26,18.69 255.45,18.02 258.65,17.35 263.38,15.17 268.12,13.00 273.60,9.79 279.08,6.58 287.43,0.64 295.78,-5.29 304.50,-12.12 313.22,-18.94 321.54,-25.58 329.85,-32.22 334.81,-36.47 339.77,-40.71 342.65,-44.13 345.53,-47.54 346.20,-51.07 346.86,-54.61 341.52,-59.18 336.19,-63.76 329.13,-67.18 322.08,-70.60 309.69,-72.90 297.31,-75.21 285.19,-75.34 273.07,-75.47 263.66,-74.10 254.25,-72.73 246.56,-70.44 238.87,-68.15 231.08,-64.34 223.29,-60.54 217.27,-53.63 211.24,-46.72 209.59,-37.08 207.93,-27.44 208.62,-19.94 209.30,-12.44 210.44,-7.25 211.58,-2.07 212.36,2.83 213.13,7.74 210.80,13.89 208.46,20.03 199.52,25.92 190.57,31.80 178.32,34.56 166.07,37.32 146.68,35.88 127.29,34.45 109.55,30.66 91.81,26.87 75.93,22.37 60.05,17.88 48.68,13.95 37.32,10.03 31.39,8.37 25.46,6.72 21.81,5.74 18.16,4.75 17.20,0.43 16.24,-3.87 25.17,-11.51 34.10,-19.15 39.44,-22.62 44.78,-26.10 51.74,-25.56 58.69,-25.03 63.53,-19.98 68.37,-14.92 69.84,-5.64 71.31,3.64 67.24,14.93 63.17,26.22 55.88,34.82 48.59,43.42 40.51,49.13 32.43,54.83 15.00,57.60 -2.41,60.36 -17.61,59.48 -32.81,58.61 -44.18,56.50 -55.55,54.39 -63.53,52.63 -71.51,50.87 -75.45,50.13 -79.39,49.39 -82.08,48.70 -84.76,48.01 -86.16,46.11 -87.55,44.22 -88.16,42.52 -88.76,40.82 -89.95,39.55 -91.13,38.28 -94.39,36.31 -97.64,34.34 -102.07,33.23 -106.50,32.11 -114.14,31.04 -121.78,29.96 -128.75,29.50 -135.71,29.04 -140.69,28.84 -145.66,28.64 -148.93,28.55 -152.19,28.46 -154.52,27.90 -156.85,27.35 -157.01,25.47 -157.16,23.59 -150.11,18.02 -143.07,12.44 -135.69,9.02 -128.31,5.60 -122.81,3.87 -117.32,2.14 -113.31,2.56 -109.29,2.98 -105.69,5.03 -102.10,7.07 -99.31,12.50 -96.53,17.93 -97.41,27.62 -98.29,37.32 -102.51,45.57 -106.72,53.81 -115.27,60.87 -123.81,67.92 -137.65,72.09 -151.49,76.26 -161.43,77.15 -171.38,78.04 -177.70,77.53 -184.03,77.02 -190.09,73.27 -196.14,69.52 -199.26,66.75 -202.38,63.98 -203.79,62.44 -205.20,60.90 -205.59,57.95 -205.98,55.01 -205.79,52.60 -205.60,50.20 -204.30,47.56 -202.99,44.91 -199.56,41.80 -196.14,38.69 -197.64,34.42 -199.15,30.16 -202.01,24.58 -204.88,19.00 -209.00,9.94 -213.12,0.89 -214.87,-2.94 -216.61,-6.78 -216.67,-6.98 -216.73,-7.19 -216.71,-7.40 -216.70,-7.62 -216.62,-7.81 -216.54,-8.01 -216.40,-8.17 -216.26,-8.33 -216.08,-8.44 -215.89,-8.55 -215.68,-8.60 -215.48,-8.64 -215.26,-8.62 -215.05,-8.59 -214.86,-8.50 -214.66,-8.41 -214.51,-8.26 -214.36,-8.12 -214.26,-7.93 -214.16,-7.74 -214.13,-7.53 -214.09,-7.32 -214.13,-7.11 -214.16,-6.89 -214.26,-6.71 -214.37,-6.52 -214.52,-6.37 -214.68,-6.23 -214.87,-6.14 -215.07,-6.05 -215.28,-6.03 -215.49,-6.01 -215.70,-6.05 -215.91,-6.10 -216.09,-6.21 -216.27,-6.32 -216.41,-6.49 -216.55,-6.65 -216.63,-6.85 -216.70,-7.05 -216.71,-7.26 -216.72,-7.47 -216.67,-7.68 -216.61,-7.89 -216.49,-8.06 -216.36,-8.24 -216.19,-8.37 -216.02,-8.49 -215.82,-8.56 -215.62,-8.63 -215.40,-8.63 -215.19,-8.63 -214.99,-8.56 -214.79,-8.49 -214.62,-8.36 -214.45,-8.23 -214.33,-8.05 -214.21,-7.87 -214.21,-7.87 -214.21,-7.87 -212.46,-4.03 -210.71,-0.20 -206.61,8.79 -202.51,17.79 -199.56,23.57 -196.61,29.36 -195.25,34.24 -193.89,39.12 -197.26,42.65 -200.62,46.17 -201.77,48.33 -202.91,50.49 -203.07,52.61 -203.24,54.74 -203.11,57.04 -202.98,59.34 -201.80,60.67 -200.63,62.01 -197.68,64.65 -194.73,67.29 -189.20,70.86 -183.68,74.43 -177.64,74.92 -171.60,75.40 -161.92,74.56 -152.24,73.72 -138.84,69.77 -125.43,65.81 -117.24,59.16 -109.05,52.51 -105.01,44.75 -100.96,36.98 -99.99,27.95 -99.02,18.92 -101.34,14.10 -103.67,9.29 -106.68,7.53 -109.70,5.77 -113.12,5.35 -116.54,4.93 -121.78,6.64 -127.03,8.35 -134.09,11.66 -141.15,14.98 -147.67,20.86 -154.18,26.75 -153.15,26.26 -152.12,25.77 -148.84,25.85 -145.56,25.93 -140.55,26.12 -135.53,26.30 -128.46,26.75 -121.40,27.21 -113.60,28.28 -105.81,29.36 -100.98,30.59 -96.16,31.83 -92.52,34.04 -88.88,36.25 -87.38,38.05 -85.87,39.85 -85.55,41.32 -85.24,42.78 -84.47,44.28 -83.70,45.77 -81.30,46.29 -78.90,46.81 -74.92,47.56 -70.95,48.31 -63.01,50.06 -55.07,51.81 -43.86,53.90 -32.65,55.99 -17.73,56.87 -2.80,57.76 14.11,55.20 31.03,52.64 38.82,47.17 46.61,41.70 53.67,33.48 60.74,25.27 64.73,14.57 68.73,3.87 67.53,-4.75 66.33,-13.38 62.18,-18.00 58.03,-22.63 51.95,-23.22 45.86,-23.81 40.82,-20.47 35.78,-17.13 27.05,-10.08 18.32,-3.03 19.10,0.15 19.87,3.33 23.02,3.76 26.17,4.19 32.17,5.87 38.17,7.54 49.47,11.45 60.77,15.36 76.56,19.83 92.36,24.30 109.92,28.06 127.49,31.83 146.51,33.29 165.53,34.75 177.37,32.16 189.20,29.57 197.70,24.20 206.21,18.84 208.38,13.41 210.56,7.97 209.79,3.23 209.01,-1.51 207.85,-6.86 206.68,-12.21 206.01,-20.04 205.34,-27.88 207.26,-38.07 209.18,-48.27 215.63,-55.56 222.07,-62.85 230.10,-66.76 238.12,-70.67 245.99,-73.00 253.87,-75.33 263.48,-76.72 273.09,-78.11 285.44,-77.96 297.79,-77.81 310.50,-75.39 323.22,-72.98 330.58,-69.36 337.94,-65.74 343.51,-60.52 349.09,-55.29 348.38,-50.64 347.66,-45.99 344.59,-42.33 341.53,-38.67 336.54,-34.39 331.55,-30.10 323.24,-23.44 314.92,-16.77 306.17,-9.89 297.41,-3.00 288.97,3.02 280.54,9.05 274.95,12.37 269.36,15.69 264.28,18.04 259.20,20.39 255.52,20.90 251.85,21.41 250.87,19.96 249.89,18.51 248.49,17.44 247.08,16.37 244.30,14.57 241.52,12.76 236.93,10.48 232.33,8.20 226.93,6.19 221.52,4.18 215.27,3.44 209.02,2.69 201.02,2.27 193.03,1.85 182.91,2.21 172.79,2.58 157.05,4.11 141.31,5.64 119.94,9.19 98.56,12.75 87.25,19.00 75.95,25.25 73.24,30.65 70.52,36.06 71.97,41.27 73.42,46.48 77.67,51.99 81.92,57.51 89.24,65.15 96.56,72.79 109.06,81.41 121.55,90.02 134.37,92.25 147.19,94.48 161.37,92.41 175.56,90.34 187.02,82.17 198.49,74.00 199.54,65.25 200.59,56.49 197.23,45.99 193.87,35.49 185.26,24.65 176.66,13.80 166.86,9.55 157.06,5.29 143.17,2.57 129.27,-0.14 109.29,-1.84 89.30,-3.54 60.60,-4.20 31.91,-4.85 16.10,-1.66 0.30,1.53 0.11,1.54 -0.06,1.56 -0.25,1.52 -0.44,1.49 -0.61,1.42 -0.78,1.34 -0.93,1.23 -1.08,1.12 -1.20,0.97 -1.32,0.82 -1.40,0.65 -1.48,0.48 -1.52,0.30 -1.55,0.11 -1.54,-0.06 -1.54,-0.25 -1.48,-0.43 -1.43,-0.61 -1.33,-0.78 -1.24,-0.94 -1.11,-1.07 -0.98,-1.21 -0.82,-1.31 -0.66,-1.41 -0.48,-1.47 -0.30,-1.53 -0.30,-1.53 L -0.30,-1.53 Z"></path></g></svg>