<svg version="1.1" xmlns="http://www.w3.org/2000/svg" viewBox="0 0 10020 772.109375" width="10020" height="772.109375">
  <!-- svg-source:excalidraw -->
  
  <defs>
    <style>
      @font-face {
        font-family: "Virgil";
        src: url("https://excalidraw.com/Virgil.woff2");
      }
      @font-face {
        font-family: "Cascadia";
        src: url("https://excalidraw.com/Cascadia.woff2");
      }
    </style>
  </defs>
  <rect x="0" y="0" width="10020" height="772.109375" fill="#fff0"></rect><g stroke-linecap="round" transform="translate(10 10) rotate(0 5000 0.5)"><path d="M-0.52 -0.26 C3022.65 -30.2, 6044.59 -29.2, 9999.32 0.22 M0.38 -0.31 C3948.03 -0.44, 7895.41 0.2, 9999.95 0.08 M10000.08 -0.06 C10000.09 0.27, 10000.05 0.48, 10000.09 0.92 M9999.97 0.01 C9999.95 0.33, 9999.98 0.72, 10000 0.99 M10000.22 1.51 C7095.77 35.76, 4193.15 34.95, -0.25 0.75 M10000.01 1.13 C7827.97 2.74, 5656.23 3.35, -0.33 0.84 M-0.04 1.01 C0 0.63, -0.06 0.15, 0.05 -0.03 M-0.04 0.95 C-0.04 0.73, -0.03 0.59, -0.05 -0.02" stroke="transparent" stroke-width="1" fill="none"></path></g><g stroke-linecap="round"><g transform="translate(842 721.609375) rotate(0 0 -100)"><path d="M0.56 0.34 C0.74 -32.84, 1.35 -165.85, 1.15 -199.39 M-0.6 -0.53 C-0.48 -34.03, 0.99 -167.94, 0.8 -201.2" stroke="#000" stroke-width="1" fill="none"></path></g><g transform="translate(842 721.609375) rotate(0 0 -100)"><path d="M11.52 -171.06 C8.93 -182.63, 3.25 -188.35, -0.17 -200.61 M11.95 -173.93 C7.32 -184.02, 3.8 -193.56, 1.34 -200.69" stroke="#000" stroke-width="1" fill="none"></path></g><g transform="translate(842 721.609375) rotate(0 0 -100)"><path d="M-9 -171.13 C-5.3 -182.78, -4.69 -188.48, -0.17 -200.61 M-8.57 -174.01 C-5.73 -184.07, -1.78 -193.58, 1.34 -200.69" stroke="#000" stroke-width="1" fill="none"></path></g></g><g stroke-linecap="round"><g transform="translate(798 698.609375) rotate(0 142.5 0)"><path d="M-0.12 -0.28 C47.05 -0.24, 236.44 0.89, 283.9 0.92 M-1.65 -1.48 C45.81 -1.82, 238.48 -1.15, 286.04 -0.71" stroke="#000" stroke-width="1" fill="none"></path></g><g transform="translate(798 698.609375) rotate(0 142.5 0)"><path d="M257.32 7.56 C269.79 5.1, 278.62 1.77, 286.34 0.25 M258.1 9.16 C265.99 6.68, 274.31 2.24, 286.47 -0.26" stroke="#000" stroke-width="1" fill="none"></path></g><g transform="translate(798 698.609375) rotate(0 142.5 0)"><path d="M257.44 -12.96 C269.98 -7.78, 278.77 -3.47, 286.34 0.25 M258.22 -11.36 C266.21 -7.6, 274.49 -5.8, 286.47 -0.26" stroke="#000" stroke-width="1" fill="none"></path></g></g><g stroke-linecap="round"><g transform="translate(850 722.609375) rotate(0 80.5 -100.5)"><path d="M0.93 0.92 C1.62 -10.34, -4.12 -49.54, 3.53 -67.03 C11.17 -84.52, 35.62 -92.27, 46.81 -104.02 C57.99 -115.77, 65.41 -123.03, 70.62 -137.53 C75.83 -152.03, 63.1 -180.54, 78.07 -191.02 C93.03 -201.5, 146.72 -198.82, 160.38 -200.41 M-0.04 0.36 C0.51 -10.75, -5.34 -48.24, 2.33 -65.5 C9.99 -82.77, 34.46 -91.46, 45.94 -103.24 C57.42 -115.02, 65.99 -121.1, 71.19 -136.18 C76.39 -151.27, 62.11 -182.95, 77.15 -193.77 C92.2 -204.6, 147.64 -199.82, 161.47 -201.15" stroke="#d9480f" stroke-width="1" fill="none"></path></g></g><g stroke-linecap="round"><g transform="translate(829.5 762.109375) rotate(0 80.5 -100.5)"><path d="M-0.97 1.2 C-0.44 -10.03, -4.08 -50.75, 4 -67.98 C12.08 -85.22, 36.32 -90.37, 47.51 -102.22 C58.69 -114.08, 66.16 -123.98, 71.12 -139.11 C76.07 -154.25, 62.23 -182.81, 77.25 -193.03 C92.28 -203.26, 147.46 -199.03, 161.28 -200.45 M0.72 0.78 C1.02 -10.27, -4.66 -49.47, 3.05 -66.96 C10.77 -84.45, 36.14 -92.22, 47.01 -104.16 C57.88 -116.1, 63.47 -123.75, 68.29 -138.59 C73.11 -153.43, 60.77 -182.75, 75.92 -193.18 C91.07 -203.62, 145.11 -200.14, 159.19 -201.2" stroke="#d9480f" stroke-width="1" fill="none"></path></g></g></svg>