<svg version="1.1" xmlns="http://www.w3.org/2000/svg" viewBox="0 0 10020 777.765625" width="10020" height="777.765625">
  <!-- svg-source:excalidraw -->
  
  <defs>
    <style>
      @font-face {
        font-family: "Virgil";
        src: url("https://excalidraw.com/Virgil.woff2");
      }
      @font-face {
        font-family: "Cascadia";
        src: url("https://excalidraw.com/Cascadia.woff2");
      }
    </style>
  </defs>
  <rect x="0" y="0" width="10020" height="777.765625" fill="#fff0"></rect><g stroke-linecap="round" transform="translate(10 10) rotate(0 5000 0.5)"><path d="M-0.52 -0.26 C3022.65 -30.2, 6044.59 -29.2, 9999.32 0.22 M0.38 -0.31 C3948.03 -0.44, 7895.41 0.2, 9999.95 0.08 M10000.08 -0.06 C10000.09 0.27, 10000.05 0.48, 10000.09 0.92 M9999.97 0.01 C9999.95 0.33, 9999.98 0.72, 10000 0.99 M10000.22 1.51 C7095.77 35.76, 4193.15 34.95, -0.25 0.75 M10000.01 1.13 C7827.97 2.74, 5656.23 3.35, -0.33 0.84 M-0.04 1.01 C0 0.63, -0.06 0.15, 0.05 -0.03 M-0.04 0.95 C-0.04 0.73, -0.03 0.59, -0.05 -0.02" stroke="transparent" stroke-width="1" fill="none"></path></g><g stroke-linecap="round"><g transform="translate(778 725.765625) rotate(0 121.5 -59)"><path d="M-0.34 -0.53 C40.25 -20.24, 202.8 -98.58, 243.3 -118 M1.68 1.81 C42.16 -17.72, 202.5 -96.35, 242.51 -116.46" stroke="#d9480f" stroke-width="1" fill="none"></path></g><g transform="translate(778 725.765625) rotate(0 121.5 -59)"><path d="M220.93 -94.25 C227.52 -101.29, 234.87 -108.7, 241.25 -117.05 M222.5 -94.68 C228.29 -101.83, 234.98 -108.9, 242.7 -116.39" stroke="#d9480f" stroke-width="1" fill="none"></path></g><g transform="translate(778 725.765625) rotate(0 121.5 -59)"><path d="M211.81 -112.64 C220.98 -114.53, 230.86 -116.83, 241.25 -117.05 M213.39 -113.07 C222.12 -114.24, 231.78 -115.34, 242.7 -116.39" stroke="#d9480f" stroke-width="1" fill="none"></path></g></g><g transform="translate(755 742.765625) rotate(0 7 12.5)"><text x="0" y="18" font-family="Virgil, Segoe UI Emoji" font-size="20px" fill="#000000" text-anchor="start" style="white-space: pre;" direction="ltr">P</text></g><g transform="translate(1039 574.765625) rotate(0 7.5 12.5)"><text x="0" y="18" font-family="Virgil, Segoe UI Emoji" font-size="20px" fill="#000000" text-anchor="start" style="white-space: pre;" direction="ltr">Q</text></g><g transform="translate(995 669.765625) rotate(0 14 12.5)"><text x="0" y="18" font-family="Virgil, Segoe UI Emoji" font-size="20px" fill="#000000" text-anchor="start" style="white-space: pre;" direction="ltr">PQ</text></g><g stroke-linecap="round"><g transform="translate(995 659.765625) rotate(0 13 -0.5)"><path d="M0.98 -0.15 C5.43 -0.44, 22.83 -0.81, 26.99 -1.14 M0.04 -1.28 C4.39 -1.42, 22.38 0.34, 26.56 0.33" stroke="#000000" stroke-width="1" fill="none"></path></g><g transform="translate(995 659.765625) rotate(0 13 -0.5)"><path d="M13.95 5.18 C17.99 2.71, 21 1.04, 26.61 -0.92 M13.85 4.2 C18.63 2.69, 22.13 1.87, 26.96 0.31" stroke="#000000" stroke-width="1" fill="none"></path></g><g transform="translate(995 659.765625) rotate(0 13 -0.5)"><path d="M14.43 -3.71 C18.36 -3.29, 21.21 -2.07, 26.61 -0.92 M14.33 -4.68 C18.9 -3.35, 22.25 -1.33, 26.96 0.31" stroke="#000000" stroke-width="1" fill="none"></path></g></g></svg>