<svg version="1.1" xmlns="http://www.w3.org/2000/svg" viewBox="0 0 10020 663.890625" width="10020" height="663.890625">
  <!-- svg-source:excalidraw -->
  
  <defs>
    <style>
      @font-face {
        font-family: "Virgil";
        src: url("https://excalidraw.com/Virgil.woff2");
      }
      @font-face {
        font-family: "Cascadia";
        src: url("https://excalidraw.com/Cascadia.woff2");
      }
    </style>
  </defs>
  <rect x="0" y="0" width="10020" height="663.890625" fill="#fff0"></rect><g stroke-linecap="round" transform="translate(10 10) rotate(0 5000 0.5)"><path d="M-0.52 -0.26 C3022.65 -30.2, 6044.59 -29.2, 9999.32 0.22 M0.38 -0.31 C3948.03 -0.44, 7895.41 0.2, 9999.95 0.08 M10000.08 -0.06 C10000.09 0.27, 10000.05 0.48, 10000.09 0.92 M9999.97 0.01 C9999.95 0.33, 9999.98 0.72, 10000 0.99 M10000.22 1.51 C7095.77 35.76, 4193.15 34.95, -0.25 0.75 M10000.01 1.13 C7827.97 2.74, 5656.23 3.35, -0.33 0.84 M-0.04 1.01 C0 0.63, -0.06 0.15, 0.05 -0.03 M-0.04 0.95 C-0.04 0.73, -0.03 0.59, -0.05 -0.02" stroke="transparent" stroke-width="1" fill="none"></path></g><g stroke-linecap="round"><g transform="translate(615 637.890625) rotate(0 278 -0.5)"><path d="M-0.51 0.83 C92.21 0.85, 463.52 -0.48, 556.39 -0.86 M1.43 0.23 C94.01 0.54, 463.17 0.85, 555.65 0.76" stroke="#000000" stroke-width="1" fill="none"></path></g></g><g stroke-linecap="round" transform="translate(698 634.890625) rotate(0 1 1.5)"><path d="M0.64 0.73 C1.07 0.99, 2.22 1.33, 2.31 1.5 C2.39 1.66, 1.22 1.63, 1.16 1.7 C1.11 1.78, 1.95 1.81, 1.97 1.93 C1.98 2.06, 1.45 2.46, 1.27 2.45 C1.08 2.45, 1.21 1.99, 0.85 1.91 C0.5 1.83, -0.8 1.99, -0.86 1.95 C-0.92 1.91, 0.24 2.01, 0.49 1.68 C0.74 1.35, 0.67 0.29, 0.64 -0.02 C0.61 -0.33, 0.1 -0.19, 0.31 -0.19 C0.52 -0.18, 1.71 -0.17, 1.89 -0.01 M1.45 1.51 C1.7 1.32, 1.89 0.46, 1.99 0.44 C2.08 0.43, 2.14 0.97, 2 1.42 C1.86 1.87, 1.55 3, 1.13 3.14 C0.72 3.28, -0.54 2.48, -0.51 2.25 C-0.48 2.02, 1.13 1.92, 1.31 1.79 C1.49 1.66, 0.86 1.79, 0.57 1.48 C0.29 1.17, -0.43 0.24, -0.4 -0.08 C-0.36 -0.4, 0.5 -0.42, 0.78 -0.43 C1.06 -0.44, 0.99 -0.48, 1.28 -0.16 C1.58 0.16, 2.6 1.16, 2.54 1.48" stroke="#1864ab" stroke-width="1" fill="none"></path></g><g transform="translate(783 637.890625) rotate(0 4.5 -3.5)" stroke="none"><path fill="#1864ab" d="M -2.22,1.11 Q -2.22,1.11 -2.81,-0.03 -3.40,-1.17 -3.88,-3.21 -4.36,-5.25 -3.35,-7.09 -2.34,-8.93 -1.45,-9.71 -0.55,-10.50 2.10,-11.07 4.77,-11.63 6.28,-11.64 7.79,-11.65 9.69,-11.24 11.59,-10.83 12.87,-9.76 14.15,-8.69 14.71,-6.97 15.26,-5.26 15.10,-3.44 14.93,-1.63 14.35,-0.25 13.77,1.12 12.55,2.05 11.34,2.98 10.02,3.48 8.70,3.98 6.72,4.17 4.73,4.37 2.65,4.55 0.56,4.72 -1.87,3.96 -4.32,3.19 -5.09,2.31 -5.86,1.42 -6.03,-0.27 -6.21,-1.97 -4.66,-3.72 -3.12,-5.47 -1.59,-6.15 -0.07,-6.82 1.75,-7.32 3.57,-7.82 4.89,-7.87 6.20,-7.93 8.53,-7.43 10.87,-6.93 11.27,-6.66 11.68,-6.39 11.98,-6.00 12.28,-5.61 12.44,-5.15 12.60,-4.68 12.60,-4.19 12.61,-3.70 12.45,-3.23 12.30,-2.77 12.01,-2.37 11.71,-1.98 11.31,-1.70 10.90,-1.42 10.43,-1.29 9.96,-1.15 9.47,-1.18 8.97,-1.20 8.52,-1.38 8.06,-1.56 7.68,-1.88 7.31,-2.19 7.05,-2.61 6.80,-3.03 6.69,-3.51 6.58,-3.99 6.63,-4.48 6.68,-4.96 6.88,-5.41 7.09,-5.86 7.42,-6.22 7.76,-6.58 8.19,-6.81 8.62,-7.04 9.11,-7.12 9.59,-7.21 10.08,-7.13 10.56,-7.05 11.00,-6.83 11.43,-6.60 11.77,-6.24 12.11,-5.89 12.32,-5.45 12.53,-5.00 12.59,-4.51 12.64,-4.02 12.54,-3.54 12.44,-3.06 12.19,-2.64 11.93,-2.22 11.56,-1.90 11.19,-1.58 10.73,-1.39 10.28,-1.21 9.79,-1.18 9.30,-1.15 8.82,-1.28 8.35,-1.41 8.35,-1.41 8.35,-1.41 7.39,-1.67 6.43,-1.94 5.02,-1.86 3.60,-1.79 1.99,-1.31 0.37,-0.82 2.25,-0.88 4.13,-0.93 5.44,-1.11 6.75,-1.29 8.16,-1.83 9.58,-2.37 9.80,-4.16 10.03,-5.96 8.97,-6.10 7.91,-6.23 6.51,-6.17 5.12,-6.10 3.52,-5.92 1.92,-5.74 1.51,-4.58 1.10,-3.42 1.66,-2.26 2.22,-1.11 2.32,-0.82 2.42,-0.54 2.45,-0.24 2.48,0.04 2.44,0.34 2.40,0.64 2.28,0.92 2.17,1.19 2.00,1.44 1.82,1.68 1.59,1.87 1.37,2.07 1.10,2.20 0.83,2.34 0.54,2.40 0.25,2.47 -0.04,2.46 -0.34,2.46 -0.63,2.38 -0.92,2.30 -1.18,2.16 -1.45,2.01 -1.67,1.81 -1.89,1.61 -2.05,1.36 -2.22,1.11 -2.22,1.11 L -2.22,1.11 Z"></path></g><g transform="translate(698 634.890625) rotate(0 -2 -2.5)" stroke="none"><path fill="#1864ab" d="M -0.51,2.59 Q -0.51,2.59 -1.98,2.27 -3.45,1.94 -4.57,1.34 -5.68,0.74 -6.39,-0.31 -7.09,-1.36 -7.02,-3.21 -6.94,-5.06 -6.35,-6.09 -5.76,-7.13 -3.82,-8.35 -1.89,-9.56 -0.40,-9.78 1.07,-9.99 2.44,-9.65 3.81,-9.32 4.83,-8.71 5.85,-8.11 6.61,-7.15 7.36,-6.19 7.66,-4.89 7.97,-3.60 7.71,-1.43 7.45,0.73 6.79,2.37 6.13,4.00 5.16,4.77 4.19,5.54 1.65,5.52 -0.87,5.51 -1.87,4.94 -2.87,4.38 -4.48,2.93 -6.09,1.48 -6.73,0.48 -7.37,-0.50 -7.75,-2.05 -8.13,-3.61 -9.58,-5.43 -11.03,-7.26 -8.31,-9.30 -5.60,-11.34 -5.06,-11.27 -4.52,-11.21 -4.02,-10.98 -3.53,-10.75 -3.14,-10.37 -2.75,-9.99 -2.49,-9.51 -2.24,-9.02 -2.16,-8.49 -2.08,-7.95 -2.17,-7.41 -2.26,-6.88 -2.52,-6.40 -2.78,-5.92 -3.18,-5.55 -3.57,-5.17 -4.07,-4.95 -4.57,-4.72 -5.11,-4.67 -5.65,-4.62 -6.18,-4.74 -6.71,-4.86 -7.17,-5.14 -7.64,-5.43 -7.99,-5.84 -8.34,-6.26 -8.53,-6.77 -8.73,-7.28 -8.76,-7.82 -8.78,-8.36 -8.63,-8.89 -8.48,-9.41 -8.17,-9.86 -7.87,-10.31 -7.43,-10.63 -6.99,-10.96 -6.48,-11.13 -5.96,-11.30 -5.41,-11.29 -4.87,-11.29 -4.36,-11.11 -3.84,-10.94 -3.41,-10.60 -2.98,-10.27 -2.68,-9.82 -2.38,-9.36 -2.23,-8.84 -2.09,-8.31 -2.13,-7.77 -2.16,-7.23 -2.37,-6.72 -2.57,-6.22 -2.93,-5.80 -3.28,-5.39 -3.75,-5.12 -4.22,-4.84 -4.75,-4.73 -5.28,-4.61 -5.28,-4.61 -5.28,-4.61 -5.36,-6.97 -5.43,-9.32 -4.47,-8.59 -3.52,-7.87 -2.56,-5.77 -1.60,-3.67 -0.83,-2.79 -0.06,-1.90 0.47,-0.74 1.00,0.41 1.37,-0.66 1.73,-1.74 1.12,-2.81 0.51,-3.88 -0.88,-3.48 -2.29,-3.09 -0.88,-2.84 0.51,-2.59 0.82,-2.49 1.12,-2.39 1.39,-2.22 1.66,-2.05 1.88,-1.82 2.10,-1.59 2.26,-1.32 2.42,-1.04 2.51,-0.74 2.60,-0.43 2.62,-0.11 2.63,0.20 2.57,0.51 2.51,0.82 2.37,1.11 2.24,1.40 2.03,1.65 1.83,1.89 1.58,2.09 1.33,2.28 1.03,2.41 0.74,2.53 0.43,2.58 0.11,2.64 -0.20,2.61 -0.51,2.59 -0.51,2.59 L -0.51,2.59 Z"></path></g><g transform="translate(904 637.890625) rotate(0 -4 0.5)" stroke="none"><path fill="#1864ab" d="M 2.11,1.58 Q 2.11,1.58 1.23,2.72 0.36,3.86 -0.33,4.73 -1.02,5.60 -1.93,6.26 -2.83,6.91 -4.07,7.24 -5.31,7.56 -6.41,7.66 -7.50,7.76 -8.99,7.42 -10.48,7.08 -11.49,6.34 -12.51,5.60 -13.03,4.66 -13.55,3.71 -13.73,2.57 -13.91,1.42 -13.98,0.05 -14.05,-1.31 -13.37,-2.73 -12.68,-4.15 -11.34,-4.93 -9.99,-5.71 -8.84,-6.05 -7.68,-6.40 -5.31,-6.70 -2.94,-6.99 -0.80,-6.64 1.33,-6.30 2.72,-5.67 4.12,-5.04 4.85,-4.06 5.57,-3.09 5.68,-0.99 5.79,1.10 4.83,2.46 3.87,3.83 2.45,4.36 1.02,4.90 -0.14,5.02 -1.32,5.15 -3.03,5.19 -4.75,5.23 -7.03,5.63 -9.31,6.03 -9.75,5.72 -10.18,5.41 -10.50,4.98 -10.81,4.54 -10.97,4.03 -11.13,3.52 -11.11,2.99 -11.10,2.45 -10.92,1.95 -10.74,1.45 -10.40,1.03 -10.07,0.61 -9.62,0.32 -9.17,0.03 -8.65,-0.09 -8.13,-0.22 -7.60,-0.18 -7.06,-0.14 -6.57,0.06 -6.08,0.27 -5.68,0.63 -5.28,0.99 -5.01,1.45 -4.75,1.92 -4.65,2.44 -4.55,2.97 -4.62,3.50 -4.69,4.03 -4.92,4.51 -5.16,4.99 -5.54,5.37 -5.92,5.75 -6.39,5.99 -6.87,6.22 -7.40,6.30 -7.93,6.37 -8.46,6.27 -8.98,6.17 -9.45,5.91 -9.92,5.65 -10.28,5.25 -10.63,4.85 -10.85,4.36 -11.06,3.87 -11.10,3.34 -11.15,2.81 -11.02,2.29 -10.89,1.77 -10.61,1.31 -10.32,0.86 -9.90,0.53 -9.49,0.19 -8.99,0.00 -8.48,-0.17 -7.95,-0.19 -7.41,-0.20 -6.90,-0.05 -6.39,0.10 -6.39,0.10 -6.39,0.10 -5.78,-0.59 -5.18,-1.28 -3.56,-1.35 -1.95,-1.41 -0.75,-0.74 0.45,-0.07 -1.06,-0.43 -2.58,-0.80 -4.16,-0.63 -5.73,-0.46 -6.80,-0.35 -7.87,-0.24 -7.82,0.90 -7.77,2.05 -6.63,2.08 -5.49,2.11 -4.65,1.42 -3.81,0.73 -2.96,-0.42 -2.11,-1.58 -1.89,-1.81 -1.67,-2.04 -1.40,-2.21 -1.13,-2.38 -0.83,-2.48 -0.53,-2.58 -0.21,-2.61 0.10,-2.64 0.41,-2.59 0.73,-2.53 1.02,-2.41 1.31,-2.29 1.57,-2.09 1.82,-1.90 2.03,-1.66 2.23,-1.41 2.36,-1.12 2.50,-0.83 2.57,-0.52 2.63,-0.21 2.62,0.10 2.60,0.42 2.52,0.72 2.43,1.03 2.27,1.31 2.11,1.58 2.11,1.58 L 2.11,1.58 Z"></path></g><g transform="translate(1065 635.890625) rotate(0 -8.5 4)" stroke="none"><path fill="#1864ab" d="M 0.31,2.23 Q 0.31,2.23 -1.70,2.42 -3.73,2.61 -5.01,3.02 -6.30,3.43 -8.35,3.85 -10.40,4.27 -11.73,4.33 -13.06,4.39 -14.53,4.22 -16.01,4.05 -16.32,4.02 -16.64,3.98 -16.94,3.87 -17.24,3.77 -17.50,3.59 -17.77,3.41 -17.98,3.18 -18.20,2.94 -18.35,2.67 -18.50,2.39 -18.58,2.08 -18.66,1.77 -18.67,1.45 -18.67,1.14 -18.60,0.83 -18.53,0.52 -18.39,0.23 -18.25,-0.04 -18.04,-0.28 -17.83,-0.52 -17.57,-0.71 -17.31,-0.89 -17.02,-1.01 -16.72,-1.13 -16.41,-1.17 -16.09,-1.22 -14.77,-1.69 -13.44,-2.16 -11.44,-2.68 -9.43,-3.21 -8.22,-3.53 -7.00,-3.86 -5.76,-3.73 -4.51,-3.59 -3.50,-3.09 -2.49,-2.58 -1.80,-1.76 -1.11,-0.93 -0.71,0.87 -0.31,2.68 -0.24,4.50 -0.16,6.32 -0.52,8.00 -0.88,9.68 -1.68,10.89 -2.48,12.10 -4.15,12.77 -5.81,13.44 -7.01,13.59 -8.20,13.73 -9.65,13.85 -11.09,13.97 -12.49,13.58 -13.89,13.19 -15.38,11.75 -16.87,10.31 -17.51,8.15 -18.14,6.00 -18.33,4.60 -18.53,3.20 -18.61,1.99 -18.70,0.77 -18.38,-0.75 -18.06,-2.28 -17.23,-3.37 -16.40,-4.47 -14.72,-5.03 -13.04,-5.59 -11.88,-5.70 -10.72,-5.81 -9.61,-5.85 -8.49,-5.89 -7.13,-5.47 -5.78,-5.05 -4.97,-2.64 -4.17,-0.22 -4.23,-1.66 -4.30,-3.10 -4.11,-2.78 -3.92,-2.46 -3.82,-2.10 -3.72,-1.75 -3.70,-1.37 -3.69,-1.00 -3.76,-0.64 -3.83,-0.27 -3.99,0.05 -4.15,0.39 -4.39,0.68 -4.62,0.96 -4.92,1.19 -5.22,1.41 -5.56,1.56 -5.90,1.70 -6.27,1.76 -6.63,1.82 -7.00,1.79 -7.38,1.76 -7.73,1.65 -8.08,1.53 -8.40,1.33 -8.71,1.13 -8.97,0.86 -9.23,0.60 -5.80,-1.30 -2.38,-3.20 -1.96,-3.05 -1.55,-2.90 -1.20,-2.63 -0.86,-2.36 -0.62,-1.99 -0.38,-1.62 -0.27,-1.19 -0.16,-0.77 -0.20,-0.33 -0.23,0.10 -0.40,0.51 -0.57,0.91 -0.86,1.24 -1.15,1.57 -1.54,1.79 -1.92,2.01 -2.35,2.09 -2.78,2.18 -3.22,2.12 -3.65,2.06 -4.05,1.87 -4.44,1.68 -4.75,1.37 -5.07,1.06 -5.27,0.67 -5.46,0.28 -5.52,-0.15 -5.59,-0.58 -5.51,-1.02 -5.43,-1.45 -5.21,-1.83 -5.00,-2.22 -4.67,-2.51 -4.35,-2.81 -3.95,-2.98 -3.54,-3.16 -3.10,-3.20 -2.67,-3.24 -2.24,-3.13 -1.81,-3.03 -1.44,-2.80 -1.07,-2.56 -0.79,-2.22 -0.51,-1.88 -0.36,-1.47 -0.21,-1.06 -0.19,-0.62 -0.18,-0.18 -0.30,0.23 -0.43,0.65 -0.68,1.01 -0.94,1.37 -1.29,1.63 -1.65,1.89 -2.07,2.02 -2.49,2.15 -2.93,2.14 -3.37,2.13 -3.37,2.13 -3.37,2.13 -3.83,-0.48 -4.30,-3.10 -4.11,-2.78 -3.92,-2.46 -3.82,-2.10 -3.72,-1.75 -3.70,-1.37 -3.69,-1.00 -3.76,-0.64 -3.83,-0.27 -3.99,0.05 -4.15,0.39 -4.39,0.68 -4.62,0.96 -4.92,1.19 -5.22,1.41 -5.56,1.56 -5.90,1.70 -6.27,1.76 -6.63,1.82 -7.00,1.79 -7.38,1.77 -7.73,1.65 -8.08,1.53 -8.40,1.33 -8.71,1.13 -8.97,0.87 -9.23,0.60 -8.97,-1.18 -8.72,-2.96 -9.49,-1.45 -10.26,0.05 -11.47,-0.29 -12.69,-0.63 -12.83,0.91 -12.97,2.46 -12.83,3.54 -12.68,4.63 -11.91,6.30 -11.15,7.97 -9.97,7.96 -8.79,7.95 -7.32,7.15 -5.85,6.34 -5.85,5.26 -5.85,4.17 -5.78,2.61 -5.70,1.05 -6.93,0.99 -8.15,0.93 -9.92,1.57 -11.69,2.22 -13.85,3.13 -16.01,4.05 -16.32,4.02 -16.64,3.98 -16.94,3.87 -17.24,3.77 -17.50,3.59 -17.77,3.41 -17.98,3.18 -18.20,2.95 -18.35,2.67 -18.50,2.39 -18.58,2.08 -18.66,1.77 -18.67,1.45 -18.67,1.14 -18.60,0.83 -18.53,0.52 -18.39,0.23 -18.25,-0.04 -18.04,-0.28 -17.83,-0.52 -17.57,-0.71 -17.31,-0.89 -17.02,-1.01 -16.72,-1.13 -16.41,-1.17 -16.09,-1.22 -14.64,-0.85 -13.18,-0.48 -11.97,-0.48 -10.77,-0.48 -9.12,-0.57 -7.47,-0.65 -5.89,-1.05 -4.31,-1.46 -2.31,-1.85 -0.31,-2.23 -0.04,-2.24 0.22,-2.25 0.49,-2.19 0.75,-2.13 1.00,-2.01 1.24,-1.88 1.45,-1.71 1.66,-1.53 1.82,-1.31 1.98,-1.09 2.08,-0.84 2.18,-0.58 2.22,-0.31 2.26,-0.04 2.23,0.22 2.20,0.49 2.11,0.75 2.02,1.00 1.87,1.23 1.72,1.46 1.52,1.64 1.32,1.83 1.08,1.96 0.84,2.09 0.58,2.16 0.31,2.23 0.31,2.23 L 0.31,2.23 Z"></path></g><g transform="translate(639 625.890625) rotate(0 2.5 10)" stroke="none"><path fill="#d9480f" d="M 1.18,-2.37 Q 1.18,-2.37 2.33,-1.80 3.48,-1.22 5.03,-0.58 6.59,0.05 7.62,0.93 8.66,1.82 9.31,2.74 9.96,3.66 10.42,5.26 10.88,6.86 10.55,9.28 10.22,11.70 9.45,12.69 8.68,13.69 7.22,14.41 5.75,15.14 4.78,15.59 3.80,16.04 2.83,16.84 1.86,17.64 0.88,18.24 -0.09,18.84 0.02,19.46 0.14,20.08 0.00,20.56 -0.14,21.05 -0.43,21.46 -0.72,21.88 -1.13,22.18 -1.54,22.48 -2.02,22.63 -2.50,22.78 -3.01,22.77 -3.52,22.76 -4.00,22.59 -4.47,22.42 -4.87,22.11 -5.27,21.79 -5.55,21.37 -5.82,20.94 -5.95,20.45 -6.08,19.96 -6.04,19.46 -6.00,18.95 -5.81,18.48 -5.61,18.02 -5.28,17.64 -4.94,17.26 -4.50,17.00 -4.06,16.75 -3.56,16.65 -3.07,16.55 -2.57,16.61 -2.06,16.68 -1.61,16.90 -1.15,17.12 -0.79,17.48 -0.43,17.83 -0.20,18.28 0.02,18.73 0.09,19.24 0.17,19.74 0.08,20.24 -0.00,20.74 -0.25,21.18 -0.50,21.62 -0.87,21.96 -1.24,22.31 -1.71,22.51 -2.17,22.71 -2.68,22.76 -3.18,22.81 -3.67,22.69 -4.17,22.57 -4.60,22.30 -5.03,22.03 -5.35,21.64 -5.67,21.25 -5.85,20.77 -6.03,20.30 -6.05,19.79 -6.06,19.29 -6.06,19.29 -6.06,19.29 -4.76,16.48 -3.46,13.67 -2.06,12.70 -0.67,11.73 0.25,11.13 1.19,10.53 3.06,9.70 4.93,8.87 4.95,7.71 4.97,6.55 4.27,5.67 3.58,4.78 2.34,4.15 1.11,3.52 -0.03,2.95 -1.18,2.37 -1.45,2.19 -1.71,2.01 -1.93,1.78 -2.15,1.54 -2.30,1.26 -2.45,0.98 -2.54,0.67 -2.62,0.37 -2.63,0.05 -2.63,-0.26 -2.56,-0.57 -2.49,-0.89 -2.35,-1.17 -2.21,-1.46 -2.00,-1.70 -1.79,-1.94 -1.53,-2.13 -1.27,-2.32 -0.98,-2.44 -0.68,-2.56 -0.36,-2.60 -0.05,-2.65 0.26,-2.61 0.58,-2.58 0.88,-2.47 1.18,-2.37 1.18,-2.37 L 1.18,-2.37 Z"></path></g><g transform="translate(745 627.890625) rotate(0 -9.5 10)" stroke="none"><path fill="#d9480f" d="M 1.98,1.49 Q 1.98,1.49 1.12,2.63 0.25,3.78 -0.39,4.63 -1.05,5.48 -2.32,7.26 -3.59,9.05 -5.05,10.21 -6.51,11.37 -7.59,12.34 -8.67,13.31 -10.45,14.80 -12.22,16.30 -14.11,17.30 -15.99,18.31 -15.93,16.77 -15.87,15.23 -14.77,15.48 -13.66,15.73 -12.08,16.25 -10.50,16.76 -9.09,16.92 -7.68,17.08 -5.26,17.06 -2.84,17.05 -2.37,17.13 -1.90,17.21 -1.49,17.44 -1.07,17.66 -0.75,18.01 -0.42,18.36 -0.23,18.80 -0.03,19.23 0.01,19.70 0.05,20.18 -0.05,20.64 -0.15,21.10 -0.40,21.51 -0.65,21.91 -1.02,22.22 -1.38,22.52 -1.83,22.69 -2.27,22.86 -2.75,22.88 -3.22,22.91 -3.68,22.77 -4.13,22.64 -4.53,22.37 -4.92,22.10 -5.20,21.72 -5.48,21.34 -5.63,20.88 -5.78,20.43 -5.77,19.96 -5.77,19.48 -5.61,19.03 -5.45,18.58 -5.16,18.21 -4.87,17.83 -4.47,17.57 -4.08,17.30 -3.62,17.18 -3.16,17.06 -2.68,17.09 -2.21,17.12 -1.77,17.30 -1.33,17.48 -0.97,17.79 -0.61,18.11 -0.37,18.52 -0.13,18.93 -0.03,19.39 0.06,19.86 0.00,20.33 -0.05,20.80 -0.25,21.23 -0.46,21.66 -0.79,22.00 -1.12,22.35 -1.54,22.56 -1.96,22.78 -2.43,22.85 -2.90,22.93 -2.90,22.93 -2.90,22.93 -4.96,22.87 -7.02,22.82 -8.47,22.61 -9.92,22.41 -10.96,22.16 -12.00,21.92 -13.47,21.54 -14.95,21.17 -16.96,20.68 -18.98,20.19 -19.66,19.30 -20.33,18.41 -20.25,16.84 -20.18,15.27 -18.39,14.16 -16.61,13.06 -15.11,12.06 -13.62,11.07 -12.81,10.36 -12.01,9.66 -10.85,8.58 -9.69,7.51 -8.60,6.56 -7.50,5.62 -6.74,4.79 -5.99,3.96 -4.85,2.39 -3.70,0.81 -2.84,-0.33 -1.98,-1.49 -1.78,-1.70 -1.57,-1.92 -1.32,-2.08 -1.06,-2.24 -0.78,-2.33 -0.49,-2.43 -0.20,-2.45 0.09,-2.48 0.39,-2.43 0.68,-2.38 0.96,-2.26 1.24,-2.15 1.48,-1.97 1.71,-1.79 1.90,-1.56 2.09,-1.32 2.22,-1.05 2.35,-0.78 2.41,-0.49 2.47,-0.20 2.46,0.09 2.45,0.39 2.36,0.68 2.28,0.97 2.13,1.23 1.98,1.49 1.98,1.49 L 1.98,1.49 Z"></path></g><g transform="translate(848 627.890625) rotate(0 -5.5 13)" stroke="none"><path fill="#d9480f" d="M 1.61,1.88 Q 1.61,1.88 -0.49,3.49 -2.60,5.10 -4.12,6.16 -5.64,7.22 -6.87,8.02 -8.10,8.81 -8.76,9.65 -9.42,10.49 -10.82,11.78 -12.22,13.07 -13.34,13.30 -14.46,13.53 -14.56,11.69 -14.67,9.85 -13.06,9.89 -11.46,9.92 -9.90,10.72 -8.33,11.52 -6.77,12.45 -5.22,13.39 -3.78,14.04 -2.34,14.70 -0.48,15.64 1.36,16.58 1.98,18.12 2.60,19.65 4.84,21.47 7.09,23.29 7.42,23.61 7.75,23.93 7.96,24.34 8.17,24.75 8.23,25.21 8.30,25.66 8.22,26.12 8.14,26.57 7.91,26.97 7.69,27.37 7.35,27.69 7.01,28.00 6.59,28.18 6.17,28.37 5.71,28.41 5.26,28.45 4.81,28.35 4.36,28.24 3.97,28.00 3.58,27.75 3.29,27.40 2.99,27.04 2.83,26.61 2.67,26.18 2.65,25.72 2.63,25.26 2.76,24.82 2.89,24.38 3.16,24.00 3.42,23.63 3.79,23.35 4.16,23.08 4.60,22.94 5.04,22.80 5.50,22.81 5.96,22.82 6.40,22.97 6.83,23.13 7.19,23.41 7.55,23.69 7.80,24.08 8.06,24.46 8.17,24.91 8.29,25.36 8.26,25.81 8.22,26.27 8.05,26.70 7.87,27.12 7.57,27.47 7.26,27.81 6.86,28.05 6.47,28.28 6.01,28.37 5.56,28.46 5.11,28.40 4.65,28.34 4.24,28.14 3.82,27.94 3.82,27.94 3.82,27.94 1.68,26.07 -0.45,24.20 -2.36,21.79 -4.27,19.38 -5.95,18.75 -7.64,18.11 -9.37,17.36 -11.10,16.61 -12.71,15.95 -14.33,15.29 -15.86,14.51 -17.40,13.72 -17.90,12.42 -18.39,11.11 -16.31,9.82 -14.23,8.54 -13.25,7.42 -12.27,6.30 -11.33,5.67 -10.40,5.04 -9.26,4.40 -8.12,3.75 -6.78,2.77 -5.44,1.79 -3.53,-0.04 -1.61,-1.88 -1.36,-2.05 -1.11,-2.21 -0.83,-2.32 -0.55,-2.42 -0.25,-2.45 0.04,-2.48 0.33,-2.44 0.63,-2.40 0.91,-2.29 1.19,-2.18 1.43,-2.00 1.67,-1.83 1.87,-1.60 2.06,-1.37 2.20,-1.11 2.33,-0.84 2.40,-0.55 2.47,-0.25 2.46,0.04 2.46,0.34 2.38,0.62 2.30,0.91 2.16,1.18 2.02,1.44 1.81,1.66 1.61,1.88 1.61,1.88 L 1.61,1.88 Z"></path></g><g transform="translate(957 628.890625) rotate(0 4.5 9.5)" stroke="none"><path fill="#d9480f" d="M 1.56,-1.87 Q 1.56,-1.87 3.18,-0.33 4.81,1.21 6.43,2.06 8.05,2.91 9.72,3.24 11.39,3.57 12.40,4.05 13.41,4.53 14.37,6.12 15.33,7.71 16.10,8.54 16.86,9.37 17.59,10.50 18.31,11.64 18.15,13.26 17.98,14.88 16.91,16.11 15.85,17.35 14.49,17.91 13.12,18.48 11.36,18.99 9.60,19.50 7.08,19.69 4.56,19.89 2.68,19.96 0.81,20.04 -0.84,20.09 -2.50,20.13 -4.31,20.65 -6.13,21.17 -6.50,21.18 -6.87,21.19 -7.23,21.08 -7.58,20.97 -7.89,20.75 -8.19,20.53 -8.40,20.23 -8.62,19.93 -8.73,19.57 -8.83,19.21 -8.82,18.84 -8.81,18.47 -8.68,18.12 -8.55,17.77 -8.32,17.48 -8.08,17.19 -7.77,16.99 -7.45,16.79 -7.09,16.71 -6.73,16.62 -6.36,16.65 -5.99,16.68 -5.65,16.83 -5.30,16.98 -5.03,17.23 -4.75,17.48 -4.57,17.80 -4.39,18.13 -4.32,18.49 -4.25,18.86 -4.30,19.23 -4.36,19.60 -4.52,19.93 -4.69,20.26 -4.95,20.53 -5.22,20.79 -5.55,20.95 -5.89,21.12 -6.26,21.16 -6.63,21.21 -6.99,21.14 -7.36,21.07 -7.68,20.88 -8.00,20.70 -8.25,20.42 -8.50,20.14 -8.64,19.80 -8.79,19.46 -8.82,19.09 -8.85,18.71 -8.75,18.35 -8.66,17.99 -8.46,17.68 -8.26,17.37 -7.97,17.14 -7.68,16.90 -7.33,16.78 -6.98,16.65 -6.98,16.65 -6.98,16.65 -4.83,16.18 -2.68,15.70 -1.09,15.64 0.50,15.58 2.22,15.41 3.95,15.24 5.83,14.86 7.72,14.47 9.97,13.59 12.21,12.72 11.64,11.81 11.07,10.90 10.93,9.65 10.79,8.41 9.74,7.91 8.69,7.41 7.53,6.92 6.37,6.43 4.23,5.48 2.08,4.53 0.26,3.20 -1.56,1.87 -1.76,1.66 -1.96,1.44 -2.11,1.19 -2.25,0.93 -2.33,0.65 -2.41,0.36 -2.42,0.07 -2.43,-0.22 -2.37,-0.50 -2.31,-0.79 -2.18,-1.06 -2.05,-1.32 -1.86,-1.55 -1.67,-1.78 -1.43,-1.95 -1.20,-2.13 -0.92,-2.24 -0.65,-2.35 -0.36,-2.40 -0.07,-2.44 0.21,-2.41 0.51,-2.39 0.79,-2.29 1.07,-2.19 1.31,-2.03 1.56,-1.87 1.56,-1.87 L 1.56,-1.87 Z"></path></g><g transform="translate(1139 623.890625) rotate(0 -12.5 12.5)" stroke="none"><path fill="#d9480f" d="M 1.36,1.70 Q 1.36,1.70 -0.10,2.81 -1.56,3.93 -3.48,5.00 -5.40,6.07 -7.37,7.05 -9.35,8.02 -10.99,9.00 -12.63,9.97 -13.91,10.77 -15.18,11.56 -16.46,12.63 -17.73,13.70 -18.54,14.52 -19.35,15.35 -20.76,16.52 -22.18,17.69 -21.18,18.10 -20.18,18.51 -17.34,19.30 -14.51,20.09 -12.49,20.66 -10.48,21.23 -8.23,21.81 -5.98,22.40 -3.84,22.59 -1.70,22.79 -1.37,22.89 -1.05,22.99 -0.77,23.18 -0.49,23.38 -0.30,23.65 -0.10,23.93 -0.00,24.25 0.10,24.57 0.09,24.91 0.08,25.25 -0.02,25.57 -0.14,25.89 -0.35,26.15 -0.56,26.42 -0.85,26.60 -1.13,26.79 -1.46,26.87 -1.79,26.95 -2.12,26.93 -2.46,26.90 -2.77,26.77 -3.08,26.64 -3.34,26.41 -3.59,26.19 -3.76,25.89 -3.93,25.60 -3.99,25.27 -4.06,24.94 -4.01,24.60 -3.97,24.26 -3.82,23.96 -3.67,23.66 -3.43,23.42 -3.20,23.17 -2.89,23.02 -2.59,22.87 -2.26,22.82 -1.92,22.78 -1.59,22.84 -1.26,22.90 -0.96,23.07 -0.66,23.23 -0.44,23.48 -0.21,23.73 -0.07,24.04 0.05,24.35 0.08,24.69 0.11,25.03 0.03,25.36 -0.04,25.69 -0.22,25.97 -0.40,26.26 -0.67,26.47 -0.93,26.68 -1.25,26.80 -1.56,26.92 -1.90,26.93 -2.24,26.94 -2.24,26.94 -2.24,26.94 -4.50,26.56 -6.77,26.19 -9.09,25.82 -11.42,25.45 -13.40,25.13 -15.38,24.81 -18.42,24.20 -21.45,23.60 -22.45,22.96 -23.45,22.33 -25.04,20.84 -26.62,19.36 -26.78,18.12 -26.95,16.88 -25.54,15.20 -24.13,13.52 -23.08,12.92 -22.02,12.33 -21.06,11.58 -20.10,10.84 -18.55,9.58 -17.01,8.31 -15.71,7.67 -14.42,7.02 -12.72,5.98 -11.03,4.93 -9.21,3.85 -7.39,2.78 -5.78,1.72 -4.18,0.66 -2.77,-0.51 -1.36,-1.70 -1.13,-1.84 -0.91,-1.97 -0.66,-2.06 -0.41,-2.14 -0.15,-2.15 0.10,-2.17 0.36,-2.13 0.62,-2.08 0.86,-1.98 1.10,-1.87 1.31,-1.71 1.52,-1.55 1.69,-1.35 1.85,-1.14 1.96,-0.90 2.07,-0.66 2.12,-0.41 2.17,-0.15 2.16,0.10 2.14,0.37 2.07,0.62 1.99,0.87 1.86,1.10 1.73,1.32 1.54,1.51 1.36,1.70 1.36,1.70 L 1.36,1.70 Z"></path></g></svg>