<svg version="1.1" xmlns="http://www.w3.org/2000/svg" viewBox="0 0 10020 682.59375" width="10020" height="682.59375">
  <!-- svg-source:excalidraw -->
  
  <defs>
    <style>
      @font-face {
        font-family: "Virgil";
        src: url("https://excalidraw.com/Virgil.woff2");
      }
      @font-face {
        font-family: "Cascadia";
        src: url("https://excalidraw.com/Cascadia.woff2");
      }
    </style>
  </defs>
  <rect x="0" y="0" width="10020" height="682.59375" fill="#fff0"></rect><g stroke-linecap="round" transform="translate(10 10) rotate(0 5000 0.5)"><path d="M-0.52 -0.26 C3022.65 -30.2, 6044.59 -29.2, 9999.32 0.22 M0.38 -0.31 C3948.03 -0.44, 7895.41 0.2, 9999.95 0.08 M10000.08 -0.06 C10000.09 0.27, 10000.05 0.48, 10000.09 0.92 M9999.97 0.01 C9999.95 0.33, 9999.98 0.72, 10000 0.99 M10000.22 1.51 C7095.77 35.76, 4193.15 34.95, -0.25 0.75 M10000.01 1.13 C7827.97 2.74, 5656.23 3.35, -0.33 0.84 M-0.04 1.01 C0 0.63, -0.06 0.15, 0.05 -0.03 M-0.04 0.95 C-0.04 0.73, -0.03 0.59, -0.05 -0.02" stroke="transparent" stroke-width="1" fill="none"></path></g><g stroke-linecap="round" transform="translate(763.84375 603.59375) rotate(0 70.5 34)"><path d="M-0.99 -1.07 C36.28 0.2, 72.69 -0.67, 139.69 0.45 M-0.78 0.6 C31.28 1.68, 64 0.88, 141.07 0.82 M139.09 0.87 C141.08 15.25, 140.56 27.47, 140.48 69.59 M141.84 0.15 C141.93 25.66, 140.67 53.17, 140.55 68 M140.17 68.2 C90.21 68.17, 40.04 70.41, -0.31 69.34 M140.14 68.79 C94.99 66.6, 47.17 67.69, -0.68 67.85 M0.15 69 C-0.66 45.14, 0.35 23.54, 0.17 1.04 M0.53 68.69 C-0.16 53.32, 0.26 35.84, 0.44 -0.45" stroke="#000" stroke-width="1" fill="none"></path></g><g stroke-linecap="round"><g transform="translate(668.84375 630.59375) rotate(0 44 -1)"><path d="M-0.25 -0.31 C14.44 -0.43, 74.08 -0.58, 88.95 -0.96 M1.81 -1.52 C16.37 -1.94, 74.02 -2.53, 88.51 -2.54" stroke="#000" stroke-width="1" fill="none"></path></g><g transform="translate(668.84375 630.59375) rotate(0 44 -1)"><path d="M59.86 9.5 C72.4 5.78, 79.93 2.01, 88.8 -1.78 M59.93 7.91 C67.8 4.54, 74.36 2.36, 88.6 -2.24" stroke="#000" stroke-width="1" fill="none"></path></g><g transform="translate(668.84375 630.59375) rotate(0 44 -1)"><path d="M59.72 -11.03 C72.27 -7.25, 79.85 -3.52, 88.8 -1.78 M59.79 -12.61 C67.52 -11.11, 74.11 -8.41, 88.6 -2.24" stroke="#000" stroke-width="1" fill="none"></path></g></g><g transform="translate(668.84375 587.59375) rotate(0 31.5 12.5)"><text x="0" y="18" font-family="Virgil, Segoe UI Emoji" font-size="20px" fill="#000" text-anchor="start" style="white-space: pre;" direction="ltr">eta(t)</text></g><g transform="translate(693.84375 637.59375) rotate(0 12.5 12.5)"><text x="0" y="18" font-family="Virgil, Segoe UI Emoji" font-size="20px" fill="#000" text-anchor="start" style="white-space: pre;" direction="ltr">Wn</text></g><g transform="translate(768.84375 625.09375) rotate(0 65.5 12.5)"><text x="65.5" y="18" font-family="Virgil, Segoe UI Emoji" font-size="20px" fill="#000" text-anchor="middle" style="white-space: pre;" direction="ltr">W(z)</text></g><g stroke-linecap="round"><g transform="translate(912.84375 628.59375) rotate(0 72.00000000000003 0)"><path d="M-0.53 0.67 C23.47 0.57, 120.08 -0.4, 144.18 -0.55 M1.4 -0.02 C25.23 0.02, 119.67 0.54, 143.33 0.71" stroke="#000" stroke-width="1" fill="none"></path></g><g transform="translate(912.84375 628.59375) rotate(0 72.00000000000003 0)"><path d="M116.2 11.1 C123.15 7.89, 132.67 4.49, 142.02 2.42 M114.25 9.95 C127.15 7.6, 138.38 3.12, 143.82 1.45" stroke="#000" stroke-width="1" fill="none"></path></g><g transform="translate(912.84375 628.59375) rotate(0 72.00000000000003 0)"><path d="M116.32 -9.42 C123.25 -6.11, 132.73 -2.97, 142.02 2.42 M114.37 -10.57 C127.4 -4.75, 138.58 -1.06, 143.82 1.45" stroke="#000" stroke-width="1" fill="none"></path></g></g><g stroke-linecap="round"><g transform="translate(1070.84375 519.59375) rotate(0 -0.5 50)"><path d="M0.23 -0.77 C-0.16 16.04, -1.02 82.8, -1.18 99.69 M-1.1 1.43 C-1.78 18.53, -2.19 84.88, -2.23 101.06" stroke="#000" stroke-width="1" fill="none"></path></g><g transform="translate(1070.84375 519.59375) rotate(0 -0.5 50)"><path d="M-13.63 72.51 C-9.11 84.52, -3.65 93.36, -0.34 102.86 M-13.34 72.63 C-7.78 82.88, -3.8 94.23, -2.73 100.84" stroke="#000" stroke-width="1" fill="none"></path></g><g transform="translate(1070.84375 519.59375) rotate(0 -0.5 50)"><path d="M6.89 72.61 C3.22 84.63, 0.49 93.42, -0.34 102.86 M7.18 72.74 C5.18 83.15, 1.59 94.45, -2.73 100.84" stroke="#000" stroke-width="1" fill="none"></path></g></g><g stroke-linecap="round" transform="translate(1057.84375 618.59375) rotate(0 12.5 9)"><path d="M14.79 0.47 C17.1 0.79, 19.53 2.09, 21.07 3.31 C22.6 4.52, 23.6 5.92, 24 7.77 C24.4 9.63, 24.98 12.75, 23.48 14.43 C21.99 16.11, 17.96 17.3, 15.05 17.85 C12.14 18.41, 8.27 18.63, 6.02 17.75 C3.78 16.87, 2.65 14.33, 1.57 12.57 C0.5 10.81, -0.99 9.16, -0.45 7.2 C0.09 5.23, 2.17 2.07, 4.82 0.78 C7.47 -0.5, 13.44 -0.58, 15.43 -0.51 C17.43 -0.45, 16.81 0.79, 16.79 1.17 M14.05 1.38 C16.38 1.38, 19.42 1.5, 21.36 2.67 C23.29 3.85, 25.31 6.69, 25.64 8.41 C25.97 10.14, 24.82 11.35, 23.34 13.02 C21.85 14.7, 19.67 17.55, 16.74 18.45 C13.82 19.36, 8.38 19.23, 5.8 18.46 C3.22 17.69, 2.21 15.7, 1.27 13.82 C0.33 11.95, -0.48 9.24, 0.18 7.22 C0.84 5.2, 2.93 2.85, 5.24 1.72 C7.55 0.58, 12.39 0.81, 14.04 0.4 C15.69 0, 15.4 -1, 15.14 -0.71" stroke="#000" stroke-width="1" fill="none"></path></g><g stroke-linecap="round"><g transform="translate(1093.84375 627.59375) rotate(0 79.5 0)"><path d="M-0.43 0.12 C25.7 0.25, 131.25 0.86, 157.93 0.84 M1.55 -0.86 C27.94 -1.08, 133.8 -1.2, 160.08 -0.84" stroke="#000" stroke-width="1" fill="none"></path></g><g transform="translate(1093.84375 627.59375) rotate(0 79.5 0)"><path d="M132.04 7.49 C144.35 6.47, 154.06 -0.53, 161.59 -2.42 M131.66 9.66 C138.45 7.82, 144.98 5.61, 160.32 -0.69" stroke="#000" stroke-width="1" fill="none"></path></g><g transform="translate(1093.84375 627.59375) rotate(0 79.5 0)"><path d="M132.14 -13.03 C144.43 -5.96, 154.1 -4.89, 161.59 -2.42 M131.76 -10.86 C138.51 -8, 145.02 -5.52, 160.32 -0.69" stroke="#000" stroke-width="1" fill="none"></path></g></g><g transform="translate(1262.84375 595.59375) rotate(0 24 12.5)"><text x="0" y="18" font-family="Virgil, Segoe UI Emoji" font-size="20px" fill="#000" text-anchor="start" style="white-space: pre;" direction="ltr">v (t)</text></g><g transform="translate(1106.84375 535.59375) rotate(0 24 12.5)"><text x="0" y="18" font-family="Virgil, Segoe UI Emoji" font-size="20px" fill="#000" text-anchor="start" style="white-space: pre;" direction="ltr">v (t)</text></g><g transform="translate(955.84375 576.59375) rotate(0 24 12.5)"><text x="0" y="18" font-family="Virgil, Segoe UI Emoji" font-size="20px" fill="#000" text-anchor="start" style="white-space: pre;" direction="ltr">v (t)</text></g><g transform="translate(1114.84375 532.59375) rotate(0 0.00004999999998744897 0.00004999999999988347)" stroke="none"><path fill="#000" d="M 1.57,-1.57 Q 1.57,-1.57 1.77,-1.27 1.98,-0.98 2.09,-0.64 2.20,-0.29 2.19,0.05 2.18,0.41 2.05,0.75 1.93,1.09 1.70,1.37 1.48,1.65 1.18,1.84 0.87,2.04 0.52,2.12 0.18,2.21 -0.17,2.18 -0.53,2.15 -0.86,2.01 -1.19,1.87 -1.46,1.63 -1.73,1.39 -1.90,1.07 -2.08,0.76 -2.15,0.41 -2.21,0.05 -2.17,-0.29 -2.12,-0.65 -1.96,-0.97 -1.80,-1.29 -1.54,-1.54 -1.29,-1.80 -0.97,-1.96 -0.65,-2.12 -0.29,-2.17 0.06,-2.21 0.41,-2.15 0.76,-2.08 1.07,-1.90 1.39,-1.73 1.63,-1.46 1.87,-1.19 2.01,-0.86 2.15,-0.53 2.18,-0.17 2.21,0.18 2.12,0.52 2.03,0.87 1.84,1.18 1.65,1.48 1.37,1.70 1.09,1.93 0.75,2.05 0.41,2.18 0.05,2.19 -0.30,2.20 -0.64,2.09 -0.98,1.98 -1.27,1.77 -1.57,1.56 -1.57,1.57 -1.57,1.57 -1.73,1.35 -1.90,1.14 -2.01,0.90 -2.12,0.66 -2.16,0.39 -2.21,0.13 -2.20,-0.13 -2.18,-0.40 -2.10,-0.65 -2.02,-0.91 -1.88,-1.14 -1.74,-1.36 -1.55,-1.55 -1.36,-1.74 -1.14,-1.88 -0.91,-2.02 -0.65,-2.10 -0.40,-2.18 -0.13,-2.20 0.13,-2.21 0.39,-2.16 0.66,-2.12 0.90,-2.01 1.14,-1.90 1.35,-1.73 1.57,-1.57 1.57,-1.57 L 1.57,-1.57 Z"></path></g><g transform="translate(956.84375 569.59375) rotate(0 6 12.500000000000004)"><text x="0" y="18" font-family="Virgil, Segoe UI Emoji" font-size="20px" fill="#000" text-anchor="start" style="white-space: pre;" direction="ltr">^</text></g><g transform="translate(1096.84375 593.59375) rotate(0 7 12.5)"><text x="0" y="18" font-family="Virgil, Segoe UI Emoji" font-size="20px" fill="#000" text-anchor="start" style="white-space: pre;" direction="ltr">+</text></g><g transform="translate(1039.84375 647.59375) rotate(0 7 12.5)"><text x="0" y="18" font-family="Virgil, Segoe UI Emoji" font-size="20px" fill="#000" text-anchor="start" style="white-space: pre;" direction="ltr">+</text></g></svg>