<svg version="1.1" xmlns="http://www.w3.org/2000/svg" viewBox="0 0 10020 668.40625" width="10020" height="668.40625">
  <!-- svg-source:excalidraw -->
  
  <defs>
    <style>
      @font-face {
        font-family: "Virgil";
        src: url("https://excalidraw.com/Virgil.woff2");
      }
      @font-face {
        font-family: "Cascadia";
        src: url("https://excalidraw.com/Cascadia.woff2");
      }
    </style>
  </defs>
  <rect x="0" y="0" width="10020" height="668.40625" fill="#fff0"></rect><g stroke-linecap="round" transform="translate(10 10) rotate(0 5000 0.5)"><path d="M-0.52 -0.26 C3022.65 -30.2, 6044.59 -29.2, 9999.32 0.22 M0.38 -0.31 C3948.03 -0.44, 7895.41 0.2, 9999.95 0.08 M10000.08 -0.06 C10000.09 0.27, 10000.05 0.48, 10000.09 0.92 M9999.97 0.01 C9999.95 0.33, 9999.98 0.72, 10000 0.99 M10000.22 1.51 C7095.77 35.76, 4193.15 34.95, -0.25 0.75 M10000.01 1.13 C7827.97 2.74, 5656.23 3.35, -0.33 0.84 M-0.04 1.01 C0 0.63, -0.06 0.15, 0.05 -0.03 M-0.04 0.95 C-0.04 0.73, -0.03 0.59, -0.05 -0.02" stroke="transparent" stroke-width="1" fill="none"></path></g><g transform="translate(590 569.40625) rotate(0 1.5 -0.5)" stroke="none"><path fill="#000" d="M -1.17,-2.34 Q -1.17,-2.34 -0.02,-2.92 1.12,-3.51 3.23,-4.05 5.34,-4.60 6.70,-4.74 8.05,-4.87 8.58,-4.91 9.11,-4.95 9.47,-4.91 9.82,-4.88 10.16,-4.77 10.50,-4.65 10.80,-4.46 11.10,-4.26 11.35,-4.01 11.59,-3.75 11.77,-3.44 11.95,-3.12 12.04,-2.78 12.14,-2.44 12.15,-2.08 12.16,-1.72 12.09,-1.37 12.01,-1.02 11.86,-0.70 11.70,-0.38 11.47,-0.10 11.25,0.16 10.96,0.37 10.67,0.58 10.34,0.72 10.01,0.86 9.66,0.91 9.31,0.97 9.16,2.06 9.02,3.15 7.49,4.38 5.96,5.60 4.81,6.24 3.66,6.87 1.21,6.71 -1.23,6.55 -2.92,5.74 -4.62,4.93 -5.85,4.31 -7.08,3.68 -7.62,2.76 -8.16,1.84 -8.97,0.47 -9.77,-0.89 -9.58,-2.29 -9.39,-3.69 -8.76,-4.58 -8.12,-5.46 -6.42,-6.39 -4.73,-7.32 -2.98,-7.36 -1.23,-7.41 0.92,-7.00 3.08,-6.58 4.86,-5.98 6.64,-5.38 8.17,-4.23 9.70,-3.09 10.67,-2.11 11.64,-1.13 11.56,0.67 11.49,2.47 10.90,3.46 10.31,4.44 9.29,4.83 8.28,5.21 6.74,5.30 5.20,5.39 3.17,5.02 1.14,4.65 0.01,0.67 -1.10,-3.29 -0.55,-3.30 0.00,-3.30 0.53,-3.13 1.06,-2.96 1.50,-2.62 1.95,-2.29 2.26,-1.84 2.58,-1.38 2.73,-0.84 2.89,-0.31 2.86,0.24 2.84,0.79 2.64,1.31 2.44,1.83 2.08,2.26 1.73,2.68 1.25,2.97 0.78,3.27 0.24,3.39 -0.29,3.52 -0.85,3.46 -1.40,3.41 -1.91,3.18 -2.42,2.95 -2.82,2.57 -3.23,2.19 -3.50,1.70 -3.76,1.21 -3.86,0.67 -3.95,0.12 -3.87,-0.42 -3.78,-0.97 -3.53,-1.46 -3.27,-1.96 -2.87,-2.34 -2.47,-2.73 -1.97,-2.97 -1.47,-3.21 -0.91,-3.27 -0.36,-3.34 0.17,-3.22 0.72,-3.11 1.20,-2.83 1.67,-2.55 2.04,-2.13 2.40,-1.70 2.61,-1.19 2.82,-0.68 2.86,-0.12 2.90,0.42 2.75,0.96 2.61,1.50 2.30,1.96 1.99,2.43 1.55,2.77 1.11,3.11 0.59,3.29 0.06,3.47 0.06,3.47 0.07,3.47 0.86,0.66 1.65,-2.15 2.79,-1.79 3.93,-1.43 5.08,-0.63 6.23,0.16 6.34,1.23 6.45,2.30 4.85,1.15 3.25,0.00 1.51,-0.36 -0.22,-0.73 -1.71,-0.83 -3.20,-0.92 -3.74,-2.03 -4.29,-3.14 -3.60,-1.97 -2.91,-0.81 -1.96,-0.33 -1.01,0.14 0.72,0.15 2.46,0.16 3.44,-0.32 4.41,-0.81 5.43,-2.21 6.46,-3.61 7.78,-4.28 9.11,-4.95 9.47,-4.91 9.82,-4.88 10.16,-4.77 10.50,-4.65 10.80,-4.46 11.10,-4.27 11.35,-4.01 11.59,-3.75 11.77,-3.44 11.95,-3.12 12.04,-2.78 12.14,-2.44 12.15,-2.08 12.16,-1.72 12.09,-1.37 12.01,-1.02 11.86,-0.70 11.70,-0.38 11.48,-0.11 11.25,0.16 10.96,0.37 10.67,0.58 10.34,0.72 10.01,0.86 9.66,0.91 9.31,0.97 8.77,0.95 8.24,0.93 7.11,0.92 5.97,0.91 4.72,1.06 3.47,1.21 2.32,1.77 1.17,2.34 0.87,2.45 0.57,2.56 0.26,2.59 -0.05,2.62 -0.36,2.58 -0.67,2.53 -0.97,2.41 -1.26,2.30 -1.52,2.11 -1.77,1.93 -1.98,1.68 -2.19,1.44 -2.33,1.16 -2.47,0.88 -2.54,0.57 -2.61,0.26 -2.60,-0.05 -2.59,-0.36 -2.51,-0.67 -2.43,-0.97 -2.28,-1.25 -2.13,-1.53 -1.91,-1.76 -1.70,-1.99 -1.43,-2.17 -1.17,-2.34 -1.17,-2.34 L -1.17,-2.34 Z"></path></g><g stroke-linecap="round"><g transform="translate(590 655.40625) rotate(0 0.5 -34.5)"><path d="M1.16 -0.48 C1.3 -12.13, -0.18 -58.3, -0.03 -69.6 M0.3 -1.77 C0.89 -13.31, 1.88 -56.96, 2.15 -68.38" stroke="#1864ab" stroke-width="1" fill="none"></path></g><g transform="translate(590 655.40625) rotate(0 0.5 -34.5)"><path d="M10.95 -41.67 C8.49 -44.45, 8.49 -53.35, 1.51 -68.22 M10.77 -40.17 C8.6 -50.18, 5.37 -61.73, 2.7 -69.15" stroke="#1864ab" stroke-width="1" fill="none"></path></g><g transform="translate(590 655.40625) rotate(0 0.5 -34.5)"><path d="M-9.57 -42.15 C-7.4 -45.02, -2.77 -53.81, 1.51 -68.22 M-9.75 -40.66 C-3.99 -50.56, 0.71 -61.92, 2.7 -69.15" stroke="#1864ab" stroke-width="1" fill="none"></path></g></g><g stroke-linecap="round"><g transform="translate(579 562.40625) rotate(0 -23.5 -15.5)"><path d="M0.01 -0.53 C-7.72 -6.01, -39.26 -26.66, -46.92 -31.77 M-1.44 1.81 C-9.27 -3.02, -40.37 -25.35, -47.82 -30.63" stroke="#1864ab" stroke-width="1" fill="none"></path></g><g transform="translate(579 562.40625) rotate(0 -23.5 -15.5)"><path d="M-21.57 -22.98 C-28.93 -23.22, -34.78 -26.99, -46.02 -30.61 M-20.3 -22.18 C-27.61 -25.7, -34.16 -25.75, -47.36 -30.32" stroke="#1864ab" stroke-width="1" fill="none"></path></g><g transform="translate(579 562.40625) rotate(0 -23.5 -15.5)"><path d="M-32.75 -7.3 C-37.41 -11.52, -40.42 -19.28, -46.02 -30.61 M-31.48 -6.49 C-36.1 -13.86, -39.97 -17.68, -47.36 -30.32" stroke="#1864ab" stroke-width="1" fill="none"></path></g></g><g stroke-linecap="round"><g transform="translate(668 528.40625) rotate(0 -29 16)"><path d="M-1.09 1.14 C-10.95 6.64, -49.16 27.07, -58.8 32.24 M0.54 0.7 C-8.96 5.87, -46.99 24.76, -56.5 30.25" stroke="#1864ab" stroke-width="1" fill="none"></path></g><g transform="translate(668 528.40625) rotate(0 -29 16)"><path d="M-34.52 6.63 C-42.76 13.55, -49.44 22.93, -58.38 30.63 M-37.13 7.14 C-40.77 13.1, -45.61 18.35, -57.24 29.84" stroke="#1864ab" stroke-width="1" fill="none"></path></g><g transform="translate(668 528.40625) rotate(0 -29 16)"><path d="M-24.89 24.75 C-36.18 25.63, -46.03 29.06, -58.38 30.63 M-27.5 25.26 C-33.44 26.99, -40.58 27.93, -57.24 29.84" stroke="#1864ab" stroke-width="1" fill="none"></path></g></g><g stroke-linecap="round"><g transform="translate(652 604.40625) rotate(0 -23 -17)"><path d="M-0.5 -0.44 C-8.03 -6.11, -38 -29.36, -45.62 -34.96 M1.44 -1.71 C-6.17 -7.19, -38.28 -28.75, -46.37 -33.92" stroke="#1864ab" stroke-width="1" fill="none"></path></g><g transform="translate(652 604.40625) rotate(0 -23 -17)"><path d="M-19.27 -26.69 C-27.43 -29.55, -33.2 -30.34, -47.81 -35.57 M-18.55 -27.77 C-28.92 -29.43, -38.96 -31.57, -47.2 -33.5" stroke="#1864ab" stroke-width="1" fill="none"></path></g><g transform="translate(652 604.40625) rotate(0 -23 -17)"><path d="M-30.03 -10.35 C-35.23 -17.47, -38.16 -22.57, -47.81 -35.57 M-29.3 -11.42 C-35.73 -19.01, -41.81 -27.17, -47.2 -33.5" stroke="#1864ab" stroke-width="1" fill="none"></path></g></g><g stroke-linecap="round"><g transform="translate(536 617.40625) rotate(0 20.5 -19.5)"><path d="M-1.13 0 C5.48 -6.55, 33.32 -32.65, 40.46 -39.13 M0.48 -1.04 C6.81 -7.41, 32.42 -31.58, 39.23 -37.66" stroke="#1864ab" stroke-width="1" fill="none"></path></g><g transform="translate(536 617.40625) rotate(0 20.5 -19.5)"><path d="M26.24 -13.42 C30.79 -20.49, 36 -29.17, 37.57 -36.82 M25.86 -11.57 C31.99 -21.98, 36.01 -30.77, 39.44 -37.43" stroke="#1864ab" stroke-width="1" fill="none"></path></g><g transform="translate(536 617.40625) rotate(0 20.5 -19.5)"><path d="M13.12 -27.65 C22.52 -29.35, 32.57 -32.79, 37.57 -36.82 M12.74 -25.79 C23.81 -30.64, 32.84 -34, 39.44 -37.43" stroke="#1864ab" stroke-width="1" fill="none"></path></g></g><g transform="translate(810 613.40625) rotate(0 -2.5 -2)" stroke="none"><path fill="#000000" d="M -0.69,2.41 Q -0.69,2.41 -2.66,1.70 -4.63,0.98 -5.76,0.78 -6.90,0.58 -8.11,-1.12 -9.32,-2.82 -8.17,-4.11 -7.01,-5.39 -5.47,-5.55 -3.93,-5.71 -2.85,-5.78 -1.77,-5.86 -1.26,-5.89 -0.76,-5.92 -0.41,-5.88 -0.06,-5.84 0.26,-5.71 0.59,-5.59 0.89,-5.39 1.18,-5.19 1.41,-4.93 1.65,-4.67 1.81,-4.36 1.98,-4.04 2.06,-3.70 2.15,-3.36 2.15,-3.01 2.15,-2.65 2.07,-2.31 1.99,-1.97 1.82,-1.65 1.66,-1.34 1.43,-1.08 1.20,-0.81 0.91,-0.61 0.62,-0.41 0.29,-0.28 -0.03,-0.16 -0.38,-0.11 -0.73,-0.07 0.57,-0.84 1.88,-1.62 0.87,0.28 -0.14,2.19 -1.09,2.85 -2.05,3.51 -3.10,3.71 -4.14,3.90 -5.42,3.55 -6.70,3.21 -8.08,2.18 -9.46,1.16 -9.68,-0.17 -9.90,-1.51 -9.06,-3.23 -8.22,-4.95 -6.81,-5.75 -5.39,-6.55 -4.14,-6.67 -2.89,-6.79 -1.49,-7.53 -0.08,-8.27 2.04,-7.71 4.17,-7.15 4.96,-6.14 5.75,-5.13 6.07,-3.55 6.39,-1.98 6.14,-0.29 5.89,1.40 5.14,2.47 4.39,3.55 3.37,3.93 2.35,4.30 1.09,4.40 -0.16,4.51 -1.82,4.50 -3.49,4.49 -2.82,0.62 -2.15,-3.25 -1.59,-3.22 -1.03,-3.18 -0.52,-2.97 -0.00,-2.76 0.41,-2.39 0.84,-2.03 1.12,-1.54 1.40,-1.06 1.52,-0.52 1.63,0.02 1.57,0.57 1.50,1.13 1.26,1.63 1.02,2.14 0.64,2.54 0.25,2.94 -0.24,3.20 -0.73,3.46 -1.29,3.54 -1.84,3.63 -2.39,3.53 -2.94,3.44 -3.43,3.17 -3.92,2.90 -4.30,2.50 -4.68,2.09 -4.91,1.58 -5.14,1.07 -5.20,0.51 -5.25,-0.03 -5.13,-0.58 -5.00,-1.12 -4.71,-1.60 -4.42,-2.07 -3.99,-2.43 -3.56,-2.79 -3.04,-2.99 -2.52,-3.19 -1.96,-3.22 -1.40,-3.24 -0.86,-3.09 -0.33,-2.93 0.12,-2.62 0.58,-2.30 0.92,-1.85 1.25,-1.40 1.42,-0.87 1.60,-0.34 1.59,0.21 1.59,0.77 1.40,1.29 1.22,1.82 0.88,2.26 0.53,2.70 0.07,3.01 -0.39,3.32 -0.93,3.47 -1.47,3.61 -1.46,3.61 -1.46,3.61 -1.39,0.52 -1.32,-2.55 -0.23,-2.56 0.85,-2.57 0.17,-1.59 -0.50,-0.61 0.27,-1.47 1.04,-2.33 0.14,-1.68 -0.74,-1.03 -2.05,-0.92 -3.35,-0.80 -3.51,-2.01 -3.67,-3.22 -2.21,-4.57 -0.76,-5.92 -0.41,-5.88 -0.06,-5.84 0.26,-5.71 0.59,-5.59 0.89,-5.39 1.18,-5.19 1.41,-4.93 1.65,-4.67 1.81,-4.36 1.98,-4.04 2.06,-3.70 2.15,-3.36 2.15,-3.01 2.15,-2.65 2.07,-2.31 1.99,-1.97 1.82,-1.65 1.66,-1.34 1.43,-1.08 1.20,-0.81 0.91,-0.61 0.62,-0.41 0.29,-0.28 -0.03,-0.16 -0.38,-0.11 -0.73,-0.07 -1.75,-0.13 -2.76,-0.18 -4.14,-0.67 -5.52,-1.15 -5.62,-2.51 -5.71,-3.86 -4.56,-3.57 -3.41,-3.28 -1.36,-2.85 0.69,-2.41 0.97,-2.30 1.25,-2.18 1.49,-2.00 1.73,-1.82 1.92,-1.58 2.12,-1.35 2.25,-1.07 2.38,-0.80 2.44,-0.50 2.50,-0.21 2.49,0.09 2.48,0.39 2.40,0.68 2.31,0.97 2.16,1.24 2.01,1.50 1.80,1.72 1.59,1.94 1.34,2.10 1.08,2.26 0.79,2.36 0.51,2.46 0.20,2.48 -0.09,2.51 -0.39,2.46 -0.69,2.41 -0.69,2.41 L -0.69,2.41 Z"></path></g><g stroke-linecap="round"><g transform="translate(826 609.40625) rotate(0 35.5 1)"><path d="M-0.5 1.08 C11.51 1.55, 59.45 1.53, 71.21 1.64 M1.44 0.61 C13.38 1.35, 58.53 2.6, 70.38 2.99" stroke="#d9480f" stroke-width="1" fill="none"></path></g><g transform="translate(826 609.40625) rotate(0 35.5 1)"><path d="M43.69 12.74 C48 8.83, 54.82 8.5, 70.06 4.08 M40.92 11.72 C50.24 10.12, 57.46 6.86, 71.17 3.64" stroke="#d9480f" stroke-width="1" fill="none"></path></g><g transform="translate(826 609.40625) rotate(0 35.5 1)"><path d="M44.32 -7.77 C48.29 -6.92, 54.96 -2.48, 70.06 4.08 M41.55 -8.79 C50.52 -4.73, 57.57 -2.34, 71.17 3.64" stroke="#d9480f" stroke-width="1" fill="none"></path></g></g><g stroke-linecap="round"><g transform="translate(808 599.40625) rotate(0 -1 -35.5)"><path d="M-0.03 -0.11 C-0.53 -12.18, -2.78 -60.17, -3.04 -71.99 M-1.5 -1.21 C-1.64 -13.2, -0.78 -59.55, -0.87 -70.98" stroke="#d9480f" stroke-width="1" fill="none"></path></g><g transform="translate(808 599.40625) rotate(0 -1 -35.5)"><path d="M9.02 -44.44 C4.44 -50.36, 3.01 -57.66, -0.28 -72.38 M8.95 -43.6 C6.95 -50.21, 3.58 -56.95, -0.02 -71.21" stroke="#d9480f" stroke-width="1" fill="none"></path></g><g transform="translate(808 599.40625) rotate(0 -1 -35.5)"><path d="M-11.5 -44.58 C-9.97 -50.45, -5.28 -57.72, -0.28 -72.38 M-11.57 -43.74 C-8.6 -50.48, -7 -57.19, -0.02 -71.21" stroke="#d9480f" stroke-width="1" fill="none"></path></g></g><g transform="translate(834 525.40625) rotate(0 11 12.5)"><text x="0" y="18" font-family="Virgil, Segoe UI Emoji" font-size="20px" fill="#d9480f" text-anchor="start" style="white-space: pre;" direction="ltr">Fy</text></g><g transform="translate(897 633.40625) rotate(0 12 12.5)"><text x="0" y="18" font-family="Virgil, Segoe UI Emoji" font-size="20px" fill="#d9480f" text-anchor="start" style="white-space: pre;" direction="ltr">Fx</text></g></svg>