<svg version="1.1" xmlns="http://www.w3.org/2000/svg" viewBox="0 0 10020 639.734375" width="10020" height="639.734375">
  <!-- svg-source:excalidraw -->
  
  <defs>
    <style>
      @font-face {
        font-family: "Virgil";
        src: url("https://excalidraw.com/Virgil.woff2");
      }
      @font-face {
        font-family: "Cascadia";
        src: url("https://excalidraw.com/Cascadia.woff2");
      }
    </style>
  </defs>
  <rect x="0" y="0" width="10020" height="639.734375" fill="#fff0"></rect><g stroke-linecap="round" transform="translate(10 10) rotate(0 5000 0.5)"><path d="M-0.52 -0.26 C3022.65 -30.2, 6044.59 -29.2, 9999.32 0.22 M0.38 -0.31 C3948.03 -0.44, 7895.41 0.2, 9999.95 0.08 M10000.08 -0.06 C10000.09 0.27, 10000.05 0.48, 10000.09 0.92 M9999.97 0.01 C9999.95 0.33, 9999.98 0.72, 10000 0.99 M10000.22 1.51 C7095.77 35.76, 4193.15 34.95, -0.25 0.75 M10000.01 1.13 C7827.97 2.74, 5656.23 3.35, -0.33 0.84 M-0.04 1.01 C0 0.63, -0.06 0.15, 0.05 -0.03 M-0.04 0.95 C-0.04 0.73, -0.03 0.59, -0.05 -0.02" stroke="transparent" stroke-width="1" fill="none"></path></g><g stroke-linecap="round"><g transform="translate(570 565.734375) rotate(0 180.31584909781813 -0.394245380449334)"><path d="M0.52 -0.37 C60.49 -0.22, 300.22 0.33, 360.26 0.12 M-0.67 -1.61 C59.07 -1.71, 298.99 -1.67, 359.12 -1.53" stroke="#d9480f" stroke-width="1" fill="none"></path></g></g><g stroke-linecap="round"><g transform="translate(963.0150769636035 567.3723698452116) rotate(0 40.5 -1)"><path d="M-1.02 -0.38 C12.46 -0.7, 67.01 -2.19, 80.71 -2.64 M0.65 -1.63 C13.96 -1.73, 66.3 -1.33, 79.6 -1.44" stroke="#d9480f" stroke-width="1" fill="none"></path></g></g><g stroke-linecap="round"><g transform="translate(1073.117088715732 559.9127855267798) rotate(0 45 0.5)"><path d="M-0.88 0.19 C14.12 0.37, 75.51 1.15, 90.79 1.38 M0.85 -0.76 C15.71 -0.97, 75.33 -0.6, 90.25 -0.54" stroke="#d9480f" stroke-width="1" fill="none"></path></g></g><g transform="translate(657 577.734375) rotate(0 82.5 25)"><text x="0" y="18" font-family="Virgil, Segoe UI Emoji" font-size="20px" fill="#d9480f" text-anchor="start" style="white-space: pre;" direction="ltr">Accelerazione di </text><text x="0" y="43" font-family="Virgil, Segoe UI Emoji" font-size="20px" fill="#d9480f" text-anchor="start" style="white-space: pre;" direction="ltr">trascinamento</text></g><g transform="translate(962 579.734375) rotate(0 39.5 25)"><text x="0" y="18" font-family="Virgil, Segoe UI Emoji" font-size="20px" fill="#d9480f" text-anchor="start" style="white-space: pre;" direction="ltr">Acc.</text><text x="0" y="43" font-family="Virgil, Segoe UI Emoji" font-size="20px" fill="#d9480f" text-anchor="start" style="white-space: pre;" direction="ltr">relativa</text></g><g transform="translate(1083 579.734375) rotate(0 35 25)"><text x="0" y="18" font-family="Virgil, Segoe UI Emoji" font-size="20px" fill="#d9480f" text-anchor="start" style="white-space: pre;" direction="ltr">Acc. di</text><text x="0" y="43" font-family="Virgil, Segoe UI Emoji" font-size="20px" fill="#d9480f" text-anchor="start" style="white-space: pre;" direction="ltr">Coriolis</text></g></svg>