<svg version="1.1" xmlns="http://www.w3.org/2000/svg" viewBox="0 0 10020 683.078125" width="10020" height="683.078125">
  <!-- svg-source:excalidraw -->
  
  <defs>
    <style>
      @font-face {
        font-family: "Virgil";
        src: url("https://excalidraw.com/Virgil.woff2");
      }
      @font-face {
        font-family: "Cascadia";
        src: url("https://excalidraw.com/Cascadia.woff2");
      }
    </style>
  </defs>
  <rect x="0" y="0" width="10020" height="683.078125" fill="#fff0"></rect><g stroke-linecap="round" transform="translate(10 10) rotate(0 5000 0.5)"><path d="M-0.52 -0.26 C3022.65 -30.2, 6044.59 -29.2, 9999.32 0.22 M0.38 -0.31 C3948.03 -0.44, 7895.41 0.2, 9999.95 0.08 M10000.08 -0.06 C10000.09 0.27, 10000.05 0.48, 10000.09 0.92 M9999.97 0.01 C9999.95 0.33, 9999.98 0.72, 10000 0.99 M10000.22 1.51 C7095.77 35.76, 4193.15 34.95, -0.25 0.75 M10000.01 1.13 C7827.97 2.74, 5656.23 3.35, -0.33 0.84 M-0.04 1.01 C0 0.63, -0.06 0.15, 0.05 -0.03 M-0.04 0.95 C-0.04 0.73, -0.03 0.59, -0.05 -0.02" stroke="transparent" stroke-width="1" fill="none"></path></g><g stroke-linecap="round"><g transform="translate(576 639.078125) rotate(0 63 -49)"><path d="M0.79 -0.76 C21.82 -17.09, 105.74 -81.59, 126.69 -97.61 M-0.26 1.46 C20.63 -15.28, 105.07 -82.85, 126.11 -99.52" stroke="#000000" stroke-width="1" fill="none"></path></g><g transform="translate(576 639.078125) rotate(0 63 -49)"><path d="M109.2 -72.77 C116.4 -81.97, 123.05 -92.51, 125.94 -99.53 M110.56 -74.74 C114.61 -81.38, 120.56 -89.95, 126.89 -99.09" stroke="#000000" stroke-width="1" fill="none"></path></g><g transform="translate(576 639.078125) rotate(0 63 -49)"><path d="M96.41 -88.82 C108.04 -92.61, 119.08 -97.64, 125.94 -99.53 M97.78 -90.79 C105.7 -92.56, 115.52 -96.29, 126.89 -99.09" stroke="#000000" stroke-width="1" fill="none"></path></g></g><g stroke-linecap="round"><g transform="translate(699 539.078125) rotate(0 20 28.5)"><path d="M-1.02 0.44 C5.77 9.73, 33.74 47.18, 40.43 56.71 M0.65 -0.37 C7.34 9.61, 32.89 48.77, 39.7 58.1" stroke="#000000" stroke-width="1" fill="none"></path></g><g transform="translate(699 539.078125) rotate(0 20 28.5)"><path d="M16.05 41.34 C21.71 44.14, 29.98 50.64, 39.2 56.24 M14.85 41.51 C20.73 45.61, 28.41 49.7, 39.15 58.72" stroke="#000000" stroke-width="1" fill="none"></path></g><g transform="translate(699 539.078125) rotate(0 20 28.5)"><path d="M32.98 29.75 C34.07 35.61, 37.66 45.3, 39.2 56.24 M31.78 29.91 C33.38 37.02, 36.77 44.04, 39.15 58.72" stroke="#000000" stroke-width="1" fill="none"></path></g></g><g transform="translate(543 626.078125) rotate(0 8 12.5)"><text x="0" y="18" font-family="Virgil, Segoe UI Emoji" font-size="20px" fill="#d9480f" text-anchor="start" style="white-space: pre;" direction="ltr">O</text></g><g transform="translate(676 515.078125) rotate(0 7 12.5)"><text x="0" y="18" font-family="Virgil, Segoe UI Emoji" font-size="20px" fill="#d9480f" text-anchor="start" style="white-space: pre;" direction="ltr">A</text></g><g transform="translate(756 592.078125) rotate(0 8 12.5)"><text x="0" y="18" font-family="Virgil, Segoe UI Emoji" font-size="20px" fill="#d9480f" text-anchor="start" style="white-space: pre;" direction="ltr">B</text></g><g stroke-linecap="round"><g transform="translate(579 650.078125) rotate(0 1 -56)"><path d="M-0.75 1.1 C-0.41 -17.69, 1.49 -93.98, 1.83 -113.02 M1.05 0.64 C1.24 -18.02, 0.94 -93.17, 0.79 -112.02" stroke="#000000" stroke-width="1" fill="none"></path></g><g transform="translate(579 650.078125) rotate(0 1 -56)"><path d="M13.04 -84.17 C6.63 -93.01, 3.47 -100.89, 2.58 -111.97 M11.83 -83.57 C8.67 -94.13, 5.38 -102.18, 1.12 -111.18" stroke="#000000" stroke-width="1" fill="none"></path></g><g transform="translate(579 650.078125) rotate(0 1 -56)"><path d="M-7.48 -84.06 C-8.12 -92.8, -5.51 -100.72, 2.58 -111.97 M-8.69 -83.46 C-5.15 -93.91, -1.74 -102, 1.12 -111.18" stroke="#000000" stroke-width="1" fill="none"></path></g></g><g stroke-linecap="round"><g transform="translate(557 638.078125) rotate(0 51 -2)"><path d="M-1.02 -0.07 C15.95 -0.67, 83.95 -3.85, 101.13 -4.4 M0.65 -1.16 C18.05 -1.52, 86.61 -2.36, 103.39 -3.07" stroke="#000000" stroke-width="1" fill="none"></path></g><g transform="translate(557 638.078125) rotate(0 51 -2)"><path d="M75.34 6.45 C81.67 5.57, 90.18 3.52, 103.13 -4.51 M75.12 8.15 C83.65 4.47, 90.34 2.38, 103.25 -2.38" stroke="#000000" stroke-width="1" fill="none"></path></g><g transform="translate(557 638.078125) rotate(0 51 -2)"><path d="M74.83 -14.07 C81.14 -9.95, 89.79 -7.01, 103.13 -4.51 M74.61 -12.36 C83.21 -10.33, 90.04 -6.68, 103.25 -2.38" stroke="#000000" stroke-width="1" fill="none"></path></g></g><g transform="translate(679 648.078125) rotate(0 2.5 12.5)"><text x="0" y="18" font-family="Virgil, Segoe UI Emoji" font-size="20px" fill="#000000" text-anchor="start" style="white-space: pre;" direction="ltr">i</text></g><g transform="translate(540 516.078125) rotate(0 4 12.5)"><text x="0" y="18" font-family="Virgil, Segoe UI Emoji" font-size="20px" fill="#000000" text-anchor="start" style="white-space: pre;" direction="ltr">j</text></g><g transform="translate(837 590.078125) rotate(0 117 12.5)"><text x="0" y="18" font-family="Virgil, Segoe UI Emoji" font-size="20px" fill="#000000" text-anchor="start" style="white-space: pre;" direction="ltr">(A-O) + (B+A) = (B-O) </text></g><g stroke-linecap="round"><g transform="translate(577 634.078125) rotate(0 80.5 -20)"><path d="M-0.5 -0.95 C26.17 -7.74, 134.06 -33.43, 160.88 -39.85 M1.44 1.16 C27.86 -5.48, 133.54 -31.12, 159.86 -38.23" stroke="#1864ab" stroke-width="1" fill="none"></path></g><g transform="translate(577 634.078125) rotate(0 80.5 -20)"><path d="M133.49 -21.54 C144.42 -28.48, 154.33 -35.29, 158.4 -37.4 M135.35 -20.59 C145.04 -28.24, 153.91 -35.62, 160.72 -38.34" stroke="#1864ab" stroke-width="1" fill="none"></path></g><g transform="translate(577 634.078125) rotate(0 80.5 -20)"><path d="M128.43 -41.43 C141.38 -40.95, 153.17 -40.38, 158.4 -37.4 M130.29 -40.48 C142.06 -40.32, 152.93 -39.85, 160.72 -38.34" stroke="#1864ab" stroke-width="1" fill="none"></path></g></g><g transform="translate(838 530.078125) rotate(0 106.5 12.5)"><text x="0" y="18" font-family="Virgil, Segoe UI Emoji" font-size="20px" fill="#d9480f" text-anchor="start" style="white-space: pre;" direction="ltr">Equazione di chiusura</text></g><g stroke-linecap="round"><g transform="translate(839 558.078125) rotate(0 108.5 0.5)"><path d="M-0.1 -1.07 C35.86 -1.02, 180.16 0.27, 216.37 0.66 M-1.61 0.98 C34.69 1.18, 182.4 1.73, 218.75 2.02" stroke="#d9480f" stroke-width="1" fill="none"></path></g></g></svg>