<svg version="1.1" xmlns="http://www.w3.org/2000/svg" viewBox="0 0 10020 697.71875" width="10020" height="697.71875">
  <!-- svg-source:excalidraw -->
  
  <defs>
    <style>
      @font-face {
        font-family: "Virgil";
        src: url("https://excalidraw.com/Virgil.woff2");
      }
      @font-face {
        font-family: "Cascadia";
        src: url("https://excalidraw.com/Cascadia.woff2");
      }
    </style>
  </defs>
  <rect x="0" y="0" width="10020" height="697.71875" fill="#fff0"></rect><g stroke-linecap="round" transform="translate(10 10) rotate(0 5000 0.5)"><path d="M-0.52 -0.26 C3022.65 -30.2, 6044.59 -29.2, 9999.32 0.22 M0.38 -0.31 C3948.03 -0.44, 7895.41 0.2, 9999.95 0.08 M10000.08 -0.06 C10000.09 0.27, 10000.05 0.48, 10000.09 0.92 M9999.97 0.01 C9999.95 0.33, 9999.98 0.72, 10000 0.99 M10000.22 1.51 C7095.77 35.76, 4193.15 34.95, -0.25 0.75 M10000.01 1.13 C7827.97 2.74, 5656.23 3.35, -0.33 0.84 M-0.04 1.01 C0 0.63, -0.06 0.15, 0.05 -0.03 M-0.04 0.95 C-0.04 0.73, -0.03 0.59, -0.05 -0.02" stroke="transparent" stroke-width="1" fill="none"></path></g><g transform="translate(586 668.71875) rotate(0 9.5 -0.5)" stroke="none"><path fill="#000" d="M -1.54,-1.85 Q -1.54,-1.85 0.27,-3.18 2.09,-4.51 3.86,-5.49 5.63,-6.46 7.26,-7.18 8.90,-7.90 10.08,-8.50 11.27,-9.11 12.33,-9.68 13.40,-10.25 14.68,-10.62 15.95,-10.98 18.03,-10.86 20.11,-10.74 21.45,-9.95 22.78,-9.16 23.56,-7.82 24.34,-6.47 24.17,-5.17 24.00,-3.86 23.52,-2.83 23.05,-1.80 22.16,-0.53 21.27,0.73 19.88,1.82 18.49,2.91 17.48,3.79 16.46,4.67 14.31,5.91 12.15,7.15 10.71,7.99 9.26,8.83 8.23,9.31 7.21,9.80 5.94,10.06 4.67,10.32 3.43,10.09 2.19,9.87 0.75,9.38 -0.69,8.88 -1.74,7.97 -2.79,7.06 -3.48,5.70 -4.18,4.34 -4.88,2.40 -5.57,0.46 -5.36,-0.84 -5.14,-2.15 -3.56,-3.86 -1.98,-5.57 -0.81,-5.94 0.34,-6.32 3.31,-6.94 6.28,-7.57 7.31,-7.87 8.34,-8.18 9.65,-8.38 10.96,-8.59 12.25,-8.65 13.54,-8.70 14.68,-8.31 15.82,-7.91 17.15,-6.40 18.48,-4.88 18.31,-2.59 18.14,-0.29 16.66,1.40 15.17,3.11 13.37,3.79 11.57,4.47 10.28,4.65 8.99,4.83 7.50,4.96 6.02,5.09 4.41,5.12 2.80,5.14 1.58,4.71 0.35,4.28 -0.92,1.46 -2.20,-1.35 -1.62,-2.67 -1.03,-3.98 0.35,-4.83 1.73,-5.67 3.87,-6.31 6.01,-6.96 7.30,-7.28 8.59,-7.60 10.55,-7.89 12.51,-8.19 13.91,-8.23 15.31,-8.26 16.78,-7.54 18.25,-6.83 19.05,-5.44 19.86,-4.05 19.82,-2.62 19.79,-1.18 18.95,0.22 18.10,1.63 17.09,2.20 16.08,2.77 14.83,2.99 13.58,3.21 11.44,2.77 9.31,2.33 8.81,2.10 8.32,1.86 7.92,1.48 7.52,1.10 7.27,0.61 7.02,0.13 6.93,-0.41 6.85,-0.95 6.94,-1.49 7.03,-2.04 7.30,-2.52 7.56,-3.00 7.96,-3.38 8.36,-3.75 8.86,-3.98 9.36,-4.21 9.91,-4.26 10.46,-4.32 11.00,-4.19 11.53,-4.07 12.00,-3.78 12.47,-3.49 12.82,-3.07 13.17,-2.65 13.37,-2.14 13.57,-1.63 13.60,-1.08 13.62,-0.53 13.47,-0.00 13.32,0.52 13.01,0.97 12.69,1.43 12.25,1.75 11.81,2.08 11.29,2.25 10.77,2.43 10.22,2.42 9.67,2.42 9.15,2.24 8.63,2.06 8.19,1.72 7.76,1.38 7.45,0.93 7.15,0.47 7.01,-0.05 6.86,-0.58 6.90,-1.13 6.93,-1.68 7.14,-2.19 7.35,-2.70 7.71,-3.12 8.07,-3.53 8.54,-3.81 9.02,-4.09 9.55,-4.21 10.09,-4.32 10.64,-4.25 11.18,-4.19 11.18,-4.19 11.18,-4.19 12.07,-2.91 12.95,-1.63 11.89,-1.54 10.83,-1.45 9.59,-1.04 8.34,-0.63 7.19,-0.51 6.03,-0.40 4.56,0.58 3.08,1.57 3.08,0.20 3.08,-1.15 4.42,-1.16 5.75,-1.17 6.97,-1.21 8.18,-1.25 9.60,-1.34 11.01,-1.43 12.18,-2.26 13.35,-3.09 11.65,-2.91 9.94,-2.72 8.46,-2.29 6.98,-1.86 5.79,-1.69 4.60,-1.53 3.46,-1.03 2.33,-0.53 1.30,-0.16 0.28,0.20 1.28,2.14 2.27,4.08 3.19,4.65 4.12,5.23 5.46,4.97 6.80,4.71 8.11,3.90 9.42,3.08 11.04,1.78 12.66,0.48 13.76,-0.56 14.85,-1.61 16.13,-2.66 17.40,-3.70 17.74,-5.06 18.07,-6.41 16.71,-6.29 15.34,-6.17 14.22,-5.68 13.09,-5.19 11.81,-4.65 10.54,-4.11 9.09,-3.49 7.65,-2.87 6.22,-2.05 4.80,-1.23 3.17,0.31 1.54,1.85 1.30,2.01 1.05,2.17 0.78,2.26 0.50,2.36 0.21,2.38 -0.07,2.41 -0.36,2.37 -0.64,2.32 -0.91,2.21 -1.18,2.10 -1.42,1.93 -1.65,1.75 -1.84,1.53 -2.02,1.31 -2.15,1.04 -2.28,0.78 -2.34,0.50 -2.40,0.21 -2.39,-0.07 -2.38,-0.36 -2.31,-0.64 -2.23,-0.92 -2.08,-1.17 -1.94,-1.43 -1.74,-1.64 -1.54,-1.85 -1.54,-1.85 L -1.54,-1.85 Z"></path></g><g transform="translate(736 558.71875) rotate(0 8 -5)" stroke="none"><path fill="#000" d="M -2.36,-0.59 Q -2.36,-0.59 -2.11,-1.75 -1.85,-2.90 -1.42,-4.13 -0.99,-5.35 0.26,-7.15 1.52,-8.95 3.13,-10.20 4.75,-11.46 6.85,-12.01 8.95,-12.57 10.02,-12.81 11.10,-13.06 12.26,-13.19 13.41,-13.33 14.84,-12.84 16.26,-12.36 17.12,-11.22 17.97,-10.07 18.34,-8.23 18.71,-6.39 18.37,-4.47 18.03,-2.54 17.50,-1.28 16.97,-0.02 15.89,0.86 14.81,1.75 13.80,2.33 12.80,2.91 10.62,3.43 8.43,3.94 7.13,3.62 5.83,3.30 4.37,2.74 2.91,2.17 1.41,0.78 -0.08,-0.59 -0.73,-2.11 -1.39,-3.62 -1.30,-5.52 -1.21,-7.43 -0.45,-9.52 0.30,-11.61 1.80,-12.39 3.29,-13.18 5.35,-13.59 7.42,-14.00 8.78,-14.08 10.15,-14.16 11.57,-13.75 13.00,-13.34 14.24,-12.20 15.49,-11.07 16.07,-9.65 16.66,-8.23 16.70,-6.89 16.74,-5.56 16.16,-4.35 15.59,-3.13 14.55,-2.58 13.52,-2.02 12.21,-1.86 10.91,-1.70 9.48,-1.24 8.05,-0.78 7.51,-0.76 6.97,-0.74 6.45,-0.89 5.93,-1.05 5.48,-1.36 5.03,-1.67 4.71,-2.11 4.39,-2.55 4.22,-3.06 4.06,-3.58 4.07,-4.13 4.08,-4.67 4.26,-5.18 4.44,-5.69 4.78,-6.12 5.11,-6.55 5.57,-6.85 6.02,-7.15 6.55,-7.28 7.07,-7.42 7.62,-7.38 8.16,-7.34 8.66,-7.14 9.16,-6.93 9.57,-6.57 9.98,-6.21 10.25,-5.74 10.52,-5.27 10.63,-4.74 10.74,-4.20 10.67,-3.66 10.61,-3.12 10.37,-2.63 10.13,-2.14 9.75,-1.76 9.37,-1.37 8.89,-1.12 8.41,-0.87 7.87,-0.79 7.33,-0.71 6.80,-0.81 6.26,-0.91 5.78,-1.17 5.31,-1.43 4.94,-1.83 4.57,-2.23 4.35,-2.73 4.13,-3.23 4.08,-3.77 4.03,-4.31 4.16,-4.84 4.28,-5.37 4.57,-5.83 4.86,-6.29 5.28,-6.64 5.70,-6.98 6.21,-7.17 6.71,-7.37 6.71,-7.37 6.71,-7.37 8.44,-7.58 10.16,-7.78 9.07,-7.77 7.98,-7.75 6.40,-7.27 4.82,-6.79 4.71,-5.71 4.60,-4.64 5.58,-3.96 6.57,-3.28 8.18,-2.84 9.79,-2.40 11.04,-2.94 12.29,-3.49 12.70,-4.76 13.12,-6.02 13.36,-7.23 13.60,-8.44 11.80,-8.33 10.00,-8.21 8.69,-7.94 7.39,-7.67 6.40,-6.99 5.41,-6.30 4.20,-4.00 3.00,-1.69 2.68,-0.54 2.36,0.59 2.26,0.86 2.15,1.14 1.98,1.38 1.82,1.62 1.60,1.81 1.37,2.01 1.11,2.14 0.85,2.28 0.57,2.35 0.28,2.42 -0.00,2.42 -0.30,2.42 -0.58,2.35 -0.87,2.27 -1.13,2.14 -1.39,2.00 -1.61,1.80 -1.83,1.61 -1.99,1.36 -2.16,1.12 -2.26,0.85 -2.37,0.57 -2.40,0.28 -2.44,-0.00 -2.40,-0.30 -2.36,-0.59 -2.36,-0.59 L -2.36,-0.59 Z"></path></g><g transform="translate(872 653.71875) rotate(0 5 -0.5)" stroke="none"><path fill="#000" d="M -2.19,-1.46 Q -2.19,-1.46 -1.61,-2.36 -1.03,-3.26 0.65,-4.03 2.34,-4.80 3.39,-4.47 4.44,-4.15 5.03,-3.20 5.62,-2.26 5.72,-0.93 5.83,0.39 5.73,2.13 5.64,3.88 4.97,4.93 4.30,5.98 2.64,6.51 0.98,7.05 -0.17,6.81 -1.33,6.57 -2.30,5.94 -3.27,5.31 -4.06,4.01 -4.85,2.72 -5.00,1.57 -5.16,0.42 -4.77,-1.61 -4.38,-3.65 -3.34,-5.57 -2.30,-7.49 -0.63,-7.92 1.02,-8.35 2.22,-8.07 3.42,-7.80 4.49,-7.00 5.57,-6.21 5.91,-4.51 6.25,-2.82 6.69,-1.73 7.12,-0.64 7.26,0.71 7.40,2.07 7.42,2.57 7.44,3.08 7.41,3.50 7.38,3.91 7.25,4.31 7.12,4.71 6.90,5.06 6.68,5.42 6.38,5.71 6.08,6.00 5.72,6.21 5.36,6.42 4.96,6.54 4.56,6.66 4.15,6.68 3.73,6.70 3.32,6.62 2.91,6.54 2.53,6.36 2.15,6.19 1.83,5.93 1.50,5.67 1.25,5.33 0.99,5.00 0.83,4.62 0.66,4.24 0.59,3.82 0.52,3.41 1.53,4.94 2.55,6.46 1.47,5.95 0.39,5.45 -0.52,4.50 -1.43,3.54 -1.91,1.82 -2.39,0.09 -1.65,-2.16 -0.90,-4.43 0.52,-5.23 1.95,-6.04 3.37,-6.22 4.79,-6.40 6.69,-6.91 8.58,-7.42 9.82,-7.46 11.05,-7.50 11.47,-7.46 11.89,-7.43 12.29,-7.29 12.70,-7.15 13.05,-6.93 13.41,-6.70 13.70,-6.39 14.00,-6.09 14.21,-5.72 14.42,-5.35 14.54,-4.94 14.65,-4.53 14.67,-4.11 14.68,-3.69 14.60,-3.27 14.51,-2.86 14.33,-2.47 14.15,-2.09 13.88,-1.76 13.61,-1.44 13.27,-1.18 12.93,-0.93 12.54,-0.76 12.15,-0.60 11.73,-0.53 11.31,-0.46 11.13,-3.98 10.94,-7.50 11.36,-7.47 11.79,-7.43 12.19,-7.30 12.59,-7.16 12.95,-6.93 13.30,-6.71 13.60,-6.40 13.89,-6.09 14.10,-5.73 14.31,-5.36 14.43,-4.95 14.55,-4.54 14.56,-4.12 14.58,-3.70 14.49,-3.28 14.40,-2.87 14.22,-2.48 14.04,-2.10 13.77,-1.77 13.50,-1.45 13.16,-1.19 12.82,-0.94 12.43,-0.77 12.04,-0.61 11.62,-0.54 11.20,-0.48 12.86,-1.33 14.51,-2.18 13.67,-0.02 12.82,2.13 11.80,2.77 10.78,3.41 9.37,4.20 7.96,4.98 6.75,5.15 5.54,5.32 4.47,5.56 3.40,5.79 1.96,5.85 0.52,5.90 -0.74,5.31 -2.01,4.72 -2.58,3.64 -3.16,2.56 0.17,0.90 3.51,-0.76 3.41,-0.20 3.31,0.35 3.04,0.85 2.78,1.35 2.36,1.74 1.95,2.12 1.43,2.36 0.91,2.59 0.35,2.65 -0.20,2.71 -0.76,2.58 -1.31,2.46 -1.79,2.16 -2.28,1.86 -2.64,1.43 -3.01,0.99 -3.21,0.47 -3.42,-0.05 -3.44,-0.62 -3.47,-1.18 -3.32,-1.73 -3.16,-2.28 -2.84,-2.74 -2.52,-3.21 -2.06,-3.55 -1.61,-3.89 -1.07,-4.07 -0.53,-4.24 0.03,-4.24 0.59,-4.24 1.13,-4.05 1.66,-3.87 2.11,-3.52 2.56,-3.17 2.88,-2.70 3.19,-2.23 3.34,-1.68 3.49,-1.13 3.45,-0.57 3.42,-0.00 3.20,0.51 2.99,1.04 2.62,1.47 2.25,1.90 1.76,2.19 1.27,2.47 0.72,2.59 0.16,2.71 -0.39,2.64 -0.95,2.58 -1.46,2.34 -1.98,2.10 -2.39,1.70 -2.80,1.31 -3.06,0.81 -3.32,0.30 -3.41,-0.25 -3.49,-0.81 -3.49,-0.81 -3.49,-0.81 0.00,-0.11 3.50,0.57 2.29,-0.05 1.08,-0.69 2.95,-1.13 4.82,-1.57 6.18,-1.96 7.54,-2.36 9.24,-4.93 10.94,-7.50 11.36,-7.47 11.79,-7.43 12.19,-7.30 12.59,-7.16 12.95,-6.93 13.30,-6.71 13.60,-6.40 13.89,-6.09 14.10,-5.73 14.31,-5.36 14.43,-4.95 14.55,-4.54 14.56,-4.12 14.58,-3.70 14.49,-3.28 14.40,-2.87 14.22,-2.48 14.04,-2.10 13.77,-1.77 13.50,-1.45 13.16,-1.19 12.82,-0.94 12.43,-0.77 12.04,-0.61 11.62,-0.54 11.20,-0.48 11.13,-3.99 11.05,-7.50 11.47,-7.46 11.89,-7.43 12.29,-7.29 12.70,-7.15 13.05,-6.93 13.41,-6.70 13.70,-6.39 14.00,-6.09 14.21,-5.72 14.42,-5.35 14.54,-4.94 14.65,-4.53 14.67,-4.11 14.68,-3.69 14.60,-3.27 14.51,-2.86 14.33,-2.47 14.15,-2.09 13.88,-1.76 13.61,-1.44 13.27,-1.18 12.93,-0.93 12.54,-0.76 12.15,-0.60 11.73,-0.53 11.31,-0.46 10.76,-0.46 10.20,-0.45 9.10,-0.48 7.99,-0.50 6.13,-0.37 4.28,-0.25 5.86,1.41 7.44,3.08 7.41,3.49 7.38,3.91 7.25,4.31 7.12,4.71 6.90,5.06 6.68,5.42 6.38,5.71 6.08,6.00 5.72,6.21 5.36,6.42 4.96,6.54 4.56,6.66 4.15,6.68 3.73,6.70 3.32,6.62 2.91,6.54 2.53,6.36 2.15,6.19 1.83,5.93 1.50,5.67 1.25,5.33 0.99,5.00 0.83,4.62 0.66,4.24 0.59,3.82 0.52,3.41 0.47,1.89 0.41,0.37 0.11,-1.12 -0.18,-2.61 0.95,-2.55 2.08,-2.50 1.72,-1.32 1.36,-0.14 0.69,0.93 0.02,2.01 0.45,0.88 0.88,-0.23 2.11,-0.20 3.33,-0.18 2.76,0.64 2.19,1.46 1.98,1.70 1.77,1.94 1.52,2.12 1.26,2.31 0.96,2.42 0.67,2.54 0.35,2.59 0.04,2.63 -0.27,2.60 -0.58,2.56 -0.88,2.45 -1.18,2.35 -1.45,2.17 -1.71,1.99 -1.92,1.76 -2.14,1.53 -2.29,1.25 -2.44,0.97 -2.52,0.66 -2.60,0.35 -2.61,0.04 -2.61,-0.27 -2.54,-0.58 -2.47,-0.89 -2.33,-1.17 -2.19,-1.46 -2.19,-1.46 L -2.19,-1.46 Z"></path></g><g transform="translate(669 595.71875) rotate(0 5.5 2)" stroke="none"><path fill="#000" d="M 0,-2.61 Q 0,-2.61 1.45,-2.59 2.91,-2.57 4.20,-2.26 5.49,-1.95 6.46,-1.44 7.43,-0.94 9.34,0.17 11.26,1.28 11.97,2.64 12.68,4.00 12.36,5.22 12.03,6.44 11.14,7.08 10.25,7.72 8.50,7.85 6.76,7.98 5.56,7.57 4.35,7.15 2.98,6.28 1.61,5.40 0.28,3.53 -1.04,1.66 -0.22,0.74 0.59,-0.17 1.64,-0.59 2.68,-1.02 3.90,-0.58 5.11,-0.13 5.16,0.00 5.20,0.14 5.62,-0.17 6.05,-0.50 6.55,-0.67 7.06,-0.84 7.59,-0.84 8.13,-0.85 8.64,-0.68 9.14,-0.51 9.57,-0.19 10.00,0.12 10.30,0.57 10.60,1.01 10.75,1.52 10.89,2.04 10.87,2.57 10.84,3.10 10.64,3.60 10.45,4.10 10.10,4.51 9.76,4.92 9.30,5.19 8.84,5.47 8.32,5.59 7.80,5.71 7.27,5.65 6.74,5.59 6.25,5.37 5.77,5.15 5.38,4.78 4.99,4.42 4.73,3.95 4.48,3.48 4.39,2.95 4.30,2.42 4.39,1.89 4.47,1.36 4.72,0.89 4.97,0.42 5.36,0.05 5.74,-0.31 6.23,-0.54 6.71,-0.76 7.24,-0.82 7.77,-0.88 8.30,-0.77 8.82,-0.66 9.28,-0.38 9.74,-0.11 10.08,0.29 10.43,0.69 10.63,1.19 10.83,1.68 10.86,2.22 10.89,2.75 10.75,3.27 10.61,3.78 10.31,4.23 10.02,4.67 10.02,4.67 10.02,4.67 6.67,4.54 3.33,4.42 4.11,3.66 4.89,2.91 4.81,1.43 4.73,-0.04 5.71,0.54 6.69,1.13 7.69,1.57 8.69,2.01 7.95,3.41 7.20,4.81 5.02,3.69 2.83,2.57 1.41,2.59 0,2.61 -0.31,2.57 -0.62,2.53 -0.91,2.42 -1.21,2.31 -1.47,2.13 -1.73,1.95 -1.94,1.71 -2.14,1.48 -2.29,1.20 -2.44,0.92 -2.51,0.62 -2.59,0.31 -2.59,-0.00 -2.59,-0.31 -2.51,-0.62 -2.44,-0.92 -2.29,-1.20 -2.14,-1.48 -1.94,-1.71 -1.73,-1.95 -1.47,-2.13 -1.21,-2.31 -0.91,-2.42 -0.62,-2.53 -0.31,-2.57 0.00,-2.61 0.00,-2.61 L 0,-2.61 Z"></path></g><g transform="translate(800 602.71875) rotate(0 6.5 -2.5)" stroke="none"><path fill="#000" d="M -1.80,-1.80 Q -1.80,-1.80 -0.62,-2.93 0.56,-4.06 2.18,-5.01 3.80,-5.97 5.20,-6.44 6.61,-6.91 8.83,-6.87 11.05,-6.83 12.27,-5.95 13.50,-5.08 14.19,-3.46 14.88,-1.85 14.55,-0.72 14.21,0.40 13.27,1.01 12.33,1.62 11.28,1.97 10.23,2.32 8.12,2.44 6.02,2.55 4.96,1.93 3.91,1.30 5.35,1.47 6.78,1.63 5.02,1.92 3.25,2.22 2.79,2.25 2.32,2.28 1.87,2.15 1.42,2.03 1.03,1.77 0.64,1.51 0.35,1.14 0.06,0.77 -0.08,0.33 -0.23,-0.10 -0.24,-0.57 -0.24,-1.04 -0.10,-1.48 0.04,-1.93 0.32,-2.30 0.60,-2.68 0.98,-2.94 1.37,-3.21 1.82,-3.34 2.27,-3.47 2.74,-3.45 3.20,-3.42 3.64,-3.26 4.08,-3.09 4.44,-2.79 4.80,-2.49 5.04,-2.09 5.29,-1.69 5.39,-1.23 5.49,-0.78 5.45,-0.31 5.40,0.15 5.21,0.57 5.02,1.00 4.70,1.34 4.38,1.68 3.97,1.91 3.55,2.13 3.09,2.21 2.63,2.29 2.17,2.22 1.71,2.15 1.29,1.93 0.88,1.71 0.55,1.38 0.23,1.04 0.03,0.62 -0.16,0.19 -0.22,-0.26 -0.27,-0.73 -0.18,-1.18 -0.08,-1.64 0.15,-2.05 0.39,-2.45 0.74,-2.75 1.09,-3.06 1.53,-3.24 1.96,-3.41 1.96,-3.41 1.96,-3.41 3.73,-3.93 5.50,-4.45 6.75,-3.84 8.01,-3.23 9.34,-3.58 10.68,-3.93 9.90,-3.09 9.12,-2.25 7.66,-1.99 6.20,-1.73 5.11,-1.13 4.03,-0.53 2.92,0.63 1.80,1.80 1.56,1.99 1.32,2.18 1.04,2.31 0.76,2.44 0.45,2.49 0.15,2.55 -0.15,2.53 -0.46,2.51 -0.75,2.42 -1.04,2.33 -1.31,2.17 -1.57,2.01 -1.79,1.79 -2.01,1.57 -2.17,1.31 -2.33,1.04 -2.42,0.75 -2.51,0.46 -2.53,0.15 -2.55,-0.15 -2.49,-0.45 -2.44,-0.76 -2.31,-1.04 -2.18,-1.32 -1.99,-1.56 -1.80,-1.80 -1.80,-1.80 L -1.80,-1.80 Z"></path></g><g stroke-linecap="round"><g transform="translate(596 665.71875) rotate(0 140.5 -58)"><path d="M-0.13 -0.6 C25.04 -19.83, 128.19 -96.39, 152.11 -115.75 C176.02 -135.12, 143.36 -116.89, 143.35 -116.77 C143.33 -116.65, 128.94 -132.77, 152.02 -115.05 C175.09 -97.33, 260.2 -27.8, 281.8 -10.44 M-1.65 1.7 C23.27 -17.88, 127.23 -98.15, 151.21 -117.75 C175.19 -137.34, 142.15 -115.96, 142.24 -115.86 C142.33 -115.75, 128.67 -134.7, 151.75 -117.1 C174.83 -99.51, 259.42 -28.35, 280.74 -10.28" stroke="#000000" stroke-width="1" fill="none"></path></g></g><g transform="translate(565 684.71875) rotate(0 5.5 -6)" stroke="none"><path fill="#1864ab" d="M -1.57,-1.97 Q -1.57,-1.97 -0.08,-3.05 1.39,-4.14 2.23,-4.92 3.07,-5.69 4.40,-7.29 5.74,-8.89 6.61,-9.65 7.48,-10.40 7.84,-11.10 8.20,-11.80 8.35,-12.21 8.51,-12.62 8.79,-12.95 9.07,-13.29 9.44,-13.52 9.81,-13.75 10.23,-13.85 10.66,-13.95 11.09,-13.91 11.53,-13.87 11.93,-13.69 12.33,-13.52 12.65,-13.22 12.97,-12.92 13.18,-12.54 13.39,-12.16 13.47,-11.73 13.55,-11.30 13.48,-10.87 13.42,-10.43 13.22,-10.04 13.02,-9.66 12.71,-9.35 12.39,-9.04 12.00,-8.86 11.60,-8.67 11.17,-8.61 10.74,-8.56 10.31,-8.65 9.88,-8.73 9.50,-8.95 9.13,-9.17 8.84,-9.50 8.55,-9.83 8.38,-10.24 8.21,-10.64 8.18,-11.08 8.15,-11.51 8.27,-11.93 8.38,-12.36 8.62,-12.72 8.86,-13.09 9.20,-13.36 9.54,-13.63 9.96,-13.77 10.37,-13.92 10.81,-13.92 11.24,-13.93 11.66,-13.80 12.07,-13.66 12.43,-13.40 12.78,-13.14 13.03,-12.79 13.28,-12.43 13.40,-12.01 13.52,-11.59 13.51,-11.15 13.49,-10.72 13.49,-10.72 13.49,-10.72 11.60,-8.25 9.71,-5.78 7.99,-3.89 6.26,-2.00 5.30,-1.23 4.35,-0.45 2.96,0.75 1.57,1.97 1.31,2.13 1.05,2.29 0.76,2.38 0.48,2.47 0.17,2.49 -0.12,2.52 -0.42,2.46 -0.72,2.41 -1.00,2.29 -1.28,2.17 -1.52,1.98 -1.76,1.80 -1.95,1.56 -2.14,1.32 -2.27,1.05 -2.40,0.77 -2.45,0.47 -2.51,0.17 -2.50,-0.12 -2.48,-0.42 -2.39,-0.72 -2.31,-1.01 -2.15,-1.27 -2.00,-1.53 -1.78,-1.75 -1.57,-1.97 -1.57,-1.97 L -1.57,-1.97 Z"></path></g><g transform="translate(590 687.71875) rotate(0 0.5 -3.5)" stroke="none"><path fill="#1864ab" d="M -2.31,-0.57 Q -2.31,-0.57 -2.06,-1.73 -1.81,-2.89 -1.76,-4.10 -1.71,-5.30 -2.04,-6.03 -2.37,-6.76 -2.32,-7.09 -2.26,-7.43 -2.13,-7.74 -2.00,-8.04 -1.80,-8.31 -1.60,-8.58 -1.34,-8.80 -1.08,-9.01 -0.77,-9.15 -0.47,-9.30 -0.14,-9.36 0.18,-9.43 0.52,-9.42 0.85,-9.40 1.18,-9.31 1.50,-9.22 1.79,-9.05 2.08,-8.88 2.33,-8.65 2.57,-8.41 2.75,-8.13 2.93,-7.85 3.03,-7.53 3.14,-7.21 3.17,-6.87 3.19,-6.54 2.92,-4.60 2.65,-2.67 2.56,-2.28 2.47,-1.88 2.26,-1.54 2.05,-1.20 1.75,-0.94 1.44,-0.68 1.06,-0.54 0.69,-0.39 0.28,-0.37 -0.11,-0.35 -0.50,-0.46 -0.88,-0.57 -1.21,-0.80 -1.55,-1.03 -1.79,-1.35 -2.03,-1.67 -2.15,-2.06 -2.28,-2.44 -2.28,-2.84 -2.27,-3.24 -2.14,-3.62 -2.01,-4.01 -1.76,-4.32 -1.52,-4.64 -1.18,-4.87 -0.85,-5.09 -0.46,-5.19 -0.07,-5.30 0.32,-5.27 0.72,-5.25 1.10,-5.10 1.47,-4.95 1.77,-4.68 2.08,-4.42 2.28,-4.07 2.49,-3.73 2.57,-3.33 2.66,-2.94 2.61,-2.54 2.56,-2.14 2.39,-1.77 2.22,-1.41 1.94,-1.12 1.66,-0.83 1.30,-0.64 0.95,-0.46 0.55,-0.40 0.15,-0.33 -0.24,-0.40 -0.63,-0.47 -0.99,-0.66 -1.34,-0.85 -1.62,-1.15 -1.89,-1.44 -2.06,-1.81 -2.22,-2.18 -2.26,-2.58 -2.30,-2.98 -2.30,-2.98 -2.30,-2.98 -2.34,-4.87 -2.37,-6.76 -2.32,-7.09 -2.26,-7.43 -2.13,-7.73 -2.00,-8.04 -1.80,-8.31 -1.60,-8.58 -1.34,-8.80 -1.08,-9.01 -0.77,-9.15 -0.47,-9.30 -0.14,-9.36 0.18,-9.43 0.52,-9.42 0.85,-9.40 1.18,-9.31 1.50,-9.22 1.79,-9.05 2.08,-8.88 2.33,-8.65 2.57,-8.42 2.75,-8.13 2.93,-7.85 3.03,-7.53 3.14,-7.21 3.17,-6.87 3.19,-6.54 3.38,-5.70 3.56,-4.86 3.26,-3.28 2.96,-1.70 2.63,-0.56 2.31,0.57 2.21,0.84 2.11,1.11 1.94,1.35 1.78,1.58 1.56,1.77 1.34,1.96 1.09,2.10 0.83,2.23 0.55,2.30 0.27,2.37 -0.00,2.37 -0.29,2.36 -0.57,2.29 -0.85,2.22 -1.10,2.09 -1.36,1.96 -1.57,1.76 -1.79,1.57 -1.95,1.33 -2.11,1.10 -2.21,0.83 -2.31,0.56 -2.35,0.27 -2.38,-0.00 -2.35,-0.29 -2.31,-0.57 -2.31,-0.57 L -2.31,-0.57 Z"></path></g><g transform="translate(615 685.71875) rotate(0 -4.5 -4.5)" stroke="none"><path fill="#1864ab" d="M -1.72,1.72 Q -1.72,1.72 -2.85,0.55 -3.98,-0.61 -4.90,-1.81 -5.82,-3.00 -7.79,-4.73 -9.77,-6.46 -10.10,-6.71 -10.44,-6.97 -10.67,-7.31 -10.91,-7.66 -11.02,-8.07 -11.14,-8.47 -11.11,-8.90 -11.09,-9.32 -10.93,-9.71 -10.78,-10.10 -10.51,-10.42 -10.23,-10.74 -9.87,-10.96 -9.51,-11.18 -9.10,-11.27 -8.69,-11.36 -8.27,-11.31 -7.85,-11.27 -7.47,-11.09 -7.09,-10.91 -6.78,-10.62 -6.47,-10.33 -6.28,-9.96 -6.08,-9.59 -6.01,-9.17 -5.94,-8.76 -6.01,-8.34 -6.08,-7.93 -6.28,-7.55 -6.47,-7.18 -6.78,-6.89 -7.08,-6.60 -7.47,-6.43 -7.85,-6.25 -8.27,-6.20 -8.69,-6.16 -9.10,-6.25 -9.51,-6.34 -9.87,-6.55 -10.23,-6.77 -10.51,-7.09 -10.78,-7.41 -10.93,-7.81 -11.09,-8.20 -11.11,-8.62 -11.14,-9.04 -11.02,-9.44 -10.91,-9.85 -10.67,-10.20 -10.44,-10.55 -10.10,-10.80 -9.77,-11.06 -9.37,-11.19 -8.97,-11.33 -8.55,-11.33 -8.13,-11.33 -7.73,-11.19 -7.33,-11.06 -7.33,-11.06 -7.33,-11.06 -4.60,-8.45 -1.88,-5.85 -1.24,-4.91 -0.61,-3.98 0.55,-2.85 1.72,-1.72 1.90,-1.49 2.08,-1.26 2.20,-0.99 2.32,-0.72 2.38,-0.43 2.43,-0.14 2.41,0.14 2.40,0.43 2.31,0.72 2.22,1.00 2.07,1.25 1.92,1.50 1.71,1.71 1.50,1.92 1.25,2.07 1.00,2.22 0.72,2.31 0.43,2.40 0.14,2.41 -0.14,2.43 -0.43,2.38 -0.72,2.32 -0.99,2.20 -1.26,2.08 -1.49,1.90 -1.72,1.72 -1.72,1.72 L -1.72,1.72 Z"></path></g><g transform="translate(866 668.71875) rotate(0 2.5 -2.5)" stroke="none"><path fill="#1864ab" d="M -1.83,-1.37 Q -1.83,-1.37 -0.98,-2.54 -0.12,-3.70 0.78,-4.50 1.68,-5.29 1.88,-5.50 2.08,-5.71 2.33,-5.86 2.57,-6.02 2.85,-6.11 3.12,-6.20 3.41,-6.22 3.70,-6.25 3.98,-6.20 4.27,-6.16 4.54,-6.04 4.80,-5.93 5.03,-5.76 5.27,-5.58 5.45,-5.36 5.63,-5.13 5.76,-4.87 5.88,-4.61 5.94,-4.33 6.00,-4.04 5.99,-3.75 5.97,-3.46 5.89,-3.19 5.81,-2.91 5.67,-2.66 5.53,-2.41 4.38,-1.22 3.23,-0.04 2.93,0.18 2.63,0.41 2.27,0.53 1.92,0.65 1.54,0.66 1.16,0.66 0.81,0.54 0.45,0.42 0.15,0.20 -0.14,-0.02 -0.36,-0.33 -0.57,-0.64 -0.67,-1.00 -0.78,-1.37 -0.76,-1.74 -0.74,-2.12 -0.60,-2.47 -0.46,-2.82 -0.22,-3.11 0.01,-3.40 0.33,-3.60 0.65,-3.79 1.02,-3.87 1.39,-3.96 1.76,-3.92 2.14,-3.88 2.48,-3.72 2.83,-3.57 3.10,-3.31 3.38,-3.05 3.55,-2.72 3.73,-2.39 3.80,-2.02 3.86,-1.65 3.80,-1.27 3.74,-0.90 3.57,-0.57 3.39,-0.23 3.12,0.02 2.85,0.28 2.51,0.44 2.16,0.60 1.79,0.64 1.41,0.68 1.05,0.61 0.68,0.53 0.35,0.33 0.03,0.14 -0.21,-0.13 -0.45,-0.42 -0.59,-0.77 -0.73,-1.12 -0.76,-1.50 -0.78,-1.87 -0.68,-2.24 -0.58,-2.60 -0.37,-2.91 -0.16,-3.23 -0.16,-3.23 -0.16,-3.22 0.75,-4.26 1.68,-5.29 1.88,-5.50 2.08,-5.71 2.33,-5.86 2.57,-6.02 2.85,-6.11 3.12,-6.20 3.41,-6.22 3.70,-6.25 3.98,-6.20 4.27,-6.16 4.54,-6.04 4.80,-5.93 5.03,-5.76 5.27,-5.58 5.45,-5.36 5.63,-5.13 5.76,-4.87 5.88,-4.61 5.94,-4.33 6.00,-4.04 5.99,-3.75 5.97,-3.46 5.89,-3.19 5.81,-2.91 5.67,-2.66 5.53,-2.41 4.55,-1.65 3.57,-0.89 2.70,0.24 1.83,1.37 1.64,1.57 1.45,1.77 1.21,1.92 0.98,2.07 0.72,2.15 0.46,2.24 0.18,2.27 -0.09,2.29 -0.36,2.24 -0.63,2.20 -0.89,2.09 -1.14,1.98 -1.36,1.82 -1.58,1.65 -1.76,1.44 -1.93,1.22 -2.05,0.97 -2.17,0.72 -2.23,0.45 -2.28,0.18 -2.27,-0.08 -2.26,-0.36 -2.18,-0.63 -2.11,-0.89 -1.97,-1.13 -1.83,-1.37 -1.83,-1.37 L -1.83,-1.37 Z"></path></g><g transform="translate(887 671.71875) rotate(0 -6 -5)" stroke="none"><path fill="#1864ab" d="M -1.85,1.48 Q -1.85,1.48 -2.95,0.00 -4.05,-1.47 -4.83,-2.30 -5.61,-3.13 -6.65,-3.94 -7.70,-4.76 -9.74,-6.07 -11.79,-7.38 -12.15,-7.55 -12.50,-7.72 -12.79,-8.00 -13.07,-8.28 -13.25,-8.63 -13.43,-8.98 -13.49,-9.38 -13.55,-9.77 -13.48,-10.16 -13.41,-10.55 -13.22,-10.90 -13.03,-11.24 -12.74,-11.51 -12.45,-11.78 -12.08,-11.94 -11.72,-12.10 -11.33,-12.14 -10.93,-12.18 -10.55,-12.09 -10.16,-12.00 -9.82,-11.79 -9.49,-11.58 -9.23,-11.27 -8.98,-10.97 -8.84,-10.60 -8.70,-10.23 -8.68,-9.83 -8.67,-9.43 -8.78,-9.05 -8.89,-8.67 -9.12,-8.35 -9.35,-8.02 -9.66,-7.79 -9.98,-7.55 -10.36,-7.43 -10.74,-7.31 -11.14,-7.31 -11.53,-7.32 -11.91,-7.45 -12.28,-7.58 -12.59,-7.83 -12.90,-8.07 -13.12,-8.40 -13.34,-8.74 -13.44,-9.12 -13.54,-9.50 -13.51,-9.90 -13.49,-10.29 -13.33,-10.66 -13.18,-11.03 -12.92,-11.33 -12.66,-11.62 -12.32,-11.82 -11.97,-12.02 -11.59,-12.10 -11.20,-12.18 -10.80,-12.13 -10.41,-12.08 -10.41,-12.08 -10.41,-12.08 -7.59,-10.24 -4.77,-8.40 -3.42,-7.30 -2.08,-6.20 -1.31,-5.24 -0.54,-4.27 0.65,-2.88 1.85,-1.48 2.00,-1.24 2.15,-0.99 2.24,-0.72 2.33,-0.45 2.35,-0.16 2.37,0.11 2.32,0.40 2.27,0.68 2.16,0.94 2.04,1.20 1.87,1.43 1.69,1.66 1.47,1.84 1.24,2.02 0.98,2.14 0.72,2.26 0.44,2.31 0.16,2.37 -0.11,2.35 -0.40,2.34 -0.67,2.25 -0.95,2.17 -1.19,2.03 -1.44,1.88 -1.65,1.68 -1.85,1.48 -1.85,1.48 L -1.85,1.48 Z"></path></g><g transform="translate(898 656.71875) rotate(0 -5 0)" stroke="none"><path fill="#1864ab" d="M 0,2.26 Q 0,2.26 -1.72,2.23 -3.44,2.20 -6.01,2.27 -8.57,2.33 -8.94,2.27 -9.31,2.21 -9.65,2.03 -9.98,1.85 -10.24,1.58 -10.50,1.30 -10.66,0.96 -10.82,0.62 -10.86,0.24 -10.90,-0.12 -10.82,-0.49 -10.74,-0.86 -10.54,-1.18 -10.35,-1.51 -10.06,-1.75 -9.77,-1.99 -9.42,-2.13 -9.07,-2.27 -8.69,-2.29 -8.31,-2.31 -7.95,-2.21 -7.59,-2.11 -7.27,-1.90 -6.96,-1.69 -6.73,-1.39 -6.51,-1.09 -6.39,-0.73 -6.26,-0.37 -6.26,0.00 -6.26,0.37 -6.39,0.73 -6.51,1.09 -6.73,1.39 -6.96,1.69 -7.28,1.90 -7.59,2.11 -7.95,2.21 -8.32,2.32 -8.69,2.29 -9.07,2.27 -9.42,2.13 -9.77,1.99 -10.06,1.75 -10.35,1.51 -10.54,1.18 -10.74,0.86 -10.82,0.49 -10.90,0.12 -10.86,-0.24 -10.82,-0.62 -10.66,-0.96 -10.50,-1.31 -10.24,-1.58 -9.98,-1.85 -9.65,-2.03 -9.31,-2.21 -8.94,-2.27 -8.57,-2.33 -8.57,-2.33 -8.57,-2.33 -6.01,-2.27 -3.44,-2.20 -1.72,-2.23 0,-2.26 0.27,-2.23 0.54,-2.19 0.79,-2.10 1.05,-2.00 1.27,-1.84 1.50,-1.69 1.68,-1.48 1.86,-1.28 1.98,-1.04 2.11,-0.80 2.18,-0.53 2.24,-0.27 2.24,0.00 2.24,0.27 2.18,0.53 2.11,0.80 1.98,1.04 1.86,1.28 1.68,1.49 1.50,1.69 1.27,1.84 1.05,2.00 0.79,2.10 0.54,2.19 0.27,2.23 -0.00,2.26 -0.00,2.26 L 0,2.26 Z"></path></g><g stroke-linecap="round"><g transform="translate(808 524.71875) rotate(0 0 36)"><path d="M-1.08 -0.88 C-1.17 11.05, 0.18 58.68, 0.32 71 M0.55 1.28 C0.26 13.37, -0.18 60.35, -0.47 72.01" stroke="#d9480f" stroke-width="1" fill="none"></path></g><g transform="translate(808 524.71875) rotate(0 0 36)"><path d="M-11.73 44.19 C-8.45 53.8, -1.4 65.77, -1.95 71.27 M-9.33 44.11 C-8.19 50.13, -5.15 56.42, 0.06 72.02" stroke="#d9480f" stroke-width="1" fill="none"></path></g><g transform="translate(808 524.71875) rotate(0 0 36)"><path d="M8.78 44.51 C4.48 53.82, 3.94 65.67, -1.95 71.27 M11.19 44.44 C7.39 50.31, 5.48 56.52, 0.06 72.02" stroke="#d9480f" stroke-width="1" fill="none"></path></g></g><g stroke-linecap="round"><g transform="translate(669 533.71875) rotate(0 2 34)"><path d="M0.94 0.28 C1.64 11.61, 3.67 56.27, 4.26 67.75 M-0.03 -0.62 C0.53 10.92, 2.79 57.82, 3.45 69.16" stroke="#d9480f" stroke-width="1" fill="none"></path></g><g transform="translate(669 533.71875) rotate(0 2 34)"><path d="M-7.81 41.98 C-5.16 50.67, 0.76 59.42, 4.47 69.44 M-7.68 41.92 C-3.74 51.07, -0.29 61.6, 3.67 69.62" stroke="#d9480f" stroke-width="1" fill="none"></path></g><g transform="translate(669 533.71875) rotate(0 2 34)"><path d="M12.68 40.91 C9.07 50.09, 8.73 59.16, 4.47 69.44 M12.82 40.85 C9.59 50.22, 5.88 61.12, 3.67 69.62" stroke="#d9480f" stroke-width="1" fill="none"></path></g></g></svg>