<svg version="1.1" xmlns="http://www.w3.org/2000/svg" viewBox="0 0 10020 764.609375" width="10020" height="764.609375">
  <!-- svg-source:excalidraw -->
  
  <defs>
    <style>
      @font-face {
        font-family: "Virgil";
        src: url("https://excalidraw.com/Virgil.woff2");
      }
      @font-face {
        font-family: "Cascadia";
        src: url("https://excalidraw.com/Cascadia.woff2");
      }
    </style>
  </defs>
  <rect x="0" y="0" width="10020" height="764.609375" fill="#fff0"></rect><g stroke-linecap="round" transform="translate(10 10) rotate(0 5000 0.5)"><path d="M-0.52 -0.26 C3022.65 -30.2, 6044.59 -29.2, 9999.32 0.22 M0.38 -0.31 C3948.03 -0.44, 7895.41 0.2, 9999.95 0.08 M10000.08 -0.06 C10000.09 0.27, 10000.05 0.48, 10000.09 0.92 M9999.97 0.01 C9999.95 0.33, 9999.98 0.72, 10000 0.99 M10000.22 1.51 C7095.77 35.76, 4193.15 34.95, -0.25 0.75 M10000.01 1.13 C7827.97 2.74, 5656.23 3.35, -0.33 0.84 M-0.04 1.01 C0 0.63, -0.06 0.15, 0.05 -0.03 M-0.04 0.95 C-0.04 0.73, -0.03 0.59, -0.05 -0.02" stroke="transparent" stroke-width="1" fill="none"></path></g><g stroke-linecap="round"><g transform="translate(780 743.609375) rotate(0 -2 -106.5)"><path d="M0.51 0.78 C0.03 -34.74, -2.18 -178.31, -2.88 -214.11 M-0.68 0.14 C-1.23 -35.19, -2.63 -177.59, -3.25 -213.16" stroke="#000" stroke-width="1" fill="none"></path></g><g transform="translate(780 743.609375) rotate(0 -2 -106.5)"><path d="M8.68 -183.24 C2.57 -193.06, -0.49 -201.42, -2.33 -214.52 M7.37 -184.2 C4.39 -192.22, 2.14 -198.96, -3.96 -213.23" stroke="#000" stroke-width="1" fill="none"></path></g><g transform="translate(780 743.609375) rotate(0 -2 -106.5)"><path d="M-11.84 -182.98 C-11.79 -192.95, -8.69 -201.4, -2.33 -214.52 M-13.15 -183.93 C-10.94 -191.95, -7.99 -198.75, -3.96 -213.23" stroke="#000" stroke-width="1" fill="none"></path></g></g><g stroke-linecap="round"><g transform="translate(723 717.609375) rotate(0 154.5 -2)"><path d="M-0.08 -0.28 C51.63 -0.84, 258.36 -3.02, 309.69 -3.77 M-1.59 -1.47 C50.09 -2.38, 257.13 -5.37, 309.1 -5.77" stroke="#000" stroke-width="1" fill="none"></path></g><g transform="translate(723 717.609375) rotate(0 154.5 -2)"><path d="M280.57 5.96 C288.44 0.39, 293.7 0.02, 308.69 -6.34 M280.39 3.91 C287.51 2.68, 294.73 -1.44, 308.77 -4.78" stroke="#000" stroke-width="1" fill="none"></path></g><g transform="translate(723 717.609375) rotate(0 154.5 -2)"><path d="M280.33 -14.56 C288.19 -15.02, 293.5 -10.28, 308.69 -6.34 M280.15 -16.61 C287.38 -12.68, 294.67 -11.63, 308.77 -4.78" stroke="#000" stroke-width="1" fill="none"></path></g></g><g stroke-linecap="round"><g transform="translate(798 754.609375) rotate(0 113.5 -106.5)"><path d="M-0.15 0.52 C3.17 -11.47, 8.38 -55.15, 20.19 -71.15 C32 -87.14, 60.77 -82.29, 70.71 -95.46 C80.65 -108.63, 73.12 -136.3, 79.82 -150.16 C86.52 -164.03, 88.87 -168.8, 110.9 -178.63 C132.92 -188.46, 192.57 -203.41, 211.97 -209.15 C231.37 -214.9, 224.95 -212.32, 227.29 -213.1 M-1.68 -0.25 C1.46 -12.12, 7.43 -54, 19.34 -69.68 C31.25 -85.37, 59.77 -81.14, 69.79 -94.38 C79.81 -107.62, 72.85 -135.12, 79.45 -149.15 C86.05 -163.18, 87.05 -168.9, 109.37 -178.57 C131.69 -188.23, 193.58 -201.15, 213.37 -207.14 C233.15 -213.13, 225.62 -213.26, 228.09 -214.5" stroke="#d9480f" stroke-width="1" fill="none"></path></g></g><g stroke-linecap="round"><g transform="translate(874 555.609375) rotate(0 1.5 97)"><path d="M-0.83 -1.03 C-0.46 31.48, 1.55 161.52, 2.37 194.08 M0.94 1.04 C1.69 33.86, 4.26 163.81, 4.76 195.67" stroke="#1864ab" stroke-width="1" fill="none"></path></g></g><g transform="translate(901 729.609375) rotate(0 13 12.5)"><text x="0" y="18" font-family="Virgil, Segoe UI Emoji" font-size="20px" fill="#1864ab" text-anchor="start" style="white-space: pre;" direction="ltr">x0</text></g><g transform="translate(706 646.609375) rotate(0 25.5 12.5)"><text x="0" y="18" font-family="Virgil, Segoe UI Emoji" font-size="20px" fill="#1864ab" text-anchor="start" style="white-space: pre;" direction="ltr">f(x0)</text></g><g stroke-linecap="round"><g transform="translate(771 644.609375) rotate(0 89 -4)"><path d="M0.07 0.92 C29.59 -0.22, 147.98 -6.44, 177.83 -8.01 M-1.36 0.36 C27.93 -0.48, 146.73 -5.17, 176.8 -6.47" stroke="#1864ab" stroke-width="1" fill="none"></path></g></g></svg>