<svg version="1.1" xmlns="http://www.w3.org/2000/svg" viewBox="0 0 10020 727.125" width="10020" height="727.125">
  <!-- svg-source:excalidraw -->
  
  <defs>
    <style>
      @font-face {
        font-family: "Virgil";
        src: url("https://excalidraw.com/Virgil.woff2");
      }
      @font-face {
        font-family: "Cascadia";
        src: url("https://excalidraw.com/Cascadia.woff2");
      }
    </style>
  </defs>
  <rect x="0" y="0" width="10020" height="727.125" fill="#fff0"></rect><g stroke-linecap="round" transform="translate(10 10) rotate(0 5000 0.5)"><path d="M-0.52 -0.26 C3022.65 -30.2, 6044.59 -29.2, 9999.32 0.22 M0.38 -0.31 C3948.03 -0.44, 7895.41 0.2, 9999.95 0.08 M10000.08 -0.06 C10000.09 0.27, 10000.05 0.48, 10000.09 0.92 M9999.97 0.01 C9999.95 0.33, 9999.98 0.72, 10000 0.99 M10000.22 1.51 C7095.77 35.76, 4193.15 34.95, -0.25 0.75 M10000.01 1.13 C7827.97 2.74, 5656.23 3.35, -0.33 0.84 M-0.04 1.01 C0 0.63, -0.06 0.15, 0.05 -0.03 M-0.04 0.95 C-0.04 0.73, -0.03 0.59, -0.05 -0.02" stroke="transparent" stroke-width="1" fill="none"></path></g><g stroke-linecap="round" transform="translate(585.453125 606.125) rotate(0 52 45.5)"><path d="M1.56 -0.27 C21.37 -0.75, 47.1 0.65, 103.24 0.06 M0.16 0.99 C34.41 0.02, 68.51 0.69, 104.74 -0.58 M103.7 -0.79 C103.45 20.21, 105.52 42.16, 103.23 90.91 M103.3 -0.81 C104.63 28.63, 104.56 57.83, 103.21 90.21 M104.4 91.58 C68.5 92.13, 32.67 90.31, -1.12 92.91 M104.78 90.28 C66.61 91.67, 29.59 91.78, -0.81 91.81 M-1.52 92.91 C0.96 61.11, 0.11 29.41, -1.67 -1.27 M0.59 90.34 C0 67.27, 0.09 41.94, 0.32 -0.28" stroke="#000" stroke-width="1" fill="none"></path></g><g stroke-linecap="round" transform="translate(797.453125 591.625) rotate(0 65.5 59.5)"><path d="M0.4 0.58 C45.28 0.3, 90.23 -1.52, 129.88 1.91 M0.78 -0.72 C46.29 -1.51, 92.96 -1.41, 130.19 0.81 M129.48 1.91 C131.28 41.77, 130.43 81.73, 129.33 117.73 M131.59 -0.66 C131.73 32.47, 131.81 63.34, 131.32 118.72 M130.87 118.09 C93.7 119.16, 53.96 119.32, 1.56 119.05 M131.97 118.79 C92.68 118.69, 53.5 119.29, 0.12 119.1 M0.38 117.96 C2.35 85.69, 1.79 57.95, -0.81 1.81 M-0.97 119.68 C0.74 90.93, -0.16 64.01, 0.62 0.19" stroke="#000" stroke-width="1" fill="none"></path></g><g transform="translate(590.453125 639.125) rotate(0 47 12.5)"><text x="47" y="18" font-family="Virgil, Segoe UI Emoji" font-size="20px" fill="#000" text-anchor="middle" style="white-space: pre;" direction="ltr">Motore</text></g><g transform="translate(802.453125 638.625) rotate(0 60.5 12.5)"><text x="60.499999999999986" y="18" font-family="Virgil, Segoe UI Emoji" font-size="20px" fill="#000" text-anchor="middle" style="white-space: pre;" direction="ltr">Utilizzatore</text></g><g stroke-linecap="round"><g transform="translate(702.453125 651.125) rotate(0 40 0.5)"><path d="M-0.46 0.48 C12.61 0.51, 65.79 0.02, 79.19 0.11 M1.51 -0.31 C14.89 -0.15, 68.54 0.73, 81.48 1.19" stroke="#000" stroke-width="1" fill="none"></path></g><g transform="translate(702.453125 651.125) rotate(0 40 0.5)"><path d="M53.85 9.42 C61.97 7.28, 73.94 2.37, 82.05 1.97 M52.48 10.19 C60.24 9.23, 68.49 5.61, 81.99 1.34" stroke="#000" stroke-width="1" fill="none"></path></g><g transform="translate(702.453125 651.125) rotate(0 40 0.5)"><path d="M54.35 -11.09 C62.28 -5.73, 74.06 -3.15, 82.05 1.97 M52.98 -10.33 C60.58 -5.94, 68.7 -4.23, 81.99 1.34" stroke="#000" stroke-width="1" fill="none"></path></g></g><g transform="translate(729.453125 667.125) rotate(0 6.5 25)"><text x="0" y="18" font-family="Virgil, Segoe UI Emoji" font-size="20px" fill="#000" text-anchor="start" style="white-space: pre;" direction="ltr">E</text><text x="0" y="43" font-family="Virgil, Segoe UI Emoji" font-size="20px" fill="#000" text-anchor="start" style="white-space: pre;" direction="ltr">t</text></g><g stroke-linecap="round"><g transform="translate(723.453125 692.125) rotate(0 10.5 -0.5)"><path d="M-0.48 0.64 C2.88 0.36, 17.21 -0.4, 20.8 -0.81 M1.46 -0.07 C4.59 -0.21, 16.6 0.97, 19.75 0.82" stroke="#000" stroke-width="1" fill="none"></path></g></g><g transform="translate(703.453125 594.125) rotate(0 41 12.5)"><text x="0" y="18" font-family="Virgil, Segoe UI Emoji" font-size="20px" fill="#000" text-anchor="start" style="white-space: pre;" direction="ltr">Potenza</text></g><g stroke-linecap="round"><g transform="translate(597.453125 524.125) rotate(0 0.5 35.5)"><path d="M0.4 -0.53 C0.68 11.05, 1.41 58.86, 1.45 70.6 M-0.84 1.81 C-0.67 14.07, 0.65 60.46, 0.74 71.93" stroke="#000" stroke-width="1" fill="none"></path></g><g transform="translate(597.453125 524.125) rotate(0 0.5 35.5)"><path d="M-10.95 44.69 C-7.42 51.22, -5.57 60.63, 2.01 70.43 M-9.31 44.57 C-6.45 53.58, -3.39 60.87, 1.27 72.1" stroke="#000" stroke-width="1" fill="none"></path></g><g transform="translate(597.453125 524.125) rotate(0 0.5 35.5)"><path d="M9.57 44.29 C7.3 51, 3.34 60.53, 2.01 70.43 M11.21 44.17 C7.47 53.4, 3.95 60.81, 1.27 72.1" stroke="#000" stroke-width="1" fill="none"></path></g></g><g transform="translate(620.453125 507.125) rotate(0 42 50)"><text x="0" y="18" font-family="Virgil, Segoe UI Emoji" font-size="20px" fill="#000" text-anchor="start" style="white-space: pre;" direction="ltr">Corrente</text><text x="0" y="43" font-family="Virgil, Segoe UI Emoji" font-size="20px" fill="#000" text-anchor="start" style="white-space: pre;" direction="ltr">Benzina</text><text x="0" y="68" font-family="Virgil, Segoe UI Emoji" font-size="20px" fill="#000" text-anchor="start" style="white-space: pre;" direction="ltr">Diesel</text><text x="0" y="93" font-family="Virgil, Segoe UI Emoji" font-size="20px" fill="#000" text-anchor="start" style="white-space: pre;" direction="ltr">....</text></g></svg>