<svg version="1.1" xmlns="http://www.w3.org/2000/svg" viewBox="0 0 10020 842.390625" width="10020" height="842.390625">
  <!-- svg-source:excalidraw -->
  
  <defs>
    <style>
      @font-face {
        font-family: "Virgil";
        src: url("https://excalidraw.com/Virgil.woff2");
      }
      @font-face {
        font-family: "Cascadia";
        src: url("https://excalidraw.com/Cascadia.woff2");
      }
    </style>
  </defs>
  <rect x="0" y="0" width="10020" height="842.390625" fill="#fff0"></rect><g stroke-linecap="round" transform="translate(10 10) rotate(0 5000 0.5)"><path d="M-0.52 -0.26 C3022.65 -30.2, 6044.59 -29.2, 9999.32 0.22 M0.38 -0.31 C3948.03 -0.44, 7895.41 0.2, 9999.95 0.08 M10000.08 -0.06 C10000.09 0.27, 10000.05 0.48, 10000.09 0.92 M9999.97 0.01 C9999.95 0.33, 9999.98 0.72, 10000 0.99 M10000.22 1.51 C7095.77 35.76, 4193.15 34.95, -0.25 0.75 M10000.01 1.13 C7827.97 2.74, 5656.23 3.35, -0.33 0.84 M-0.04 1.01 C0 0.63, -0.06 0.15, 0.05 -0.03 M-0.04 0.95 C-0.04 0.73, -0.03 0.59, -0.05 -0.02" stroke="transparent" stroke-width="1" fill="none"></path></g><g stroke-linecap="round"><g transform="translate(597.5 747.390625) rotate(0 231 -89)"><path d="M0.25 -0.59 C16.75 -6.3, 75.89 -19.21, 99.51 -33.52 C123.12 -47.84, 108.22 -73.26, 141.93 -86.49 C175.65 -99.72, 261.78 -99.98, 301.79 -112.88 C341.8 -125.79, 355.16 -152.94, 382.01 -163.91 C408.86 -174.88, 449.67 -176.42, 462.9 -178.69 M-1.07 1.71 C15.27 -3.9, 75.04 -17.21, 98.83 -32.26 C122.62 -47.3, 107.81 -75.32, 141.66 -88.56 C175.51 -101.81, 262.11 -98.71, 301.92 -111.72 C341.74 -124.72, 354.01 -155.82, 380.54 -166.61 C407.08 -177.4, 447.6 -174.44, 461.12 -176.43" stroke="#e67700" stroke-width="1" fill="none"></path></g></g><g stroke-linecap="round"><g transform="translate(683.5 824.390625) rotate(0 -1 -145)"><path d="M-0.59 0.51 C-1.14 -47.71, -2.37 -240.61, -2.52 -289.07 M1.3 -0.27 C0.49 -48.84, -3.2 -242.58, -3.74 -290.7" stroke="#000000" stroke-width="1" fill="none"></path></g><g transform="translate(683.5 824.390625) rotate(0 -1 -145)"><path d="M7.81 -263.54 C4.59 -272.01, -1.19 -282.8, -3.73 -288.88 M7.38 -261.89 C3.9 -273.93, -1.42 -282.78, -4.28 -290.74" stroke="#000000" stroke-width="1" fill="none"></path></g><g transform="translate(683.5 824.390625) rotate(0 -1 -145)"><path d="M-12.71 -263.22 C-8.51 -271.7, -6.87 -282.61, -3.73 -288.88 M-13.14 -261.57 C-8.93 -273.63, -6.55 -282.59, -4.28 -290.74" stroke="#000000" stroke-width="1" fill="none"></path></g></g><g stroke-linecap="round"><g transform="translate(643.5 786.390625) rotate(0 180 -0.5)"><path d="M0.51 -0.52 C60.62 -0.5, 301.05 -0.43, 360.93 -0.49 M-0.68 1.82 C59.33 1.53, 300.54 -2.12, 360.48 -2.34" stroke="#000000" stroke-width="1" fill="none"></path></g><g transform="translate(643.5 786.390625) rotate(0 180 -0.5)"><path d="M331.52 9.76 C342.32 4.34, 350.68 1.33, 362.29 -0.84 M333.17 8.99 C338.56 5.01, 347.04 2.43, 360.44 -2.71" stroke="#000000" stroke-width="1" fill="none"></path></g><g transform="translate(643.5 786.390625) rotate(0 180 -0.5)"><path d="M331.31 -10.76 C342.07 -9.59, 350.51 -6.01, 362.29 -0.84 M332.96 -11.53 C338.3 -10.53, 346.83 -8.13, 360.44 -2.71" stroke="#000000" stroke-width="1" fill="none"></path></g></g><g stroke-linecap="round"><g transform="translate(704.5 707.390625) rotate(0 0.5 40)"><path d="M-0.52 0.93 C-0.17 14.15, 1.24 66.61, 1.51 79.79 M1.41 0.38 C1.69 13.73, 1 67.72, 0.83 81.21" stroke="#1864ab" stroke-width="1" fill="none"></path></g></g><g transform="translate(697.5 788.390625) rotate(0 7 12.5)"><text x="0" y="18" font-family="Virgil, Segoe UI Emoji" font-size="20px" fill="#1864ab" text-anchor="start" style="white-space: pre;" direction="ltr">a</text></g><g transform="translate(872.5 795.390625) rotate(0 5.5 12.5)"><text x="0" y="18" font-family="Virgil, Segoe UI Emoji" font-size="20px" fill="#1864ab" text-anchor="start" style="white-space: pre;" direction="ltr">b</text></g><g stroke-linecap="round"><g transform="translate(879.5 642.390625) rotate(0 -1 70)"><path d="M-0.21 0.12 C-0.7 23.55, -1.84 117.89, -1.99 141.09 M-1.78 -0.87 C-2.51 22.21, -3 116.01, -2.93 139.54" stroke="#1864ab" stroke-width="1" fill="none"></path></g></g><g transform="translate(1029.5 787.390625) rotate(0 6 12.5)"><text x="0" y="18" font-family="Virgil, Segoe UI Emoji" font-size="20px" fill="#000000" text-anchor="start" style="white-space: pre;" direction="ltr">x</text></g><g transform="translate(650.5 535.390625) rotate(0 5 12.5)"><text x="0" y="18" font-family="Virgil, Segoe UI Emoji" font-size="20px" fill="#000000" text-anchor="start" style="white-space: pre;" direction="ltr">y</text></g><g transform="translate(1075.5 562.390625) rotate(0 5.5 12.5)"><text x="0" y="18" font-family="Virgil, Segoe UI Emoji" font-size="20px" fill="#e67700" text-anchor="start" style="white-space: pre;" direction="ltr">f</text></g><g stroke-linecap="round"><g transform="translate(708.3221616509645 782.390625) rotate(0 80.10176164923341 -70)" fill-rule="evenodd"><path d="M5.44 -107.9 C5.44 -107.9, 5.44 -107.9, 5.44 -107.9 M5.44 -107.9 C5.44 -107.9, 5.44 -107.9, 5.44 -107.9 M4.05 -97.89 C6.04 -103.86, 14.73 -112.24, 16.24 -114.34 M2.1 -98.05 C7.5 -102.63, 11.5 -107, 15.48 -114.64 M1.17 -93.85 C9.43 -98.8, 11.93 -104.06, 19.88 -112.76 M2.46 -91.92 C6.98 -98.63, 13.8 -104.63, 21.17 -112.99 M0.69 -85.03 C13.94 -96.6, 23 -110.84, 31.5 -117.98 M1.27 -86.1 C12.1 -99.05, 23.77 -110.83, 29.61 -118.08 M2.84 -78.42 C10.33 -89.34, 14.6 -95.73, 37.62 -118.63 M1.49 -78.94 C16.88 -95.67, 30.57 -112.47, 37.56 -120 M1.51 -73.03 C15.73 -90.42, 33.13 -111.93, 45.94 -121.75 M1.38 -71.26 C17.46 -90.73, 33.36 -110.88, 45.17 -123.27 M0.81 -67.01 C17 -85.29, 37.65 -107.15, 53.45 -125.63 M1.09 -66.54 C18.66 -87.67, 34.15 -105.24, 52.09 -124.75 M2.51 -61.71 C16.27 -77.44, 31.21 -93.88, 57.61 -125.93 M2.19 -60.08 C15.17 -74.34, 27.74 -89.12, 58.79 -126.83 M1.83 -57.18 C29.25 -85.56, 52.29 -113.51, 65.05 -129.86 M1.46 -55.48 C25.95 -83.17, 50.68 -112.43, 67.22 -130.62 M4.15 -49.66 C23.01 -70.34, 41.71 -95.29, 75.51 -133.94 M1.79 -49.29 C29.67 -80.24, 55.01 -110.52, 74.94 -132.89 M0.35 -41.31 C27.55 -72.42, 50.08 -101.92, 79.82 -136.25 M1.42 -43.73 C33.5 -77.72, 63.88 -112.23, 81.04 -135.22 M1.28 -37.04 C29.9 -65.94, 56.42 -96.53, 93.08 -140.23 M2.61 -36.61 C30.29 -69.9, 58.96 -101.2, 91.46 -141.03 M1.9 -29.87 C22.66 -57.86, 43.81 -81.49, 100.2 -144.04 M1.76 -31.76 C36.16 -68.06, 68.48 -107.82, 98.58 -141.88 M3.1 -25.59 C44.59 -71.58, 84.7 -117.84, 104.25 -141.77 M3.32 -24.74 C22.3 -50.57, 44.51 -73.43, 105.58 -143.77 M3.09 -19.35 C33 -54.51, 65.67 -91.78, 113.16 -146.75 M3.24 -18.5 C23.5 -45.09, 46.37 -71.69, 113.29 -145.58 M3.25 -12.35 C28.97 -39.29, 51.86 -67.79, 120.51 -145.67 M2.9 -13.08 C31.42 -46.62, 60.66 -79, 118.97 -146.15 M3.55 -8.35 C51.21 -61.43, 98.47 -119.34, 125.94 -146.24 M2.58 -7.32 C36.23 -45.1, 69.51 -83.22, 124.83 -147.08 M2.43 -0.16 C28.99 -29.41, 56.37 -60.9, 129.21 -148.8 M1.37 1.75 C40.03 -43.49, 78.25 -86.54, 130.1 -149.38 M5.29 2.74 C47.08 -44.24, 86.54 -90.37, 133.55 -146.92 M5.77 2.13 C34.06 -28.35, 58.43 -58.34, 134.5 -147.11 M9.52 2.71 C42.7 -36.37, 73.86 -73.02, 138.07 -147.59 M10.76 2.33 C41.73 -32.33, 72.63 -67.19, 138.7 -146.67 M16.71 4.19 C58.08 -44.7, 102.45 -97.21, 146 -147.54 M16.09 2.51 C65.3 -55.76, 117.71 -114.66, 144.55 -146.13 M18.83 3.11 C67.97 -49.93, 112.91 -104.59, 148.42 -148.11 M20.48 2.9 C52.82 -34.72, 86.39 -73.26, 151.01 -147.23 M24.75 6.03 C52.95 -26.98, 79.85 -59.33, 156.41 -144.65 M24.27 3.8 C52.28 -26.6, 79 -59.37, 154.22 -145.78 M30.91 5.25 C78.73 -54.2, 129.38 -108.95, 158.83 -143.14 M30.09 3.69 C72.02 -45.52, 115.67 -95.85, 157.43 -143.4 M33.96 4.69 C62.5 -26.65, 89.62 -59.99, 160.36 -139.83 M35.58 4 C80.64 -48.52, 128.4 -103.03, 161.1 -142.18 M38.02 6.27 C90.41 -48.58, 136.85 -106.91, 164.16 -137.57 M38.74 4.45 C85.99 -48.23, 130.88 -100.3, 163.56 -138.07 M42 4.78 C85.85 -41.37, 126 -85.73, 165.09 -133.75 M43.27 6.86 C84.76 -42.61, 126.01 -88.92, 166.37 -133.91 M50.84 6.25 C96.39 -46.95, 141.53 -100.56, 170.36 -130.36 M47.91 6.46 C82.09 -29.91, 113.44 -65.16, 168.97 -130.56 M52.21 5.84 C79.51 -19.51, 102.36 -46.08, 168.21 -124.65 M53.19 6.69 C94.01 -35.76, 132.8 -80.56, 169.48 -126.56 M59.09 6.97 C82.09 -21.75, 110.67 -51.76, 173.1 -121.02 M58.05 7.28 C101.91 -42.95, 144.92 -94.23, 171.89 -123.16 M64.37 8.38 C104.01 -38.28, 149.73 -89.21, 171.76 -118.09 M62.55 8.3 C99.77 -33.68, 135.62 -75.43, 172.23 -118.42 M69.54 10.11 C103.05 -32.95, 140.86 -71.54, 173.76 -114.13 M68.56 9 C107.79 -37.16, 148.16 -81.9, 175.14 -113.67 M71.28 8.56 C105.75 -31.21, 142.3 -73.58, 174.83 -107.66 M72.47 9.82 C97.16 -19.02, 123.18 -49.41, 175.34 -109.23 M76.07 11.59 C114.22 -30.02, 145.55 -67.97, 177.49 -104.58 M77.82 10.49 C105.34 -22.06, 133.26 -54.55, 176.23 -102.55 M80.83 12.49 C104.05 -14.83, 126.18 -39.86, 175.6 -96.79 M82.06 10.86 C118.94 -32.14, 154.07 -73.58, 176.57 -97.95 M87.57 12.99 C111.51 -18.79, 136.79 -46.28, 179.78 -93.08 M87.19 10.92 C112.48 -16.75, 136.66 -44.65, 177.91 -92.52 M89.97 10.47 C115.62 -17.95, 140.29 -45.15, 179.29 -87.21 M92.42 12.87 C121.04 -23.19, 153.21 -58.4, 178.59 -87.29 M98.02 11.81 C127.41 -22.08, 155.31 -54.91, 178.61 -81.12 M96.96 11.95 C120.7 -16, 145.72 -45, 178.33 -81.49 M101.35 11.74 C120.4 -10.86, 144.35 -34.39, 180.18 -76.71 M101.26 13.77 C129.03 -17.86, 154.61 -49.48, 179.06 -75.41 M105.79 14.26 C122.94 -4.22, 138.55 -24.49, 180.26 -70.29 M107.75 12.57 C124.45 -7.59, 141.21 -26.59, 178.84 -69.87 M111.39 12.97 C126.59 -3.43, 141.5 -19.6, 179.63 -60.9 M112.91 12.57 C133.59 -9.85, 152.98 -34.52, 178.62 -61.67 M117.65 11.24 C131.4 -3.24, 148.95 -21.51, 176.8 -54.22 M118.5 13.01 C138.83 -11.54, 158.48 -33.54, 177.5 -56.5 M122.89 13.53 C137.63 -3.69, 152.14 -17.61, 176.74 -48.18 M123.05 12.52 C139.84 -7.04, 157.89 -27.52, 175.55 -47.65 M128.14 15.09 C141.67 -1.39, 155.51 -16.61, 173.37 -38.86 M125.8 15.59 C142.5 -4.31, 160.66 -24.75, 174.33 -38.96 M133.07 15.48 C143.93 2.14, 155.08 -8.1, 174.3 -34.06 M132.66 15.18 C141.8 1.6, 153.24 -9.03, 173.72 -31.45 M140.06 13.8 C150.7 2.2, 160.66 -12.92, 172.06 -26.99 M138.41 12.81 C149.72 1.53, 160.41 -10.4, 173.21 -26.08 M144.11 12.02 C151.48 5.07, 160.45 -3.29, 168.19 -13.56 M144.58 12.84 C151.18 5.34, 158.35 -3.21, 168.02 -16.08" stroke="#4c6ef5" stroke-width="0.5" fill="none"></path><path d="M0.9 -0.69 C0.8 -13.78, -3.88 -58.43, -0.61 -77.49 C2.66 -96.55, -6.14 -104.03, 20.52 -115.05 C47.18 -126.07, 136.63 -163.19, 159.37 -143.62 C182.1 -124.05, 183.48 -21.5, 156.91 2.36 C130.34 26.22, 26.14 -0.2, -0.05 -0.45 M-0.09 1.56 C0.21 -11.38, -1.6 -59.6, 1.79 -79.35 C5.18 -99.09, -5.99 -106.31, 20.24 -116.9 C46.48 -127.48, 136.54 -162.72, 159.17 -142.84 C181.81 -122.95, 182.35 -21.11, 156.05 2.41 C129.74 25.93, 27.3 -1.32, 1.34 -1.72" stroke="transparent" stroke-width="1" fill="none"></path></g></g><g stroke-linecap="round"><g transform="translate(705.5 782.390625) rotate(0 9.5 -36)"><path d="M-0.69 -0.61 C-1.12 -13.27, -5.26 -62.52, -1.49 -75.06 C2.28 -87.6, 18.3 -89.21, 21.95 -75.84 C25.59 -62.47, 20.65 -8.14, 20.38 5.16 M1.15 1.69 C0.51 -11.37, -5.59 -63.92, -2.17 -76.69 C1.25 -89.47, 17.94 -88.28, 21.68 -74.96 C25.43 -61.64, 20.22 -10, 20.3 3.21" stroke="#5c940d" stroke-width="1" fill="none"></path></g></g><g stroke-linecap="round"><g transform="translate(725.5 785.390625) rotate(0 10 -50.5)"><path d="M-0.61 0.51 C-0.93 -16.55, -4.69 -86.03, -1.06 -103.05 C2.57 -120.07, 17.13 -119.19, 21.16 -101.62 C25.2 -84.05, 23.03 -15, 23.16 2.36 M1.28 -0.27 C0.79 -17.59, -5.24 -87.95, -1.52 -104.68 C2.2 -121.4, 19.97 -118.59, 23.62 -100.63 C27.26 -82.66, 20.88 -14.1, 20.35 3.12" stroke="#5c940d" stroke-width="1" fill="none"></path></g></g><g stroke-linecap="round"><g transform="translate(746.5 784.390625) rotate(0 16 -61)"><path d="M0.51 0.94 C1.11 -16.77, -2.2 -86.54, 2.95 -106.84 C8.09 -127.13, 27.81 -138.64, 31.38 -120.84 C34.95 -103.04, 25.5 -20.15, 24.36 -0.05 M-0.68 0.38 C-0.09 -17.14, -2.66 -85.25, 2.5 -105.74 C7.66 -126.23, 26.66 -140.37, 30.29 -122.58 C33.92 -104.78, 24.9 -19.41, 24.27 1.03" stroke="#5c940d" stroke-width="1" fill="none"></path></g></g><g stroke-linecap="round"><g transform="translate(775.3475476214662 778.4245912511833) rotate(0 15 -58)"><path d="M0.94 0.95 C1.4 -17.07, -2.87 -88.02, 2.16 -107.62 C7.2 -127.22, 27.36 -134.5, 31.16 -116.64 C34.96 -98.78, 26.02 -20.04, 24.95 -0.45 M-0.03 0.4 C0.86 -17.51, -0.74 -87.06, 4.43 -106.41 C9.61 -125.75, 27.54 -133.47, 31 -115.66 C34.46 -97.86, 26.48 -19.15, 25.17 0.42" stroke="#5c940d" stroke-width="1" fill="none"></path></g></g><g stroke-linecap="round"><g transform="translate(799.3475476214662 775.4245912511833) rotate(0 15 -58.5)"><path d="M0.95 -0.84 C1.26 -19.47, -2.35 -91.47, 2.38 -110.84 C7.12 -130.21, 25.66 -135.48, 29.36 -117.05 C33.05 -98.61, 25.13 -19.82, 24.55 -0.22 M-0.01 1.34 C0.65 -17.68, 0.06 -92.84, 4.77 -112.36 C9.48 -131.87, 24.95 -134.61, 28.25 -115.75 C31.55 -96.9, 25.12 -18.73, 24.57 0.77" stroke="#5c940d" stroke-width="1" fill="none"></path></g></g><g stroke-linecap="round"><g transform="translate(826.3475476214662 774.4245912511833) rotate(0 13 -56)"><path d="M-0.84 -0.62 C-0.3 -19.55, -0.31 -94, 4.16 -112.64 C8.62 -131.28, 22.52 -131.37, 25.95 -112.45 C29.39 -93.52, 24.85 -17.72, 24.78 0.9 M0.92 1.67 C1.32 -17.2, -0.22 -92.6, 3.82 -111.44 C7.86 -130.28, 21.65 -129.74, 25.16 -111.36 C28.68 -92.99, 25.04 -19.63, 24.91 -1.18" stroke="#5c940d" stroke-width="1" fill="none"></path></g></g><g stroke-linecap="round"><g transform="translate(854.3475476214662 772.4245912511833) rotate(0 12 -60.5)"><path d="M-0.62 1.16 C-1.55 -16.54, -9.34 -86.65, -4.64 -107.05 C0.05 -127.44, 22.46 -139.15, 27.55 -121.22 C32.64 -103.28, 26.44 -19.5, 25.9 0.57 M1.26 0.72 C0.64 -16.71, -6.48 -85.41, -2.27 -105.53 C1.95 -125.66, 21.74 -137.32, 26.55 -120.02 C31.37 -102.71, 26.69 -21.55, 26.62 -1.69" stroke="#5c940d" stroke-width="1" fill="none"></path></g></g><g stroke-linecap="round"><g transform="translate(881.5 641.390625) rotate(0 -15 74.5)"><path d="M1.16 -0.64 C-3.71 1.89, -25.32 -10.54, -30.05 14.55 C-34.78 39.64, -27.82 127.61, -27.22 149.9 M0.31 1.63 C-4.65 4.38, -26.29 -8.54, -31.02 15.86 C-35.75 40.26, -28.95 125.83, -28.1 148.03" stroke="#a61e4d" stroke-width="1" fill="none"></path></g></g><g stroke-linecap="round"><g transform="translate(853.5 642.390625) rotate(0 -13 75.5)"><path d="M-0.64 -0.05 C-4.95 3.22, -22.54 -4.49, -26.45 20.78 C-30.36 46.05, -24.22 130, -24.1 151.57 M1.22 -1.12 C-3.23 2.85, -23.36 -2.9, -27.63 22.2 C-31.9 47.31, -24.69 128.08, -24.39 149.52" stroke="#a61e4d" stroke-width="1" fill="none"></path></g></g><g stroke-linecap="round"><g transform="translate(832.8370105117726 640.3809804758057) rotate(0 -13.5 75.5)"><path d="M-0.05 -0.45 C-4.78 4.31, -23.15 2.78, -27.22 27.9 C-31.28 53.03, -24.67 129.79, -24.43 150.31 M-1.53 -1.73 C-6.54 2.76, -24.39 0.75, -28.28 26.25 C-32.18 51.75, -25.28 130.29, -24.9 151.26" stroke="#a61e4d" stroke-width="1" fill="none"></path></g></g><g stroke-linecap="round"><g transform="translate(802.8370105117726 649.3809804758057) rotate(0 -12.5 73)"><path d="M-0.45 -0.22 C-4.36 2.88, -21.39 -5.67, -24.1 18.57 C-26.81 42.8, -18.04 123.89, -16.69 145.19 M1.52 -1.38 C-2.41 1.37, -21.35 -7.84, -24.57 16.74 C-27.8 41.32, -19.29 124.26, -17.82 146.08" stroke="#a61e4d" stroke-width="1" fill="none"></path></g></g><g stroke-linecap="round"><g transform="translate(779.8370105117725 648.3809804758057) rotate(0 -16 72.5)"><path d="M-0.22 0.9 C-5.45 4.36, -27.17 -3.71, -31.43 20.31 C-35.7 44.32, -26.94 124.11, -25.81 144.99 M-1.79 0.33 C-7.13 3.97, -28.49 -2.84, -32.08 21.48 C-35.68 45.81, -24.66 125.99, -23.34 146.29" stroke="#a61e4d" stroke-width="1" fill="none"></path></g></g><g stroke-linecap="round"><g transform="translate(752.8370105117726 656.3809804758057) rotate(0 -14 66)"><path d="M0.9 0.57 C-3.81 2.47, -24.21 -10.78, -28.69 11.19 C-33.18 33.16, -26.56 112.04, -26.01 132.37 M-0.08 -0.18 C-4.36 1.87, -21.89 -9.43, -26.34 12.3 C-30.79 34.03, -27.03 110.41, -26.79 130.21" stroke="#1864ab" stroke-width="1" fill="none"></path></g></g><g stroke-linecap="round"><g transform="translate(727.8370105117726 669.3809804758057) rotate(0 -12.5 60.5)"><path d="M0.57 -0.69 C-3.7 2.16, -21.94 -2.39, -25.81 17.99 C-29.68 38.36, -23.29 104.29, -22.63 121.57 M-0.6 1.56 C-4.46 4.53, -19.76 -0.15, -23.53 19.51 C-27.29 39.18, -23.01 102.87, -23.21 119.52" stroke="#a61e4d" stroke-width="1" fill="none"></path></g></g><g transform="translate(717 786.390625) rotate(0 9 12.5)"><text x="0" y="18" font-family="Virgil, Segoe UI Emoji" font-size="20px" fill="#1864ab" text-anchor="start" style="white-space: pre;" direction="ltr">x1</text></g><g transform="translate(736 790.390625) rotate(0 13 12.5)"><text x="0" y="18" font-family="Virgil, Segoe UI Emoji" font-size="20px" fill="#1864ab" text-anchor="start" style="white-space: pre;" direction="ltr">x2</text></g><g transform="translate(764 784.390625) rotate(0 13 12.5)"><text x="0" y="18" font-family="Virgil, Segoe UI Emoji" font-size="20px" fill="#1864ab" text-anchor="start" style="white-space: pre;" direction="ltr">x3</text></g><g transform="translate(794 785.390625) rotate(0 12.5 12.5)"><text x="0" y="18" font-family="Virgil, Segoe UI Emoji" font-size="20px" fill="#1864ab" text-anchor="start" style="white-space: pre;" direction="ltr">x4</text></g><g transform="translate(739 807.390625) rotate(0 6 12.5)"><text x="0" y="18" font-family="Virgil, Segoe UI Emoji" font-size="20px" fill="#d9480f" text-anchor="start" style="white-space: pre;" direction="ltr">z</text></g><g stroke-linecap="round"><g transform="translate(738 784.390625) rotate(0 -1 -60.5)"><path d="M-0.55 -0.72 C-0.55 -20.89, -0.65 -100.69, -1.05 -120.89 M1.37 1.52 C1.39 -18.45, -1.18 -98.86, -1.5 -119.3" stroke="#d9480f" stroke-width="1" fill="none"></path></g></g><g stroke-linecap="round"><g transform="translate(734 666.390625) rotate(0 -24.5 -1)"><path d="M0.85 -0.37 C-7.45 -0.65, -41.44 -1.51, -49.93 -1.95 M-0.16 -1.61 C-8.08 -1.66, -39.77 -0.28, -47.7 -0.38" stroke="#d9480f" stroke-width="1" fill="none"></path></g></g></svg>