<svg version="1.1" xmlns="http://www.w3.org/2000/svg" viewBox="0 0 10020 562.71875" width="10020" height="562.71875">
  <!-- svg-source:excalidraw -->
  
  <defs>
    <style>
      @font-face {
        font-family: "Virgil";
        src: url("https://excalidraw.com/Virgil.woff2");
      }
      @font-face {
        font-family: "Cascadia";
        src: url("https://excalidraw.com/Cascadia.woff2");
      }
    </style>
  </defs>
  <rect x="0" y="0" width="10020" height="562.71875" fill="#fff0"></rect><g stroke-linecap="round" transform="translate(10 10) rotate(0 5000 0.5)"><path d="M-0.52 -0.26 C3022.65 -30.2, 6044.59 -29.2, 9999.32 0.22 M0.38 -0.31 C3948.03 -0.44, 7895.41 0.2, 9999.95 0.08 M10000.08 -0.06 C10000.09 0.27, 10000.05 0.48, 10000.09 0.92 M9999.97 0.01 C9999.95 0.33, 9999.98 0.72, 10000 0.99 M10000.22 1.51 C7095.77 35.76, 4193.15 34.95, -0.25 0.75 M10000.01 1.13 C7827.97 2.74, 5656.23 3.35, -0.33 0.84 M-0.04 1.01 C0 0.63, -0.06 0.15, 0.05 -0.03 M-0.04 0.95 C-0.04 0.73, -0.03 0.59, -0.05 -0.02" stroke="transparent" stroke-width="1" fill="none"></path></g><g transform="translate(728 528.71875) rotate(0 -8.5 11)" stroke="none"><path fill="#000000" d="M 1.39,1.74 Q 1.39,1.74 -0.07,2.85 -1.54,3.97 -3.46,5.03 -5.38,6.10 -6.99,7.08 -8.60,8.07 -10.14,9.07 -11.68,10.06 -12.92,10.85 -14.15,11.63 -14.31,12.95 -14.48,14.27 -14.05,16.20 -13.61,18.12 -12.27,18.66 -10.93,19.19 -8.62,19.18 -6.30,19.17 -5.85,19.24 -5.40,19.32 -5.00,19.53 -4.59,19.75 -4.28,20.08 -3.97,20.42 -3.78,20.83 -3.59,21.25 -3.54,21.70 -3.49,22.16 -3.59,22.61 -3.69,23.05 -3.93,23.44 -4.17,23.83 -4.52,24.13 -4.87,24.42 -5.29,24.59 -5.72,24.76 -6.18,24.78 -6.63,24.80 -7.07,24.68 -7.51,24.55 -7.89,24.30 -8.27,24.04 -8.54,23.67 -8.82,23.31 -8.96,22.87 -9.11,22.44 -9.10,21.98 -9.10,21.52 -8.95,21.09 -8.81,20.66 -8.53,20.30 -8.25,19.93 -7.87,19.68 -7.49,19.42 -7.05,19.30 -6.61,19.18 -6.15,19.21 -5.70,19.24 -5.27,19.41 -4.85,19.58 -4.50,19.88 -4.15,20.17 -3.92,20.57 -3.68,20.96 -3.59,21.41 -3.49,21.85 -3.54,22.31 -3.59,22.76 -3.79,23.18 -3.98,23.59 -4.30,23.92 -4.61,24.25 -5.02,24.46 -5.42,24.68 -5.88,24.75 -6.33,24.82 -6.33,24.82 -6.33,24.82 -8.86,24.71 -11.39,24.60 -13.29,24.06 -15.20,23.53 -16.00,22.78 -16.80,22.02 -17.38,20.93 -17.96,19.84 -18.55,18.01 -19.15,16.18 -19.00,14.88 -18.85,13.58 -18.38,11.72 -17.91,9.87 -17.05,9.05 -16.20,8.24 -14.96,7.59 -13.73,6.93 -12.18,5.91 -10.63,4.88 -9.02,3.81 -7.40,2.75 -5.80,1.69 -4.20,0.62 -2.80,-0.55 -1.39,-1.74 -1.16,-1.88 -0.93,-2.03 -0.68,-2.11 -0.42,-2.19 -0.15,-2.21 0.11,-2.23 0.37,-2.18 0.64,-2.14 0.89,-2.03 1.13,-1.92 1.35,-1.76 1.56,-1.59 1.73,-1.38 1.90,-1.17 2.01,-0.93 2.12,-0.68 2.18,-0.42 2.23,-0.15 2.21,0.11 2.20,0.38 2.12,0.63 2.04,0.89 1.91,1.12 1.77,1.36 1.58,1.55 1.39,1.74 1.39,1.74 L 1.39,1.74 Z"></path></g><g transform="translate(741 531.71875) rotate(0 -3 10.5)" stroke="none"><path fill="#000000" d="M 1.83,0.91 Q 1.83,0.91 0.92,2.62 0.02,4.32 -0.59,5.85 -1.21,7.38 -1.81,9.62 -2.41,11.85 -3.01,14.02 -3.60,16.18 -3.81,18.25 -4.03,20.33 -4.12,20.61 -4.21,20.90 -4.39,21.14 -4.57,21.38 -4.81,21.55 -5.06,21.72 -5.34,21.80 -5.63,21.89 -5.93,21.87 -6.23,21.86 -6.51,21.76 -6.78,21.65 -7.01,21.46 -7.24,21.27 -7.40,21.01 -7.56,20.76 -7.63,20.47 -7.70,20.18 -7.67,19.88 -7.64,19.58 -7.52,19.31 -7.40,19.04 -7.19,18.82 -6.99,18.60 -6.73,18.46 -6.47,18.31 -6.17,18.26 -5.88,18.21 -5.58,18.25 -5.29,18.30 -5.02,18.43 -4.76,18.57 -4.55,18.78 -4.34,19.00 -4.21,19.27 -4.08,19.54 -4.05,19.83 -4.01,20.13 -4.07,20.42 -4.13,20.71 -4.28,20.97 -4.43,21.23 -4.66,21.43 -4.88,21.62 -5.16,21.74 -5.43,21.85 -5.73,21.87 -6.03,21.89 -6.32,21.82 -6.61,21.74 -6.86,21.58 -7.11,21.41 -7.29,21.18 -7.47,20.94 -7.57,20.66 -7.67,20.38 -7.68,20.08 -7.68,19.78 -7.68,19.78 -7.68,19.78 -7.26,17.59 -6.83,15.39 -6.37,13.21 -5.90,11.03 -5.38,8.46 -4.85,5.89 -4.16,4.23 -3.47,2.57 -2.65,0.82 -1.83,-0.91 -1.69,-1.12 -1.56,-1.32 -1.38,-1.49 -1.19,-1.66 -0.98,-1.78 -0.76,-1.90 -0.52,-1.96 -0.28,-2.03 -0.03,-2.03 0.20,-2.04 0.44,-1.98 0.68,-1.93 0.91,-1.82 1.13,-1.71 1.32,-1.55 1.50,-1.39 1.65,-1.18 1.79,-0.98 1.88,-0.75 1.98,-0.52 2.01,-0.28 2.05,-0.04 2.02,0.20 2.00,0.45 1.91,0.68 1.83,0.91 1.83,0.91 L 1.83,0.91 Z"></path></g><g transform="translate(748 545.71875) rotate(0 7.5 -12)" stroke="none"><path fill="#000000" d="M -1.71,-1.33 Q -1.71,-1.33 0.38,-3.84 2.49,-6.36 4.19,-9.31 5.90,-12.25 7.25,-14.68 8.61,-17.11 9.07,-18.63 9.54,-20.15 10.12,-21.62 10.70,-23.09 12.18,-23.69 13.65,-24.30 15.09,-22.03 16.52,-19.76 16.76,-18.42 17.00,-17.09 17.10,-15.62 17.20,-14.15 17.28,-12.96 17.35,-11.77 17.38,-10.40 17.41,-9.02 16.03,-6.07 14.65,-3.11 14.29,-2.94 13.92,-2.78 13.52,-2.73 13.12,-2.69 12.73,-2.77 12.34,-2.86 11.99,-3.07 11.65,-3.27 11.38,-3.58 11.12,-3.88 10.97,-4.26 10.82,-4.63 10.80,-5.03 10.78,-5.43 10.89,-5.82 10.99,-6.21 11.22,-6.54 11.44,-6.88 11.76,-7.12 12.08,-7.36 12.46,-7.49 12.85,-7.62 13.25,-7.62 13.65,-7.62 14.03,-7.50 14.41,-7.37 14.73,-7.13 15.05,-6.88 15.28,-6.55 15.51,-6.22 15.61,-5.83 15.72,-5.44 15.70,-5.04 15.68,-4.64 15.53,-4.27 15.38,-3.89 15.12,-3.58 14.86,-3.28 14.52,-3.07 14.18,-2.86 13.78,-2.77 13.39,-2.69 12.99,-2.73 12.59,-2.77 12.23,-2.94 11.86,-3.11 11.57,-3.39 11.27,-3.66 11.09,-4.02 10.90,-4.37 10.83,-4.77 10.77,-5.17 10.83,-5.56 10.89,-5.96 11.08,-6.32 11.27,-6.67 11.56,-6.95 11.85,-7.23 11.85,-7.23 11.85,-7.23 12.20,-8.10 12.54,-8.98 12.55,-10.31 12.55,-11.65 12.57,-12.79 12.58,-13.92 12.55,-15.21 12.52,-16.50 12.43,-17.61 12.34,-18.71 13.04,-19.94 13.74,-21.16 13.28,-20.10 12.81,-19.03 12.17,-17.30 11.53,-15.57 10.27,-13.06 9.01,-10.54 7.28,-7.26 5.55,-3.98 3.63,-1.32 1.71,1.33 1.52,1.51 1.34,1.70 1.11,1.83 0.89,1.97 0.64,2.05 0.39,2.13 0.13,2.14 -0.12,2.16 -0.38,2.11 -0.63,2.07 -0.87,1.96 -1.11,1.85 -1.32,1.69 -1.52,1.53 -1.68,1.33 -1.85,1.12 -1.95,0.89 -2.06,0.65 -2.11,0.39 -2.16,0.13 -2.14,-0.12 -2.13,-0.38 -2.05,-0.63 -1.98,-0.88 -1.84,-1.10 -1.71,-1.33 -1.71,-1.33 L -1.71,-1.33 Z"></path></g><g transform="translate(751 537.71875) rotate(0 12 -3.5)" stroke="none"><path fill="#000000" d="M -0.56,-2.08 Q -0.56,-2.08 2.62,-2.84 5.81,-3.59 8.64,-4.17 11.48,-4.75 14.04,-5.53 16.61,-6.30 18.04,-6.75 19.47,-7.21 21.08,-7.83 22.68,-8.46 22.97,-8.56 23.27,-8.66 23.58,-8.66 23.88,-8.66 24.18,-8.56 24.47,-8.46 24.72,-8.28 24.96,-8.09 25.14,-7.83 25.31,-7.58 25.40,-7.28 25.48,-6.98 25.46,-6.67 25.45,-6.37 25.33,-6.08 25.22,-5.79 25.02,-5.55 24.82,-5.32 24.55,-5.16 24.29,-5.00 23.99,-4.93 23.69,-4.86 23.38,-4.90 23.07,-4.93 22.79,-5.06 22.51,-5.19 22.28,-5.40 22.06,-5.61 21.91,-5.89 21.77,-6.16 21.72,-6.46 21.67,-6.77 21.72,-7.08 21.77,-7.38 21.91,-7.65 22.05,-7.93 22.28,-8.14 22.50,-8.35 22.78,-8.48 23.06,-8.61 23.37,-8.65 23.68,-8.68 23.98,-8.62 24.28,-8.55 24.55,-8.39 24.81,-8.23 25.01,-8.00 25.21,-7.76 25.33,-7.47 25.44,-7.19 25.46,-6.88 25.48,-6.57 25.40,-6.27 25.31,-5.97 25.14,-5.72 24.97,-5.46 24.72,-5.27 24.48,-5.09 24.48,-5.09 24.48,-5.09 22.43,-4.40 20.38,-3.71 19.00,-3.44 17.63,-3.17 14.96,-2.24 12.29,-1.30 9.56,-0.58 6.83,0.14 3.70,1.11 0.56,2.08 0.31,2.12 0.05,2.16 -0.20,2.13 -0.46,2.11 -0.71,2.02 -0.95,1.93 -1.17,1.79 -1.39,1.65 -1.57,1.46 -1.74,1.27 -1.87,1.04 -2.00,0.81 -2.07,0.56 -2.14,0.31 -2.14,0.05 -2.15,-0.20 -2.09,-0.46 -2.04,-0.71 -1.92,-0.95 -1.81,-1.18 -1.64,-1.38 -1.47,-1.58 -1.26,-1.73 -1.05,-1.89 -0.81,-1.98 -0.56,-2.08 -0.56,-2.08 L -0.56,-2.08 Z"></path></g><g transform="translate(775 530.71875) rotate(0 3 6)" stroke="none"><path fill="#000000" d="M 0.97,2.43 Q 0.97,2.43 -0.47,2.98 -1.92,3.52 -3.03,4.02 -4.13,4.53 -4.10,5.89 -4.06,7.25 -2.74,7.99 -1.41,8.73 -0.21,8.82 0.98,8.91 2.42,8.99 3.86,9.08 5.04,9.09 6.23,9.11 7.85,8.28 9.47,7.44 9.16,5.95 8.85,4.46 7.35,4.78 5.84,5.10 4.28,5.15 2.71,5.19 1.24,4.83 -0.21,4.48 -1.28,1.04 -2.34,-2.38 -1.85,-2.54 -1.36,-2.69 -0.84,-2.69 -0.33,-2.68 0.15,-2.51 0.64,-2.33 1.04,-2.02 1.45,-1.70 1.73,-1.27 2.02,-0.83 2.15,-0.33 2.28,0.16 2.24,0.67 2.21,1.19 2.01,1.66 1.81,2.14 1.47,2.53 1.13,2.92 0.68,3.17 0.24,3.43 -0.26,3.54 -0.77,3.64 -1.28,3.58 -1.79,3.51 -2.26,3.29 -2.72,3.07 -3.09,2.71 -3.46,2.35 -3.69,1.89 -3.93,1.43 -4.00,0.92 -4.08,0.40 -3.99,-0.09 -3.90,-0.60 -3.65,-1.05 -3.40,-1.51 -3.02,-1.86 -2.64,-2.21 -2.17,-2.41 -1.70,-2.62 -1.18,-2.67 -0.67,-2.72 -0.17,-2.60 0.33,-2.48 0.76,-2.21 1.20,-1.94 1.53,-1.54 1.86,-1.14 2.04,-0.66 2.23,-0.18 2.25,0.33 2.27,0.85 2.12,1.34 1.98,1.84 1.68,2.26 1.38,2.68 0.97,2.99 0.55,3.29 0.55,3.29 0.55,3.29 0.98,0.83 1.40,-1.62 2.59,-1.39 3.78,-1.15 4.88,-1.11 5.98,-1.06 7.58,-0.95 9.18,-0.85 10.88,-0.16 12.58,0.52 13.33,1.50 14.09,2.48 14.49,3.86 14.90,5.23 14.83,6.86 14.77,8.48 13.93,9.97 13.09,11.45 11.39,12.77 9.68,14.09 7.94,14.46 6.20,14.84 4.97,14.84 3.75,14.83 2.22,14.85 0.70,14.87 -1.94,14.59 -4.58,14.31 -5.81,13.86 -7.04,13.40 -7.96,12.66 -8.87,11.92 -9.39,10.00 -9.91,8.09 -9.78,6.80 -9.66,5.51 -8.92,3.46 -8.19,1.42 -7.27,0.66 -6.35,-0.10 -5.09,-0.66 -3.82,-1.22 -2.40,-1.83 -0.97,-2.43 -0.66,-2.51 -0.36,-2.60 -0.04,-2.60 0.26,-2.61 0.57,-2.54 0.88,-2.47 1.16,-2.32 1.45,-2.18 1.69,-1.98 1.93,-1.77 2.11,-1.51 2.30,-1.26 2.42,-0.96 2.53,-0.67 2.58,-0.36 2.62,-0.04 2.59,0.26 2.56,0.58 2.45,0.88 2.34,1.17 2.17,1.44 1.99,1.70 1.76,1.91 1.53,2.13 1.25,2.28 0.97,2.43 0.97,2.43 L 0.97,2.43 Z"></path></g></svg>