<svg version="1.1" xmlns="http://www.w3.org/2000/svg" viewBox="0 0 10020 685.28125" width="10020" height="685.28125">
  <!-- svg-source:excalidraw -->
  
  <defs>
    <style>
      @font-face {
        font-family: "Virgil";
        src: url("https://excalidraw.com/Virgil.woff2");
      }
      @font-face {
        font-family: "Cascadia";
        src: url("https://excalidraw.com/Cascadia.woff2");
      }
    </style>
  </defs>
  <rect x="0" y="0" width="10020" height="685.28125" fill="#fff0"></rect><g stroke-linecap="round" transform="translate(10 10) rotate(0 5000 0.5)"><path d="M-0.52 -0.26 C3022.65 -30.2, 6044.59 -29.2, 9999.32 0.22 M0.38 -0.31 C3948.03 -0.44, 7895.41 0.2, 9999.95 0.08 M10000.08 -0.06 C10000.09 0.27, 10000.05 0.48, 10000.09 0.92 M9999.97 0.01 C9999.95 0.33, 9999.98 0.72, 10000 0.99 M10000.22 1.51 C7095.77 35.76, 4193.15 34.95, -0.25 0.75 M10000.01 1.13 C7827.97 2.74, 5656.23 3.35, -0.33 0.84 M-0.04 1.01 C0 0.63, -0.06 0.15, 0.05 -0.03 M-0.04 0.95 C-0.04 0.73, -0.03 0.59, -0.05 -0.02" stroke="transparent" stroke-width="1" fill="none"></path></g><g transform="translate(579 539.28125) rotate(0 179.5 68)" stroke="none"><path fill="#000" d="M 1.53,0.27 Q 1.53,0.27 0.92,3.43 0.32,6.59 -0.81,12.25 -1.94,17.91 -3.58,25.22 -5.22,32.52 -7.36,41.66 -9.51,50.80 -11.27,60.12 -13.04,69.43 -14.66,78.29 -16.28,87.14 -17.26,94.04 -18.23,100.94 -18.64,107.00 -19.05,113.06 -19.23,116.79 -19.41,120.52 -19.49,123.25 -19.56,125.98 -19.57,128.00 -19.58,130.02 -19.49,131.44 -19.40,132.86 -18.37,133.21 -17.34,133.56 -14.23,133.48 -11.11,133.40 -4.53,132.84 2.04,132.28 14.70,132.05 27.35,131.83 48.81,131.75 70.28,131.67 98.95,131.65 127.62,131.62 159.35,131.62 191.08,131.62 227.00,131.62 262.91,131.63 283.06,131.63 303.21,131.64 318.38,131.64 333.56,131.65 341.16,131.65 348.76,131.66 352.57,131.66 356.37,131.66 358.27,131.62 360.18,131.57 361.56,131.46 362.95,131.36 364.69,131.32 366.43,131.28 368.03,131.23 369.63,131.17 371.17,131.12 372.71,131.07 374.23,131.03 375.75,130.99 376.54,129.72 377.34,128.45 377.25,126.18 377.17,123.90 376.89,120.25 376.62,116.60 375.69,111.08 374.76,105.56 373.81,99.43 372.86,93.29 371.62,87.28 370.38,81.26 369.28,74.92 368.19,68.58 367.16,63.03 366.13,57.48 365.41,51.62 364.68,45.76 364.10,42.17 363.52,38.57 362.99,35.61 362.46,32.64 362.17,30.77 361.88,28.90 361.43,27.70 360.98,26.50 359.97,25.98 358.96,25.46 357.64,24.13 356.32,22.80 355.85,21.65 355.38,20.50 354.14,19.59 352.91,18.69 350.32,18.17 347.73,17.66 343.66,16.85 339.59,16.04 335.35,15.37 331.10,14.71 325.21,13.52 319.32,12.33 313.77,11.82 308.21,11.30 301.83,11.06 295.45,10.82 287.56,10.71 279.67,10.59 270.27,10.54 260.88,10.48 251.14,10.45 241.40,10.42 230.07,10.40 218.74,10.38 210.19,10.37 201.64,10.36 193.40,10.35 185.17,10.34 175.63,10.34 166.09,10.33 156.58,10.33 147.06,10.33 137.56,10.32 128.05,10.32 120.03,10.89 112.01,11.46 105.43,11.99 98.84,12.52 93.72,12.75 88.59,12.98 83.82,13.07 79.05,13.17 72.71,13.21 66.37,13.25 61.66,13.27 56.95,13.28 53.23,13.29 49.50,13.30 46.48,13.30 43.46,13.30 40.45,13.31 37.44,13.31 33.58,13.31 29.71,13.31 25.77,13.31 21.82,13.31 18.71,13.31 15.60,13.31 13.41,13.31 11.23,13.31 9.72,13.42 8.22,13.52 7.00,13.63 5.79,13.74 4.36,13.91 2.92,14.08 0.62,14.18 -1.68,14.28 -2.04,14.22 -2.41,14.16 -2.73,13.98 -3.06,13.81 -3.31,13.54 -3.57,13.27 -3.72,12.94 -3.88,12.60 -3.92,12.24 -3.95,11.87 -3.88,11.51 -3.80,11.15 -3.61,10.83 -3.42,10.52 -3.13,10.28 -2.85,10.04 -2.51,9.90 -2.17,9.77 -1.80,9.75 -1.43,9.73 -1.08,9.83 -0.72,9.93 -0.42,10.13 -0.11,10.34 0.10,10.63 0.33,10.93 0.44,11.28 0.56,11.63 0.56,12.00 0.56,12.36 0.44,12.71 0.33,13.06 0.10,13.36 -0.11,13.65 -0.42,13.86 -0.72,14.06 -1.08,14.16 -1.43,14.26 -1.80,14.24 -2.17,14.22 -2.51,14.09 -2.85,13.95 -3.14,13.71 -3.42,13.47 -3.61,13.15 -3.80,12.84 -3.88,12.48 -3.96,12.12 -3.92,11.75 -3.88,11.38 -3.72,11.05 -3.57,10.71 -3.31,10.45 -3.06,10.18 -2.73,10.01 -2.41,9.83 -2.04,9.77 -1.68,9.71 -1.68,9.71 -1.68,9.71 0.62,9.81 2.92,9.91 4.36,10.08 5.79,10.25 7.00,10.36 8.22,10.47 9.72,10.57 11.23,10.68 13.41,10.68 15.60,10.68 18.71,10.68 21.82,10.68 25.77,10.68 29.71,10.68 33.58,10.68 37.44,10.68 40.45,10.68 43.46,10.68 46.48,10.67 49.50,10.67 53.22,10.66 56.94,10.65 61.65,10.64 66.35,10.62 72.67,10.58 79.00,10.54 83.74,10.44 88.48,10.34 93.55,10.12 98.63,9.89 105.23,9.36 111.82,8.83 119.94,8.25 128.05,7.67 137.56,7.67 147.06,7.66 156.58,7.66 166.09,7.66 175.63,7.65 185.17,7.65 193.40,7.65 201.64,7.64 210.19,7.64 218.74,7.63 230.07,7.62 241.40,7.62 251.15,7.62 260.89,7.62 270.30,7.63 279.70,7.65 287.62,7.70 295.54,7.76 302.01,7.92 308.48,8.08 314.22,8.50 319.96,8.93 325.78,9.95 331.59,10.97 335.94,11.44 340.28,11.91 344.25,12.43 348.22,12.95 350.56,13.10 352.89,13.24 354.72,14.00 356.54,14.76 357.49,15.83 358.45,16.90 359.12,17.79 359.79,18.68 360.54,20.39 361.29,22.11 362.72,23.81 364.15,25.50 364.47,27.02 364.79,28.53 364.96,30.34 365.14,32.15 365.69,35.13 366.25,38.12 366.86,41.76 367.48,45.41 368.23,51.17 368.97,56.94 370.05,62.50 371.13,68.06 372.28,74.33 373.43,80.61 374.78,86.68 376.12,92.75 377.20,98.83 378.27,104.92 379.39,110.55 380.51,116.19 381.02,119.84 381.52,123.49 381.90,126.23 382.29,128.96 382.05,130.45 381.81,131.93 381.02,133.06 380.23,134.18 377.99,134.59 375.75,135.00 374.23,134.96 372.71,134.92 371.17,134.87 369.63,134.82 368.03,134.76 366.43,134.71 364.69,134.67 362.95,134.63 361.56,134.53 360.18,134.42 358.27,134.37 356.37,134.33 352.57,134.33 348.76,134.34 341.16,134.34 333.56,134.35 318.38,134.36 303.21,134.36 283.06,134.38 262.91,134.39 227.00,134.41 191.09,134.43 159.35,134.47 127.62,134.51 98.96,134.58 70.29,134.66 48.85,134.80 27.42,134.95 14.89,135.26 2.36,135.57 -4.31,136.26 -10.98,136.96 -14.69,137.13 -18.40,137.30 -20.00,136.51 -21.60,135.73 -22.08,134.30 -22.55,132.88 -22.43,131.43 -22.31,129.98 -22.26,127.94 -22.21,125.91 -22.13,123.15 -22.06,120.40 -21.89,116.64 -21.71,112.88 -21.30,106.72 -20.88,100.57 -19.91,93.61 -18.94,86.66 -17.33,77.79 -15.72,68.93 -13.96,59.55 -12.20,50.18 -10.09,41.04 -7.97,31.91 -6.38,24.63 -4.78,17.36 -3.70,11.70 -2.62,6.05 -2.07,2.88 -1.53,-0.27 -1.48,-0.45 -1.42,-0.63 -1.32,-0.80 -1.23,-0.96 -1.09,-1.09 -0.96,-1.22 -0.80,-1.32 -0.64,-1.42 -0.46,-1.47 -0.28,-1.53 -0.09,-1.54 0.09,-1.55 0.27,-1.52 0.46,-1.49 0.63,-1.41 0.80,-1.33 0.95,-1.22 1.10,-1.10 1.21,-0.95 1.33,-0.80 1.41,-0.63 1.49,-0.46 1.52,-0.28 1.55,-0.09 1.54,0.09 1.53,0.27 1.53,0.27 L 1.53,0.27 Z"></path></g><g transform="translate(967 551.28125) rotate(0 12 13.5)" stroke="none"><path fill="#000" d="M 1.90,0.63 Q 1.90,0.63 0.95,3.19 0.00,5.74 -0.31,7.33 -0.63,8.91 -0.84,12.06 -1.05,15.20 -1.17,17.73 -1.29,20.26 -1.36,22.48 -1.43,24.70 -0.94,26.57 -0.45,28.44 1.16,29.04 2.77,29.64 4.28,29.67 5.80,29.70 7.71,29.56 9.63,29.42 11.30,29.06 12.96,28.69 14.73,28.05 16.49,27.42 17.95,26.16 19.41,24.90 20.95,23.24 22.48,21.58 23.35,19.86 24.23,18.15 24.59,15.83 24.96,13.51 25.14,11.06 25.33,8.62 25.41,6.42 25.50,4.23 25.53,2.15 25.57,0.07 25.52,-2.22 25.47,-4.51 25.51,-4.75 25.56,-5.00 25.67,-5.21 25.79,-5.43 25.97,-5.60 26.15,-5.76 26.37,-5.86 26.60,-5.97 26.84,-5.99 27.08,-6.02 27.32,-5.96 27.56,-5.91 27.77,-5.78 27.98,-5.65 28.14,-5.46 28.30,-5.27 28.39,-5.04 28.48,-4.82 28.49,-4.57 28.50,-4.33 28.43,-4.09 28.36,-3.85 28.23,-3.65 28.09,-3.45 27.89,-3.30 27.69,-3.15 27.46,-3.08 27.23,-3.00 26.98,-3.00 26.73,-3.00 26.50,-3.08 26.27,-3.16 26.08,-3.31 25.88,-3.46 25.75,-3.67 25.61,-3.87 25.55,-4.11 25.48,-4.35 25.50,-4.59 25.51,-4.84 25.60,-5.06 25.70,-5.29 25.86,-5.48 26.02,-5.66 26.23,-5.79 26.44,-5.91 26.68,-5.97 26.92,-6.02 27.16,-5.99 27.41,-5.96 27.63,-5.85 27.85,-5.75 28.03,-5.58 28.21,-5.41 28.32,-5.19 28.43,-4.97 28.47,-4.73 28.51,-4.49 28.51,-4.49 28.51,-4.49 28.42,-2.18 28.33,0.11 28.30,2.22 28.27,4.32 28.21,6.56 28.15,8.81 27.99,11.39 27.83,13.97 27.39,16.72 26.94,19.47 25.90,21.56 24.86,23.66 23.25,25.54 21.64,27.43 19.76,29.10 17.89,30.77 15.85,31.62 13.82,32.48 11.97,32.90 10.11,33.33 7.80,33.71 5.49,34.09 3.57,33.66 1.65,33.22 0.14,32.55 -1.35,31.88 -2.28,30.61 -3.21,29.34 -3.84,27.01 -4.48,24.69 -4.49,22.43 -4.50,20.18 -4.49,17.61 -4.48,15.04 -4.38,11.58 -4.28,8.12 -3.86,6.36 -3.45,4.60 -2.67,1.98 -1.90,-0.63 -1.79,-0.85 -1.69,-1.07 -1.54,-1.25 -1.38,-1.44 -1.19,-1.59 -1.00,-1.73 -0.78,-1.83 -0.55,-1.92 -0.32,-1.96 -0.08,-2.00 0.15,-1.98 0.40,-1.96 0.62,-1.88 0.85,-1.81 1.06,-1.68 1.26,-1.55 1.43,-1.37 1.60,-1.20 1.72,-0.99 1.84,-0.78 1.91,-0.55 1.97,-0.32 1.98,-0.08 1.99,0.16 1.94,0.39 1.90,0.63 1.90,0.63 L 1.90,0.63 Z"></path></g><g stroke-linecap="round" transform="translate(628 558.28125) rotate(0 62.5 46)"><path d="M87.01 3.74 C96.49 5.91, 105.49 12.24, 111.73 18.37 C117.97 24.5, 123.21 32.96, 124.47 40.53 C125.73 48.11, 123.22 56.72, 119.3 63.84 C115.37 70.95, 109.07 78.76, 100.95 83.22 C92.83 87.69, 81.02 89.77, 70.58 90.63 C60.14 91.49, 47.89 91.18, 38.32 88.37 C28.74 85.57, 19.42 80.02, 13.12 73.8 C6.81 67.59, 1.9 58.69, 0.48 51.06 C-0.94 43.44, 0.43 35.09, 4.58 28.05 C8.74 21.02, 17 13.52, 25.41 8.86 C33.82 4.19, 43.98 0.7, 55.05 0.04 C66.11 -0.61, 85.02 3.49, 91.8 4.91 C98.58 6.34, 96.47 7.97, 95.73 8.59 M60.74 0.4 C70.81 -0.47, 85.04 1.74, 94.45 5.31 C103.86 8.88, 112.11 15.22, 117.21 21.82 C122.32 28.42, 125.03 37.17, 125.09 44.9 C125.15 52.63, 122.55 61.4, 117.6 68.21 C112.65 75.02, 104.55 81.54, 95.39 85.75 C86.23 89.96, 73.3 93.18, 62.64 93.49 C51.99 93.8, 40.63 91.37, 31.45 87.62 C22.28 83.88, 12.8 77.82, 7.62 71.02 C2.44 64.21, 0.19 54.77, 0.36 46.79 C0.54 38.82, 3.79 30, 8.68 23.15 C13.57 16.3, 20.77 9.75, 29.7 5.69 C38.64 1.63, 56.85 -0.17, 62.27 -1.21 C67.69 -2.26, 62.29 -1.36, 62.22 -0.57" stroke="#000" stroke-width="1" fill="none"></path></g><g stroke-linecap="round" transform="translate(707 563.28125) rotate(0 64 48)"><path d="M87.12 2.5 C96.73 4.86, 106.5 12.63, 113.3 18.99 C120.11 25.34, 126.23 32.78, 127.95 40.63 C129.67 48.48, 127.67 58.65, 123.61 66.08 C119.56 73.52, 111.93 80.42, 103.65 85.24 C95.37 90.06, 84.29 93.75, 73.92 95 C63.55 96.24, 51.4 95.38, 41.44 92.69 C31.47 89.99, 20.95 85.12, 14.13 78.8 C7.31 72.49, 2.25 62.92, 0.53 54.79 C-1.2 46.66, -0.25 37.47, 3.8 30.02 C7.85 22.57, 16.39 14.91, 24.84 10.11 C33.29 5.3, 43.78 2.34, 54.5 1.17 C65.23 0, 83.07 2.45, 89.19 3.06 C95.32 3.67, 91.57 4.1, 91.27 4.84 M53.62 1.2 C63.14 -0.82, 74.86 -1.02, 84.51 1.59 C94.17 4.2, 104.72 10.83, 111.56 16.88 C118.4 22.92, 123.59 29.76, 125.58 37.85 C127.57 45.95, 126.69 57.53, 123.5 65.43 C120.3 73.34, 114.26 80.09, 106.4 85.28 C98.53 90.47, 86.72 95.37, 76.3 96.58 C65.88 97.78, 54.22 95.44, 43.87 92.51 C33.52 89.58, 21.09 84.99, 14.2 79.01 C7.3 73.04, 4.01 64.56, 2.5 56.66 C0.99 48.76, 1.79 39.22, 5.12 31.62 C8.45 24.03, 14.46 16.12, 22.5 11.1 C30.55 6.08, 48.58 2.85, 53.39 1.51 C58.2 0.16, 51.47 2.36, 51.37 3.03" stroke="#000" stroke-width="1" fill="none"></path></g><g transform="translate(584 642.28125) rotate(0 11 -17.5)" stroke="none"><path fill="#000" d="M -1.89,-0.47 Q -1.89,-0.47 -1.23,-2.75 -0.57,-5.03 0.01,-7.14 0.60,-9.25 1.15,-11.83 1.70,-14.41 2.54,-17.84 3.37,-21.28 4.01,-24.15 4.66,-27.03 4.93,-29.06 5.20,-31.08 5.21,-32.55 5.23,-34.01 5.69,-35.08 6.15,-36.15 8.24,-36.42 10.33,-36.69 11.37,-35.00 12.41,-33.31 13.33,-30.76 14.25,-28.21 15.44,-25.48 16.63,-22.75 17.71,-20.10 18.79,-17.46 19.27,-15.05 19.76,-12.64 20.48,-10.63 21.20,-8.61 21.65,-7.07 22.10,-5.53 22.35,-4.26 22.60,-2.99 22.75,-0.86 22.90,1.26 22.77,1.53 22.63,1.81 22.41,2.03 22.20,2.25 21.92,2.38 21.65,2.52 21.34,2.56 21.04,2.61 20.74,2.55 20.43,2.49 20.16,2.34 19.90,2.19 19.69,1.96 19.48,1.73 19.36,1.45 19.24,1.17 19.21,0.86 19.19,0.56 19.26,0.26 19.33,-0.03 19.50,-0.29 19.66,-0.55 19.90,-0.74 20.14,-0.94 20.43,-1.04 20.72,-1.15 21.03,-1.16 21.33,-1.17 21.63,-1.08 21.92,-0.99 22.17,-0.81 22.42,-0.63 22.60,-0.38 22.78,-0.14 22.88,0.15 22.97,0.44 22.96,0.75 22.95,1.06 22.85,1.35 22.74,1.64 22.55,1.88 22.36,2.12 22.10,2.28 21.84,2.45 21.54,2.53 21.24,2.60 20.94,2.58 20.63,2.55 20.35,2.43 20.06,2.31 19.83,2.11 19.60,1.90 19.45,1.63 19.30,1.37 19.24,1.06 19.18,0.76 19.22,0.46 19.26,0.15 19.26,0.15 19.26,0.15 19.12,-1.19 18.97,-2.55 18.94,-3.68 18.92,-4.81 18.70,-6.22 18.49,-7.62 17.66,-9.82 16.83,-12.02 16.37,-14.13 15.91,-16.24 14.77,-18.80 13.62,-21.37 12.28,-24.14 10.94,-26.91 9.96,-29.18 8.98,-31.45 8.70,-32.55 8.42,-33.65 8.22,-32.19 8.01,-30.73 7.75,-28.57 7.48,-26.42 6.88,-23.51 6.28,-20.61 5.52,-17.21 4.77,-13.81 4.29,-11.13 3.81,-8.45 3.34,-6.31 2.87,-4.16 2.38,-1.84 1.89,0.47 1.80,0.69 1.72,0.91 1.59,1.10 1.45,1.29 1.27,1.45 1.10,1.60 0.89,1.71 0.68,1.82 0.45,1.88 0.22,1.93 -0.00,1.93 -0.24,1.93 -0.46,1.87 -0.69,1.82 -0.90,1.71 -1.11,1.60 -1.28,1.44 -1.46,1.28 -1.59,1.09 -1.73,0.90 -1.81,0.68 -1.89,0.46 -1.92,0.22 -1.95,-0.00 -1.92,-0.24 -1.89,-0.47 -1.89,-0.47 L -1.89,-0.47 Z"></path></g><g transform="translate(587 634.28125) rotate(0 14.5 -3.5)" stroke="none"><path fill="#000" d="M 0,-2.08 Q 0,-2.08 1.72,-2.07 3.44,-2.06 5.79,-2.25 8.14,-2.43 9.80,-2.58 11.45,-2.74 14.56,-3.54 17.68,-4.35 20.24,-4.96 22.81,-5.58 25.16,-6.89 27.51,-8.19 27.78,-8.30 28.05,-8.41 28.34,-8.42 28.63,-8.44 28.91,-8.37 29.19,-8.29 29.43,-8.13 29.67,-7.97 29.85,-7.74 30.02,-7.51 30.12,-7.24 30.21,-6.96 30.22,-6.67 30.22,-6.38 30.13,-6.11 30.04,-5.83 29.86,-5.60 29.69,-5.37 29.45,-5.21 29.21,-5.04 28.93,-4.96 28.66,-4.88 28.37,-4.90 28.08,-4.91 27.81,-5.02 27.54,-5.12 27.32,-5.31 27.09,-5.49 26.94,-5.74 26.79,-5.99 26.73,-6.27 26.66,-6.55 26.69,-6.84 26.72,-7.13 26.84,-7.39 26.96,-7.65 27.16,-7.87 27.36,-8.08 27.61,-8.22 27.87,-8.35 28.15,-8.40 28.44,-8.45 28.72,-8.41 29.01,-8.36 29.26,-8.23 29.52,-8.09 29.72,-7.88 29.92,-7.68 30.05,-7.41 30.17,-7.15 30.20,-6.86 30.24,-6.58 30.18,-6.29 30.12,-6.01 29.97,-5.76 29.82,-5.51 29.60,-5.32 29.38,-5.13 29.38,-5.13 29.38,-5.13 26.52,-3.77 23.66,-2.41 21.14,-1.67 18.63,-0.94 15.19,0.08 11.75,1.10 10.17,1.19 8.58,1.28 6.01,1.67 3.45,2.06 1.72,2.07 0,2.08 -0.24,2.05 -0.49,2.02 -0.73,1.93 -0.97,1.84 -1.17,1.70 -1.38,1.56 -1.55,1.37 -1.71,1.18 -1.83,0.96 -1.95,0.74 -2.01,0.49 -2.07,0.25 -2.07,-0.00 -2.07,-0.25 -2.01,-0.49 -1.95,-0.74 -1.83,-0.96 -1.71,-1.18 -1.55,-1.37 -1.38,-1.56 -1.17,-1.70 -0.97,-1.84 -0.73,-1.93 -0.49,-2.02 -0.24,-2.05 0.00,-2.08 0.00,-2.08 L 0,-2.08 Z"></path></g><g transform="translate(855 588.28125) rotate(0 13.5 13)" stroke="none"><path fill="#000" d="M 2.06,0 Q 2.06,0 2.05,1.72 2.05,3.44 1.95,5.62 1.85,7.79 1.86,9.57 1.86,11.36 1.79,13.84 1.71,16.32 1.66,18.53 1.60,20.73 1.64,22.53 1.67,24.33 1.80,25.55 1.93,26.76 1.90,26.99 1.87,27.22 1.79,27.44 1.71,27.66 1.57,27.85 1.44,28.04 1.27,28.19 1.09,28.35 0.89,28.46 0.68,28.57 0.45,28.62 0.23,28.68 -0.00,28.68 -0.23,28.68 -0.45,28.62 -0.68,28.57 -0.89,28.46 -1.09,28.35 -1.27,28.19 -1.44,28.04 -1.57,27.85 -1.71,27.66 -1.79,27.44 -1.87,27.22 -1.90,26.99 -1.93,26.76 -1.98,25.68 -2.04,24.59 -2.05,22.98 -2.07,21.37 -1.97,19.25 -1.87,17.13 -1.79,14.79 -1.72,12.45 -1.42,10.46 -1.13,8.47 -0.74,6.74 -0.35,5.00 0.08,3.39 0.51,1.77 1.03,0.57 1.55,-0.62 2.91,-1.71 4.27,-2.80 5.56,-3.28 6.85,-3.76 8.35,-3.96 9.85,-4.15 11.03,-4.25 12.21,-4.35 13.30,-4.42 14.38,-4.48 16.07,-4.57 17.76,-4.66 19.07,-4.19 20.39,-3.71 21.69,-1.63 22.99,0.44 23.66,1.72 24.32,3.01 24.67,5.07 25.02,7.14 24.81,9.10 24.60,11.05 23.81,12.52 23.01,13.98 22.30,14.87 21.58,15.76 19.94,16.43 18.30,17.10 16.75,17.26 15.21,17.43 14.01,17.51 12.81,17.58 11.71,17.63 10.62,17.68 9.43,17.73 8.24,17.78 7.91,17.75 7.57,17.71 7.25,17.59 6.94,17.48 6.66,17.29 6.38,17.10 6.16,16.85 5.93,16.60 5.77,16.30 5.61,16.00 5.53,15.68 5.44,15.35 5.44,15.01 5.44,14.68 5.51,14.35 5.59,14.02 5.75,13.72 5.90,13.42 6.12,13.17 6.34,12.91 6.62,12.72 6.89,12.53 7.21,12.40 7.52,12.28 7.85,12.24 8.19,12.19 9.38,12.17 10.58,12.14 12.84,12.14 15.10,12.14 16.51,12.17 17.92,12.20 20.36,12.51 22.80,12.82 24.29,13.30 25.79,13.78 26.86,14.47 27.93,15.17 28.57,16.07 29.20,16.97 29.43,18.01 29.67,19.05 29.36,20.32 29.04,21.59 27.99,22.97 26.93,24.35 25.83,25.12 24.73,25.89 23.01,26.29 21.29,26.69 20.07,26.79 18.85,26.90 17.44,26.91 16.04,26.92 14.58,26.89 13.13,26.86 11.95,26.87 10.76,26.87 9.07,26.90 7.39,26.92 6.92,26.85 6.46,26.77 6.04,26.55 5.62,26.33 5.29,25.99 4.97,25.64 4.77,25.21 4.57,24.78 4.51,24.31 4.46,23.84 4.56,23.38 4.66,22.92 4.91,22.51 5.15,22.10 5.51,21.80 5.87,21.49 6.31,21.31 6.75,21.14 7.22,21.11 7.70,21.08 8.15,21.21 8.61,21.33 9.00,21.60 9.40,21.86 9.68,22.24 9.97,22.62 10.12,23.07 10.27,23.52 10.28,23.99 10.28,24.46 10.13,24.91 9.98,25.36 9.69,25.74 9.40,26.12 9.01,26.38 8.62,26.65 8.16,26.78 7.71,26.90 7.24,26.88 6.76,26.85 6.32,26.68 5.88,26.51 5.52,26.20 5.16,25.89 4.91,25.49 4.67,25.08 4.57,24.62 4.46,24.16 4.51,23.69 4.56,23.22 4.76,22.79 4.96,22.36 5.29,22.01 5.61,21.67 6.03,21.44 6.45,21.22 6.91,21.14 7.38,21.07 7.38,21.07 7.38,21.07 9.05,21.08 10.72,21.10 11.89,21.09 13.07,21.08 14.46,21.02 15.86,20.96 17.10,20.89 18.34,20.83 19.93,20.72 21.53,20.62 22.81,19.81 24.10,19.00 22.81,18.66 21.52,18.32 19.72,18.06 17.92,17.79 16.51,17.82 15.10,17.85 12.84,17.85 10.58,17.84 9.41,17.81 8.24,17.78 7.91,17.75 7.57,17.71 7.26,17.59 6.94,17.48 6.66,17.29 6.38,17.10 6.16,16.85 5.93,16.60 5.77,16.30 5.61,16.00 5.53,15.68 5.44,15.35 5.44,15.02 5.44,14.68 5.51,14.35 5.59,14.02 5.75,13.72 5.90,13.42 6.12,13.17 6.34,12.91 6.62,12.72 6.89,12.53 7.21,12.40 7.52,12.28 7.85,12.24 8.19,12.19 8.34,12.21 8.48,12.22 10.52,12.23 12.56,12.25 13.64,12.22 14.72,12.19 16.40,12.18 18.08,12.18 18.98,11.23 19.89,10.28 20.02,9.09 20.15,7.90 19.95,6.61 19.74,5.33 19.10,4.13 18.46,2.94 17.20,1.78 15.94,0.63 14.19,0.57 12.44,0.51 11.37,0.52 10.30,0.52 8.43,0.68 6.57,0.84 5.34,1.84 4.11,2.84 3.62,4.36 3.14,5.87 2.71,7.44 2.28,9.00 2.00,10.73 1.72,12.46 1.79,14.79 1.87,17.13 1.97,19.25 2.07,21.37 2.05,22.98 2.04,24.59 1.98,25.68 1.93,26.76 1.90,26.99 1.87,27.22 1.79,27.44 1.71,27.66 1.57,27.85 1.44,28.04 1.27,28.19 1.09,28.35 0.89,28.46 0.68,28.57 0.45,28.62 0.23,28.68 0.00,28.68 -0.23,28.68 -0.45,28.62 -0.68,28.57 -0.89,28.46 -1.09,28.35 -1.27,28.19 -1.44,28.04 -1.57,27.85 -1.71,27.66 -1.79,27.44 -1.87,27.22 -1.90,26.99 -1.93,26.76 -1.80,25.55 -1.67,24.33 -1.64,22.53 -1.60,20.73 -1.66,18.53 -1.71,16.32 -1.79,13.84 -1.86,11.36 -1.86,9.57 -1.85,7.79 -1.95,5.62 -2.05,3.44 -2.05,1.72 -2.06,0 -2.03,-0.24 -2.00,-0.49 -1.91,-0.72 -1.82,-0.95 -1.68,-1.16 -1.54,-1.36 -1.35,-1.53 -1.17,-1.69 -0.95,-1.81 -0.73,-1.93 -0.49,-1.99 -0.24,-2.05 0.00,-2.05 0.24,-2.05 0.49,-1.99 0.73,-1.93 0.95,-1.81 1.17,-1.69 1.35,-1.53 1.54,-1.36 1.68,-1.16 1.82,-0.95 1.91,-0.72 2.00,-0.49 2.03,-0.24 2.06,0.00 2.06,0.00 L 2.06,0 Z"></path></g><g transform="translate(651 582.28125) rotate(0 77 24.5)" stroke="none"><path fill="#1864ab" d="M 1.93,1.04 Q 1.93,1.04 -0.18,4.72 -2.29,8.40 -4.42,11.46 -6.54,14.51 -8.32,16.93 -10.10,19.35 -11.10,20.73 -12.10,22.11 -12.77,23.04 -13.44,23.98 -14.48,23.44 -15.52,22.91 -13.96,21.34 -12.40,19.76 -10.72,18.09 -9.04,16.42 -6.53,13.68 -4.01,10.95 -1.49,8.08 1.03,5.22 2.63,2.67 4.23,0.13 5.21,-1.79 6.19,-3.71 7.99,-4.92 9.80,-6.13 10.80,-4.07 11.81,-2.01 11.19,1.06 10.56,4.15 9.39,7.73 8.21,11.32 6.83,15.12 5.45,18.92 3.99,23.10 2.53,27.27 1.93,30.11 1.32,32.95 0.75,35.36 0.18,37.77 -0.18,39.53 -0.55,41.30 1.28,38.60 3.12,35.90 5.27,32.57 7.43,29.25 10.09,24.40 12.75,19.55 14.48,16.59 16.22,13.63 17.80,10.42 19.38,7.21 20.34,5.47 21.29,3.74 21.98,2.58 22.66,1.42 22.87,1.29 23.07,1.16 23.21,1.00 23.36,0.84 23.54,0.71 23.72,0.59 23.93,0.51 24.13,0.44 24.35,0.41 24.57,0.38 24.78,0.41 25.00,0.44 25.20,0.52 25.41,0.60 25.59,0.72 25.77,0.85 25.91,1.01 26.05,1.17 26.16,1.37 26.26,1.56 26.31,1.77 26.36,1.99 26.36,2.21 26.36,2.42 26.30,2.64 26.25,2.85 26.15,3.04 26.05,3.23 25.36,6.15 24.67,9.07 23.46,11.82 22.25,14.58 20.58,19.14 18.91,23.70 17.02,28.27 15.13,32.84 13.75,36.47 12.37,40.10 11.20,43.09 10.03,46.08 9.59,47.86 9.16,49.64 9.04,51.18 8.91,52.71 9.21,53.45 9.51,54.19 9.46,54.40 9.40,54.62 9.30,54.81 9.20,55.00 9.05,55.17 8.90,55.33 8.72,55.46 8.54,55.58 8.33,55.66 8.13,55.73 7.91,55.76 7.69,55.78 7.47,55.76 7.26,55.73 7.05,55.65 6.84,55.57 6.66,55.45 6.48,55.32 6.34,55.15 6.19,54.99 6.09,54.79 5.99,54.60 5.94,54.38 5.89,54.17 5.89,53.95 5.89,53.73 7.82,52.05 9.74,50.38 12.57,46.63 15.39,42.88 18.38,38.66 21.37,34.44 24.04,29.00 26.70,23.56 29.01,18.36 31.31,13.16 32.87,9.52 34.43,5.87 35.70,3.39 36.98,0.92 37.39,0.43 37.81,-0.05 37.91,-0.20 38.02,-0.36 38.16,-0.49 38.30,-0.62 38.47,-0.71 38.64,-0.80 38.83,-0.85 39.01,-0.90 39.20,-0.90 39.39,-0.90 39.58,-0.86 39.76,-0.81 39.93,-0.73 40.10,-0.64 40.25,-0.51 40.39,-0.39 40.50,-0.23 40.61,-0.08 40.68,0.09 40.75,0.27 40.78,0.46 40.80,0.65 40.78,0.84 40.76,1.03 40.70,1.21 40.63,1.39 40.42,5.78 40.21,10.18 39.40,14.24 38.59,18.31 37.36,23.22 36.14,28.13 34.45,32.58 32.75,37.03 31.16,40.64 29.57,44.25 28.63,46.87 27.68,49.50 27.00,52.29 26.33,55.08 26.04,57.65 25.76,60.22 25.74,61.65 25.73,63.08 25.69,63.26 25.65,63.44 25.56,63.61 25.47,63.78 25.35,63.92 25.23,64.06 25.07,64.17 24.92,64.28 24.74,64.35 24.57,64.41 24.38,64.44 24.20,64.46 24.01,64.44 23.82,64.42 23.65,64.36 23.47,64.29 23.31,64.19 23.16,64.08 23.03,63.94 22.90,63.80 22.82,63.64 22.73,63.47 22.68,63.29 22.63,63.11 22.63,62.92 22.63,62.73 23.22,60.40 23.82,58.07 25.83,54.58 27.85,51.09 30.71,46.53 33.56,41.96 36.18,36.37 38.79,30.78 41.36,24.94 43.92,19.10 46.16,13.47 48.40,7.84 50.22,3.15 52.04,-1.53 53.10,-4.38 54.17,-7.23 54.88,-9.06 55.59,-10.89 56.13,-12.08 56.67,-13.27 57.35,-14.79 58.02,-16.32 58.19,-16.49 58.36,-16.67 58.57,-16.80 58.77,-16.93 59.00,-17.01 59.23,-17.09 59.48,-17.11 59.72,-17.14 59.96,-17.10 60.20,-17.06 60.43,-16.97 60.66,-16.87 60.85,-16.73 61.05,-16.58 61.20,-16.39 61.36,-16.21 61.47,-15.98 61.57,-15.76 61.62,-15.53 61.67,-15.29 61.67,-15.04 61.66,-14.80 61.59,-14.56 61.52,-14.33 61.40,-14.12 61.28,-13.90 61.64,-10.57 62.00,-7.23 61.59,-2.80 61.18,1.62 60.40,5.86 59.62,10.10 58.99,13.87 58.36,17.63 57.50,21.30 56.64,24.97 55.39,29.13 54.15,33.30 53.05,37.05 51.94,40.81 51.49,43.76 51.03,46.71 50.24,49.79 49.45,52.87 49.21,54.36 48.97,55.85 49.20,56.31 49.42,56.78 49.36,56.97 49.29,57.16 49.18,57.33 49.07,57.50 48.93,57.64 48.78,57.78 48.60,57.88 48.43,57.99 48.23,58.04 48.04,58.10 47.84,58.10 47.63,58.11 47.43,58.07 47.24,58.03 47.05,57.94 46.87,57.85 46.71,57.72 46.56,57.59 46.44,57.43 46.31,57.27 46.24,57.08 46.16,56.89 46.13,56.69 46.09,56.49 46.11,56.29 46.13,56.09 47.25,53.01 48.37,49.92 49.58,46.36 50.80,42.79 52.78,38.07 54.77,33.35 57.06,28.46 59.35,23.58 60.88,19.28 62.40,14.99 63.66,11.66 64.91,8.34 65.32,7.78 65.72,7.23 65.81,7.06 65.90,6.88 66.02,6.74 66.15,6.59 66.31,6.48 66.47,6.37 66.65,6.30 66.83,6.23 67.02,6.21 67.21,6.18 67.41,6.20 67.60,6.23 67.78,6.29 67.96,6.36 68.12,6.47 68.28,6.58 68.41,6.72 68.54,6.87 68.63,7.04 68.72,7.21 68.77,7.40 68.82,7.59 68.82,7.78 68.82,7.97 68.77,8.16 68.73,8.35 68.41,10.96 68.10,13.57 67.05,18.39 66.00,23.21 65.26,27.52 64.52,31.82 63.61,35.72 62.70,39.61 62.03,42.68 61.35,45.74 61.07,48.13 60.79,50.52 60.47,51.63 60.16,52.75 60.52,51.14 60.88,49.53 62.23,46.93 63.59,44.34 65.64,40.32 67.69,36.30 69.41,32.07 71.13,27.83 72.45,24.57 73.77,21.31 74.63,19.33 75.49,17.36 75.71,16.26 75.93,15.16 76.24,14.13 76.55,13.09 76.63,12.87 76.70,12.64 76.82,12.44 76.95,12.24 77.12,12.08 77.29,11.91 77.49,11.79 77.70,11.67 77.92,11.61 78.15,11.54 78.39,11.53 78.62,11.52 78.85,11.57 79.09,11.61 79.30,11.71 79.51,11.81 79.70,11.96 79.88,12.11 80.02,12.30 80.17,12.49 80.26,12.70 80.36,12.92 80.39,13.15 80.43,13.39 80.42,13.62 80.40,13.86 80.59,15.98 80.79,18.11 80.45,21.89 80.11,25.67 79.94,28.08 79.78,30.48 79.09,33.10 78.41,35.72 78.17,37.55 77.94,39.38 77.94,40.47 77.94,41.55 77.98,42.31 78.02,43.08 77.97,43.31 77.92,43.54 77.81,43.75 77.71,43.97 77.55,44.15 77.40,44.33 77.21,44.46 77.01,44.60 76.79,44.69 76.57,44.78 76.34,44.81 76.10,44.85 75.87,44.82 75.63,44.80 75.41,44.72 75.18,44.64 74.99,44.51 74.79,44.38 74.63,44.20 74.47,44.03 74.35,43.82 74.24,43.61 74.18,43.38 74.12,43.15 74.11,42.92 74.11,42.68 74.84,40.49 75.58,38.31 76.40,35.49 77.23,32.68 77.87,29.28 78.52,25.87 79.39,22.07 80.27,18.26 80.94,15.50 81.62,12.74 82.50,10.07 83.39,7.41 84.00,5.67 84.61,3.93 85.11,2.56 85.61,1.18 86.28,0.30 86.95,-0.58 88.09,-1.11 89.23,-1.65 90.35,-1.73 91.47,-1.81 92.73,-0.95 93.99,-0.09 94.35,3.58 94.72,7.26 94.14,11.91 93.56,16.57 92.70,21.11 91.84,25.65 91.47,28.93 91.09,32.21 90.31,35.17 89.54,38.14 89.22,40.41 88.90,42.69 88.88,43.99 88.86,45.30 88.81,45.50 88.76,45.69 88.66,45.87 88.57,46.05 88.43,46.20 88.30,46.36 88.13,46.47 87.96,46.58 87.77,46.66 87.58,46.73 87.38,46.75 87.17,46.77 86.97,46.75 86.77,46.72 86.58,46.65 86.39,46.57 86.22,46.46 86.06,46.34 85.92,46.19 85.79,46.03 85.70,45.85 85.60,45.67 85.56,45.47 85.51,45.28 85.51,45.07 85.51,44.87 86.10,42.06 86.70,39.26 87.84,35.59 88.97,31.92 90.92,27.16 92.87,22.40 96.64,17.11 100.42,11.81 105.26,7.50 110.09,3.19 113.56,0.25 117.02,-2.68 119.11,-4.25 121.19,-5.81 122.57,-6.39 123.95,-6.98 125.24,-6.46 126.54,-5.95 127.00,-3.88 127.46,-1.81 126.91,1.18 126.35,4.19 125.22,8.02 124.08,11.86 122.72,15.78 121.36,19.71 119.61,23.98 117.86,28.26 116.56,32.31 115.26,36.35 114.42,39.77 113.58,43.19 112.62,45.88 111.66,48.57 110.98,50.80 110.30,53.04 109.72,55.13 109.14,57.23 108.43,59.01 107.72,60.79 107.79,60.63 107.86,60.47 107.77,60.65 107.68,60.82 107.56,60.97 107.43,61.12 107.27,61.24 107.11,61.35 106.93,61.42 106.74,61.49 106.55,61.52 106.35,61.55 106.16,61.53 105.96,61.51 105.78,61.44 105.60,61.37 105.43,61.26 105.27,61.15 105.14,61.01 105.00,60.86 104.91,60.69 104.82,60.52 104.77,60.33 104.72,60.14 104.71,59.94 104.71,59.75 104.75,59.56 104.80,59.37 104.94,57.84 105.08,56.32 106.40,52.83 107.72,49.35 108.82,44.60 109.92,39.85 110.98,34.08 112.04,28.31 114.83,21.12 117.63,13.93 119.68,9.19 121.73,4.44 123.74,-0.70 125.75,-5.85 127.52,-8.99 129.28,-12.13 129.61,-13.21 129.94,-14.28 130.06,-14.44 130.17,-14.59 130.32,-14.72 130.47,-14.84 130.64,-14.93 130.82,-15.01 131.00,-15.05 131.19,-15.09 131.39,-15.09 131.58,-15.08 131.76,-15.03 131.95,-14.98 132.12,-14.88 132.29,-14.79 132.43,-14.66 132.57,-14.53 132.67,-14.36 132.78,-14.20 132.84,-14.02 132.91,-13.84 132.92,-13.64 132.94,-13.45 132.91,-13.26 132.88,-13.07 132.81,-12.89 132.74,-12.71 132.04,-10.14 131.35,-7.56 130.17,-4.90 128.99,-2.24 127.95,1.07 126.90,4.39 125.29,9.29 123.68,14.19 122.42,18.54 121.16,22.90 120.05,26.77 118.93,30.64 117.57,34.07 116.21,37.50 115.68,39.98 115.14,42.46 114.62,44.46 114.10,46.45 114.00,47.61 113.89,48.76 113.82,48.94 113.75,49.12 113.63,49.28 113.52,49.44 113.37,49.57 113.22,49.69 113.04,49.78 112.87,49.87 112.68,49.91 112.49,49.95 112.29,49.95 112.10,49.94 111.91,49.89 111.72,49.84 111.55,49.75 111.38,49.65 111.23,49.52 111.09,49.39 110.98,49.22 110.88,49.06 110.81,48.88 110.75,48.69 110.73,48.50 110.71,48.30 110.73,48.11 110.76,47.92 111.37,46.99 111.97,46.06 112.67,44.87 113.36,43.69 115.19,41.21 117.03,38.73 119.28,35.94 121.53,33.15 123.30,30.33 125.07,27.52 126.08,24.97 127.10,22.42 127.80,20.68 128.51,18.93 128.70,17.47 128.90,16.02 129.28,14.84 129.66,13.67 130.05,12.94 130.43,12.21 130.56,11.99 130.68,11.78 130.85,11.61 131.03,11.43 131.23,11.30 131.44,11.17 131.68,11.09 131.91,11.02 132.16,11.00 132.41,10.98 132.65,11.02 132.89,11.06 133.12,11.16 133.34,11.26 133.54,11.41 133.74,11.56 133.89,11.75 134.05,11.95 134.15,12.17 134.25,12.39 134.30,12.64 134.35,12.88 134.34,13.12 134.32,13.37 134.25,13.61 134.18,13.84 133.82,15.87 133.47,17.90 132.65,21.20 131.84,24.50 131.19,27.59 130.53,30.69 129.64,33.79 128.75,36.90 127.78,39.67 126.80,42.44 126.09,44.45 125.39,46.47 124.71,47.33 124.04,48.19 124.25,48.87 124.47,49.56 124.37,49.74 124.28,49.91 124.14,50.06 124.01,50.21 123.84,50.32 123.67,50.43 123.49,50.49 123.30,50.56 123.10,50.58 122.90,50.60 122.70,50.57 122.50,50.54 122.32,50.47 122.13,50.40 121.97,50.28 121.81,50.16 121.68,50.01 121.55,49.86 121.46,49.68 121.37,49.50 121.33,49.31 121.28,49.11 121.29,48.91 121.29,48.71 121.34,48.52 121.39,48.32 122.68,46.68 123.97,45.04 125.58,42.27 127.19,39.51 129.35,35.71 131.52,31.91 132.98,27.83 134.43,23.74 135.35,20.29 136.27,16.83 136.96,14.46 137.66,12.10 138.27,9.63 138.88,7.17 139.55,6.45 140.21,5.73 140.28,5.55 140.34,5.37 140.45,5.20 140.56,5.04 140.71,4.91 140.85,4.78 141.02,4.69 141.20,4.60 141.38,4.55 141.57,4.50 141.77,4.50 141.96,4.50 142.15,4.54 142.34,4.59 142.52,4.67 142.69,4.76 142.84,4.89 142.98,5.02 143.10,5.18 143.21,5.34 143.28,5.52 143.35,5.70 143.37,5.89 143.40,6.09 143.38,6.28 143.36,6.47 143.86,8.73 144.36,10.98 144.39,13.87 144.41,16.76 144.12,21.19 143.84,25.62 142.83,30.45 141.82,35.28 141.11,38.73 140.39,42.17 139.80,45.91 139.21,49.64 138.96,52.06 138.71,54.49 138.72,55.82 138.73,57.15 138.74,57.43 138.75,57.72 138.71,57.92 138.67,58.12 138.58,58.30 138.50,58.49 138.37,58.64 138.24,58.80 138.07,58.93 137.91,59.05 137.72,59.13 137.54,59.21 137.33,59.24 137.13,59.28 136.93,59.26 136.72,59.24 136.53,59.18 136.34,59.11 136.16,59.01 135.99,58.90 135.85,58.75 135.71,58.60 135.61,58.43 135.50,58.25 135.45,58.05 135.39,57.86 135.38,57.65 135.37,57.45 135.61,56.25 135.86,55.06 137.23,52.20 138.61,49.34 140.65,45.58 142.68,41.81 145.25,35.69 147.82,29.58 149.50,25.52 151.19,21.46 152.50,18.57 153.81,15.68 154.25,14.18 154.70,12.69 155.16,11.38 155.62,10.06 156.53,8.93 157.45,7.80 159.18,6.93 160.92,6.06 162.41,6.80 163.91,7.54 164.33,10.70 164.75,13.86 164.74,17.07 164.74,20.28 164.12,24.08 163.50,27.87 162.32,31.27 161.14,34.67 160.06,37.77 158.99,40.87 157.92,43.38 156.86,45.89 156.48,47.70 156.10,49.50 156.04,50.58 155.97,51.66 155.93,51.84 155.89,52.03 155.83,52.23 155.77,52.44 155.66,52.63 155.55,52.82 155.40,52.98 155.25,53.13 155.06,53.25 154.88,53.36 154.67,53.43 154.46,53.50 154.25,53.52 154.03,53.53 153.82,53.50 153.60,53.46 153.40,53.38 153.20,53.29 153.03,53.16 152.85,53.03 152.72,52.86 152.58,52.69 152.49,52.49 152.39,52.29 152.35,52.08 152.31,51.87 152.32,51.65 152.33,51.43 152.54,50.28 152.75,49.14 153.53,46.92 154.31,44.69 155.23,42.05 156.16,39.41 157.44,35.97 158.72,32.54 160.15,29.32 161.58,26.10 162.49,24.18 163.39,22.25 163.98,20.79 164.57,19.34 165.22,18.46 165.87,17.58 166.84,17.07 167.80,16.55 169.00,16.74 170.20,16.93 171.20,19.12 172.20,21.30 171.96,22.92 171.72,24.53 171.22,26.51 170.71,28.48 169.83,30.85 168.94,33.22 168.64,34.91 168.34,36.61 168.24,38.17 168.14,39.73 166.06,41.02 163.99,42.31 164.03,41.98 164.08,41.66 164.22,41.37 164.37,41.08 164.60,40.85 164.83,40.62 165.12,40.47 165.41,40.33 165.74,40.28 166.06,40.24 166.38,40.30 166.70,40.36 166.99,40.53 167.27,40.69 167.49,40.93 167.70,41.17 167.83,41.47 167.96,41.77 167.99,42.10 168.01,42.42 167.93,42.74 167.85,43.06 167.68,43.33 167.50,43.61 167.24,43.81 166.99,44.01 166.68,44.13 166.38,44.24 166.05,44.25 165.72,44.25 165.41,44.16 165.10,44.06 164.84,43.87 164.57,43.68 164.38,43.41 164.19,43.15 164.10,42.84 164.00,42.52 164.01,42.20 164.02,41.87 164.14,41.56 164.25,41.26 164.45,41.01 164.66,40.75 164.93,40.58 165.21,40.40 165.53,40.32 165.84,40.25 166.17,40.27 166.49,40.30 166.79,40.43 167.09,40.56 167.33,40.78 167.58,41.00 167.74,41.28 167.90,41.57 167.96,41.89 168.02,42.21 168.02,42.21 168.02,42.21 166.13,40.81 164.24,39.41 164.41,37.69 164.58,35.96 164.91,33.99 165.24,32.02 165.84,29.83 166.44,27.63 166.72,25.63 167.00,23.63 167.24,22.20 167.47,20.77 166.74,22.11 166.01,23.44 165.16,25.37 164.31,27.29 162.97,30.44 161.64,33.59 160.45,37.00 159.27,40.42 158.47,43.08 157.66,45.75 156.78,48.89 155.89,52.03 155.83,52.23 155.77,52.44 155.66,52.63 155.55,52.82 155.40,52.98 155.25,53.13 155.06,53.25 154.88,53.36 154.67,53.43 154.46,53.50 154.25,53.52 154.03,53.53 153.82,53.50 153.60,53.46 153.40,53.38 153.20,53.29 153.03,53.16 152.85,53.03 152.72,52.86 152.58,52.69 152.49,52.49 152.39,52.29 152.35,52.08 152.31,51.87 152.32,51.65 152.33,51.43 152.44,51.25 152.56,51.07 152.86,49.95 153.16,48.83 153.65,46.81 154.13,44.78 155.10,42.34 156.07,39.90 157.07,36.78 158.07,33.65 159.07,30.50 160.08,27.36 160.52,23.87 160.97,20.39 160.78,17.29 160.58,14.20 160.83,12.28 161.07,10.36 159.95,10.95 158.83,11.53 158.26,12.65 157.68,13.77 157.03,15.30 156.39,16.83 155.13,19.69 153.88,22.56 152.23,26.64 150.59,30.73 148.03,37.00 145.47,43.27 143.56,47.01 141.64,50.74 140.20,54.23 138.75,57.72 138.71,57.92 138.67,58.12 138.58,58.30 138.50,58.49 138.37,58.64 138.24,58.80 138.07,58.93 137.91,59.05 137.72,59.13 137.54,59.21 137.33,59.24 137.13,59.28 136.93,59.26 136.72,59.24 136.53,59.18 136.34,59.11 136.16,59.01 135.99,58.90 135.85,58.75 135.71,58.60 135.61,58.43 135.50,58.25 135.45,58.05 135.39,57.86 135.38,57.65 135.37,57.45 135.47,57.17 135.57,56.90 135.79,55.56 136.02,54.22 136.26,51.72 136.51,49.22 137.09,45.42 137.67,41.62 138.36,38.17 139.04,34.71 139.99,30.08 140.93,25.44 141.16,21.13 141.39,16.82 141.29,14.02 141.19,11.22 141.16,9.59 141.12,7.96 140.66,6.84 140.21,5.73 140.28,5.55 140.34,5.37 140.45,5.20 140.56,5.04 140.71,4.91 140.85,4.78 141.02,4.69 141.20,4.60 141.38,4.55 141.57,4.50 141.77,4.50 141.96,4.50 142.15,4.54 142.34,4.59 142.51,4.67 142.69,4.76 142.84,4.89 142.98,5.02 143.09,5.18 143.21,5.34 143.28,5.52 143.35,5.70 143.37,5.89 143.40,6.09 143.38,6.28 143.36,6.47 142.38,7.25 141.40,8.04 140.87,10.45 140.33,12.86 139.67,15.21 139.01,17.55 138.09,21.13 137.17,24.70 135.66,29.04 134.15,33.38 132.04,37.22 129.93,41.07 128.25,44.11 126.57,47.16 125.52,48.36 124.47,49.56 124.37,49.74 124.28,49.91 124.14,50.06 124.01,50.21 123.84,50.32 123.67,50.43 123.49,50.49 123.30,50.56 123.10,50.58 122.90,50.60 122.70,50.57 122.50,50.54 122.32,50.47 122.13,50.40 121.97,50.28 121.81,50.16 121.68,50.01 121.55,49.86 121.46,49.68 121.37,49.50 121.33,49.31 121.28,49.11 121.29,48.91 121.29,48.71 121.34,48.52 121.39,48.32 121.53,48.94 121.66,49.56 122.14,47.55 122.62,45.54 123.27,43.50 123.93,41.47 124.80,38.76 125.68,36.06 126.44,33.06 127.20,30.06 127.73,26.89 128.26,23.73 128.87,20.43 129.49,17.13 129.96,14.67 130.43,12.21 130.56,11.99 130.68,11.78 130.85,11.61 131.03,11.43 131.23,11.30 131.44,11.17 131.68,11.09 131.91,11.02 132.16,11.00 132.41,10.98 132.65,11.02 132.89,11.06 133.12,11.16 133.34,11.26 133.54,11.41 133.74,11.56 133.89,11.75 134.05,11.95 134.15,12.17 134.25,12.39 134.30,12.64 134.35,12.88 134.34,13.12 134.32,13.37 134.25,13.61 134.18,13.84 133.18,15.26 132.17,16.67 131.74,18.40 131.32,20.12 130.55,21.80 129.79,23.48 128.71,26.28 127.62,29.08 125.81,32.08 123.99,35.08 121.86,37.87 119.74,40.65 118.03,43.17 116.32,45.70 115.11,47.23 113.89,48.76 113.82,48.94 113.75,49.12 113.63,49.28 113.52,49.44 113.37,49.57 113.22,49.69 113.04,49.78 112.87,49.87 112.68,49.91 112.49,49.95 112.29,49.95 112.10,49.94 111.91,49.89 111.72,49.84 111.55,49.75 111.38,49.65 111.23,49.52 111.09,49.39 110.98,49.22 110.88,49.06 110.81,48.88 110.75,48.69 110.73,48.50 110.71,48.30 110.73,48.11 110.76,47.92 111.11,46.83 111.45,45.74 111.99,43.82 112.53,41.89 113.12,39.21 113.72,36.52 115.03,33.21 116.33,29.90 117.43,26.02 118.53,22.14 119.79,17.74 121.04,13.33 122.62,8.44 124.20,3.55 125.26,0.07 126.32,-3.40 127.39,-5.92 128.47,-8.44 129.20,-11.36 129.94,-14.28 130.06,-14.44 130.17,-14.59 130.32,-14.72 130.47,-14.84 130.64,-14.93 130.82,-15.01 131.00,-15.05 131.19,-15.09 131.39,-15.09 131.58,-15.08 131.76,-15.03 131.95,-14.98 132.12,-14.88 132.29,-14.79 132.43,-14.66 132.57,-14.53 132.67,-14.36 132.78,-14.20 132.84,-14.02 132.91,-13.84 132.92,-13.64 132.94,-13.45 132.91,-13.26 132.88,-13.07 132.81,-12.89 132.74,-12.71 132.19,-11.76 131.63,-10.81 129.96,-7.83 128.29,-4.85 126.28,0.33 124.27,5.53 122.26,10.24 120.25,14.95 117.56,21.89 114.87,28.83 113.85,34.67 112.82,40.50 111.73,45.47 110.63,50.43 109.49,53.57 108.35,56.71 108.10,58.59 107.86,60.47 107.77,60.65 107.68,60.82 107.56,60.97 107.43,61.12 107.27,61.24 107.11,61.35 106.93,61.42 106.74,61.49 106.55,61.52 106.35,61.55 106.16,61.53 105.96,61.51 105.78,61.44 105.60,61.37 105.43,61.26 105.27,61.15 105.14,61.01 105.00,60.87 104.91,60.69 104.82,60.52 104.77,60.33 104.72,60.14 104.71,59.94 104.71,59.75 104.75,59.56 104.80,59.37 105.32,59.11 105.85,58.84 106.20,57.68 106.56,56.52 107.13,54.39 107.71,52.26 108.40,49.96 109.09,47.66 109.99,45.10 110.89,42.54 111.73,39.02 112.57,35.50 113.88,31.34 115.18,27.18 116.85,22.97 118.52,18.75 119.80,14.88 121.07,11.00 122.07,7.31 123.08,3.61 123.49,1.08 123.91,-1.44 123.34,-2.54 122.76,-3.64 120.77,-2.13 118.78,-0.62 115.35,2.30 111.92,5.24 107.30,9.34 102.68,13.44 99.09,18.46 95.49,23.49 93.63,28.13 91.77,32.77 90.72,36.35 89.66,39.93 89.26,42.61 88.86,45.30 88.81,45.50 88.76,45.69 88.66,45.87 88.57,46.05 88.43,46.20 88.30,46.36 88.13,46.47 87.96,46.58 87.77,46.66 87.58,46.73 87.38,46.75 87.17,46.77 86.97,46.75 86.77,46.72 86.58,46.65 86.39,46.57 86.22,46.46 86.06,46.34 85.92,46.19 85.79,46.03 85.70,45.85 85.60,45.67 85.56,45.47 85.51,45.28 85.51,45.07 85.51,44.87 85.75,43.59 85.98,42.31 86.28,39.85 86.57,37.40 87.22,34.64 87.88,31.89 88.16,28.47 88.44,25.06 89.14,20.62 89.83,16.17 90.20,11.87 90.57,7.56 89.65,5.09 88.72,2.62 88.09,3.83 87.47,5.03 86.78,6.66 86.10,8.29 85.29,10.85 84.48,13.40 83.87,16.16 83.26,18.91 82.47,22.67 81.69,26.42 81.12,29.99 80.55,33.56 79.89,36.33 79.23,39.10 78.62,41.09 78.02,43.08 77.97,43.31 77.92,43.54 77.81,43.75 77.71,43.96 77.55,44.15 77.40,44.33 77.21,44.46 77.01,44.60 76.79,44.69 76.57,44.78 76.34,44.81 76.10,44.85 75.87,44.82 75.63,44.80 75.41,44.72 75.19,44.64 74.99,44.51 74.79,44.38 74.63,44.20 74.47,44.03 74.35,43.82 74.24,43.61 74.18,43.38 74.12,43.15 74.11,42.92 74.11,42.68 74.25,41.93 74.39,41.19 74.61,40.07 74.83,38.95 75.13,36.96 75.42,34.97 75.98,32.65 76.54,30.32 76.59,27.87 76.65,25.42 76.83,21.83 77.01,18.23 76.78,15.66 76.55,13.09 76.63,12.87 76.70,12.64 76.82,12.44 76.95,12.24 77.12,12.08 77.29,11.91 77.49,11.79 77.70,11.67 77.92,11.61 78.15,11.54 78.39,11.53 78.62,11.52 78.85,11.57 79.09,11.61 79.30,11.71 79.51,11.81 79.70,11.96 79.88,12.11 80.02,12.30 80.17,12.49 80.26,12.70 80.36,12.92 80.39,13.15 80.43,13.39 80.42,13.62 80.40,13.86 79.70,15.00 79.00,16.14 78.50,17.29 78.00,18.44 77.18,20.39 76.35,22.34 75.05,25.61 73.76,28.88 72.03,33.25 70.29,37.61 68.29,41.66 66.28,45.71 64.85,48.56 63.42,51.42 62.00,53.17 60.58,54.92 59.38,54.68 58.18,54.45 58.11,52.33 58.03,50.20 58.31,47.68 58.59,45.15 59.24,42.06 59.88,38.97 60.72,35.15 61.57,31.34 62.25,26.96 62.93,22.58 63.88,17.79 64.82,13.01 65.15,11.26 65.47,9.52 65.60,8.37 65.72,7.23 65.81,7.06 65.90,6.88 66.02,6.74 66.15,6.59 66.31,6.48 66.47,6.37 66.65,6.30 66.83,6.23 67.02,6.21 67.21,6.18 67.41,6.20 67.60,6.23 67.78,6.29 67.96,6.36 68.12,6.47 68.28,6.58 68.41,6.72 68.54,6.87 68.63,7.04 68.72,7.21 68.77,7.40 68.82,7.59 68.82,7.78 68.82,7.97 68.78,8.16 68.73,8.35 68.09,8.87 67.45,9.39 66.25,12.65 65.05,15.92 63.50,20.35 61.96,24.79 59.73,29.63 57.50,34.48 55.62,39.12 53.73,43.75 52.61,47.33 51.48,50.90 50.45,53.84 49.42,56.78 49.36,56.97 49.29,57.16 49.18,57.33 49.07,57.50 48.93,57.64 48.78,57.78 48.60,57.88 48.43,57.99 48.23,58.04 48.04,58.10 47.84,58.10 47.63,58.11 47.43,58.07 47.24,58.03 47.05,57.94 46.87,57.85 46.71,57.72 46.56,57.59 46.44,57.43 46.31,57.27 46.24,57.08 46.16,56.89 46.13,56.69 46.09,56.49 46.11,56.29 46.13,56.09 46.06,55.80 45.99,55.50 46.41,53.85 46.83,52.20 47.58,49.25 48.33,46.30 48.80,43.17 49.27,40.04 50.35,36.27 51.43,32.50 52.61,28.41 53.80,24.32 54.59,20.74 55.38,17.17 55.94,13.36 56.50,9.56 57.16,5.46 57.82,1.36 58.09,-2.99 58.36,-7.36 58.61,-10.45 58.86,-13.55 58.44,-14.93 58.02,-16.32 58.19,-16.49 58.36,-16.67 58.57,-16.80 58.77,-16.93 59.00,-17.01 59.23,-17.09 59.48,-17.11 59.72,-17.14 59.96,-17.10 60.20,-17.06 60.43,-16.97 60.66,-16.87 60.85,-16.73 61.05,-16.58 61.20,-16.39 61.36,-16.21 61.47,-15.99 61.57,-15.77 61.62,-15.53 61.67,-15.29 61.67,-15.04 61.66,-14.80 61.59,-14.56 61.52,-14.33 61.40,-14.12 61.28,-13.90 60.41,-12.76 59.55,-11.62 58.88,-10.71 58.22,-9.80 57.46,-8.05 56.70,-6.30 55.64,-3.42 54.59,-0.55 52.78,4.15 50.97,8.86 48.74,14.54 46.51,20.22 43.96,26.11 41.41,31.99 38.76,37.76 36.10,43.52 33.33,48.08 30.56,52.65 28.79,55.75 27.02,58.86 26.38,60.97 25.73,63.07 25.69,63.26 25.65,63.44 25.56,63.61 25.47,63.78 25.35,63.92 25.23,64.06 25.07,64.17 24.92,64.28 24.74,64.35 24.57,64.41 24.38,64.44 24.20,64.46 24.01,64.44 23.82,64.42 23.65,64.36 23.47,64.29 23.31,64.19 23.16,64.08 23.03,63.94 22.90,63.80 22.82,63.64 22.73,63.47 22.68,63.29 22.63,63.11 22.63,62.92 22.63,62.73 22.87,61.33 23.10,59.93 23.41,57.19 23.71,54.45 24.42,51.52 25.13,48.59 26.09,45.87 27.05,43.15 28.60,39.59 30.14,36.04 31.76,31.74 33.38,27.45 34.54,22.60 35.71,17.75 36.45,13.75 37.20,9.75 37.64,6.58 38.09,3.41 37.95,1.68 37.81,-0.05 37.91,-0.20 38.02,-0.36 38.16,-0.49 38.30,-0.62 38.47,-0.71 38.64,-0.80 38.83,-0.85 39.01,-0.90 39.20,-0.90 39.39,-0.90 39.58,-0.86 39.76,-0.81 39.93,-0.73 40.10,-0.64 40.25,-0.52 40.39,-0.39 40.50,-0.23 40.61,-0.08 40.68,0.09 40.75,0.27 40.78,0.46 40.80,0.65 40.78,0.84 40.76,1.03 40.70,1.21 40.63,1.39 40.00,1.80 39.36,2.22 38.17,4.58 36.97,6.95 35.43,10.62 33.88,14.30 31.59,19.56 29.30,24.83 26.56,30.49 23.82,36.14 20.85,40.44 17.88,44.74 14.81,48.86 11.75,52.98 10.63,53.59 9.51,54.19 9.46,54.40 9.40,54.62 9.30,54.81 9.20,55.00 9.05,55.17 8.90,55.33 8.72,55.46 8.54,55.58 8.33,55.66 8.13,55.73 7.91,55.76 7.69,55.78 7.47,55.76 7.26,55.73 7.05,55.65 6.85,55.57 6.66,55.45 6.48,55.32 6.34,55.15 6.19,54.99 6.09,54.79 5.99,54.60 5.94,54.38 5.89,54.17 5.89,53.95 5.89,53.73 5.79,53.07 5.69,52.41 5.99,50.65 6.28,48.88 6.83,46.97 7.37,45.06 8.50,42.07 9.63,39.08 10.97,35.39 12.31,31.70 14.11,27.17 15.90,22.64 17.50,17.96 19.10,13.28 20.16,10.53 21.22,7.79 21.81,6.26 22.39,4.73 22.73,2.94 23.07,1.16 23.21,1.00 23.36,0.84 23.54,0.71 23.72,0.59 23.93,0.51 24.13,0.44 24.35,0.41 24.56,0.38 24.78,0.41 25.00,0.44 25.20,0.52 25.41,0.60 25.59,0.72 25.77,0.85 25.91,1.01 26.05,1.17 26.16,1.37 26.26,1.56 26.31,1.77 26.36,1.99 26.36,2.21 26.36,2.42 26.30,2.64 26.25,2.85 26.15,3.04 26.05,3.23 25.66,3.38 25.27,3.52 24.56,4.36 23.85,5.21 22.89,6.82 21.92,8.44 20.33,11.76 18.73,15.08 17.06,18.03 15.39,20.98 12.74,25.96 10.09,30.94 7.87,34.51 5.64,38.09 3.86,40.24 2.07,42.38 1.02,43.03 -0.02,43.68 -1.39,42.98 -2.75,42.28 -2.66,39.71 -2.57,37.14 -2.05,34.75 -1.53,32.36 -0.92,29.33 -0.32,26.31 1.06,22.09 2.45,17.87 3.72,14.10 4.98,10.32 5.97,6.90 6.97,3.48 7.93,0.56 8.90,-2.36 7.92,-0.28 6.95,1.78 5.28,4.60 3.62,7.41 1.18,10.39 -1.25,13.36 -3.65,16.26 -6.05,19.15 -7.82,21.25 -9.59,23.35 -11.68,24.81 -13.78,26.27 -15.26,25.89 -16.74,25.52 -16.58,23.51 -16.42,21.50 -15.65,20.73 -14.89,19.97 -13.85,18.70 -12.82,17.44 -11.17,14.99 -9.52,12.53 -7.63,9.54 -5.75,6.54 -3.84,2.75 -1.93,-1.04 -1.77,-1.25 -1.62,-1.47 -1.42,-1.64 -1.22,-1.81 -0.99,-1.93 -0.75,-2.06 -0.49,-2.12 -0.24,-2.18 0.02,-2.17 0.28,-2.17 0.54,-2.10 0.80,-2.04 1.03,-1.91 1.26,-1.79 1.46,-1.61 1.65,-1.43 1.80,-1.21 1.95,-0.99 2.04,-0.75 2.13,-0.50 2.16,-0.23 2.19,0.02 2.15,0.28 2.12,0.54 2.02,0.79 1.93,1.04 1.93,1.04 L 1.93,1.04 Z"></path></g></svg>