<svg version="1.1" xmlns="http://www.w3.org/2000/svg" viewBox="0 0 10020 810.734375" width="10020" height="810.734375">
  <!-- svg-source:excalidraw -->
  
  <defs>
    <style>
      @font-face {
        font-family: "Virgil";
        src: url("https://excalidraw.com/Virgil.woff2");
      }
      @font-face {
        font-family: "Cascadia";
        src: url("https://excalidraw.com/Cascadia.woff2");
      }
    </style>
  </defs>
  <rect x="0" y="0" width="10020" height="810.734375" fill="#fff0"></rect><g stroke-linecap="round" transform="translate(10 10) rotate(0 5000 0.5)"><path d="M-0.52 -0.26 C3022.65 -30.2, 6044.59 -29.2, 9999.32 0.22 M0.38 -0.31 C3948.03 -0.44, 7895.41 0.2, 9999.95 0.08 M10000.08 -0.06 C10000.09 0.27, 10000.05 0.48, 10000.09 0.92 M9999.97 0.01 C9999.95 0.33, 9999.98 0.72, 10000 0.99 M10000.22 1.51 C7095.77 35.76, 4193.15 34.95, -0.25 0.75 M10000.01 1.13 C7827.97 2.74, 5656.23 3.35, -0.33 0.84 M-0.04 1.01 C0 0.63, -0.06 0.15, 0.05 -0.03 M-0.04 0.95 C-0.04 0.73, -0.03 0.59, -0.05 -0.02" stroke="transparent" stroke-width="1" fill="none"></path></g><g stroke-linecap="round"><g transform="translate(563.453125 769.734375) rotate(0 -0.5 -117.5)"><path d="M0.52 -0.87 C0.55 -39.95, -0.78 -195.99, -0.87 -235.06 M-0.66 1.28 C-0.68 -37.54, -1.81 -194.32, -1.76 -233.55" stroke="#000" stroke-width="1" fill="none"></path></g></g><g stroke-linecap="round"><g transform="translate(544.453125 748.734375) rotate(0 197.5 0)"><path d="M0.78 1.06 C66.49 1.23, 329.19 0.93, 395.09 0.76 M-0.27 0.58 C65.21 0.43, 328.14 -1.1, 394.19 -0.96" stroke="#000" stroke-width="1" fill="none"></path></g></g><g transform="translate(938.453125 775.734375) rotate(0 16.5 12.5)"><text x="0" y="18" font-family="Virgil, Segoe UI Emoji" font-size="20px" fill="#000" text-anchor="start" style="white-space: pre;" direction="ltr">eps</text></g><g transform="translate(591.453125 521.734375) rotate(0 7 12.5)"><text x="0" y="18" font-family="Virgil, Segoe UI Emoji" font-size="20px" fill="#000" text-anchor="start" style="white-space: pre;" direction="ltr">P</text></g><g stroke-linecap="round"><g transform="translate(566.453125 749.734375) rotate(0 98 -83.5)"><path d="M-0.7 0.3 C32.13 -27.32, 164.31 -138.17, 196.93 -166.23 M1.14 -0.59 C33.89 -28.5, 163.76 -140.16, 196.47 -167.95" stroke="#000" stroke-width="1" fill="none"></path></g></g><g stroke-linecap="round"><g transform="translate(563.453125 749.734375) rotate(0 22.5 -17)"><path d="M0.2 -0.5 C7.67 -6.22, 37.78 -27.98, 45.32 -33.58 M-1.16 -1.8 C6.15 -7.97, 36.86 -30.31, 44.54 -35.48" stroke="#000" stroke-width="1" fill="none"></path></g><g transform="translate(563.453125 749.734375) rotate(0 22.5 -17)"><path d="M27.63 -11.78 C34.45 -19.46, 39.02 -29.28, 43.46 -36.35 M28.79 -12.56 C32.88 -19.37, 37.7 -26.01, 44.96 -35.77" stroke="#000" stroke-width="1" fill="none"></path></g><g transform="translate(563.453125 749.734375) rotate(0 22.5 -17)"><path d="M16.5 -27.54 C27.18 -29.9, 35.52 -34.4, 43.46 -36.35 M17.66 -28.32 C25.42 -30.01, 33.81 -31.62, 44.96 -35.77" stroke="#000" stroke-width="1" fill="none"></path></g></g><g stroke-linecap="round"><g transform="translate(646.453125 680.734375) rotate(0 -20 17.5)"><path d="M0.67 -0.65 C-6.07 5.1, -33.2 28.67, -39.84 34.5 M-0.44 1.62 C-7.38 7.53, -34.19 30.16, -40.71 35.77" stroke="#000" stroke-width="1" fill="none"></path></g><g transform="translate(646.453125 680.734375) rotate(0 -20 17.5)"><path d="M-28.67 12.92 C-33.03 22.19, -37.94 30.11, -39.33 33.85 M-27.77 12.44 C-31.77 19.51, -34.72 26.12, -41.3 35.98" stroke="#000" stroke-width="1" fill="none"></path></g><g transform="translate(646.453125 680.734375) rotate(0 -20 17.5)"><path d="M-16.89 26.76 C-25.39 31.24, -34.43 34.3, -39.33 33.85 M-15.98 26.28 C-23.29 29.48, -29.54 32.21, -41.3 35.98" stroke="#000" stroke-width="1" fill="none"></path></g></g><g stroke-linecap="round"><g transform="translate(646.453125 679.734375) rotate(0 36.5 -28)"><path d="M-1.17 0.18 C10.91 -8.87, 60.62 -46.25, 73.12 -55.48 M0.41 -0.77 C12.29 -10.08, 60.05 -47.93, 72.24 -57.33" stroke="#000" stroke-width="1" fill="none"></path></g><g transform="translate(646.453125 679.734375) rotate(0 36.5 -28)"><path d="M56.67 -31.66 C63.1 -39.31, 69.17 -51.08, 71.48 -57.54 M55.46 -32.81 C61.17 -39.01, 66.4 -48.4, 73.15 -56.78" stroke="#000" stroke-width="1" fill="none"></path></g><g transform="translate(646.453125 679.734375) rotate(0 36.5 -28)"><path d="M44.02 -47.82 C54.77 -49.63, 65.32 -55.68, 71.48 -57.54 M42.81 -48.97 C52.48 -49.96, 61.74 -54.21, 73.15 -56.78" stroke="#000" stroke-width="1" fill="none"></path></g></g><g stroke-linecap="round"><g transform="translate(757.453125 588.734375) rotate(0 -19.5 14.5)"><path d="M0.01 0.07 C-6.76 4.67, -33.56 23.58, -39.96 28.56 M-1.45 -0.94 C-7.91 3.74, -31.51 25.02, -37.75 29.87" stroke="#000" stroke-width="1" fill="none"></path></g><g transform="translate(757.453125 588.734375) rotate(0 -19.5 14.5)"><path d="M-25.55 7.19 C-30.5 17.25, -32.41 22.71, -39.56 28.19 M-25.62 8.2 C-30.09 15.43, -33.76 21.49, -38.16 30.54" stroke="#000" stroke-width="1" fill="none"></path></g><g transform="translate(757.453125 588.734375) rotate(0 -19.5 14.5)"><path d="M-14.82 19.9 C-23.68 25.45, -29.39 26.41, -39.56 28.19 M-14.9 20.9 C-22.58 24.44, -29.46 26.7, -38.16 30.54" stroke="#000" stroke-width="1" fill="none"></path></g></g><g transform="translate(789.453125 544.734375) rotate(0 113 25)"><text x="0" y="18" font-family="Virgil, Segoe UI Emoji" font-size="20px" fill="#000" text-anchor="start" style="white-space: pre;" direction="ltr">deformazione materiale</text><text x="0" y="43" font-family="Virgil, Segoe UI Emoji" font-size="20px" fill="#000" text-anchor="start" style="white-space: pre;" direction="ltr">puramente elastico</text></g><g stroke-linecap="round"><g transform="translate(565.453125 747.734375) rotate(0 99.5 -84)"><path d="M0.76 0.9 C6.6 -13.82, 18.78 -63.68, 35.08 -89.26 C51.39 -114.84, 71.41 -139.4, 98.58 -152.6 C125.74 -165.8, 184.2 -177.1, 198.07 -168.44 C211.95 -159.79, 214.83 -128.73, 181.84 -100.65 C148.86 -72.57, 30.39 -16.8, 0.15 0.06 M-0.3 0.32 C5.38 -14.65, 17.78 -65.15, 34.18 -91 C50.58 -116.84, 70.84 -141.97, 98.12 -154.73 C125.39 -167.49, 183.62 -176.68, 197.84 -167.57 C212.05 -158.46, 216.12 -127.85, 183.42 -100.08 C150.73 -72.3, 32 -17.54, 1.64 -0.94" stroke="#1864ab" stroke-width="1" fill="none"></path></g></g><g stroke-linecap="round"><g transform="translate(567.453125 743.734375) rotate(0 12 -38)"><path d="M-1.05 -0.35 C2.88 -12.82, 20.29 -63.07, 24.54 -75.82 M0.59 -1.57 C4.33 -13.74, 20 -61.78, 23.87 -74.19" stroke="#1864ab" stroke-width="1" fill="none"></path></g><g transform="translate(567.453125 743.734375) rotate(0 12 -38)"><path d="M24.48 -43.32 C25.15 -54.94, 22.93 -68.57, 24.69 -73.16 M24.85 -45.01 C25.28 -50.49, 24.53 -59.15, 24.52 -73.71" stroke="#1864ab" stroke-width="1" fill="none"></path></g><g transform="translate(567.453125 743.734375) rotate(0 12 -38)"><path d="M4.93 -49.57 C12.97 -58.65, 18.19 -69.9, 24.69 -73.16 M5.31 -51.26 C10.38 -55.31, 14.22 -62.5, 24.52 -73.71" stroke="#1864ab" stroke-width="1" fill="none"></path></g></g><g stroke-linecap="round"><g transform="translate(650.453125 601.734375) rotate(0 31.5 -13)"><path d="M-0.08 0.67 C10.29 -3.61, 52.34 -20.63, 63 -25.1 M-1.58 -0.02 C8.56 -4.68, 51.19 -22.6, 62.05 -26.75" stroke="#1864ab" stroke-width="1" fill="none"></path></g><g transform="translate(650.453125 601.734375) rotate(0 31.5 -13)"><path d="M40.88 -6.67 C49.31 -12.48, 55.67 -20.91, 62.11 -25.51 M39.14 -7.45 C48.16 -12.98, 56.27 -21.48, 61.32 -26.19" stroke="#1864ab" stroke-width="1" fill="none"></path></g><g transform="translate(650.453125 601.734375) rotate(0 31.5 -13)"><path d="M33.19 -25.69 C44.51 -24.55, 53.69 -26.03, 62.11 -25.51 M31.44 -26.47 C43.32 -25.21, 54.18 -26.94, 61.32 -26.19" stroke="#1864ab" stroke-width="1" fill="none"></path></g></g><g stroke-linecap="round"><g transform="translate(756.453125 642.734375) rotate(0 -48.5 28.5)"><path d="M-0.2 0.25 C-16.26 9.68, -80.34 47.09, -96.4 56.45 M-1.76 -0.67 C-17.93 8.93, -81.15 48.02, -97.03 57.7" stroke="#1864ab" stroke-width="1" fill="none"></path></g><g transform="translate(756.453125 642.734375) rotate(0 -48.5 28.5)"><path d="M-77.97 35.2 C-84.87 41.93, -90.51 47.85, -98.48 55.86 M-78.57 34.98 C-84.12 41.83, -89.54 47.29, -96.08 58.23" stroke="#1864ab" stroke-width="1" fill="none"></path></g><g transform="translate(756.453125 642.734375) rotate(0 -48.5 28.5)"><path d="M-67.23 52.69 C-77.3 54.21, -86.13 54.93, -98.48 55.86 M-67.83 52.46 C-76.44 54.32, -84.94 54.77, -96.08 58.23" stroke="#1864ab" stroke-width="1" fill="none"></path></g></g><g transform="translate(804.453125 635.734375) rotate(0 67.5 25)"><text x="0" y="18" font-family="Virgil, Segoe UI Emoji" font-size="20px" fill="#1864ab" text-anchor="start" style="white-space: pre;" direction="ltr">deformazione </text><text x="0" y="43" font-family="Virgil, Segoe UI Emoji" font-size="20px" fill="#1864ab" text-anchor="start" style="white-space: pre;" direction="ltr">anaelastica</text></g></svg>