<svg version="1.1" xmlns="http://www.w3.org/2000/svg" viewBox="0 0 10020 763.03125" width="10020" height="763.03125">
  <!-- svg-source:excalidraw -->
  
  <defs>
    <style>
      @font-face {
        font-family: "Virgil";
        src: url("https://excalidraw.com/Virgil.woff2");
      }
      @font-face {
        font-family: "Cascadia";
        src: url("https://excalidraw.com/Cascadia.woff2");
      }
    </style>
  </defs>
  <rect x="0" y="0" width="10020" height="763.03125" fill="#fff0"></rect><g stroke-linecap="round" transform="translate(10 10) rotate(0 5000 0.5)"><path d="M-0.52 -0.26 C3022.65 -30.2, 6044.59 -29.2, 9999.32 0.22 M0.38 -0.31 C3948.03 -0.44, 7895.41 0.2, 9999.95 0.08 M10000.08 -0.06 C10000.09 0.27, 10000.05 0.48, 10000.09 0.92 M9999.97 0.01 C9999.95 0.33, 9999.98 0.72, 10000 0.99 M10000.22 1.51 C7095.77 35.76, 4193.15 34.95, -0.25 0.75 M10000.01 1.13 C7827.97 2.74, 5656.23 3.35, -0.33 0.84 M-0.04 1.01 C0 0.63, -0.06 0.15, 0.05 -0.03 M-0.04 0.95 C-0.04 0.73, -0.03 0.59, -0.05 -0.02" stroke="transparent" stroke-width="1" fill="none"></path></g><g stroke-linecap="round"><g transform="translate(605 556.03125) rotate(0 83 98.5)"><path d="M0.73 -0.56 C10.44 3.86, 39.87 15.18, 58.33 27.37 C76.79 39.55, 96.26 54.88, 111.48 72.56 C126.71 90.25, 140.66 112.92, 149.67 133.49 C158.67 154.07, 162.63 185.52, 165.51 196.03 M-0.34 1.76 C9.75 6.25, 42.13 16.59, 60.69 28.57 C79.24 40.55, 96.13 56.03, 110.97 73.65 C125.81 91.28, 140.32 113.96, 149.74 134.33 C159.15 154.71, 164.87 185.75, 167.45 195.91" stroke="#000000" stroke-width="1" fill="none"></path></g></g><g stroke-linecap="round"><g transform="translate(764 721.03125) rotate(0 -4 -42)"><path d="M-0.69 0.71 C-2.01 -13.07, -7.47 -68.79, -8.72 -82.87 M1.15 0.04 C0.28 -14.04, -4.69 -70.67, -6.39 -84.4" stroke="#1864ab" stroke-width="1" fill="none"></path></g><g transform="translate(764 721.03125) rotate(0 -4 -42)"><path d="M7.88 -58.6 C5.51 -64.16, 0.91 -69.83, -8.25 -85.71 M5.97 -56.43 C2.5 -67.41, -3.52 -76.34, -6.67 -84.73" stroke="#1864ab" stroke-width="1" fill="none"></path></g><g transform="translate(764 721.03125) rotate(0 -4 -42)"><path d="M-12.54 -56.51 C-10.07 -62.45, -9.84 -68.62, -8.25 -85.71 M-14.45 -54.34 C-10.36 -66.19, -8.85 -75.89, -6.67 -84.73" stroke="#1864ab" stroke-width="1" fill="none"></path></g></g><g stroke-linecap="round"><g transform="translate(714 623.03125) rotate(0 -18 -37.5)"><path d="M0.63 -0.51 C-5.17 -12.91, -29.28 -62.1, -35.23 -74.47 M-0.49 -1.83 C-6.35 -14.58, -29.96 -64.4, -35.77 -76.32" stroke="#1864ab" stroke-width="1" fill="none"></path></g><g transform="translate(714 623.03125) rotate(0 -18 -37.5)"><path d="M-15.19 -54.05 C-19.17 -59.28, -25.39 -68, -34.03 -74.91 M-13.91 -56.28 C-21.38 -62.43, -29.26 -70.82, -35.04 -75.65" stroke="#1864ab" stroke-width="1" fill="none"></path></g><g transform="translate(714 623.03125) rotate(0 -18 -37.5)"><path d="M-33.7 -45.18 C-32.73 -52.88, -34.01 -63.97, -34.03 -74.91 M-32.42 -47.41 C-33.47 -56.58, -34.9 -68.06, -35.04 -75.65" stroke="#1864ab" stroke-width="1" fill="none"></path></g></g><g transform="translate(711 532.03125) rotate(0 37 12.5)"><text x="0" y="18" font-family="Virgil, Segoe UI Emoji" font-size="20px" fill="#1864ab" text-anchor="start" style="white-space: pre;" direction="ltr">t(t+dt)</text></g><g transform="translate(798 638.03125) rotate(0 19.5 12.5)"><text x="0" y="18" font-family="Virgil, Segoe UI Emoji" font-size="20px" fill="#1864ab" text-anchor="start" style="white-space: pre;" direction="ltr">t(t)</text></g><g stroke-linecap="round"><g transform="translate(790 635.03125) rotate(0 7.5 -0.5)"><path d="M0.2 0.72 C2.94 0.61, 13 -1.22, 15.3 -1.43 M-1.15 0.05 C1.56 0.18, 11.59 0.32, 14.51 -0.12" stroke="#1864ab" stroke-width="1" fill="none"></path></g></g><g stroke-linecap="round"><g transform="translate(707 528.03125) rotate(0 7 -0.5)"><path d="M-0.68 0.1 C1.66 0.13, 11.91 0.11, 14.54 -0.06 M1.16 -0.89 C3.36 -1.17, 11.58 -1.91, 13.87 -1.68" stroke="#1864ab" stroke-width="1" fill="none"></path></g></g><g stroke-linecap="round"><g transform="translate(580 711.03125) rotate(0 68.5 -46.5)"><path d="M0.5 -0.37 C23.22 -15.75, 113.92 -76.65, 136.49 -92.2 M-0.7 -1.61 C21.81 -17.33, 112.12 -78.72, 135.28 -93.9" stroke="#d9480f" stroke-width="1" fill="none"></path></g></g><g stroke-linecap="round"><g transform="translate(765 720.03125) rotate(0 -90.5 -4.5)"><path d="M0.14 0.97 C-30.2 -0.54, -151.46 -6.78, -181.61 -8.33 M-1.24 0.44 C-31.23 -1.49, -149.19 -8.32, -179.22 -10.1" stroke="#d9480f" stroke-width="1" fill="none"></path></g></g><g transform="translate(610 641.03125) rotate(0 4.5 12.5)"><text x="0" y="18" font-family="Virgil, Segoe UI Emoji" font-size="20px" fill="#d9480f" text-anchor="start" style="white-space: pre;" direction="ltr">ρ</text></g><g stroke-linecap="round"><g transform="translate(631 712.03125) rotate(0 -5 -14.5)"><path d="M0.41 -1.02 C0.34 -4.47, 0.49 -15.8, -1.35 -20.42 C-3.2 -25.05, -9.37 -27.15, -10.67 -28.76 M-0.84 1.05 C-0.92 -2.77, -0.14 -17.51, -1.96 -22.24 C-3.79 -26.97, -10.71 -26.1, -11.79 -27.32" stroke="#d9480f" stroke-width="1" fill="none"></path></g></g><g transform="translate(651 683.03125) rotate(0 13 12.5)"><text x="0" y="18" font-family="Virgil, Segoe UI Emoji" font-size="20px" fill="#d9480f" text-anchor="start" style="white-space: pre;" direction="ltr">dα</text></g></svg>