<svg version="1.1" xmlns="http://www.w3.org/2000/svg" viewBox="0 0 10020 764.765625" width="10020" height="764.765625">
  <!-- svg-source:excalidraw -->
  
  <defs>
    <style>
      @font-face {
        font-family: "Virgil";
        src: url("https://excalidraw.com/Virgil.woff2");
      }
      @font-face {
        font-family: "Cascadia";
        src: url("https://excalidraw.com/Cascadia.woff2");
      }
    </style>
  </defs>
  <rect x="0" y="0" width="10020" height="764.765625" fill="#fff0"></rect><g stroke-linecap="round" transform="translate(10 10) rotate(0 5000 0.5)"><path d="M-0.52 -0.26 C3022.65 -30.2, 6044.59 -29.2, 9999.32 0.22 M0.38 -0.31 C3948.03 -0.44, 7895.41 0.2, 9999.95 0.08 M10000.08 -0.06 C10000.09 0.27, 10000.05 0.48, 10000.09 0.92 M9999.97 0.01 C9999.95 0.33, 9999.98 0.72, 10000 0.99 M10000.22 1.51 C7095.77 35.76, 4193.15 34.95, -0.25 0.75 M10000.01 1.13 C7827.97 2.74, 5656.23 3.35, -0.33 0.84 M-0.04 1.01 C0 0.63, -0.06 0.15, 0.05 -0.03 M-0.04 0.95 C-0.04 0.73, -0.03 0.59, -0.05 -0.02" stroke="transparent" stroke-width="1" fill="none"></path></g><g transform="translate(623 592.765625) rotate(0 -3 4)" stroke="none"><path fill="#000" d="M 1.48,-2.22 Q 1.48,-2.22 2.38,-1.64 3.28,-1.06 4.04,-0.17 4.80,0.71 5.18,2.04 5.57,3.38 5.35,4.86 5.13,6.35 4.63,7.39 4.13,8.42 3.12,9.81 2.11,11.20 0.81,11.55 -0.49,11.89 -2.09,12.00 -3.70,12.11 -5.02,12.13 -6.34,12.15 -7.66,11.60 -8.97,11.06 -9.75,10.11 -10.53,9.17 -11.24,7.45 -11.94,5.73 -12.04,4.54 -12.15,3.34 -11.79,2.01 -11.44,0.69 -10.26,-0.89 -9.09,-2.48 -8.09,-3.10 -7.10,-3.72 -4.89,-3.73 -2.67,-3.74 -0.89,-2.34 0.89,-0.94 1.16,0.57 1.43,2.09 1.45,3.57 1.46,5.05 -0.22,7.57 -1.91,10.08 -1.11,9.43 -0.32,8.78 -0.56,9.13 -0.81,9.47 -1.13,9.74 -1.45,10.02 -1.83,10.21 -2.21,10.39 -2.62,10.49 -3.04,10.58 -3.46,10.57 -3.88,10.56 -4.29,10.46 -4.70,10.35 -5.07,10.14 -5.44,9.94 -5.75,9.65 -6.06,9.37 -6.29,9.01 -6.53,8.66 -6.67,8.26 -6.81,7.87 -6.85,7.44 -6.90,7.02 -6.84,6.61 -6.78,6.19 -6.62,5.80 -6.46,5.40 -5.31,3.56 -4.15,1.71 -3.87,1.32 -3.59,0.92 -3.20,0.63 -2.81,0.34 -2.35,0.19 -1.89,0.04 -1.40,0.05 -0.91,0.05 -0.45,0.21 -0.00,0.37 0.38,0.67 0.76,0.97 1.03,1.38 1.30,1.78 1.42,2.25 1.54,2.73 1.51,3.21 1.48,3.70 1.29,4.14 1.11,4.59 0.79,4.96 0.47,5.33 0.05,5.57 -0.36,5.82 -0.84,5.92 -1.31,6.01 -1.80,5.96 -2.28,5.90 -2.72,5.69 -3.16,5.48 -3.51,5.14 -3.85,4.80 -4.08,4.37 -4.30,3.93 -4.37,3.45 -4.44,2.97 -4.36,2.49 -4.27,2.01 -4.04,1.59 -3.81,1.16 -3.45,0.83 -3.09,0.50 -2.65,0.30 -2.20,0.11 -1.72,0.06 -1.24,0.01 -0.76,0.12 -0.29,0.23 0.11,0.49 0.53,0.75 0.84,1.12 1.15,1.50 1.32,1.95 1.50,2.40 1.52,2.89 1.54,3.38 1.40,3.84 1.26,4.31 1.26,4.31 1.26,4.31 0.47,6.55 -0.32,8.78 -0.56,9.12 -0.81,9.47 -1.13,9.74 -1.45,10.02 -1.83,10.21 -2.21,10.39 -2.62,10.49 -3.03,10.58 -3.46,10.57 -3.88,10.56 -4.29,10.46 -4.70,10.35 -5.07,10.14 -5.44,9.94 -5.75,9.65 -6.06,9.37 -6.29,9.01 -6.53,8.66 -6.67,8.26 -6.81,7.87 -6.85,7.44 -6.90,7.02 -6.84,6.61 -6.78,6.19 -6.62,5.80 -6.46,5.40 -4.85,4.89 -3.23,4.37 -4.33,5.18 -5.43,5.98 -5.53,4.55 -5.64,3.11 -5.81,4.47 -5.99,5.83 -4.92,5.83 -3.84,5.82 -2.42,5.69 -1.01,5.57 -0.42,4.46 0.16,3.36 -0.66,2.79 -1.48,2.22 -1.72,2.01 -1.97,1.80 -2.16,1.54 -2.34,1.28 -2.46,0.98 -2.58,0.68 -2.63,0.36 -2.67,0.04 -2.64,-0.27 -2.60,-0.59 -2.49,-0.90 -2.38,-1.20 -2.20,-1.47 -2.03,-1.74 -1.79,-1.95 -1.55,-2.17 -1.27,-2.33 -0.98,-2.48 -0.67,-2.56 -0.36,-2.64 -0.04,-2.65 0.27,-2.65 0.59,-2.58 0.90,-2.51 1.19,-2.37 1.48,-2.22 1.48,-2.22 L 1.48,-2.22 Z"></path></g><g transform="translate(767 535.765625) rotate(0 1 -7)" stroke="none"><path fill="#000" d="M 0,2.58 Q 0,2.58 -1.16,2.60 -2.32,2.63 -3.78,2.28 -5.24,1.94 -6.24,1.25 -7.25,0.55 -8.15,-2.21 -9.06,-4.99 -9.26,-6.05 -9.46,-7.11 -9.28,-9.32 -9.11,-11.53 -8.54,-12.58 -7.97,-13.63 -7.05,-14.39 -6.14,-15.14 -4.86,-15.47 -3.59,-15.79 -1.26,-15.56 1.05,-15.33 2.16,-14.81 3.27,-14.30 4.63,-13.84 5.98,-13.39 7.40,-12.80 8.82,-12.22 10.13,-11.21 11.43,-10.19 11.48,-8.46 11.53,-6.73 10.63,-5.42 9.74,-4.12 7.97,-3.61 6.20,-3.11 4.47,-2.69 2.75,-2.28 0.87,-1.43 -1.00,-0.59 -2.60,-0.35 -4.19,-0.11 -5.52,-0.60 -6.85,-1.10 -7.65,-2.31 -8.46,-3.53 -8.38,-5.11 -8.31,-6.68 -7.87,-7.78 -7.43,-8.87 -6.95,-9.89 -6.47,-10.91 -5.87,-11.83 -5.28,-12.75 -3.84,-13.99 -2.41,-15.24 -1.37,-16.00 -0.34,-16.76 1.26,-16.60 2.86,-16.44 3.89,-15.86 4.92,-15.28 5.88,-14.15 6.83,-13.03 7.78,-11.53 8.74,-10.03 9.01,-8.52 9.28,-7.01 8.57,-5.32 7.86,-3.63 6.94,-2.89 6.02,-2.14 4.51,-1.89 3.01,-1.64 1.90,-1.60 0.79,-1.55 -0.64,-1.55 -2.07,-1.55 -3.14,-1.54 -4.22,-1.52 -4.64,-1.57 -5.05,-1.62 -5.44,-1.77 -5.83,-1.92 -6.18,-2.16 -6.52,-2.39 -6.80,-2.71 -7.08,-3.02 -7.27,-3.39 -7.47,-3.76 -7.57,-4.17 -7.67,-4.57 -7.67,-4.99 -7.67,-5.41 -7.57,-5.82 -7.47,-6.22 -7.28,-6.59 -7.08,-6.97 -6.81,-7.28 -6.53,-7.59 -6.18,-7.83 -5.84,-8.07 -5.45,-8.22 -5.06,-8.37 -4.64,-8.42 -4.23,-8.47 -5.85,-7.41 -7.48,-6.36 -6.97,-7.47 -6.46,-8.59 -5.54,-9.50 -4.62,-10.40 -3.25,-11.21 -1.89,-12.02 0.23,-11.94 2.36,-11.86 3.45,-11.14 4.54,-10.42 4.93,-9.39 5.32,-8.36 5.42,-7.09 5.53,-5.83 4.71,-2.89 3.89,0.04 3.55,0.48 3.21,0.93 2.75,1.24 2.29,1.55 1.75,1.70 1.21,1.85 0.65,1.82 0.09,1.78 -0.42,1.58 -0.94,1.37 -1.37,1.00 -1.79,0.64 -2.08,0.16 -2.37,-0.31 -2.48,-0.86 -2.60,-1.41 -2.54,-1.96 -2.48,-2.52 -2.24,-3.03 -2.00,-3.53 -1.62,-3.94 -1.23,-4.34 -0.74,-4.60 -0.24,-4.86 0.30,-4.95 0.86,-5.04 1.41,-4.95 1.96,-4.86 2.45,-4.59 2.95,-4.33 3.33,-3.92 3.71,-3.51 3.95,-3.01 4.18,-2.50 4.24,-1.94 4.30,-1.38 4.18,-0.84 4.05,-0.29 3.76,0.18 3.47,0.66 3.04,1.02 2.62,1.38 2.10,1.58 1.58,1.79 1.02,1.82 0.46,1.85 -0.07,1.69 -0.61,1.54 -1.07,1.23 -1.54,0.91 -1.87,0.46 -2.21,0.02 -2.39,-0.50 -2.56,-1.03 -2.56,-1.59 -2.56,-2.15 -2.38,-2.68 -2.20,-3.21 -2.20,-3.21 -2.20,-3.21 -1.88,-3.94 -1.57,-4.67 -1.58,-5.75 -1.58,-6.83 -1.15,-5.81 -0.71,-4.78 -2.46,-3.15 -4.22,-1.52 -4.64,-1.57 -5.05,-1.62 -5.44,-1.77 -5.83,-1.92 -6.18,-2.16 -6.52,-2.39 -6.80,-2.71 -7.08,-3.02 -7.27,-3.39 -7.47,-3.76 -7.57,-4.17 -7.67,-4.57 -7.67,-4.99 -7.67,-5.41 -7.57,-5.82 -7.47,-6.22 -7.28,-6.59 -7.08,-6.97 -6.81,-7.28 -6.53,-7.59 -6.18,-7.83 -5.84,-8.07 -5.45,-8.22 -5.06,-8.37 -4.64,-8.42 -4.23,-8.47 -3.15,-8.46 -2.08,-8.45 -0.69,-8.45 0.69,-8.46 1.63,-7.81 2.58,-7.17 2.07,-8.16 1.56,-9.14 1.88,-10.36 2.20,-11.59 1.40,-10.81 0.60,-10.04 -0.11,-9.15 -0.83,-8.26 -1.55,-6.68 -2.26,-5.10 -3.22,-5.55 -4.18,-6.01 -2.93,-6.18 -1.68,-6.36 -0.40,-7.01 0.86,-7.67 3.35,-8.47 5.83,-9.27 5.67,-8.04 5.51,-6.81 4.52,-7.24 3.54,-7.67 2.00,-8.27 0.46,-8.87 -0.61,-9.38 -1.70,-9.88 -2.90,-9.51 -4.11,-9.14 -3.97,-7.66 -3.84,-6.17 -3.05,-4.40 -2.27,-2.63 -1.13,-2.60 0,-2.58 0.30,-2.55 0.61,-2.51 0.91,-2.40 1.20,-2.29 1.45,-2.11 1.71,-1.93 1.92,-1.70 2.13,-1.47 2.27,-1.19 2.42,-0.91 2.49,-0.61 2.56,-0.31 2.56,0.00 2.56,0.31 2.49,0.61 2.42,0.91 2.27,1.19 2.13,1.47 1.92,1.70 1.71,1.93 1.45,2.11 1.20,2.29 0.91,2.40 0.61,2.51 0.30,2.55 -0.00,2.58 -0.00,2.58 L 0,2.58 Z"></path></g><g stroke-linecap="round"><g transform="translate(575 754.765625) rotate(0 21 -73)"><path d="M-0.48 1.11 C6.22 -23.5, 34.19 -122.18, 41.14 -146.86 M1.46 0.65 C8.47 -23.9, 36.35 -121.31, 43.4 -145.78" stroke="#1864ab" stroke-width="1" fill="none"></path></g><g transform="translate(575 754.765625) rotate(0 21 -73)"><path d="M47.34 -117.28 C43.07 -128.36, 42.09 -139.06, 42.14 -147.56 M45.09 -116.57 C44.13 -126.77, 42.78 -138.76, 43.47 -146.32" stroke="#1864ab" stroke-width="1" fill="none"></path></g><g transform="translate(575 754.765625) rotate(0 21 -73)"><path d="M27.61 -122.94 C30.8 -131.81, 37.24 -140.38, 42.14 -147.56 M25.37 -122.23 C32.08 -130.24, 38.36 -140.04, 43.47 -146.32" stroke="#1864ab" stroke-width="1" fill="none"></path></g></g><g stroke-linecap="round"><g transform="translate(1006 531.765625) rotate(0 -112.68099383610766 -0.9801150023937222)"><path d="M1.05 -0.3 C-36.59 -0.67, -187.89 -2.53, -225.63 -2.92 M0.14 -1.5 C-37.7 -1.69, -189 -1.86, -226.72 -1.89" stroke="#1864ab" stroke-width="1" fill="none"></path></g><g transform="translate(1006 531.765625) rotate(0 -112.68099383610766 -0.9801150023937222)"><path d="M-199.02 -12.57 C-209.21 -8.7, -217.79 -3.85, -226.06 -0.39 M-199.19 -11.72 C-203.64 -9.41, -209.67 -6.88, -226.24 -1.95" stroke="#1864ab" stroke-width="1" fill="none"></path></g><g transform="translate(1006 531.765625) rotate(0 -112.68099383610766 -0.9801150023937222)"><path d="M-199.04 7.95 C-209.11 5.25, -217.67 3.53, -226.06 -0.39 M-199.22 8.8 C-203.84 6.94, -209.86 5.28, -226.24 -1.95" stroke="#1864ab" stroke-width="1" fill="none"></path></g></g><g transform="translate(656 587.765625) rotate(0 10 12.5)"><text x="0" y="18" font-family="Virgil, Segoe UI Emoji" font-size="20px" fill="#d9480f" text-anchor="start" style="white-space: pre;" direction="ltr">P1</text></g><g transform="translate(775 552.765625) rotate(0 14 12.5)"><text x="0" y="18" font-family="Virgil, Segoe UI Emoji" font-size="20px" fill="#d9480f" text-anchor="start" style="white-space: pre;" direction="ltr">P2</text></g><g transform="translate(980 537.765625) rotate(0 13.5 12.5)"><text x="0" y="18" font-family="Virgil, Segoe UI Emoji" font-size="20px" fill="#1864ab" text-anchor="start" style="white-space: pre;" direction="ltr">F2</text></g><g transform="translate(608 701.765625) rotate(0 9 12.5)"><text x="0" y="18" font-family="Virgil, Segoe UI Emoji" font-size="20px" fill="#1864ab" text-anchor="start" style="white-space: pre;" direction="ltr">F1</text></g><g transform="translate(850 706.765625) rotate(0 2 -5.5)" stroke="none"><path fill="#000000" d="M -2.56,0.64 Q -2.56,0.64 -2.85,-0.62 -3.15,-1.88 -2.58,-3.97 -2.00,-6.06 -0.88,-7.19 0.24,-8.31 1.94,-9.31 3.65,-10.30 4.93,-10.15 6.22,-10.01 7.53,-9.52 8.84,-9.03 10.08,-8.08 11.32,-7.14 12.03,-5.62 12.74,-4.09 12.49,-2.74 12.24,-1.38 11.62,-0.51 10.99,0.35 10.02,1.00 9.04,1.65 7.84,2.06 6.63,2.47 4.59,2.80 2.55,3.12 0.93,3.18 -0.68,3.24 -2.37,3.05 -4.07,2.87 -5.01,2.30 -5.95,1.72 -6.77,1.05 -7.59,0.37 -8.34,-1.01 -9.09,-2.39 -8.84,-4.18 -8.60,-5.96 -7.91,-7.92 -7.22,-9.89 -5.64,-10.98 -4.06,-12.07 -2.99,-12.59 -1.92,-13.11 -0.18,-13.44 1.56,-13.77 3.30,-13.93 5.05,-14.08 6.30,-13.69 7.55,-13.30 9.48,-12.28 11.42,-11.26 12.00,-9.84 12.57,-8.42 12.68,-6.18 12.78,-3.95 12.12,-2.83 11.46,-1.71 10.44,-1.27 9.41,-0.83 8.03,-0.35 6.65,0.11 5.52,0.20 4.40,0.29 2.93,-0.03 1.45,-0.37 2.54,-0.58 3.62,-0.78 3.40,-0.30 3.18,0.18 2.82,0.57 2.46,0.97 1.99,1.22 1.52,1.48 1.00,1.58 0.47,1.67 -0.05,1.59 -0.58,1.51 -1.05,1.27 -1.53,1.02 -1.90,0.64 -2.28,0.26 -2.51,-0.22 -2.74,-0.70 -2.80,-1.23 -2.87,-1.76 -2.76,-2.28 -2.65,-2.81 -2.38,-3.27 -2.11,-3.73 -1.71,-4.08 -1.31,-4.43 -0.81,-4.64 -0.32,-4.84 0.20,-4.88 0.74,-4.91 1.25,-4.78 1.77,-4.64 2.22,-4.35 2.66,-4.05 2.99,-3.63 3.32,-3.21 3.50,-2.71 3.68,-2.20 3.68,-1.67 3.69,-1.13 3.53,-0.63 3.36,-0.12 3.05,0.30 2.73,0.73 2.29,1.04 1.85,1.34 1.34,1.49 0.83,1.64 0.29,1.62 -0.23,1.60 -0.73,1.41 -1.23,1.22 -1.64,0.88 -2.06,0.54 -2.34,0.08 -2.62,-0.36 -2.74,-0.88 -2.86,-1.40 -2.81,-1.93 -2.76,-2.47 -2.76,-2.47 -2.76,-2.47 0.64,-4.47 4.05,-6.47 5.29,-6.73 6.53,-6.99 5.32,-7.35 4.11,-7.71 2.54,-7.53 0.96,-7.34 -0.44,-6.86 -1.84,-6.37 -2.59,-5.16 -3.34,-3.94 -2.06,-3.61 -0.77,-3.27 0.64,-3.30 2.06,-3.32 3.26,-3.46 4.47,-3.59 5.72,-3.60 6.96,-3.61 5.91,-4.35 4.86,-5.09 3.43,-3.90 2.00,-2.71 2.28,-1.67 2.56,-0.64 2.60,-0.32 2.63,-0.00 2.60,0.30 2.56,0.62 2.45,0.92 2.34,1.21 2.16,1.48 1.98,1.74 1.74,1.95 1.50,2.16 1.22,2.31 0.94,2.46 0.63,2.54 0.32,2.61 0.00,2.62 -0.30,2.62 -0.61,2.54 -0.92,2.47 -1.21,2.32 -1.49,2.17 -1.73,1.96 -1.97,1.75 -2.15,1.49 -2.33,1.23 -2.44,0.93 -2.56,0.63 -2.56,0.64 L -2.56,0.64 Z"></path></g><g transform="translate(644 531.765625) rotate(0 -0.5 -0.5)" stroke="none"><path fill="#000000" d="M 2.21,-1.47 Q 2.21,-1.47 2.81,-0.62 3.41,0.23 3.77,1.66 4.13,3.09 2.37,4.55 0.60,6.01 -0.79,5.42 -2.20,4.82 -3.30,3.85 -4.39,2.89 -5.47,1.43 -6.55,-0.02 -6.82,-1.29 -7.08,-2.57 -6.52,-4.04 -5.95,-5.50 -4.20,-6.67 -2.46,-7.84 -1.07,-7.62 0.31,-7.40 2.24,-6.76 4.17,-6.13 4.93,-5.15 5.68,-4.17 6.34,-2.98 7.00,-1.78 6.91,0.28 6.81,2.35 5.96,3.96 5.11,5.57 4.07,6.25 3.02,6.93 1.78,7.05 0.53,7.17 -1.13,6.41 -2.81,5.66 -4.06,4.96 -5.30,4.27 -3.73,0.59 -2.16,-3.07 -1.61,-3.08 -1.06,-3.09 -0.53,-2.93 -0.00,-2.76 0.43,-2.43 0.88,-2.11 1.20,-1.65 1.52,-1.20 1.67,-0.67 1.83,-0.14 1.81,0.40 1.79,0.95 1.60,1.47 1.40,1.99 1.05,2.41 0.70,2.84 0.23,3.14 -0.23,3.43 -0.76,3.56 -1.30,3.69 -1.85,3.64 -2.40,3.59 -2.91,3.36 -3.41,3.14 -3.82,2.77 -4.23,2.39 -4.50,1.91 -4.77,1.43 -4.86,0.88 -4.96,0.34 -4.88,-0.20 -4.80,-0.74 -4.55,-1.24 -4.30,-1.73 -3.91,-2.12 -3.52,-2.50 -3.02,-2.75 -2.52,-2.99 -1.97,-3.06 -1.42,-3.13 -0.88,-3.02 -0.34,-2.91 0.13,-2.63 0.61,-2.35 0.97,-1.94 1.34,-1.52 1.55,-1.01 1.76,-0.51 1.80,0.04 1.84,0.59 1.71,1.12 1.57,1.66 1.27,2.12 0.96,2.58 0.53,2.93 0.10,3.27 -0.42,3.45 -0.94,3.64 -0.94,3.64 -0.93,3.64 -0.89,1.36 -0.84,-0.90 -0.17,-0.08 0.49,0.74 0.17,-0.37 -0.15,-1.48 0.89,-0.16 1.93,1.16 0.40,2.18 -1.11,3.21 -1.66,2.34 -2.21,1.47 -2.35,1.18 -2.50,0.90 -2.57,0.59 -2.64,0.27 -2.64,-0.04 -2.63,-0.36 -2.55,-0.67 -2.47,-0.98 -2.31,-1.26 -2.16,-1.54 -1.94,-1.78 -1.73,-2.01 -1.46,-2.19 -1.19,-2.37 -0.89,-2.48 -0.59,-2.59 -0.27,-2.62 0.04,-2.66 0.36,-2.61 0.67,-2.57 0.97,-2.45 1.27,-2.33 1.53,-2.14 1.79,-1.96 2.00,-1.71 2.21,-1.47 2.21,-1.47 L 2.21,-1.47 Z"></path></g><g stroke-linecap="round"><g transform="translate(620 602.765625) rotate(0 14.5 -45)"><path d="M0.44 0.85 C5.46 -14.21, 24.85 -74.14, 29.8 -89.46 M-0.79 0.25 C4.18 -15.24, 24.14 -76.21, 29.27 -91.29" stroke="#000000" stroke-width="1" fill="none"></path></g></g><g stroke-linecap="round"><g transform="translate(774 531.765625) rotate(0 -126.5 -1)"><path d="M0 -0.61 C-42.26 -0.65, -211.32 -1.2, -253.53 -1.38 M-1.46 1.69 C-43.93 1.4, -212.64 -2.86, -254.75 -3.18" stroke="#000000" stroke-width="1" fill="none"></path></g></g><g transform="translate(665 549.765625) rotate(0 7 12.5)"><text x="0" y="18" font-family="Virgil, Segoe UI Emoji" font-size="20px" fill="#000000" text-anchor="start" style="white-space: pre;" direction="ltr">P</text></g><g transform="translate(904 665.765625) rotate(0 8 12.5)"><text x="0" y="18" font-family="Virgil, Segoe UI Emoji" font-size="20px" fill="#000000" text-anchor="start" style="white-space: pre;" direction="ltr">O</text></g></svg>