<svg version="1.1" xmlns="http://www.w3.org/2000/svg" viewBox="0 0 10020 750.71875" width="10020" height="750.71875">
  <!-- svg-source:excalidraw -->
  
  <defs>
    <style>
      @font-face {
        font-family: "Virgil";
        src: url("https://excalidraw.com/Virgil.woff2");
      }
      @font-face {
        font-family: "Cascadia";
        src: url("https://excalidraw.com/Cascadia.woff2");
      }
    </style>
  </defs>
  <rect x="0" y="0" width="10020" height="750.71875" fill="#fff0"></rect><g stroke-linecap="round" transform="translate(10 10) rotate(0 5000 0.5)"><path d="M-0.52 -0.26 C3022.65 -30.2, 6044.59 -29.2, 9999.32 0.22 M0.38 -0.31 C3948.03 -0.44, 7895.41 0.2, 9999.95 0.08 M10000.08 -0.06 C10000.09 0.27, 10000.05 0.48, 10000.09 0.92 M9999.97 0.01 C9999.95 0.33, 9999.98 0.72, 10000 0.99 M10000.22 1.51 C7095.77 35.76, 4193.15 34.95, -0.25 0.75 M10000.01 1.13 C7827.97 2.74, 5656.23 3.35, -0.33 0.84 M-0.04 1.01 C0 0.63, -0.06 0.15, 0.05 -0.03 M-0.04 0.95 C-0.04 0.73, -0.03 0.59, -0.05 -0.02" stroke="transparent" stroke-width="1" fill="none"></path></g><g stroke-linecap="round"><g transform="translate(667 740.71875) rotate(0 145 -99)"><path d="M-1.07 -0.91 C22.02 -8.6, 98.71 -24.69, 138.84 -45.79 C178.98 -66.89, 214.65 -102.16, 239.75 -127.53 C264.86 -152.89, 281.06 -186.09, 289.48 -197.99 M0.56 1.23 C23.54 -6.36, 98.53 -22.86, 138.34 -44.67 C178.14 -66.47, 214.2 -104.25, 239.38 -129.62 C264.57 -154.99, 281.2 -185.31, 289.45 -196.88" stroke="#000" stroke-width="1" fill="none"></path></g></g><g stroke-linecap="round"><g transform="translate(760 715.71875) rotate(0 25 -10.5)"><path d="M-0.47 0.74 C8.17 -2.81, 42.43 -16.58, 50.7 -20.33 M1.49 0.08 C10.13 -3.9, 41.77 -18.62, 50.13 -22.11" stroke="#1864ab" stroke-width="1" fill="none"></path></g><g transform="translate(760 715.71875) rotate(0 25 -10.5)"><path d="M31.83 -2.11 C35.61 -8.51, 37.27 -12.32, 48.92 -23.11 M30.21 -3.66 C36.26 -9.49, 42.49 -15.01, 50.61 -21.94" stroke="#1864ab" stroke-width="1" fill="none"></path></g><g transform="translate(760 715.71875) rotate(0 25 -10.5)"><path d="M24.3 -19.06 C29.78 -21.91, 33 -22.21, 48.92 -23.11 M22.68 -20.61 C31.13 -20.86, 39.81 -20.85, 50.61 -21.94" stroke="#1864ab" stroke-width="1" fill="none"></path></g></g><g transform="translate(797 711.71875) rotate(0 19 12.5)"><text x="0" y="18" font-family="Virgil, Segoe UI Emoji" font-size="20px" fill="#1864ab" text-anchor="start" style="white-space: pre;" direction="ltr">s(t)</text></g></svg>