<svg version="1.1" xmlns="http://www.w3.org/2000/svg" viewBox="0 0 10020 661.28125" width="10020" height="661.28125">
  <!-- svg-source:excalidraw -->
  
  <defs>
    <style>
      @font-face {
        font-family: "Virgil";
        src: url("https://excalidraw.com/Virgil.woff2");
      }
      @font-face {
        font-family: "Cascadia";
        src: url("https://excalidraw.com/Cascadia.woff2");
      }
    </style>
  </defs>
  <rect x="0" y="0" width="10020" height="661.28125" fill="#fff0"></rect><g stroke-linecap="round" transform="translate(10 10) rotate(0 5000 0.5)"><path d="M-0.52 -0.26 C3022.65 -30.2, 6044.59 -29.2, 9999.32 0.22 M0.38 -0.31 C3948.03 -0.44, 7895.41 0.2, 9999.95 0.08 M10000.08 -0.06 C10000.09 0.27, 10000.05 0.48, 10000.09 0.92 M9999.97 0.01 C9999.95 0.33, 9999.98 0.72, 10000 0.99 M10000.22 1.51 C7095.77 35.76, 4193.15 34.95, -0.25 0.75 M10000.01 1.13 C7827.97 2.74, 5656.23 3.35, -0.33 0.84 M-0.04 1.01 C0 0.63, -0.06 0.15, 0.05 -0.03 M-0.04 0.95 C-0.04 0.73, -0.03 0.59, -0.05 -0.02" stroke="transparent" stroke-width="1" fill="none"></path></g><g transform="translate(578 530.28125) rotate(0 174.5 59)" stroke="none"><path fill="#000" d="M 1.56,0 Q 1.56,0 1.52,5.46 1.49,10.92 1.46,17.55 1.44,24.19 1.42,28.73 1.40,33.28 1.39,41.82 1.38,50.36 1.37,58.02 1.36,65.68 1.35,71.81 1.34,77.93 1.34,82.26 1.33,86.59 1.33,89.87 1.33,93.15 1.32,95.69 1.32,98.24 1.36,100.18 1.40,102.12 1.50,103.50 1.61,104.88 2.18,106.02 2.76,107.16 4.88,108.20 7.01,109.25 11.07,110.14 15.12,111.04 21.21,112.32 27.29,113.60 33.56,114.44 39.83,115.28 49.99,116.52 60.14,117.75 72.45,118.28 84.77,118.81 99.49,119.04 114.22,119.28 128.24,119.38 142.27,119.48 153.98,119.53 165.69,119.58 174.69,119.60 183.69,119.63 191.83,119.64 199.97,119.65 207.45,119.65 214.93,119.66 222.43,119.66 229.92,119.67 236.24,119.38 242.55,119.10 247.49,118.41 252.43,117.72 256.27,117.14 260.11,116.55 266.13,116.30 272.15,116.05 281.60,115.94 291.04,115.84 301.38,115.79 311.72,115.75 318.98,115.73 326.25,115.71 330.49,115.70 334.73,115.69 336.81,115.68 338.90,115.67 340.22,115.29 341.53,114.91 343.10,114.69 344.66,114.47 345.90,114.32 347.13,114.18 348.53,114.00 349.93,113.83 349.71,112.13 349.50,110.42 349.68,107.73 349.85,105.03 349.97,101.28 350.09,97.54 350.18,93.36 350.26,89.18 350.32,82.22 350.38,75.27 350.42,69.16 350.46,63.04 350.49,57.28 350.52,51.51 350.54,47.34 350.57,43.17 350.58,40.24 350.60,37.32 350.61,34.92 350.62,32.53 350.53,30.94 350.44,29.35 350.34,28.10 350.23,26.85 349.82,25.42 349.40,23.99 348.47,22.22 347.54,20.46 346.52,19.00 345.50,17.54 344.78,15.21 344.06,12.87 343.71,10.93 343.37,8.99 342.96,7.46 342.55,5.92 342.30,4.55 342.04,3.18 341.65,2.12 341.25,1.06 340.23,0.48 339.20,-0.09 336.61,-0.26 334.02,-0.44 330.56,-0.61 327.11,-0.77 321.04,-0.89 314.97,-1.01 308.08,-1.10 301.18,-1.19 293.65,-1.26 286.13,-1.33 277.46,-1.37 268.80,-1.42 259.08,-1.46 249.36,-1.49 239.77,-1.52 230.18,-1.54 222.36,-1.56 214.55,-1.58 208.64,-1.60 202.73,-1.61 198.29,-1.05 193.85,-0.49 189.92,0.02 185.99,0.55 181.43,1.06 176.87,1.57 172.64,2.07 168.41,2.57 163.69,2.79 158.97,3.00 155.24,3.09 151.51,3.18 147.38,3.51 143.25,3.83 138.62,4.25 133.98,4.68 129.14,5.15 124.29,5.61 119.32,5.81 114.34,6.02 109.07,6.10 103.79,6.19 98.68,6.22 93.56,6.26 87.07,6.27 80.58,6.29 73.23,6.29 65.87,6.30 58.43,6.30 50.99,6.30 46.39,6.31 41.79,6.31 38.98,6.31 36.16,6.31 34.39,6.38 32.62,6.45 31.29,6.56 29.96,6.67 28.46,6.85 26.96,7.03 25.30,7.16 23.63,7.29 22.55,7.57 21.46,7.86 19.88,8.02 18.31,8.17 17.08,8.27 15.85,8.36 14.45,8.40 13.05,8.43 10.65,8.47 8.25,8.51 6.45,8.44 4.65,8.37 3.03,8.35 1.40,8.33 0.13,8.36 -1.12,8.40 -1.41,8.36 -1.70,8.33 -1.97,8.22 -2.24,8.12 -2.48,7.96 -2.72,7.79 -2.91,7.58 -3.10,7.36 -3.23,7.10 -3.37,6.85 -3.44,6.57 -3.51,6.29 -3.51,6.00 -3.51,5.71 -3.44,5.42 -3.37,5.14 -3.24,4.89 -3.10,4.63 -2.91,4.41 -2.72,4.20 -2.48,4.03 -2.24,3.87 -1.97,3.77 -1.70,3.66 -1.41,3.63 -1.12,3.59 -1.91,2.86 -2.69,2.13 -2.56,1.79 -2.44,1.44 -2.21,1.16 -1.98,0.87 -1.68,0.68 -1.37,0.48 -1.02,0.39 -0.67,0.30 -0.30,0.33 0.05,0.36 0.39,0.50 0.72,0.64 0.99,0.89 1.27,1.13 1.45,1.44 1.63,1.76 1.70,2.12 1.77,2.48 1.72,2.84 1.67,3.20 1.51,3.53 1.35,3.85 1.09,4.11 0.84,4.37 0.51,4.53 0.18,4.70 -0.17,4.75 -0.53,4.80 -0.89,4.73 -1.24,4.66 -1.56,4.48 -1.88,4.31 -2.12,4.03 -2.37,3.76 -2.51,3.43 -2.66,3.10 -2.69,2.73 -2.72,2.37 -2.63,2.02 -2.55,1.66 -2.35,1.35 -2.16,1.05 -1.87,0.82 -1.59,0.59 -1.25,0.46 -0.91,0.33 -0.54,0.32 -0.18,0.31 0.16,0.42 0.51,0.52 0.81,0.74 1.10,0.95 1.32,1.24 1.53,1.54 1.64,1.89 1.75,2.23 1.74,2.60 1.73,2.96 1.73,2.96 1.73,2.96 0.30,5.68 -1.12,8.40 -1.41,8.36 -1.70,8.33 -1.97,8.22 -2.24,8.12 -2.48,7.96 -2.72,7.79 -2.91,7.58 -3.10,7.36 -3.23,7.10 -3.37,6.85 -3.44,6.57 -3.51,6.29 -3.51,6.00 -3.51,5.71 -3.44,5.43 -3.37,5.14 -3.24,4.89 -3.10,4.63 -2.91,4.41 -2.72,4.20 -2.48,4.03 -2.24,3.87 -1.97,3.77 -1.70,3.66 -1.41,3.63 -1.12,3.59 0.13,3.62 1.40,3.66 3.02,3.63 4.65,3.61 6.44,3.54 8.23,3.47 10.60,3.48 12.97,3.49 14.30,3.49 15.63,3.48 16.77,3.47 17.90,3.45 19.19,3.37 20.47,3.28 22.04,2.99 23.61,2.70 25.28,2.83 26.96,2.96 28.46,3.14 29.96,3.32 31.29,3.43 32.61,3.54 34.39,3.61 36.16,3.68 38.98,3.68 41.79,3.68 46.39,3.68 50.99,3.68 58.43,3.67 65.87,3.67 73.22,3.66 80.58,3.66 87.06,3.64 93.54,3.63 98.65,3.59 103.75,3.55 108.99,3.47 114.24,3.39 119.14,3.19 124.04,2.99 128.89,2.52 133.74,2.05 138.39,1.62 143.05,1.20 147.25,0.87 151.45,0.54 155.15,0.44 158.84,0.35 163.47,0.14 168.09,-0.07 172.33,-0.58 176.57,-1.09 181.10,-1.60 185.63,-2.12 189.57,-2.66 193.51,-3.20 198.12,-3.79 202.73,-4.38 208.64,-4.39 214.55,-4.41 222.36,-4.43 230.18,-4.44 239.77,-4.47 249.36,-4.50 259.08,-4.53 268.80,-4.57 277.46,-4.61 286.13,-4.66 293.66,-4.73 301.18,-4.79 308.08,-4.88 314.97,-4.97 321.04,-5.08 327.12,-5.20 330.59,-5.35 334.06,-5.50 337.16,-5.56 340.25,-5.62 341.93,-4.84 343.61,-4.05 344.65,-2.61 345.69,-1.18 346.09,0.67 346.49,2.53 346.60,3.68 346.71,4.82 347.16,6.50 347.61,8.18 347.93,9.75 348.25,11.32 349.10,13.18 349.95,15.04 350.88,16.74 351.81,18.45 352.24,19.50 352.67,20.55 353.06,21.64 353.44,22.73 353.60,24.79 353.76,26.85 353.65,28.10 353.55,29.35 353.46,30.94 353.37,32.53 353.38,34.92 353.39,37.32 353.41,40.24 353.42,43.17 353.44,47.34 353.47,51.51 353.50,57.28 353.52,63.04 353.56,69.16 353.60,75.27 353.66,82.23 353.71,89.18 353.78,93.37 353.84,97.56 353.93,101.32 354.01,105.09 354.10,107.89 354.19,110.69 354.08,112.74 353.97,114.79 353.27,115.96 352.57,117.13 351.39,117.66 350.21,118.19 348.75,118.08 347.29,117.97 346.12,117.93 344.94,117.89 343.54,117.91 342.13,117.94 340.52,118.13 338.91,118.33 336.82,118.33 334.73,118.32 330.49,118.33 326.26,118.34 318.99,118.36 311.73,118.38 301.40,118.42 291.07,118.47 281.66,118.57 272.26,118.68 266.38,118.92 260.50,119.16 256.65,119.75 252.79,120.33 247.73,121.04 242.67,121.74 236.30,122.03 229.92,122.32 222.42,122.32 214.93,122.32 207.45,122.32 199.96,122.32 191.82,122.32 183.68,122.32 174.68,122.30 165.68,122.29 153.96,122.26 142.25,122.23 128.21,122.15 114.18,122.07 99.41,121.87 84.65,121.66 72.22,121.17 59.79,120.67 49.62,119.49 39.44,118.32 33.05,117.54 26.66,116.76 20.54,115.58 14.43,114.41 10.06,113.58 5.70,112.75 3.57,111.88 1.44,111.00 0.48,109.76 -0.46,108.52 -1.03,106.74 -1.61,104.97 -1.50,103.54 -1.40,102.12 -1.36,100.18 -1.32,98.24 -1.32,95.69 -1.33,93.15 -1.33,89.87 -1.33,86.59 -1.34,82.26 -1.34,77.93 -1.35,71.81 -1.36,65.68 -1.37,58.02 -1.38,50.36 -1.39,41.82 -1.40,33.28 -1.42,28.73 -1.44,24.19 -1.46,17.55 -1.49,10.92 -1.52,5.46 -1.56,0 -1.53,-0.18 -1.51,-0.37 -1.45,-0.54 -1.38,-0.72 -1.27,-0.88 -1.16,-1.03 -1.02,-1.16 -0.88,-1.28 -0.72,-1.37 -0.55,-1.46 -0.37,-1.50 -0.18,-1.55 0.00,-1.55 0.18,-1.55 0.37,-1.50 0.55,-1.46 0.72,-1.37 0.88,-1.28 1.02,-1.16 1.16,-1.03 1.27,-0.88 1.38,-0.72 1.45,-0.54 1.51,-0.37 1.53,-0.18 1.56,0.00 1.56,0.00 L 1.56,0 Z"></path></g><g transform="translate(961 540.28125) rotate(0 7.5 15)" stroke="none"><path fill="#000" d="M 1.17,1.96 Q 1.17,1.96 -0.24,2.78 -1.67,3.61 -2.63,4.83 -3.58,6.05 -4.28,7.39 -4.97,8.74 -5.55,9.97 -6.13,11.19 -6.62,12.48 -7.11,13.77 -7.26,14.99 -7.42,16.21 -7.49,17.59 -7.57,18.96 -7.60,20.40 -7.63,21.84 -6.65,23.31 -5.67,24.78 -4.09,26.05 -2.51,27.32 -0.81,28.15 0.88,28.99 2.64,29.34 4.40,29.68 6.30,29.86 8.19,30.03 9.84,30.07 11.50,30.10 12.68,29.64 13.86,29.17 14.43,28.06 15.00,26.95 16.35,25.24 17.70,23.53 18.83,22.15 19.97,20.77 20.61,19.67 21.25,18.58 21.84,16.93 22.43,15.28 22.53,13.79 22.63,12.30 22.67,10.77 22.71,9.24 22.68,8.02 22.66,6.79 22.62,5.70 22.58,4.61 22.51,1.47 22.45,-1.66 22.51,-2.06 22.58,-2.47 22.77,-2.83 22.97,-3.20 23.27,-3.48 23.57,-3.76 23.94,-3.94 24.31,-4.11 24.72,-4.16 25.13,-4.20 25.54,-4.11 25.94,-4.02 26.29,-3.81 26.65,-3.60 26.91,-3.28 27.18,-2.97 27.33,-2.58 27.48,-2.20 27.51,-1.79 27.53,-1.38 27.42,-0.98 27.31,-0.58 27.08,-0.24 26.84,0.09 26.52,0.34 26.19,0.59 25.80,0.72 25.41,0.85 24.99,0.85 24.58,0.85 24.19,0.72 23.80,0.59 23.47,0.34 23.14,0.09 22.91,-0.24 22.68,-0.59 22.57,-0.98 22.46,-1.38 22.48,-1.79 22.51,-2.20 22.66,-2.59 22.81,-2.97 23.08,-3.28 23.35,-3.60 23.70,-3.81 24.05,-4.02 24.46,-4.11 24.86,-4.20 25.27,-4.15 25.68,-4.11 26.05,-3.94 26.43,-3.76 26.73,-3.48 27.03,-3.20 27.22,-2.83 27.41,-2.47 27.48,-2.06 27.54,-1.65 27.54,-1.65 27.54,-1.65 27.47,1.49 27.39,4.64 27.33,5.75 27.27,6.87 27.21,8.12 27.14,9.38 27.09,10.98 27.03,12.59 26.91,14.41 26.79,16.22 25.64,18.49 24.49,20.76 23.61,21.93 22.73,23.11 21.63,24.35 20.53,25.60 19.33,27.36 18.14,29.13 16.79,30.78 15.43,32.43 13.44,33.06 11.45,33.70 9.68,33.60 7.92,33.50 5.84,33.37 3.75,33.24 1.57,32.86 -0.61,32.48 -2.78,31.62 -4.95,30.76 -7.08,29.37 -9.21,27.99 -10.43,26.43 -11.65,24.86 -11.94,23.30 -12.24,21.74 -12.18,20.20 -12.13,18.66 -12.00,17.07 -11.88,15.49 -11.56,13.82 -11.24,12.14 -10.63,10.67 -10.01,9.20 -9.35,8.00 -8.68,6.79 -7.79,5.13 -6.90,3.46 -5.49,1.65 -4.07,-0.16 -2.62,-1.06 -1.17,-1.96 -0.92,-2.07 -0.67,-2.18 -0.40,-2.23 -0.13,-2.28 0.14,-2.26 0.42,-2.25 0.68,-2.16 0.94,-2.08 1.18,-1.94 1.41,-1.79 1.61,-1.60 1.80,-1.40 1.94,-1.16 2.09,-0.93 2.17,-0.66 2.25,-0.40 2.27,-0.12 2.28,0.14 2.23,0.41 2.18,0.68 2.07,0.94 1.95,1.19 1.78,1.40 1.61,1.62 1.39,1.79 1.17,1.96 1.17,1.96 L 1.17,1.96 Z"></path></g><g transform="translate(702 559.28125) rotate(0 -30 16)" stroke="none"><path fill="#000" d="M -0.74,1.48 Q -0.74,1.48 -2.46,0.62 -4.19,-0.24 -7.41,-1.47 -10.63,-2.71 -15.66,-3.81 -20.69,-4.91 -25.10,-5.39 -29.51,-5.87 -33.39,-6.08 -37.27,-6.29 -40.87,-6.10 -44.48,-5.92 -47.92,-5.00 -51.36,-4.08 -53.34,-3.15 -55.32,-2.22 -56.66,-1.22 -58.00,-0.23 -59.08,0.78 -60.17,1.79 -61.17,2.82 -62.17,3.85 -62.82,5.34 -63.48,6.83 -63.54,8.02 -63.60,9.21 -63.74,11.14 -63.88,13.07 -63.91,14.78 -63.93,16.48 -63.92,18.07 -63.91,19.65 -63.89,21.17 -63.88,22.69 -63.41,24.18 -62.94,25.67 -62.01,26.70 -61.08,27.73 -59.87,28.76 -58.66,29.78 -57.58,30.45 -56.50,31.11 -54.97,32.00 -53.43,32.89 -51.42,33.90 -49.40,34.90 -46.66,35.61 -43.92,36.32 -40.72,36.94 -37.52,37.57 -34.50,37.84 -31.47,38.12 -28.46,38.25 -25.45,38.38 -23.01,38.45 -20.58,38.51 -18.40,38.54 -16.22,38.58 -13.94,38.31 -11.66,38.05 -9.63,37.39 -7.60,36.73 -5.93,35.88 -4.26,35.02 -3.13,33.86 -1.99,32.70 -0.58,31.33 0.82,29.95 2.02,27.46 3.22,24.97 3.47,23.50 3.73,22.03 3.86,20.30 3.99,18.57 4.07,16.68 4.15,14.80 4.14,13.13 4.13,11.46 4.07,10.17 4.00,8.89 3.93,7.78 3.86,6.67 3.42,5.21 2.98,3.76 1.16,3.32 -0.65,2.88 -0.79,0.06 -0.94,-2.74 -0.49,-2.70 -0.04,-2.65 0.36,-2.47 0.78,-2.28 1.11,-1.97 1.44,-1.66 1.66,-1.26 1.87,-0.87 1.95,-0.42 2.03,0.02 1.96,0.46 1.89,0.91 1.68,1.31 1.47,1.72 1.15,2.03 0.82,2.35 0.41,2.54 0.00,2.74 -0.44,2.79 -0.89,2.84 -1.33,2.75 -1.77,2.66 -2.16,2.43 -2.56,2.20 -2.85,1.85 -3.15,1.51 -3.32,1.09 -3.49,0.67 -3.52,0.22 -3.55,-0.22 -3.43,-0.66 -3.32,-1.10 -3.07,-1.47 -2.81,-1.85 -2.46,-2.13 -2.10,-2.41 -1.67,-2.56 -1.24,-2.71 -0.79,-2.71 -0.34,-2.71 0.08,-2.57 0.52,-2.43 0.88,-2.16 1.24,-1.89 1.50,-1.52 1.76,-1.15 1.88,-0.71 2.01,-0.28 1.99,0.17 1.97,0.62 1.80,1.04 1.64,1.47 1.35,1.81 1.06,2.16 0.67,2.40 0.29,2.64 -0.14,2.74 -0.58,2.84 -0.58,2.84 -0.58,2.84 1.31,0.97 3.22,-0.89 4.65,-0.15 6.08,0.58 6.84,2.27 7.59,3.96 7.85,5.30 8.11,6.64 8.03,7.78 7.96,8.92 7.87,10.22 7.78,11.51 7.72,13.21 7.65,14.91 7.60,16.89 7.56,18.87 7.39,20.82 7.22,22.78 6.76,24.58 6.31,26.37 5.42,28.33 4.54,30.28 3.74,31.21 2.95,32.13 1.50,33.53 0.06,34.93 -1.46,36.23 -2.99,37.54 -4.88,38.42 -6.77,39.31 -9.05,40.04 -11.33,40.77 -13.79,41.06 -16.24,41.36 -18.44,41.35 -20.63,41.35 -23.09,41.32 -25.55,41.30 -28.63,41.22 -31.71,41.14 -34.90,40.92 -38.08,40.70 -41.39,40.16 -44.70,39.61 -47.80,38.93 -50.89,38.25 -53.14,37.34 -55.39,36.43 -57.13,35.51 -58.86,34.59 -60.06,33.70 -61.27,32.82 -62.72,31.56 -64.18,30.30 -65.46,28.64 -66.74,26.99 -67.42,24.87 -68.10,22.74 -68.07,21.19 -68.05,19.63 -68.02,18.03 -67.99,16.43 -67.96,14.69 -67.94,12.96 -67.96,10.86 -67.99,8.77 -67.78,7.24 -67.57,5.72 -66.96,4.18 -66.34,2.64 -65.48,1.91 -64.61,1.19 -63.45,0.22 -62.28,-0.74 -60.97,-1.71 -59.66,-2.69 -58.07,-3.68 -56.47,-4.66 -54.27,-5.69 -52.06,-6.71 -48.35,-7.70 -44.64,-8.68 -40.88,-8.89 -37.13,-9.11 -33.17,-8.93 -29.21,-8.74 -24.64,-8.29 -20.07,-7.84 -14.81,-6.74 -9.55,-5.65 -6.13,-4.42 -2.70,-3.20 -0.98,-2.34 0.74,-1.48 0.90,-1.37 1.07,-1.26 1.20,-1.11 1.34,-0.96 1.44,-0.79 1.53,-0.61 1.58,-0.42 1.64,-0.23 1.64,-0.03 1.64,0.16 1.60,0.36 1.56,0.55 1.47,0.73 1.38,0.91 1.25,1.06 1.12,1.21 0.96,1.33 0.79,1.45 0.61,1.52 0.42,1.60 0.23,1.62 0.03,1.65 -0.16,1.63 -0.36,1.61 -0.55,1.54 -0.74,1.48 -0.74,1.48 L -0.74,1.48 Z"></path></g><g transform="translate(790 562.28125) rotate(0 -52 11.5)" stroke="none"><path fill="#000" d="M -1.13,1.13 Q -1.13,1.13 -2.31,0.03 -3.49,-1.06 -5.45,-2.01 -7.42,-2.97 -10.34,-4.31 -13.25,-5.65 -17.04,-7.08 -20.82,-8.51 -26.13,-9.98 -31.43,-11.45 -37.37,-12.36 -43.30,-13.27 -48.97,-13.66 -54.63,-14.05 -58.77,-14.22 -62.90,-14.40 -66.32,-14.19 -69.75,-13.97 -72.26,-13.33 -74.77,-12.69 -76.65,-11.87 -78.54,-11.04 -79.89,-10.32 -81.24,-9.59 -82.87,-7.97 -84.50,-6.36 -85.35,-5.53 -86.20,-4.70 -87.12,-3.76 -88.05,-2.82 -88.94,-1.67 -89.82,-0.52 -90.85,0.65 -91.88,1.83 -92.82,3.08 -93.77,4.33 -94.77,5.72 -95.77,7.11 -96.78,8.55 -97.79,10.00 -98.48,10.98 -99.17,11.96 -99.66,13.73 -100.14,15.49 -100.68,16.73 -101.21,17.96 -101.17,19.39 -101.13,20.83 -100.39,22.26 -99.65,23.69 -97.47,25.49 -95.30,27.30 -93.81,28.37 -92.33,29.45 -90.87,30.17 -89.41,30.89 -88.14,31.47 -86.87,32.05 -84.82,32.24 -82.77,32.43 -80.55,32.61 -78.34,32.80 -75.00,33.22 -71.66,33.64 -67.61,34.43 -63.57,35.23 -60.17,35.87 -56.77,36.52 -54.51,36.80 -52.25,37.09 -50.16,37.22 -48.08,37.36 -45.47,37.43 -42.86,37.49 -40.03,37.53 -37.19,37.56 -34.33,37.30 -31.47,37.04 -29.50,36.38 -27.54,35.73 -26.14,35.07 -24.75,34.42 -23.76,33.62 -22.78,32.82 -22.26,31.79 -21.73,30.76 -21.12,29.04 -20.50,27.31 -20.45,26.08 -20.39,24.84 -20.37,23.45 -20.34,22.06 -20.33,20.60 -20.33,19.14 -20.01,17.44 -19.70,15.75 -19.60,14.38 -19.49,13.01 -19.52,11.41 -19.54,9.81 -19.15,8.72 -18.77,7.63 -18.37,6.61 -17.97,5.59 -17.96,4.22 -17.94,2.86 -17.97,1.40 -18.00,-0.05 -18.54,-1.49 -19.08,-2.93 -19.33,-4.00 -19.58,-5.07 -19.77,-5.55 -19.95,-6.04 -19.97,-6.55 -19.99,-7.07 -19.85,-7.57 -19.70,-8.07 -19.40,-8.49 -19.11,-8.92 -18.69,-9.22 -18.27,-9.53 -17.78,-9.69 -17.29,-9.85 -16.77,-9.84 -16.25,-9.83 -15.76,-9.66 -15.27,-9.49 -14.86,-9.17 -14.46,-8.85 -14.17,-8.42 -13.89,-7.99 -13.75,-7.48 -13.62,-6.98 -13.66,-6.47 -13.69,-5.95 -13.89,-5.47 -14.09,-4.99 -14.43,-4.60 -14.77,-4.21 -15.22,-3.95 -15.67,-3.69 -16.18,-3.58 -16.68,-3.48 -17.20,-3.54 -17.71,-3.61 -18.18,-3.83 -18.65,-4.05 -19.02,-4.42 -19.39,-4.78 -19.63,-5.24 -19.86,-5.70 -19.94,-6.21 -20.02,-6.73 -19.92,-7.24 -19.83,-7.75 -19.58,-8.20 -19.33,-8.66 -18.95,-9.01 -18.57,-9.36 -18.10,-9.57 -17.63,-9.78 -17.11,-9.83 -16.59,-9.88 -16.09,-9.76 -15.58,-9.64 -15.14,-9.37 -14.70,-9.09 -14.37,-8.69 -14.04,-8.29 -14.04,-8.29 -14.04,-8.29 -13.45,-5.52 -12.86,-2.74 -12.43,-1.58 -12.00,-0.42 -12.03,0.74 -12.06,1.91 -12.17,3.25 -12.28,4.58 -12.41,5.68 -12.54,6.77 -13.53,8.48 -14.52,10.19 -14.69,11.79 -14.87,13.40 -15.02,15.02 -15.17,16.65 -15.45,17.93 -15.73,19.22 -15.76,20.71 -15.79,22.21 -15.86,23.71 -15.93,25.21 -16.11,26.72 -16.28,28.24 -17.45,30.53 -18.62,32.81 -19.69,34.20 -20.76,35.60 -22.18,36.44 -23.59,37.29 -25.14,37.80 -26.69,38.31 -28.94,39.05 -31.19,39.78 -34.20,40.07 -37.21,40.37 -40.06,40.37 -42.91,40.36 -45.57,40.34 -48.22,40.32 -50.40,40.24 -52.58,40.16 -54.95,39.95 -57.32,39.74 -60.75,39.21 -64.18,38.68 -68.10,38.06 -72.01,37.44 -75.22,37.25 -78.43,37.05 -80.79,37.14 -83.16,37.24 -84.66,37.08 -86.17,36.92 -87.49,36.53 -88.82,36.15 -90.06,35.51 -91.29,34.88 -93.03,34.10 -94.76,33.32 -96.73,32.22 -98.70,31.12 -100.00,30.07 -101.30,29.03 -102.85,27.82 -104.40,26.60 -105.28,25.06 -106.16,23.51 -106.49,22.16 -106.81,20.81 -106.68,19.30 -106.55,17.78 -105.99,16.18 -105.44,14.58 -104.61,13.22 -103.78,11.87 -103.24,10.60 -102.71,9.33 -101.98,8.49 -101.24,7.65 -100.26,6.15 -99.27,4.66 -98.27,3.19 -97.27,1.71 -96.21,0.30 -95.16,-1.11 -94.19,-2.16 -93.22,-3.20 -92.12,-4.57 -91.01,-5.94 -89.95,-6.88 -88.90,-7.81 -86.89,-9.16 -84.88,-10.52 -83.72,-11.42 -82.56,-12.33 -81.08,-12.91 -79.59,-13.48 -77.51,-14.38 -75.43,-15.28 -72.68,-15.97 -69.92,-16.66 -66.36,-16.88 -62.80,-17.11 -58.62,-16.95 -54.45,-16.79 -48.67,-16.41 -42.89,-16.03 -36.78,-15.12 -30.68,-14.20 -25.24,-12.74 -19.80,-11.27 -15.91,-9.86 -12.01,-8.45 -9.02,-7.16 -6.02,-5.88 -3.56,-4.70 -1.10,-3.53 0.01,-2.33 1.13,-1.13 1.24,-0.97 1.36,-0.82 1.44,-0.65 1.52,-0.47 1.56,-0.28 1.59,-0.09 1.58,0.09 1.57,0.28 1.51,0.47 1.45,0.65 1.35,0.82 1.25,0.98 1.12,1.12 0.98,1.25 0.82,1.35 0.65,1.45 0.47,1.51 0.28,1.57 0.09,1.58 -0.09,1.59 -0.28,1.56 -0.47,1.52 -0.65,1.44 -0.82,1.36 -0.97,1.24 -1.13,1.13 -1.13,1.13 L -1.13,1.13 Z"></path></g><g transform="translate(639 625.28125) rotate(0 11.5 -9.5)" stroke="none"><path fill="#000" d="M -1.97,-1.12 Q -1.97,-1.12 -0.71,-3.07 0.54,-5.02 2.05,-6.80 3.56,-8.58 4.33,-10.05 5.10,-11.52 6.08,-13.30 7.06,-15.09 7.39,-16.74 7.72,-18.40 8.12,-19.63 8.52,-20.86 10.32,-22.09 12.11,-23.32 14.38,-21.74 16.64,-20.17 17.62,-17.97 18.61,-15.78 19.50,-13.44 20.39,-11.10 20.84,-9.10 21.29,-7.11 21.70,-5.19 22.12,-3.28 20.51,-1.31 18.90,0.64 18.71,0.39 18.53,0.14 18.43,-0.15 18.33,-0.45 18.33,-0.76 18.33,-1.08 18.43,-1.37 18.53,-1.67 18.73,-1.92 18.92,-2.17 19.18,-2.35 19.44,-2.52 19.74,-2.60 20.05,-2.69 20.36,-2.67 20.67,-2.65 20.97,-2.53 21.26,-2.41 21.50,-2.21 21.74,-2.01 21.90,-1.73 22.06,-1.46 22.12,-1.16 22.19,-0.85 22.15,-0.54 22.12,-0.22 21.99,0.05 21.85,0.34 21.63,0.56 21.42,0.79 21.14,0.94 20.86,1.08 20.55,1.13 20.24,1.18 19.93,1.13 19.62,1.08 19.34,0.93 19.06,0.78 18.85,0.55 18.63,0.32 18.50,0.03 18.37,-0.24 18.34,-0.56 18.31,-0.87 18.38,-1.18 18.44,-1.48 18.61,-1.75 18.77,-2.02 19.01,-2.22 19.25,-2.42 19.55,-2.54 19.84,-2.65 20.15,-2.67 20.47,-2.69 20.77,-2.60 21.07,-2.51 21.33,-2.34 21.59,-2.16 21.59,-2.16 21.59,-2.16 20.05,-2.27 18.50,-2.39 17.99,-4.31 17.47,-6.23 17.09,-7.86 16.70,-9.49 15.64,-11.61 14.57,-13.73 13.48,-15.85 12.39,-17.98 11.79,-16.86 11.20,-15.75 10.67,-14.63 10.14,-13.50 9.24,-11.63 8.34,-9.77 7.39,-8.05 6.44,-6.33 5.24,-4.67 4.05,-3.02 3.01,-0.94 1.97,1.12 1.80,1.34 1.64,1.56 1.43,1.73 1.22,1.91 0.97,2.03 0.72,2.15 0.46,2.20 0.19,2.26 -0.08,2.25 -0.35,2.24 -0.61,2.16 -0.88,2.09 -1.11,1.95 -1.35,1.82 -1.55,1.63 -1.75,1.44 -1.89,1.21 -2.04,0.98 -2.13,0.72 -2.22,0.46 -2.24,0.19 -2.26,-0.08 -2.22,-0.35 -2.18,-0.62 -2.07,-0.87 -1.97,-1.12 -1.97,-1.12 L -1.97,-1.12 Z"></path></g><g transform="translate(637 617.28125) rotate(0 8.5 0)" stroke="none"><path fill="#000" d="M 0,-2.55 Q 0,-2.55 2.01,-2.42 4.02,-2.29 5.16,-2.34 6.31,-2.39 7.65,-2.40 9.00,-2.42 10.52,-2.52 12.03,-2.62 14.35,-2.68 16.68,-2.74 17.12,-2.67 17.56,-2.60 17.95,-2.39 18.34,-2.18 18.65,-1.86 18.95,-1.54 19.14,-1.13 19.33,-0.73 19.37,-0.29 19.42,0.14 19.33,0.58 19.23,1.01 19.00,1.39 18.77,1.78 18.43,2.06 18.09,2.35 17.68,2.52 17.27,2.68 16.82,2.70 16.38,2.73 15.95,2.61 15.52,2.49 15.15,2.24 14.79,1.99 14.52,1.64 14.25,1.28 14.11,0.86 13.96,0.44 13.96,-0.00 13.96,-0.44 14.11,-0.86 14.25,-1.28 14.52,-1.64 14.79,-1.99 15.16,-2.24 15.52,-2.49 15.95,-2.61 16.38,-2.73 16.83,-2.70 17.27,-2.68 17.68,-2.52 18.10,-2.35 18.43,-2.06 18.77,-1.77 19.00,-1.39 19.23,-1.01 19.33,-0.58 19.42,-0.14 19.37,0.29 19.33,0.73 19.14,1.13 18.95,1.54 18.65,1.86 18.34,2.18 17.95,2.39 17.55,2.60 17.12,2.67 16.68,2.74 16.68,2.74 16.68,2.74 14.35,2.68 12.03,2.62 10.52,2.52 9.00,2.42 7.65,2.40 6.31,2.39 5.16,2.34 4.02,2.29 2.01,2.42 0,2.55 -0.30,2.51 -0.61,2.47 -0.89,2.36 -1.18,2.25 -1.43,2.08 -1.69,1.90 -1.89,1.67 -2.09,1.44 -2.24,1.17 -2.38,0.90 -2.45,0.60 -2.53,0.30 -2.53,-0.00 -2.53,-0.30 -2.45,-0.60 -2.38,-0.90 -2.24,-1.17 -2.09,-1.44 -1.89,-1.67 -1.69,-1.90 -1.43,-2.08 -1.18,-2.25 -0.89,-2.36 -0.61,-2.47 -0.30,-2.51 0.00,-2.55 0.00,-2.55 L 0,-2.55 Z"></path></g><g transform="translate(823 602.28125) rotate(0 9 7.5)" stroke="none"><path fill="#000" d="M 2.32,0.46 Q 2.32,0.46 2.04,1.90 1.75,3.33 1.60,4.95 1.45,6.57 0.68,8.71 -0.08,10.84 -0.27,12.10 -0.47,13.36 -0.51,14.43 -0.55,15.50 -0.90,17.02 -1.24,18.55 -1.32,20.56 -1.41,22.56 -1.41,22.73 -1.42,22.90 -1.47,23.20 -1.53,23.50 -1.65,23.78 -1.78,24.06 -1.97,24.30 -2.15,24.54 -2.39,24.73 -2.63,24.92 -2.91,25.05 -3.19,25.18 -3.49,25.23 -3.79,25.29 -4.10,25.27 -4.41,25.25 -4.70,25.16 -4.99,25.07 -5.25,24.92 -5.52,24.76 -5.74,24.54 -5.95,24.33 -6.11,24.06 -6.27,23.80 -6.36,23.51 -6.46,23.22 -6.48,22.91 -6.49,22.61 -6.50,20.94 -6.50,19.26 -6.35,17.17 -6.21,15.08 -6.09,12.75 -5.97,10.42 -5.29,7.53 -4.61,4.63 -4.06,2.82 -3.52,1.01 -3.04,-0.38 -2.57,-1.78 -2.06,-2.80 -1.56,-3.83 -0.60,-5.61 0.34,-7.39 1.39,-8.70 2.43,-10.02 4.09,-10.78 5.74,-11.55 7.97,-11.67 10.20,-11.78 11.86,-11.45 13.52,-11.12 14.87,-10.65 16.22,-10.19 17.66,-9.21 19.10,-8.23 19.98,-6.80 20.86,-5.37 20.89,-3.49 20.91,-1.61 20.52,-0.00 20.12,1.61 19.24,3.15 18.36,4.69 17.71,5.59 17.07,6.50 16.12,7.54 15.17,8.58 13.80,9.30 12.44,10.02 10.47,10.41 8.51,10.80 6.79,10.89 5.07,10.97 3.93,11.03 2.80,11.08 2.28,11.10 1.77,11.13 1.39,11.08 1.02,11.04 0.67,10.91 0.31,10.77 0.00,10.56 -0.30,10.35 -0.55,10.06 -0.80,9.78 -0.98,9.45 -1.16,9.12 -1.25,8.75 -1.34,8.38 -1.34,8.01 -1.34,7.63 -1.26,7.26 -1.17,6.90 -0.99,6.56 -0.82,6.23 -0.57,5.94 -0.32,5.66 -0.01,5.44 0.29,5.23 0.64,5.09 0.99,4.96 1.37,4.91 1.74,4.86 3.13,4.86 4.52,4.86 5.81,4.90 7.09,4.93 8.50,4.98 9.91,5.03 11.10,5.04 12.29,5.05 13.74,5.39 15.19,5.73 16.26,6.25 17.34,6.77 19.14,7.69 20.95,8.61 21.87,9.24 22.80,9.88 23.50,10.78 24.21,11.69 24.70,12.75 25.19,13.81 25.11,15.41 25.03,17.02 24.01,18.28 23.00,19.54 21.92,20.23 20.85,20.91 19.48,21.32 18.11,21.72 16.77,22.21 15.44,22.70 13.95,23.05 12.47,23.40 10.88,23.52 9.29,23.64 8.07,23.70 6.84,23.76 5.44,23.76 4.05,23.76 2.59,23.74 1.14,23.72 -0.04,23.73 -1.23,23.74 -2.77,23.78 -4.31,23.81 -4.76,23.74 -5.21,23.67 -5.62,23.45 -6.02,23.24 -6.33,22.91 -6.65,22.58 -6.84,22.17 -7.03,21.75 -7.08,21.30 -7.13,20.85 -7.04,20.40 -6.94,19.95 -6.70,19.56 -6.47,19.17 -6.12,18.88 -5.77,18.58 -5.35,18.41 -4.93,18.24 -4.47,18.22 -4.02,18.19 -3.58,18.31 -3.14,18.43 -2.76,18.69 -2.38,18.94 -2.10,19.31 -1.83,19.67 -1.68,20.10 -1.54,20.53 -1.53,20.99 -1.53,21.45 -1.68,21.88 -1.82,22.31 -2.10,22.67 -2.37,23.04 -2.75,23.29 -3.13,23.55 -3.57,23.67 -4.01,23.80 -4.46,23.77 -4.92,23.75 -5.34,23.58 -5.77,23.41 -6.12,23.12 -6.46,22.82 -6.70,22.43 -6.93,22.04 -7.03,21.60 -7.13,21.15 -7.08,20.70 -7.03,20.24 -6.84,19.83 -6.65,19.41 -6.34,19.08 -6.03,18.75 -5.62,18.54 -5.22,18.32 -4.77,18.25 -4.32,18.17 -4.32,18.17 -4.32,18.17 -2.79,18.21 -1.25,18.24 -0.07,18.24 1.11,18.24 2.53,18.20 3.96,18.16 5.27,18.12 6.59,18.08 7.69,18.03 8.80,17.99 10.96,17.65 13.12,17.31 14.88,16.46 16.64,15.61 18.11,15.73 19.58,15.85 18.90,14.90 18.22,13.95 16.34,12.98 14.45,12.01 13.34,11.47 12.23,10.94 11.07,10.95 9.91,10.96 8.50,11.01 7.09,11.06 5.81,11.09 4.52,11.13 3.14,11.13 1.77,11.13 1.39,11.08 1.02,11.04 0.67,10.91 0.31,10.77 0.00,10.56 -0.30,10.35 -0.55,10.07 -0.80,9.78 -0.98,9.45 -1.16,9.12 -1.25,8.75 -1.34,8.38 -1.34,8.01 -1.34,7.63 -1.26,7.26 -1.17,6.90 -0.99,6.56 -0.82,6.23 -0.57,5.94 -0.32,5.66 -0.01,5.44 0.29,5.23 0.64,5.09 0.99,4.96 1.37,4.91 1.74,4.86 2.26,4.88 2.77,4.90 3.86,4.94 4.96,4.98 6.50,4.98 8.04,4.99 9.16,4.91 10.29,4.83 11.48,4.00 12.67,3.17 13.75,1.72 14.84,0.27 15.29,-1.84 15.74,-3.97 14.07,-4.84 12.41,-5.70 11.33,-5.93 10.25,-6.16 9.11,-6.14 7.98,-6.13 6.56,-5.82 5.13,-5.51 4.18,-4.53 3.23,-3.55 2.14,-1.95 1.05,-0.34 0.50,0.87 -0.04,2.08 -0.56,3.73 -1.08,5.38 -1.55,7.91 -2.01,10.44 -1.89,12.76 -1.77,15.08 -1.63,17.16 -1.48,19.25 -1.45,21.07 -1.42,22.90 -1.47,23.20 -1.53,23.50 -1.65,23.78 -1.78,24.06 -1.96,24.30 -2.15,24.54 -2.39,24.73 -2.63,24.92 -2.91,25.05 -3.19,25.18 -3.49,25.23 -3.79,25.29 -4.10,25.27 -4.41,25.25 -4.70,25.16 -4.99,25.07 -5.25,24.92 -5.52,24.76 -5.73,24.54 -5.95,24.33 -6.11,24.06 -6.27,23.80 -6.36,23.51 -6.46,23.22 -6.48,22.91 -6.49,22.61 -6.45,22.44 -6.40,22.28 -6.29,21.14 -6.18,20.00 -5.97,18.71 -5.76,17.43 -5.43,16.24 -5.10,15.05 -4.92,13.80 -4.74,12.54 -4.40,11.04 -4.06,9.53 -3.57,7.87 -3.09,6.22 -3.00,4.31 -2.90,2.41 -2.61,0.97 -2.32,-0.46 -2.23,-0.73 -2.14,-1.00 -1.99,-1.24 -1.84,-1.49 -1.63,-1.69 -1.43,-1.88 -1.18,-2.03 -0.93,-2.17 -0.66,-2.25 -0.38,-2.33 -0.10,-2.35 0.18,-2.36 0.46,-2.30 0.74,-2.25 1.00,-2.12 1.25,-2.00 1.48,-1.82 1.70,-1.64 1.87,-1.42 2.04,-1.19 2.16,-0.93 2.27,-0.66 2.32,-0.38 2.36,-0.10 2.34,0.18 2.32,0.46 2.32,0.46 L 2.32,0.46 Z"></path></g><g transform="translate(699 578.28125) rotate(0 -1 0)" stroke="none"><path fill="#1864ab" d="M -2.51,-0.62 Q -2.51,-0.62 -2.24,-1.78 -1.97,-2.93 -1.89,-4.78 -1.80,-6.63 -1.45,-7.98 -1.10,-9.33 -0.58,-10.35 -0.06,-11.37 1.22,-12.42 2.51,-13.47 4.02,-13.11 5.52,-12.74 6.19,-10.31 6.85,-7.87 6.15,-5.95 5.44,-4.03 4.81,-2.12 4.18,-0.21 3.13,0.94 2.08,2.10 0.29,3.41 -1.48,4.72 -3.11,4.14 -4.75,3.57 -5.32,2.47 -5.89,1.38 -5.94,0.07 -5.99,-1.23 -5.86,-3.19 -5.73,-5.14 -5.75,-6.26 -5.77,-7.38 -5.45,-8.78 -5.13,-10.19 -4.67,-11.96 -4.22,-13.72 -2.59,-15.90 -0.96,-18.08 0.38,-17.60 1.72,-17.13 2.60,-16.09 3.48,-15.06 3.69,-13.50 3.90,-11.94 3.86,-10.21 3.83,-8.48 3.65,-6.03 3.48,-3.59 3.33,-1.40 3.18,0.77 3.15,2.56 3.12,4.35 3.17,5.70 3.21,7.06 2.46,8.67 1.72,10.28 0.70,10.75 -0.32,11.22 -1.61,10.69 -2.90,10.15 -3.57,8.93 -4.24,7.72 -4.35,6.00 -4.47,4.27 -4.43,2.46 -4.40,0.65 -4.33,-1.26 -4.25,-3.17 -4.24,-4.84 -4.23,-6.52 -4.23,-8.10 -4.23,-9.68 -3.96,-11.19 -3.68,-12.69 -3.23,-13.79 -2.78,-14.89 -1.02,-16.42 0.72,-17.96 2.36,-17.42 3.99,-16.88 4.69,-15.43 5.39,-13.98 5.46,-12.21 5.53,-10.44 5.49,-8.58 5.44,-6.72 5.42,-5.07 5.40,-3.43 5.49,-1.68 5.58,0.06 5.21,1.20 4.84,2.33 3.96,3.45 3.08,4.58 1.87,5.28 0.66,5.98 -0.67,5.96 -2.02,5.94 -3.37,5.00 -4.73,4.05 -5.47,2.69 -6.22,1.33 -6.47,0.08 -6.71,-1.16 -6.77,-2.58 -6.83,-4.01 -6.51,-5.73 -6.19,-7.45 -5.67,-9.57 -5.16,-11.69 -3.79,-12.79 -2.41,-13.90 -1.19,-14.00 0.03,-14.10 1.13,-13.64 2.22,-13.18 3.13,-12.27 4.03,-11.37 4.45,-10.03 4.86,-8.68 4.95,-7.60 5.04,-6.51 4.63,-4.39 4.21,-2.27 3.71,-0.52 3.21,1.22 2.70,2.63 2.18,4.05 1.24,5.47 0.30,6.89 -0.57,7.69 -1.44,8.49 -2.63,8.90 -3.81,9.32 -5.79,8.70 -7.76,8.08 -8.77,6.83 -9.79,5.57 -10.16,4.26 -10.54,2.95 -10.64,1.49 -10.74,0.03 -10.79,-1.11 -10.83,-2.27 -10.88,-3.75 -10.94,-5.23 -10.43,-6.51 -9.92,-7.79 -8.98,-8.58 -8.04,-9.36 -6.78,-9.65 -5.51,-9.94 -3.79,-10.04 -2.07,-10.13 0.61,-9.30 3.30,-8.47 4.12,-7.58 4.94,-6.68 5.75,-5.06 6.55,-3.44 6.98,-1.96 7.40,-0.48 7.50,1.42 7.60,3.34 7.65,4.66 7.70,5.99 7.79,7.79 7.88,9.59 7.56,11.98 7.24,14.37 6.19,15.73 5.15,17.09 3.13,17.13 1.10,17.18 0.05,15.63 -0.99,14.09 -1.00,12.55 -1.01,11.02 -1.01,9.86 -1.01,8.71 -1.05,7.31 -1.10,5.92 -1.14,4.84 -1.18,3.77 -0.82,1.40 -0.47,-0.96 0.15,-1.97 0.78,-2.98 1.62,-4.17 2.47,-5.36 2.56,-6.61 2.64,-7.85 2.76,-8.38 2.88,-8.91 3.16,-9.37 3.43,-9.83 3.85,-10.18 4.26,-10.53 4.76,-10.73 5.26,-10.93 5.80,-10.96 6.34,-10.99 6.86,-10.84 7.38,-10.70 7.83,-10.39 8.27,-10.09 8.60,-9.66 8.93,-9.23 9.10,-8.72 9.27,-8.21 9.27,-7.67 9.27,-7.13 9.10,-6.61 8.93,-6.10 8.60,-5.67 8.27,-5.24 7.82,-4.94 7.38,-4.64 6.86,-4.49 6.34,-4.35 5.80,-4.38 5.26,-4.41 4.76,-4.61 4.25,-4.81 3.84,-5.16 3.43,-5.51 3.15,-5.97 2.87,-6.44 2.76,-6.96 2.64,-7.49 2.70,-8.03 2.76,-8.56 2.99,-9.05 3.22,-9.54 3.59,-9.94 3.96,-10.33 4.44,-10.58 4.91,-10.83 5.45,-10.92 5.98,-11.01 6.51,-10.92 7.05,-10.83 7.52,-10.58 8.00,-10.32 8.37,-9.93 8.74,-9.54 8.97,-9.05 9.19,-8.56 9.25,-8.02 9.31,-7.49 9.31,-7.49 9.31,-7.49 8.50,-4.21 7.69,-0.94 6.65,0.17 5.62,1.29 5.40,2.53 5.18,3.76 5.14,4.83 5.11,5.89 5.08,7.27 5.04,8.65 5.07,9.77 5.09,10.89 4.52,11.84 3.96,12.80 2.78,12.75 1.60,12.70 1.84,11.18 2.08,9.66 2.10,7.95 2.12,6.24 2.05,5.02 1.99,3.80 1.62,1.59 1.24,-0.61 0.37,-2.25 -0.49,-3.88 -1.83,-3.84 -3.17,-3.81 -4.10,-4.38 -5.03,-4.96 -5.04,-3.71 -5.06,-2.45 -4.96,-0.36 -4.87,1.72 -4.80,2.91 -4.73,4.10 -3.78,3.15 -2.83,2.19 -2.43,1.06 -2.03,-0.05 -1.73,-1.57 -1.44,-3.09 -1.36,-5.32 -1.28,-7.55 -0.55,-8.52 0.17,-9.49 -0.20,-7.95 -0.58,-6.40 -0.78,-5.33 -0.98,-4.26 -0.91,-3.16 -0.85,-2.07 -0.22,-1.11 0.40,-0.14 0.47,-1.76 0.54,-3.38 0.49,-5.00 0.44,-6.62 0.32,-8.37 0.19,-10.13 0.88,-11.41 1.57,-12.69 0.90,-11.18 0.24,-9.66 0.24,-8.10 0.25,-6.54 0.27,-4.87 0.30,-3.21 0.40,-1.32 0.50,0.55 0.61,2.26 0.71,3.97 0.77,5.13 0.82,6.29 -0.19,6.64 -1.21,6.99 -1.17,5.67 -1.13,4.36 -1.17,2.57 -1.21,0.79 -1.37,-1.37 -1.53,-3.54 -1.75,-5.93 -1.97,-8.31 -1.59,-10.27 -1.21,-12.23 0.23,-12.81 1.68,-13.39 1.17,-11.91 0.65,-10.43 0.22,-8.90 -0.20,-7.36 -0.21,-6.28 -0.21,-5.19 -0.04,-3.33 0.11,-1.46 -0.22,-0.42 -0.56,0.60 -1.23,-0.77 -1.89,-2.15 -1.15,-3.10 -0.41,-4.05 -0.10,-5.08 0.20,-6.12 1.04,-7.73 1.88,-9.35 3.35,-8.93 4.82,-8.50 4.23,-7.41 3.65,-6.32 3.56,-5.22 3.48,-4.12 3.30,-2.89 3.12,-1.66 2.82,-0.51 2.51,0.62 2.40,0.92 2.29,1.21 2.11,1.46 1.93,1.72 1.70,1.93 1.46,2.13 1.18,2.28 0.91,2.42 0.60,2.50 0.30,2.57 -0.00,2.57 -0.32,2.57 -0.62,2.49 -0.92,2.42 -1.20,2.27 -1.48,2.12 -1.71,1.92 -1.94,1.71 -2.12,1.45 -2.29,1.19 -2.40,0.90 -2.51,0.61 -2.55,0.30 -2.59,-0.00 -2.55,-0.31 -2.51,-0.62 -2.51,-0.62 L -2.51,-0.62 Z"></path></g></svg>