<svg version="1.1" xmlns="http://www.w3.org/2000/svg" viewBox="0 0 10020 777.3125" width="10020" height="777.3125">
  <!-- svg-source:excalidraw -->
  
  <defs>
    <style>
      @font-face {
        font-family: "Virgil";
        src: url("https://excalidraw.com/Virgil.woff2");
      }
      @font-face {
        font-family: "Cascadia";
        src: url("https://excalidraw.com/Cascadia.woff2");
      }
    </style>
  </defs>
  <rect x="0" y="0" width="10020" height="777.3125" fill="#fff0"></rect><g stroke-linecap="round" transform="translate(10 10) rotate(0 5000 0.5)"><path d="M-0.52 -0.26 C3022.65 -30.2, 6044.59 -29.2, 9999.32 0.22 M0.38 -0.31 C3948.03 -0.44, 7895.41 0.2, 9999.95 0.08 M10000.08 -0.06 C10000.09 0.27, 10000.05 0.48, 10000.09 0.92 M9999.97 0.01 C9999.95 0.33, 9999.98 0.72, 10000 0.99 M10000.22 1.51 C7095.77 35.76, 4193.15 34.95, -0.25 0.75 M10000.01 1.13 C7827.97 2.74, 5656.23 3.35, -0.33 0.84 M-0.04 1.01 C0 0.63, -0.06 0.15, 0.05 -0.03 M-0.04 0.95 C-0.04 0.73, -0.03 0.59, -0.05 -0.02" stroke="transparent" stroke-width="1" fill="none"></path></g><g stroke-linecap="round" transform="translate(641.796875 573.3125) rotate(0 87 58)"><path d="M0.69 -0.02 C51.92 1.18, 107.55 -0.48, 175.01 0.5 M0.78 0.42 C53.57 0.11, 105.3 0.62, 173.32 0.73 M172.31 0.84 C176.16 42.51, 176.39 86.6, 174.95 115.01 M174.48 0.84 C173.93 44.64, 172.91 90.22, 173.48 115.07 M172.27 117.75 C134 116.07, 96.64 113.58, 0.65 116.21 M174.09 115.27 C137.27 115.94, 102.04 115.78, 0.22 115.03 M0.02 117.23 C-0.2 80.26, -2.21 48.45, -1.89 -0.62 M-0.79 115.55 C-1.21 72.01, -0.86 29.65, 0.57 0.85" stroke="#000" stroke-width="1" fill="none"></path></g><g transform="translate(646.796875 618.8125) rotate(0 82 12.5)"><text x="82" y="18" font-family="Virgil, Segoe UI Emoji" font-size="20px" fill="#000" text-anchor="middle" style="white-space: pre;" direction="ltr">Agent</text></g><g stroke-linecap="round" transform="translate(1144.796875 575.3125) rotate(0 103.5 58.5)"><path d="M-0.19 1.74 C78.48 -1.09, 154.15 -0.54, 206.96 -1.43 M-0.29 0.48 C50.82 -0.35, 103.13 -1.4, 206.52 -0.22 M207.16 1.45 C209.23 43.38, 209.16 89.81, 206.41 118.47 M206.65 -0.9 C208.37 29.27, 208.04 56.25, 207.08 117.54 M208.12 116.43 C163.48 115.92, 122.07 116.43, -1.27 118.62 M206.2 117.56 C156.36 117.54, 105.54 118.24, -0.84 116.96 M1.9 117.56 C1.56 82.22, -0.2 48.85, 1.27 1 M-0.31 117.98 C-0.49 71.81, 0.2 27.5, 0.29 -0.75" stroke="#000" stroke-width="1" fill="none"></path></g><g transform="translate(1190.796875 620.3125) rotate(0 56 12.5)"><text x="0" y="18" font-family="Virgil, Segoe UI Emoji" font-size="20px" fill="#000" text-anchor="start" style="white-space: pre;" direction="ltr">Environment</text></g><g stroke-linecap="round"><g transform="translate(899.796875 615.3125) rotate(0 98.5 0.5)"><path d="M-1.14 -0.05 C31.56 -0.21, 163.74 -0.14, 196.86 0.22 M0.46 -1.13 C32.93 -0.64, 163.06 1.1, 195.84 1.35" stroke="#d9480f" stroke-width="1" fill="none"></path></g><g transform="translate(899.796875 615.3125) rotate(0 98.5 0.5)"><path d="M167.45 11.07 C176.24 8.97, 189.53 5.03, 196.63 0.29 M168.03 12.16 C175.24 9.03, 181.54 7.08, 195.96 1.29" stroke="#d9480f" stroke-width="1" fill="none"></path></g><g transform="translate(899.796875 615.3125) rotate(0 98.5 0.5)"><path d="M167.67 -9.45 C176.58 -4.23, 189.8 -0.85, 196.63 0.29 M168.26 -8.36 C175.33 -6.31, 181.58 -3.09, 195.96 1.29" stroke="#d9480f" stroke-width="1" fill="none"></path></g></g><g stroke-linecap="round"><g transform="translate(1060.796875 662.3125) rotate(0 -90 -0.5)"><path d="M-0.12 -0.55 C-29.92 -0.52, -149.95 -0.41, -179.74 -0.68 M-1.64 1.78 C-31.5 1.5, -150.99 -2.1, -180.55 -2.63" stroke="#1864ab" stroke-width="1" fill="none"></path></g><g transform="translate(1060.796875 662.3125) rotate(0 -90 -0.5)"><path d="M-153.03 -11.76 C-158.03 -8.12, -166.85 -6.75, -179.67 -3.87 M-152.76 -11.41 C-162.81 -8.97, -172.82 -4.53, -181.52 -2.1" stroke="#1864ab" stroke-width="1" fill="none"></path></g><g transform="translate(1060.796875 662.3125) rotate(0 -90 -0.5)"><path d="M-153.53 8.76 C-158.28 7.79, -166.98 4.55, -179.67 -3.87 M-153.26 9.11 C-163.12 4.07, -172.94 1.05, -181.52 -2.1" stroke="#1864ab" stroke-width="1" fill="none"></path></g></g><g transform="translate(620.796875 718.3125) rotate(0 99.5 12.5)"><text x="0" y="18" font-family="Virgil, Segoe UI Emoji" font-size="20px" fill="#1864ab" text-anchor="start" style="white-space: pre;" direction="ltr">Software, robot, ... </text></g><g transform="translate(1114.796875 717.3125) rotate(0 130 25)"><text x="0" y="18" font-family="Virgil, Segoe UI Emoji" font-size="20px" fill="#1864ab" text-anchor="start" style="white-space: pre;" direction="ltr">Real or virtual, partially</text><text x="0" y="43" font-family="Virgil, Segoe UI Emoji" font-size="20px" fill="#1864ab" text-anchor="start" style="white-space: pre;" direction="ltr">observable, deterministic,...</text></g></svg>