<svg version="1.1" xmlns="http://www.w3.org/2000/svg" viewBox="0 0 10020 815.9375" width="10020" height="815.9375">
  <!-- svg-source:excalidraw -->
  
  <defs>
    <style>
      @font-face {
        font-family: "Virgil";
        src: url("https://excalidraw.com/Virgil.woff2");
      }
      @font-face {
        font-family: "Cascadia";
        src: url("https://excalidraw.com/Cascadia.woff2");
      }
    </style>
  </defs>
  <rect x="0" y="0" width="10020" height="815.9375" fill="#fff0"></rect><g stroke-linecap="round" transform="translate(10 10) rotate(0 5000 0.5)"><path d="M-0.52 -0.26 C3022.65 -30.2, 6044.59 -29.2, 9999.32 0.22 M0.38 -0.31 C3948.03 -0.44, 7895.41 0.2, 9999.95 0.08 M10000.08 -0.06 C10000.09 0.27, 10000.05 0.48, 10000.09 0.92 M9999.97 0.01 C9999.95 0.33, 9999.98 0.72, 10000 0.99 M10000.22 1.51 C7095.77 35.76, 4193.15 34.95, -0.25 0.75 M10000.01 1.13 C7827.97 2.74, 5656.23 3.35, -0.33 0.84 M-0.04 1.01 C0 0.63, -0.06 0.15, 0.05 -0.03 M-0.04 0.95 C-0.04 0.73, -0.03 0.59, -0.05 -0.02" stroke="transparent" stroke-width="1" fill="none"></path></g><g stroke-linecap="round"><g transform="translate(629.84375 743.9375) rotate(0 -1 -103.5)"><path d="M-0.93 0.08 C-1.32 -34.43, -2.17 -173.59, -2.21 -208.01 M0.78 -0.92 C0.21 -35.24, -2.89 -172.4, -3.27 -207" stroke="#000" stroke-width="1" fill="none"></path></g><g transform="translate(629.84375 743.9375) rotate(0 -1 -103.5)"><path d="M7.62 -179.35 C2.68 -186.4, 1.94 -194.98, -4.51 -206.9 M6.71 -178.37 C4.54 -186.11, 1.5 -193.17, -4.27 -207.11" stroke="#000" stroke-width="1" fill="none"></path></g><g transform="translate(629.84375 743.9375) rotate(0 -1 -103.5)"><path d="M-12.9 -178.99 C-11.48 -186, -5.86 -194.68, -4.51 -206.9 M-13.81 -178.01 C-11.1 -185.72, -9.26 -192.86, -4.27 -207.11" stroke="#000" stroke-width="1" fill="none"></path></g></g><g stroke-linecap="round"><g transform="translate(626.84375 743.9375) rotate(0 133.5 0.5)"><path d="M-0.13 0.25 C44.05 0.08, 221.53 -0.2, 265.96 -0.16 M-1.66 -0.66 C42.81 -0.8, 223.62 0.4, 268.12 0.77" stroke="#000" stroke-width="1" fill="none"></path></g><g transform="translate(626.84375 743.9375) rotate(0 133.5 0.5)"><path d="M240.28 9.09 C248.31 6.16, 259.88 4.95, 266.66 1.31 M240.27 10.54 C251.58 7.6, 261.33 3.19, 267.26 0.64" stroke="#000" stroke-width="1" fill="none"></path></g><g transform="translate(626.84375 743.9375) rotate(0 133.5 0.5)"><path d="M240.43 -11.43 C248.55 -6.77, 260.07 -0.38, 266.66 1.31 M240.42 -9.98 C251.87 -4.8, 261.56 -1.09, 267.26 0.64" stroke="#000" stroke-width="1" fill="none"></path></g></g><g stroke-linecap="round"><g transform="translate(595.84375 715.9375) rotate(0 128.5 -56)"><path d="M-0.23 1.01 C3.41 -4.37, 15.18 -19.89, 22.06 -33 C28.93 -46.11, 35.33 -71.9, 41.01 -77.66 C46.69 -83.41, 53.67 -75.22, 56.13 -67.53 C58.59 -59.84, 53.8 -25.66, 55.77 -31.5 C57.73 -37.34, 64.37 -106.67, 67.93 -102.57 C71.49 -98.47, 73.84 -1.53, 77.12 -6.92 C80.41 -12.32, 82.2 -127.62, 87.62 -134.95 C93.04 -142.28, 103.24 -56.9, 109.65 -50.89 C116.06 -44.88, 118.38 -93.04, 126.07 -98.88 C133.76 -104.73, 150.5 -97.89, 155.79 -85.97 C161.08 -74.05, 152.9 -45.21, 157.82 -27.37 C162.73 -9.52, 180.4 20.08, 185.28 21.11 C190.15 22.15, 185.4 -9.66, 187.07 -21.18 C188.75 -32.69, 190.03 -33.15, 195.31 -47.96 C200.59 -62.78, 215.06 -106.78, 218.74 -110.07 C222.42 -113.36, 215.28 -69.54, 217.39 -67.69 C219.5 -65.85, 227.33 -94.78, 231.41 -98.99 C235.49 -103.21, 237.44 -99.19, 241.89 -92.96 C246.34 -86.74, 255.67 -66.91, 258.13 -61.66 M-1.81 0.49 C1.74 -5.14, 14.57 -21.21, 21.67 -34.6 C28.76 -47.98, 35.5 -74.55, 40.77 -79.82 C46.05 -85.08, 51.08 -74.26, 53.31 -66.18 C55.54 -58.11, 51.51 -25.7, 54.17 -31.37 C56.84 -37.05, 65.44 -104.11, 69.3 -100.25 C73.15 -96.39, 74.46 -2.3, 77.31 -8.23 C80.16 -14.15, 81.23 -128.46, 86.4 -135.79 C91.56 -143.12, 101.66 -58.39, 108.32 -52.22 C114.98 -46.05, 118.32 -93.29, 126.35 -98.75 C134.39 -104.21, 151.54 -96.76, 156.53 -84.97 C161.52 -73.17, 151.54 -46.06, 156.31 -27.98 C161.07 -9.91, 180.11 21.87, 185.13 23.48 C190.14 25.09, 184.63 -6.85, 186.41 -18.33 C188.19 -29.8, 190.79 -30.28, 195.81 -45.36 C200.82 -60.45, 212.56 -105.29, 216.51 -108.86 C220.45 -112.43, 216.65 -68.49, 219.48 -66.79 C222.31 -65.08, 229.46 -93.78, 233.47 -98.62 C237.49 -103.46, 239.9 -101.72, 243.58 -95.82 C247.26 -89.93, 253.58 -68.84, 255.55 -63.26" stroke="#1864ab" stroke-width="1" fill="none"></path></g></g><g stroke-linecap="round"><g transform="translate(926.84375 637.9375) rotate(0 77 0)"><path d="M0.06 0.87 C25.78 0.67, 129.02 -0.88, 154.83 -0.86 M-1.37 0.28 C24.22 0.18, 128.31 0.4, 154.32 0.23" stroke="#000000" stroke-width="1" fill="none"></path></g><g transform="translate(926.84375 637.9375) rotate(0 77 0)"><path d="M127.59 11.92 C134.34 8.52, 147.13 4.91, 154.13 0.27 M126.35 9.71 C131.83 9.02, 138.72 6.17, 153.58 -0.44" stroke="#000000" stroke-width="1" fill="none"></path></g><g transform="translate(926.84375 637.9375) rotate(0 77 0)"><path d="M127.56 -8.6 C134.38 -4.96, 147.18 -1.54, 154.13 0.27 M126.31 -10.81 C131.61 -7.22, 138.51 -5.81, 153.58 -0.44" stroke="#000000" stroke-width="1" fill="none"></path></g></g><g stroke-linecap="round"><g transform="translate(1132.753997688368 754.5036652099341) rotate(0 -3.9551238441839587 -109.78308260496705)"><path d="M-0.09 -0.43 C-1.1 -37.02, -5.85 -183.5, -7.15 -219.84 M-1.6 -1.71 C-2.61 -38.09, -6.53 -182.02, -7.7 -218.44" stroke="#000000" stroke-width="1" fill="none"></path></g><g transform="translate(1132.753997688368 754.5036652099341) rotate(0 -3.9551238441839587 -109.78308260496705)"><path d="M2.66 -189.3 C0.66 -196.41, 0.57 -203.66, -8.86 -218.77 M2.64 -191.1 C0.24 -200.42, -2.88 -208.52, -7.55 -217.63" stroke="#000000" stroke-width="1" fill="none"></path></g><g transform="translate(1132.753997688368 754.5036652099341) rotate(0 -3.9551238441839587 -109.78308260496705)"><path d="M-17.85 -188.69 C-15.51 -195.92, -11.26 -203.29, -8.86 -218.77 M-17.87 -190.5 C-13.41 -199.87, -9.66 -208.18, -7.55 -217.63" stroke="#000000" stroke-width="1" fill="none"></path></g></g><g stroke-linecap="round"><g transform="translate(1122.84375 750.9375) rotate(0 131 0.5)"><path d="M-0.56 0.05 C43.13 0.12, 217.28 -0.51, 261.01 -0.16 M1.35 -0.97 C45.5 -0.74, 219.94 0.54, 263.21 0.77" stroke="#000000" stroke-width="1" fill="none"></path></g><g transform="translate(1122.84375 750.9375) rotate(0 131 0.5)"><path d="M235.04 9.2 C238.94 8.59, 248.64 6.11, 261.47 2.61 M235.91 10.21 C240.91 8.91, 249.11 6.7, 262.65 0.48" stroke="#000000" stroke-width="1" fill="none"></path></g><g transform="translate(1122.84375 750.9375) rotate(0 131 0.5)"><path d="M235.17 -11.32 C238.95 -7.66, 248.62 -5.87, 261.47 2.61 M236.04 -10.31 C240.83 -6.75, 249 -4.11, 262.65 0.48" stroke="#000000" stroke-width="1" fill="none"></path></g></g><g stroke-linecap="round"><g transform="translate(1132.84375 733.9375) rotate(0 80.5 -69)"><path d="M0.67 -1.08 C3.18 -9.21, 10.89 -48.53, 15.95 -49 C21.01 -49.47, 26.16 9.62, 31.02 -3.88 C35.89 -17.38, 40.67 -130.18, 45.15 -130.02 C49.63 -129.85, 53.63 -14.33, 57.9 -2.87 C62.17 8.6, 66.74 -58.37, 70.77 -61.21 C74.79 -64.05, 75.53 -7.17, 82.06 -19.91 C88.59 -32.65, 104.29 -135.15, 109.92 -137.67 C115.56 -140.18, 108.7 -42.98, 115.87 -34.99 C123.04 -27.01, 145.54 -91.47, 152.95 -89.77 C160.35 -88.08, 158.84 -35.81, 160.31 -24.83 M-0.43 0.97 C2.36 -7.03, 12.47 -47.41, 18.11 -47.99 C23.75 -48.57, 29.37 11.08, 33.41 -2.5 C37.44 -16.07, 37.98 -129.37, 42.33 -129.44 C46.69 -129.52, 55.08 -14.2, 59.51 -2.93 C63.95 8.34, 65.05 -59.31, 68.92 -61.84 C72.79 -64.36, 75.56 -5.41, 82.73 -18.07 C89.91 -30.74, 106.15 -134.87, 111.99 -137.83 C117.83 -140.79, 111.36 -43.71, 117.79 -35.85 C124.21 -27.98, 143.47 -92.65, 150.55 -90.63 C157.63 -88.62, 158.57 -34.91, 160.27 -23.75" stroke="#1864ab" stroke-width="1" fill="none"></path></g></g><g transform="translate(1403.84375 780.9375) rotate(0 5.5 12.5)"><text x="0" y="18" font-family="Virgil, Segoe UI Emoji" font-size="20px" fill="#000000" text-anchor="start" style="white-space: pre;" direction="ltr">f</text></g><g transform="translate(1071.84375 547.9375) rotate(0 17.5 12.5)"><text x="0" y="18" font-family="Virgil, Segoe UI Emoji" font-size="20px" fill="#000000" text-anchor="start" style="white-space: pre;" direction="ltr">y(f)</text></g><g transform="translate(890.84375 757.9375) rotate(0 6 12.5)"><text x="0" y="18" font-family="Virgil, Segoe UI Emoji" font-size="20px" fill="#000000" text-anchor="start" style="white-space: pre;" direction="ltr">t</text></g><g transform="translate(573.84375 537.9375) rotate(0 19 12.5)"><text x="0" y="18" font-family="Virgil, Segoe UI Emoji" font-size="20px" fill="#000000" text-anchor="start" style="white-space: pre;" direction="ltr">v(t)</text></g></svg>