<svg version="1.1" xmlns="http://www.w3.org/2000/svg" viewBox="0 0 10020 762.4375" width="10020" height="762.4375">
  <!-- svg-source:excalidraw -->
  
  <defs>
    <style>
      @font-face {
        font-family: "Virgil";
        src: url("https://excalidraw.com/Virgil.woff2");
      }
      @font-face {
        font-family: "Cascadia";
        src: url("https://excalidraw.com/Cascadia.woff2");
      }
    </style>
  </defs>
  <rect x="0" y="0" width="10020" height="762.4375" fill="#fff0"></rect><g stroke-linecap="round" transform="translate(10 10) rotate(0 5000 0.5)"><path d="M-0.52 -0.26 C3022.65 -30.2, 6044.59 -29.2, 9999.32 0.22 M0.38 -0.31 C3948.03 -0.44, 7895.41 0.2, 9999.95 0.08 M10000.08 -0.06 C10000.09 0.27, 10000.05 0.48, 10000.09 0.92 M9999.97 0.01 C9999.95 0.33, 9999.98 0.72, 10000 0.99 M10000.22 1.51 C7095.77 35.76, 4193.15 34.95, -0.25 0.75 M10000.01 1.13 C7827.97 2.74, 5656.23 3.35, -0.33 0.84 M-0.04 1.01 C0 0.63, -0.06 0.15, 0.05 -0.03 M-0.04 0.95 C-0.04 0.73, -0.03 0.59, -0.05 -0.02" stroke="transparent" stroke-width="1" fill="none"></path></g><g stroke-linecap="round" transform="translate(709 692.4375) rotate(0 59 30)"><path d="M1.99 0.65 C33.71 1.27, 66.47 -0.73, 118.93 -1.24 M0.95 0.06 C43.01 0.34, 86.46 1.03, 118.03 -0.36 M116.12 -1.01 C118.01 14.22, 118.82 30.49, 116.68 60.12 M117.81 0.23 C117.4 21.57, 118.38 44.1, 118.98 60.24 M116.66 58.78 C83.5 59.89, 47.17 58.45, 1.72 58.07 M117.65 59.36 C74.7 59.95, 31 58.49, -0.04 59.1 M1.44 61.81 C-0.89 41.8, -0.47 21.16, 0.56 1.36 M-0.43 59.15 C-0.51 46.42, -0.82 35.76, 0.64 0.5" stroke="#000" stroke-width="1" fill="none"></path></g><g stroke-linecap="round" transform="translate(986 688.4375) rotate(0 59 30)"><path d="M1.96 0.48 C31.58 -0.17, 62.22 -1.69, 116.78 1.32 M0.86 -0.97 C38.26 1.29, 74.46 0.29, 117.36 0.56 M117.91 -1.8 C118.68 20.17, 120.05 45.69, 119.81 58.53 M118.28 0.68 C116.79 20.42, 117.9 38.81, 117.15 59.97 M119.27 60.99 C95.67 60.73, 69.56 61.53, 0.43 61.05 M118.01 59.53 C86.5 59.89, 56.61 60.1, -0.4 60.19 M1.94 60.28 C-2.44 45.53, -2.11 31.85, 1.24 -0.04 M-0.23 60.11 C0.07 47.67, -0.02 35.26, -0.86 0.85" stroke="#000" stroke-width="1" fill="none"></path></g><g stroke-linecap="round" transform="translate(713 550.4375) rotate(0 59 30)"><path d="M-1.95 1.61 C36.31 1.67, 68.27 0.39, 116.95 -1.36 M0.8 0.22 C38.29 0.21, 77.41 0.09, 117.66 0.99 M117.57 -0.41 C118.67 22.24, 119.35 42.9, 116.98 60.11 M117.83 0.86 C117.75 17.68, 117.9 35.64, 118.9 60.26 M118.46 58.43 C72.86 60.12, 24.22 57.13, -0.96 61.83 M118.43 59.69 C86.04 58.88, 53.41 59.37, 0.86 60.89 M0.31 58.17 C0.81 48.57, 0.12 35.83, -0.66 -1.19 M0.81 59.29 C0.12 38.49, -0.15 15.47, 0.37 0.05" stroke="#000" stroke-width="1" fill="none"></path></g><g stroke-linecap="round"><g transform="translate(606 582.4375) rotate(0 51 -1)"><path d="M-0.19 0.25 C16.71 -0.29, 84.43 -2.51, 101.6 -2.71 M-1.74 -0.66 C14.94 -1.11, 83.07 -1.2, 100.45 -1.55" stroke="#000" stroke-width="1" fill="none"></path></g><g transform="translate(606 582.4375) rotate(0 51 -1)"><path d="M72.78 8.33 C80.09 7.08, 91.94 4.04, 102.07 -2.97 M72.31 9.36 C82.53 6.02, 93.55 1.28, 99.83 -0.84" stroke="#000" stroke-width="1" fill="none"></path></g><g transform="translate(606 582.4375) rotate(0 51 -1)"><path d="M72.57 -12.19 C80.04 -6.89, 91.95 -3.39, 102.07 -2.97 M72.11 -11.17 C82.55 -7.04, 93.65 -4.34, 99.83 -0.84" stroke="#000" stroke-width="1" fill="none"></path></g></g><g stroke-linecap="round"><g transform="translate(613 720.4375) rotate(0 45 1)"><path d="M0.63 -0.58 C15.62 -0.41, 75.15 1.18, 90.05 1.71 M-0.5 1.72 C14.33 2.02, 74.17 3.29, 89.13 3.09" stroke="#000" stroke-width="1" fill="none"></path></g><g transform="translate(613 720.4375) rotate(0 45 1)"><path d="M59.9 13.25 C69.09 9.93, 79.3 7.38, 90.52 2.34 M61.67 13.03 C71.58 8.63, 83.52 5.14, 89.68 2.25" stroke="#000" stroke-width="1" fill="none"></path></g><g transform="translate(613 720.4375) rotate(0 45 1)"><path d="M60.03 -7.27 C69.3 -4.23, 79.46 -0.42, 90.52 2.34 M61.8 -7.49 C71.65 -3.97, 83.54 0.47, 89.68 2.25" stroke="#000" stroke-width="1" fill="none"></path></g></g><g stroke-linecap="round"><g transform="translate(831 717.4375) rotate(0 28.5 0)"><path d="M-0.25 0 C9.18 0.11, 47.68 1.17, 57.24 1.16 M1.82 -1.05 C11.05 -1.29, 47.32 -0.73, 56.42 -0.36" stroke="#000" stroke-width="1" fill="none"></path></g><g transform="translate(831 717.4375) rotate(0 28.5 0)"><path d="M29.39 9.11 C40.88 5.76, 48.39 1.49, 56.51 1.23 M29.4 8.58 C39.65 6.34, 49.05 2.37, 56.94 0.44" stroke="#000" stroke-width="1" fill="none"></path></g><g transform="translate(831 717.4375) rotate(0 28.5 0)"><path d="M29.89 -10.38 C41.28 -6.81, 48.61 -4.17, 56.51 1.23 M29.89 -10.91 C40.05 -5.94, 49.26 -2.68, 56.94 0.44" stroke="#000" stroke-width="1" fill="none"></path></g></g><g stroke-linecap="round"><g transform="translate(835 578.3852233995385) rotate(0 27.000019296055285 66.53310685463913)"><path d="M-0.17 -0.19 C7.84 -0.65, 38.48 -25.07, 47.45 -2.37 C56.41 20.32, 52.54 113.07, 53.6 135.98 M-1.72 -1.33 C6.28 -1.66, 37.98 -23.61, 47.04 -1.04 C56.09 21.54, 51.47 111.25, 52.63 134.12" stroke="#000" stroke-width="1" fill="none"></path></g><g transform="translate(835 578.3852233995385) rotate(0 27.000019296055285 66.53310685463913)"><path d="M42.05 107.64 C44.38 112.33, 49.13 119.73, 52.63 133.48 M41.74 106.63 C46.31 113.05, 48.4 122.13, 53.16 134.83" stroke="#000" stroke-width="1" fill="none"></path></g><g transform="translate(835 578.3852233995385) rotate(0 27.000019296055285 66.53310685463913)"><path d="M62.57 107.64 C59.77 112.29, 59.4 119.7, 52.63 133.48 M62.27 106.62 C61.03 113.03, 57.32 122.1, 53.16 134.83" stroke="#000" stroke-width="1" fill="none"></path></g></g><g stroke-linecap="round" transform="translate(882 713.4375) rotate(0 8.5 7.5)"><path d="M7 0.58 C8.65 0.07, 11.29 0.7, 12.91 1.37 C14.53 2.03, 16.17 3.25, 16.71 4.56 C17.25 5.88, 16.83 7.93, 16.15 9.28 C15.46 10.63, 14.16 11.64, 12.61 12.65 C11.05 13.67, 8.62 15.32, 6.83 15.36 C5.04 15.41, 3.1 14.09, 1.85 12.91 C0.61 11.73, -0.69 9.8, -0.63 8.3 C-0.56 6.8, 0.98 5.19, 2.23 3.94 C3.48 2.68, 5.69 1.39, 6.88 0.77 C8.07 0.14, 9.11 0.22, 9.38 0.19 M10.82 0.17 C12.37 0.28, 14.25 -0.02, 15.36 1.19 C16.47 2.4, 17.43 5.65, 17.49 7.44 C17.56 9.23, 17.01 10.72, 15.74 11.94 C14.48 13.16, 11.83 14.33, 9.91 14.74 C7.98 15.16, 5.73 15.04, 4.2 14.44 C2.67 13.84, 1.13 12.59, 0.73 11.15 C0.32 9.71, 1.3 7.37, 1.77 5.79 C2.23 4.21, 2.37 2.67, 3.53 1.66 C4.69 0.65, 7.5 -0.14, 8.71 -0.27 C9.92 -0.41, 10.4 0.58, 10.77 0.83" stroke="#000" stroke-width="1" fill="none"></path></g><g stroke-linecap="round"><g transform="translate(909 719.4375) rotate(0 36 0)"><path d="M-0.69 -0.15 C11.04 -0.39, 59.11 -1.26, 71.03 -1.16 M1.15 -1.27 C13.19 -1.44, 61.24 -0.17, 73.23 -0.23" stroke="#000" stroke-width="1" fill="none"></path></g><g transform="translate(909 719.4375) rotate(0 36 0)"><path d="M44.67 8.06 C52.94 4.39, 65.64 1.51, 73.38 -1.56 M44.15 10.41 C53.96 6.43, 63.2 3.12, 73.56 0.73" stroke="#000" stroke-width="1" fill="none"></path></g><g transform="translate(909 719.4375) rotate(0 36 0)"><path d="M44.92 -12.46 C53.16 -8.89, 65.77 -4.54, 73.38 -1.56 M44.41 -10.11 C54.29 -7.72, 63.45 -4.67, 73.56 0.73" stroke="#000" stroke-width="1" fill="none"></path></g></g><g stroke-linecap="round"><g transform="translate(1111 718.4375) rotate(0 33.5 2)"><path d="M0.31 -1.16 C11.42 -0.5, 56.19 3.18, 67.39 4 M-0.99 0.85 C9.94 1.71, 55.31 4.86, 66.65 5.53" stroke="#000" stroke-width="1" fill="none"></path></g><g transform="translate(1111 718.4375) rotate(0 33.5 2)"><path d="M35.92 14.59 C48.22 11.75, 58.16 7.63, 66.47 5.4 M38.7 14.47 C46.83 11.4, 55.91 7.98, 67.24 5.92" stroke="#000" stroke-width="1" fill="none"></path></g><g transform="translate(1111 718.4375) rotate(0 33.5 2)"><path d="M37.26 -5.89 C49.09 -1.34, 58.54 1.92, 66.47 5.4 M40.04 -6.01 C47.76 -2.36, 56.4 0.93, 67.24 5.92" stroke="#000" stroke-width="1" fill="none"></path></g></g><g transform="translate(609 527.4375) rotate(0 31.5 12.5)"><text x="0" y="18" font-family="Virgil, Segoe UI Emoji" font-size="20px" fill="#000" text-anchor="start" style="white-space: pre;" direction="ltr">eta(t)</text></g><g transform="translate(597 684.4375) rotate(0 28.5 12.5)"><text x="0" y="18" font-family="Virgil, Segoe UI Emoji" font-size="20px" fill="#000" text-anchor="start" style="white-space: pre;" direction="ltr">u(t-k)</text></g><g transform="translate(734 565.4375) rotate(0 29.5 12.5)"><text x="0" y="18" font-family="Virgil, Segoe UI Emoji" font-size="20px" fill="#000" text-anchor="start" style="white-space: pre;" direction="ltr">1/D(z)</text></g><g transform="translate(714 709.9375) rotate(0 54 12.5)"><text x="54" y="18" font-family="Virgil, Segoe UI Emoji" font-size="20px" fill="#000" text-anchor="middle" style="white-space: pre;" direction="ltr">B(z)</text></g><g transform="translate(857 675.4375) rotate(0 7 12.5)"><text x="0" y="18" font-family="Virgil, Segoe UI Emoji" font-size="20px" fill="#000" text-anchor="start" style="white-space: pre;" direction="ltr">+</text></g><g transform="translate(991 705.9375) rotate(0 54 12.5)"><text x="54" y="18" font-family="Virgil, Segoe UI Emoji" font-size="20px" fill="#000" text-anchor="middle" style="white-space: pre;" direction="ltr">1/A(z)</text></g><g transform="translate(1142 668.4375) rotate(0 18.5 12.5)"><text x="0" y="18" font-family="Virgil, Segoe UI Emoji" font-size="20px" fill="#000" text-anchor="start" style="white-space: pre;" direction="ltr">y(t)</text></g></svg>