<svg version="1.1" xmlns="http://www.w3.org/2000/svg" viewBox="0 0 10020 717.015625" width="10020" height="717.015625">
  <!-- svg-source:excalidraw -->
  
  <defs>
    <style>
      @font-face {
        font-family: "Virgil";
        src: url("https://excalidraw.com/Virgil.woff2");
      }
      @font-face {
        font-family: "Cascadia";
        src: url("https://excalidraw.com/Cascadia.woff2");
      }
    </style>
  </defs>
  <rect x="0" y="0" width="10020" height="717.015625" fill="#fff0"></rect><g stroke-linecap="round" transform="translate(10 10) rotate(0 5000 0.5)"><path d="M-0.52 -0.26 C3022.65 -30.2, 6044.59 -29.2, 9999.32 0.22 M0.38 -0.31 C3948.03 -0.44, 7895.41 0.2, 9999.95 0.08 M10000.08 -0.06 C10000.09 0.27, 10000.05 0.48, 10000.09 0.92 M9999.97 0.01 C9999.95 0.33, 9999.98 0.72, 10000 0.99 M10000.22 1.51 C7095.77 35.76, 4193.15 34.95, -0.25 0.75 M10000.01 1.13 C7827.97 2.74, 5656.23 3.35, -0.33 0.84 M-0.04 1.01 C0 0.63, -0.06 0.15, 0.05 -0.03 M-0.04 0.95 C-0.04 0.73, -0.03 0.59, -0.05 -0.02" stroke="transparent" stroke-width="1" fill="none"></path></g><g stroke-linecap="round" transform="translate(876 565.015625) rotate(0 76 71)"><path d="M99.88 4.27 C110.08 6.25, 121.27 13.14, 129.06 20.06 C136.86 26.98, 142.76 36.06, 146.65 45.79 C150.54 55.53, 153.21 68.04, 152.42 78.5 C151.63 88.95, 147.63 99.73, 141.9 108.53 C136.16 117.34, 127.3 125.91, 118.02 131.32 C108.75 136.74, 97.07 139.93, 86.25 141.03 C75.44 142.14, 63.75 141.22, 53.12 137.95 C42.5 134.68, 30.72 128.37, 22.5 121.42 C14.27 114.46, 7.49 105.72, 3.78 96.22 C0.07 86.73, -1.1 74.67, 0.24 64.46 C1.57 54.25, 6.11 43.95, 11.8 34.98 C17.49 26.02, 25.39 16.54, 34.39 10.67 C43.4 4.81, 53.43 0.44, 65.83 -0.22 C78.23 -0.89, 100.48 4.6, 108.79 6.69 C117.1 8.77, 116.4 11.34, 115.7 12.27 M71.76 0.4 C81.97 -1.21, 95 2.39, 105.22 6.14 C115.44 9.88, 125.6 15.05, 133.07 22.87 C140.54 30.69, 146.88 42.78, 150.04 53.04 C153.2 63.29, 154.12 74.67, 152.03 84.4 C149.94 94.12, 144.29 103.35, 137.5 111.38 C130.71 119.41, 121.07 127.46, 111.3 132.58 C101.54 137.71, 89.76 141.6, 78.9 142.14 C68.04 142.68, 56.17 139.57, 46.14 135.81 C36.11 132.04, 26.14 127.09, 18.72 119.56 C11.3 112.03, 4.44 100.55, 1.62 90.63 C-1.2 80.7, -0.14 70.17, 1.8 60 C3.75 49.83, 7.12 38.22, 13.3 29.62 C19.48 21.01, 28.88 13.11, 38.9 8.37 C48.92 3.64, 67.86 2.51, 73.41 1.22 C78.95 -0.07, 72.09 -0.3, 72.16 0.6" stroke="#000" stroke-width="1" fill="none"></path></g><g stroke-linecap="round"><g transform="translate(909 641.015625) rotate(0 78.5 1)"><path d="M0.09 0.22 C26.07 0.38, 130.24 0.49, 156.37 0.9 M-1.32 -0.71 C25.01 -0.43, 132.52 1.63, 158.75 1.86" stroke="#000" stroke-width="1" fill="none"></path></g><g transform="translate(909 641.015625) rotate(0 78.5 1)"><path d="M130.77 10.65 C138.27 8.1, 150.91 6.1, 158.4 2.26 M129.73 12.32 C139.58 9.56, 147.71 5.72, 158.14 1.05" stroke="#000" stroke-width="1" fill="none"></path></g><g transform="translate(909 641.015625) rotate(0 78.5 1)"><path d="M131.08 -9.87 C138.46 -5.4, 150.99 -0.39, 158.4 2.26 M130.03 -8.2 C139.88 -4.98, 147.92 -2.85, 158.14 1.05" stroke="#000" stroke-width="1" fill="none"></path></g></g><g stroke-linecap="round"><g transform="translate(866.5 603.015625) rotate(270.57610022134304 78.5 1)"><path d="M0.06 -1.16 C26.5 -1.04, 131.86 0.67, 158.03 1.06 M-1.36 0.84 C25.06 1.06, 131.33 1.89, 157.62 2.11" stroke="#000" stroke-width="1" fill="none"></path></g><g transform="translate(866.5 603.015625) rotate(270.57610022134304 78.5 1)"><path d="M127.41 13.86 C134.85 9.76, 142.19 7.37, 158.37 2.71 M130.2 13.05 C135.97 10.65, 142.67 7.39, 158.34 1.15" stroke="#000" stroke-width="1" fill="none"></path></g><g transform="translate(866.5 603.015625) rotate(270.57610022134304 78.5 1)"><path d="M127.58 -6.66 C135.03 -5.62, 142.33 -2.85, 158.37 2.71 M130.37 -7.47 C135.91 -5.28, 142.58 -3.95, 158.34 1.15" stroke="#000" stroke-width="1" fill="none"></path></g></g><g transform="translate(919 651.015625) rotate(0 7.5 25)"><text x="0" y="18" font-family="Virgil, Segoe UI Emoji" font-size="20px" fill="#d9480f" text-anchor="start" style="white-space: pre;" direction="ltr">O</text><text x="0" y="43" font-family="Virgil, Segoe UI Emoji" font-size="20px" fill="#d9480f" text-anchor="start" style="white-space: pre;" direction="ltr"></text></g><g stroke-linecap="round"><g transform="translate(942 640.015625) rotate(0 36.5 -25)"><path d="M-0.38 0.03 C11.88 -8.16, 60.71 -40.62, 73.14 -49.1 M1.63 -1 C13.78 -9.51, 60.19 -42.59, 72.26 -50.75" stroke="#1864ab" stroke-width="1" fill="none"></path></g></g><g transform="translate(1038 559.015625) rotate(0 7.5 12.5)"><text x="0" y="18" font-family="Virgil, Segoe UI Emoji" font-size="20px" fill="#d9480f" text-anchor="start" style="white-space: pre;" direction="ltr">R</text></g><g stroke-linecap="round"><g transform="translate(1011 589.015625) rotate(0 -18 -22.5)"><path d="M-0.93 0.09 C-7.01 -7.41, -30.89 -37.37, -36.56 -44.69 M0.78 -0.91 C-5.5 -8.82, -31.81 -39.21, -37.81 -46.65" stroke="#d9480f" stroke-width="1" fill="none"></path></g><g transform="translate(1011 589.015625) rotate(0 -18 -22.5)"><path d="M-12.7 -33.19 C-19.71 -34.99, -25.59 -40, -38.06 -47.78 M-12.98 -33.13 C-18.02 -35.12, -25.5 -38.75, -38 -45.72" stroke="#d9480f" stroke-width="1" fill="none"></path></g><g transform="translate(1011 589.015625) rotate(0 -18 -22.5)"><path d="M-27.8 -20.52 C-30.4 -25.92, -31.85 -34.66, -38.06 -47.78 M-28.07 -20.46 C-29.23 -25.77, -32.91 -32.58, -38 -45.72" stroke="#d9480f" stroke-width="1" fill="none"></path></g></g><g transform="translate(1001 529.015625) rotate(0 5.5 12.500000000000002)"><text x="0" y="18" font-family="Virgil, Segoe UI Emoji" font-size="20px" fill="#d9480f" text-anchor="start" style="white-space: pre;" direction="ltr">V</text></g><g stroke-linecap="round"><g transform="translate(997 526.015625) rotate(0 7 -0.5)"><path d="M1.12 -0.63 C3.28 -0.68, 11.43 -0.46, 13.53 -0.49 M0.25 1.65 C2.15 1.26, 10.24 -2.16, 12.34 -2.35" stroke="#d9480f" stroke-width="1" fill="none"></path></g></g><g stroke-linecap="round"><g transform="translate(1005 590.015625) rotate(0 -19 11.5)"><path d="M-0.88 -0.72 C-7.16 2.9, -31.17 19.06, -37.44 22.92 M0.87 1.51 C-5.56 5.84, -31.36 20.75, -38.1 24.41" stroke="#d9480f" stroke-width="1" fill="none"></path></g><g transform="translate(1005 590.015625) rotate(0 -19 11.5)"><path d="M-24.86 8.46 C-28.31 12.04, -33.79 16.96, -39.18 26.01 M-24.63 8.27 C-27.96 12.17, -32.22 16.65, -37.9 24.09" stroke="#d9480f" stroke-width="1" fill="none"></path></g><g transform="translate(1005 590.015625) rotate(0 -19 11.5)"><path d="M-17.39 21.7 C-23.4 20.93, -31.29 21.56, -39.18 26.01 M-17.16 21.5 C-22.46 21.71, -28.79 22.53, -37.9 24.09" stroke="#d9480f" stroke-width="1" fill="none"></path></g></g><g transform="translate(965 573.015625) rotate(0 7 12.5)"><text x="0" y="18" font-family="Virgil, Segoe UI Emoji" font-size="20px" fill="#d9480f" text-anchor="start" style="white-space: pre;" direction="ltr">a</text></g><g stroke-linecap="round"><g transform="translate(977 640.015625) rotate(0 -1.5 -9.5)"><path d="M0.51 -0.53 C0.83 -2.38, 1.85 -7.4, 1.09 -10.59 C0.34 -13.78, -2.84 -18.23, -4.03 -19.66 M-0.68 1.81 C0.09 -0.47, 3.93 -9.08, 3.33 -12.5 C2.73 -15.92, -2.67 -17.74, -4.28 -18.69" stroke="#1864ab" stroke-width="1" fill="none"></path></g></g><g transform="translate(986 621.015625) rotate(0 6 12.5)"><text x="0" y="18" font-family="Virgil, Segoe UI Emoji" font-size="20px" fill="#1864ab" text-anchor="start" style="white-space: pre;" direction="ltr">θ</text></g></svg>