<svg version="1.1" xmlns="http://www.w3.org/2000/svg" viewBox="0 0 10020 752.828125" width="10020" height="752.828125">
  <!-- svg-source:excalidraw -->
  
  <defs>
    <style>
      @font-face {
        font-family: "Virgil";
        src: url("https://excalidraw.com/Virgil.woff2");
      }
      @font-face {
        font-family: "Cascadia";
        src: url("https://excalidraw.com/Cascadia.woff2");
      }
    </style>
  </defs>
  <rect x="0" y="0" width="10020" height="752.828125" fill="#fff0"></rect><g stroke-linecap="round" transform="translate(10 10) rotate(0 5000 0.5)"><path d="M-0.52 -0.26 C3022.65 -30.2, 6044.59 -29.2, 9999.32 0.22 M0.38 -0.31 C3948.03 -0.44, 7895.41 0.2, 9999.95 0.08 M10000.08 -0.06 C10000.09 0.27, 10000.05 0.48, 10000.09 0.92 M9999.97 0.01 C9999.95 0.33, 9999.98 0.72, 10000 0.99 M10000.22 1.51 C7095.77 35.76, 4193.15 34.95, -0.25 0.75 M10000.01 1.13 C7827.97 2.74, 5656.23 3.35, -0.33 0.84 M-0.04 1.01 C0 0.63, -0.06 0.15, 0.05 -0.03 M-0.04 0.95 C-0.04 0.73, -0.03 0.59, -0.05 -0.02" stroke="transparent" stroke-width="1" fill="none"></path></g><g transform="translate(564 721.828125) rotate(0 0 -6.5)" stroke="none"><path fill="#000" d="M -2.42,0 Q -2.42,0 -2.37,-1.73 -2.32,-3.47 -1.61,-5.66 -0.90,-7.84 -0.37,-9.30 0.16,-10.75 0.36,-11.61 0.56,-12.47 0.67,-12.73 0.77,-13.00 0.94,-13.23 1.10,-13.46 1.32,-13.65 1.53,-13.84 1.79,-13.97 2.04,-14.10 2.32,-14.16 2.60,-14.23 2.88,-14.22 3.17,-14.22 3.44,-14.15 3.72,-14.08 3.97,-13.94 4.22,-13.80 4.43,-13.61 4.64,-13.42 4.80,-13.18 4.96,-12.95 5.06,-12.68 5.16,-12.41 5.19,-12.13 5.22,-11.84 5.18,-11.56 5.14,-11.28 5.39,-10.00 5.64,-8.72 4.95,-7.02 4.25,-5.32 3.00,-4.47 1.75,-3.62 0.38,-3.97 -0.97,-4.31 -1.70,-5.69 -2.44,-7.07 -2.25,-8.35 -2.06,-9.64 -0.50,-11.10 1.06,-12.56 3.17,-12.57 5.29,-12.58 6.30,-11.91 7.31,-11.25 7.77,-9.60 8.23,-7.94 8.28,-6.86 8.33,-5.77 7.64,-3.21 6.94,-0.64 5.86,0.13 4.78,0.91 2.91,0.75 1.04,0.59 -1.21,0.09 -3.47,-0.40 -5.28,-1.40 -7.08,-2.40 -7.19,-4.52 -7.29,-6.64 -6.21,-7.58 -5.12,-8.52 -4.52,-9.19 -3.92,-9.85 -3.51,-9.89 -3.10,-9.92 -2.69,-9.85 -2.29,-9.79 -1.91,-9.63 -1.53,-9.47 -1.21,-9.22 -0.88,-8.97 -0.62,-8.65 -0.36,-8.34 -0.19,-7.97 -0.01,-7.59 0.06,-7.19 0.14,-6.79 0.13,-6.38 0.11,-5.97 0.00,-5.58 -0.11,-5.18 -0.31,-4.83 -0.52,-4.47 -0.80,-4.18 -1.09,-3.88 -1.44,-3.66 -1.78,-3.45 -2.17,-3.32 -2.56,-3.19 -0.66,-3.63 1.24,-4.07 1.38,-3.62 1.52,-3.17 1.50,-2.69 1.49,-2.22 1.33,-1.77 1.16,-1.33 0.87,-0.96 0.57,-0.59 0.17,-0.34 -0.22,-0.08 -0.67,0.02 -1.13,0.14 -1.61,0.10 -2.08,0.06 -2.51,-0.12 -2.95,-0.30 -3.30,-0.62 -3.65,-0.93 -3.89,-1.35 -4.12,-1.76 -4.21,-2.22 -4.30,-2.69 -4.23,-3.16 -4.17,-3.63 -3.96,-4.05 -3.75,-4.47 -3.42,-4.81 -3.08,-5.14 -2.66,-5.35 -2.23,-5.56 -1.76,-5.63 -1.30,-5.69 -0.83,-5.60 -0.37,-5.52 0.04,-5.28 0.45,-5.05 0.76,-4.70 1.08,-4.35 1.27,-3.91 1.46,-3.48 1.49,-3.00 1.53,-2.53 1.42,-2.07 1.30,-1.61 1.05,-1.21 0.80,-0.82 0.43,-0.52 0.06,-0.22 -0.38,-0.06 -0.82,0.09 -1.29,0.11 -1.77,0.12 -2.22,-0.01 -2.67,-0.15 -3.06,-0.42 -3.44,-0.70 -3.72,-1.08 -3.99,-1.47 -3.99,-1.47 -3.99,-1.47 -3.95,-5.66 -3.92,-9.85 -3.51,-9.89 -3.10,-9.92 -2.69,-9.85 -2.29,-9.79 -1.91,-9.63 -1.53,-9.47 -1.21,-9.22 -0.88,-8.97 -0.62,-8.65 -0.36,-8.34 -0.19,-7.97 -0.01,-7.60 0.06,-7.19 0.14,-6.79 0.13,-6.38 0.11,-5.97 0.00,-5.58 -0.11,-5.18 -0.31,-4.83 -0.52,-4.47 -0.80,-4.18 -1.09,-3.88 -1.44,-3.66 -1.78,-3.45 -2.17,-3.32 -2.56,-3.19 -2.44,-3.63 -2.31,-4.07 -1.91,-5.35 -1.50,-6.63 0.06,-6.16 1.64,-5.68 2.31,-6.73 2.98,-7.79 1.70,-8.71 0.42,-9.63 0.49,-11.05 0.56,-12.47 0.67,-12.73 0.77,-13.00 0.94,-13.23 1.10,-13.46 1.32,-13.65 1.53,-13.84 1.79,-13.97 2.04,-14.10 2.32,-14.16 2.60,-14.23 2.88,-14.22 3.17,-14.22 3.44,-14.15 3.72,-14.08 3.97,-13.94 4.22,-13.80 4.43,-13.61 4.64,-13.42 4.80,-13.18 4.96,-12.95 5.06,-12.68 5.16,-12.41 5.19,-12.13 5.22,-11.84 5.18,-11.56 5.14,-11.28 4.70,-10.22 4.26,-9.17 3.73,-7.88 3.20,-6.58 2.76,-5.00 2.32,-3.42 2.37,-1.71 2.42,0 2.38,0.28 2.35,0.57 2.24,0.85 2.14,1.12 1.97,1.36 1.81,1.60 1.59,1.79 1.37,1.99 1.11,2.12 0.85,2.26 0.57,2.33 0.29,2.40 -0.00,2.40 -0.29,2.40 -0.57,2.33 -0.85,2.26 -1.11,2.12 -1.37,1.99 -1.59,1.79 -1.81,1.60 -1.97,1.36 -2.14,1.12 -2.24,0.85 -2.35,0.57 -2.38,0.28 -2.42,-0.00 -2.42,-0.00 L -2.42,0 Z"></path></g><g transform="translate(653 605.828125) rotate(0 6 -3.5)" stroke="none"><path fill="#000" d="M -1.76,-1.76 Q -1.76,-1.76 -0.58,-2.89 0.58,-4.01 2.07,-5.14 3.56,-6.26 5.19,-7.11 6.82,-7.95 8.08,-8.60 9.34,-9.25 10.72,-9.18 12.09,-9.12 12.95,-8.43 13.81,-7.75 14.14,-6.22 14.47,-4.70 14.19,-2.70 13.91,-0.69 12.30,0.97 10.68,2.64 9.35,3.08 8.01,3.51 6.53,3.74 5.05,3.96 3.41,3.79 1.78,3.61 0.80,2.97 -0.18,2.34 -0.93,1.59 -1.69,0.84 -2.21,-0.47 -2.73,-1.78 -2.53,-3.15 -2.33,-4.52 -1.72,-6.35 -1.11,-8.18 -0.11,-8.94 0.88,-9.70 2.77,-10.01 4.65,-10.32 6.01,-10.72 7.37,-11.11 11.31,-9.06 15.25,-7.01 15.29,-6.46 15.32,-5.91 15.18,-5.38 15.03,-4.84 14.73,-4.39 14.42,-3.93 13.99,-3.59 13.55,-3.26 13.03,-3.08 12.51,-2.90 11.96,-2.89 11.41,-2.89 10.89,-3.06 10.36,-3.24 9.92,-3.57 9.48,-3.90 9.17,-4.35 8.86,-4.80 8.71,-5.33 8.56,-5.86 8.58,-6.41 8.61,-6.96 8.81,-7.47 9.01,-7.99 9.36,-8.41 9.72,-8.83 10.19,-9.12 10.66,-9.40 11.19,-9.52 11.73,-9.65 12.28,-9.59 12.83,-9.54 13.33,-9.31 13.83,-9.08 14.23,-8.70 14.63,-8.33 14.89,-7.84 15.15,-7.36 15.25,-6.82 15.34,-6.27 15.25,-5.73 15.17,-5.19 14.91,-4.70 14.66,-4.21 14.26,-3.83 13.86,-3.45 13.37,-3.21 12.87,-2.98 12.32,-2.92 11.77,-2.85 11.24,-2.97 10.70,-3.08 10.22,-3.36 9.75,-3.64 9.39,-4.06 9.03,-4.48 8.83,-4.99 8.62,-5.50 8.62,-5.50 8.62,-5.50 8.17,-4.93 7.73,-4.36 5.97,-4.60 4.21,-4.85 3.94,-3.47 3.68,-2.10 5.15,-2.13 6.62,-2.16 7.94,-2.60 9.27,-3.04 10.21,-4.00 11.14,-4.96 10.03,-4.41 8.93,-3.85 7.68,-3.22 6.44,-2.58 5.22,-1.58 4.01,-0.58 2.88,0.59 1.76,1.76 1.52,1.94 1.28,2.13 1.01,2.25 0.74,2.38 0.44,2.43 0.15,2.48 -0.14,2.47 -0.44,2.45 -0.73,2.36 -1.02,2.27 -1.28,2.11 -1.53,1.96 -1.75,1.75 -1.96,1.53 -2.11,1.28 -2.27,1.02 -2.36,0.73 -2.45,0.44 -2.47,0.14 -2.48,-0.15 -2.43,-0.44 -2.38,-0.74 -2.25,-1.01 -2.13,-1.29 -1.94,-1.52 -1.76,-1.76 -1.76,-1.76 L -1.76,-1.76 Z"></path></g><g transform="translate(926 715.828125) rotate(0 4 -4)" stroke="none"><path fill="#000" d="M -2.65,0 Q -2.65,0 -2.61,-1.30 -2.58,-2.61 -1.80,-4.06 -1.03,-5.50 0.03,-6.41 1.11,-7.31 2.17,-8.34 3.24,-9.38 5.65,-9.86 8.07,-10.34 9.85,-8.88 11.63,-7.42 11.50,-5.62 11.37,-3.81 10.74,-1.99 10.10,-0.16 9.18,0.61 8.26,1.39 6.16,2.16 4.06,2.92 2.56,3.06 1.05,3.20 -0.18,3.22 -1.41,3.24 -2.75,2.67 -4.09,2.11 -4.87,1.12 -5.66,0.13 -5.58,-1.66 -5.50,-3.46 -4.91,-4.45 -4.32,-5.44 -3.30,-5.83 -2.28,-6.22 -0.05,-6.69 2.17,-7.16 3.73,-7.62 5.28,-8.07 6.66,-8.21 8.04,-8.35 9.69,-8.11 11.34,-7.87 10.99,-7.87 10.64,-7.87 11.06,-7.82 11.47,-7.77 11.86,-7.63 12.25,-7.49 12.60,-7.25 12.94,-7.02 13.22,-6.71 13.50,-6.40 13.69,-6.04 13.89,-5.67 13.99,-5.27 14.10,-4.86 14.10,-4.45 14.10,-4.03 14.01,-3.63 13.91,-3.22 13.72,-2.85 13.53,-2.48 13.26,-2.17 12.99,-1.86 12.65,-1.62 12.31,-1.38 11.92,-1.23 11.53,-1.08 11.12,-1.02 10.71,-0.97 9.81,0.13 8.91,1.24 7.12,1.76 5.33,2.29 3.79,2.36 2.24,2.43 1.03,2.45 -0.16,2.46 0.75,-0.36 1.67,-3.19 2.01,-2.75 2.35,-2.30 2.53,-1.77 2.71,-1.24 2.71,-0.67 2.71,-0.11 2.54,0.41 2.36,0.95 2.02,1.39 1.68,1.84 1.22,2.16 0.75,2.48 0.21,2.63 -0.32,2.78 -0.88,2.75 -1.44,2.72 -1.97,2.51 -2.49,2.31 -2.92,1.94 -3.35,1.58 -3.64,1.10 -3.93,0.62 -4.05,0.07 -4.17,-0.47 -4.11,-1.03 -4.06,-1.59 -3.82,-2.10 -3.59,-2.61 -3.20,-3.02 -2.81,-3.43 -2.32,-3.69 -1.82,-3.95 -1.27,-4.05 -0.71,-4.14 -0.16,-4.05 0.39,-3.96 0.88,-3.70 1.38,-3.44 1.77,-3.03 2.16,-2.62 2.39,-2.11 2.63,-1.60 2.69,-1.04 2.75,-0.48 2.63,0.05 2.51,0.60 2.23,1.09 1.94,1.57 1.51,1.93 1.08,2.30 0.56,2.51 0.04,2.72 -0.51,2.75 -1.07,2.78 -1.62,2.63 -2.16,2.48 -2.62,2.17 -3.09,1.85 -3.09,1.85 -3.09,1.85 -1.10,-1.30 0.88,-4.47 2.20,-4.49 3.52,-4.51 4.89,-4.82 6.25,-5.13 7.36,-6.12 8.46,-7.10 9.55,-7.48 10.64,-7.87 11.06,-7.82 11.47,-7.77 11.86,-7.63 12.25,-7.49 12.60,-7.25 12.94,-7.02 13.22,-6.71 13.50,-6.40 13.69,-6.04 13.89,-5.67 13.99,-5.27 14.10,-4.87 14.10,-4.45 14.10,-4.03 14.01,-3.63 13.91,-3.22 13.72,-2.85 13.53,-2.48 13.26,-2.17 12.99,-1.86 12.65,-1.62 12.31,-1.38 11.92,-1.23 11.53,-1.08 11.12,-1.02 10.71,-0.97 9.54,-1.27 8.37,-1.56 7.04,-1.45 5.70,-1.33 3.90,-0.84 2.09,-0.36 0.93,-0.76 -0.21,-1.17 0.25,-2.23 0.72,-3.29 2.27,-3.23 3.83,-3.16 4.87,-3.60 5.92,-4.03 4.25,-3.00 2.58,-1.98 2.61,-0.99 2.65,0 2.61,0.31 2.57,0.63 2.46,0.93 2.34,1.23 2.16,1.49 1.98,1.75 1.74,1.97 1.50,2.18 1.22,2.33 0.94,2.47 0.62,2.55 0.31,2.63 -0.00,2.63 -0.31,2.63 -0.63,2.55 -0.94,2.47 -1.22,2.33 -1.50,2.18 -1.74,1.97 -1.98,1.75 -2.16,1.49 -2.34,1.23 -2.46,0.93 -2.57,0.63 -2.61,0.31 -2.65,-0.00 -2.65,-0.00 L -2.65,0 Z"></path></g><g transform="translate(914 736.828125) rotate(0 5.5 -5)" stroke="none"><path fill="#000" d="M -2.17,-1.08 Q -2.17,-1.08 -1.21,-2.79 -0.24,-4.50 1.88,-6.32 4.00,-8.14 5.15,-8.96 6.29,-9.78 7.34,-10.44 8.39,-11.10 10.16,-11.68 11.94,-12.25 13.10,-11.98 14.27,-11.70 15.37,-10.03 16.48,-8.37 15.77,-6.34 15.06,-4.30 13.40,-2.83 11.75,-1.36 10.41,-0.92 9.06,-0.48 7.58,-0.26 6.10,-0.03 4.44,0.40 2.79,0.85 1.14,1.18 -0.49,1.50 -1.74,1.60 -2.99,1.71 -4.25,1.17 -5.52,0.64 -5.86,-1.45 -6.20,-3.56 -5.46,-4.69 -4.71,-5.82 -3.34,-6.32 -1.96,-6.82 -0.85,-7.51 0.24,-8.19 2.44,-9.09 4.64,-9.99 5.16,-10.05 5.69,-10.12 6.20,-10.01 6.72,-9.91 7.17,-9.65 7.63,-9.38 7.98,-8.99 8.32,-8.59 8.53,-8.11 8.73,-7.62 8.77,-7.10 8.81,-6.57 8.67,-6.06 8.54,-5.55 8.25,-5.11 7.97,-4.67 7.55,-4.34 7.14,-4.02 6.64,-3.84 6.15,-3.67 5.62,-3.66 5.09,-3.65 4.59,-3.81 4.09,-3.97 3.67,-4.28 3.24,-4.59 2.94,-5.02 2.64,-5.45 2.49,-5.96 2.34,-6.46 2.36,-6.99 2.38,-7.51 2.56,-8.01 2.75,-8.50 3.08,-8.90 3.42,-9.31 3.86,-9.59 4.31,-9.87 4.82,-9.99 5.33,-10.11 5.86,-10.07 6.38,-10.02 6.86,-9.80 7.35,-9.59 7.73,-9.24 8.12,-8.88 8.38,-8.42 8.63,-7.96 8.72,-7.44 8.82,-6.92 8.74,-6.40 8.67,-5.88 8.43,-5.41 8.19,-4.94 7.81,-4.57 7.44,-4.21 6.96,-3.98 6.49,-3.75 6.49,-3.75 6.49,-3.75 4.10,-2.71 1.72,-1.66 0.17,-1.48 -1.37,-1.29 -1.73,-2.86 -2.09,-4.42 -0.67,-4.80 0.74,-5.18 1.95,-5.25 3.15,-5.32 5.39,-5.75 7.64,-6.19 8.65,-6.50 9.67,-6.81 10.62,-8.02 11.58,-9.22 11.08,-8.20 10.58,-7.18 9.58,-6.69 8.59,-6.20 7.62,-5.67 6.65,-5.13 5.17,-3.76 3.69,-2.39 2.93,-0.65 2.17,1.08 2.01,1.33 1.85,1.57 1.63,1.77 1.42,1.97 1.16,2.11 0.90,2.25 0.62,2.33 0.34,2.40 0.04,2.41 -0.24,2.41 -0.53,2.35 -0.81,2.29 -1.07,2.15 -1.34,2.02 -1.56,1.83 -1.78,1.64 -1.95,1.40 -2.13,1.17 -2.23,0.90 -2.34,0.62 -2.39,0.33 -2.43,0.04 -2.40,-0.24 -2.37,-0.53 -2.27,-0.81 -2.17,-1.08 -2.17,-1.08 L -2.17,-1.08 Z"></path></g><g transform="translate(952 731.828125) rotate(0 -3 -2)" stroke="none"><path fill="#000" d="M 0.35,2.51 Q 0.35,2.51 -1.67,2.67 -3.70,2.83 -4.88,3.00 -6.05,3.18 -8.18,2.89 -10.30,2.60 -10.91,0.45 -11.53,-1.69 -10.96,-2.60 -10.39,-3.51 -9.39,-4.17 -8.38,-4.84 -7.41,-5.40 -6.43,-5.96 -4.78,-6.47 -3.12,-6.99 -1.77,-7.27 -0.42,-7.56 1.67,-7.64 3.77,-7.73 4.90,-7.09 6.02,-6.45 5.47,-3.56 4.92,-0.67 3.31,0.13 1.71,0.95 1.25,-1.22 0.80,-3.39 1.21,-3.04 1.63,-2.70 1.91,-2.24 2.19,-1.78 2.32,-1.25 2.44,-0.73 2.38,-0.19 2.33,0.33 2.11,0.83 1.89,1.32 1.52,1.71 1.16,2.11 0.68,2.37 0.21,2.62 -0.31,2.72 -0.84,2.81 -1.38,2.73 -1.91,2.65 -2.39,2.40 -2.87,2.15 -3.24,1.76 -3.62,1.37 -3.85,0.89 -4.08,0.40 -4.14,-0.12 -4.21,-0.66 -4.10,-1.19 -3.99,-1.72 -3.71,-2.18 -3.44,-2.65 -3.03,-3.00 -2.63,-3.35 -2.13,-3.56 -1.63,-3.76 -1.09,-3.80 -0.55,-3.83 -0.03,-3.69 0.48,-3.55 0.93,-3.26 1.38,-2.96 1.71,-2.53 2.04,-2.11 2.22,-1.60 2.39,-1.09 2.40,-0.55 2.41,-0.01 2.24,0.49 2.07,1.01 1.75,1.44 1.43,1.87 0.98,2.18 0.54,2.49 0.02,2.64 -0.48,2.79 -1.02,2.76 -1.56,2.74 -2.06,2.54 -2.57,2.35 -2.57,2.35 -2.57,2.35 -1.33,-1.44 -0.08,-5.25 1.32,-5.87 2.74,-6.50 1.99,-4.02 1.24,-1.55 -0.89,-1.27 -3.03,-0.99 -4.02,-0.55 -5.01,-0.11 -6.35,0.38 -7.68,0.87 -7.12,-0.33 -6.56,-1.54 -5.45,-1.61 -4.34,-1.68 -2.35,-2.09 -0.35,-2.51 -0.05,-2.52 0.25,-2.53 0.55,-2.46 0.85,-2.39 1.12,-2.25 1.40,-2.12 1.63,-1.92 1.86,-1.72 2.04,-1.47 2.22,-1.22 2.34,-0.94 2.45,-0.66 2.49,-0.35 2.54,-0.05 2.51,0.25 2.48,0.55 2.37,0.84 2.27,1.13 2.10,1.39 1.93,1.64 1.71,1.85 1.48,2.06 1.21,2.21 0.95,2.35 0.65,2.43 0.35,2.51 0.35,2.51 L 0.35,2.51 Z"></path></g><g stroke-linecap="round"><g transform="translate(925 730.828125) rotate(0 8.5 -11)"><path d="M-0.52 -1.13 C4.02 -1.23, 26.87 2.22, 28.05 -1.07 C29.23 -4.36, 12.73 -20.94, 6.55 -20.87 C0.36 -20.81, -6.13 -4.2, -9.08 -0.7 M1.41 0.89 C5.8 0.5, 26.87 1.21, 27.65 -2.71 C28.43 -6.63, 12.07 -23.08, 6.07 -22.63 C0.07 -22.17, -5.74 -3.83, -8.35 0.04" stroke="#000" stroke-width="1" fill="none"></path></g></g><g stroke-linecap="round"><g transform="translate(564 716.828125) rotate(0 48.5 -58)"><path d="M0.19 0.57 C16.31 -18.62, 81.6 -96.39, 97.81 -115.65 M-1.17 -0.18 C14.77 -19.69, 80.93 -98.16, 97.28 -117.59" stroke="#000" stroke-width="1" fill="none"></path></g></g><g stroke-linecap="round"><g transform="translate(658 600.828125) rotate(0 137.5 56)"><path d="M0.76 1.07 C46.53 19.56, 228.68 92.88, 274.38 111.41 M-0.3 0.59 C45.89 19.18, 231.01 93.78, 276.77 112.64" stroke="#000" stroke-width="1" fill="none"></path></g></g><g stroke-linecap="round"><g transform="translate(567 717.828125) rotate(0 1 -34)"><path d="M0.27 -0.21 C0.66 -11.8, 1.61 -57.15, 1.73 -68.58 M-1.04 -1.37 C-0.79 -12.89, -0.09 -56.26, 0.64 -67.34" stroke="#1864ab" stroke-width="1" fill="none"></path></g><g transform="translate(567 717.828125) rotate(0 1 -34)"><path d="M9.47 -39.23 C6.33 -47.61, 3.69 -51.75, -0.41 -68.87 M8.93 -39.3 C5.46 -49.47, 2.8 -59.97, 1.5 -67.79" stroke="#1864ab" stroke-width="1" fill="none"></path></g><g transform="translate(567 717.828125) rotate(0 1 -34)"><path d="M-11.03 -40.01 C-9.01 -48.23, -6.49 -52.18, -0.41 -68.87 M-11.58 -40.08 C-7.13 -50.04, -1.88 -60.25, 1.5 -67.79" stroke="#1864ab" stroke-width="1" fill="none"></path></g></g><g stroke-linecap="round"><g transform="translate(563 713.828125) rotate(0 35.5 -1)"><path d="M0.56 -0.76 C12.54 -1.05, 59.91 -1.06, 71.63 -1.09 M-0.6 1.45 C11.3 0.78, 59.24 -2.04, 71.01 -2.74" stroke="#1864ab" stroke-width="1" fill="none"></path></g><g transform="translate(563 713.828125) rotate(0 35.5 -1)"><path d="M42.2 10.21 C52.57 5.46, 60.45 2.89, 72.02 -3.73 M43.52 8.78 C53.5 4.91, 61.12 2.01, 71.58 -2.13" stroke="#1864ab" stroke-width="1" fill="none"></path></g><g transform="translate(563 713.828125) rotate(0 35.5 -1)"><path d="M40.99 -10.28 C51.81 -9.34, 60.02 -6.22, 72.02 -3.73 M42.31 -11.7 C52.49 -8.87, 60.5 -5.06, 71.58 -2.13" stroke="#1864ab" stroke-width="1" fill="none"></path></g></g><g stroke-linecap="round"><g transform="translate(660 598.828125) rotate(0 38 -1)"><path d="M-0.34 -0.23 C12.61 -0.77, 64.33 -2.39, 77.2 -2.57 M1.69 -1.4 C14.62 -1.84, 64.4 -1.02, 76.88 -1.34" stroke="#1864ab" stroke-width="1" fill="none"></path></g><g transform="translate(660 598.828125) rotate(0 38 -1)"><path d="M48.32 10.99 C55.06 7.82, 64.49 5.39, 75.95 -0.6 M48.3 9.53 C56.68 6.38, 66.48 2.7, 76.35 -1.8" stroke="#1864ab" stroke-width="1" fill="none"></path></g><g transform="translate(660 598.828125) rotate(0 38 -1)"><path d="M48.28 -9.53 C55.14 -7.33, 64.57 -4.41, 75.95 -0.6 M48.26 -10.99 C56.77 -7.89, 66.58 -5.32, 76.35 -1.8" stroke="#1864ab" stroke-width="1" fill="none"></path></g></g><g stroke-linecap="round"><g transform="translate(661 599.828125) rotate(0 0 -33.5)"><path d="M-0.64 0.6 C-0.58 -10.55, -0.7 -54.5, -0.63 -65.87 M1.23 -0.14 C1.77 -11.67, 2.14 -56.32, 1.75 -67.4" stroke="#1864ab" stroke-width="1" fill="none"></path></g><g transform="translate(661 599.828125) rotate(0 0 -33.5)"><path d="M13.27 -40.36 C11.62 -45.87, 6.38 -50.34, 3.11 -65.76 M12.06 -38.72 C9.44 -47.14, 6.4 -54.92, 1.8 -67.32" stroke="#1864ab" stroke-width="1" fill="none"></path></g><g transform="translate(661 599.828125) rotate(0 0 -33.5)"><path d="M-7.25 -40.17 C-4.41 -45.61, -5.16 -50.12, 3.11 -65.76 M-8.46 -38.53 C-5.38 -47.19, -2.72 -55.03, 1.8 -67.32" stroke="#1864ab" stroke-width="1" fill="none"></path></g></g><g stroke-linecap="round"><g transform="translate(930 704.828125) rotate(0 46 0)"><path d="M0.63 0.2 C15.88 0.32, 76.74 0.02, 91.97 0.04 M-0.51 -0.74 C14.55 -0.35, 75.72 1.17, 91 1.59" stroke="#1864ab" stroke-width="1" fill="none"></path></g><g transform="translate(930 704.828125) rotate(0 46 0)"><path d="M62.89 11.06 C72.27 7.72, 82.31 2.94, 89.98 3.24 M63.46 11.03 C69.49 8.83, 74.56 7.76, 91.31 0.6" stroke="#1864ab" stroke-width="1" fill="none"></path></g><g transform="translate(930 704.828125) rotate(0 46 0)"><path d="M63.42 -9.45 C72.5 -5.88, 82.36 -3.74, 89.98 3.24 M63.99 -9.49 C70.08 -7.33, 75.03 -4.04, 91.31 0.6" stroke="#1864ab" stroke-width="1" fill="none"></path></g></g><g stroke-linecap="round"><g transform="translate(896 742.828125) rotate(0 49.5 0)"><path d="M-1.19 -0.87 C15.26 -0.97, 82.71 -0.44, 99.47 -0.16 M0.39 1.28 C16.66 1.34, 82.36 1.7, 98.77 1.3" stroke="#000000" stroke-width="1" fill="none"></path></g></g><g transform="translate(557 721.828125) rotate(0 0.00005000000000165983 0.00005000000000165983)" stroke="none"><path fill="#1864ab" d="M 1.57,-1.57 Q 1.57,-1.57 1.77,-1.27 1.98,-0.98 2.09,-0.64 2.20,-0.29 2.19,0.05 2.18,0.41 2.05,0.75 1.93,1.09 1.70,1.37 1.48,1.65 1.18,1.84 0.87,2.04 0.52,2.12 0.18,2.21 -0.17,2.18 -0.53,2.15 -0.86,2.01 -1.19,1.87 -1.46,1.63 -1.73,1.39 -1.90,1.07 -2.08,0.76 -2.15,0.41 -2.21,0.05 -2.17,-0.29 -2.12,-0.65 -1.96,-0.97 -1.80,-1.29 -1.54,-1.54 -1.29,-1.80 -0.97,-1.96 -0.65,-2.12 -0.29,-2.17 0.06,-2.21 0.41,-2.15 0.76,-2.08 1.07,-1.90 1.39,-1.73 1.63,-1.46 1.87,-1.19 2.01,-0.86 2.15,-0.53 2.18,-0.17 2.21,0.18 2.12,0.52 2.03,0.87 1.84,1.18 1.65,1.48 1.37,1.70 1.09,1.93 0.75,2.05 0.41,2.18 0.05,2.19 -0.30,2.20 -0.64,2.09 -0.98,1.98 -1.27,1.77 -1.57,1.56 -1.57,1.57 -1.57,1.57 -1.73,1.35 -1.90,1.14 -2.01,0.90 -2.12,0.66 -2.16,0.39 -2.21,0.13 -2.20,-0.13 -2.18,-0.40 -2.10,-0.65 -2.02,-0.91 -1.88,-1.14 -1.74,-1.36 -1.55,-1.55 -1.36,-1.74 -1.14,-1.88 -0.91,-2.02 -0.65,-2.10 -0.40,-2.18 -0.13,-2.20 0.13,-2.21 0.39,-2.16 0.66,-2.12 0.90,-2.01 1.14,-1.90 1.35,-1.73 1.57,-1.57 1.57,-1.57 L 1.57,-1.57 Z"></path></g><g transform="translate(557 724.828125) rotate(0 -0.5 0)" stroke="none"><path fill="#1864ab" d="M -0.57,2.33 Q -0.57,2.33 -0.94,2.27 -1.32,2.21 -1.65,2.03 -1.98,1.85 -2.24,1.58 -2.50,1.31 -2.66,0.96 -2.82,0.62 -2.86,0.24 -2.90,-0.12 -2.82,-0.49 -2.74,-0.86 -2.54,-1.18 -2.35,-1.51 -2.06,-1.75 -1.77,-2.00 -1.42,-2.14 -1.07,-2.28 -0.69,-2.30 -0.32,-2.32 0.04,-2.22 0.40,-2.11 0.71,-1.90 1.03,-1.69 1.25,-1.39 1.48,-1.09 1.60,-0.73 1.72,-0.37 1.72,0.00 1.72,0.37 1.60,0.73 1.48,1.09 1.25,1.39 1.03,1.69 0.71,1.90 0.40,2.11 0.04,2.22 -0.32,2.32 -0.70,2.30 -1.07,2.28 -1.42,2.14 -1.77,2.00 -2.06,1.75 -2.35,1.51 -2.54,1.18 -2.74,0.86 -2.82,0.49 -2.90,0.12 -2.86,-0.24 -2.82,-0.62 -2.66,-0.96 -2.50,-1.31 -2.24,-1.58 -1.98,-1.85 -1.65,-2.03 -1.31,-2.21 -0.94,-2.27 -0.57,-2.33 -0.57,-2.33 -0.57,-2.33 -0.28,-2.37 0.00,-2.40 0.28,-2.36 0.57,-2.33 0.84,-2.23 1.11,-2.12 1.35,-1.96 1.59,-1.79 1.78,-1.58 1.97,-1.36 2.11,-1.10 2.24,-0.85 2.31,-0.57 2.38,-0.28 2.38,0.00 2.38,0.29 2.31,0.57 2.24,0.85 2.11,1.11 1.97,1.36 1.78,1.58 1.59,1.80 1.35,1.96 1.11,2.12 0.84,2.23 0.57,2.33 -0.00,2.33 L -0.57,2.33 Z"></path></g><g transform="translate(563 719.828125) rotate(0 0 3)" stroke="none"><path fill="#1864ab" d="M 2.39,0 Q 2.39,0 2.43,1.15 2.47,2.3 -0.03,2.23 -2.54,2.16 -2.47,1.75 -2.41,1.34 -2.21,0.98 -2.02,0.62 -1.72,0.33 -1.42,0.05 -1.05,-0.11 -0.68,-0.29 -0.27,-0.33 0.13,-0.37 0.54,-0.29 0.94,-0.20 1.29,0.00 1.64,0.22 1.91,0.53 2.18,0.84 2.33,1.23 2.48,1.61 2.50,2.02 2.53,2.43 2.42,2.83 2.31,3.23 2.07,3.57 1.84,3.91 1.51,4.16 1.19,4.41 0.80,4.54 0.41,4.67 -0.00,4.67 -0.41,4.67 -0.80,4.54 -1.19,4.41 -1.52,4.16 -1.84,3.91 -2.07,3.57 -2.31,3.23 -2.42,2.83 -2.53,2.43 -2.50,2.02 -2.48,1.61 -2.33,1.23 -2.18,0.84 -1.91,0.53 -1.64,0.22 -1.29,0.00 -0.94,-0.20 -0.53,-0.29 -0.13,-0.37 0.27,-0.33 0.68,-0.29 1.05,-0.11 1.42,0.05 1.72,0.33 2.02,0.62 2.21,0.98 2.41,1.35 2.47,1.75 2.54,2.16 2.54,2.16 2.54,2.16 0.03,2.23 -2.47,2.3 -2.43,1.15 -2.39,0 -2.36,-0.28 -2.32,-0.57 -2.22,-0.84 -2.12,-1.11 -1.95,-1.35 -1.79,-1.58 -1.57,-1.78 -1.36,-1.97 -1.10,-2.10 -0.84,-2.24 -0.56,-2.30 -0.28,-2.37 0.00,-2.37 0.28,-2.37 0.56,-2.30 0.84,-2.24 1.10,-2.10 1.36,-1.97 1.57,-1.78 1.79,-1.58 1.95,-1.35 2.12,-1.11 2.22,-0.84 2.32,-0.57 2.36,-0.28 2.39,0.00 2.39,0.00 L 2.39,0 Z"></path></g><g transform="translate(571 716.828125) rotate(0 0 4)" stroke="none"><path fill="#1864ab" d="M 2.35,0 Q 2.35,0 2.39,1.15 2.43,2.3 2.53,3.69 2.63,5.08 2.71,6.15 2.78,7.22 2.74,7.56 2.70,7.89 2.58,8.21 2.46,8.52 2.27,8.80 2.08,9.07 1.83,9.30 1.58,9.52 1.28,9.68 0.98,9.83 0.66,9.91 0.33,9.99 -0.00,9.99 -0.33,9.99 -0.66,9.91 -0.98,9.83 -1.28,9.68 -1.58,9.52 -1.83,9.30 -2.08,9.07 -2.27,8.80 -2.46,8.52 -2.58,8.21 -2.70,7.89 -2.74,7.56 -2.78,7.22 -2.58,5.15 -2.38,3.07 -2.32,2.69 -2.26,2.30 -2.08,1.96 -1.90,1.62 -1.62,1.36 -1.34,1.09 -0.98,0.93 -0.63,0.77 -0.25,0.72 0.12,0.68 0.50,0.77 0.88,0.85 1.21,1.05 1.54,1.25 1.79,1.54 2.04,1.84 2.18,2.20 2.33,2.55 2.35,2.94 2.37,3.33 2.27,3.70 2.16,4.07 1.95,4.39 1.73,4.71 1.42,4.94 1.11,5.18 0.75,5.30 0.38,5.42 -0.00,5.42 -0.38,5.42 -0.75,5.30 -1.11,5.18 -1.42,4.94 -1.73,4.71 -1.95,4.39 -2.16,4.07 -2.27,3.70 -2.37,3.33 -2.35,2.94 -2.33,2.55 -2.18,2.19 -2.04,1.84 -1.79,1.54 -1.54,1.25 -1.21,1.05 -0.88,0.85 -0.50,0.77 -0.12,0.68 0.25,0.72 0.63,0.77 0.99,0.93 1.34,1.09 1.62,1.36 1.90,1.62 2.08,1.96 2.26,2.31 2.32,2.69 2.38,3.07 2.38,3.07 2.38,3.07 2.58,5.15 2.78,7.22 2.74,7.56 2.70,7.89 2.58,8.21 2.46,8.52 2.27,8.80 2.08,9.07 1.83,9.30 1.58,9.52 1.28,9.68 0.98,9.83 0.66,9.91 0.33,9.99 0.00,9.99 -0.33,9.99 -0.66,9.91 -0.98,9.83 -1.28,9.68 -1.58,9.52 -1.83,9.30 -2.08,9.07 -2.27,8.80 -2.46,8.52 -2.58,8.21 -2.70,7.89 -2.74,7.56 -2.78,7.22 -2.71,6.15 -2.63,5.08 -2.53,3.69 -2.43,2.3 -2.39,1.15 -2.35,0 -2.32,-0.28 -2.28,-0.56 -2.18,-0.82 -2.08,-1.09 -1.92,-1.32 -1.76,-1.56 -1.55,-1.75 -1.33,-1.93 -1.08,-2.07 -0.83,-2.20 -0.55,-2.27 -0.28,-2.33 0.00,-2.33 0.28,-2.33 0.55,-2.27 0.83,-2.20 1.08,-2.07 1.33,-1.93 1.55,-1.74 1.76,-1.56 1.92,-1.32 2.08,-1.09 2.18,-0.82 2.28,-0.56 2.32,-0.28 2.35,0.00 2.35,0.00 L 2.35,0 Z"></path></g><g transform="translate(525 689.828125) rotate(0 8 12.5)"><text x="0" y="18" font-family="Virgil, Segoe UI Emoji" font-size="20px" fill="#d9480f" text-anchor="start" style="white-space: pre;" direction="ltr">O</text></g><g transform="translate(632 574.828125) rotate(0 7 12.5)"><text x="0" y="18" font-family="Virgil, Segoe UI Emoji" font-size="20px" fill="#d9480f" text-anchor="start" style="white-space: pre;" direction="ltr">A</text></g><g transform="translate(877 698.828125) rotate(0 8 12.5)"><text x="0" y="18" font-family="Virgil, Segoe UI Emoji" font-size="20px" fill="#d9480f" text-anchor="start" style="white-space: pre;" direction="ltr">B</text></g><g transform="translate(901 535.828125) rotate(0 44 12.499999999999998)"><text x="0" y="18" font-family="Virgil, Segoe UI Emoji" font-size="20px" fill="#000000" text-anchor="start" style="white-space: pre;" direction="ltr">V    = ci</text></g><g transform="translate(978 541.828125) rotate(0 0 -0.5)" stroke="none"><path fill="#000000" d="M -2.33,-0.57 Q -2.33,-0.57 -2.27,-0.94 -2.21,-1.32 -2.03,-1.65 -1.85,-1.98 -1.58,-2.24 -1.31,-2.50 -0.96,-2.66 -0.62,-2.82 -0.24,-2.86 0.12,-2.90 0.49,-2.82 0.86,-2.74 1.18,-2.54 1.51,-2.35 1.75,-2.06 2.00,-1.77 2.14,-1.42 2.28,-1.07 2.30,-0.69 2.32,-0.32 2.22,0.04 2.11,0.40 1.90,0.71 1.69,1.03 1.39,1.25 1.09,1.48 0.73,1.60 0.37,1.72 -0.00,1.72 -0.37,1.72 -0.73,1.60 -1.09,1.48 -1.39,1.25 -1.69,1.03 -1.90,0.71 -2.11,0.40 -2.22,0.04 -2.32,-0.32 -2.30,-0.70 -2.28,-1.07 -2.14,-1.42 -2.00,-1.77 -1.75,-2.06 -1.51,-2.35 -1.18,-2.54 -0.86,-2.74 -0.49,-2.82 -0.12,-2.90 0.24,-2.86 0.62,-2.82 0.96,-2.66 1.31,-2.50 1.58,-2.24 1.85,-1.98 2.03,-1.65 2.21,-1.31 2.27,-0.94 2.33,-0.57 2.33,-0.57 2.33,-0.57 2.37,-0.28 2.40,0.00 2.36,0.28 2.33,0.57 2.23,0.84 2.12,1.11 1.96,1.35 1.79,1.59 1.58,1.78 1.36,1.97 1.10,2.11 0.85,2.24 0.57,2.31 0.28,2.38 -0.00,2.38 -0.29,2.38 -0.57,2.31 -0.85,2.24 -1.11,2.11 -1.36,1.97 -1.58,1.78 -1.80,1.59 -1.96,1.35 -2.12,1.11 -2.23,0.84 -2.33,0.57 -2.33,-0.00 L -2.33,-0.57 Z"></path></g><g stroke-linecap="round"><g transform="translate(978.8259457163256 534.9449934215708) rotate(0 9.403542519187368 0.555345858379571)"><path d="M0.05 -0.76 C3.36 -0.51, 16.35 0.97, 19.44 1.34 M-1.38 1.46 C1.86 1.34, 15.65 -0.91, 18.82 -0.66" stroke="#000000" stroke-width="1" fill="none"></path></g><g transform="translate(978.8259457163256 534.9449934215708) rotate(0 9.403542519187368 0.555345858379571)"><path d="M9.6 3.61 C12.66 1.92, 15.01 0.83, 18.04 -0.31 M10.29 3.39 C12.13 2.05, 14.26 1.32, 18.94 -0.41" stroke="#000000" stroke-width="1" fill="none"></path></g><g transform="translate(978.8259457163256 534.9449934215708) rotate(0 9.403542519187368 0.555345858379571)"><path d="M9.19 -2.82 C12.35 -2.81, 14.8 -2.21, 18.04 -0.31 M9.88 -3.04 C11.85 -2.78, 14.08 -1.93, 18.94 -0.41" stroke="#000000" stroke-width="1" fill="none"></path></g></g><g stroke-linecap="round"><g transform="translate(895.1162317639341 531.0421314947307) rotate(0 13.691884118032903 -0.3570032473653555)"><path d="M0.08 -0.64 C5.02 -0.74, 23.86 -1.31, 28.49 -1.43 M-1.34 1.63 C3.65 1.76, 23.34 0.07, 28.12 -0.26" stroke="#000000" stroke-width="1" fill="none"></path></g><g transform="translate(895.1162317639341 531.0421314947307) rotate(0 13.691884118032903 -0.3570032473653555)"><path d="M14.91 6.65 C17.4 4.8, 20.02 3.62, 27.89 0.93 M15.92 5.17 C19.57 3.85, 22.29 2.19, 28.67 -0.86" stroke="#000000" stroke-width="1" fill="none"></path></g><g transform="translate(895.1162317639341 531.0421314947307) rotate(0 13.691884118032903 -0.3570032473653555)"><path d="M14.19 -2.69 C16.76 -2.65, 19.53 -1.95, 27.89 0.93 M15.21 -4.17 C19.08 -2.97, 21.98 -2.09, 28.67 -0.86" stroke="#000000" stroke-width="1" fill="none"></path></g></g><g transform="translate(909 545.828125) rotate(0 23 12.5)"><text x="0" y="18" font-family="Virgil, Segoe UI Emoji" font-size="20px" fill="#000000" text-anchor="start" style="white-space: pre;" direction="ltr">bass</text></g><g transform="translate(923.6253687406827 590.078125) rotate(0 87.49999999999997 12.5)"><text x="0" y="18" font-family="Virgil, Segoe UI Emoji" font-size="20px" fill="#000000" text-anchor="start" style="white-space: pre;" direction="ltr">V    = βk X (b-a)</text></g><g stroke-linecap="round"><g transform="translate(919.8838624136154 587.4475900241858) rotate(0 12.620753163533692 -0.9347325120929142)"><path d="M-0.03 0.2 C4.26 0.15, 21.8 -0.5, 25.97 -0.74 M-1.5 -0.75 C2.67 -1.07, 21.13 -1.85, 25.4 -2.27" stroke="#000000" stroke-width="1" fill="none"></path></g><g transform="translate(919.8838624136154 587.4475900241858) rotate(0 12.620753163533692 -0.9347325120929142)"><path d="M14.03 3.6 C18.75 0.97, 21.94 -0.74, 24.73 -3.08 M13.89 2.77 C16.82 1.58, 20.3 0.42, 25.16 -1.91" stroke="#000000" stroke-width="1" fill="none"></path></g><g transform="translate(919.8838624136154 587.4475900241858) rotate(0 12.620753163533692 -0.9347325120929142)"><path d="M13.46 -5.04 C18.34 -4.9, 21.71 -3.83, 24.73 -3.08 M13.33 -5.86 C16.36 -4.86, 19.99 -3.83, 25.16 -1.91" stroke="#000000" stroke-width="1" fill="none"></path></g></g><g transform="translate(935.6253687406827 606.078125) rotate(0 18 12.5)"><text x="0" y="18" font-family="Virgil, Segoe UI Emoji" font-size="20px" fill="#000000" text-anchor="start" style="white-space: pre;" direction="ltr">brel</text></g><g stroke-linecap="round"><g transform="translate(1058.3792468364663 583.762857512093) rotate(0 12.620753163533664 -0.9347325120929142)"><path d="M0.62 0.39 C4.72 -0.02, 21.09 -2.42, 25.34 -2.93 M-0.52 -0.44 C3.37 -0.7, 20.06 -1.73, 24.44 -1.94" stroke="#000000" stroke-width="1" fill="none"></path></g><g transform="translate(1058.3792468364663 583.762857512093) rotate(0 12.620753163533664 -0.9347325120929142)"><path d="M13.22 3.14 C15.92 2.06, 20.44 0.49, 24 -1.45 M13.37 3.13 C15.87 2.05, 20.47 0.6, 24.09 -1.74" stroke="#000000" stroke-width="1" fill="none"></path></g><g transform="translate(1058.3792468364663 583.762857512093) rotate(0 12.620753163533664 -0.9347325120929142)"><path d="M12.74 -5.5 C15.58 -3.46, 20.28 -1.91, 24 -1.45 M12.89 -5.51 C15.49 -3.97, 20.24 -2.79, 24.09 -1.74" stroke="#000000" stroke-width="1" fill="none"></path></g></g><g stroke-linecap="round"><g transform="translate(1008.1967597893752 591.413072109713) rotate(0 9.71199668707925 -0.7598398109029461)"><path d="M-1.18 -0.63 C1.98 -0.93, 14.96 -1.1, 18.48 -1.34 M0.4 1.65 C3.97 1.53, 17.52 0.74, 20.69 0.3" stroke="#000000" stroke-width="1" fill="none"></path></g><g transform="translate(1008.1967597893752 591.413072109713) rotate(0 9.71199668707925 -0.7598398109029461)"><path d="M11.36 3.68 C14.29 3.87, 16 3.19, 20.53 0.25 M11.8 4.63 C14.82 2.97, 17.67 1.79, 21.14 0.22" stroke="#000000" stroke-width="1" fill="none"></path></g><g transform="translate(1008.1967597893752 591.413072109713) rotate(0 9.71199668707925 -0.7598398109029461)"><path d="M10.76 -2.96 C13.87 -1.05, 15.74 0, 20.53 0.25 M11.2 -2.01 C14.47 -1.51, 17.52 -0.53, 21.14 0.22" stroke="#000000" stroke-width="1" fill="none"></path></g></g><g transform="translate(1003 580.828125) rotate(0 0.00004999999998744897 0.00005000000000165983)" stroke="none"><path fill="#000000" d="M 1.57,-1.57 Q 1.57,-1.57 1.77,-1.27 1.98,-0.98 2.09,-0.64 2.20,-0.29 2.19,0.05 2.18,0.41 2.05,0.75 1.93,1.09 1.70,1.37 1.48,1.65 1.18,1.84 0.87,2.04 0.52,2.12 0.18,2.21 -0.17,2.18 -0.53,2.15 -0.86,2.01 -1.19,1.87 -1.46,1.63 -1.73,1.39 -1.90,1.07 -2.08,0.76 -2.15,0.41 -2.21,0.05 -2.17,-0.29 -2.12,-0.65 -1.96,-0.97 -1.80,-1.29 -1.54,-1.54 -1.29,-1.80 -0.97,-1.96 -0.65,-2.12 -0.29,-2.17 0.06,-2.21 0.41,-2.15 0.76,-2.08 1.07,-1.90 1.39,-1.73 1.63,-1.46 1.87,-1.19 2.01,-0.86 2.15,-0.53 2.18,-0.17 2.21,0.18 2.12,0.52 2.03,0.87 1.84,1.18 1.65,1.48 1.37,1.70 1.09,1.93 0.75,2.05 0.41,2.18 0.05,2.19 -0.30,2.20 -0.64,2.09 -0.98,1.98 -1.27,1.77 -1.57,1.56 -1.57,1.57 -1.57,1.57 -1.73,1.35 -1.90,1.14 -2.01,0.90 -2.12,0.66 -2.16,0.39 -2.21,0.13 -2.20,-0.13 -2.18,-0.40 -2.10,-0.65 -2.02,-0.91 -1.88,-1.14 -1.74,-1.36 -1.55,-1.55 -1.36,-1.74 -1.14,-1.88 -0.91,-2.02 -0.65,-2.10 -0.40,-2.18 -0.13,-2.20 0.13,-2.21 0.39,-2.16 0.66,-2.12 0.90,-2.01 1.14,-1.90 1.35,-1.73 1.57,-1.57 1.57,-1.57 L 1.57,-1.57 Z"></path></g><g transform="translate(1006.3707531635337 635.953125) rotate(0 88.50000000000003 12.5)"><text x="0" y="18" font-family="Virgil, Segoe UI Emoji" font-size="20px" fill="#000000" text-anchor="start" style="white-space: pre;" direction="ltr">V    = αk X (a-o)</text></g><g stroke-linecap="round"><g transform="translate(1145.864192465678 630.7920761549467) rotate(0 23.042560828762817 0.7973961846160762)"><path d="M-1.17 0.4 C6.25 0.66, 37.43 0.18, 45.45 0.4 M0.41 -0.44 C8.15 0.02, 40.13 0.71, 47.83 1.32" stroke="#000000" stroke-width="1" fill="none"></path></g><g transform="translate(1145.864192465678 630.7920761549467) rotate(0 23.042560828762817 0.7973961846160762)"><path d="M26.49 7.15 C32.2 7.25, 42.75 2.01, 46.99 -0.06 M25.83 7.34 C31.65 6.51, 35.91 4.82, 47.44 1.85" stroke="#000000" stroke-width="1" fill="none"></path></g><g transform="translate(1145.864192465678 630.7920761549467) rotate(0 23.042560828762817 0.7973961846160762)"><path d="M27.21 -8.61 C32.49 -2.57, 42.77 -1.88, 46.99 -0.06 M26.55 -8.42 C32.15 -5.61, 36.24 -3.66, 47.44 1.85" stroke="#000000" stroke-width="1" fill="none"></path></g></g><g transform="translate(1018.3707531635337 651.953125) rotate(0 26.00000000000003 12.5)"><text x="0" y="18" font-family="Virgil, Segoe UI Emoji" font-size="20px" fill="#000000" text-anchor="start" style="white-space: pre;" direction="ltr">aTra</text></g><g stroke-linecap="round"><g transform="translate(1000.425333062648 630.4266707939712) rotate(0 17.97034677926149 -0.8411249601124311)"><path d="M-0.63 -1.19 C5.69 -1.51, 30.83 -1.35, 36.8 -1.52 M1.23 0.8 C7.58 0.66, 30.22 0.43, 36.3 0.11" stroke="#000000" stroke-width="1" fill="none"></path></g><g transform="translate(1000.425333062648 630.4266707939712) rotate(0 17.97034677926149 -0.8411249601124311)"><path d="M17.8 8.04 C23.2 4.4, 25.58 2.91, 35.06 -0.56 M20.23 6.61 C24.09 4.84, 28.43 3.72, 35.45 -0.71" stroke="#000000" stroke-width="1" fill="none"></path></g><g transform="translate(1000.425333062648 630.4266707939712) rotate(0 17.97034677926149 -0.8411249601124311)"><path d="M17.44 -4.26 C22.95 -5.41, 25.4 -4.41, 35.06 -0.56 M19.87 -5.69 C23.83 -4.07, 28.27 -1.81, 35.45 -0.71" stroke="#000000" stroke-width="1" fill="none"></path></g></g><g stroke-linecap="round"><g transform="translate(1089.9421442122261 636.288072109713) rotate(0 10.68848782865939 0.46658724838553667)"><path d="M-1.19 0.86 C2.33 1, 17.87 0.33, 21.54 0.2 M0.38 0.26 C3.73 0.6, 17.44 1.23, 20.68 1.35" stroke="#000000" stroke-width="1" fill="none"></path></g><g transform="translate(1089.9421442122261 636.288072109713) rotate(0 10.68848782865939 0.46658724838553667)"><path d="M11.25 4.72 C13.24 3.16, 16.55 1.79, 20.29 1.09 M10.4 4.52 C13.43 3.33, 16.92 2.06, 20.19 1.72" stroke="#000000" stroke-width="1" fill="none"></path></g><g transform="translate(1089.9421442122261 636.288072109713) rotate(0 10.68848782865939 0.46658724838553667)"><path d="M11.56 -2.59 C13.42 -1.72, 16.62 -0.65, 20.29 1.09 M10.72 -2.79 C13.59 -1.79, 16.98 -0.86, 20.19 1.72" stroke="#000000" stroke-width="1" fill="none"></path></g></g><g transform="translate(1083 633.828125) rotate(0 0 -0.5)" stroke="none"><path fill="#000000" d="M -2.33,-0.57 Q -2.33,-0.57 -2.27,-0.94 -2.21,-1.32 -2.03,-1.65 -1.85,-1.98 -1.58,-2.24 -1.31,-2.50 -0.96,-2.66 -0.62,-2.82 -0.24,-2.86 0.12,-2.90 0.49,-2.82 0.86,-2.74 1.18,-2.54 1.51,-2.35 1.75,-2.06 2.00,-1.77 2.14,-1.42 2.28,-1.07 2.30,-0.69 2.32,-0.32 2.22,0.04 2.11,0.40 1.90,0.71 1.69,1.03 1.39,1.25 1.09,1.48 0.73,1.60 0.37,1.72 -0.00,1.72 -0.37,1.72 -0.73,1.60 -1.09,1.48 -1.39,1.25 -1.69,1.03 -1.90,0.71 -2.11,0.40 -2.22,0.04 -2.32,-0.32 -2.30,-0.70 -2.28,-1.07 -2.14,-1.42 -2.00,-1.77 -1.75,-2.06 -1.51,-2.35 -1.18,-2.54 -0.86,-2.74 -0.49,-2.82 -0.12,-2.90 0.24,-2.86 0.62,-2.82 0.96,-2.66 1.31,-2.50 1.58,-2.24 1.85,-1.98 2.03,-1.65 2.21,-1.31 2.27,-0.94 2.33,-0.57 2.33,-0.57 2.33,-0.57 2.37,-0.28 2.40,0.00 2.36,0.28 2.33,0.57 2.23,0.84 2.12,1.11 1.96,1.35 1.79,1.59 1.58,1.78 1.36,1.97 1.10,2.11 0.85,2.24 0.57,2.31 0.28,2.38 -0.00,2.38 -0.29,2.38 -0.57,2.31 -0.85,2.24 -1.11,2.11 -1.36,1.97 -1.58,1.78 -1.80,1.59 -1.96,1.35 -2.12,1.11 -2.23,0.84 -2.33,0.57 -2.33,-0.00 L -2.33,-0.57 Z"></path></g><g transform="translate(1038 698.828125) rotate(0 23 12.5)"><text x="0" y="18" font-family="Virgil, Segoe UI Emoji" font-size="20px" fill="#1864ab" text-anchor="start" style="white-space: pre;" direction="ltr">Vass</text></g><g stroke-linecap="round"><g transform="translate(929 707.828125) rotate(0 12.600516876904294 -29.869834952829407)"><path d="M0.98 -0.71 C5.03 -10.55, 20.67 -48.94, 24.64 -58.83 M0.03 1.53 C3.84 -8.65, 19.43 -50.4, 23.4 -60.48" stroke="#d9480f" stroke-width="1" fill="none"></path></g><g transform="translate(929 707.828125) rotate(0 12.600516876904294 -29.869834952829407)"><path d="M21.73 -31.41 C24.55 -40.96, 22.63 -50.42, 23.96 -61.96 M23.02 -30.88 C23.88 -40.51, 23.14 -49.67, 22.71 -61.25" stroke="#d9480f" stroke-width="1" fill="none"></path></g><g transform="translate(929 707.828125) rotate(0 12.600516876904294 -29.869834952829407)"><path d="M2.56 -38.74 C11.71 -46.03, 16.11 -53.07, 23.96 -61.96 M3.85 -38.21 C10.89 -45.37, 16.36 -52.16, 22.71 -61.25" stroke="#d9480f" stroke-width="1" fill="none"></path></g></g><g transform="translate(877 635.828125) rotate(0 18 12.5)"><text x="0" y="18" font-family="Virgil, Segoe UI Emoji" font-size="20px" fill="#d9480f" text-anchor="start" style="white-space: pre;" direction="ltr">Vrel</text></g><g stroke-linecap="round"><g transform="translate(657 599.828125) rotate(0 -32 -24)"><path d="M-0.74 -1.17 C-11.07 -9.31, -52.45 -39.98, -62.8 -47.75 M1.08 0.84 C-9.24 -7.18, -52.44 -41.87, -63.12 -49.74" stroke="#d9480f" stroke-width="1" fill="none"></path></g><g transform="translate(657 599.828125) rotate(0 -32 -24)"><path d="M-36.49 -38.59 C-40.92 -41.02, -47.68 -46.97, -63.04 -48.71 M-34.11 -40.5 C-42.01 -42.74, -47.93 -45.37, -63.3 -50.08" stroke="#d9480f" stroke-width="1" fill="none"></path></g><g transform="translate(657 599.828125) rotate(0 -32 -24)"><path d="M-49.06 -22.37 C-50.69 -28.53, -54.5 -38.28, -63.04 -48.71 M-46.67 -24.27 C-51.41 -30.54, -54.29 -37.09, -63.3 -50.08" stroke="#d9480f" stroke-width="1" fill="none"></path></g></g><g transform="translate(546 519.828125) rotate(0 22.5 12.5)"><text x="0" y="18" font-family="Virgil, Segoe UI Emoji" font-size="20px" fill="#d9480f" text-anchor="start" style="white-space: pre;" direction="ltr">Vtra</text></g></svg>