<svg version="1.1" xmlns="http://www.w3.org/2000/svg" viewBox="0 0 10020 681.71875" width="10020" height="681.71875">
  <!-- svg-source:excalidraw -->
  
  <defs>
    <style>
      @font-face {
        font-family: "Virgil";
        src: url("https://excalidraw.com/Virgil.woff2");
      }
      @font-face {
        font-family: "Cascadia";
        src: url("https://excalidraw.com/Cascadia.woff2");
      }
    </style>
  </defs>
  <rect x="0" y="0" width="10020" height="681.71875" fill="#fff0"></rect><g stroke-linecap="round" transform="translate(10 10) rotate(0 5000 0.5)"><path d="M-0.52 -0.26 C3022.65 -30.2, 6044.59 -29.2, 9999.32 0.22 M0.38 -0.31 C3948.03 -0.44, 7895.41 0.2, 9999.95 0.08 M10000.08 -0.06 C10000.09 0.27, 10000.05 0.48, 10000.09 0.92 M9999.97 0.01 C9999.95 0.33, 9999.98 0.72, 10000 0.99 M10000.22 1.51 C7095.77 35.76, 4193.15 34.95, -0.25 0.75 M10000.01 1.13 C7827.97 2.74, 5656.23 3.35, -0.33 0.84 M-0.04 1.01 C0 0.63, -0.06 0.15, 0.05 -0.03 M-0.04 0.95 C-0.04 0.73, -0.03 0.59, -0.05 -0.02" stroke="transparent" stroke-width="1" fill="none"></path></g><g stroke-linecap="round"><g transform="translate(870 522.71875) rotate(0 0.5 74.5)"><path d="M1.11 0.62 C1.24 25.51, 0.16 123.35, 0.27 148.18 M0.23 -0.09 C0.79 25.03, 2.4 124.67, 2.6 149.29" stroke="#000" stroke-width="1" fill="none"></path></g></g><g stroke-linecap="round"><g transform="translate(768 585.71875) rotate(0 123 -0.5)"><path d="M-0.6 0.9 C40.19 0.88, 204.26 -0.34, 245.39 -0.46 M1.29 0.32 C42.41 -0.02, 207.08 -1.98, 247.79 -2.3" stroke="#000" stroke-width="1" fill="none"></path></g></g><g stroke-linecap="round"><g transform="translate(782 559.71875) rotate(0 123 22)"><path d="M-1.19 0.26 C3.89 8.34, 21.47 49.54, 31.09 49.29 C40.71 49.04, 48.83 0.16, 56.51 -1.25 C64.19 -2.66, 69.16 41.49, 77.19 40.84 C85.23 40.2, 95.06 -5.36, 104.72 -5.1 C114.38 -4.85, 124.74 40.88, 135.15 42.38 C145.56 43.88, 157.71 3.7, 167.18 3.91 C176.66 4.11, 183.32 44.04, 192 43.62 C200.67 43.2, 210.13 1.59, 219.22 1.4 C228.32 1.2, 242.14 35.47, 246.56 42.47 M0.38 -0.66 C5.78 6.98, 24.14 47.74, 33.32 47.32 C42.51 46.89, 48.12 -2.2, 55.49 -3.2 C62.86 -4.19, 69 41.6, 77.54 41.34 C86.09 41.08, 97.44 -5.32, 106.77 -4.77 C116.1 -4.21, 123.84 43.38, 133.51 44.68 C143.18 45.98, 155.12 3.22, 164.79 3.04 C174.45 2.86, 182.68 44.07, 191.49 43.6 C200.31 43.13, 208.31 0.53, 217.67 0.22 C227.02 -0.09, 242.91 34.34, 247.63 41.73" stroke="#d9480f" stroke-width="1" fill="none"></path></g></g><g transform="translate(880 535.71875) rotate(0 3 12.5)"><text x="0" y="18" font-family="Virgil, Segoe UI Emoji" font-size="20px" fill="#d9480f" text-anchor="start" style="white-space: pre;" direction="ltr">1</text></g><g transform="translate(883 610.71875) rotate(0 7.5 12.5)"><text x="0" y="18" font-family="Virgil, Segoe UI Emoji" font-size="20px" fill="#d9480f" text-anchor="start" style="white-space: pre;" direction="ltr">-1</text></g><g stroke-linecap="round"><g transform="translate(855.9794940728601 552.9971410302165) rotate(0 2 34.5)"><path d="M0.31 -0.15 C1.06 10.97, 2.84 56.22, 3.56 67.84 M-0.98 -1.28 C-0.34 10.45, 1.52 57.29, 2.39 68.76" stroke="#1864ab" stroke-width="1" fill="none"></path></g></g><g stroke-linecap="round"><g transform="translate(853.1893641114235 621.4431419129018) rotate(0 23.033886402845383 0.0024887382984175588)"><path d="M-1.19 1 C6.58 0.99, 38.44 0.52, 46.14 0.27 M0.39 0.49 C8.04 0.06, 37.4 -1.73, 45.22 -1.72" stroke="#1864ab" stroke-width="1" fill="none"></path></g></g><g stroke-linecap="round"><g transform="translate(892 554.71875) rotate(0 0.5 33)"><path d="M-0.49 -0.8 C-0.37 10.09, 1.11 55.05, 1.31 65.99 M1.45 1.39 C1.38 12.44, 0.81 56.83, 0.52 67.53" stroke="#1864ab" stroke-width="1" fill="none"></path></g></g><g stroke-linecap="round"><g transform="translate(850 552.71875) rotate(0 22.29522044062614 0.9846940591512237)"><path d="M0.99 -0.69 C8.4 -0.51, 36.72 0.63, 44.18 0.94 M0.05 1.55 C7.3 1.87, 35.43 1.86, 43.02 1.94" stroke="#1864ab" stroke-width="1" fill="none"></path></g></g><g stroke-linecap="round"><g transform="translate(792 519.71875) rotate(0 -20 33)"><path d="M-1.11 0.63 C-7.94 11.68, -34.31 54.65, -40.98 65.35 M0.51 -0.09 C-5.96 11.19, -32.23 55.6, -38.78 66.55" stroke="#1864ab" stroke-width="1" fill="none"></path></g></g><g stroke-linecap="round"><g transform="translate(807 546.71875) rotate(0 -22 39)"><path d="M0.67 -0.85 C-6.88 12.17, -37.13 65.1, -44.6 78.31 M-0.44 1.31 C-7.65 13.95, -34.78 63.86, -42.2 76.35" stroke="#1864ab" stroke-width="1" fill="none"></path></g></g><g stroke-linecap="round"><g transform="translate(852 529.71875) rotate(0 -27 45.5)"><path d="M0.01 0.4 C-8.82 15.64, -44.44 76.01, -53.38 90.91 M-1.44 -0.43 C-10.34 15.05, -45.2 77.25, -54.01 92.4" stroke="#1864ab" stroke-width="1" fill="none"></path></g></g><g stroke-linecap="round"><g transform="translate(949 537.71875) rotate(0 -18 44.5)"><path d="M0.96 -0.96 C-4.86 13.92, -28.96 74.68, -35.12 89.58 M0.01 1.15 C-5.88 15.64, -29.48 73.04, -35.61 87.77" stroke="#1864ab" stroke-width="1" fill="none"></path></g></g><g stroke-linecap="round"><g transform="translate(1002 538.71875) rotate(0 -26 44.5)"><path d="M0.63 0.77 C-7.85 15.57, -42.8 73.29, -51.63 87.8 M-0.5 0.13 C-9.04 15.12, -43.59 73.97, -52.38 88.71" stroke="#1864ab" stroke-width="1" fill="none"></path></g></g><g stroke-linecap="round"><g transform="translate(1046 548.71875) rotate(0 -30 39)"><path d="M0.17 0.01 C-9.73 12.82, -48.9 64.3, -59.05 77.39 M-1.21 -1.02 C-11.2 11.89, -49.99 65.68, -59.5 78.61" stroke="#1864ab" stroke-width="1" fill="none"></path></g></g></svg>